<?xml version="1.0" encoding="utf-8"?>
<!-- Generator: Adobe Illustrator 24.2.3, SVG Export Plug-In . SVG Version: 6.00 Build 0)  -->
<svg version="1.1" xmlns="http://www.w3.org/2000/svg" xmlns:xlink="http://www.w3.org/1999/xlink" x="0px" y="0px"
	 viewBox="0 0 1920 1080" style="enable-background:new 0 0 1920 1080;" xml:space="preserve">
<style type="text/css">
	.st0{fill:#E9E9E9;}
	.st1{clip-path:url(#SVGID_2_);}
	.st2{fill:#232323;}
	.st3{fill-rule:evenodd;clip-rule:evenodd;fill:#E9E9E9;}
</style>
<g id="Capa_2">
	<rect x="0.6" y="0.2" class="st0" width="1920.1" height="1074.3"/>
</g>
<g id="Capa_1">
	<g id="Capa_1_1_">
	</g>
	<g>
		<g>
			<defs>
				<rect id="SVGID_1_" x="0.2" y="0.1" width="1647.6" height="924.6"/>
			</defs>
			<clipPath id="SVGID_2_">
				<use xlink:href="#SVGID_1_"  style="overflow:visible;"/>
			</clipPath>
			<g id="Capa_2_1_" class="st1">
				<path class="st2" d="M-2.8-10.2H905c0,0,35.2,95.2,7.7,211.9c-27.5,116.7-95.2,42.9-130.4,146.7
					c-35.2,103.8,16.3,181.9,24.9,254.8c8.6,72.9-22.3,139-103.8,181.9c-81.5,42.9-175.9,0-336.3,54.9S-7.9,918.2-7.9,918.2
					L-2.8-10.2z"/>
				<g id="Capa_x0020_1" transform="translate(-1684.8 584.179) rotate(-21)">
					<path id="Trazado_10" class="st3" d="M1845.8,807.7c-4.6,0-4.2-0.6-7-0.6c-0.9-3.8-2.8-5.7-3.2-9.5c2.9,0.1,2.5,0.9,5.1,0.6
						c10.9-0.9,20.2-6.5,27.7-13.7c0.9-0.9,0.3-0.6,1.6-1.5c1.1,4.7,3.2,10.9,3.2,14c-2.5,0.2-12.4,6.2-15.8,7.7
						C1854.3,806.1,1849.7,807.7,1845.8,807.7L1845.8,807.7z M1841.9,793.1v0.6l-0.8-0.5L1841.9,793.1z M1838.1,792.5l-0.3,1.4
						L1838.1,792.5z M1838.7,791.9l-0.6,0.6L1838.7,791.9z M1839.4,790.6l-0.6,1.3L1839.4,790.6z M1852.8,790.6v0.6l-0.8-0.5
						L1852.8,790.6z M1853.4,789.3l-0.6,1.3L1853.4,789.3z M1840,790l-0.6,0.6L1840,790z M1835.6,790l0.2,0.2
						C1835.7,790.1,1835.6,790,1835.6,790L1835.6,790z M1841.9,793.1c0.4-1.7-0.1-0.6,0.9-2.2c1.2-1.8,0.5-1.1,2.2-1.6
						C1844,790.8,1843.5,792,1841.9,793.1L1841.9,793.1z M1840.7,789.3l-0.6,0.6L1840.7,789.3z M1845.8,793.1c0.6-0.9,1-1.7,1.7-2.7
						c1.7-2.6-0.3-1.5,2.7-1.7c-0.6,0.9-1,1.9-1.7,2.7C1847.5,792.9,1847.8,792.6,1845.8,793.1L1845.8,793.1z M1836.8,788.7v0.6
						l-0.8-0.5L1836.8,788.7z M1853.4,789.3c0.4-1.8-0.1-0.9,1.3-1.9C1854.3,789.2,1854.8,788.3,1853.4,789.3L1853.4,789.3z
						 M1836.8,788.7v-0.6l0.8,0.5L1836.8,788.7z M1840.7,789.3l0.7-2.5C1843.1,788.1,1843,787.7,1840.7,789.3L1840.7,789.3z
						 M1831.8,787.4l0.2,0.2C1831.9,787.6,1831.7,787.5,1831.8,787.4L1831.8,787.4z M1859.1,786.1l-0.7,2.5
						c-0.3-0.5-0.9,0.9-0.4-1.2C1858.2,786.3,1858.3,786.7,1859.1,786.1L1859.1,786.1z M1854.7,787.4l0.3-1.4L1854.7,787.4z
						 M1830.5,786.7h0.6l-0.5,0.8L1830.5,786.7z M1830.5,786.7l-1.3-0.6L1830.5,786.7z M1930.4,791.9c0.7-2.7,5.7-10.7,5.7-13.4h0.6
						c0,2,0.7,6.9-0.6,8.3c-0.1,0.1-0.3,0.3-0.3,0.3L1930.4,791.9z M1882.7,794.3h-1.3c-1.5-6.4,0.8-2.8,1.3-8.3
						c1.5-0.3,3-0.7,4.5-1.3C1886.5,787.7,1883.7,790.2,1882.7,794.3L1882.7,794.3z M1829.2,786.1h-0.6l0.5-0.8L1829.2,786.1z
						 M1864.2,783.5v0.6l-0.8-0.5L1864.2,783.5z M1886.5,802.1c-1.4-1-1.6-1.8-2.6-3.2c0.1-0.1,0.3-0.4,0.3-0.3l1.8-3.3
						c1.1-2.2,5.4-10,5.5-11.7c2.9-0.3,5.1-1.3,7.6-1.9l-9.8,15C1888.3,798.4,1887.4,800.2,1886.5,802.1L1886.5,802.1z M1857.9,781
						v0.6l-0.8-0.5L1857.9,781z M1864.2,783.5c0.2-1,0.5-2,0.9-2.8c1.1-2.7-0.7-0.6,1.5-2.2C1868,781,1866.9,782.8,1864.2,783.5
						L1864.2,783.5z M1889.7,804.6l4.1-7.4c1.9-3,9.9-16.7,11.3-17.3c0.8-0.3,4.1-1.2,5-1.4l-4.6,6.9c-0.9,1-1.6,2.1-2.4,3.3
						c-0.9,1.1-1.6,2.2-2.3,3.3l-7,10.2C1891.9,804.6,1893.2,804.5,1889.7,804.6L1889.7,804.6z M1854.5,778.6
						c1.7,0.3,0.9-0.4,1.4,1.1L1854.5,778.6z M1859.1,786.1c0.3-2.6,0.7-2.6,1.7-4.6c0.5-1.1,0.5-1.4,0.9-2.3c1.2-2.8,0-1.3,1.9-2
						L1859.1,786.1z M1857.9,781c0.3-2.7,0.3-3.3,2.6-3.9L1857.9,781z M1887.1,775.3c0.7,0.9,0.6-1.4,0.6,1.9h-0.6V775.3z
						 M1903.7,804c-2.8,0.1-3,0.6-6.3,0.6c3.7-5.6,17.4-23.6,17.8-28.1c1.3,0,2.6-0.3,3.8-0.6C1915.8,782,1904.6,799.9,1903.7,804
						L1903.7,804z M1854.1,773.3c0-1.7,0.5-1.5,1.9-1.9c0,2.6,0.3,2.1-0.6,3.9C1854.3,774.5,1854.1,775.2,1854.1,773.3L1854.1,773.3
						z M1920.9,796.9c1.1-2.1,2.1-4.3,3.2-6.3l7-12.7c0.6-1.1,0.9-2.1,1.7-3.4c0.3-0.6,0.6-1.1,0.9-1.5c0.1-0.2,0.4-0.6,0.6-0.7
						c0.1-0.1,0.3-0.3,0.3-0.3c0-0.1,0.2-0.3,0.3-0.3c0.4,1.7-0.1,0.5,0.6,1.9l-10,18.7C1924,796.1,1925.5,795.9,1920.9,796.9
						L1920.9,796.9z M1908.8,802.7c0.6-2.7,2.7-5.5,4.2-7.9l8.5-16.3c1.7-3.5,2.3-5,7.6-5.1l-8.9,16
						C1912.2,805.1,1919.3,797.2,1908.8,802.7L1908.8,802.7z M1887.1,775.3c-2.6-1.9-0.6-2.6-5.7-2.6v-0.6c8.3,0,5.1-0.9,8.9-1.9
						v3.2c-1.5-1-0.7-0.8-2.6-1.3C1887.5,773.1,1887.3,774.2,1887.1,775.3L1887.1,775.3z M1938.1,770.1h2.6c1.9,4,3.2,11.8,3.2,17.2
						c0,1.4-8.2,10.7-13.4,13.4c-1.5,0.9-2,1.3-3.6,2.1c-21.4,11.8-26.9,7.5-42.9,7.5c-0.6-2.1-4.1-6.5-6.2-10.4
						c-1-1.9-1.1-2.4-2.7-3c0.3-3,0.6-5.9,0.6-8.9c1-0.3,2.1-0.5,3.2-0.6c-1,2.7-4.3,0.3,0.4,9.8c4.9,10,6.8,11.8,16.8,11.8
						c11.4,0,24.1-6.1,33.1-12.1C1940.2,789.5,1943.7,782.7,1938.1,770.1L1938.1,770.1z M1891.6,770.1c0.6-0.6,2.3,0.9,0.8,0.3
						C1892.4,770.5,1890.5,771.3,1891.6,770.1L1891.6,770.1z M1853.4,770.1c0-1.5,1-0.3,0.4,0C1853.8,770.1,1853.4,772,1853.4,770.1
						L1853.4,770.1z M1862.9,768.3c0-1.5,1-0.3,0.4,0C1863.3,768.3,1862.9,770.1,1862.9,768.3L1862.9,768.3z M1948.3,775.3h-1.3
						c-0.1-4.2-1.6-3.3-1.9-7c1.7-0.2,3.5-0.6,5.1-1.3C1949.6,769.8,1948.4,771.9,1948.3,775.3L1948.3,775.3z M1862.3,766.4l0.2,0.2
						C1862.5,766.5,1862.2,766.5,1862.3,766.4L1862.3,766.4z M1852.8,764.4c2,0.7,3.1,2.7,0.6,4.5
						C1853.5,767.4,1853.3,765.9,1852.8,764.4L1852.8,764.4z M1868.1,762.5c2.1,2.5,1.8,3.2,4,4.9c4.3,3.2,6.7,6.3,10.6,7.2
						c4,0.9,1.4,0.6,4.4,5.1l-13.4,3.9c-0.9-3.7-5.1-8.2-7.6-8.9c0-5.6-1.9-6.7-1.9-11.5h0.6c0,2.7,0.9,4,2.6,5.1
						C1869.1,765.1,1868.5,766.3,1868.1,762.5L1868.1,762.5z M1866.2,763.8c0-1.5,1-0.3,0.4,0
						C1866.5,763.8,1866.2,765.6,1866.2,763.8L1866.2,763.8z M1862.3,761.9v3.9c-0.7-0.5-1.6-0.9-1.7-2.1
						C1860.4,761.9,1860.3,762.9,1862.3,761.9L1862.3,761.9z M1856.6,762.5c3.3,1.7,2.5,1.2,4.2,4.6c1.1,2.1,2.1,4.5,2.7,6.8
						c-2.1-1-2.3-0.5-4.5,0c0-3.8,0.4-5.7-1.3-8.9L1856.6,762.5z M1866.2,760v1.9C1863.5,760,1865,761.2,1866.2,760L1866.2,760z
						 M1937.5,758.7l-1.3,0.7L1937.5,758.7z M1919,758c2.9,0.3,1.1-0.7,2.6,1.3C1918.1,760.1,1920.2,760.5,1919,758L1919,758z
						 M1937.5,758.7v-0.6l0.8,0.5L1937.5,758.7z M1914.6,758h1.9v0.6h-1.9V758z M1939.4,757.4v0.6l-0.8-0.5L1939.4,757.4z
						 M1940.1,756.8l-0.6,0.6L1940.1,756.8z M2001.1,753c-0.3,2.7-3.5,8.1-5,9.7c-1.5,1.7-1.4,0.6-1.5,3.7c2.7-0.1,2.6-0.2,4-1.7
						c1.5-1.5,1.4-2.3,2.4-4c0.9-1.3,1.6-2.7,2.3-4c2.9-7.5-1.6-3.8,18.6-10c2.7-0.9,6.2-1.7,9-2.5c3-0.8,5.9-1.8,8.9-2.6l35.7-10.2
						c1.5,2.2,5.2,3.7,8.5,6.9l5.7,5.7c1.6,1.9,0.4,0.8,1.4,2.4c3.5,6.3,20.2,5.6,22.7,6.7c-3.1,13.4-15,15.1-28.2,20.8
						c-3,1.3-5.4,2.3-8.5,3.6l-14.2,4.3c-14.2,2.8-26.4,0.5-40.8,0l-11.2-0.9c-8.4-1.9-6.9-5-17.3-7.6c-3.3-0.9-6.4-1.6-10-2.8
						c-4.4-1.5-14.2-5.7-16.3-8.5c2.8-0.3,5.4-1.3,8.2-2.1l16.8-4.9C1995.2,754.3,1998.1,753.1,2001.1,753L2001.1,753z
						 M1947.7,753.6l2.5-1.3c0.1,8.2,4.5,8.4,0,9.6C1949.7,759,1948.9,756.2,1947.7,753.6L1947.7,753.6z M1940.1,756.8
						c0.7-1,1.4-2.1,1.9-3.2c0.4,0,2,0.3,2.1,0.3c0.7,0,0.9-0.2,2.4-0.3C1944.8,756,1943.6,756.5,1940.1,756.8L1940.1,756.8z
						 M2001.1,753v-0.6l0.8,0.5L2001.1,753z M1822.9,740.9h1.9c0.9,2,1.6,4.5,2.6,6.3C1825.8,747.4,1823,749.6,1822.9,740.9
						L1822.9,740.9z M1822.9,740.9h-0.6l0.5-0.8L1822.9,740.9z M1852.8,739.6l-1.2,0.7L1852.8,739.6z M2007.5,738.3l-1.2,0.7
						L2007.5,738.3z M1988.4,738.3h2.6v1.3C1988,739.3,1989.8,740.3,1988.4,738.3L1988.4,738.3z M2007.5,738.3v-0.6l0.8,0.5
						L2007.5,738.3z M1984,737.7l0.2,0.2C1984.2,737.9,1983.9,737.7,1984,737.7L1984,737.7z M2009.5,737v0.6l-0.8-0.5L2009.5,737z
						 M1969.3,737l0.2,0.2C1969.5,737.2,1969.2,737.1,1969.3,737L1969.3,737z M1965.4,736.3c-0.3,1.8,0.3,0.9-1.1,1.4L1965.4,736.3z
						 M1848.3,736.4h1.9c-0.4,1.9,0.1,0.9-1.3,1.9C1848.7,737.7,1848.4,737.1,1848.3,736.4L1848.3,736.4z M2128.6,736.4v0.7
						l-0.8-0.5L2128.6,736.4z M2010.1,736.4l-0.6,0.6L2010.1,736.4z M1966.7,735.1v0.6l-0.8-0.5L1966.7,735.1z M2010.1,736.4
						l1.3-2.6h3.8c-0.6,1.6-0.3,0.7-0.6,1.3s0-0.4-0.6,1.3H2010.1L2010.1,736.4z M1966.7,735.1c0.5-2.3,0.3-2.1,1.9-3.2
						c-0.1,1.5,0.2,3,0.6,4.5C1967.8,735.4,1968.6,735.7,1966.7,735.1L1966.7,735.1z M1853.4,735.1h-1.9
						C1852.9,733.2,1851.9,733.2,1853.4,735.1L1853.4,735.1z M2138.7,733.9v0.6l-0.8-0.5L2138.7,733.9z M1820.3,733.3
						c3.5,0.3,1-0.9,3.8,4.5c-1.1-0.1-2.1-0.3-3.2-0.6C1821,735.7,1820.7,734.5,1820.3,733.3L1820.3,733.3z M2016.4,733.3
						c1.1-0.1,2.1-0.3,3.2-0.6c0,7,4.5,8.3,0,9.5C2019.4,738.9,2018.3,735.8,2016.4,733.3L2016.4,733.3z M2084.5,728.8
						c1.7-0.4,3.3-0.9,5.1-1.3v9.5c-1.7-1.1-3.4-2.7-5.1-3.9V728.8z M1876.3,728.1c0.9,1.5,1.4,3.3,1.3,5.1
						c-3.7,1.5-7.6,2.3-11.5,2.6c0.2-5.9,3.5-0.5,7-5.7c1.1,0.1,2.1,0.3,3.2,0.6V728.1L1876.3,728.1z M1847,732.6v0.6l-0.8-0.5
						L1847,732.6z M1969.9,724.9l4.5,5.6c4.1,7.4,5.2,3.3,7.5,7.2l1.4,2.5c1.1-0.1,2.1-0.3,3.2-0.6l2.1,1.8c4.3-0.9,2.2,0.2,5.6,0.2
						c2.1,0,2.9-0.9,4.8-1l4.7-0.9c4.3,2.9,3.1-0.1,7.3-1.6c1.8-0.7,1.3,0.2,3-0.8c0.7-0.4,1.4-1.3,2.4-2.1c0.6,2.6,1.3,5.1,1.9,7.6
						c-2.1,0.3-4.1,0.9-6.1,1.5l-19.4,5.5c-0.5-0.9-0.9-2.6-2.2-2.9c-2.1-0.7-0.9,0.2-0.9,4.2l-18.1,4.9c-3.2,1-15.4,4.6-18.3,4.7
						c-0.3-3.9-1.9-3.7-1.9-8.9c2.5-1.2,4.7-2.8,6.5-4.9c0.9-0.9,1.8-2.1,2.5-3.3c1-1.5,1.6-1.8,1.8-3.9c3-0.7,3.8,0,4.5-2.6h1.3
						c0.4,5.1,0.8,6.3,3.2,7C1973.3,740.3,1969.9,735.5,1969.9,724.9L1969.9,724.9z M1847.6,732l-0.6,0.6L1847.6,732z M1858.5,730.7
						c1.9,0.7,0.5-0.9,1.5,1c0.6,1.2,0.3,1.4,0.3,2.8C1858.1,732.8,1859.8,733.4,1858.5,730.7L1858.5,730.7z M1847.6,732
						c0.3-1,0.7-1.8,2.5-2.6c1.5-0.6,7.6-0.9,7.6,8.3c-1.8,0.9-2.3,1.9-5.1,1.9c2.7-3.7,2.6,0,2.6-6.3
						C1851.9,730.2,1853.1,731.5,1847.6,732L1847.6,732z M1813.9,722.4c2.6,10.9,5.7,17.7,7.6,24.9c1.2,4.8,2.5,3.5,6.3,3.2
						l9.5,22.9c0.9,2.9,2.5,5.3,3.2,8.3c-2.4,0.6-3.9,2-5.7,3.2c-8.2-4.3-6.9-7.1-12.4-14.3c-2.7-3.4-5.4-12.7-5.4-16.9
						c2.1,0.4,1,0.7,2.6,0c-5.9-8.8-7-11.2-7.9-23.3l1.4-6.8C1814,721.8,1813.2,723.4,1813.9,722.4L1813.9,722.4z M2152.8,726.2
						c-0.3,3.6-1.4,4.5-3.8,5.7c0.3-1.1,0.8-2.1,1.5-2.9l1.7-2.1c0.1-0.1,0.3-0.3,0.3-0.3S2152.7,726.3,2152.8,726.2L2152.8,726.2z
						 M1854.1,726.8c2.8,0.3,3.9,0.7,5.1,2.6C1856.7,729.2,1855.2,728.4,1854.1,726.8L1854.1,726.8z M2152.8,726.2v-0.6l0.8,0.5
						L2152.8,726.2z M1859.1,725.6h0.6l-0.5,0.8L1859.1,725.6z M2101.8,724.3v1.3l-1.4-1.1L2101.8,724.3z M2101.8,724.3v-0.6
						l0.8,0.5L2101.8,724.3z M2108.8,722.4c-0.4,1.8-4.5,9.4-7.6,10.2c0.2-2.5,0.1-1.5,1.4-3c0.7-0.8,1.4-1.6,1.9-2.6
						C2106.9,723.1,2106.3,723,2108.8,722.4L2108.8,722.4z M1876.3,728.1l-0.7-1.3c-4.5,0.3-4.1,3.3-9.4,3.8c-0.2-2.9-1-5.7-2.6-8.3
						c4.6-0.4,5.8-7.4,8.3-10.8C1873,716.2,1876.2,723.6,1876.3,728.1L1876.3,728.1z M2117.7,746c-9.4,0-15.3,0.9-22.9-3.2v-17.2
						c2.5-0.1,1.5,0.2,3.2-0.6c-1,17.9-2.1,15.7,4.2,16.8c14.3,2.5,29.3,0,43-4.6c9.7-3.3,10.1-5.3,13.6-15.8c0-0.1,0.5-1.3,0.5-1.4
						l1.1-1.5c0,6.8-4.2,17.6-11,19.6c-1.1,0.3-2.2,0.7-3.3,1.1C2139.2,742.1,2125.2,746,2117.7,746L2117.7,746z M2108.8,722.4v-0.6
						l0.8,0.5L2108.8,722.4z M2068.7,721.8c-3.1,4.6-5.4,2-7.6,0C2065.1,722.1,2064,722.9,2068.7,721.8L2068.7,721.8z M2052.7,719.9
						c0.9,0.7,1.9,1.3,2.9,1.5c3.1,0.9,1.8-0.5,3.4,1.6C2057.2,723.5,2053,726.6,2052.7,719.9L2052.7,719.9z M2073.1,719.2
						c0,2.7,0.4,5.9,1.3,7.6c-2.4-0.3-1.9,0.6-3.2-5.1h-2.6c0.1-0.1,0.3-0.4,0.3-0.3C2070.2,720.5,2071.7,719.8,2073.1,719.2
						L2073.1,719.2z M1859.1,721.2h0.6l-0.5,0.8L1859.1,721.2z M1859.1,721.2l-3.2-1.3h2.6L1859.1,721.2z M1817.1,717.3
						c2.3,1.7,1.2,2.3,2.3,5.3c0.9,2.5,0.3,0.7,0.9,1.6c-0.4,1.6,0.3,0.7-1.3,1.3v1.9h1.9c0.1,1.1,0.3,2.1,0.6,3.2
						c-2.9-0.8-3.1-2.7-3.9-5.7C1817.1,722.5,1816.1,719.4,1817.1,717.3L1817.1,717.3z M2102.4,738.3c1.6-3.1,2.1-2.6,3.9-5
						c1.3-1.6,2.4-3.6,3.6-5.3c3.6-5.3,4.5-8.4,9-8.8c-1.2,1.9-2.5,2.7-4.1,4.8l-7.6,10.2C2105.9,736.1,2104.7,737.7,2102.4,738.3
						L2102.4,738.3z M1856,719.9l-8.3-0.6C1850.6,719.2,1854.5,718.8,1856,719.9L1856,719.9z M2073.1,719.2v-0.6l0.8,0.5
						L2073.1,719.2z M1843.9,718.6h2.6v0.6c-0.4,0-0.9,0-1.2,0C1844,718.8,1844.5,718.9,1843.9,718.6L1843.9,718.6z M1843.9,718.6
						l-1.4-0.3L1843.9,718.6z M1841.3,717.3l0.2,0.2C1841.5,717.5,1841.2,717.4,1841.3,717.3L1841.3,717.3z M2034.3,716.7l0.2,0.2
						C2034.4,716.9,2034.2,716.7,2034.3,716.7L2034.3,716.7z M1840,716.7l0.2,0.2C1840.2,716.9,1839.9,716.7,1840,716.7L1840,716.7z
						 M2111.3,738.9c-1.2-0.6-0.8-0.5-2.6-0.6l9.2-12.4c6.7-9,4.6-8.2,11.8-9.8C2127,721.2,2117.6,729.6,2111.3,738.9L2111.3,738.9z
						 M1838.7,716h0.6l-0.5,0.8L1838.7,716z M1838.7,716h-0.6l0.5-0.8L1838.7,716z M2038.1,712.2c0,1.3,0.3,2.6,0.6,3.9
						c-1.7-0.9-0.7-0.6-3.2-0.6C2036.5,714,2036.8,713.2,2038.1,712.2L2038.1,712.2z M1836.8,714.7h0.6l-0.5,0.8L1836.8,714.7z
						 M1836.8,714.7l-0.6-0.6L1836.8,714.7z M1836.2,714.1h-0.6l0.5-0.8L1836.2,714.1z M1811.4,721.8h-0.6c0-3.3-1.8-4.6,0.5-14.2
						c1.4-5.7,1.2-5.7,3.3-6.3c0.1,3.3,1.3,5.3,1.3,12.7c-3.3,1.8-2.3,0.7-3.9,5.1C1811.5,720.5,1811.4,719.5,1811.4,721.8
						L1811.4,721.8z M2116.5,738.3c1.5-2.9,2.6-3.6,5-5.9c2.7-2.7,13.3-14.6,14.2-18.3c2.5-0.2,3.9-1,6.3-1.3l-5.6,7.1
						c-2.1,2.4-3.7,4.5-5.7,7c-0.9,1-0.6,0.9-1.4,1.9c-0.6,0.8-0.9,0.9-1.5,1.7c-0.8,0.9-0.4,0.8-1.4,1.9
						C2121.9,737.8,2122.4,738.3,2116.5,738.3L2116.5,738.3z M2108.8,711.5l-1.4,1.8c-5.5,0.3-8,0.9-9.4-1.2
						C2103.8,713.6,2103.9,712.7,2108.8,711.5L2108.8,711.5z M2108.8,711.5v-0.6l0.8,0.5L2108.8,711.5z M1848.9,716.7
						c-4.2-0.3-7.5-2.2-10.5-4.8c-0.1-0.1-0.3-0.2-0.3-0.3c1.4,0.1,2.7-0.1,3.9-0.5l24.7-6.4c0.7,7.9,4.2,2.7-0.4,12.4
						c-2.1,4.3-1.1,1.9-4.6,3.6c-2-2.9-3.4-3.2-8.3-3.2v-0.8c1.8,0,6.7-2.1,8.5-2.9c2.5-1.2,1.6-0.4,2.3-2.1
						C1858.7,712.8,1853.1,713.9,1848.9,716.7L1848.9,716.7z M2138.7,733.9l19.7-24.2c-1.7,7.3-1.5,5.1-5.6,10.3
						c-1,1.3-1.7,1.6-2.7,3.1l-4.5,6.3C2143.7,732.3,2143.7,733.8,2138.7,733.9L2138.7,733.9z M2090.3,709.7c1.1,0.5,2.2,0.9,3.4,1
						c3.3,0.7,2.1-0.5,3.5,1.5C2089.3,712.2,2091.6,712.1,2090.3,709.7L2090.3,709.7z M2128.6,736.4c1.5-2.9,3.3-4.6,5.3-7.4
						c0.8-0.9,0.8-0.9,1.5-1.7l9.6-12.7c2.5-3.3,2.8-4.9,8.4-5c-1.9,3.5-14.9,18.3-18.7,23.3c-1.2,1.5-1.9,1.9-2.9,3.4L2128.6,736.4
						L2128.6,736.4z M1870.6,709.7l0.2,0.2C1870.8,709.8,1870.6,709.7,1870.6,709.7L1870.6,709.7z M2153.4,709.7v-0.6l0.8,0.5
						L2153.4,709.7z M1844.6,707.2v-3.9c2.2,0.6,2,0.7,2.6,3.2L1844.6,707.2z M1868.7,703.9c1.4,0.9,0.8,0.1,1.3,1.9
						C1867.6,704.2,1869.7,705.9,1868.7,703.9L1868.7,703.9z M2182.7,703.3v0.6l-0.8-0.5L2182.7,703.3z M2175.6,705.8h-1.8
						c0.5-0.8,0.8-1.1,1.2-2l0.4-0.8c0.8-1.2,0.3-0.4,0.9-1.1L2175.6,705.8L2175.6,705.8z M2180.1,702c-0.6,2.6-0.2,1.9-1.9,2.6
						C2179.3,702.5,2178.2,703.4,2180.1,702L2180.1,702z M2163.6,702c-0.6,2.6-0.2,1.9-1.9,2.6
						C2162.8,702.5,2161.7,703.4,2163.6,702L2163.6,702z M2169.3,705.8c1.1-2.1,2.2-4.9,4.5-5.7
						C2173.5,702.9,2172.1,705.6,2169.3,705.8L2169.3,705.8z M2163.6,702v-0.6l0.8,0.5L2163.6,702z M2176.3,700.7
						c0.6-0.6,2.3,0.9,0.8,0.3C2177,701.1,2175.2,701.9,2176.3,700.7L2176.3,700.7z M1859.1,725.6l-3.8-1.3c-1.1,0.9-2.4,1.5-3.7,2
						c-3.8,1.7-10.2,7-5.6,11.8l3,2.5c0.9,0.9-0.9,0.3,1.2,1c0.2,0.1,0.3,0.1,0.4,0.3c0.1,0.2,0.3,0.2,0.4,0.3
						c0.5,0.2,1.1,0.3,1.7,0.3c4-0.1,9.6-5.9,10-7.9c0.9-4.2-1.4-3.9,0.9-5.5c0,9.4-0.3,7.8-8.1,18c-6.8,8.8-6.5,16.3-3.9,29.1
						c0.9,4.3,1.6,4.5,1.9,7c-2.1,0.6-0.3,0.1-1.8,0.8c-3,1.5-3.2,1.8-6.5,1.8c-2.3-9.9-10.7-29.9-14.6-41.4
						c-1.2-3.7-2.1-6.9-3.3-10.7c-1.1-3.5-2.4-6.6-3.3-10.6l-6.8-21.9c1.8-0.9,3.7-1.5,5.7-1.9c2.7,11.3,10.9,21.6,23.5,23.6
						C1851.8,723.3,1856.6,721.8,1859.1,725.6L1859.1,725.6z M2150.2,702.6v2.6h-1.9c-0.9-3.6-1.8-2.2-2.6-5.1
						c3.5-0.9,0.5-1.8,5.1-1.9C2150.6,700.2,2150.2,700.5,2150.2,702.6L2150.2,702.6z M2194.1,696.3v2.6c2.6-0.3,1,0.5,2.3-0.9
						l1.5-2.3c0.6,2.1,1.4,4,2.3,6c1.2,3,0.9,4.3,0.9,8.1c-3.5,2.4-3.7,3.3-5.7,3.9c-0.9,1.4-0.1,0.9-1.9,1.3
						c-2.6,3.5-13.4,5.7-18.2,6.1c-4.2,0.3-11-1.6-11.7-2.3c-1.5-3-1.9-6.4-1.9-10.8c11.3,2.7,20.7,1.2,29.9-5.1
						c1.6-1.1,2-1.1,2.5-3.2h-1.9c0.3-0.5,0.6-0.9,0.9-1.5L2194.1,696.3L2194.1,696.3z M2039.3,696.3c7.1,8.2,3.1,16.3,12.1,22.3
						c0,7.2,3.3,8.9,8.9,5.1c5.7,5.1,5.7,0.9,8.8-0.2c2.1-0.7,1.4,2.1,1.4,4.6c-2.7,0.1-8.8,2.1-11.7,2.9l-35.4,9.8
						c-0.9-2-2.6-6.1-2.6-8.9c10.9-7.3,9-9.7,11.1-11.9c1.5-1.7,0.5-0.3,2.7-1.1c0.1,0,1.2-0.7,1.2-0.7c1.6-1-0.8-0.1,1.6-0.9
						c0.3,1.1,0.5,3.1,0.9,4.2c0.6,2,0.8,2,2.9,2.1c0-6.5-0.7-8.1-1.6-13.6c-0.7-3.9,0.2-3.9,0.4-6.8
						C2040.3,700,2039.3,699.6,2039.3,696.3L2039.3,696.3z M2180.1,702c0.1-3,0.1-3.2,2.6-3.9C2180.7,701.1,2181.9,700.6,2180.1,702
						L2180.1,702z M2165.4,705.2c0.4-2,4.1-7.7,5.7-8.9c0.9,2,0.6,1.6-3.2,7C2166.9,704.9,2167.6,704.7,2165.4,705.2L2165.4,705.2z
						 M2044.5,697.6h-0.6l0.5-0.8L2044.5,697.6z M2191.5,695c-0.3,2.8-1.3,5.7-3.8,6.3C2191.3,696.1,2189.2,696.7,2191.5,695
						L2191.5,695z M2194.8,695l-0.6,1.3L2194.8,695z M2038.7,695l0.6,1.3L2038.7,695z M2194.8,695l0.3-1.4L2194.8,695z
						 M2038.1,693.1c0.7,0.7,0.6-1.1,0.6,1.9C2038,694.3,2038.1,696.1,2038.1,693.1L2038.1,693.1z M2191.5,695
						c0.3-3-0.7-1.1,1.3-2.6c-0.3,1.2,0.3,0-0.4,1.5C2192,694.7,2192,694.6,2191.5,695L2191.5,695z M2152.1,704.6
						c0.5-2.1,0.8-4.2,0.6-6.3c7.7-3.7,8.2-6.3,8.2-18.4l3.2,3.3c0.1,0.1,0.3,0.3,0.3,0.3c2.1,2.1,2.2,3.8,3.3,6.3
						c0.9,2.1,1.3,1.7,1.5,4.3c-3.3,1-6.2,3-8.4,5.6C2157.9,703.1,2160.1,702.7,2152.1,704.6L2152.1,704.6z M2182.7,703.3l4.5-8.8
						c1.3-2.4-0.5-1.9,2.5-2.7c-0.9,4-4.2,7.5-5.1,11.5L2182.7,703.3z M2184.6,693.7v-1.9h1.3
						C2185.2,694.4,2184.6,693.7,2184.6,693.7L2184.6,693.7z M2196,689.9c-2.7-0.1-3.5-0.6-7-0.6l2.9-2.1c0.9-0.7,1.8-1.5,2.7-2.4
						c1.9-2,2.7-3.8,2.7-7.5h0.6c0,3.2,0.6,2.8,0.6,5.7c-1.6,2.2-1,0.3-2.1,2.4C2196,686.4,2196,688,2196,689.9L2196,689.9z
						 M1827.1,691.5c-1.1,1.5-6.6,4-8.2,4.6c-6.9,2.6-9.5,3.3-18.4,3.3c-3.2-4.7-5.7-8-5.7-16c2-0.5,0.9-0.2,2.5-1.4
						c2.5-1.9,5.1-4.4,7.7-5c0.3,3.7,2.1,3.3,7.6,1.2c3.1-1.1,5.1-2.9,5.1-6.3c6.5,0,3.3-1.1,13.4,1.3c0.3,3.3,1.8,3.9,2.6,7
						l-0.8,0.3c-0.9,0.3,0.3-0.3-1.1,0.3v3.9l-4.6,3c-2.8,1.4-3.9,0.3-4.3,4c2.3-0.3,5.3-1.8,9-4.4c1.9-0.8,2.4-3.5,1.6-6.9
						c0-0.1,0.2,0,0.2-0.1l1.5,3.6c0.3,1.7-0.3,2.8-1.5,3.4L1827.1,691.5L1827.1,691.5z M1805,677.1v-0.6l0.8,0.5L1805,677.1z
						 M2063.5,672.7c3-2,5-7.5,5.7-10.8c2.6,3.7,1.9,13.7,1.9,17.8c-3.1-0.7-3.7-2.3-7-2.6C2064.3,675.7,2064,674.1,2063.5,672.7
						L2063.5,672.7z M1806.3,676.5c0.1-0.1,0.3-0.4,0.3-0.3l3.3-1.7c1.5-0.6,3-1,4.5-1.2c-0.1,0.1-0.3,0.1-0.3,0.3
						C1814,674.5,1810.2,676.5,1806.3,676.5L1806.3,676.5z M1849.6,668.2v-1.3c4.8,0,6.9,0.3,10.8,3.9c-2.6,0.3-1.5,0.7-3.7,0.5
						c-3.9-0.3-7.4-2.2-10.3,3.3c4.5,0,3.2-1.3,8.3-1.3c-0.7,2.7-1.6,1.5-1.9,5.1c2.1-0.5,0.4,0.2,2.1-1.1c3.9-2.7,6.7-7,14-0.3
						c4.3,3.9,6.2,11.2,6,15.4c-0.3,6.7-0.1,8.1-3,8.4v1.3c5,0.1,3,1.6,6.3,2.6c-0.3-2.6-0.3-2.6-2.6-3.2c0.9-3.5,1.4-7.2,1.3-10.8
						l4.3,8.5c0.7,1.5,1.2,3.2,1.5,4.9c0.5,2.4,1.2,2.9,1.2,5.7c2.8,1.5,1.8,0.6,3.4,3.5l4.6,9.4c3.9,9.4-3.1,12.5,0.8,12.5
						c1.5,0,1.4-0.5,2.6-1.3c0.4,5.6,1.5,3.7,0.4,10c-0.8,4.7,6.8,15.7-2.4,21.8v-1.9c-3.3,0.3-3,1.1-5,2.7
						c-1.7,1.3-3.4,1.5-5.2,2.4c-4.9-2.6-5.7-2.1-5.7-9.5c1.2,0.4,2.5,0.6,3.8,0.6c-0.3-1.5-0.1-1-1.9-2.6c-3.5-2.9-3.8-5.5-4.7-3.1
						c-0.2,0.4,0,0.9,0.4,1.6c0.1,0.2,0.4,0.7,0.5,0.8l0.6,0.7c-1.4,2.1-1.9,3.6-1.9,7c-2.6-1.7-5.1-6.3-5.1-7c0-0.9,3.3-7-0.2-5.9
						c-0.1,0-2.1,1.3-2.4,1.5c-0.1-3,0.7-2.5-1.9-3.2c-1.7,7.6-0.6-0.9-0.6,7c-6.4,1.7,1.3,2.3-11.5,1.3c0.7-1.7-0.3-1.6,2.7-6.3
						l9.1-11.9c5.2-2.4,8-0.3,8-0.3c2.1-3.9-0.3,0.1,8.3-4.5c0-7-1.2-7.4-1.3-10.8c2.1,1.4,0.7,1.3,4.5,1.3
						c-0.4-5.1-4.5,0.3-10.6-18.1c-0.3-1.3-0.9-2.5-1.5-3.6l-1.2-2.6c-10.1,0-5.8-5.7-10.8-7c-1.3,1.5-0.3,2.5,0,3.9
						c-3.3-2.2-3.9-4.3-5.1-7.7c-0.8-2.4,0-1.6-2.6-1.9c0,6.7,2.8,12.7,10.2,12.7v1.3c-4.7,0.1-7.9,2.2-12.1,2.6
						c-4.5-8.5-6.1-4.5-8.9-2.6v5.1c-7,3.3-6.3,1.8-10.9-4.4c-1.5-2.1-3.7-4.5-4.4-7.1c2.7,2-0.2,1.6,3.2,2.6
						c0.9-1.9,0.6-1.8,0.6-4.5c1.8-1.1,3.4-2.5,5-3.9c0.8-0.7,3.3-2,3.3-6.2c0-3-1.8-12.2-6.3-13.4c0.5-1.9,1.1-2.6,2.9-3.4
						C1841.6,664.1,1844.6,668.1,1849.6,668.2L1849.6,668.2z M2006.9,661.9v3.2h-1.3c0.1-1-0.2-0.6,0.3-1.7
						C2006.6,661.4,2006.4,662.5,2006.9,661.9L2006.9,661.9z M1957.2,663.2c5.7,3.8,4.7,1.3,9.5,0c0,1.7-0.2,2.6,0.3,4.1
						c0.9,2.6-0.3,0.9,2.2,2.2c2.6-5.3-2.2-9.8,5.1-14.7c0.6,2.3,5,10.3,10.6,9.4c3.1-0.5,2.8-1.1,4.7-2.3c4.8,1.1,8.8,4.5,11.3,8.4
						l1.8,3.3c1,1.5,0.1,0.2,0.9,1c-1,1.5-1.7,2.1-1.9,4.5c4.5-0.1,0.9,0.2,3.3-1.2c1.6-0.9,2.1-0.5,3.8-1.3
						c-1.1-2.1-0.3-2.3-3.2-2.6c-0.2-2.4-1-3.3-1.9-5.1c9.1,0,13.8,4.9,17.8,11.4c0.8,1.2,1.1,1.4,1.9,2.6l2.5-0.7
						c1.4,2.1,5.9,5.7,5.6,11.4l0.2,4.5c3.8-0.3,1.2-0.7,3.8-2.6c0.3,2.7,1.3,4.9,1.3,7.6c0,4.2-1.8,6.8-2.6,10.2
						c-0.1-0.2-0.2-0.5-0.3-0.4c-0.1,0.1-0.2-0.3-0.2-0.4c-0.7-1.5-0.2-1.4-1.5-2.3l-1.6,5.1c-1.2-4.2-0.9-9.1-0.9-14.2
						c-2.4,0.7-2.6,1.4-2.6,6.3c-1.5-1-0.7-0.8-2.6-1.3c0.5,6.5,2.6,1.4,2.6,14.7c0,2.7-8.8,8.9-12.1,8.9c-5.2,0-4.5,0.3-8.9-0.6
						c0.5-1,1.6-3.4-0.2-2.7c-3.3,1.4,0,2-6.2,2c0.3,3.3,0.7,2.2,3.8,2.6c2.1,0.3,2.7,1,5.1,1.2c-3.3,5-13.4,5.1-14.7,3.9
						c-0.5-1-0.7,1.2,0-1.9c-2.5,0.1-17.1,5-18.4-11.5c-1.5,0.4-0.4-0.2-1.4,0.5l-1.2,1.4c-0.5-2.1-5-13.4,6.3-13.4
						c4.9,0,8.2,6.4,12.7,7.6c-0.8-3.3-1.6-2.7-3.2-5.1c2.2-3,5.7-2.1,7.4-2.8c1.3-0.5,1.3-1.6,2.2-1.6c3,0,3.2,3.3,5.7,5.1
						c1.3-2.2,0.5-2.8,0-5.1c2.2-0.6,1.5-0.3,2.6-1.9c-11-2.6-7.6-2.9-12.4-9.9c-1.2-1.7-0.3-1.1-2.2-1.6c-0.7,1.7-0.1,0.9,0,3.9
						c-4.5-1-9.2-1.7-14.1-5.1c-6.3-4.4-6.9-8.5-9.5-10.2c-1.4,0.9-0.8,0.1-1.3,1.9c-1-0.6-2-1.5-2.7-2.4l-4.7-6.7
						c-0.8-1.3-1.3-2.7-1.5-4.2c1.8,1.2,0.9,1.1,3.2,0.6c-0.1-3.7-0.8-3.1-2.3-5.3C1957.8,666.4,1958.1,665.2,1957.2,663.2
						L1957.2,663.2z M2128.6,659.3c1.3,0.8,2.7,1.3,4.1,1.6c2.8,0.8,2.1,0,3.5,2.1c-3.1,0-4.3,0.3-6.3,1.3
						C2129.5,663.3,2128.9,660.2,2128.6,659.3L2128.6,659.3z M1990.9,652.9v-1.3c1.1-0.6,2.1-1.2,3.2-1.9c1.5,3.2,2.9,8.3,10.2,8.3
						l-0.6,7c-2.3-0.2-1.7-0.1-3.1-1.5c-2.6-2.5-5.8-4.6-9.7-5V652.9L1990.9,652.9z M2178.8,656.1c5.1,0,8,0.4,12,5.8
						c2.2,3,3.9,6.4,4.5,10.1c-2.1-1.4-2.2-1.9-5.7-1.9l1.2,2c3.9,5,5.2,6.1-0.7,11.9c-2.6,2.5-3.9,1.9-6.9,3.3
						c-0.1-4.2-2.2-10.7-3.2-14.7c3,0.8,2.7,2.4,4.7,3.7c2.6,1.5,2.3-0.9,0.5-3.2c-1-1.1-2.2-2.1-3.5-2.8c-1.9-1.4-2.6-0.9-3.4-2.9
						c-0.8-1.9-0.6-3-1.5-4.9l2.1-2.4c-0.3-0.4-1.5-2.4-1.5-2.5C2176.9,656.3,2176.9,656.1,2178.8,656.1L2178.8,656.1z
						 M2186.5,652.3c0.1,0.1,0.3,0.2,0.3,0.3c0.1,0.2,0.3,0.3,0.3,0.3c0.3,0.4,0.5,0.8,0.7,1.2
						C2186,653.6,2186.8,654.2,2186.5,652.3L2186.5,652.3z M2184.6,652.9l0.2,0.2C2184.8,653.1,2184.5,653,2184.6,652.9
						L2184.6,652.9z M2183.9,642.1c0.7,1.5,0.4,1.8,1,3.4c2.1,5.5,3.3,4-5.1,5.9c-7.4,1.6-6.1,3.3-4.5-3.3
						C2176.2,644.4,2176.4,643.9,2183.9,642.1L2183.9,642.1z M2124.7,646c2.2,0.8,1.9,1.3,3.1,2.7c1.4,1.7,1.5,2.2,3.9,2.4
						c0,4.6,1.2,4.5,1.3,8.3c-1.4-0.9-1.4-1.2-2.9-2.1c-2.3-1.5-2.4-0.4-3.4-2.3C2125.8,651.9,2125.1,649,2124.7,646L2124.7,646z
						 M1997.3,647.2c2.8,1.9,3.4,2.1,7.4,1c5.3-1.5,5.4-3.5,7.3-4.9c0,3.3,0.5,5.1-1.1,7.1c-3.1,4-7.1,5.1-10.9,1.6
						c-0.7-0.6-1.3-1.3-1.8-2.1C1997.8,649.4,1997.5,647.7,1997.3,647.2L1997.3,647.2z M1915.2,646.6c5.7-1.3,14-1.5,17.9,3.7
						c1.5,2,0.2,1.8,3.1,2v-2.6c4.7,2.5,5.2,4.4,7.6,8.9l-2.6,0.6c3.2,5.9,0.7,14.7-5.1,14.7c-5.9,0-7.6-2.5-9.2-8.7
						c-0.7-2.7,0.1-2.1-2.3-2.7c-0.9,2-0.6,2.3-0.6,5.1c-2.3,0.5-2.4,1.1-5.5,1.5c-3.3,0.5-3-0.9-6-0.9c-2.1,0-1,2.5,1.5,3.6
						c1.1,0.4,2.9-0.9,2.9,6.6c0,2.9-1.1,2.8,0,5.1c2.2-0.6,1.5-0.3,2.6-1.9c3.1,1.5,6,0.8,11.6,8.2c4.4,5.7,1.2,5.4,1.1,9.7
						c4.1-0.3,0.7-1.2,4.7-2.1c4.2-1,0.2-3-0.9-4.3c-0.9-1.2-1.3-3-2-4.5c10.3,0.3,13.7,6.4,17.7,11.6c2.6,3.3,9.5,3.2,9.7,12
						c-0.1,2.1,0.4,4.4,1.3,6.3c1.6-1.1,1.3-0.3,1.9-2.6h1.3c0.2,2.4,1.3,4.3,1.3,6.3c0,4-1.8,7.6-2.6,10.8l-1.9-3.2
						c-0.5,2.1-1.1,2.8-1.3,5.1c-2.2-1.6-1.3-8.8-1.3-14c-2.8,1-2.6,4.3-2.6,7l-2.4-2c0,6.3,7.6,13.9-2.9,20.8
						c-8.2,5.5-9.3,2.8-15.7,2.8c0.3-1,0.5-2.1,0.6-3.2c-3.3,0.9-2.8,2.8-7,1.9v2.6c1.8,0.4,6.8-0.4,8.9,2.6
						c-6.7,1.8,0.1,3.2-15.3,3.2c0.4-2.1,0.7-1,0-2.6c-4,0.9-7.6,3.1-14.4-2.1c-2.5-2-3.4-5.1-3.4-9.4c-1.9,0.5-1.3,0.3-2.3,2.1
						c-0.1,0.1-0.2,0.3-0.3,0.4c-1.3-5.7-1.3-0.4-1.3-10.2c1.5-1,5.1-5.7,10.8-2.6c2.5,1.4,7.7,6.5,9.5,7c-0.8-3.3-2.4-3.4-3.2-6.3
						c4.5-1.2-1.4-1.3,7-1.3l2.4-2.7c5,2.7,2.4,3.5,5.8,5.8c1.4-1.6,0.2-4,0-5.7c1.9-0.5,1.4,0,1.9-1.9c-11.2,0-9.3-9.7-14-11.5
						c-1.3,1.5-0.3,2.5,0,3.9c-3.6,0-5.1-0.7-7.9-1.6l-6.3-3.3c-7.6-5.8-7.1-8.6-9.4-10.3c-1.4,0.9-0.8,0.1-1.3,1.9
						c-3.5-2.3-7.8-8.1-8.9-12.7c2.1,1,5.3,1.1,1.3-4.5c-0.9-1.1-1.5-2.4-2-3.7c-2-5.2-2.3-10.9-0.8-16.3l2.8-5.5
						c0,3.7,0.3,4.3,2.6,5.7c1.2-2.6-0.1-9.7,4.6-14.5c14.2-14.8,19-2.3,19.6-1.9c1.5,1.1,3.2,0.4-0.3-4.3
						C1916.1,648.1,1915.7,647.3,1915.2,646.6L1915.2,646.6z M2124.7,646h-0.6l0.5-0.8L2124.7,646z M2131.7,648.5l-5.9-5.6l9.1-2.1
						C2134.1,643.7,2132.9,643,2131.7,648.5L2131.7,648.5z M1966.1,640.8c1.8,1.3,5.1,8.8,6.3,11.5c-1.9,1.2-0.9,1.3-3.2,1.9
						c-0.3-2.3-0.9-4.5-1.5-6.8L1966.1,640.8z M1912,644.7c-4.9,0-5.5-0.5-10.8,2.6c-6.7,3.9-7,8.8-11.3,11.6
						c-5.9,3.8-7.1,12-7.1,19c0,5.1,2.6,8.2,2.6,11.5c0,1.8-0.3,4.7,0.5,7.1c2,6.2,6.9,12.2,12.2,15.9c3.2,2.2,3.1,0,5.9,3
						c2.5,2.6,2.3,2.4,5.6,4c4.9,2.4,7.9,3.9,15.3,3.9c0.9,3.4,5.5,4.7-2.5,5.7c-2.1,0.3-3.3,1.5-5.1,2.5c-2.7-1.6-5.7-2.5-8.9-2.6
						c-3.9,0-8.3,4.4-8.3,8.3c0,3.6-0.1,7,2.4,9.7l2.4,3.3c2.7,5.1,7.6,5.2,8.6,9.9c1.5,0.1,3-0.2,4.5-0.6c0.7,2.7,3.9,2.1,6,2.3
						l8.8-1.5c4.4-1.1,2,0.5,3.7,0.5c3.5,0,3.1-1.7,5.2-2.4l5.6-2.7c0.4,1.9,1.2,5.5,1.9,7c-2.1,0.2-3.9,0.9-6.1,1.5l-19.4,5.5
						c-1.5-2.2-0.8-1.9-3.2-3.2c-0.6,2.7-0.1,1.1,0,4.5c-8.6,0.7-22.6,7.6-31.2,8.3c0.9-2,0.1-1.6,0-4.5l4.1-2.2
						c1.2-1.6-0.8-0.3,1.5-2.2c1.6-1.4,0.7-0.3,2.2-2.3c2.9-3.9,4.8-5.9,4.8-12.4c0.1-2.5-0.5-5-1.7-7.2c-3.1-6.1,1.4-8.1-2.4-16
						c-1.1-2.4-0.7,0.7-1-2.8c-0.3-3.4-0.5-6.1-2.1-9.4l-8.3-14.6c-0.7-2.1-0.7-4-1.4-6.3c-1.3-4.5-3.2-9.4-6.5-12.6
						c-1.6-1.6-0.7,0.6-1.6-2.1c-0.5-1.4-0.3-1.6-0.8-3c-0.3-0.9-0.8-1.7-1.3-2.6l-2.8-3.5c-0.1-0.1-0.3-0.3-0.3-0.3
						c-0.1-0.1-0.3-0.3-0.3-0.3c-1.6-1.5-3.9-2.3-5.9-3.6c-1.9-1.3-6-7.2-13.8-7.2c-3.3,0-3.4,0.9-6.1,0.4
						c-6.3-1.2-12.7-1.9-16.1,4.6c-10.7,0-16.1-0.8-23.8,3c-3.6,1.7-6.9,3.9-10,6.6l-1.5,1.7c-3,3.4-3,7.4-1.5,11.5
						c4.2,11.8,4.2,11,16.4,11c-2.5,10.6-1.9,3.7-1.9,17.2c0,4.5,2.6,5.7,2.3,8.7c-0.3,3.5,0,7.1,0.8,10.6c0.7,3,1.6,5.9,2.7,8.8
						c2.6,6.5,0.3,16.7,7.6,24.8l5.8,9.4c1.8,3.3,1.4,6.2,5.6,6.5v1.3c-6.5,0-6.4,1.3-16.7-0.5c-3-0.5-5.5-0.8-8.2-1.5
						c-2.7-0.7-4.8-1.2-7.6-2.1c-22.2-6.7-41.5-24.1-48.4-46.5c-4.1-13.2-5.1-25,0.3-38.4c3.3-8.5,8.4-15,16.2-19.5
						c11.7-6.8,26.8-10,39.7-13.1c2.3-0.5,4.5-1.3,6.7-2.1c2.1-0.9,4.6-1.3,6.9-2l110.8-31.2c2.1-0.6,4.5-1.2,7-1.9
						c2.1-0.6,4.5-1.5,7.1-1.8c0.5,2.1,0.9,3,1.4,5.6l3.3,12c0.6,2.3,1.5,3.4,1.6,6c0.4,6.5-0.1,8.2,1.9,13.4
						c2.5,6.7-2.7,10.2,8.8,21.9c5.1,5.2,7.5,4.4,11.3,7.7c5.9,5.1,11.5,6.7,20,6.7c0.7,3,1.1,2.4,2.6,4.5c-1.6,0.4-0.7-0.3-1.3,1.3
						c-5.1,0-5.9,1.2-8.9,3.2c-4.7-3.2-4.3-2.6-10.2-2.6c-2.9,0-5.8,3.9-6.3,6.3h-1.3c-0.2-2.1-2.8-5.5-4-8.1
						c-4.4-9.3-8.3-7-10.8-10.9l-3.4-4.9c-0.1-0.1-0.2-0.3-0.3-0.3l-1.7-1.5c-5-4-8.9-4.9-16.7-4.9c-2.7-4-7.2-6.4-12.1-6.3v-6.5
						c3.3-0.3,2.9-1.1,5.1-2.6c0.7,2.3,1.8,4.4,3.3,6.2c4.9,4.9,12.9,2.7,16.1-2.7c2-3.3,2.8-8.8,2.8-13.1c0-8.8-7.2-11.4-13.6-14.4
						c-4.7-2.2-6.8-4.1-15.6-2.7C1915.7,643.2,1913,644.7,1912,644.7L1912,644.7z M2140,640.2v0.6l-0.8-0.5L2140,640.2z
						 M2140.7,639.6l-0.6,0.6L2140.7,639.6z M1965.5,639.6l0.2,0.2C1965.6,639.7,1965.5,639.6,1965.5,639.6L1965.5,639.6z
						 M2012.6,637.7l0.8,1.3L2012.6,637.7z M1986.5,638.3c2.1,0.6,7,5.5,7,7v2.6l-3.8,0.7C1988.3,645.6,1987.8,641.1,1986.5,638.3
						L1986.5,638.3z M2169.9,637.1c2.1-0.2,4.3-0.6,6.3-1.3c0.3,2.1,0.7,4.3,1.3,6.3h-1.9c-0.3-3,0.7-1.1-1.3-2.6
						c-0.7,2.5-1.1,5.1-1.3,7.6h-0.6C2171.8,643.8,2170.9,640.4,2169.9,637.1L2169.9,637.1z M2140.7,639.6c0.9-1.3,2.2-2.2,3.8-2.6
						C2143.2,638.9,2143.1,639,2140.7,639.6L2140.7,639.6z M2012.6,637.7l-0.8-1.3L2012.6,637.7z M2182,631.9c0,3.7,1,4.5,1.3,7.6
						c-1.1,0.3-2.2,0.7-3.2,1.3C2180.1,636.6,2177.8,633,2182,631.9L2182,631.9z M2145,636.4l-0.6,0.6L2145,636.4z M2145.7,635.8
						l-0.6,0.6L2145.7,635.8z M2145.7,635.8v-0.6l0.8,0.5L2145.7,635.8z M2076.3,635.1h-0.6l0.5-0.8L2076.3,635.1z M2179.4,628.7
						c-0.2,1-0.5,2-1,2.8c-1.5,2.6-6.4,2.7-9.2,2.9c-0.4-1.2-0.6-2.5-0.6-3.9C2174.1,630.6,2175.7,628.8,2179.4,628.7L2179.4,628.7z
						 M2179.4,628.7v-0.6l0.8,0.5L2179.4,628.7z M2122.8,641.5c0-4.7-1-4.5-1.9-8.3l13.5-3.8c2.4-0.8,4.8-1.2,7-1.9
						c2.1-0.7,4.9-1.5,6.9-2c-2.3,4.9,0.1,5.6-9.4,11.6c-2.1,1.4-7.7,1.7-12.4,3.6C2123.1,642.1,2126.1,642.2,2122.8,641.5
						L2122.8,641.5z M2139.4,623.7c-0.3,3.3,0.6,1.1-1.3,1.9L2139.4,623.7z M2141.3,624.3c0.9-1.9,1.9-11.3,1.9-14.7l1.2-0.3
						c0.7-0.1,1.3-0.2,2-0.3l1.9,14C2146,623.7,2143.7,624.1,2141.3,624.3L2141.3,624.3z M2179.4,626.9c-3.9,0.3-7.8,2.2-12.1,2.6
						c-0.1-3.4-1.6-4.5-1.9-8.3c3.9-1.3,8-2.3,12.1-3.2C2179.4,621.9,2177.8,623.4,2179.4,626.9L2179.4,626.9z M2105.6,619.8
						l0.2,0.2C2105.7,620,2105.6,619.9,2105.6,619.8L2105.6,619.8z M2044.5,697.6c0.9,0.5,6.6,3.8,5.1,1.1c-0.7-1.3-2.9-2.5-3.8-3.2
						c-6.4-5.7-5.2-12.7-5.2-21.5c-0.3,0.1-2.1-0.6-2.6,4.5c-1.9-1.4-1.6-2.1-2.6-4.5c-2.7-6.7-2.8-10.9-4.5-17.8
						c1.6,1.1,1.6,1.6,3.8,0.6c-0.9-3.2-3.4-3.2-4.9-6.6c-1.4-3.3-1.5-5.4-1.5-10l2.5-1.3c-1.3-5.4-3.7-3.6-1.9-11.4
						c0.1,0.2,0.3,0.2,0.3,0.4c0.3,2.7,4,9.2,4.2,9.8c1.9-1.4,1.4,0.2,0.6-2.4c-1.5-5-4.7-14.4,1.5-19c2.2-1.6,3.9-2.7,7.4-2.8
						c-0.8,1.7-0.6,0.7-0.6,3.2c3.2-0.3,1.7-0.3,3.3-2.4c5.7-7.2,11.7,1.5,12.4,6.3c1,6.3-2.1,4.6,2.1,11.2
						c3.6,5.5,4.3,11.9,3.7,19.9c-0.2,2.1-5.1,9.9-0.2,6.9c0.5-0.3,0.9-0.8,1.4-1.3c0.5-0.9,0.3-0.7,0.7-1.9h1.3
						c0.2,2.4,1,3.3,1.9,5.1c-1,0.5,1.2,0.7-1.9,0c-0.7,3-2.7,7.9-5.1,9.5c-0.5-2.7-2.5-4.9-5.1-5.7c0.3,2.9,1.6,3.9,3.1,8.3
						c0.8,3.3,1.3,6.7,1.4,10.1h1.9l0.7-2.5c7.6,1.7,10.2,11.2,10.1,18.4c-0.1,4.7-0.9,4.4-2.6,7c1.1,4.8,5.5,5.5-4.5,12.1
						c0.3-2.6,0.6-3.4,0.6-7h-1.9c0,1.2-0.3,2.4-1,3.4c-4.3,8.7-13.4,0.9-14.9-1.5c-1.4-2.2-2.1-4.6-3.2-7c1.1,0.1,2.1,0.3,3.2,0.6
						C2049.8,702.1,2045.8,702.7,2044.5,697.6L2044.5,697.6z M2148.9,609c13-1.1,7.6-8.3,13.7,13.6c5.8,20.4,10.7,40.6,17.1,61.3
						c1.2,3.9,0.1,2.8,1,5.3c1.2,3.3,1.3,2.5,1.3,7c-4.1,0.9,0.1,1.3-8.2,1.3c-0.3-3-0.9-3.1-1.8-5.2c-0.3-0.6-0.5-1.3-0.8-1.8
						l-7.6-17.2c-1.1-2.2-0.2-1.9-2.6-2.6v3.2l-2-1.9c-0.1-0.1-0.2-0.3-0.3-0.3c-2.1-2.8,0.8-0.9-6.5-4.3c-2.9-1.4-6.9-2.4-11.1-4.9
						c-4.3-2.7-7-6.1-7-12.1c0-2.1,5.7-6.7,7.6-7.8c3.7-2.3,6.2-3.3,7.7-7.6c1.1-3.1,2-10.1,1.5-12.8L2148.9,609L2148.9,609z
						 M1814.5,605.8c-0.4-0.7-0.3,0-0.6-1.3c-0.1-0.6-0.1-1.3-0.1-1.9h0.6L1814.5,605.8L1814.5,605.8z M1813.2,599.5
						c0.4,0.5,0.4,0.2,0.9,1.1c0.6,1.3,0.2,0.3,0.4,1.5h-1.3V599.5z M2127.9,598.2v1.9c-2-0.2-1.2,0-2.6-0.6
						C2126.8,597.5,2125,598.5,2127.9,598.2L2127.9,598.2z M2011.4,598.8c0-1.5,1-0.3,0.4,0C2011.7,598.8,2011.4,600.6,2011.4,598.8
						L2011.4,598.8z M1813.9,598.2l0.2,0.2C1814.1,598.4,1813.8,598.2,1813.9,598.2L1813.9,598.2z M1815.2,596.2v0.6l-0.8-0.5
						L1815.2,596.2z M1815.8,595l-0.6,1.3L1815.8,595z M2010.1,588.6c0.1,2.7,0.6,3.4,0.6,7c-1.9,0.5-1,0.3-2.6,1.3l-5.1-2.6
						L2010.1,588.6z M2113.9,591.2v0.6l-0.8-0.5L2113.9,591.2z M2076.3,635.1h5.7c-0.1-0.1-0.3-0.4-0.3-0.3l-7.1-5.6
						c-1.2-1.1-1.6-2.1-2.8-3.5c-3.4-3.9-3.9-10.1-0.9-15.2c2.5-4,3.1-4.2,8.1-5.3v-2.6h-1.9c3-4.1,11.9-1.1,16.7,3.7
						c5.1,5.1,6.8,8.8,10,14.8c-0.7,1.1-2.6,2.7-2.8,3.6c-1.1,4.4,4.1-1.2,7.1-1.9c3-0.7,1.8,0.9,4.6-0.4c-1.2-1.7-1.2-2.3-3.8-2.6
						c-0.3-3.3-1.3-4.9-1.3-8.9c0-6,0.7-11.8,5.5-14.9c2-1.3,5.1-2.8,7.9-2.9c-0.7-2.6-0.3-1.9-7-1.9c5.1-4.4,10.7-0.5,12.7,0
						c0,2.6-0.3,2.1,0.6,3.9c-3.8,1-4.3,4.8-7.8,6.8c-2,1.1-1.7,0.5-2.3,2.7c3.3-0.3,4.9-2.6,8.8-2.3c3.7,0.3,1.8-0.1,5.9,6.1
						c3.6,0,4.4,0.6,8.2,0.6c0,7.2-3,12.7-5.7,17.8h-6.3c-0.6,2.3-0.1,1.7-2.6,1.9c-0.1-3.2,0.5-6.3,1.6-9.2
						c1.6-3.8,3.3-3.7,4.1-7.4c-5.5,2.9-6.9,3.2-8.6,11.8c-0.7,3.9,0,2.8,0.3,6c-2.6,0.1-2.7,0.3-4.5,1.3c0.3,3.3,0.9,6.6,1.6,9.9
						l8.6,26.5c3.6-0.3,3.5-1.9,8.2-1.9c1.2,1.8,2,3.9,3.8,5.1c0-3.6,0-3.3-1.3-5.7l10.8,5.1c0,11.9-3.3,8.1-1.9,11.5
						c2-1.5,4.8-6.3,5.1-9.5c1.5,0.4,2.1,0.7,2.9,2.1c2.1,3.9,2.1,9.9,1.3,14.2c-1.9,10-6.5,6.6-15.1,6.6c0.7-3,2-2.3,0.6-5.1
						c-2.1,1.5-0.7,0.9-2.1,2.9c-1.4,2.1-1.6,0.8-2.3,3.4c4.1,0,3.9,0.6,7,1.3c-3.8,2.6-10.4,2-14-3.2c-1.7-2.4-3-2.8-5.5-4.7
						c-2.1-1.5-2.8-4.1-3.4-6.8c2.1-1.1,3.8-1.9,4.5-4.5c-2.1,0.6-4,1.4-6,2.3c-2.7,1.1-3.9,0.9-7.4,0.9v1.9c1,0.3,2.1,0.5,3.2,0.6
						c0,4.5-0.1,4.4-1.9,7c-2.1-1.4-1.5-1.9-4.5-2.6c0.1,4.5,6.1,9.4-0.8,16.4c-2.2,2.2-5.4,5.8-11.1,3.7c-2.7-1-2.6-2-2.8-2.9
						c-2.7,0.3-1.1-0.1-3.2,1.3c-1.5-2-8-6.5-8.9-16c-0.3-3.3,1.3-4.9,1.3-7.6h0.7c0.2,3.6,1.4,7,3.4,10c0.9,1.4,2.2,2.5,3.8,3.3
						c2.4,1.2,3.4,1.5,4.9-0.4c-1.5-0.4-0.9,0.1-2.2-1c-4.7-3.6-7.4-10-7.4-16.8c0.1,0.1,0.3,0.2,0.3,0.3c0.2,0.9,4.9,5.7,8,7.3
						c-0.2-1.5,0.1-1.1-1.5-3c-7-8.3-5.9-10.9-4.9-18c0.4-3,1.3-5.5,1.9-8.3c3,0.7,7.2,2,8.2-1.9c-5.7,0-7.9-1.9-11.5-4.5l-8.1-8.6
						C2079,639.1,2077.9,638.1,2076.3,635.1L2076.3,635.1z M1999.3,593.1c-1.4-0.8-2.9-1.2-4.5-1.3v-1.2c2.8-0.7,4.5-2.6,7-3.9
						l7.6-3.2v3.9C2004.7,588.4,2002.5,590.8,1999.3,593.1L1999.3,593.1z M2002.4,581.6l0.2,0.2
						C2002.6,581.8,2002.3,581.6,2002.4,581.6L2002.4,581.6z M2169.7,589.2l-2.6-8.8l0.3-0.1c1.8,2.7,3.9,6.3,3.9,9.5
						c-0.3,5.6,3.1,5.7-9.6,12.1c-7.3,3.7-11.4,3.9-19.1,3.9c-14.7,3.3-12.4-6.7-13.7-16.8c1.7-3.3,3.3-3.8,8-6.1
						c3-1.5,6.2-2.7,9.5-3.2c3.4-0.5,7.4-1.6,10.8-1.9c3.6-0.3,8.5,0.2,10.2,2.6c-1.9,0.4-0.9-0.1-1.9,1.3c1.2,5.2,1.9,8,1.9,14.7
						C2171.4,596.8,2170.6,593.4,2169.7,589.2L2169.7,589.2z M2008.2,579.7l0.2,0.2C2008.4,579.9,2008.1,579.8,2008.2,579.7
						L2008.2,579.7z M2008.6,575.1l0.2,2.1h-1.9L2008.6,575.1z M2170.5,571.4c4.7,0,9.4,8.1,9.5,13.4c-1.9-1.2-0.9-1.3-3.2-1.9
						c0.3,4.6,3.2,8.2,3.2,14c0,5.2-0.6,8-0.6,13.4c1.2-0.2,0.4,0.3,1.5-0.3l1-0.9c2.5,10.7,3.2,4.7,3.2,20.4
						c-1.7-1.3-1.1-0.9-1.8-3.3c-0.4-1.4-0.6-2.4-1.1-4c-0.8-2.6-1.7-5-2.8-7.4l-15.3,3.9c-0.3-3.8-2.9-8.8-3.8-12.7
						c3.2-0.8,6.3-2.9,8.8-4.5c6.9-4.5,5.7-10.4,2.4-18.7c-1.3-3.2-3.2-6.3-6.8-6.6c0.3-0.5,0.7-1,1-1.5
						C2166.8,573.2,2168.8,571.4,2170.5,571.4L2170.5,571.4z M2155.2,573.3h7.6c-0.3,1.5-0.2,1.9-1.9,1.9h-2.6
						c-1.7,0-1.8-0.3-3.2-0.6V573.3L2155.2,573.3z M1989.6,573.3c-1.5,2-0.5,2-1.9,0H1989.6z M1989.6,573.3v-0.6l0.8,0.5
						L1989.6,573.3z M1989.6,579.7c0.2-2.3,3.6-7.6,6.3-8.3c-0.5,2.1-1.4,2.3-2.8,4.2C1992,577.3,1991.3,578.6,1989.6,579.7
						L1989.6,579.7z M1834.3,571.4v0.6l-0.8-0.5L1834.3,571.4z M1999.3,579.1l9.5-12.1v3.9c-1.7,1.2-3.3,2.7-4.5,4.4
						C2002.4,577.4,2002.7,578.3,1999.3,579.1L1999.3,579.1z M2002.4,570.1c-1.7,2.6-6.7,9.4-9.5,10.2c1.7-3.3,4.5-5.6,7-10.2
						H2002.4z M2002.4,570.1v-0.6l0.8,0.5L2002.4,570.1z M2038,693.1c-6.6-4.5-0.1-7.7-13-15c-2.7-1.5-5.6-11.4-16.3-12.4v-8.3
						c3.4-1.8,5.7-4.1,6.8-8.5c1.1-4.5,2.1-8.1,0.5-12.7c-0.8-1.7-1.8-3.3-2.9-4.7c-4.8-5.7-4.7,0.3-11.3-12.3
						c4.2,1,10.6,0.5,14-1.3c4.5-2.3,5.7-4.2,5.7-10.8c2.9-0.1,16.7-4.4,20.7-5.5l41.3-11.7c17.3-5.5,43.5-12.4,61.9-17.7
						c3.5-1,16.8-4.5,20-6.1c5.4-2.7,26.2-4.6,33.9-5.6c8.4-1,28.1,0.1,36.3,3.8l12.1,7c2.3,1.5,2,1,3.7,3.3
						c10.1,13.5,16.6,34.5,14.1,50.8l-3.6,9.8c-2.7,6.6-4.7,12.4-8.5,17.7c-6.4,10.6-22,24-24.9,24.8l-18.9,10.4
						c-2.8,1.3-8.7,2.9-11.7,3c0-5.6,2.1-5.1,2.6-7.6c-0.2-2.4-0.7-2.6-0.7-5.7c0-4.9,0.5-6.9-1.9-10.9c-0.8-1.4-1.3-2.7-2.1-4.3
						c-1.7-3.3-4.5-4.4-5.9-6.9c-2.5-4.5-0.9-13.1-0.9-15.6c0.2-3.3-0.3-3-0.9-5.5c-0.8-2.7,0.9-7.6,0.9-11.1
						c0.2-8.2-3.2-14.3-6.4-19.1c0.1-2.8,0.8-3.5,0.7-7c-0.1-2.3-1-4.7-0.9-6.3c0.3-5.2,2-6.2-0.4-12.8c-1.2-3.4-3.3-7-6.4-8.8
						c-2.2-1.4-6.3-2.1-9-0.3c-2.6,1.7-1,0.1-1.7,2.1c-4.8-0.4-5.1-2.7-10.8,0c-2,0.9-2.1,1.9-5.1,2c-7.1,0.2-5.1,2.7-8.9,5.1
						c-1.4,0.9-3.1,0.9-4.9,2.1c-2.6,1.7-6.4,3.7-7.2,6.8c-7.8-1.8-12.9-4.4-19.2,3.7c-2.8,3.5-4.4,11.4-4.4,16c0,2.3,0,4.7,0,7
						c-3.1-2.3-10.5-20.5-25.7-16.2c-5.5,1.5-6,4.9-9.1,8.1c-10.8,11.1,0.3,23.4,0.7,24.5c2.7,5.7,5.7,11.4,10.1,16
						c2.6,2.7,5.6,7.4,9.4,8.4c-1.2,5.1-2.9,11-3.7,16c-0.7,4.8-0.3,5.7-2.7,9.4c-0.3,0.4-0.5,1-0.9,1.6c-0.9,1.5-1.1,1.5-1.8,3.3
						c-1.8,5.5,0,12.8,2.3,16.5c2.9,4.8,5.2,5.5,6.3,8.4c0.3,1.2,0.9,2.3,1.8,3.3c7.8,0,5.9,1.4,10.3,1.7
						c10.1,0.7,10.5-3.5,13.8-10.7c1.6-3.5,2.4-6.4,1.4-10.7c3.4-2.3,2.8-3.3,3.8-7.6l1.3,2.6c0.4,0.8,1,1.5,1.7,2.1
						c2.1,2.1,1.5,2.4,5.2,2.4c0.1,4.8,5.2,8.8,9.6,9.5c3.9,0.6,7.4-2.7,8.9,3.2c-4.8,2.3-58.9,17-68.3,19.6
						c-2.8,0.8-2.7,0.9-3.3-2.1c-1.7-7.7,4.8-9.1,0.3-17.5c4.3-8.2,1.4-17.7-2.6-23.6c3.9-7.5,1.9-24.9-5.7-29.9
						c1.8-7.6,0.4-20.2-6.3-24.9c1.3-5.4,1-10.3-2.1-14.6c-5.9-8.2-10.5-4.1-13.4-3.4c-1.2,0.3-2.6,0.1-4.1,0.3
						c-2.3,0.3-4.5,1.1-6.4,2.5c-3.9,3-5.9,5.1-5.9,11.9c-2.5,0.7-3.2,2.9-3.6,5.3c-0.3,1.3-0.3,2.7,0.1,3.9c0.6,2.4,0.5,2,1.5,3.5
						c-7.3,10.9,2.6,13.1,1.8,20.2l0.2,7.1C2030.6,677,2038,680.7,2038,693.1L2038,693.1z M1834.3,571.4c5.3-8,14.6-11.4,22.7-16.2
						c2.8-1.7,7-1,12.4-1c5.8,0,13.3,4.7,17.3,8.8c1.1,1,2.2,2,3.5,2.8c1.3,1,2.3,2.3,3.5,3.5c2.3,2.3,4.2,4.8,6.9,6.5
						c0,6.4,4.8,21.4,9.4,27.5c6.7,8.9,11.2,9.2,18.8,13.6c2.5,1.5,1.1,0.9,2.3,3.4c1.3,2.9,2.9,4.1,4.5,6.3l-3.8,0.7l-4.2-2.9
						c-2.9-1.7-11.7-7.8-14.2-8c2.1,3.9,2.4,4.1,5.9,6.9c1.3,1,2.4,1.7,3.8,2.6c2.3,1.5,3,0.8,3.7,3.3c-3.8-0.1-5.5-1.7-8.9-2.6
						c0.3,2.6,0.3,2.6,2.6,3.2c-1.5,2,0.1,0.8-2.7,1.7c-1.1,0.4-2.3,0.7-3.5,1c-2,0.5-5,1.6-7.1,1.8c0-13.4-15.6-54.1-21.8-62.3
						c-1.9-2.5-2.9-5-6.9-5.2c-0.8,3.3-0.3,2.6,2.3,7.9c4.2,8.1,7.8,16.3,10.8,24.9l4.5,12.6c0.7,2.2,0.9,2.7,1.6,4.8
						c1.2,3.3,4.8,16.2,4.9,19.3c-3.1,0.1-15.7,3.9-19.2,5l-57.2,16.6c0-5.5-1.9-8.2-3.3-12.6c-0.5-1.6-1.3-4.4-1.7-5.9l-4.5-19.6
						c-0.8-4.9-1.9-8.5-1.9-14l0.4,0.9c0.6,2.6-0.1,1.7,0.9,3.6h2.6c0-10.6-3.3-7.6,1.1-13.5c1.1-1.5,1.7-2.3,2.7-3.7
						c1.5-2.3,4.4-5.3,5.1-8.2c-3.9,1.9-2.1-0.3-6.5,4.3c-2.1,2.2-2.7,4.4-4.9,5.9c0.9-3.9,4.9-7,7.5-9.7c6-6.1,13.8-9.7,21.5-12.9
						c5.4-2.1,7.8-3.4,10.5-7.4c-5.2,0-11.5,2.6-16,4.4C1837.3,570.2,1836.3,570.9,1834.3,571.4z M1980.7,560.6
						c0,11.9,11.3,6.6,11.5-1.3c0.1,0.1,0.3,0.2,0.3,0.3l2.2,2.8c2.7,0,8.4,0.5,8.9-5.7c1.5,1.2,3.3,2.1,5.1,2.6v5.7l-18.7,4.2
						c-2.1,0.5-4.1,1.2-6.1,2.1c0.3,3.9,3.3,8.8,5.1,12.7c6.6,0,8.8-1.8,12.7-1.9l-9.9,6.1c-1.2,0.6-0.5,0.1-1.7,0.9
						c-0.8,0.5-0.9,0.8-1.8,1.4c-2.7-4-0.2-1.3-2-6.9l-4.5-14.5c-1.1-2.4-1.8-4.4-3-6.6c0.1-0.1,0.3-0.4,0.3-0.3L1980.7,560.6z
						 M1984.6,563.8c0-2-0.3-3.2,1.4-4.4c1.5-1.1,0-0.6,2.4-0.1C1988.2,562.3,1987.5,563.5,1984.6,563.8z M1981.4,559.3l-0.6,1.3
						L1981.4,559.3z M1996.1,558.7c0.1-2.1-0.3-2.4,1.2-3.3c0.8-0.4,2.6-0.9,2.6,0.8C1999.9,558.4,1998.4,558.7,1996.1,558.7
						L1996.1,558.7z M2008.2,552.3h0.6v2.6h-0.6V552.3z M2118.9,531.3v0.6l-0.8-0.5L2118.9,531.3z M2119.6,530.7l-0.6,0.6
						L2119.6,530.7z M2119.6,530.7l1.8-2.1C2121,530.7,2121.5,530.2,2119.6,530.7L2119.6,530.7z M2002.4,533.2
						c-0.9-4.1-1.3-3.9,1.3-7.6c6.9,0.6,5.7,4.5,3.4,6.6C2005.4,533.7,2005.3,533.2,2002.4,533.2L2002.4,533.2z M1984,528.1
						c5.8,1.4,11.5,3.5,6.3,12.1c-0.6,1-3.3,4.1-4.6,2.7C1985.2,542.4,1985,530.6,1984,528.1L1984,528.1z M2117.1,528.7
						c0.3-2.7,4.1-6.2,6.3-7.6c-0.3,4-2.4,2.9-5.5,6.6c-0.1,0.1-0.3,0.3-0.3,0.3L2117.1,528.7z M1981.4,559.3
						c0.5-2.3,1.7-3.9,2.5-5.8c0.9-2.1,1.5-4.1,2-6.3c4.2,0,5.4-1.4,7.4-4c0.9-1.1,1.5-2.3,2.2-3.5c0.5-1.7,0.9-3.4,1.2-5.2
						c0.3-4.9-4.1-11.7-13.4-9.5c-0.3-1-0.5-2.1-0.6-3.2c5.7-1.3,15.6-2.1,22.3-2.6c2.4-0.2,4.5-1.1,7-1.3l-0.8,5.1
						c-5.5-2.8-2.4-1.9-7.7-0.8c-2.8,0.6-1.6-0.3-3.5,1.5c-6.2,5.8-1.6,18.4,9.4,12.6l-0.6,12.1c-4,0.1-4.3,1.8-5.1,5.1l-0.9-1
						c-3.1-2.7-10-1.2-10.6,6.2l-2.6-3.2c-4.5,0-4.2-0.4-5.4,0.9L1981.4,559.3L1981.4,559.3z M1982.7,546.6c0,1.9-1.5,5.1-2.2,6.7
						c-1,2.1-1.8,4.8-3.5,6l-5.6-9.7c-2.5-3-8.7-1.8-12.3-1.8c-2.3,0-2.2,0.8-4.5,1.3v1.9l15,0.3l4.1,8.9l-0.5,0.8l-3.9-8.6
						l-7.1-0.7c-3,0-2.5-0.5-3.2,1.9c2.1,1,4.6,0.6,7.6,0.6c1.6,3.1,3.3,7.9,7,8.9c-0.5-2.3-0.7-2.1,0-3.2
						c0.5,2.1,7.7,19.4,10.2,29.9c-10-0.9-17.5-6.6-28.1-3.9c-2.5,0.7-2.6,0.3-3.2,2.6c3.1,1.5,0.3,0,3.8,0h8.3c3,0,2,0.6,4.5,0.6
						v0.6c-4.8,0-14.6,5.2-18.1,7.4c-2.7,1.7-13.7,8.3-13.7,12.4c0,1.9,0.9,1.9,2.6,1.9c1.6,0,2.7-1.7,3.7-2.7
						c6.6-6.7,23.5-15.1,35.2-15.1c12.6,0,20.7,4.2,30.2,10c3.3,2,6,3,8.1,6c-1.8,7.7-9.6,5.7-15.4,4.6c-7.6-1.5-3.9-1.9-14-10.8
						c-1.8-1.5-0.6-1.4-3.7-1.5c0.1,3,2.7,5.4,5.6,9l9.7,12.6c1,1.5,2,2.9,3.1,4.5c1,1.6,1.9,3,2.8,4.8c2.2,3.9,2.3,4.9,2.3,9.1
						c-9.8,6.5-9.4,1.5-18.6-8.2c-11.7-12.2-4.1-4.4-12.7-17.2c-0.9-1.6-2.5-2.8-4.4-3.3c-2.2,2.7,5.5,11.3,8.5,19.6
						c0.6,1.6,0.9,3.2,1.5,4.9c1.9,5.6,7.7,17.1,3.8,21.1c-3.6,3.7-6.8-4.4-8-6.7l-15.3-28.1h-3.9c-0.3,3.6-0.4,4.7,0.5,8.4
						l4.2,16.2c0.9,2.7,2.3,7.2,2.3,9.8c-1,0.7-2.1,1.4-3.2,1.9c-4.3-2.3-3.9-4.8-5.5-9.8c-2.6-7.8-4.5-15.3-7.6-22.9
						c-1-2.4-1.5-2.8-3.3-4.5c-2.3-2.2-2.1-2.5-5.2-1.7c0.1,1.1,0.3,2.1,0.6,3.2c-3.4-0.9-5-4.3-6.6-7.5c-0.9-1.5-1.6-3.3-2-5.1
						c-0.6-2.7,0.1-3.9-1-6c-2,0.7-2.5,1.5-2.6,5.1c-5.2-2.8-10-6.3-14.2-10.6c-6.9-6.9-8.6-17.2-10.8-26.2c-1-4.2-0.9-5.5-2.6-10.1
						c-2.4-6.5-3.3-13.8-4.9-20.6c-5.6,3.7-1.9,14.3-0.6,19.7c-2.1-0.6-1.5-0.5-3-2.1c-0.8-0.9-1.7-1.7-2.7-2.4
						c0-7.2-1.8-14.8,2.1-21.5l7.6-11.4c2.5-3,6.5-4.9,6-6.3c-1.1-3.1-16.9,9.7-19.9,23c-0.7,2.8-0.3,9.3-0.3,12.5l-12.1-5.7
						c0-8.4,2.9-18.3,6.4-25.4c3.6-6.9,7.9-13.6,12.6-19.8c4-5.5,12.4-14.8,18.2-18.1c2.1-1.2-0.2-0.3,2.7-1.1c6.6-2,21-2.7,21.8-3
						c1.8,2.4,10.7,6.7,14,8.3c4.6,2.3,15.6,10.9,19.6,14.8c4.9,4.8,9.8,17.2,10.4,24c-3.2-3.6-4.6-6.6-8.8-10.4
						c-2.2-2-9.5-6.5-12.9-6.9c0.1,3.7,0.3,2.5,2.9,4.1c6.1,3.4,11.3,8.2,15.3,14C1978.2,533.5,1982.7,543.1,1982.7,546.6
						L1982.7,546.6z M2071.1,495.3c2.7,0.1,1.5,0,3.2,0.6l21.4,7.8c3.3,1.6,6.1,5.4,8.3,8.2c4.5,5.6,3.3,5.7,5.2,11.3
						c1.4,3.9,3.2,8.2,4.3,12.3c1.2,4.3,2.9,7.9,4.2,12.4c0.3,1.1,0.4,1.9,0.9,3c0.4,1.2,0.8,1.8,1.2,3.3l7.2,18.3
						c-2.8,0.7-6.7,2.3-9.5,2.6c1.5-3.3,0.8-11.3,0-14.7h-1.3c0,4.5-0.8,7.4-1.4,11.4c-0.8,5.1-0.7,4.4-7.2,6.2l-62.1,17.4
						c-6.1-11.4-5.8-25.1-7.9-35.4c-0.4-2.1-0.9-3-1-5.3c-1,0.1-2.1-0.5-3.8,2.7l-0.7,5c-0.6,8.7,1.1,16.7,3.2,24.9
						c1.5,6,3.3,7.6,3.9,10.2l-17.8,5.1c-3.1,0.9-3.3,1.3-6.4,0.6c1.5-6.7,0.8-11-0.4-19.4l-0.5-20.6c-0.1-1.1,0-16.7,0.3-20.5
						l4.8-28.9c1.8-7.1,1.8-7.2,10.3-12.6c6.9-4.4,17.2-8.9,26.2-7.4c5.1,0.9,13.8,5.6,17.3,5.6
						C2072.7,496.2,2072.4,497.4,2071.1,495.3L2071.1,495.3z M1963,495l0.2,0.2C1963.1,495.2,1962.9,495.1,1963,495L1963,495z
						 M2071.2,495h-0.6l0.5-0.8L2071.2,495z M2191.5,463.8v-0.6l0.8,0.5L2191.5,463.8z M2198.6,449.8l0.2,0.2
						C2198.7,449.9,2198.5,449.9,2198.6,449.8L2198.6,449.8z M2199.9,448.5v0.6l-0.8-0.5L2199.9,448.5z M2200.5,447.2l-0.6,1.3
						L2200.5,447.2z M2200.5,447.2v-0.6l0.8,0.5L2200.5,447.2z M2072.4,446.6v0.6l-0.8-0.5L2072.4,446.6z M2201.7,445.3v0.6
						l-0.8-0.5L2201.7,445.3z M2201.7,445.3v-0.6l0.8,0.5L2201.7,445.3z M2203,443.4v0.6l-0.8-0.5L2203,443.4z M2203,443.4v-0.6
						l0.8,0.5L2203,443.4z M1924.1,351c3.4,1.6,10.6-0.5,14.7-0.6l-16.1,14.4c-5.4,6.4-9.4,9.9-13,18.9l-4.6,10.6
						c-1.5,3.9-2.9,7.9-3.9,12c-2,8-5.1,26.4-3.3,36c0.5,2.9,0,5.4,0.6,8.3c2.7,13.5-1,3.1-1,15c0,1.7,0.3,1.7,0.6,3.2
						c-5.7,3.9-6.5,16-7.3,22.7c-0.7,5.9,3,5.7-3.7,13.5c-3.4,4-11,16.3-11.9,20.5h-1.3c0-2.1-8.7-60.1-11.2-63.3
						c-0.9-1.1-0.1-0.5-1.5-1c0,6.6,3,22.7,4.2,29.5c2,11.2,3.6,28.5,7.1,38.2c1,2.9,0.7,1.1-1.1,8.8l-6.3-32.5
						c-1.1-7-10-59.3-10.2-66.8c-0.2-2.8-0.5-5.7-1-8.6l-0.9-9.3c-0.6-9.2-1.9-14.4,2-24.8c6.9-18.5,15.7-26.3,31.9-36.9
						c15.4-10,14.2-6.8,29-9.9c8.6-1.7,27.5-3.3,34.6-5c-2.4,3.3-8.9,3-12.9,3.7C1932.2,348.5,1926.2,348.1,1924.1,351L1924.1,351z
						 M2244.4,347.2l-5.1-2.6c1.9-2.8,6.3-6.7,9.1-9.4c2.9-3,4.7-9.6,7.5-11.7c3.8,7.1,3.8,8-3.3,16.4
						C2250.1,342.9,2247.6,345.5,2244.4,347.2L2244.4,347.2z M2234.9,342.8c-8.2-3.9-4.9-2.7,3.7-14.2c1.7-2.2,6.4-9.4,7.1-12
						c1.2,0,2.3,0.4,3.3,1.3c2.4,1.7,4,2.3-0.3,9.4C2245.2,332.8,2240.6,339.7,2234.9,342.8L2234.9,342.8z M2228.5,318.5l-0.6,0.6
						L2228.5,318.5z M2228.5,318.5v-0.6l0.8,0.5L2228.5,318.5z M2229.8,316.6v0.6l-0.8-0.5L2229.8,316.6z M2229.8,316.6V316l0.8,0.5
						L2229.8,316.6z M2231.7,314c4.5-6.9,10.8-2.6,10.8,0c0,1.5-2,4.2-2.8,5.5l-10,15.5c-6.3-1.5-3.5-4.1,0.3-10.5
						c2.7-4.5,5.2-8.4,2.9-10C2231.3,313.4,2232.5,316.5,2231.7,314L2231.7,314z M2227.8,319.2c-1.5,6.8-7.8,11-6,15.5
						c0.9,2.1,2.3,2.7,4.7,2.9c0,2.6-0.1,5,2.1,6.8c2.7,2.1,4,2.1,7.4,2.1c1.9,2.8,2.4,2.5,4.5,3.2c2.3,0.8,0.3,0.2,1.8,0.8
						c4.2,1.7,8.1-1.7,10.5-4.5l9-12c3.3-6.1-1-1.4,6.3-7.6c0.1-0.1,0.3-0.2,0.3-0.3l1.9-1.9c0.4-0.5,0.6-0.8,1.1-1.4
						c0.9-1,1.5-1.5,2.6-2.6l5.2-5.6l2.5,0.7c-0.1,3.2-3.3,7.6-5.2,10c-5.2,6.2-12.4,15.1-16,22.2c-2.7,5.4-4.7,9.5-9.7,13.2
						c-2.4,1.8-10.6,14-12.8,17.8c-3.9,6.8-2.1,3.8-4.1,11.8c-9.8,39.3-15.4,29.6-22.1,39.7c-6.8,10.2-2.4,3.6-6.9,7
						c-10,7.5-11.2,17.4-14.8,23.4c-1.4,2.3-2.9,4.1,1.3,3.2c-0.8,3-5.9,8.2-8.2,10.4c-7.5,7.5-15.4,4.5-26.3,10.7
						c-1.8,1.1-3.5,2.3-5.2,3.7c-0.8,0.7-1.5,1.4-2.2,2.1c-1.5,1.5-1.5,0.9-2.1,3c-7.6-2.1-20.6-30.9-23.3-39.1
						c-0.8-2.4-0.9-4.8-2.7-6.2c0,15,8.1,29.2,16,41.3c0.5,0.9,1.2,1.7,2,2.5l5.1,5.1c1.8,1.5,0.6,1.4,3.7,1.5
						c1.2-2.8,3.2-5.2,5.7-7l0.2,5.2c-0.3,2.8-0.8,3.9-0.8,6.3c-4.5,1-9.4,4.5-14.2,6.2c-5.1,1.7-11.8,1.9-16.3,4v2.6h1.9
						c-1.1,1.5-3,2.5-4.5,3.7c-2,1.5-2.4,3.3-5,3.9c-2.1-8.8-8.9-19.4-16.9-24.5c-4.4-2.7-9.1-4.8-14.1-6.3
						c-13.5-4.6-20.7-5.9-35.3-4.9c-4.4,0.3-13.4,2.9-16,5l-9,6.3c-2.7,2-6.3,4.2-8.1,7.3c-1.2,2.7-2,5.4-2.6,8.3
						c-6.2,0-26.7,2-31.8,4.5c-0.4-5.6-7.6-15.2-11.8-18.9l-5.1-4.5c-0.1-0.1-0.3-0.2-0.3-0.3c6.4,0.2,14.2,3.6,21,3.9
						c13.6,0.4,19,2.4,32.9-3.4c2.1-0.9,1.5-0.2,2.1-2.3c-2.7,0.3-5.5,0.8-8.2,1.5c-2.7,0.6-5.6,1-8.4,1.1c-2.8,0.2-5.1,0.9-8.9,0.7
						c-2.4-0.2-1.6-0.6-4.5-0.7l-13.4-1.3c-9.1-1-17.8-4.5-25.8-7.9c-1.5-0.6-2.2-1-3.4-1.6c-6-3-12.6-7.1-17.3-11.9L1914,456
						c-1.1-1.5-1.1-1.5-3.3-1.8c0.6,6.7,9.2,14.6,13.8,19.3c1.9,2,4.5,3.4,5.9,5.6c-5.3,0-12,1.2-16.6,1.5
						c-3.2,0.3-9.2,5.4-11.3,7.6l-7.1,6.2c0-9.3,2.6-13.6,4.5-21.6c3.9,0.9,5.9,5.2,10.2,3.2c-0.9-3.4-4.6-4.5-6.9-7.1
						c-2.9-3.3-1.1-7.7,0.5-10.7c-0.4-1.7-0.9-2.1-1.2-3.3c-0.9-4.5-0.7-17.4-0.8-22.8c-0.1-15.5,5.3-31.8,11-45l6.6-12.5
						c2.7-4.6,14-15.1,19.1-19c5.5-4.2,11.6-7.6,18.1-10c3.2-1.2,4.1-1,7.8-1.7c19.5-3.4,36.3-2.9,54.7,3.3c1.1,0.3,2.1,0.8,3.2,1.3
						c3.5,1.6,6.9,2.6,10,4.6c7.4,5,14.2,11.7,18.4,19.7c-2.1-0.4-2.3-0.9-3.9-1.8c-1.5-0.9-2.3-1-3.9-1.8c-2.5-1.2-5.3-2.7-8.1-3.4
						l-1.1,1.4c1.6,3.3,10.1,5.8,16,9.8c8.1,5.2,14.2,13,17.5,22c1,2.9,2.9,7.1,3.3,10.1c0.5,4.7,1.2,22.1,2,23.5
						c1.5-1.1,1.5-0.9,1.9-3.3c0.3-1.8,0.6-2.9,0.7-4.4c0.3-3.9-0.3-6.6-0.6-9.6c-0.9-10.7-4.5-22.1-10.8-30.5
						c-0.9-1.2-1.3-1.5-2.3-2.7l-5.1-5.1c-1.3-2.2-2.5-11.8-14.4-21.9l-12.4-8.7c-3-1.6-21.1-6.8-24.5-6.8v-0.6
						c9.3,0,11.4-1.6,19.8,1.2c16.2,5.5,22.2,11.5,35.2,20.8c9.4,6.8,9.4,11.3,12.3,21.5l2.4,8.4c0.7,3.5,1.1,6.2,1.7,9.8
						c0.5,2.9,1,6.1,1.6,9.3c1.9,10.6,2.1,18.8,4.7,29.7l-10.2,7l-0.6-5.1c0,2.5-6.3,18.4-8.7,21.9c-1.2,1.7-1.8,3-3.1,4.5l-3.4,4.2
						c-5.9,6.6-7.5,4-7.8,8.2c11.3-2.7,20.8-18.4,21.6-28.7c4.1-0.1,4.5-2.1,10.5-6.1l26.7-15.4c2.3-1.1,4-1.6,6.2-2.7
						c1.1,0.6,2.1,0.9,3.4,1.7c2.3,1.3,1.1,1.5,3.6,2.1c-0.9,1.3-3.1,3.1-3.1,4.6c-0.2,5.5,5.9-2.2,7.7-3.8l9.4-6.5
						c1.4-0.9,3.1-2.1,4.8-2.9c2.7-1.4,14.4-5.7,15.9-7.7c2.7-4,0.5-2.2,4.5-6.9c1.5-1.9,0.9-4.3,5.6-10.4c0.5-0.8,1-1.5,1.6-2.1
						c1.6-1.8,2.4-2.7,4.7-3.6l10.7-5.1c0-3.7,0.7-7.4,1.8-10.9l3.9-9.4c2.3-4.6,4.7-4.7,11.2-7.2c2.2-0.9,3.2-0.9,3.4-3.6h-3.2
						c1-3.8,0.6,0.5,5.3-7.4c5.1-8.5,8-4.3,2.8-18l-7.2-19.6c-2.2-3.6-3.5-4.4-6.8-6.6c0.2-2.3,0.8-3,1.3-5.1c1.5,0.8,3,1,4.5,1.9
						c5.6,3.3,9.6,13,11.3,15.4c0.6,0.8,0.8,0.9,1.4,1.8c2.8,3.9,6.2,5.1,12.1,5.1C2225.7,321.4,2226.3,320.2,2227.8,319.2
						L2227.8,319.2z M2190.2,302.6c0,5.7,8.2,6.3,10.1,16c1.1,5.7,2.9,9.1,4.9,14.2c4,10.3,1.8,3.1-5.2,15.9
						c-1.1,2.1-2.7,3.4-3.9,5.7c-2.1,3.5-1.4,2.4-5.2,4.3c-4.5,2.2-5.7,6.6-7.8,10.6c-1.5,2.9-2,2.9-3.1,6.4
						c-0.9,2.7-1.4,5.6-1.2,8.4c-8.8,4.6-10.9,3.9-17.6,13c-0.9,1.2-1.8,2.6-2.4,4l-6.8,11.7c-0.3,0.3-3.9,1.6-4.5,1.8
						c-3,1.2-5.9,2.5-8.8,4l-15.4,10.1c-10.5-7-10.1-5.4-24,1.5c-4.9,2.4-8.9,5-13.6,7.5c-0.3-9.5-8-53.3-10.7-61.9
						c-1.4-4.5-3-9.3-6.3-12.8c-5.6-5.3-11.5-10.3-17.8-14.8c-9.5-6.4-22.2-13.7-36.6-13.7l-13.4,0.6c-5,0-8.6,1.3-14,1.3
						c-14.1-0.1-39.7,3.6-55.3,5.8l-26.3,4.3c-5.6,0.9-6.7,0.5-12.4,2.9l-8.6,5.4c-8.8,7.6-16.1,8.7-25.1,22.1c-2.2,3.4-4,5.2-6,9.3
						c-0.9,1.7-1.7,3.4-2.4,5.2c-2.7,6.6-4,13.6-4.2,20.7c0,2.7,1.1,4.9,1.6,7.9c1.1,6.2,0.7,11.8,1.8,18c0.6,3.3,0.7,5.7,1.1,9.1
						c2.7,22.7,6.9,46,10.6,68.4l6.5,33.6c-3.5,0.3-8.8,0.3-11.8,1.6c-0.2,0.1-0.3,0.2-0.4,0.2c-14.2,6.3-21.6,12-25,15.8
						c-4.5,5.2-12.2,9.3-19,23c-0.9,1.5-1.5,3.2-2.1,4.9c-2.4,7.1-0.7,6.7-0.3,13.1c0.1,2.9,0.3,5.8,0.8,8.8l10.6,37.8
						c0.1,0.2,0.2,0.3,0.3,0.4l2.4,3.9c-4.7,0.4-20.2,5.8-26.6,7.1c-14.7,3-24.7,6.6-37,14.6c-8.3,5.5-14.7,16.1-16.6,26
						c-1.8,9-1.8,18.3,0,27.3l8.4,20.8c4,7.7,9.4,14,15.5,20.2c11.2,11,30.7,19.4,46.6,19.6c23.5,0.3,13.4-3.3,19.2,10.1
						c2.1,4.7,5.6,7.1,11.4,7.1c5.6,0,11-1.3,16-3.9c2.3-1,4.5-2.3,6.5-3.7l5.7-4.5c0.6,1.1,1,2,1.6,3.4c1.6,3.8,4.2,6.9,6.6,10
						c2.6,3.3,13.6,4.5,17.8,4.5c13.6,0,23-4.3,32.9-11l15-14.9c3.5-5.2,4.5-16.3,6.3-23c0.9-3.1,1-2.7,4.1-3.5c2-0.4,3.9-1,5.8-1.8
						c3.9,5.7,24,14,34.4,14c4.4,6.5,14.5,7,21.8,8.2c12.1,1.8,29,3.5,41,1.2c11.7-2.3,27.3-8.5,37.8-13.8c1.4-0.7,2.7-1.5,4.3-2.1
						c4.9-2.1,7.6-4.5,10.8-9c1.5-2.1,3.9-6.4,4.1-9.3c2.9,0,5.9-0.3,8.8-0.8l18.2-5.4c10.7-5.1,18.4-10.7,19.6-23.8
						c4.6,1.1,7.5,1.9,12.7,1.9c7.6,0,16.9-3.8,21.8-8.8l4.3-4c3.5-3,0.3-10.6-0.8-13.9c-1.1-3.7,1.5-2.2,5.2-3.3
						c4.8-1.3,9.3-3.6,13.8-6c7.6-4,13.8-9.3,20.2-14.8l0.7-0.6c0.1-0.1,0.3-0.2,0.3-0.3c0.6-0.5,0.8-0.7,1.3-1.2
						c7.6-7.6,5.5-5.1,13.2-16l3.8-6.3c11.8-23.2,12.5-39.4,2.9-63.5l-2.6-5.1c-0.9-1.5-1.8-2.8-2.9-4.1c-3.2-4.3-7.4-7.6-11.8-10.6
						c-2-1.4-2.1-1.7-4.2-2.8l-5.1-2.6c-0.7-0.4-1.5-0.7-2.1-1c-17.8-6-31.4-5.9-50.2-3l-14.7,2.6c-2.4,0.5-3.3,0.8-5.1,1.3
						c-8.4,2.3-15.5,5.5-26.3,8.2c-2.8,0.7-7.2,1.8-9.3,2.8c-0.6-2.7-0.7-5.2-1.5-8.1c-1.1-3.7-6.8-20.8-6.8-23.2
						c0-0.8,1.6-4.5,2.1-5.6c1.3-3.2,5.2-16.2,5.5-19.3c8.2,0,15.7-4.4,21.9-7.5c6-2.9,6.8-3.9,6.8-12.3c0.1-2.1-0.4-4.4-1.3-6.3
						c3.8-2,6.4-4.3,10.8-5.1c3.8-0.6,11.1-1.7,13.7-3.5c1-0.7,0.6-0.5,1.4-1.1c7.3-5.6,12.9-13.9,16.6-22.2
						c3.5-7.8,9.1-14.2,13.7-21.3c10-15,11.2-8.4,14.7-15.3l5.8-11.3c5.8-13.6,4.7-23.3,5.2-24.8c0.9-1.5,1.9-2.7,3-3.9
						c1.8-1.9,1.5-2.2,2.7-4.3c1.7-2.9,3.8-6.2,5.7-8.9c5.2-7.5,5.2-3.8,12.8-16.6c4.4-7.5,9.9-14.4,15.1-21.2
						c3.3-4.3,8.5-10.3,8.5-15.8c-0.9-0.3-1.8-0.8-2.7-1.2c-2.7-1.7-2.3-1.4-5.7-1.4l-3.9,4.4c-0.9,0.7-1.2,1.1-2.1,1.8
						c-1.2,1-1.3,0.8-2.6,1.9c-1.5,1.4-2.6,2.7-4.1,4.2l-4.6,3.7c-1.7-3.6-1.8-7.2-7-7.6c-0.3-3.9-4.2-6.7-8.2-7
						c-0.5-6.6-8.4-8.2-12.8-5.1c-2.9,2.1-5.8,5.7-8,8.6c-1.4,1.8-0.9,1.7-2.8,2.9c-2.9-1.5-5.4-3.5-7.4-6l-10.3-13.9
						c-2.2-2.2-5.1-3.5-8.5-4.3C2193.2,296.4,2190.2,298.3,2190.2,302.6L2190.2,302.6z M1998,488c-12,0-11.1-0.3-22.1-2.7
						c-1.6-0.3-3.7-1.2-5.3-1.6c-15-4-28.1-10.8-40.4-20.2c-13.9-10.5-10-11.4-9.2-17.6c0.3-2.5,0.9-4.9,1.6-7.3
						c2.1-6.9,2.7-8.9,5.8-15.2c0.8-1.5,0.7-1.4,1.5-2.9c6.3-10.9,14.9-20.3,25.2-27.6c5.1-3.6,7.1-3.9,12.3-6.9l13.9-6.5
						c1.2-0.5,2-0.6,3.3-1.1c7.1-2.5,23.3-5.7,28.2-5c9.6,1.5,34.3,12.2,39.3,21.8c2.6,5,3.8,5.6,7.7,13.9
						c8.4,17.5,3.1,39.4-7.6,54.1c-4.8,6.6-18.5,17.8-26.6,20.5c-4.3,1.4-8.7,2.3-13.1,2.7C2007.6,487.3,2003.6,488,1998,488
						L1998,488z M1916.5,449.1c0,8.8,6.9,13.4,11,17c5.5,5,5,4.3,10.6,7.9c6.2,4.2,12.9,7.6,20,10c5.8,2.1,11.2,4.1,17.3,5.6
						c14.9,3.5,40.4,3.5,53.3-2.9c11.8-5.9,19-10.6,27.5-20.8l3.2-4.5c9.2-14.6,12.8-34.7,5.8-51.9c-0.8-1.8-1.3-3.4-2.1-4.9
						c-0.9-1.7-1.6-2.7-2.6-4.5l-8.9-12.1c-0.1-0.1-0.3-0.3-0.3-0.3l-3-2.7c-6.3-5.4-26.3-14.8-34.2-14.8
						c-26.4,0-45.8,8.6-67.3,24.5l-6.3,5.2C1927.9,411.8,1916.5,432,1916.5,449.1L1916.5,449.1z M1773.2,746l0.3,0.3l-0.1-0.1
						C1773.3,746.1,1773.1,746,1773.2,746L1773.2,746z M1764.3,737l-0.7-1.3L1764.3,737z M1764.3,737l2.1,3.6c0.8,2,0.9,2.6,1.9,4.5
						c1.5,3,2.3,5.6,3.6,8.5c1.2,2.7,2.2,5.7,3.6,8.5c0.6,1.5,1.4,2.8,2.2,4.1c1.6,1.9,2.1,1.3,4.4,0.8c0-6.1-0.9-8.8-2.3-13.6
						l-5.3-18.9c-0.6-2.2-0.9-4.3-1.6-6.6c-1.3-4.4-2.3-8.9-3.2-13.4c-0.6-2.8-1-3.5-0.5-6.3c0.7-3.9-1.5-4.7-3.5-2.8
						c-2.6,2.6,4.4,28.6,5.7,33.5c0.5,2.1,1.5,4,1.8,6.5c-2.2-2.5-8.3-20.8-12.1-23.6c-0.6,0.3-1.2,0.6-1.9,0.6
						c0,8.7,2,13.9,3.7,21.2c0.8,3.1,0.5,4.2,3.3,5C1766.1,742.9,1764.6,741.4,1764.3,737L1764.3,737z M2408.7,346.6
						c-1.5-0.3-12.1-6.8-12.1-1.9c0,3,1.5,3.6,3.3,5c1.6,1.3,3.5,2.2,5.6,2.7c-0.5,2.1-2.8,6.5-3.9,8.2c-8.4,14.4-0.6,11.2,1.3,8.3
						c1.7-2.6,6.3-10.8,6.9-13.4c4.7,0.4,1.1,1.9,8.9,1.9c-0.5-5.8-5.1-7.5-5.1-8.2c0-2.1,1.4-3.9,2.1-6.1c1.6-4.5,0.5-2.2,0.3-6.6
						h-1.3c-0.9,2.6,0.4-0.2-1.7,2.1C2411.3,340.7,2410,344,2408.7,346.6L2408.7,346.6z M2557,750.5c-5.2-2.7-6.7-3.4-10.8-1.3
						c0,5.7,1.6,4.4,5.7,6.3c-1,3.8-7,5.9-7,9.5c0,6.1,9.1,0.4,12.7-6.3c1.3,0.8,2.7,1.3,4.1,1.6c5.7,1.4,2.9,2.5,4.4,1
						c1.2-1.2,0.3-0.7-0.7-2.7c-2.2-4.8-1.4-2.1-3.3-5c2.6-3.9,5.1-5.4,6.3-10.8C2563.6,743.3,2560,748.5,2557,750.5L2557,750.5z
						 M1505.1,376.9c0,3.9,0.6,4.6,0.6,8.2c-4.9,1.3-5.2,11.2,0.3,7.9c1.2-0.8,0.5-0.2,1-1.5h1.3c0.3,2.7,1.2,5.1,2,7.6
						c1.4,4.3,1.4,3.6,5.7,3.3c1.8-7.7-0.7-7.1-2.6-15.3c5.1-3.4,8.9-4.1,8.9-7.6c0-4.9-10.3,0.6-11.5,1.3c-2-3.7-2.7-5.5-5.7-5.7
						L1505.1,376.9L1505.1,376.9z M1916.5,416.7c1.5-0.5,1.9-1.4,3.3-3l15.4-17c0.1-0.1,0.3-0.2,0.3-0.3l6.2-5.3
						c1.3-1.1,2.1-1.7,3.5-2.8c6.9-5.8,20.6-13.5,29.1-15.4v-1.9c-9.7,0.8-19.6,5.9-27.4,11.5l-11,8.8c-2.3,2.3-6.3,4.5-10.1,9.6
						c-0.8,1-0.3,0.8-1.3,1.9l-4.7,5.5C1918.3,410,1915.5,414.3,1916.5,416.7L1916.5,416.7z M1578.1,698.6l-8.8-4.7
						c-1.6-0.9-3.5-0.9-5.2-0.3c-4,1.5-2.1,3.7-2.1,3.8c1.5,3.3-0.3-0.3,5.7,3.2c2.1,1.2,4.3,2.1,6.3,3.2c-3.8,5.6-5.1,2.9-5.1,7.6
						c6.5,4.4,11-4.6,11.5-6.3c2.2,0.2,5.1,2,5.1-1.3c0-1.9-0.8-1.7-2.6-1.9c1.1-4.7,5.1-7.8,3.8-13.4c-2,0.2-1.6-0.5-5.1,4.5
						L1578.1,698.6z M1668.7,375c-4.5-1-15.9-7-13.4,3.9c4,0.9,4-0.1,9.5,2.6c-3,5.7-5.7,6.8-5.7,12.8l1.9,1.3
						c0.7-0.1,1.4-0.3,2.1-0.5c1.8-0.9,2.8-2.8,3.9-4.5c1.5-2.4,2.4-4.8,3.7-7.1c2,0.2,2.1,0.7,4.2,0.4c1.5-0.3,3.2-0.4,4.7-0.4
						c-0.7-2.6-4.7-4.5-7-5.7l1.9-9.5L1668.7,375L1668.7,375z M2010.1,379.1c0.4,5.1,3.9,1,14.7,6.3c12.3,6.2,13.1,9.3,19.9,16.4
						c1.4,1.5,1.4,1.7,2.6,3.2c1.9,2.2,7.3,11.5,9.4,12.3c-1.7-7.3-5.1-15.3-10-20.6c-7.2-7.9-6.8-7.7-16.6-14
						C2026.5,380.5,2015.4,377,2010.1,379.1L2010.1,379.1z M2198.6,502c-2.3-1.2-5.1-2.9-8.2-3.2c-0.1,0.1-0.3,0.1-0.3,0.3
						c-0.3,1.8-5.8,2.4,4.8,8c-0.3,0.8-7.6,12.1-3.2,12.1c3.9,0,4.4-3.2,6.8-6.6c0.9-1.5,1.1-1.3,1.5-2.9c7.3,1.7,2.3,2.7,11.5,1.9
						c-0.3-3.7-4-5.1-7.6-7c2.3-4.3,4.4-6.6,4.5-11.5c-2.9,0.3-3.6,2-5.2,3.7C2201.2,498.3,2199.8,500.1,2198.6,502L2198.6,502z
						 M2350.1,518.6c-5.8,0-7.1-0.6-10.8,1.9c0,4.3,0.2,2.5,1.9,5.1h5.1c-1.2,5.1-3.2,2.8-0.6,7.6c5.3,0,4.4-0.3,7.6-6.3
						c1.5,0.3,9.5,3.3,9.5,0.6c0-3-4.8-5.8-7-7c0.1-3.4,2.8-11.5,0-11.5C2353.3,509,2350.7,516.1,2350.1,518.6z M1770,301.3
						c-2.5,0-10.8-2-10.8,1.3c0,3,0.9,3.4,3.4,4.3c2.2,0.8,4.5,1.2,6.8,1.5c0,6-0.5,5.2,1.9,8.9c6.3-4.2,0.9-8.5,6.3-8.9
						c3.5-0.3,2.1,0.3,4.5-1.3c-0.9-3.7-2.8-3.7-5.7-5.1c0.6-1.3,2.2-6.8,0.6-8.2c-1.9-0.9-1.8-0.6-4.5-0.6L1770,301.3z M2141.3,316
						c-3.5-0.9-2.2-1.3-7-1.3c-1.7,2.6-1.9,0.8-1.9,5.1c2.6,1.4,7,2.8,7,3.9c0,2.8-3.5,9.5,1.3,9.5c2.8,0,3.1-0.9,4-2.9
						c0.9-1.6,1.5-3.4,1.6-5.3c2.4-0.5,1.8-1,4.5-1.3c-0.9-3.2-1.5-3.3-3.2-3.9c0.2-1.9,2.4-11.5-1.9-11.5
						C2143.3,308.4,2141.8,313.8,2141.3,316z M1640,531.4c-0.2-0.1-8.9-6.9-8.9-0.6c0,2.1-0.3,1.8,0.9,2.8l4.1,3.5
						c-2.7,4-6.6,7.6-6.7,9.1c-0.3,4.4,9.1,2.4,11.2-5.2c3.2,0.3,3.1,1.3,7,1.3c0.1-0.6,0-1.2-0.2-1.7l-1-1.5
						c-5-7.1,1.3-3.9-0.7-12.7C1642.7,526.5,1642.2,528,1640,531.4z M1899.9,385.4c-2.1,1.5-10.4,17.2-11.8,20.1
						c-0.1,0.2-0.3,0.7-0.4,0.9l-14.8,28.6c-1.5,3-3,5.7-4.1,8.6c-1.1,2.8-3.2,6.2-3.3,9.4c2.7-0.3,2.4-0.9,3.4-3
						c0.8-1.6,1.3-2.6,2.1-4.3C1875.5,436.7,1899.3,392,1899.9,385.4L1899.9,385.4z M2387.3,702.1c-0.5,2.4-1.2,3.7,0,6.4
						c2.5,5.7-0.5,4.3,3.8,6.4c1.1,0.6,10.3,10.4,10.3,5.7c0-2.7,0.2,0.2-0.6-1.9c-0.4-1.1-0.3-0.9-0.8-2.4
						c-0.5-1.4-1.1-2.7-1.8-3.9c1.4-2,11.9-10.2,5.7-10.2c-2.7,0-7.5,3.3-9.5,4.5C2392.9,703.6,2392.6,700,2387.3,702.1
						L2387.3,702.1z M2141.9,658.1h0.6l-0.5,0.8L2141.9,658.1z M2151.5,656.1c0.3-3-0.7-1.1,1.3-2.6
						C2154,656.5,2153.4,655.3,2151.5,656.1L2151.5,656.1z M2147.6,655.5v-1.9C2150.4,655.6,2147.9,654.7,2147.6,655.5L2147.6,655.5
						z M2149.5,658.7c1.5,0,0.8-0.3,2.6-0.6c-2.1,2.8-8.9,3.4-8.9-3.9c-0.1-1.2,0.3-2.4,1.1-3.3c0.3-0.4,0.9-0.9,1.3-1.3
						c0.1-0.1,0.3-0.2,0.3-0.3l1-0.9c2.7,0.6,3.8,0.2,5.1,1.9h-4.5c-1,1.5-2.6,2.6-2.1,4.8C2145.8,657.1,2147.5,658.6,2149.5,658.7
						L2149.5,658.7z M2141.9,658.1c-2.5-1.8-1.9-3-1.9-7c1.9-1.2,0.9-1.3,3.2-1.9C2140.7,652.8,2140.7,653,2141.9,658.1
						L2141.9,658.1z M2136.8,654.8c0,6.2,14.2,10.8,17.5,2.9l0.4-0.9c3.6-9.2-2.9-9-8.4-10.3c0.1-0.1,0.3-0.4,0.3-0.3l1.6-0.9
						c0.8-0.3,1.6-0.5,2.5-0.7l-1.9-1.9c-1.3,0.6-3,0.9-4.2,1.5C2142.5,645.5,2136.8,650.3,2136.8,654.8L2136.8,654.8z
						 M1987.2,424.9c0,9.4-2.3,18-4.9,26.3c-0.9,2.8-2.6,5.1-2.8,8.1c2.7-0.3,3.6-1.5,4.7-3.6c2.7-5,5.5-15.4,6.1-20.7
						c1-9.5,0.1-9.8,0-14.6c0-3.9-0.6-11.8-3.8-14.1C1986.5,413.5,1987.2,418.3,1987.2,424.9L1987.2,424.9z M2584.8,417.3
						c-3.8-2.6-2-3.9-7-3.9c-1.1,2.4-1.9,4.2-1.9,6.3c1.7,0.9,1.9,1.2,4.5,1.3c-1.9,2.6-0.2,0.5-3.1,1.4c-5.3,1.6-1.1,5.1-0.8,5.6
						c7.4,0,6.3-2,8.2-2.6c2.9,0.1,2.5,0.6,5.7,0.6c-0.2-2.4-0.9-3-1.9-4.5c5-7.5,4.2-6.4,2.6-8.9
						C2586.6,415.2,2587.4,415.5,2584.8,417.3L2584.8,417.3z M2320.8,388.6c5.7,0,10.2-3.1,10.2-9.5c-4.5-3-2.7-0.7-4.5-4.5
						c-3-0.3-6.9-1.4-10,4.6c-1.1,2.1-1.8,3.9-0.8,6.1C2316.6,387.4,2318.6,388.7,2320.8,388.6z M1722.2,792.5
						c-3.2-0.9-2.9-3.2-5.7-3.2c-3,0-4.5,4,1.9,8.3c-3.7,7-6.3,4.8-3.2,9.5c3.6,0,4.5-1.9,7-5.7c3.3,0.8,2.8,2.1,6.3,1.3
						c-0.1-3.3-0.8-3.6-3.2-6.3c3.3-4.9,2.7-5.7,1.3-8.3C1724.3,788.6,1723,789.5,1722.2,792.5L1722.2,792.5z M1801.1,777.8
						c-0.1-3.8-2.3-7.3-3.6-10.5c-1.5-3.7-2.9-6.9-4.1-10.5c-2.2-6.3-6.2-15.9-7.6-21.7h-1.9c0,4.7,4.7,19.6,6.1,23.9l4,10.6
						c0.8,1.7,1.7,3.4,2.6,5.1C1798,777.2,1797.7,777.8,1801.1,777.8L1801.1,777.8z M1847.6,514.7c-2.2,1.5-2.3,3.2-5.1,3.2
						c-5.3,0-5.8-5.2-8.9,0.6c1.8,3.4,3,3.5,7,4.5c-0.1,0.1-0.3,0.1-0.3,0.3l-0.6,0.6c-1.7,2.4-0.8,2.6-0.3,4.8
						c2.1,0,3.6,0.2,4.9-0.9c0.3-0.3,2.5-3.2,2.7-3.6c3.7,1.7,3-0.6,5.7,0.6c-0.6-2.4-2-3.3-3.2-5.1c0.8-3.3,1.9-7.9-2.6-8.3
						C1847.1,512.7,1847.3,513.7,1847.6,514.7L1847.6,514.7z M2216.4,624.3c0-4.1-0.3-2.9-1-6c-0.5-2.2-0.1-4.7-0.5-7.1
						c-0.8-4.5-1.4-9.3-2.1-13.1c-0.5-2.5-0.5-3.4-0.9-6.1l-5.6-18.6c0,11.3,3,29.9,5.6,40.2c0.6,2.4,1.3,3.6,1.8,5.8
						C2214.4,622.6,2213.5,623.5,2216.4,624.3L2216.4,624.3z M1908.8,577.2c4.8,1,1.8-2.1,12.9-15.1c3.5-4.2,1.4-2.1,6.6-4.2
						c1.4-0.5,1.3-0.7,2.7-1.1c3.8-1.3,8.1-1.4,10.3-4.4c-3.9-2.1-11.4,0.9-14.9,2.3c-6.2,2.4-9.7,7.2-13.7,13
						C1911.1,569.8,1909.1,573.7,1908.8,577.2L1908.8,577.2z M2224.7,567.6c1.8,2.5,6.4,1.9,12.9,6.3l11.8,11.8
						c0.6,0.7,0.9,0.9,1.5,1.6c1.7,1.7,1.6,2.1,4.3,2.7c-1.8-3.8-0.3-2.9-4.4-8.4c-1.9-2.5-6.7-8.1-9.4-9.7c-1.6-0.9-2.5-1.5-4-2.3
						C2234.9,568.2,2226.3,565.7,2224.7,567.6L2224.7,567.6z M2024.7,516.6c0,3.7,5.2,4.5,3.4,14.2c-0.3,2.1-0.3,4.1-0.3,6.1
						c0,1.8,0.3,1.2,1.3,1.9c2.7-2,0.3-3.6,3.2-5.7c0.3,3.6,1.8,3.6,2.6,6.3h1.3c0.1-2.2,0.4-2.2,0.3-3.6c-0.2-3.4-1.7-7.5-2.8-10.5
						c-1.2-3.5-4.1-8.8-7.1-10.7C2026,515.2,2024.7,515.8,2024.7,516.6z M2059.1,739.6c1.1,4,8.2,6.4,11.8,7.9
						c15.8,6.3,14.7,3.8,23.9,3.6c-1.3-1.7-1.6-1.3-3.9-1.8c-2.1-0.4-2.7-0.5-4.8-0.9l-17.3-5.6
						C2065.9,741.6,2060.3,737.6,2059.1,739.6L2059.1,739.6z M1873.8,496.9c2.3,0,2.5-3.5,4.5-8.8l8.9-19.1c0.6-1.6,1.1-3.6,1.8-5.1
						c0.9-1.6,1.5-3.3,1.9-5.1c-2.3,0.6-3,3.5-5.7,8.2l-1.8,3.3c-0.6,1-0.1,0-0.7,1.2l-7.1,15.2
						C1875.2,487.8,1870.9,496.9,1873.8,496.9L1873.8,496.9z M1916.5,329.4c-3.9-1.9-3.9-1.2-6.3,0c-0.1,5.2,0.3,1.5,1.3,5.1
						c-2.2,0.6-2,0.7-2.6,3.2c5.4,3.6,5.4-1,8.3-1.9c2,0,6.3,0.6,6.3-1.3c0-2-1.1-2.1-2.6-2.6c0.5-0.8,3.7-5.7,0.6-5.7
						C1920.1,326.2,1917.6,328.6,1916.5,329.4L1916.5,329.4z M1882.7,630c5.1-0.1,5.1-4.8,5.1-13.4v-11.5c0-4.5-0.9-6.5-1.3-10.2
						h-1.3c0,3.2-0.7,4.4-0.7,8.3c0.1,8.7-0.6,10.3-0.6,18.4C1884,626.3,1882.7,626.3,1882.7,630L1882.7,630z M2213.2,672.1
						l-6.1-49.3c-1-3.5-0.8-4.5-2.1-6.1c-0.1,9.9,0.7,19.8,2.3,29.6l5.7,25.6C2213,671.8,2213.2,672,2213.2,672.1L2213.2,672.1z
						 M1796.7,684.8v1.3c4.8,2.7,21.2-4.9,26.3-7.5c3.3-1.6,4.5-2.2,6.2-5.3c-4.1,0.1-4.6,1.9-7.7,3.1c-10.6,4.2-5,2.4-16.4,5.3
						C1803.7,682.1,1796.7,683.3,1796.7,684.8L1796.7,684.8z M2255.9,741.1v4.5c10.5,7,14.8-9.1,6.3-10.2
						C2258.9,736.3,2255.9,737.1,2255.9,741.1L2255.9,741.1z M1856,408.3c0,6.1-0.9,12.8,3.2,12.8c1.7-3.7,0.2-11.1,1-15.5
						c0.9-5.2,1.7-9.1,2.8-13.7c-1.4,0.5-0.6,0-1.5,1l-3.5,5.4C1856.7,401.5,1856,404.9,1856,408.3z M1679.9,662.8
						c0,6.7,12.1,9,12.1-0.6c0-3.9-7.2-5.6-10-3.1C1681.1,660.2,1680.4,661.5,1679.9,662.8z M1976.3,551c4.6-2.7-3.9-15.7-5.3-17.6
						l-3.3-3.8c-2.6-3-5.2-6.6-9.3-6.7c0.1,4.5,0.3,0.6,7.6,9.7c4.6,5.8,5.3,6.1,8.7,14.2C1975.4,548.9,1975.8,549,1976.3,551z
						 M2153.4,464.4c-0.3-3.2-3.7-9-5.1-12.1c-0.9-2.1-1.7-4.5-2.1-6.7l-1.6-7.3c-3.3,0.9-3.3,3.4-2.7,6.4c0.5,2.7,1.2,5.4,2.2,8
						c0.9,2.4,2.1,4.6,3.4,6.7C2149.7,462.5,2151,464.2,2153.4,464.4L2153.4,464.4z M2008.8,421.7c0,2.7-0.7,14,0,15.3
						c1.9-0.5,1.6-0.1,2.3-2.1c0.3-1.2,0.6-2.4,0.8-3.6c1.2-11.5,1-12.7-2-22.7c-0.5-1.8-0.9-2.8-2.4-3.9c0,3.1,0.4,4.9,0.6,8.2
						c0.2,2.6,0.4,1.3,0.7,3.9C2008.9,418.1,2008.8,420.2,2008.8,421.7L2008.8,421.7z M1783.4,728.1l-6.4-33.7
						c-0.9-2.5-1.2-1.5-1.2-5.1h-0.6c0,13,1.1,19.7,3.9,31.1C1780.8,727.6,1780.3,727.8,1783.4,728.1L1783.4,728.1z M1479.3,318.8
						c0,3.9,5,3.9,5.1,3.9c2.1-1.1,6.3-4,6.3-7C1490.8,307.6,1479.3,311.7,1479.3,318.8L1479.3,318.8z M2323.4,604
						c-2.1,0-1.4-1.3-3.6,0.2c-1.2,0.9-2,2.1-2.1,3.7c0,9.1,12.7,3.3,12.7-1.9c0-1.5-1-1.9-1.9-3.2
						C2321.9,602.7,2325.5,604,2323.4,604L2323.4,604z M2122.8,471.4c0-4.6-0.5-4.5-1.4-8.2c-2.2-8.8-2.3-13.6-4-21.4
						c-0.6-2.8,0.3-2.2-2.2-2.9c0,9,0.3,13.5,2.8,22.1C2118.9,464.4,2119,470.5,2122.8,471.4L2122.8,471.4z M2594.4,681.2
						c0,2.2,0.6,3.3,2.3,4c4.8,2.3,5.6,1.7,8.5,1l0.6-4.5c0-2.7-4.2-5.1-8.9-5.1C2596,678,2594.4,679.3,2594.4,681.2L2594.4,681.2z
						 M2443.8,437c0,5.1,10.8,6.3,10.8-2.6c0-4.5-6-5.8-8.7-2.3C2445.8,432.2,2443.8,437,2443.8,437z M2582.5,529.5
						c0,8.2,11.5,3.3,11.5-1.3c0-1.5-1-1.9-1.9-3.2h-3.8c-0.4-1.9,0.1-0.9-1.3-1.9C2586.5,523.3,2582.5,523.5,2582.5,529.5z
						 M2046.4,463.2c0,3.7,4.3,2.1,7.8-6.8c1.8-4.5,3.6-9.6,3.6-15.5c-2.1,0.6-2.1,0.6-3.2,5.1L2046.4,463.2z M1924.7,519.8
						c-7.4,0-6.3-0.6-7.6,1.3c2.2,3,1.5-0.1,11.8,2.1l3.8,1.2c2.7,0.7,9.8-3.4,15.5-2.1c-4.8-7.2-12.2,0.1-16.6-1.1
						C1929.1,520.5,1928,519.9,1924.7,519.8L1924.7,519.8z M2134.2,589.9c1,4,2.9,2.3,6.3,2c5-0.6,18.8-3.2,20.3-8.9
						c-0.9,0.3-1.9,0.6-2.8,1c-1.6,0.5-1.9,0.6-3.3,1.1C2147.3,587.7,2140.5,588.4,2134.2,589.9L2134.2,589.9z M1737.5,595
						c0,2.7,0.3,2.6,1.3,4.5h5.1l1.6-2.8c0.1-0.1,0.2-0.3,0.3-0.3c1.7-1.8,2.5-0.7,2.5-4.5C1748.3,586.2,1737.5,591.3,1737.5,595
						L1737.5,595z M1764.9,424.9c1.3,2.4,1.8,5.6,5.1,5.6c5.2,0,8.9-10,0.6-10C1767.2,420.4,1766.1,422.7,1764.9,424.9L1764.9,424.9
						z M2053.4,363.1c0,2.5,7,4.4,10.7,14.1c0.8,2.1,1.6,3.9,3.3,5c2.3-4.1-1.9-10.5-3.9-13.2c-1.5-2-5.8-7.2-8.8-7.2
						C2054,361.9,2053.5,362.4,2053.4,363.1L2053.4,363.1z M2178.8,694.4h1.9c-0.2-6.7-10.1-31.2-10.2-34.4h-1.3
						c0.5,6.4,4.9,19.2,6.9,25.6L2178.8,694.4z M1515.9,501.2c2.1,9.2,10.2,6.1,10.2,0.6c0-5.1-4-4.5-7.6-4.5
						C1517.4,498.6,1516.5,499.9,1515.9,501.2z M2522.1,328.5c0,6.3,8.9,8.6,8.9-3.9c-2.2-1.9-5.1-3.3-7.4-0.4
						C2522.7,325.5,2522.2,327,2522.1,328.5L2522.1,328.5z M2027.2,775.3c-0.3-3-0.5-1.9-2.7-3.8l-10.6-9.8
						c-1.2-1.2-3.4-4.3-5.2-4.3c-3.9,0,0.1,3.6,1.1,4.6C2022.9,774.9,2017.4,768.7,2027.2,775.3L2027.2,775.3z M1842.6,804.6
						c3.5,2,15.1-0.6,20-4.9c1.8-1.6,0.9,0,1.7-2.1c-3.8,0.3-11.1,3-16.9,4.1c-0.4,0.1-3,0.4-3.3,0.6
						C1842.2,802.9,1842.8,802.6,1842.6,804.6L1842.6,804.6z M1507.3,777.9c0.1,0.1,0.3,0.2,0.3,0.3c0.9,4.2,8.4-1.3,9.9-2.2v-4.5
						C1512.1,768.7,1507.8,771.9,1507.3,777.9L1507.3,777.9z M1833.7,739.6c0,8.2,11.9,11.6,15.3,7c-3.1-0.7-4.5-0.6-8.3-0.6
						c-4.5-6.9-4.8-1.7-1.9-14c-1.7,0.2-1.5-0.9-3.6,2.7C1834.3,736.3,1833.7,737.9,1833.7,739.6L1833.7,739.6z M2386.3,791.8v4.5
						c5.1,2.7,9.5,1,9.5-3.9c0-1.5-1-1.9-1.9-3.2C2387.8,789.2,2389.8,789.4,2386.3,791.8L2386.3,791.8z M1922.2,591.2v5.7
						c0,2.4-0.2,0.3,0.6,1.9c5.4-3.7-3-7.7,8.3-16c1.6-1.2,3.3-2.2,3.8-4.5c-2.8,0.3-6.7,2.7-8.4,4.3
						C1924.3,584.7,1922.2,587.2,1922.2,591.2z M2014.5,310.9v3.9c1,0.7,2.1,1.4,3.2,1.9c3.9-2.1,5.7-1.5,5.7-7
						c-2-1.5-4.5-2.5-7-2.6C2015.1,308.3,2014.5,308.6,2014.5,310.9L2014.5,310.9z M1469.1,633.5c0,1.6,0.4,0.7,0.6,3.2
						c5.5,1.3,8.3-1.3,8.3-4.5c0-3.5-1.6-3.3-3.8-4.5c-1.7,0.9-2,0.3-3.4,1.7C1469.9,630.6,1469.3,632,1469.1,633.5L1469.1,633.5z
						 M2224,375.2c-1.3-4.9-14.9-10.2-21-10.2c0.3,4.1,2.8,2.6,9.8,5.5C2216.2,372,2220.1,375.1,2224,375.2L2224,375.2z
						 M1896.7,541.5v1.9h1.9c0.3-4.1,5.2-12.1,9.1-15.8c2.1-2,3.5-1.7,4.3-4.6C1903.8,523.7,1896.7,537.5,1896.7,541.5z
						 M1924.1,446.6c0,3.3-0.3,0.9,0.6,2.6c2.8-1.9,2.4-5.6,3.9-12c1-4.2,2.7-8.2,3.7-12.3c-2.5,0.9-3.4,4.2-4.5,6.3
						c-0.3,0.9-0.9,1.7-1.3,2.6C1925.1,437.9,1924.3,442.2,1924.1,446.6z M1829.8,733.3c1.2-2.5-1.2-9.4-2.1-12.6l-2.3-9.1
						c-0.5-2.4,0.6-1.8-2-2.5C1823.5,715.1,1826.1,730.5,1829.8,733.3L1829.8,733.3z M2103.7,647.9c-1.3-1.9-6.8-5.7-9-7.6
						c-4-3.2-5.8-6.9-8.2-8.4c-0.4,2-0.6,1-0.1,2.6C2088.1,639.2,2096.5,647.7,2103.7,647.9L2103.7,647.9z M1897.3,682.3
						c0,5.6-0.6,6.2,2.6,7c1.3-2.7,0.2-6.6,1.1-9.7c1.4-4.2,3.7-3.6,4.5-6.9C1902.4,670,1897.3,677,1897.3,682.3z M1985.8,598.9
						l13.8,5.3c2,1,2.6,1.6,5.3,1.7c-3.3-4.9-10.9-8.9-19.1-8.9L1985.8,598.9L1985.8,598.9z M2076.3,612.2c3.6-0.1,3.5-1.3,7-1.3
						c3.9,0,6.9,4.6,9.5,6.3c1.4-2.9-2.7-7.2-5.5-8.5C2083,606.7,2077.5,607.6,2076.3,612.2z M2011.9,690.4c1.5,2.1,0.9,1.2,3.2,2.7
						l2.3,2.1c0.2,0.2,0.9,1,0.9,1c3.7,5.1-2.2,6.7,1.3,6.7c4.2,0,3.9-12.1-6.3-14.5L2011.9,690.4z M2001.4,813.9
						c3.7,0,4.8-4.5,5.1-5.1c-0.6-1.1-1.2-2.1-1.9-3.2h-2.6C1996.7,805.6,1996.9,813.9,2001.4,813.9L2001.4,813.9z M1942.5,710.3
						c0,2.6,7.1,4.4,7.6,9.5c-1,3.8-1.5,0.2-0.6,3.9c2-0.5,2.3-1.3,2.8-3.6C1954.2,712.7,1942.5,706.1,1942.5,710.3L1942.5,710.3z
						 M2069.3,474.6c0,7-0.5,6.8,2.6,7c0-10.7,3.6-22.4-0.5-18.4C2069.9,464.6,2069.3,472.5,2069.3,474.6L2069.3,474.6z
						 M2174.4,398.1c0,3.1,10.9,10.5,15.3,4.5c-2.1-1-5.1-1.1-7.6-2.1C2180.5,400,2174.4,394.4,2174.4,398.1L2174.4,398.1z
						 M2043.2,576.5c0,13.5,0.9,7.4,2.6,14.7h2.6c0.8-3.4-0.4-4.3-1.4-8.2c-1.3-5.1-0.8-6.8-3.1-8.4
						C2043.4,575.4,2043.2,575.3,2043.2,576.5L2043.2,576.5z M1994.8,637.7c-0.2-2.5-0.9-3.2-2.1-4.9l-6.5-8.2
						c-1.4-1.9-1.7-2.9-4.1-3.6c0.2,2.4,0.9,3.3,2.1,5C1985.9,628.7,1991.7,636.9,1994.8,637.7L1994.8,637.7z M1919.6,705.8
						c-0.2-2.3-0.2-2.1-2.1-3c-9.9-4-3.3-5.7-8.7-7.2c-1.1,5,2.3,8.8,6,10C1916.3,706.2,1918,706.3,1919.6,705.8L1919.6,705.8z
						 M1922.2,489.2V488c-5.7,0-6.7-0.3-10.5,2.3c-1.6,1.1-7.1,4.6-6.3,6.5c0.8,2,2.1-0.6,7.1-3.9
						C1914.7,491.5,1919,489.5,1922.2,489.2L1922.2,489.2z M1989,686.1c-0.1-5-1.6-2.1-5.5-4.7c-1.5-1-3.5-4.3-4-6.2h-1.3
						C1977.6,682.3,1981.2,686.1,1989,686.1L1989,686.1z M2193.5,714.7c0.9-1.4,0.1-0.9,1.9-1.3l4.6-5c-3.3,0.1-4,1.6-8.2,3.9
						c-2.8,1.6-5.9,2.8-9.1,3.6v1.3C2188.6,718.7,2188.6,715.9,2193.5,714.7L2193.5,714.7z M1824.1,761.9c0,2.1,1.8,4.9,3.3,6.3
						c2.2,2,4.1,2.1,8.2,2.1c-1.5-2-3.9-2.7-5.8-4.3c-0.9-0.9-1.5-1.9-2.1-2.9c-1.5-2.4-0.2-2.2-2.8-2.9
						C1824.3,760.8,1824.1,760.6,1824.1,761.9L1824.1,761.9z M2057.2,651.1c2.7-0.7,2.6-2.6,2.6-7c0-3.6-1.3-7.3-5.1-7.6
						C2054.8,641,2057.2,639.3,2057.2,651.1z M1887.8,744.7c0,3.6,0.5,6.2,3.8,7c1.8-2.1-0.6-1.9-0.6-7c0-3.3,1-3.3,1.3-6.3
						C1888.8,738.6,1887.8,741.1,1887.8,744.7L1887.8,744.7z M2110.7,660c0,5.9-6.3,10.3-1.3,14c0.8-3.8-0.9-2.5,0.9-6.8
						c0,0,7.4-11-0.9-11.7C2109.6,658.4,2110.7,658.3,2110.7,660L2110.7,660z M1907.5,435.7c0,5.1-0.3,4,0.6,8.2h1.9
						c0-13,0.8-8.9,1.3-15.3C1908.6,429.4,1907.5,433,1907.5,435.7z M2057.2,700.1c0,3.9,3.3,8.3,9.5,8.3c-0.3-3.7-2.1-2.1-4.6-4.9
						c-1.8-2-2.1-3.8-4.3-5.3C2057.3,698.9,2057.2,698.8,2057.2,700.1z M2229.8,370.8c-0.1-3.7-1.3-4.3-2.1-7.6
						c-0.8-3.1-1.2-4.8-3.7-6.5c0,3.9,0,5.5,1.1,8.5c0.4,1.2,0.9,2.4,1.5,3.5C2227.7,370.2,2227.8,370.3,2229.8,370.8L2229.8,370.8z
						 M2002.4,512.1c2.6,2.1,10.8-3.5,14-9.5c-2.6,0.7-5,3-6.9,4.5c-1.1,0.9-2.3,1.5-3.6,2.1C2003.4,510.4,2003,509.8,2002.4,512.1z
						 M1926.7,734.5c0,3.2,2.7,8.9,8.9,8.9c-0.9-3.4-3.1-2.5-5.6-7.7c-1-2.1-0.2-1.8-2.7-2.4
						C1927.3,733.3,1926.7,734.5,1926.7,734.5L1926.7,734.5z M2162.9,652.9c0,4.3-2.5,4-4.5,7c4.5,2.1,9.6-6.5,3.8-12.1
						c-2.4-2.2-2-1.8-3.8-2c0.7,2.4,0.9,1.6,2.4,3.3C2161.5,650,2162.9,651.9,2162.9,652.9z M2004.9,723.6c-0.3-4.2-0.3,0-3.7-5.2
						c-2.6-4-2.1-4.3-4.5-5c-1.1,2.4,0.3,4.6,1.8,6.5C2000.2,722.2,2001.4,723.6,2004.9,723.6L2004.9,723.6z M1956.5,612.8
						c3.5-0.3,2-1,4.9-4c2.1-2.1,3.9-2,4.6-4.9c-2.4-0.2-4.8,0.7-6.5,2.4c-0.8,0.7-1.5,1.5-2,2.6
						C1956.7,610.5,1956.6,610.5,1956.5,612.8L1956.5,612.8z M2040.6,656.1c0,4.7,1.2,10.1,5.1,12.7c0.8-1.5-2.5-8.8-3.8-14.7
						C2040.8,655,2040.6,654.3,2040.6,656.1L2040.6,656.1z M1989.6,678.4c2.1,3.2,1.5,0.3,5.8,6.9c0.9,1.5,0.5,1.5,2.4,2
						C1998,678.4,1991,676.8,1989.6,678.4L1989.6,678.4z M1928.6,657.4c3.9,0.9,6.1,4.4,7,8.3h1.3c0-3.4-0.5-5.1-1.9-7
						c-1.5-1.9-3.5-3.2-5.7-3.8C1928.7,655.6,1928.5,656.5,1928.6,657.4L1928.6,657.4z M1928.6,707.1c0-5.6-2.7-8.9-8.3-8.9
						c0.5,2,0.1,0.9,1.6,2.2C1927,704.3,1924.3,706,1928.6,707.1L1928.6,707.1z M1994.8,546c0,2.7,2.4,2.5,4.2,1.7
						c2.5-1,3.3-1.8,3.4-4.9C1999.9,542.8,1994.8,544.2,1994.8,546L1994.8,546z M2140.6,582.9c0.5,5.7,9.2,1.9,10.2-1.9
						L2140.6,582.9z M1917.1,753c1.7,0,1.9-0.9,2.6-1.9l-8.3-3.9C1908.2,747.2,1912.5,753,1917.1,753z M1980.1,728.1
						c0,1.8,7.2,8.8,8.9,2.6C1982.4,729.1,1980.1,725,1980.1,728.1L1980.1,728.1z M1997.3,380.4c0,1.9,1.7,4.4,6.3,1.9
						C2003.7,375.6,1997.3,379.2,1997.3,380.4L1997.3,380.4z M2112.6,640.8c2.4,0.6,2.7,1.7,3.9,3.7c1.3,2.1,1.2,3.3,3.1,4.6
						c2-2.4-2.1-9.4-7-9.5L2112.6,640.8L2112.6,640.8z M1899.9,660c3.2-0.9,1.5-1.3,3.3-3c2.1-2.1,2.8-0.1,3.7-3.3
						C1904.9,651.9,1900,654.4,1899.9,660L1899.9,660z M2038.7,623v1.9c2.7-0.3,1.5-0.6,3.8-0.6c2.8,0,4.3,2.4,5.3,1.4
						C2049.9,623.6,2043.6,621.1,2038.7,623L2038.7,623z M1849.5,724.3c-2.1,0-3.5,0-5.1,0.7c-0.9,0.4-3.4,2-2.1,3.3
						C1843,728.9,1848.7,727.6,1849.5,724.3z M1915.8,658.7c1.7,0,1.9-0.9,2.6-1.9c-2.1-1-1.8-0.2-3.7-0.8c-2.1-0.6-1.5-2.1-3.2-1.5
						C1908.9,655.5,1913.2,658.7,1915.8,658.7L1915.8,658.7z M2004.3,607.1c0.3,0.6,0.6,1.2,0.6,1.9c2.1-2.2,2.4-1.1,3.2-3.2
						C2006.8,606.1,2005.5,606.5,2004.3,607.1L2004.3,607.1z M1978.2,647.2h0.6v-1.9h-0.6V647.2z M1913.3,616.7v-0.6l-0.8,0.5
						L1913.3,616.7z M1901.2,382.8h0.6l-0.5-0.8L1901.2,382.8z M1545.1,362.3l0.2-0.2C1545.3,362.2,1545,362.3,1545.1,362.3z
						 M1899.9,385.4l0.6-1.3L1899.9,385.4z M1900.5,384.1l0.6-1.3L1900.5,384.1z M2218,662l27-47.1l20.2,11.6l-22.8,39.9
						c-2.1,2-4,3.9-6.3,5.9l-0.2-0.1L2218,662z M2237.4,657.5c0.2,0,0.3,0.1,0.5,0.1c0.2,0,0.3,0,0.5,0c0.3,0.1,0.4,0.1,0.7,0.1
						c0.3,0,0.5,0,0.8-0.1l0.7-0.1c0.3,0,0.4,0,0.7,0c0-0.1,0-0.1,0.1-0.1s0.1,0,0.2-0.1l0.2-0.1c0.1,0,0.1-0.1,0.2-0.1
						c0.1,0.1,0.1,0.3,0,0.3c-0.1,0.1-0.1,0.2-0.1,0.3c0,0.1,0,0.2,0,0.2c0,0.1,0,0.2,0,0.2c0,0.1-0.1,0.3-0.1,0.3
						c-0.1,0.1-0.1,0.3-0.1,0.3c0,0,0,0-0.1,0.1c-0.1,0.1,0,0.1,0,0c0,0.1,0,0.1,0,0.2c0,0,0,0.1,0,0.2c-0.1,0.1-0.1,0.2-0.2,0.2
						c-0.1,0-0.2,0.1-0.3,0.1c-0.1,0-0.3,0.1-0.3,0.1s-0.3,0.1-0.3,0.2c-0.1,0.1-0.2,0.2-0.3,0.3c-0.1,0.1-0.1,0.2-0.2,0.2
						c-0.1,0-0.1,0.1-0.2,0.1c-0.1,0-0.1,0-0.2,0.1c0,0.1-0.1,0.2-0.3,0.3c-0.1,0-0.2,0.1-0.2,0.3c-0.1,0-0.1-0.1-0.1,0
						c0,0.1,0,0,0,0.1c0,0,0,0,0,0.1c0,0,0,0-0.1-0.1c-0.1,0.1-0.1,0.1,0,0.2c0.1,0.1,0,0.1,0,0.2c-0.4,0.4-0.8,0.8-1.2,1.2
						c-0.4,0.4-0.8,0.9-1,1.4c0.2,0.1,0.3,0.3,0.5,0.3c0.2,0.1,0.3,0.2,0.4,0.3c0,0.2-0.1,0.4-0.1,0.6c0,0.2-0.1,0.3-0.2,0.5
						c-0.1,0.2-0.2,0.3-0.2,0.5c-0.1,0.2-0.1,0.3-0.1,0.6c-0.1,0.2-0.3,0.3-0.3,0.3c-0.2,0.1-0.3,0.1-0.5,0c-0.2,0-0.3-0.1-0.5-0.2
						c-0.2-0.1-0.3-0.2-0.5-0.3c-0.3,0.4-0.4,0.9-0.6,1.4c-0.2,0.4-0.4,0.9-0.7,1.4c-0.1,0-0.3,0-0.4,0s-0.3,0-0.4-0.1
						c-0.1-0.1-0.1-0.2,0-0.3c0-0.1,0.1-0.2,0.1-0.3c0.2-0.4,0.3-0.9,0.5-1.2c0.2-0.3,0.4-0.9,0.7-1.5c-0.3-0.3-0.5-0.5-0.8-0.8
						c-0.3-0.3-0.5-0.6-0.8-0.9c-0.7-0.8-1.4-1.6-2.1-2.4s-1.3-1.6-1.8-2.5c-0.1-0.1-0.1-0.2-0.2-0.3l-0.2-0.3
						c-0.1-0.1-0.1-0.2-0.2-0.3c0-0.1-0.1-0.1-0.1-0.2c0-0.3,0.1-0.4,0.3-0.6c0.2-0.2,0.3-0.4,0.4-0.6c-0.5-0.3-1-0.8-1.6-1.1
						c-0.6-0.3-1.1-0.7-1.6-1.1c0-0.1-0.1-0.2-0.1-0.3c-0.1-0.1-0.1-0.3-0.1-0.3c0.1-0.2,0.2-0.3,0.3-0.6c0.1-0.3,0.3-0.4,0.3-0.7
						c0.1-0.3,0.3-0.4,0.4-0.6c0.2-0.2,0.3-0.3,0.5-0.5c0.4,0.4,0.9,0.9,1.5,1.2c0.6,0.4,1.2,0.8,1.8,1.1c0.6,0.3,1.3,0.7,2,1
						c0.7,0.3,1.3,0.6,2,0.9c0.3,0.1,0.4,0.2,0.6,0.3c0.2,0.1,0.3,0.2,0.6,0.3c0.3,0.1,0.4,0.1,0.5,0.2c0.1,0.1,0.3,0.2,0.5,0.3
						C2237,657.4,2237.2,657.4,2237.4,657.5c0.1-0.1,0.3-0.1,0.3-0.1c0.1,0.1,0.1,0.1,0,0.1C2237.7,657.5,2237.4,657.5,2237.4,657.5
						L2237.4,657.5z M2235.1,662.6c0.1,0.2,0.3,0.3,0.3,0.3s0.3,0.2,0.3,0.3c0.3-0.6,0.8-1.2,1.2-1.8c0.4-0.5,0.9-1,1.2-1.5
						c-0.9,0.2-1.9,0.1-2.8-0.1c-1-0.2-2.1-0.5-3.1-0.9c0.3,0.3,0.4,0.6,0.6,0.9c0.2,0.3,0.4,0.6,0.6,0.9c0.2,0.3,0.4,0.6,0.7,0.9
						C2234.5,662,2234.9,662.3,2235.1,662.6z M2235.7,654.1c-0.2-0.1-0.3-0.2-0.5-0.1c-0.2,0-0.3,0-0.5,0l0.1-0.1h0.1
						c-0.1-0.1-0.1-0.1-0.2-0.1c-0.1,0-0.2,0-0.3,0c-0.1,0-0.2,0-0.3,0s-0.2-0.1-0.2-0.1c-0.1,0-0.2,0-0.3,0s-0.2-0.1-0.3-0.2
						c-0.1-0.1-0.2-0.2-0.3-0.2c-0.1-0.1-0.1-0.2-0.2-0.2c0,0,0.1,0,0-0.1c-0.1-0.1,0,0,0-0.1c-0.1-0.2-0.2-0.4-0.3-0.7
						s-0.2-0.5-0.3-0.8s-0.2-0.5-0.3-0.8s-0.1-0.4-0.2-0.6c0-0.1,0-0.1,0-0.1s-0.1,0-0.1-0.1c0-0.1,0-0.1,0.1-0.2c0,0,0.1-0.1,0-0.2
						c-0.1,0-0.2-0.1-0.3-0.1c-0.2-0.2-0.3-0.3-0.5-0.3c-0.2-0.1-0.3-0.3-0.4-0.4c0,0,0-0.1,0-0.2c0,0,0-0.1-0.1-0.1v-0.1
						c0-0.1,0.1-0.1,0.1-0.2s0-0.2,0-0.3c0-0.1,0-0.2,0.1-0.2v-0.1c0,0,0-0.1-0.1-0.1c0.1-0.1,0.2-0.3,0.2-0.3s0.1-0.3,0.1-0.4
						c0-0.2,0.1-0.3,0.1-0.4c0.1-0.2,0.1-0.3,0.3-0.4c0.1,0,0.1,0,0.1,0h0.1c0.1-0.1,0.2-0.2,0.3-0.1c0.1,0,0.3,0.1,0.3,0.1l0.1,0.1
						h0.1v0.2c0.3,0.2,0.5,0.3,0.7,0.4c0.3,0.2,0.6,0.3,0.9,0.3c0.3,0.1,0.6,0.2,0.9,0.3c0.3,0.1,0.5,0.1,0.9,0.1c0.3,0,0.5,0,0.8,0
						c0.4,0,0.9-0.2,1.3-0.3c0.3-0.1,0.5-0.3,0.7-0.4h0.1h0.1h0.1c0,0,0-0.1,0.1-0.1c0,0,0.1,0.1,0.1,0s0.1,0,0.1,0.1
						c0,0.1-0.1,0.1-0.1,0.2c0.1,0.1,0.1,0.1,0.2,0.2c0.1,0.1,0.1,0.2,0.1,0.3c-0.1,0.2-0.1,0.3,0,0.3c-0.1,0.1-0.1,0.2,0,0.3h-0.1
						h-0.1c0.1,0.1,0.1,0.2,0.1,0.3s0,0.2,0.1,0.2v0.1l-0.1,0.1c0.1,0.1,0.1,0.2,0.1,0.2c0,0.1,0,0.2,0,0.2s0,0.1-0.1,0
						c-0.1-0.1-0.1,0-0.1,0c0,0.1,0,0.3,0.1,0.3c-0.1,0.1-0.1,0.1-0.1,0.2c0,0.1,0,0.2,0,0.2s0,0.1-0.1,0.1c-0.1,0-0.1,0.1-0.1,0.1
						c-0.2,0-0.3,0.1-0.4,0.2c-0.1,0.1-0.3,0.2-0.4,0.2c-0.6,0.2-1.2,0.3-1.8,0.4c-0.6,0-1.1,0-1.6-0.2c0.1,0.1,0.2,0.2,0.2,0.3
						c0.1,0.1,0.1,0.3,0.2,0.3c0.1,0.1,0.1,0.2,0.2,0.3c0.1,0.1,0.2,0.1,0.3,0.1c0.5,0.1,0.9,0.1,1.5,0.1c0.5,0,0.9-0.1,1.5-0.3
						c0.6-0.2,1.2-0.4,1.7-0.8c0.6-0.3,1.4-0.8,2.2-1.4c0.1-0.1,0.2-0.3,0.3-0.3c0.1-0.1,0.3-0.2,0.3-0.3c0.1,0,0.1,0,0.2-0.1
						c0.2,0,0.3,0.1,0.5,0.2c0.2,0.1,0.3,0.3,0.4,0.3c0.1,0.1,0.2,0.3,0.3,0.4c0.2,0.2,0.3,0.3,0.4,0.5c0.2,0.2,0.3,0.3,0.3,0.4
						c0.1,0.1,0.1,0.2,0.2,0.3c0,0.1,0,0.2,0,0.2c0,0.1,0.1,0.1,0.1,0.2s0,0.2,0,0.3c0,0.1,0,0.2,0,0.3c-0.1,0-0.1,0.1-0.1,0.1
						c0,0.2,0,0.3,0,0.3c0,0.1,0,0.3,0,0.3c-0.1,0.2-0.1,0.4-0.1,0.6c-0.2,0.2-0.2,0.4-0.1,0.6c-0.1,0.1-0.1,0.1-0.1,0.1
						c-0.1,0.6-0.3,1.1-0.7,1.6c-0.3,0.4-0.7,0.9-1.2,1.2c-0.4,0.2-0.8,0.4-1.2,0.6c-0.4,0.2-0.9,0.3-1.3,0.3c-0.5,0-0.9,0-1.4-0.1
						c-0.5-0.1-1-0.3-1.5-0.6c-0.1,0-0.1-0.1-0.1-0.1l-0.1-0.1l-0.1-0.3c0.1,0.1,0.2,0.1,0.3,0.2c0.1,0,0.2,0.1,0.3,0.2
						c-0.1-0.1-0.2-0.3-0.3-0.3c-0.1-0.1-0.3-0.2-0.3-0.3v-0.1c0,0,0,0,0.1,0c-0.1-0.1-0.1-0.1-0.1-0.2s0-0.1,0-0.1
						c0-0.1,0-0.2-0.1-0.2s-0.1-0.1-0.1-0.2c0.1,0,0.1,0.1,0.1,0.1c0,0.1,0.1,0.1,0.1,0.2c0.1,0,0.1,0,0.1-0.1c0-0.1,0-0.1,0.1-0.1
						c0,0,0.1,0,0.1,0.1l0.1,0.1c0,0,0-0.1-0.1-0.1s-0.1,0,0-0.1c0.1,0.1,0.1,0.1,0.1,0.1s0,0,0.1-0.1c0.1,0,0.2,0.1,0.3,0.2
						c0.1,0.1,0.2,0.1,0.3,0.1c0-0.1,0-0.1-0.1-0.1l0,0c-0.1,0-0.1,0-0.2-0.1c0.2,0.1,0.3,0.1,0.5,0.2s0.3,0.2,0.5,0.2
						c0,0,0,0,0-0.1c0-0.1,0-0.1,0-0.1c0.1,0,0.2,0,0.3,0c0.1,0,0.2,0,0.3,0c0-0.1-0.1-0.1-0.1-0.1c-0.1,0-0.1-0.1-0.1-0.1
						c0.1,0,0.3-0.1,0.3,0c0.1,0.1,0.3,0,0.3,0c0,0,0,0,0-0.1s0,0,0-0.1c0.1-0.1,0.3-0.1,0.4-0.1c0.2,0,0.3,0,0.4-0.1c0,0,0,0-0.1,0
						s-0.1,0-0.1,0c0.1-0.1,0.2-0.1,0.3-0.1c0.1,0,0.2,0,0.3-0.1l0,0l0,0c0.1,0,0.1-0.1,0.2-0.1s0.1-0.1,0.1-0.2
						c0.3-0.1,0.5-0.2,0.7-0.3s0.4-0.2,0.6-0.3s0.3-0.3,0.5-0.4c0.3-0.3,0.4-0.4,0.6-0.7c-0.1-0.2-0.1-0.3-0.2-0.4
						c-0.1-0.2-0.2-0.3-0.3-0.4c-0.1-0.2-0.3-0.3-0.3-0.3c-0.1-0.1-0.2-0.2-0.3-0.3c-0.2,0.2-0.3,0.3-0.4,0.4
						c-0.1,0.1-0.3,0.3-0.5,0.3c-0.4,0.3-0.9,0.6-1.4,0.9c-0.4,0.3-0.9,0.4-1.4,0.6c-0.4,0.2-0.9,0.3-1.5,0.3c-0.5,0.1-1,0.1-1.6,0
						l-0.8-0.2c0.1,0,0.1-0.1,0.2-0.1S2235.6,654.1,2235.7,654.1L2235.7,654.1z M2240.5,645.7c-0.2-0.1-0.3-0.2-0.5-0.1
						c-0.2,0-0.3,0-0.5,0l0.1-0.1h0.1c-0.1-0.1-0.1-0.1-0.2-0.1c-0.1,0-0.2,0-0.3,0s-0.2,0-0.3,0c-0.1,0-0.2-0.1-0.2-0.1
						c-0.1,0-0.2,0-0.3,0c-0.1,0-0.2-0.1-0.3-0.2c-0.1-0.1-0.2-0.2-0.3-0.2c-0.1-0.1-0.1-0.2-0.2-0.2c0,0,0.1,0,0-0.1c0,0,0,0,0-0.1
						c-0.1-0.2-0.2-0.4-0.3-0.7c-0.1-0.3-0.2-0.5-0.3-0.8c-0.1-0.3-0.2-0.5-0.3-0.8c-0.1-0.3-0.1-0.4-0.2-0.6c0-0.1,0-0.1,0-0.1
						c-0.1,0-0.1,0-0.1-0.1c0-0.1,0-0.1,0.1-0.2c0,0,0.1-0.1,0-0.2c-0.1,0-0.2-0.1-0.3-0.1c-0.2-0.2-0.3-0.3-0.5-0.3
						c-0.2-0.1-0.3-0.3-0.4-0.4c0,0,0-0.1,0-0.2c0,0,0-0.1-0.1-0.1v-0.1c0-0.1,0.1-0.1,0.1-0.2s0-0.2,0-0.3c0-0.1,0-0.2,0.1-0.2
						v-0.1c0,0,0-0.1-0.1-0.1c0.1-0.1,0.2-0.3,0.2-0.3s0.1-0.3,0.1-0.4c0-0.2,0.1-0.3,0.1-0.4c0.1-0.2,0.1-0.3,0.3-0.4
						c0.1,0,0.1,0,0.1,0h0.1c0.1-0.1,0.2-0.2,0.3-0.1c0.1,0,0.3,0.1,0.3,0.1l0.1,0.1c0.1,0,0.1,0,0.1,0v0.2c0.3,0.2,0.4,0.3,0.7,0.4
						c0.3,0.2,0.6,0.3,0.9,0.3c0.3,0.1,0.6,0.2,0.9,0.3c0.3,0.1,0.5,0.1,0.9,0.1c0.3,0,0.5,0,0.8,0c0.4,0,0.9-0.2,1.3-0.3
						c0.3-0.1,0.5-0.3,0.7-0.4h0.1h0.1h0.1c0,0,0-0.1,0.1-0.1c0,0,0.1,0.1,0.1,0c0-0.1,0.1,0,0.1,0.1c0,0.1-0.1,0.1-0.1,0.2
						c0.1,0.1,0.1,0.1,0.2,0.2c0.1,0.1,0.1,0.2,0.1,0.3c-0.1,0.2-0.1,0.3,0,0.3c-0.1,0.1-0.1,0.2,0,0.3h-0.1h-0.1
						c0.1,0.1,0.1,0.2,0.1,0.3c0,0.1,0,0.2,0.1,0.2v0.1l-0.1,0.1c0.1,0.1,0.1,0.2,0.1,0.2c0,0.1,0,0.2,0,0.2s0,0.1-0.1,0
						c-0.1-0.1-0.1,0-0.1,0c0,0.1,0,0.3,0.1,0.3c-0.1,0.1-0.1,0.1-0.1,0.2c0,0.1,0,0.2,0,0.2s0,0.1-0.1,0.1s-0.1,0.1-0.1,0.1
						c-0.2,0-0.3,0.1-0.4,0.2c-0.1,0.1-0.3,0.2-0.4,0.2c-0.6,0.2-1.2,0.3-1.8,0.4c-0.6,0-1.1,0-1.6-0.2c0.1,0.1,0.2,0.2,0.2,0.3
						c0.1,0.1,0.1,0.3,0.2,0.3c0.1,0.1,0.1,0.2,0.2,0.3s0.2,0.1,0.3,0.1c0.5,0.1,0.9,0.1,1.5,0.1c0.5,0,0.9-0.1,1.5-0.3
						c0.6-0.2,1.2-0.4,1.7-0.8c0.6-0.3,1.4-0.8,2.2-1.4c0.1-0.1,0.2-0.3,0.3-0.3c0.1-0.1,0.3-0.2,0.3-0.3c0.1,0,0.1,0,0.2-0.1
						c0.2,0,0.3,0.1,0.5,0.2c0.2,0.1,0.3,0.3,0.4,0.3c0.1,0.1,0.2,0.3,0.3,0.4c0.2,0.2,0.3,0.3,0.4,0.5s0.3,0.3,0.3,0.4
						c0.1,0.1,0.1,0.2,0.2,0.3c0,0.1,0,0.2,0,0.2c0,0.1,0.1,0.1,0.1,0.2c0,0.1,0,0.2,0,0.3c0,0.1,0,0.2,0,0.3
						c-0.1,0-0.1,0.1-0.1,0.1c0,0.2,0,0.3,0,0.3s0,0.3,0,0.3c-0.1,0.2-0.1,0.4-0.1,0.6c-0.1,0.1-0.1,0.2-0.2,0.3c0,0.1,0,0.3,0,0.3
						c-0.1,0.1-0.1,0.1-0.1,0.1c-0.1,0.6-0.3,1.1-0.7,1.6c-0.3,0.4-0.7,0.9-1.2,1.2c-0.4,0.2-0.8,0.4-1.2,0.6
						c-0.4,0.2-0.9,0.3-1.3,0.3c-0.5,0-0.9,0-1.4-0.1c-0.5-0.1-1-0.3-1.5-0.6c-0.1,0-0.1-0.1-0.1-0.1l-0.1-0.1l-0.1-0.3
						c0.1,0.1,0.2,0.1,0.3,0.2c0.1,0,0.2,0.1,0.3,0.2c-0.1-0.1-0.2-0.3-0.3-0.3c-0.1-0.1-0.3-0.2-0.3-0.3v-0.1c0,0,0,0,0.1,0
						c-0.1-0.1-0.1-0.1-0.1-0.2s0-0.1,0-0.1c0-0.1,0-0.2-0.1-0.2s-0.1-0.1-0.1-0.2c0.1,0,0.1,0.1,0.1,0.1c0,0.1,0.1,0.1,0.1,0.2
						c0.1,0,0.1,0,0.1-0.1c0-0.1,0-0.1,0.1-0.1c0,0,0.1,0,0.1,0.1l0.1,0.1c0,0,0-0.1-0.1-0.1s-0.1,0,0-0.1c0.1,0.1,0.1,0.1,0.1,0.1
						s0,0,0.1-0.1c0.1,0,0.2,0.1,0.3,0.2s0.2,0.1,0.3,0.1c0-0.1,0-0.1-0.1-0.1l0,0c-0.1,0-0.1,0-0.2-0.1c0.2,0.1,0.3,0.1,0.5,0.2
						c0.2,0.1,0.3,0.2,0.5,0.2c0,0,0,0,0-0.1c0-0.1,0-0.1,0-0.1c0.1,0,0.2,0,0.3,0s0.2,0,0.3,0c0-0.1-0.1-0.1-0.1-0.1
						c-0.1,0-0.1-0.1-0.1-0.1c0.1,0,0.3-0.1,0.3,0c0.1,0.1,0.3,0,0.3,0c0,0,0,0,0-0.1c0-0.1,0,0,0-0.1c0.1-0.1,0.3-0.1,0.4-0.1
						s0.3,0,0.4-0.1c0,0,0,0-0.1,0c-0.1,0-0.1,0-0.1,0c0.1-0.1,0.2-0.1,0.3-0.1s0.2,0,0.3-0.1l0,0l0,0c0.1,0,0.1-0.1,0.2-0.1
						c0.1,0,0.1-0.1,0.1-0.2c0.3-0.1,0.5-0.2,0.7-0.3c0.2-0.1,0.4-0.2,0.6-0.3c0.2-0.1,0.3-0.3,0.5-0.4c0.3-0.3,0.4-0.4,0.6-0.7
						c-0.1-0.2-0.1-0.3-0.2-0.4c-0.1-0.2-0.2-0.3-0.3-0.4c-0.1-0.2-0.3-0.3-0.3-0.3c-0.1-0.1-0.2-0.2-0.3-0.3
						c-0.2,0.2-0.3,0.3-0.4,0.4c-0.1,0.1-0.3,0.3-0.5,0.3c-0.4,0.3-0.9,0.6-1.4,0.9c-0.4,0.3-0.9,0.4-1.4,0.6
						c-0.4,0.2-0.9,0.3-1.5,0.3c-0.5,0.1-1,0.1-1.6,0l-0.8-0.2c0.1,0,0.1-0.1,0.2-0.1S2240.4,645.7,2240.5,645.7L2240.5,645.7z
						 M2252.4,639.7L2252.4,639.7c0.1,0,0.2,0,0.2,0.1c0,0.1,0,0.1-0.1,0.1c0,0.1,0,0.1,0,0.2c0,0.1,0,0.2,0.1,0.2l-0.1,0.1
						c0,0-0.1,0-0.1,0.1v0.1l-0.1,0.1v0.1c0,0,0,0.1,0.1,0.1h-0.1c0,0.1,0,0.2-0.1,0.3c-0.1,0-0.1,0-0.2,0c-0.1,0-0.1,0.1-0.2,0.1
						c0,0,0,0,0.1,0c0.1,0,0,0,0.1,0c-0.1,0-0.1,0-0.2,0c-0.1,0-0.1,0-0.2,0c-0.6-0.3-1.3-0.6-2-0.9c-0.7-0.3-1.4-0.7-2-1.1
						c-0.7-0.3-1.3-0.8-1.9-1.1c-0.6-0.3-1.2-0.8-1.7-1.1c-0.3-0.3-0.7-0.4-1-0.7c-0.3-0.3-0.6-0.4-0.9-0.7c0.1,0,0.2,0,0.3,0.1
						c0.1,0.1,0.2,0.1,0.2,0.1c-0.1-0.1-0.1-0.1-0.2-0.1c-0.1,0-0.1-0.1-0.2-0.1c0-0.1,0-0.1,0.1-0.2c0.1-0.1,0.1-0.1,0.1-0.2h0.2
						V635l-0.1-0.1c0,0,0,0,0.1,0c0.1,0,0,0,0,0c-0.1-0.1-0.1-0.2-0.1-0.3c0-0.1,0.1-0.3,0.2-0.3v-0.1c0,0,0,0,0-0.1
						c0.1-0.1,0.2-0.2,0.2-0.3c0-0.1,0.1-0.2,0.2-0.3c0-0.2,0.1-0.3,0.2-0.4c0.1-0.2,0.2-0.3,0.3-0.3c0.1,0,0.1,0,0.2,0
						c0.1,0,0.1,0,0.1,0h0.1c0,0,0,0,0.1,0.1c0.1,0,0.2,0,0.3,0s0.1,0.1,0.2,0.2c0.1,0.1,0.1,0.2,0.2,0.3c0.1,0.1,0.1,0.2,0.2,0.2
						c0,0.1,0,0.1,0,0.2h0.1h0.1c0.2,0.2,0.3,0.3,0.4,0.4c0.2,0.2,0.4,0.3,0.7,0.4c0.3,0.1,0.4,0.3,0.7,0.4c0.3,0.2,0.3,0.3,0.5,0.3
						c0.7,0.4,1.5,0.9,2.2,1.3c0.8,0.4,1.5,0.9,2.2,1.2c0.1,0,0.1,0,0.2,0c0.1,0.1,0.2,0.2,0.3,0.2c0.1,0,0.3,0.1,0.3,0.2
						c0.1,0,0.1,0,0.1,0l0,0c0.1,0,0.3,0.1,0.3,0.2c0.1,0.1,0.2,0.2,0.3,0.3l-0.1,0.1h-0.1c0.1,0.1,0.1,0.2,0,0.2
						c-0.1,0.1-0.1,0.1-0.2,0.2c0,0.1,0,0.1,0,0.2s0,0.2-0.1,0.2c0,0-0.1,0.1-0.1,0c0-0.1-0.1,0-0.1,0s0.1,0.1,0.1,0
						c0-0.1,0.1,0,0.1,0c-0.1,0-0.1,0.1-0.1,0.2C2252.4,639.6,2252.4,639.7,2252.4,639.7L2252.4,639.7z M2244.3,628.2
						c0.3,0.2,0.5,0.3,0.8,0.4s0.5,0.3,0.7,0.4c0.3,0.1,0.5,0.2,0.9,0.3c0.3,0.1,0.6,0.2,0.9,0.3c0.3,0.1,0.6,0.2,0.9,0.3
						c0.3,0.1,0.5,0.1,0.8,0.1c-0.1-0.4-0.2-0.9-0.3-1.3c-0.2-0.4-0.3-0.9-0.3-1.3c-0.1-0.2-0.1-0.4-0.1-0.6c0-0.3,0.1-0.4,0.2-0.7
						c0-0.2,0-0.3,0.1-0.6c0.1-0.2,0.2-0.3,0.2-0.6c0,0,0,0,0.1,0c0.1,0,0,0,0-0.1c0-0.1,0.1-0.2,0.1-0.3s0.1-0.3,0.1-0.3
						c0,0,0-0.1,0.1-0.1s0,0,0.1,0c0-0.1,0-0.2,0-0.2c0-0.1,0-0.2,0.1-0.3h0.1c0,0,0,0.1,0.1,0.1c0,0,0,0,0.1,0c0.1,0,0-0.1,0.1-0.1
						l0.1,0.1l0.1,0.1c0,0,0,0.1-0.1,0.2c0,0-0.1,0.1-0.1,0.2c0,0,0,0.1,0.1,0.1s0.1,0,0.1,0.1c0,0.5,0,1,0.1,1.5
						c0.1,0.5,0.3,1,0.4,1.5c0.2,0.5,0.3,0.9,0.6,1.5c0.3,0.5,0.4,0.9,0.7,1.5c1,0.2,2.1,0.2,3.3,0.2c1,0,2.1-0.1,3.2-0.2l0.1,0.1
						h0.1c0,0.2,0.1,0.3,0,0.4c-0.1,0.2,0,0.3,0.1,0.4c-0.1,0.2-0.1,0.3-0.1,0.4c0,0.2,0,0.3,0,0.4l-0.1,0.2c0.1,0.3,0,0.4-0.1,0.6
						v0.1h0.1c0,0.1,0,0.1-0.1,0.2s-0.1,0.1-0.1,0.1c-0.1,0-0.2,0.1-0.3,0.1c-0.1,0-0.2,0.1-0.3,0.2c-0.7,0-1.4,0.1-2.1,0.1
						s-1.4,0-2.1,0c0.1,0.2,0.2,0.3,0.3,0.4c0.1,0.2,0.2,0.3,0.3,0.4s0.2,0.3,0.3,0.4c0.1,0.2,0.3,0.3,0.4,0.3c0,0.1,0,0.1,0,0.2
						c0,0.1,0,0.1-0.1,0.2l0.1,0.1c0,0,0.1,0,0.1,0.1s-0.1,0.3-0.1,0.3s0,0.2,0.1,0.3c-0.1,0.1-0.1,0.3-0.1,0.4
						c0.1,0.1,0.1,0.3,0,0.4c-0.1,0-0.1,0.1-0.1,0.2s0,0.1,0,0.2s0,0.1,0,0.2c0,0.1,0,0.2-0.1,0.2l0.1,0.1c0,0,0.1,0,0.1,0.1
						c-0.1,0.1-0.2,0.2-0.3,0.2c-0.1,0.1-0.2,0.2-0.3,0.2s-0.3,0-0.3,0c-0.2-0.1-0.3-0.2-0.3-0.3c-0.1-0.2-0.2-0.3-0.3-0.5
						c-0.2-0.3-0.3-0.6-0.5-0.9s-0.3-0.6-0.5-0.9v-0.1v-0.1c0,0,0-0.1-0.1-0.1c0,0,0,0-0.1,0c-0.1-0.1-0.1-0.1-0.1-0.2
						c0-0.1,0-0.1-0.1-0.2V635v-0.1l0,0c0,0,0,0,0,0.1c-0.1,0-0.1-0.1-0.2-0.2c0-0.1,0-0.2,0-0.3h-0.1h-0.1
						c-0.1-0.2-0.2-0.3-0.3-0.5s-0.2-0.3-0.2-0.5c-0.3-0.1-0.5-0.2-0.7-0.2c-0.3,0-0.5-0.1-0.8-0.1c-0.1,0-0.2-0.1-0.3-0.1
						c-0.1-0.1-0.2-0.1-0.3,0c-0.3-0.1-0.5-0.2-0.9-0.2c-0.3-0.1-0.4-0.1-0.7-0.2c-0.2-0.1-0.4-0.1-0.6-0.2
						c-0.3-0.1-0.4-0.2-0.7-0.3c-0.3-0.1-0.5-0.2-0.8-0.3c-0.3-0.1-0.5-0.3-0.8-0.3c-0.3-0.2-0.4-0.3-0.6-0.5c0-0.1,0-0.1,0-0.2
						c0,0,0-0.1,0-0.2c-0.1-0.1-0.1-0.2-0.1-0.3c0-0.1,0-0.3-0.1-0.3c0.1-0.2,0.1-0.3,0.2-0.4c0.1-0.2,0.1-0.3,0.1-0.5
						s0-0.3,0.1-0.6c0-0.3,0.1-0.4,0.2-0.6c0.1,0,0.1,0,0.1,0C2244.1,628.2,2244.2,628.2,2244.3,628.2L2244.3,628.2z M2253.8,622.7
						C2253.9,622.7,2253.9,622.6,2253.8,622.7c0-0.2,0-0.2,0-0.2C2253.9,622.5,2253.9,622.5,2253.8,622.7h0.2c0,0,0.1,0,0.1,0.1
						c0,0.1,0,0,0,0.1c0,0-0.1,0-0.1-0.1L2253.8,622.7c0.1,0.2,0.1,0.2,0.2,0.2c0.1,0,0.2,0.1,0.2,0.2l0.3,0.2
						c0.1,0,0.1,0.1,0.2,0.1c0,0,0.1,0.1,0.1,0.2c0.5,0.4,1,0.8,1.5,1.1c0.5,0.3,0.9,0.5,1.3,0.7c0,0,0,0,0,0.1c0,0,0,0.1,0.1,0.1
						v0.1c0,0,0,0.1-0.1,0.1c0.1,0,0.1,0.1,0.1,0.2s0,0.1,0,0.2c0,0,0,0-0.1,0c0,0.1,0.1,0.2,0.1,0.3l0,0v0.1l0.1,0.2l-0.3-0.2
						c0,0,0,0.1,0.1,0.1c0,0,0,0,0,0.1c0,0,0,0.1,0,0.2c0,0.1-0.1,0.2-0.1,0.3s-0.1,0.3-0.2,0.3c0,0.1-0.1,0.2-0.2,0.2l0.1,0.2l0,0
						c0,0,0,0-0.1,0c0,0,0,0,0,0.1c-0.1,0-0.2,0-0.2,0.1l0.1,0.1c0,0,0,0.1-0.1,0.1v0.1l-0.3-0.2c-0.1,0.1-0.3,0-0.6-0.2
						c-0.3-0.2-0.7-0.4-1.1-0.7c-0.4-0.3-0.9-0.6-1.5-0.9c-0.5-0.3-1-0.7-1.5-1c-0.4-0.3-0.9-0.7-1.2-0.9c-0.3-0.3-0.6-0.4-0.8-0.6
						c-0.3-0.3-0.4-0.4-0.6-0.6c-0.2-0.2-0.3-0.3-0.4-0.4c-0.1-0.2-0.2-0.3-0.1-0.3l0.1-0.2c0,0,0.1-0.1,0.1-0.2c0,0,0-0.1,0-0.2
						s0.1-0.2,0.1-0.3c0-0.2,0.1-0.3,0.2-0.3s0.1-0.2,0.1-0.2c0.1-0.1,0.2-0.2,0.3-0.3c0.1-0.1,0.1-0.2,0.1-0.3c0,0,0.1-0.1,0.1,0
						c0,0.1,0.1,0,0.1,0v-0.1c0,0,0,0,0-0.1l0,0h0.1c0-0.2,0.1-0.3,0.3-0.4c0.1-0.2,0.3-0.2,0.4-0.1c0.1,0,0.1,0.1,0.2,0.2
						c0.2,0.2,0.3,0.4,0.7,0.7c0.3,0.3,0.6,0.6,0.9,0.9c0.3,0.3,0.6,0.6,0.9,0.9c0.3,0.2,0.4,0.3,0.7,0.5l0.1,0.1
						C2253.8,622.6,2253.8,622.6,2253.8,622.7L2253.8,622.7z M2257.8,628.4c0-0.1,0-0.1,0.1-0.2s0.1-0.1,0.1-0.2
						c0-0.1,0.1-0.2,0.1-0.2c0-0.1,0-0.2,0-0.3c0.1-0.1,0.1-0.2,0.2-0.3c0-0.1,0.1-0.3,0.1-0.3c0-0.1,0.1-0.2,0.1-0.3
						c0.1-0.1,0.1-0.2,0.2-0.3c-0.1-0.1-0.1-0.2,0-0.2c0.1,0,0.1-0.1,0.1-0.1c0.1,0,0.3,0.1,0.3,0.2l0.3,0.2
						c0.1,0.1,0.2,0.1,0.3,0.2c0.1,0.1,0.3,0.1,0.4,0.1c0.3,0,0.4,0,0.5,0c0.2,0,0.3,0.1,0.5,0.2c0.1,0,0.1,0.1,0.1,0.2
						s0.1,0.1,0.1,0v0.1h-0.1h-0.1c0,0-0.1,0-0.1,0.1c0,0.1-0.1,0.2-0.1,0.3c-0.1,0.1-0.1,0.2-0.2,0.3c0,0.2-0.1,0.3-0.2,0.5
						c-0.1,0.2-0.2,0.3-0.2,0.5c0,0.1,0,0.2-0.1,0.3c0,0.1-0.1,0.2-0.1,0.3c-0.3,0-0.4,0-0.7,0c-0.2,0-0.3-0.1-0.5-0.2
						s-0.3-0.2-0.5-0.3c-0.2-0.1-0.4-0.3-0.7-0.3L2257.8,628.4L2257.8,628.4z M2489,597.9l-8.8-4.7c-1.6-0.9-3.5-0.9-5.2-0.3
						c-4,1.5-2.1,3.7-2.1,3.8c1.5,3.3-0.3-0.3,5.7,3.2c2.1,1.2,4.3,2.1,6.3,3.2c-3.8,5.6-5.1,2.9-5.1,7.6c6.5,4.4,11-4.6,11.5-6.3
						c2.2,0.2,5.1,2,5.1-1.3c0-1.9-0.8-1.7-2.6-1.9c1.1-4.7,5.1-7.8,3.8-13.4c-2,0.2-1.6-0.5-5.1,4.5L2489,597.9z M2173.3,800.2
						c-0.2-0.1-8.9-6.9-8.9-0.6c0,2.1-0.3,1.8,0.9,2.8l4.1,3.5c-2.7,4-6.6,7.6-6.7,9.1c-0.3,4.4,9.1,2.4,11.2-5.2
						c3.2,0.3,3.1,1.3,7,1.3c0.1-0.6,0-1.2-0.2-1.7l-1-1.5c-5-7.1,1.3-3.9-0.7-12.7C2175.9,795.4,2175.5,796.9,2173.3,800.2
						L2173.3,800.2z"/>
				</g>
				<g id="Estrellas" transform="translate(82.879 461.704) rotate(-107)">
					<path id="Trazado_12" class="st3" d="M-420.7,102.9l-8.4-4.5c-1.5-0.8-3.3-0.9-5-0.3c-3.9,1.5-2,3.6-2,3.6
						c1.5,3.1-0.2-0.3,5.6,3.1c2,1.1,4.1,2.1,6.2,3.1c-3.6,5.4-4.9,2.8-4.9,7.4c6.3,4.2,10.6-4.5,11.1-6.2c2.1,0.2,4.9,1.9,4.9-1.2
						c0-1.9-0.7-1.7-2.5-1.9c1-4.5,5-7.6,3.7-13c-1.9,0.2-1.6-0.5-5,4.3L-420.7,102.9L-420.7,102.9z"/>
					<path id="Trazado_13" class="st3" d="M-529.4-291.1c-4.3-1-15.4-6.8-13,3.7c3.9,0.9,9.3,2.5,9.3,2.5s-5.6,6.5-5.6,12.4l1.9,1.2
						c0.7-0.1,1.3-0.3,2-0.5c1.7-0.8,2.7-2.7,3.7-4.3c1.5-2.3,2.3-4.6,3.6-6.9c1.9,0.2,2.1,0.7,4,0.4c1.5-0.3,3-0.4,4.5-0.4
						c-0.7-2.5-4.5-4.4-6.8-5.6l1.9-9.3L-529.4-291.1L-529.4-291.1z"/>
					<path id="Trazado_14" class="st3" d="M-381.4-173.7c-0.2-0.1-8.6-6.6-8.6-0.6c0,2.1-0.3,1.7,0.9,2.7l4,3.4
						c-2.6,3.9-6.3,7.3-6.4,8.8c-0.3,4.3,8.8,2.3,10.8-5.1c3.1,0.3,3,1.2,6.8,1.2c0.1-0.6,0-1.1-0.2-1.7l-1-1.5
						c-4.8-6.9,1.3-3.9-0.7-12.3C-379-178.3-379.3-176.9-381.4-173.7L-381.4-173.7z"/>
					<path id="Trazado_15" class="st3" d="M-320.2,177.8c-3-0.8-2.8-3.1-5.6-3.1c-2.9,0-4.3,3.9,1.8,8c-3.6,6.8-6.2,4.6-3.1,9.3
						c3.5,0,4.3-1.9,6.8-5.6c3.3,0.8,2.7,2,6.2,1.2c-0.1-3.3-0.8-3.5-3.1-6.2c3.2-4.8,2.6-5.4,1.2-8
						C-318.2,174-319.4,174.8-320.2,177.8z"/>
					<path id="Trazado_16" class="st3" d="M-361,75c0,6.4,11.7,8.7,11.7-0.6c0-3.7-6.9-5.4-9.7-2.9C-359.8,72.5-360.5,73.7-361,75
						L-361,75z"/>
					<path id="Trazado_17" class="st3" d="M-557.2-360.1c0,3.8,4.8,3.7,4.9,3.7c2.1-1.1,6.2-3.9,6.2-6.8
						C-546.2-371-557.2-367-557.2-360.1z"/>
					<path id="Trazado_18" class="st3" d="M-473-188.6c2.1,8.8,9.9,5.9,9.9,0.6c0-4.9-3.9-4.3-7.4-4.3
						C-471.4-191.2-472.2-190-473-188.6z"/>
					<path id="Trazado_19" class="st3" d="M-463.6,163.7c0.1,0.1,0.3,0.2,0.3,0.3c0.9,4,8.2-1.2,9.6-2.2v-4.3
						C-458.9,154.8-463.1,157.8-463.6,163.7z"/>
					<path id="Trazado_20" class="st3" d="M-378.3-69c0,1.6,0.4,0.6,0.6,3.1c5.3,1.3,8-1.2,8-4.3c0-3.3-1.5-3.2-3.7-4.3
						c-1.7,0.8-1.9,0.3-3.3,1.6C-377.6-71.8-378.1-70.5-378.3-69L-378.3-69z"/>
					<path id="Trazado_21" class="st3" d="M-445.9-159.2l0.2-0.2C-445.7-159.4-446-159.3-445.9-159.2z"/>
				</g>
				<g id="Estrellas_1_" transform="translate(82.879 461.704) rotate(-107)">
					<path id="Trazado_12_1_" class="st3" d="M-430.1,615l-8.4-4.5c-1.5-0.9-3.3-0.9-5-0.3c-3.9,1.5-2,3.6-2,3.6
						c1.5,3.1-0.2-0.3,5.6,3.1c2,1.1,4.1,2.1,6.2,3.1c-3.6,5.4-4.9,2.8-4.9,7.4c6.3,4.2,10.6-4.5,11.1-6.2c2.1,0.2,4.9,1.9,4.9-1.2
						c0-1.9-0.7-1.7-2.5-1.9c1-4.5,5-7.6,3.7-13c-1.9,0.2-1.6-0.4-5,4.3L-430.1,615L-430.1,615z"/>
					<path id="Trazado_13_1_" class="st3" d="M-538.9,221c-4.3-1-15.4-6.8-13,3.7c3.9,0.9,9.3,2.5,9.3,2.5s-5.6,6.5-5.6,12.4
						l1.9,1.2c0.7-0.1,1.3-0.3,2-0.5c1.7-0.8,2.7-2.7,3.7-4.3c1.5-2.3,2.3-4.6,3.6-6.9c1.9,0.2,2.1,0.7,4,0.4c1.5-0.3,3-0.4,4.5-0.4
						c-0.7-2.5-4.5-4.4-6.8-5.6l1.9-9.3L-538.9,221L-538.9,221z"/>
					<path id="Trazado_14_1_" class="st3" d="M-390.9,338.5c-0.2-0.1-8.6-6.6-8.6-0.6c0,2.1-0.3,1.7,0.9,2.7l4,3.4
						c-2.6,3.9-6.3,7.3-6.4,8.8c-0.3,4.3,8.8,2.3,10.8-5.1c3.1,0.3,3,1.2,6.8,1.2c0.1-0.6,0-1.1-0.2-1.7l-1-1.5
						c-4.8-6.9,1.3-3.9-0.7-12.3C-388.3,333.7-388.7,335.2-390.9,338.5L-390.9,338.5z"/>
					<path id="Trazado_15_1_" class="st3" d="M-329.6,689.9c-3-0.9-2.8-3.1-5.6-3.1c-2.9,0-4.3,3.9,1.8,8c-3.6,6.8-6.2,4.6-3.1,9.3
						c3.5,0,4.3-1.9,6.8-5.6c3.3,0.8,2.7,2,6.2,1.2c-0.1-3.3-0.8-3.5-3.1-6.2c3.2-4.7,2.6-5.4,1.2-8
						C-327.6,686.1-328.8,687-329.6,689.9z"/>
					<path id="Trazado_16_1_" class="st3" d="M-370.5,587c0,6.4,11.7,8.7,11.7-0.6c0-3.7-6.9-5.4-9.7-2.9
						C-369.3,584.6-369.9,585.8-370.5,587L-370.5,587z"/>
					<path id="Trazado_17_1_" class="st3" d="M-566.7,152c0,3.8,4.8,3.7,4.9,3.7c2.1-1.1,6.2-3.9,6.2-6.8
						C-555.5,141.1-566.7,145.1-566.7,152z"/>
					<path id="Trazado_18_1_" class="st3" d="M-482.4,323.4c2.1,8.8,9.9,5.9,9.9,0.6c0-4.9-3.9-4.3-7.4-4.3
						C-480.9,321-481.7,322.2-482.4,323.4z"/>
					<path id="Trazado_19_1_" class="st3" d="M-473.1,675.7c0.1,0.1,0.3,0.2,0.3,0.3c0.9,4,8.2-1.2,9.6-2.1v-4.3
						C-468.4,666.9-472.6,669.9-473.1,675.7z"/>
					<path id="Trazado_20_1_" class="st3" d="M-387.7,443c0,1.6,0.4,0.6,0.6,3.1c5.3,1.3,8-1.3,8-4.3c0-3.3-1.5-3.2-3.7-4.3
						c-1.7,0.8-1.9,0.3-3.3,1.6C-387,440.3-387.5,441.7-387.7,443L-387.7,443z"/>
					<path id="Trazado_21_1_" class="st3" d="M-455.3,353l0.2-0.2C-455.1,352.8-455.4,352.9-455.3,353z"/>
				</g>
			</g>
		</g>
	</g>
</g>
</svg>
