<?xml version="1.0" encoding="utf-8"?>
<!-- Generator: Adobe Illustrator 24.2.3, SVG Export Plug-In . SVG Version: 6.00 Build 0)  -->
<svg version="1.1" id="Capa_1" xmlns:xodm="http://www.corel.com/coreldraw/odm/2003"
	 xmlns="http://www.w3.org/2000/svg" xmlns:xlink="http://www.w3.org/1999/xlink" x="0px" y="0px" viewBox="0 0 1190.6 841.9"
	 style="enable-background:new 0 0 1190.6 841.9;" xml:space="preserve">
<style type="text/css">
	.st0{fill-rule:evenodd;clip-rule:evenodd;fill:#E3E3E3;}
</style>
<g id="Capa_x0020_1">
	<path class="st0" d="M488.1,775.3c201.2,0,364.3-163.1,364.3-364.3S689.3,46.7,488.1,46.7S123.8,209.8,123.8,411
		S286.9,775.3,488.1,775.3L488.1,775.3z M387.6,203l0.8-0.2L387.6,203c-4.5,0.4-36.1,14-42.1,16.6l-7.4,3.5c-1.3,0.6-2.3,1-3.7,1.6
		c-5.8,2.4-6.5,1.8-6.5,4.4c2.8,0.7,5.7-0.7,8.3-1.6c6.2-2.2,24.1-9.7,30.3-12.9l7.4-3.6c2.4-1.3,4.7-2.6,7.1-3.9
		C382,206.6,387,203.7,387.6,203L387.6,203z M283.6,252.1h0.4l-0.3-0.4L283.6,252.1z M171.4,356.5c2.7,2.7,6.2,5.3,7.8,6.4
		c1.9,1.2,5.3,2.9,7.7,3.7l3.5,0.7l0.1,0.4v0c0,0.3,0.1,0.7,0.2,1c0.1,0.3,0.1,0.7,0.2,1v0c0.1,0.3,0.1,0.7,0.2,1
		c0.1,0.3,0.1,0.7,0.2,1c0.1,0.3,0.1,0.7,0.2,1v0c0.1,0.3,0.1,0.7,0.2,1c0.1,0.3,0.1,0.7,0.2,1c0.1,0.3,0.1,0.7,0.2,1
		c0.1,0.3,0.1,0.6,0.2,1v0c0.1,0.3,0.1,0.6,0.2,1l0.2,1c0.1,0.3,0.2,0.6,0.2,1v0l0.2,1v0l0.2,1v0l0.2,1v0l0.2,1l0.3,0.9l0.3,0.9
		l0.3,0.9l0.3,0.9l0.3,0.9l0.3,0.9l0.3,0.9v0l0.3,0.9l0.3,0.9c0.3,1.1,0.6,2.2,0.9,3.2c-1.8-0.9-3.5-1.7-5.3-2.8
		c-3.2-1.9-5.7-3.6-8.5-6c-0.1,0-0.1-0.1-0.2-0.2c-5.8-4.9-9.6-11.6-12.3-16.5l0.1-0.5c0-0.4,0.1-0.8,0.1-1.2h0
		c0-0.4,0.1-0.8,0.1-1.2c0-0.4,0.1-0.8,0.1-1.2h0c0-0.4,0.1-0.8,0.1-1.2h0c0-0.4,0.1-0.8,0.1-1.2c0-0.4,0-0.8,0.1-1.2
		c0-0.4,0-0.8,0-1.2h0c0-0.4,0-0.8,0-1.2h0c0-0.4,0-0.8,0-1.2c0-0.4,0-0.8,0-1.2L171.4,356.5L171.4,356.5z M190,363.7
		c-0.1-0.1-0.3-0.1-0.4-0.2c-5.6-2.8-9-3.6-14-8.6c-1.1-1.1-2.8-3.2-4.3-4.5c0-0.4-0.1-0.8-0.1-1.2c0-0.4-0.1-0.8-0.1-1.2h0
		c0-0.4-0.1-0.8-0.1-1.2c0-0.4-0.1-0.8-0.1-1.2h0c-0.1-0.4-0.1-0.8-0.2-1.2h0c-0.1-0.4-0.1-0.8-0.2-1.2h0c-0.1-0.4-0.1-0.8-0.2-1.2
		c-0.1-0.4-0.1-0.8-0.2-1.2h0c-0.1-0.4-0.2-0.8-0.2-1.2h0c-0.1-0.4-0.2-0.8-0.3-1.2h0c-0.1-0.4-0.2-0.8-0.3-1.2
		c-0.1-0.4-0.2-0.8-0.3-1.2h0c-0.1-0.4-0.2-0.8-0.3-1.2h0c-0.1-0.4-0.2-0.8-0.4-1.2h0c-0.1-0.4-0.3-0.8-0.4-1.2
		c-0.1-0.4-0.3-0.8-0.4-1.2c-0.1-0.4-0.3-0.8-0.4-1.2h0c-0.1-0.4-0.3-0.8-0.5-1.2h0c-0.2-0.4-0.3-0.8-0.5-1.2h0
		c-0.2-0.4-0.3-0.8-0.5-1.2h0c-0.2-0.4-0.4-0.8-0.5-1.2c-0.2-0.4-0.4-0.8-0.6-1.2c-0.2-0.4-0.4-0.8-0.6-1.2
		c-0.2-0.4-0.4-0.8-0.6-1.2c-0.4-0.9-0.7-2.1-0.7-3.7c0-1.8,0.3-3.8,0.9-5.9c2.2,3.9,5.3,8,6.1,8.9c1,1,1.3,1.4,2.2,2.4
		c0.8,1,1.5,1.2,2.5,2.1c3.8,3.8,10.9,8.4,17.5,11.2l-0.1,0.6c-0.1,0.4-0.2,0.8-0.3,1.2c-0.1,0.4-0.2,0.8-0.2,1.2
		c-0.1,0.4-0.2,0.8-0.2,1.2c-0.1,0.4-0.1,0.8-0.2,1.2c-0.1,0.4-0.1,0.8-0.2,1.2c-0.1,0.4-0.1,0.8-0.2,1.2c-0.1,0.4-0.1,0.8-0.1,1.2
		c0,0.4-0.1,0.8-0.1,1.2c0,0.4-0.1,0.8-0.1,1.1v0c0,0.4-0.1,0.8-0.1,1.1c0,0.4-0.1,0.8-0.1,1.1c0,0.4,0,0.7-0.1,1.1
		c0,0.4,0,0.7,0,1.1c0,0.4,0,0.7,0,1.1c0,0.4,0,0.7,0,1.1c0,0.4,0,0.7,0,1.1v0c0,0.4,0,0.7,0,1.1v0c0,0.4,0,0.7,0,1.1v0
		c0,0.4,0,0.7,0,1.1c0,0.4,0,0.7,0.1,1.1c0,0.4,0,0.7,0.1,1.1c0,0.3,0,0.7,0.1,1c0,0.3,0.1,0.7,0.1,1c0,0.3,0.1,0.7,0.1,1v0
		L190,363.7L190,363.7z M412.4,284.3c1.1,0.8,1,0.8,2.6,0.1c8.2-3.6,18.4-13.5,25.4-18.9c0.8-0.6,1.6-1.2,2.5-1.8
		c0.2,0.9,0.4,1.9,0.6,2.8c0,0.2,0.1,0.3,0.1,0.5c0.1,0.4,0.2,0.9,0.2,1.5c0.1,0.9,0.1,1.8,0,2.7c-0.1,3.1-0.9,6-2.2,8.5
		c-1.2,2.5-3,4.6-5,6.2c-0.1,0.1-0.2,0.1-0.3,0.2C381,330,319.4,367.4,257.1,405.4c-15.9,9.7-31.8,19.4-47.8,29.2
		c0.4-1.5,0.7-3,0.9-4.6c0.1-0.5,0.2-1.1,0.2-1.7c0.4-0.2,1-0.3,1.8-0.5c1.4-0.5,1.8-0.7,2.8-1.4c5.6-3.8,7.3-5.6,11.9-9.3
		c0.9-0.7,1.3-1.3,2.2-2.1c1-0.8,1.3-1,2.3-2c0.8-0.8,1.3-1.3,2.1-2.1l6.5-6.2c2.1-1.6,4.8-5.1,8.8-8.2c0.8-0.6,1.5-1.1,2.4-1.8
		c3.1-2.6,11.4-8.2,14.9-10.5l10.4-6.6c3.5-2.3,6.9-4.3,10.4-6.6c5.3-3.4,8-4.9,13.5-7.7l14.4-6.9c6.2-3,10.8-4.7,17.2-8.3
		l18.9-10.8c5.5-3.3,15.3-9.7,19.3-14.7c0.6-0.8,1.2-1.7,1.7-2.5c-4.2,1-15.5,9.6-21,12.9l-21.6,12.4c-4.5,2.7-17.4,8.2-23,11
		c-3.9,2-7.6,3.5-11.4,5.5c-8,4.3-13.4,8.5-21,13l-10.2,6.8c-3.5,2.3-16.3,11.1-19.6,14.3c-0.8,0.8-1.3,1.4-2.1,2.1l-10.8,10.5
		c-0.8,0.8-1.3,1.3-2.1,2.1l-4.4,4.1c-5.7,5.2-8.8,7.2-14,10.7l0-0.5c0.1-1.4,0-2.7-0.1-3.9l0,0c-0.5-7.6-1.9-14.5-3.6-21.3
		c0.2-0.1,0.4-0.2,0.6-0.3c1.5-0.8,2-1.1,3.4-1.9l13.9-8.1c6.8-4.1,6.4-4.6,13.5-8.1c2.4-1.2,4.7-2.5,7-4l7-3.9
		c2.6-1.3,4.7-2.5,7.2-3.8c4.8-2.4,9.7-4.7,14.5-7.1l13.7-8.2c10.2-6.5,12.7-8.9,21.7-16.2c5.4-4.4,8.1-8.3,13.5-13.8l5.8-5.1
		c3.4-3.2,2.4-2.2,6.2-4.7c10.5-6.8,8-6.2,20.7-11.8c11-4.8,18.4-7.9,28.1-15.4c2.3-1.8,9.8-8.8,9.6-12.1
		c-0.3-6.6-10.9-2.7-14.8-0.8c-1.4,0.7-6.4,3.1-6.4,4.6c0,2.7,3.6,0.7,4.7,0.1c0.7-0.4,1-0.6,1.6-0.9c0.6-0.3,1-0.5,1.7-0.8
		c2.8-1.3,4.7-2.4,8.3-2.4c3.8,0-7.2,9.2-7.5,9.4c-3.4,2.9-10.7,7.3-14.9,9.2l-10,4.5c-9.4,4-10.7,4.5-19,10l-5.7,3.8
		c-1.8,1.2-3.9,2.8-5.4,4.2l-2.2,2c-0.1,0-0.1,0.1-0.2,0.2c-7.6,6.5-8.6,9.1-14.5,14.8l-8.1,6.8c-3.8,2.9-6.9,5.5-10.9,8.2
		c-8.9,5.9-18,11.3-27.8,15.7l-9.8,5c-1.1,0.6-2,1.1-3,1.6l-9.2,5.3c-3.9,2.2-2.5,0.3-6.2,3.4c-1.8,1.5-4,2.6-6,3.9l-15,9
		c-4.3,2.3-4.6,2.6-6.9,4.3c-0.6-2.4-1.3-4.7-2-7.1c-4.2-15-8.5-30-4.9-48.9c8.1,2.7,35.4-1.2,40.7-2c15.8-2.4,29.1-7.5,43.3-14.4
		c1-0.5,1.9-1,3.1-1.5l29.7-14.9c5.8-2.9,18.7-11,24.7-15c6.6-4.4,12-7.7,18.8-12.7l20.9-14.5c7.5-4.6,31.1-16.6,35.2-2.3
		c0.8,2.8-1.1,9-3.1,11.8c-3.7,5.1-9.6,8.9-14.3,12.6c-0.9,0.7-1.2,1-2.2,1.7l-8.8,6.4c-4,3-12.4,7.9-16.9,10.4
		c-4,2.2-8.3,3.4-11,8.5c10.6,0,27.8-13.4,35.7-19.5c11.3-8.6,24.8-16.3,24.8-30.8c0-5.4-5.6-11.7-13.1-11.7
		c-15.2,0-26.9,8.5-37.4,15.7c-1.9,1.3-3.4,2.3-5.2,3.6c-1,0.7-1.8,1.2-2.7,1.9L337.7,290c-15.3,10.3-23.8,14.3-40,22.3l-11.8,5.9
		c-1.2,0.6-1.6,0.8-2.9,1.4c-1.2,0.5-2,1-3.1,1.5c-13.1,6.5-25.7,11-40.4,13.4c-10.1,1.7-20.9,3.2-32.5,3.2c-2.9,0-4.4,0-5.8-1.3
		c-0.7-0.7-0.5-0.5-1-0.8c0.8-3.3,1.9-6.8,3.3-10.3l0,0c0.4-1.1,0.7-2.4,0.8-3.7c0.3-2.4,0.4-5.5,0.4-6.1c0-5.1-0.9-9.8-2.6-13.8
		c9.3,1,22.5-5.2,29-8.4c1.4-0.7,2.7-1.1,4.1-1.9c1.5-0.7,2.7-1.3,4-2l12-6.1c1.3-0.6,2.5-1.4,3.9-2.1l11.9-6.1
		c1.5-0.8,2.3-1.4,3.9-2.1c1.6-0.8,2.4-1.4,3.9-2.1c1.4-0.7,2.5-1.3,3.9-2.2l31.5-16.7c6.1-3.3,25.9-13.5,31.8-16
		c9.4-4.1,15.3-7,25.5-10.6c3.1-1.1,5.6-2.1,8.8-3.2c1.6-0.5,3-1,4.5-1.6c5.8-2.1,15.8-4.9,22.8-7.2c7.2-2.4,15.9-6.6,24.8-11.5
		c-1,5.5-1.3,10.5-1.1,15c-5.2,1.3-9.5,2.4-10.5,2.6c-17.7,5-24.8,7.8-39.7,15.1l-16.2,8.6c-1.1,0.6-2.1,1.1-3.3,1.7
		c-1.3,0.7-1.9,1.1-3.2,1.8c-8.3,4.5-17.2,9.8-25.3,14.7l-24.8,14.8c-2.1,1.2-4.1,2.3-6.3,3.6l-25.3,14.7c-2.1,1.2-4.2,2.4-6.4,3.6
		c-10.2,5.3-15,8.6-27.4,12.2c-2.2,0.6-6.2,1.6-8.6,1.6c-1,0-7.1,0.4-7.1-1.4c0-4.4,7-9.9,10.6-12c1.7-1,3.3-1.8,5.2-2.5
		c4.1-1.7,12.6-4.9,17.4-5.2l5.6-0.1c1.5-0.4,0.8-0.2,1.1-1c0,0,1.1-0.9-0.9-1.9c-6-2.9-23.3,4.1-27.5,6.1c-3.5,1.6-6.6,3.8-9.2,6.4
		c-2.9,2.9-9.7,10.4-3.5,14.3c5.4,3.3,19.5-1.1,23.4-2.4l10.6-4.3c8.7-4.4,14.4-7.3,22.9-12.5c12.4-7.5,25.8-14.6,38.3-22.2
		c2.2-1.3,4.2-2.5,6.4-3.8l38.5-22.4l26.7-13.7c4.9-2,9.5-3.8,14.6-5.6l11.4-3.4c3.1-0.7,7.8-1.8,12.6-3.1c0.3,2.6,0.9,5.2,1.5,7.6
		c-7.4,2.5-22,8-27.6,10.8l-13.4,6.4c-2.2,1.2-5.5,2.3-6,4.2c3.9,0,11-3.7,14.6-5.2c2.4-1,4.4-2.2,6.8-3.1l14.4-5.8
		c2.2-0.9,7.4-2.7,12.1-4.7c1.7,5.5,4,10.5,6.2,15.5c2,4.5,4.1,9.1,5.6,13.9c-4.4,2.7-8.7,7.1-12,9.8c-2.9,2.4-5.7,4.7-8.7,6.9
		C418.4,279.4,414.3,281.5,412.4,284.3L412.4,284.3z M171,298c0.8,1.7,2.1,3.3,3.3,5c0.8,1,2.2,2.4,3.2,3.2c3.8,3,8.1,5.5,13,6.8
		c2.6,0.7,4.2,0.9,5.8,0.9l0,0.1l0,0.3l0,0.3l0,0.3l0,0.3l0,0.3c0,0.6-0.1,3.3-0.3,5.3l0,0l0,0l0,0l0,0l0,0l0,0l0,0l0,0l0,0l0,0l0,0
		l0,0l0,0h0l0,0l0,0l0,0l0,0h0l0,0l0,0l0,0l0,0h0l0,0l0,0l0,0h0l0,0l0,0l0,0h0l0,0h0l0,0l0,0h0h0l0,0h0l0,0l0,0h0l0,0l0,0l0,0h0l0,0
		h0l0,0h0l0,0h0l0,0l0,0l0,0h0h0h0h0l0,0h0l0,0h0l0,0l0,0l0,0h0l0,0l0,0l0,0l0,0v0l0,0l0,0l0,0l0,0l0,0l0,0l0,0
		c-0.4,0.3-0.7,0.8-0.8,1.3c-0.2,0.5-0.3,0.9-0.5,1.4c-0.2,0.4-0.3,0.9-0.5,1.3c-0.2,0.4-0.3,0.9-0.5,1.3c-0.1,0.4-0.3,0.9-0.4,1.3
		c-0.1,0.4-0.3,0.9-0.4,1.3c-0.1,0.4-0.3,0.9-0.4,1.3c-0.1,0.4-0.2,0.9-0.4,1.3l0,0.1c-3.5-1.7-7.1-3.3-11.9-6.9
		c-3.9-2.9-7-6-10.1-9.7l-5.8-8.1c0.3-0.7,0.7-1.4,1-2.1C167.4,302.2,169.1,299.9,171,298L171,298z M196,310.3
		c-5.7-2-13.9-4.5-19.2-11.2c-1-1.3-1.6-2.3-2.4-3.6c0.2-0.1,0.3-0.2,0.5-0.3c1.5-0.8,3.2-1.2,4.9-1.2c4.6,0,8.7,2.1,11.7,5.8
		l0.1,0.2l0.1,0.2l0.1,0.2l0.1,0.2l0.1,0.2l0.1,0.2h0l0.1,0.2h0l0.1,0.2l0.1,0.2l0.1,0.2l0.1,0.2l0.1,0.2h0l0.1,0.2l0.1,0.2l0.1,0.2
		l0.1,0.2l0.1,0.2h0l0.1,0.2l0.1,0.2h0l0.1,0.2l0.1,0.2l0.1,0.2l0.1,0.2h0l0.1,0.2h0l0.1,0.2h0l0.1,0.2l0.1,0.2h0l0.1,0.2l0.1,0.2
		l0.1,0.2l0.1,0.2l0.1,0.2l0.1,0.2h0l0.1,0.2l0.1,0.3l0.1,0.3h0l0.1,0.3l0.1,0.3l0.1,0.3l0.1,0.3l0.1,0.3h0l0.1,0.3l0.1,0.3l0.1,0.3
		l0.1,0.3L196,310.3L196,310.3L196,310.3z M160.8,422.6c0.2,0.2,0.4,0.4,0.5,0.6c1.9,2.5,5.7,5.3,8.3,7.2c0.2,0.2,0.5,0.3,0.7,0.5
		l0,0.3l0,0.3l0,0.3l0,0.3l0,0.3l0,0.3l0,0.3l0,0.3l0,0.3l0,0.3l0,0.3l0,0.3l0,0.3l0,0.3l0,0.3l0,0.3l0,0.3l0,0.3h0l0,0.3l0,0.3
		l0,0.3l0,0.3l0,0.3h0l0,0.3l0,0.3h0l0,0.3h0l0,0.3h0l0,0.3l0,0.3l0,0.3l0,0.3h0l0,0.3l0,0.3h0l0,0.3l0,0.3l0,0.3h0l0,0.3h0l0,0.3
		l0,0.3h0l0,0.3h0l0,0.3l0,0.3h0l0,0.3h0l0,0.3h0l0,0.3l0,0.3h0l0,0.3h0l0,0.3l0,0.3h0l0,0.3l0,0.3l0,0.3l0,0.3l0,0.3l0,0.3l0,0.3
		l0,0.3l0,0.3l0,0.3l0,0.3l0,0.3c-2.7-1.8-4.8-4.5-6.3-7.8C160.6,436.6,159.8,429.8,160.8,422.6L160.8,422.6L160.8,422.6z
		 M170.7,426.1c-3.3-2.5-6.3-5.1-8.8-7.7c-0.1-0.1-0.2-0.3-0.3-0.4c1-5.6,2.1-11.1,3.3-16.7c1.8,2.9,6.9,7.9,8.3,9.3
		c3.6,3.6,7.1,6,11.3,8.9c5.2,3.5,11.3,7.2,17.5,8.8l0,0v0l0,0.1l0,0.1l0,0.1v0l0,0.1l0,0.1l0,0.1l0,0.1l0,0.1
		c-0.6,3.9-1.6,7.4-3.1,10.6c-3.9-0.9-7.5-1.7-11.2-3.2c0.1-2.3,0.3-4.7,0.5-7.1c0.1-1.4,0.2-2.9,0.3-4.6c0-0.1,0-0.3,0-0.4
		c0-1.8-1.5-3.3-3.3-3.3c-2.9,0-4.2,0-5.4,0l-5.5,0v0c-1.7,0-3.2,1.3-3.3,3.1l0,0.1l0,0.1l0,0.1l0,0.1l0,0.1l0,0.1l0,0.1l0,0.1
		l0,0.1l0,0.1l0,0.1l0,0.1l0,0.1l0,0.1l0,0.1l0,0.1l0,0.1l0,0.1l0,0.1l0,0.1l0,0.1l0,0.1l0,0.1h0l0,0.1L170.7,426.1L170.7,426.1
		L170.7,426.1L170.7,426.1z M187.5,439.3c3,0.8,6.8,1.6,10.4,1.8c-0.8,1.4-1.6,2.6-2.5,3.8c-2.2,2.8-4.9,5-8,6.3
		C187.3,447.4,187.3,443.4,187.5,439.3z M203.9,369.6c13.6,0,23.2-6.5,35.3-12.5l16.1-6.9c4-1.3,14.4-4.4,16.2-7.1
		c-10,0-21.4,4.9-30.2,9c-6.9,3.2-15.7,8.2-22,10.9c-1.7,0.7-3.1,1.2-4.8,1.9c-1.9,0.7-8.6,2.2-11,1.8c-1.5-0.3-4.9-1.3-4.2,1
		C199.6,369,202.1,369.6,203.9,369.6L203.9,369.6z M202.4,424.8l-6.3-3.5c-4.8-2.9-11.8-6.9-16.3-10.6c-0.9-0.7-1.6-1.2-2.4-1.8
		l-7-6.5c-0.6-0.6-3.2-3.6-4.8-4.1l0.2-1l0.3-1.2l0.3-1.2l0.3-1.2l0.3-1.2l0.3-1.2l0.3-1.2l0.2-1.2l0.2-1.2l0.2-1.2l0.2-1.2
		c0.1-0.4,0.2-0.8,0.2-1.2c0.1-0.4,0.2-0.8,0.2-1.2c0.1-0.4,0.1-0.8,0.2-1.2c0.1-0.4,0.1-0.8,0.2-1.2c0.1-0.4,0.1-0.8,0.2-1.2
		c0.1-0.4,0.1-0.8,0.2-1.2c1.7,2.9,3.6,5.7,6,8c1.1,1.1,1.3,1.9,2.5,2.8c5.8,4.6,7.4,6.6,15.3,10.2c1.2,0.6,2.2,1.1,3.7,1.6
		c0.4,0.1,1,0.4,1.7,0.6c1.7,6.7,3.2,13.5,3.6,20.8l0,0h0l0,0.2h0l0,0h0l0,0h0l0,0l0,0l0,0h0l0,0h0l0,0h0l0,0h0l0,0h0l0,0l0,0h0l0,0
		l0,0h0l0,0l0,0h0l0,0l0,0h0l0,0l0,0h0l0,0h0l0,0l0,0l0,0l0,0h0l0,0l0,0h0l0,0l0,0h0l0,0l0,0h0l0,0l0,0h0l0,0l0,0l0,0l0,0h0v0h0v0h0
		v0v0v0v0h0v0l0,0l0,0h0l0,0h0l0,0h0l0,0h0l0,0l0,0l0,0h0l0,0l0,0h0l0,0l0,0l0,0l0,0l0,0l0,0l0,0l0,0l0,0h0l0,0l0,0.1l0,0.1
		L202.4,424.8L202.4,424.8L202.4,424.8z M429.8,196.1c-3.2,1.8-6.1,3.7-9.7,5.5c-9.9,4.9-20.7,9.3-31.6,12.3
		c-1.7,0.5-3.1,0.9-4.6,1.4c-0.9,0.3-1.5,0.5-2.4,0.8c-1.1,0.3-1.2,0.5-2.4,0.8c-6.5,2-12.3,4.3-18.5,6.6c-2.8,1.1-5.7,2.5-8.7,3.7
		c-3.1,1.3-5.6,2.5-8.6,3.7c-1.4,0.6-2.5,1.2-4.1,1.9c-15.6,7-33.9,17.6-49.4,25.3c-1.4,0.7-2.8,1.3-4.2,2.2l-32.4,17.5
		c-1.5,0.7-2.5,1.3-4,2c-7.2,3.6-13.4,7.1-20.9,10.6c-8.2,3.8-9.3,4.6-17.8,6.9c-3.1,0.8-7.1,1.4-10.2,0.6c-0.7-1.2-1.5-2.4-2.4-3.4
		c-2.4-3-5.3-5.3-8.5-6.8c26.1-16.1,59-32.9,94.7-49.5c42.2-19.7,87.9-39,130.9-56.7c0.4,0,0.9-0.2,1.3-0.3c0.3-0.1,0.5-0.2,0.8-0.3
		c0.2-0.1,0.5-0.1,0.7-0.2l0.3,0c2.7-0.3,5.2,0.4,7.2,2.1c2.1,1.8,3.7,4.6,4.3,8.4l0.1,0.5c0.1,0.4,0.2,2.2,0.2,3.5c0,0,0,0,0,0
		l0.1,0l-0.1,0c0,0,0.1-0.2,0.3-0.4c-0.1,0.1-0.1,0.2-0.1,0.4c-0.1,0.2-0.1,0.3-0.2,0.5L429.8,196.1L429.8,196.1z M322.1,498.3
		c-10.4,2.2-21.6,3.6-32.2,3.9c14.7-12.4,29.3-24.9,43.8-37.5c-11.6,0.6-24.5-0.5-35.7-3.2c-18.9,11.5-38,22.8-57.2,33.7
		c-11.3-3.7-13.6-4.3-24.7-10.8c90.5-44.4,171.3-95,248.1-159.6c11.4-2.1,29.8-5.6,40.6-9.8C450.9,381.8,386.4,441.1,322.1,498.3
		L322.1,498.3z M337.2,436.8L337.2,436.8c10.6,1.5,16,1.7,26.7,1.2c32.2-28.8,63.8-58.2,94-89C419.5,380.6,379,409.4,337.2,436.8
		L337.2,436.8z M574.3,299.3c31.2,0.5,2.4,36.7-4.5,44.6c-1.9,2-2.9,3-4.9,5c-8.2-2.2-12.5-2.9-21.1-3.5c2.7-2.7,4.1-4.1,6.7-6.8
		c11.4-11.6,10.7-16.8,4-16.5c-10.7,0.6-20.1,9.6-27.4,17.2c-12,12.6-14.7,22.7-17.5,38.6c-3.9,22.5-15.4,37.4-32.4,52.8
		c-27.8,25.2-64.1,39.5-99.9,51.3c-42.8,14.1,5.5-27.7,15.3-36.4c5.8-5,8.7-7.5,14.4-12.5c11-2.6,16.6-3.8,27.4-7.5
		c-6.3,5.5-9.5,8.3-16,14c-16.3,14.1-16.5,16.8-7.2,14.1c13.6-3.8,26.3-12.5,36.7-21.4c13.5-11.5,19-22.2,22.6-38.3
		c4.5-19.8,15.9-33.6,30-48.5C518.1,326.9,545.1,298.9,574.3,299.3L574.3,299.3z M641.5,324.5c22,15.3,8.2,45.6-4.5,62
		c-1.6,2.1-2.4,3.2-4.1,5.3c-7.1-6.3-10.6-10-17.9-15.9c2.3-2.7,3.4-4,5.6-6.7c9.6-11.4,9.6-18.4,3.6-22.6c-5.9-4.2-13-2.2-23,8.9
		c-13.6,15.2-13.8,32.6-14.8,51.8c-1.2,25.7-7.1,50.4-24.8,70.2c-22.6,25.3-53,32-83.5,16c-32.6-17.1-9-43.1,9.9-60.6
		c4.9-4.3,7.3-6.4,12-10.7c9.6,2.4,14.3,4.2,23.5,8.8c-5.2,4.9-7.8,7.3-13.2,12.3c-13.4,12.3-13.1,19.1-5,24.1
		c10.8,6.5,23.3-0.5,30.7-8.3c14.7-15.5,16-34.7,17.5-54.8c1.6-22.6,9.7-40.4,25.8-57.1C593.4,332.6,619.6,309.3,641.5,324.5
		L641.5,324.5z M677,355.6c7.9,5.7,12,8.3,20.2,13c-39.5,62.3-84.1,121-131.3,178.1c-9.9-4.4-19.6-9.5-28.9-15
		C587.4,475.7,635.2,417.8,677,355.6L677,355.6z M786.9,395.5c-22.6,28.5-46.2,56-71,82.8c-7.2,31.2-13.6,62.5-18.1,94.2
		c-11.8,0.4-23.8,0-35.5-1c6.2-25.4,13.2-50.6,20.6-75.7c-23.7,23-48.1,45.2-73.4,66.5c-11.7-3.1-17.4-5-28.6-9.3
		c34.4-26.2,67.3-53.8,98.8-83.2c9.9-31.6,20-63.1,29.6-94.8c8.7,4.3,13.1,6.2,22.1,9.4c-6.6,23.3-13.4,46.5-20,69.8
		c18.7-19.8,36.7-40.1,54.1-61C773.8,394.5,778.1,395,786.9,395.5L786.9,395.5z M738.9,532.1c9.1-21.1,18.1-42.3,27.2-63.4
		c11.7-24.2,23.2-48.5,34.5-72.9c9.6-0.1,14.6-0.4,24.5-1.7c-10.3,24.1-20.7,48.2-31,72.2c-10.3,21.1-20.6,42.2-31.1,63.2
		C753.2,530.9,748.4,531.4,738.9,532.1L738.9,532.1z M761.3,541.2L761.3,541.2c-4.5,10.5-6.8,15.8-11.4,26.3
		c-11.3,1.9-22.8,3.3-34.2,4.1c5.5-10.8,8.2-16.1,13.5-26.9C739.9,544.1,750.8,542.9,761.3,541.2L761.3,541.2z M433.5,309.4
		c-4.8,1.1-10.2,4.6-15.3,8.9c-8.5,7.2-15.9,16.8-18.5,22.8c-0.1,0.1-0.1,0.2-0.2,0.3c-4.7,8.1-10.8,14.8-18.6,19.7
		c-7.7,4.9-16.9,8-27.9,9.1c-9.3,1.8-17.2,5.2-24.2,9.6c-7,4.5-13.1,10.1-18.6,16.4c-5.7,9-12.6,16-20.6,21.1
		c-8,5.1-17.1,8.4-27.2,9.8c-7.8,2-15,4.9-21.5,8.9c-6.5,4-12.3,9-17.5,15c-0.1,0.1-0.2,0.2-0.3,0.3c-5,5.2-10.3,10-16,14.1
		c-4.9,3.5-10.2,6.5-16,8.9c0.6,1.3,1.5,2.7,2.4,4.2c1.3,2.1,2.8,4.2,4,6c49-30.9,95-60.8,135.9-88.6
		c40.3-27.4,75.6-52.9,103.6-75.6c-1.8-2.6-3.1-5.8-3.5-9.9C433.6,310.1,433.6,309.7,433.5,309.4L433.5,309.4z M430.5,303.3
		c1.1-0.3,2.2-0.6,3.2-0.8c0.1-0.6,0.2-1.3,0.2-1.9C432.8,301.5,431.6,302.4,430.5,303.3z M445,322c-0.2,0.5-0.5,1-1,1.4
		c-8.4,6.9-17.5,14-27.1,21.3l-0.1,0c-23.2,17.6-50,36.6-79.4,56.7c-41.6,28.3-88.6,58.7-138.5,90.3c-0.1,0.1-0.2,0.2-0.3,0.2
		l-0.1,0.1c0.3,0.5,0.7,0.9,1.1,1.2c25.1,15.3,50.9,21.7,77.1,21.6c26.1,0,52.7-6.4,79.5-16.8c0.1,0,0.2-0.1,0.2-0.1
		c28.9-13.8,56.5-17.5,82.7-12c26.3,5.6,51.3,20.4,75.3,43.7c0.1,0.1,0.2,0.2,0.4,0.3c35.4,25.6,73.6,42.6,114.5,51.2
		c40.8,8.5,84.4,8.7,130.6,0.4c1.2-0.1,2.3-0.9,2.8-2.1l77.2-190l0,0c0.2-0.5,0.3-1.1,0.2-1.7c-0.2-1.8-1.9-3.1-3.7-2.9
		c-30.2,4-58.6,1.7-85.3-6.5c-26.7-8.2-51.8-22.3-75.4-41.9c-21.4-20.1-44.3-36.5-70.3-44.3c-26.2-7.9-55.6-7.3-89.8,6.8l-0.1,0
		c-11.2,5-22.4,9.1-33.7,12.2c-11.3,3.1-22.8,5-34.5,5.7c-0.7,0-1.4,0.3-2,0.8l-1,0.8l0.1,0.1l2.2,2.3L445,322z M177.8,466
		c1.2,0.4,2.7,0.9,4.1,1.4c-1.1-5.1-1.8-10.5-2.1-16.4c-0.4-7.4-0.1-15.3,0.3-23.6l-2.9,0c-0.7,10.8-0.9,20.7-0.4,29.3
		C177.1,459.9,177.4,463.1,177.8,466L177.8,466z M189.1,468c5-2.1,9.7-4.8,14.2-8c5.4-3.8,10.4-8.3,15-13.3l0,0
		c5.6-6.6,12-12,19.1-16.3c7.1-4.3,14.9-7.6,23.5-9.7l0,0c0.1,0,0.2-0.1,0.4-0.1c9.2-1.3,17.5-4.2,24.7-8.8
		c7.2-4.6,13.5-11,18.7-19.3l0,0c0.1-0.1,0.2-0.3,0.3-0.4c3.7-4.2,7.6-8.1,11.8-11.7c-18,11.2-36.2,22.3-54.5,33.4
		c-21.3,13-42.7,26-63.7,39.2c-0.8,0.5-1.7,0.8-2.7,0.8c-2.3,1.9-4.9,3.3-7.7,4.2c0.1,0.9,0.2,1.8,0.2,2.6
		C188.5,463.3,188.7,465.7,189.1,468L189.1,468z M335.3,368.8c5-2.2,10.5-4,16.5-5.1l0.3,0c10-1,18.4-3.8,25.3-8.2
		c6.8-4.3,12.1-10.1,16.3-17.3c1.9-4.3,5.8-10,10.7-15.6C382,338.6,358.9,353.9,335.3,368.8z M184.2,475.1c-1.3-0.4-2.7-0.9-4.2-1.4
		c-0.2-0.1-0.4-0.2-0.6-0.3l0.2,0.6c0.4,1.3,0.8,2.6,1.2,3.7c1.4,1,3.1,2.1,5,3.1l0,0l0.1,0l0.2,0.1l0.1,0l0.1,0.1l0.1,0l0,0l0.1,0
		l0,0l0.1,0l0,0l0.1,0l0,0l0.1,0l0,0l0.1,0l0,0l0.1,0l0,0l0.1,0l0,0l0-0.1C186,479.5,185,477.3,184.2,475.1L184.2,475.1z
		 M199.5,450.5c-0.1,0.1-0.2,0.2-0.3,0.4C199.3,450.7,199.4,450.6,199.5,450.5z M181.4,456.7c0,0,0-0.1,0-0.2
		C181.3,456.6,181.3,456.6,181.4,456.7z M175.6,456.2c0,0,0,0.1-0.1,0.1C175.6,456.3,175.6,456.2,175.6,456.2z M810.2,539
		c3.3,0,6-2.7,6-6c0-3.3-2.7-6-6-6c-3.3,0-6,2.7-6,6C804.2,536.3,806.9,539,810.2,539z M798.2,289.5c3.3,0,6-2.7,6-6
		c0-3.3-2.7-6-6-6c-3.3,0-6,2.7-6,6C792.1,286.8,794.8,289.5,798.2,289.5z M652.3,130.1c3.3,0,6-2.7,6-6c0-3.3-2.7-6-6-6
		c-3.3,0-6,2.7-6,6C646.3,127.4,649,130.1,652.3,130.1z M224.5,549.9c4.7,0,8.5-3.8,8.5-8.5c0-4.7-3.8-8.5-8.5-8.5
		c-4.7,0-8.5,3.8-8.5,8.5C216,546.1,219.8,549.9,224.5,549.9z M787.7,373.6c4.7,0,8.5-3.8,8.5-8.5s-3.8-8.5-8.5-8.5
		c-4.7,0-8.5,3.8-8.5,8.5S783,373.6,787.7,373.6z M507,194.8c4.7,0,8.5-3.8,8.5-8.5s-3.8-8.5-8.5-8.5s-8.5,3.8-8.5,8.5
		S502.3,194.8,507,194.8z M331.6,147.9c6.6,0,12-5.4,12-12c0-6.6-5.4-12-12-12c-6.6,0-12,5.4-12,12
		C319.7,142.6,325,147.9,331.6,147.9z M627.4,279.3c6.6,0,12-5.4,12-12c0-6.6-5.4-12-12-12c-6.6,0-12,5.4-12,12
		C615.4,273.9,620.8,279.3,627.4,279.3z M741.4,630.8c6.6,0,12-5.4,12-12c0-6.6-5.4-12-12-12c-6.6,0-12,5.4-12,12
		C729.5,625.4,734.8,630.8,741.4,630.8z M617,225.4c3.3,0,6-2.7,6-6c0-3.3-2.7-6-6-6c-3.3,0-6,2.7-6,6
		C611,222.7,613.7,225.4,617,225.4z M514.5,590.3c3.3,0,6-2.7,6-6c0-3.3-2.7-6-6-6c-3.3,0-6,2.7-6,6
		C508.5,587.6,511.2,590.3,514.5,590.3z M678.9,676.5c3.3,0,6-2.7,6-6c0-3.3-2.7-6-6-6s-6,2.7-6,6
		C672.9,673.8,675.6,676.5,678.9,676.5z M169.1,515.1c3.3,0,6-2.7,6-6c0-3.3-2.7-6-6-6c-3.3,0-6,2.7-6,6
		C163.1,512.4,165.8,515.1,169.1,515.1z M448.8,79.6c3.3,0,6-2.7,6-6c0-3.3-2.7-6-6-6c-3.3,0-6,2.7-6,6
		C442.8,76.9,445.5,79.6,448.8,79.6z M249.7,198.3c3.3,0,6-2.7,6-6c0-3.3-2.7-6-6-6c-3.3,0-6,2.7-6,6
		C243.6,195.6,246.3,198.3,249.7,198.3z M392.5,160c3.3,0,6-2.7,6-6c0-3.3-2.7-6-6-6c-3.3,0-6,2.7-6,6
		C386.5,157.3,389.2,160,392.5,160z M501,255.4c3.3,0,6-2.7,6-6c0-3.3-2.7-6-6-6c-3.3,0-6,2.7-6,6
		C494.9,252.7,497.6,255.4,501,255.4z M747.5,323.6c3.3,0,6-2.7,6-6c0-3.3-2.7-6-6-6c-3.3,0-6,2.7-6,6
		C741.4,320.9,744.1,323.6,747.5,323.6z M666.9,606.9c3.3,0,6-2.7,6-6s-2.7-6-6-6c-3.3,0-6,2.7-6,6S663.5,606.9,666.9,606.9z
		 M350.1,539c3.3,0,6-2.7,6-6c0-3.3-2.7-6-6-6c-3.3,0-6,2.7-6,6C344.1,536.3,346.8,539,350.1,539z M436.9,624.8c6.6,0,12-5.4,12-12
		c0-6.6-5.4-12-12-12c-6.6,0-12,5.4-12,12C424.9,619.4,430.2,624.8,436.9,624.8z M424.9,540.7c4.7,0,8.5-3.8,8.5-8.5
		c0-4.7-3.8-8.5-8.5-8.5s-8.5,3.8-8.5,8.5C416.4,536.9,420.2,540.7,424.9,540.7z M252.9,549.5c-22.1,15.7-8.2,41.6-24.2,52.9
		c-5.5,3.9-9.3,2.9-12-1c-2.7-3.9-2.5-7.7,3-11.6l5.5-3.9l-8.2-11.5l-4.8,3.4c-12.4,8.8-15.1,20-6.6,32c8.5,11.9,20,13.1,32.4,4.3
		c22.1-15.7,8.2-41.6,24.2-52.9c5.5-3.9,9.2-3.2,12,0.7c2.7,3.9,2.2,7.6-3.3,11.5l-3.2,2.3l8.2,11.5l2.4-1.7
		c12.4-8.8,15.1-19.9,6.7-31.7C276.7,541.8,265.3,540.7,252.9,549.5L252.9,549.5L252.9,549.5z M298.2,592.5l17.8,18.7l9.8-9.3
		l-28-29.5L229,637.8l28,29.5l9.8-9.3l-17.8-18.7l20.2-19.2l14.1,14.8l9.8-9.3l-14.1-14.8L298.2,592.5L298.2,592.5z M306.1,703.7
		c0.8-3.7,2.7-6.6,5.3-10.4l8.5-12c5.7-8.1,7.9-15.4,3.6-22.2c7.2,1.3,13.5-2.1,19.1-10.1l4.3-6.1c8.5-12,7.2-21.7-5.4-30.6
		l-18.4-13l-54.9,77.5l12.2,8.6l22.3-31.6l4.2,3c5.5,3.9,6.1,8.3,1,15.5l-8.6,12.2c-4.5,6.3-4.9,7.8-5.6,10.3L306.1,703.7
		L306.1,703.7z M333.3,623.3c4.3,3.1,4.5,6.8,0.6,12.4l-5.4,7.6c-4.4,6.2-8.6,6.2-13.1,3l-4.8-3.4l16.9-23.8L333.3,623.3
		L333.3,623.3z M318,710.4l13.3,6.9l43.7-84.3l-13.3-6.9L318,710.4z M381.1,696.5l6.3,2.5l-6.5,16.3c-2.5,6.3-6.2,7.5-10.6,5.7
		c-4.4-1.8-6.3-5.1-3.8-11.4l19-47.6c2.5-6.3,6.2-7.6,10.6-5.8c4.4,1.8,6.2,5.3,3.7,11.6l-3.8,9.5l13.1,5.2l3.4-8.6
		c5.6-14.1,1.8-25-11.8-30.4c-13.6-5.4-23.9-0.2-29.5,14L353,703.2c-5.6,14.1-1.8,25,11.8,30.4c13.6,5.4,23.9,0.2,29.5-14l11.1-28
		l-19.4-7.7L381.1,696.5L381.1,696.5z M446.3,753c-0.9-3.7-0.4-7.1,0.4-11.6l2.5-14.4c1.7-9.8,0.5-17.3-6.3-21.6
		c7.1-1.9,11.3-7.7,13-17.3l1.3-7.3c2.5-14.4-2.8-22.7-18-25.3l-22.2-3.9L400.6,745l14.7,2.6l6.7-38.1l5.1,0.9
		c6.7,1.2,9.1,4.9,7.5,13.6l-2.6,14.7c-1.3,7.6-1.1,9.2-0.7,11.7L446.3,753L446.3,753z M436.5,668.7c5.2,0.9,7,4.3,5.8,10.9
		l-1.6,9.2c-1.3,7.5-5.1,9.3-10.6,8.3l-5.7-1l5-28.7L436.5,668.7L436.5,668.7z M495.1,660.3l-21.8-0.5L456,754.4l13.7,0.3l3-17.2
		l18.3,0.4l2.2,17.3l15.1,0.3L495.1,660.3L495.1,660.3z M483.1,676.9l6.1,48.2l-14.4-0.3L483.1,676.9L483.1,676.9z M524.9,671.1
		l24.4-3.2l-1.7-13.5l-39.2,5.1l12.2,94.2l14.8-1.9l-5.1-38.9l19.1-2.5l-1.7-13.5l-19.1,2.5L524.9,671.1L524.9,671.1z M571.9,745
		l14.3-4.1l-26.1-91.3l-14.3,4.1L571.9,745z M548.8,632l-4.7,17l9.7-2.8l9.2-18.3L548.8,632L548.8,632z M593.2,637l-19.9,9
		l25.4,92.8l12.5-5.7l-4.8-16.8l16.7-7.6l9.5,14.6l13.7-6.2L593.2,637z M589.5,657.1l26.4,40.8l-13.1,5.9L589.5,657.1z M494.9,80.7
		l15.2,1.1l-6,79.1l14.5,1.1l6-79.1l15.2,1.1l1-13.2l-44.8-3.4L494.9,80.7z M592.6,84.2l-20.4-6.1l-40.7,84.4l12.8,3.8l7.2-15.4
		l17.1,5.1l-2.4,16.8l14.1,4.2C580.3,177.1,592.6,84.2,592.6,84.2z M577,96.7l-6.7,46.8l-13.4-4C556.9,139.5,577,96.7,577,96.7z
		 M586.7,179.4l33.5,18.8l6.5-11.5L605.9,175l38.8-69.2L632,98.7L586.7,179.4z M626.1,201l30.3,23.6l8.1-10.4l-18.9-14.7l48.7-62.6
		L683,128L626.1,201L626.1,201z M729.7,186.7l16.8,18.6l9.8-8.9L729.7,167l-68.6,62.1l26.6,29.4l9.8-8.9L680.7,231l20.1-18.2
		l13.4,14.8l9.8-8.9L710.6,204L729.7,186.7z M715.6,305c2.3-3,5.1-4.7,9-6.9l12.4-7c8.4-4.7,13.3-10.3,12.4-18.1
		c5.8,4.1,12.7,3.7,21-0.9l6.3-3.6c12.4-7,15.3-16.1,7.9-29.2l-10.8-19.1l-80.6,45.5l7.1,12.7l32.8-18.5l2.5,4.4
		c3.2,5.8,1.9,9.8-5.6,14.1l-12.7,7.2c-6.6,3.7-7.6,4.9-9.2,6.7L715.6,305L715.6,305z M773,245.4c2.5,4.5,1.1,7.9-4.6,11.1l-7.9,4.5
		c-6.4,3.6-10.1,1.9-12.8-2.8l-2.8-4.9l24.7-14L773,245.4z"/>
</g>
</svg>
