<?xml version="1.0" encoding="utf-8"?>
<!-- Generator: Adobe Illustrator 24.2.3, SVG Export Plug-In . SVG Version: 6.00 Build 0)  -->
<svg version="1.1" id="Capa_1" xmlns="http://www.w3.org/2000/svg" xmlns:xlink="http://www.w3.org/1999/xlink" x="0px" y="0px"
	 viewBox="0 0 960 1280" style="enable-background:new 0 0 960 1280;" xml:space="preserve">
<style type="text/css">
	.st0{fill:#E9E9E9;stroke:#343434;}
	.st1{fill:#232323;stroke:#343434;}
	.st2{fill-rule:evenodd;clip-rule:evenodd;fill:#E9E9E9;}
</style>
<g>
	<rect x="-60.5" y="560.5" class="st0" width="1125" height="718.5"/>
</g>
<path id="Trazado_8" class="st1" d="M-1.3,795.9c0,0-29.4,297.8,75.4,301.2s119.5-177.4,230.1-177.4s90.3,97,171.8,110.5
	c81.6,13.4,46.6-60.3,154.4-60.3s58.2,187.4,166,164c107.8-23.4,104.8-217.5,145.6-257.7c40.8-40.2,37.9-33.5,37.9-33.5V-71H-1.3
	V795.9z"/>
<path id="Trazado_10" class="st2" d="M316.7,523.2c-2-0.1-3.9-0.3-5.8-0.5c-0.7-3.1-2.4-4.8-2.7-7.9c2.4,0.1,2,0.7,4.2,0.5
	c9-0.7,16.7-5.4,23-11.4c0.7-0.7,0.3-0.5,1.3-1.2c1.2,3.8,2,7.7,2.7,11.6c-2,0.2-10.3,5.1-13.1,6.4
	C323.3,522.1,320,522.9,316.7,523.2z M313.5,511.1v0.5l-0.6-0.4L313.5,511.1z M310.4,510.5l-0.3,1.2L310.4,510.5z M310.9,510
	l-0.5,0.5L310.9,510z M311.4,508.9l-0.5,1.1L311.4,508.9z M322.5,508.9v0.5l-0.6-0.4L322.5,508.9z M323,507.9l-0.5,1.1L323,507.9z
	 M311.9,508.4l-0.5,0.5L311.9,508.4z M308.3,508.4l0.2,0.2C308.4,508.6,308.2,508.5,308.3,508.4L308.3,508.4z M313.5,511.1
	c0.4-1.4-0.1-0.5,0.8-1.9c1-1.5,0.4-1,1.9-1.3C315.6,509.1,314.6,510.2,313.5,511.1L313.5,511.1z M312.5,507.9l-0.5,0.5L312.5,507.9
	z M316.7,511.1c0.5-0.7,0.9-1.4,1.4-2.2c1.4-2.1-0.2-1.2,2.2-1.4c-0.4,0.7-0.9,1.6-1.4,2.3C318.2,510.9,318.4,510.6,316.7,511.1
	L316.7,511.1z M309.3,507.3v0.5l-0.6-0.4L309.3,507.3z M323,507.9c0.4-1.5-0.1-0.8,1.1-1.6C323.7,507.8,324.2,507.1,323,507.9
	L323,507.9z M309.3,507.3v-0.5l0.6,0.4L309.3,507.3z M312.5,507.9l0.6-2.1C314.5,506.9,314.4,506.5,312.5,507.9L312.5,507.9z
	 M305.1,506.3l0.2,0.2C305.3,506.4,305,506.4,305.1,506.3L305.1,506.3z M327.7,505.3l-0.6,2.1c-0.2-0.4-0.7,0.8-0.4-1
	C327,505.5,327,505.7,327.7,505.3L327.7,505.3z M324.1,506.3l0.3-1.2L324.1,506.3z M304.1,505.7h0.5l-0.4,0.6L304.1,505.7z
	 M304.1,505.7l-1.1-0.5L304.1,505.7z M386.8,510c0.6-2.2,4.8-8.9,4.8-11.1h0.5c0,1.7,0.5,5.8-0.5,6.8l-0.3,0.3L386.8,510z
	 M347.3,512.1h-1.1c-1.2-5.3,0.7-2.3,1.1-6.8c1.2-0.3,2.5-0.6,3.7-1.1C350.5,506.6,348.1,508.7,347.3,512.1L347.3,512.1z M303,505.3
	h-0.5l0.4-0.6L303,505.3z M332,503.2v0.5l-0.6-0.4L332,503.2z M350.5,518.4c-0.9-0.7-1.6-1.6-2.1-2.7c0.1-0.1,0.3-0.4,0.3-0.3
	l1.5-2.7c1.8-3.1,3.3-6.3,4.5-9.7c2.1-0.4,4.3-0.9,6.3-1.6l-8.2,12.4C352,515.4,351.2,516.9,350.5,518.4L350.5,518.4z M326.7,501
	v0.5l-0.6-0.4L326.7,501z M332,503.2c0.2-0.8,0.4-1.6,0.8-2.3c1-2.2-0.5-0.5,1.3-1.9c0.8,1.3,0.4,3-0.9,3.8
	C332.8,503,332.4,503.1,332,503.2L332,503.2z M353.1,520.5l3.4-6.1c1.5-2.5,8.2-13.8,9.4-14.4c0.6-0.3,3.4-1,4.2-1.2l-3.8,5.7
	c-0.7,0.9-1.4,1.8-2,2.8c-0.7,0.9-1.3,1.9-2,2.8l-5.9,8.4C355,520.5,356,520.5,353.1,520.5L353.1,520.5z M324,499
	c1.4,0.3,0.8-0.4,1.2,1L324,499z M327.7,505.3c0.1-1.4,0.6-2.8,1.4-3.9c0.4-1,0.4-1.2,0.7-1.9c1-2.4,0-1.1,1.5-1.6L327.7,505.3z
	 M326.7,501c0.2-2.2,0.3-2.7,2.1-3.2L326.7,501z M351,496.2c0.5,0.7,0.5-1.2,0.5,1.6H351V496.2z M364.6,520
	c-2.3,0.1-2.5,0.5-5.2,0.5c3.1-4.6,14.5-19.5,14.7-23.2c1.1,0,2.1-0.2,3.2-0.5C374.7,501.8,365.4,516.6,364.6,520L364.6,520z
	 M323.6,494.7c0-1.4,0.4-1.2,1.6-1.6c0,2.1,0.2,1.7-0.5,3.2C323.7,495.6,323.6,496.2,323.6,494.7L323.6,494.7z M378.9,514.2
	c0.9-1.7,1.8-3.5,2.7-5.2l5.8-10.6c0.4-1,0.8-1.8,1.4-2.8c0.2-0.4,0.4-0.9,0.8-1.3c0.1-0.1,0.4-0.5,0.4-0.6c0.1-0.1,0.2-0.3,0.3-0.3
	c0.1,0,0.2-0.2,0.3-0.3c0.4,1.4,0,0.4,0.5,1.6l-8.3,15.5C381.5,513.5,382.7,513.4,378.9,514.2L378.9,514.2z M368.9,519
	c0.8-2.3,2-4.5,3.5-6.6l7.1-13.5c1.4-2.9,1.9-4.1,6.3-4.3l-7.4,13.2C371.7,521,377.6,514.3,368.9,519L368.9,519z M351,496.2
	c-2.1-1.5-0.5-2.1-4.7-2.1v-0.5c6.8,0,4.2-0.7,7.4-1.6v2.7c-1.2-0.8-0.5-0.6-2.1-1.1C351.3,494.5,351.1,495.4,351,496.2L351,496.2z
	 M393.1,492.1h2.1c1.8,4.5,2.7,9.4,2.7,14.3c0,1.2-6.7,8.9-11.1,11.1c-1.3,0.7-1.7,1.1-3,1.8c-17.7,9.8-22.3,6.1-35.5,6.1
	c-0.4-1.8-3.4-5.4-5.1-8.6c-0.8-1.6-0.9-2-2.3-2.5c0.3-2.5,0.4-4.9,0.5-7.4c0.9-0.3,1.8-0.4,2.7-0.5c-0.8,2.3-3.5,0.3,0.4,8.1
	c4.1,8.3,5.7,9.8,13.9,9.8c9.4,0,20-5.1,27.4-10C394.9,508.1,397.8,502.5,393.1,492.1L393.1,492.1z M354.6,492.1
	c0.5-0.5,2,0.7,0.6,0.3C355.3,492.3,353.8,493,354.6,492.1L354.6,492.1z M323,492.1c0-1.2,0.9-0.2,0.4,0
	C323.4,492.1,323,493.6,323,492.1L323,492.1z M330.9,490.5c0-1.2,0.9-0.2,0.4,0C331.3,490.5,330.9,492,330.9,490.5L330.9,490.5z
	 M401.6,496.3h-1.1c-0.1-3.5-1.3-2.7-1.6-5.8c1.4-0.1,2.8-0.4,4.3-1.1C402.4,491.6,401.8,493.9,401.6,496.3L401.6,496.3z
	 M330.4,488.9l0.2,0.2C330.6,489.1,330.4,489,330.4,488.9L330.4,488.9z M322.5,487.4c1.7,0.6,2.6,2.2,0.5,3.7
	C323.1,489.8,323,488.5,322.5,487.4L322.5,487.4z M335.2,485.8c1.8,2,1.5,2.7,3.4,4c3.5,2.6,5.6,5.2,8.8,5.9
	c3.4,0.7,1.2,0.5,3.6,4.3l-11.1,3.2c-1-3.2-3.3-5.9-6.3-7.4c0-4.6-1.6-5.5-1.6-9.5h0.5c-0.2,1.7,0.7,3.3,2.1,4.3
	C336.1,487.8,335.5,488.8,335.2,485.8L335.2,485.8z M333.6,486.8c0-1.2,0.9-0.2,0.4,0C334,486.7,333.6,488.3,333.6,486.8
	L333.6,486.8z M330.4,485.2v3.2c-0.5-0.4-1.3-0.8-1.4-1.8C328.9,485.2,328.8,486,330.4,485.2L330.4,485.2z M325.7,485.8
	c2.7,1.4,2.1,1,3.5,3.9c1,1.8,1.7,3.6,2.3,5.6c-1.8-0.8-1.9-0.4-3.7,0c0-3.1,0.4-4.8-1.1-7.4L325.7,485.8z M333.6,483.6v1.6
	C331.4,483.6,332.6,484.7,333.6,483.6L333.6,483.6z M392.6,482.6l-1.1,0.6L392.6,482.6z M377.3,482c2.5,0.2,0.9-0.5,2.1,1.1
	C376.6,483.7,378.4,484,377.3,482L377.3,482z M392.6,482.6V482l0.6,0.4L392.6,482.6z M373.6,482h1.6v0.5h-1.6V482z M394.2,481.5v0.5
	l-0.6-0.4L394.2,481.5z M394.7,481l-0.5,0.5L394.7,481z M445.4,477.9c-0.7,2.9-2.1,5.7-4.1,8.1c-1.3,1.4-1.2,0.5-1.2,3
	c2.2-0.1,2.1-0.1,3.3-1.4c0.8-1,1.4-2.1,2-3.3c0.7-1.1,1.4-2.2,1.9-3.4c2.4-6.1-1.3-3.1,15.4-8.3c2.2-0.7,5.1-1.4,7.5-2
	c2.5-0.6,4.9-1.5,7.4-2.1L507,460c1.2,1.9,4.3,3,7,5.7l4.8,4.7c1.3,1.5,0.4,0.6,1.2,2c2.9,5.2,16.7,4.6,18.7,5.5
	c-2.6,11.1-12.4,12.5-23.3,17.2c-2.5,1.1-4.4,2-7,2.9l-11.7,3.5c-11.8,2.3-21.9,0.4-33.8,0l-9.3-0.7c-7-1.6-5.7-4.1-14.3-6.2
	c-2.8-0.7-5.3-1.3-8.3-2.3c-3.6-1.2-11.8-4.7-13.5-7.1c2.3-0.4,4.5-0.9,6.7-1.7l13.9-4C440.4,478.7,442.9,478.1,445.4,477.9
	L445.4,477.9z M401,478.4l2.1-1.1c0.1,6.8,3.7,6.9,0,7.9C402.8,482.8,402.1,480.5,401,478.4L401,478.4z M394.7,481
	c0.6-0.9,1.1-1.7,1.6-2.7c0.4,0,1.6,0.2,1.7,0.3c0.6,0,0.7-0.1,2-0.3C398.7,480.3,397.7,480.7,394.7,481z M445.4,477.8v-0.5l0.6,0.4
	L445.4,477.8z M297.8,467.8h1.6c0.8,1.6,1.3,3.6,2.1,5.2C300.2,473.2,297.9,475,297.8,467.8L297.8,467.8z M297.8,467.8h-0.5l0.4-0.6
	L297.8,467.8z M322.5,466.8l-1.1,0.6L322.5,466.8z M450.6,465.7l-1.1,0.6L450.6,465.7z M434.8,465.7h2.1v1.1
	C434.5,466.5,436,467.3,434.8,465.7L434.8,465.7z M450.6,465.7v-0.5l0.6,0.4L450.6,465.7z M431.1,465.2l0.2,0.2
	C431.3,465.3,431.1,465.2,431.1,465.2L431.1,465.2z M452.2,464.7v0.5l-0.6-0.4L452.2,464.7z M419,464.7l0.2,0.2
	C419.1,464.7,418.9,464.7,419,464.7L419,464.7z M415.7,464c-0.3,1.5,0.3,0.7-1,1.2L415.7,464z M318.8,464.1h1.6
	c-0.4,1.5,0.1,0.8-1.1,1.6C319.1,465.2,319,464.7,318.8,464.1L318.8,464.1z M550.9,464.1v0.5l-0.6-0.4L550.9,464.1z M452.7,464.1
	l-0.5,0.5L452.7,464.1z M416.9,463.1v0.5l-0.6-0.4L416.9,463.1z M452.7,464.1l1.1-2.1h3.1c-0.5,1.3-0.3,0.5-0.5,1.1
	c-0.3,0.5,0-0.4-0.5,1.1H452.7L452.7,464.1z M416.9,463.1c0.4-2,0.3-1.7,1.6-2.7c0,1.2,0.2,2.5,0.5,3.7
	C417.8,463.2,418.5,463.5,416.9,463.1L416.9,463.1z M323,463.1h-1.6C322.7,461.4,321.9,461.4,323,463.1L323,463.1z M559.3,462v0.5
	l-0.6-0.4L559.3,462z M295.6,461.5c2.9,0.3,0.9-0.7,3.2,3.7c-0.9-0.1-1.8-0.3-2.7-0.5C296.2,463.6,296,462.4,295.6,461.5
	L295.6,461.5z M458,461.5c0.9-0.1,1.8-0.3,2.7-0.5c0,5.9,3.7,6.9,0,7.9C460.5,466.2,459.6,463.6,458,461.5L458,461.5z M514.4,457.7
	c1.4-0.4,2.8-0.7,4.3-1.1v7.9c-1.4-1-2.8-2.2-4.3-3.2V457.7z M342,457.2c0.7,1.2,1.2,2.8,1.1,4.3c-3,1.2-6.2,1.9-9.5,2.1
	c0.1-5,2.9-0.4,5.8-4.8c0.9,0.1,1.8,0.3,2.7,0.5V457.2z M317.7,460.9v0.5l-0.6-0.4L317.7,460.9z M419.5,454.6l3.8,4.6
	c3.5,6.1,4.3,2.8,6.1,5.9l1.2,2c0.9-0.1,1.8-0.3,2.7-0.5l1.7,1.5c3.5-0.7,1.9,0.1,4.6,0.1c1.8,0,2.4-0.7,4-0.9l3.9-0.7
	c3.5,2.5,2.6-0.1,6-1.3c1.5-0.5,1.1,0.2,2.5-0.6c0.5-0.4,1.1-1.1,2-1.7c0.5,2.1,1.1,4.2,1.6,6.3c-1.7,0.3-3.5,0.7-5.1,1.2l-16.1,4.5
	c-0.4-0.8-0.8-2.1-1.9-2.5c-1.8-0.5-0.8,0.2-0.8,3.5l-15,4c-5,1.7-9.9,2.9-15.1,3.9c-0.3-3.2-1.6-3.1-1.6-7.4c2-1,3.9-2.4,5.4-4.1
	c0.8-0.8,1.5-1.7,2-2.7c0.9-0.9,1.4-2,1.5-3.3c2.5-0.6,3.1,0,3.7-2.1h1.1c0.4,4.3,0.7,5.2,2.7,5.8
	C422.3,467.3,419.5,463.3,419.5,454.6L419.5,454.6z M318.2,460.4l-0.5,0.5L318.2,460.4z M327.2,459.3c1.6,0.5,0.4-0.7,1.2,0.8
	c0.5,1,0.3,1.2,0.3,2.3C326.9,461.1,328.4,461.6,327.2,459.3L327.2,459.3z M318.2,460.4c0.3-1.1,1.1-1.9,2.1-2.1
	c1.2-0.5,6.4-0.7,6.4,6.9c-1.2,1-2.7,1.5-4.3,1.6c2.2-3,2.1,0,2.1-5.2C321.7,459,322.8,460,318.2,460.4L318.2,460.4z M290.3,452.5
	c2.1,9,4.8,14.6,6.3,20.6c1.1,3.9,2,2.9,5.3,2.7l7.9,19c0.7,2.4,2,4.3,2.7,6.8c-1.8,0.5-3.4,1.4-4.8,2.7c-6.7-3.5-5.7-5.9-10.3-11.9
	c-2.6-4.3-4.1-9-4.5-13.9c1.7,0.4,0.8,0.5,2.1,0c-4.9-7.3-5.8-9.2-6.5-19.3l1.2-5.6C290.5,452,289.8,453.3,290.3,452.5L290.3,452.5z
	 M570.8,455.7c0.1,2.1-1.2,4.1-3.2,4.8c0.2-0.9,0.6-1.8,1.2-2.4l1.4-1.8c0.1-0.1,0.2-0.3,0.3-0.3L570.8,455.7L570.8,455.7z
	 M323.6,456.2c2.3,0.2,3.2,0.6,4.3,2.1C326.1,458.3,324.5,457.6,323.6,456.2L323.6,456.2z M570.8,455.7v-0.5l0.6,0.4L570.8,455.7z
	 M327.7,455.2h0.5l-0.4,0.6L327.7,455.2z M528.7,454.1v1.1l-1.2-1L528.7,454.1z M528.7,454.1v-0.5l0.6,0.4L528.7,454.1z
	 M534.4,452.5c-0.4,1.5-3.7,7.7-6.3,8.4c0.2-2,0.1-1.2,1.2-2.5c0.6-0.6,1.2-1.3,1.6-2.1C532.9,453.1,532.5,453,534.4,452.5
	L534.4,452.5z M342,457.3l-0.6-1.1c-3.6,0.3-3.4,2.8-7.8,3.1c-0.2-2.4-0.9-4.8-2.1-6.8c3.8-0.4,4.9-6.1,6.8-9
	C339.2,447.4,341.9,453.5,342,457.3L342,457.3z M541.8,472c-7.8,0-12.7,0.7-19-2.7v-14.2c2-0.1,1.2,0.2,2.7-0.5
	c-0.8,14.8-1.8,13,3.5,13.9c11.9,2,24.2,0,35.7-3.8c8.1-2.7,8.3-4.4,11.2-13c0-0.1,0.4-1.1,0.4-1.2l0.9-1.2c0,5.6-3.5,14.5-9,16.2
	c-1,0.3-1.9,0.5-2.8,1C559.6,468.7,548.1,472,541.8,472L541.8,472z M534.4,452.5V452l0.6,0.4L534.4,452.5z M501.3,452
	c-2.6,3.8-4.4,1.6-6.3,0C498.3,452.2,497.5,452.9,501.3,452L501.3,452z M488,450.4c0.7,0.6,1.5,1.1,2.4,1.2c2.6,0.8,1.5-0.4,2.8,1.3
	C491.8,453.4,488.2,456,488,450.4L488,450.4z M504.9,449.8c-0.1,2.1,0.4,4.3,1.1,6.3c-2-0.3-1.5,0.5-2.7-4.3h-2.1
	c0.1-0.1,0.3-0.4,0.3-0.3C502.6,450.9,503.8,450.3,504.9,449.8L504.9,449.8z M327.7,451.4h0.5l-0.4,0.6L327.7,451.4z M327.7,451.4
	l-2.7-1.1h2.1L327.7,451.4z M293,448.2c2,1.4,1,2,1.9,4.4c0.7,2,0.2,0.6,0.7,1.3c-0.4,1.3,0.2,0.6-1.1,1.1v1.6h1.6
	c0.1,0.9,0.3,1.8,0.5,2.7c-2.4-0.6-2.6-2.3-3.2-4.7C293,452.6,292.1,450,293,448.2L293,448.2z M529.2,465.7c1.3-2.6,1.7-2.1,3.3-4.1
	c1.1-1.3,2-2.9,2.9-4.4c2.9-4.4,3.7-7,7.5-7.3c-1.1,1.5-2,2.2-3.4,4l-6.3,8.4C532.3,463.9,530.9,465.1,529.2,465.7L529.2,465.7z
	 M325.2,450.4l-6.8-0.5C320.7,449.8,323.9,449.5,325.2,450.4L325.2,450.4z M504.9,449.8v-0.5l0.6,0.4L504.9,449.8z M315.1,449.3h2.1
	v0.5c-0.4,0-0.7,0-1,0C315.3,449.6,315.7,449.7,315.1,449.3L315.1,449.3z M315.1,449.3L314,449L315.1,449.3z M313,448.2l0.2,0.2
	C313.2,448.4,313,448.3,313,448.2L313,448.2z M472.8,447.8l0.2,0.2C473,447.9,472.7,447.8,472.8,447.8L472.8,447.8z M311.9,447.8
	l0.2,0.2C312.1,447.9,311.9,447.8,311.9,447.8L311.9,447.8z M536.6,466.3c-0.6-0.4-1.3-0.6-2.1-0.5l7.6-10.4
	c5.5-7.5,3.9-6.7,9.8-8.2C549.6,451.5,541.7,458.5,536.6,466.3L536.6,466.3z M310.9,447.3h0.5l-0.4,0.6L310.9,447.3z M310.9,447.3
	h-0.5l0.4-0.6L310.9,447.3z M475.9,444.1c0,1.1,0.2,2.1,0.5,3.2c-1.4-0.7-0.5-0.4-2.7-0.5C474.3,445.7,475.1,444.8,475.9,444.1
	L475.9,444.1z M309.3,446.2h0.5l-0.4,0.6L309.3,446.2z M309.3,446.2l-0.5-0.5L309.3,446.2z M308.8,445.7h-0.5l0.4-0.6L308.8,445.7z
	 M288.3,452h-0.5c0-2.8-1.5-3.8,0.4-11.7c1.2-4.7,1-4.7,2.8-5.1c0.5,3.5,0.9,7,1.1,10.6c-2.8,1.5-1.9,0.5-3.2,4.2
	C288.4,450.9,288.3,450.1,288.3,452L288.3,452z M540.7,465.7c1.1-1.9,2.4-3.5,4.1-4.9c2.3-2.2,11-12.1,11.7-15.2
	c2.1-0.2,3.2-0.9,5.2-1.1l-4.6,5.9c-1.7,2-3,3.7-4.7,5.9c-0.7,0.9-0.4,0.7-1.1,1.5c-0.5,0.6-0.8,0.8-1.2,1.4
	c-0.6,0.8-0.4,0.6-1.1,1.5C545.4,465.3,545.7,465.7,540.7,465.7L540.7,465.7z M534.4,443.5l-1.2,1.5c-4.5,0.3-6.6,0.7-7.8-1
	C530.4,445.2,530.5,444.4,534.4,443.5L534.4,443.5z M534.4,443.5V443l0.6,0.4L534.4,443.5z M319.3,447.7c-3.3-0.4-6.3-1.8-8.7-4
	c-0.1-0.1-0.2-0.2-0.3-0.3c1.1,0.1,2.2-0.1,3.3-0.4l20.5-5.3c0.5,6.5,3.5,2.2-0.4,10.2c-1.7,3.5-0.9,1.6-3.9,3
	c-1.6-2.5-2.8-2.7-6.8-2.7v-0.5c2.5-0.4,4.8-1.3,7.1-2.4c2-1,1.4-0.4,1.9-1.8C327.5,444.6,322.7,445.5,319.3,447.7z M559.2,462
	l16.3-20c-1.4,6-1.2,4.2-4.6,8.5c-0.9,1.1-1.4,1.3-2.2,2.5l-3.7,5.3C563.4,460.7,563.4,461.9,559.2,462L559.2,462z M519.2,441.9
	c0.9,0.4,1.9,0.7,2.8,0.8c2.8,0.5,1.7-0.4,2.9,1.2C518.3,444.1,520.3,444,519.2,441.9z M550.8,464.1c1.3-2.1,2.8-4.2,4.4-6.1
	c0.6-0.8,0.6-0.7,1.2-1.4l8-10.5c2-2.8,2.3-4,6.9-4.2c-1.5,2.9-12.3,15.1-15.5,19.3c-1,1.3-1.6,1.5-2.4,2.8H550.8z M337.2,441.9
	l0.2,0.2C337.4,442.1,337.2,442,337.2,441.9L337.2,441.9z M571.4,441.9v-0.5l0.6,0.4L571.4,441.9z M315.7,439.9v-3.2
	c1.9,0.5,1.6,0.5,2.1,2.7L315.7,439.9z M335.6,437.2c1.2,0.8,0.6,0.1,1.1,1.6C334.7,437.4,336.5,438.8,335.6,437.2L335.6,437.2z
	 M595.7,436.7v0.5l-0.6-0.4L595.7,436.7z M589.7,438.8h-1.5c0.4-0.6,0.6-1,1.1-1.6l0.4-0.7c0.7-1,0.3-0.4,0.7-0.9L589.7,438.8z
	 M593.5,435.6c-0.5,2.1-0.2,1.6-1.6,2.1C592.9,436,592,436.7,593.5,435.6L593.5,435.6z M579.8,435.6c-0.5,2.1-0.2,1.6-1.6,2.1
	C579.2,436,578.3,436.7,579.8,435.6L579.8,435.6z M584.6,438.8c0.9-1.7,1.9-4.1,3.7-4.8C588,436.4,586.9,438.6,584.6,438.8
	L584.6,438.8z M579.8,435.6v-0.5l0.6,0.4L579.8,435.6z M590.3,434.6c0.5-0.5,2,0.7,0.6,0.3C591,434.8,589.5,435.5,590.3,434.6
	L590.3,434.6z M327.7,455.2l-3.2-1.1c-1,0.7-2,1.2-3.1,1.7c-3.1,1.4-8.4,5.9-4.6,9.8l2.5,2c0.7,0.7-0.7,0.3,1,0.8
	c0.1,0.1,0.3,0.1,0.4,0.2c0.1,0.2,0.3,0.2,0.4,0.2c0.4,0.1,0.9,0.2,1.4,0.2c3.4-0.1,7.9-4.9,8.3-6.6c0.8-3.5-1.2-3.3,0.7-4.5
	c0,7.8-0.2,6.5-6.7,14.9c-5.6,7.4-5.4,13.5-3.3,24c0.7,3.5,1.4,3.8,1.5,5.9c-1.8,0.4-0.3,0.1-1.5,0.6c-1.6,1.1-3.5,1.6-5.3,1.5
	c-2-8.2-8.9-24.8-12.1-34.3c-1-3-1.8-5.8-2.8-8.9c-1-2.9-2-5.5-2.8-8.8l-5.6-18.2c1.5-0.8,3.1-1.3,4.8-1.6c2.2,9.4,9,17.9,19.4,19.6
	C321.7,453.3,325.7,452,327.7,455.2z M568.8,436.2v2.1h-1.6c-0.7-3-1.5-1.9-2.1-4.3c2.9-0.8,0.4-1.5,4.3-1.6
	C569,433.7,568.9,434.9,568.8,436.2L568.8,436.2z M605.2,430.9v2.1c2.1-0.2,0.9,0.4,2-0.7l1.2-2c0.5,1.7,1.2,3.4,1.9,5
	c0.8,2.1,1,4.4,0.7,6.7c-2.9,2-3,2.7-4.8,3.2c-0.8,1.2-0.1,0.7-1.6,1.1c-2.1,2.9-11.1,4.7-15.1,5.1c-3.4,0.1-6.7-0.5-9.7-1.9
	c-1.2-2.8-1.8-5.9-1.6-9c8.5,2.4,17.6,0.9,24.8-4.2c1.3-0.9,1.7-1,2.1-2.7h-1.6c0.3-0.4,0.4-0.7,0.8-1.3L605.2,430.9z M477,430.9
	c5.9,6.8,2.6,13.5,10,18.5c0,5.9,2.7,7.4,7.4,4.3c4.8,4.2,4.7,0.7,7.3-0.2c1.7-0.6,1.2,1.8,1.2,3.8c-3.3,0.5-6.6,1.3-9.7,2.5
	l-29.4,8.1c-1.2-2.3-1.9-4.8-2.1-7.4c9-6,7.5-8.1,9.1-9.8c1.3-1.4,0.4-0.2,2.2-0.9c0.1,0,1-0.5,1-0.6c1.3-0.8-0.6-0.1,1.3-0.8
	c0.3,1,0.4,2.6,0.7,3.5c0.5,1.6,0.7,1.6,2.5,1.8c0-3.8-0.4-7.6-1.4-11.3c-0.5-3.2,0.2-3.2,0.4-5.6
	C477.5,434.8,477.3,432.8,477,430.9L477,430.9z M593.5,435.6c0.1-2.5,0.1-2.7,2.1-3.2C594.1,434.8,595,434.5,593.5,435.6
	L593.5,435.6z M581.4,438.2c1.1-2.8,2.7-5.2,4.8-7.4c0.8,1.7,0.4,1.3-2.6,5.9C582.6,438,583.2,437.8,581.4,438.2L581.4,438.2z
	 M481.2,431.9h-0.5l0.4-0.6L481.2,431.9z M603,429.8c-0.2,2.4-1.1,4.7-3.2,5.2C602.8,430.7,601.1,431.2,603,429.8L603,429.8z
	 M605.7,429.8l-0.5,1.1L605.7,429.8z M476.4,429.8l0.5,1.1L476.4,429.8z M605.7,429.8l0.3-1.2L605.7,429.8z M476,428.2
	c0.5,0.6,0.5-0.9,0.5,1.6C475.9,429.3,476,430.8,476,428.2L476,428.2z M603,429.8c0.2-2.5-0.5-0.9,1.1-2.1c-0.3,1,0.4,0-0.4,1.2
	C603.4,429.6,603.4,429.4,603,429.8L603,429.8z M570.3,437.7c0.4-1.7,0.6-3.5,0.5-5.2c6.4-3.1,6.8-5.2,6.8-15.3l2.6,2.7
	c0.1,0.1,0.2,0.2,0.3,0.3c1.2,1.5,2.2,3.3,2.8,5.1c0.7,1.7,1.1,1.4,1.2,3.5c-2.8,0.9-5.1,2.5-7,4.6
	C575.2,436.5,577,436.2,570.3,437.7L570.3,437.7z M595.7,436.6l3.8-7.3c1.1-2-0.4-1.5,2-2.2c-0.8,3.3-3.5,6.2-4.3,9.5H595.7z
	 M597.2,428.7v-1.6h1.1C597.8,429.3,597.3,428.7,597.2,428.7L597.2,428.7z M606.7,425.6c-2.3-0.1-2.8-0.5-5.8-0.5l2.4-1.8
	c0.8-0.6,1.5-1.2,2.2-2c1.6-1.6,2.5-3.9,2.2-6.2h0.5c0,2.7,0.4,2.4,0.5,4.8c-1.3,1.9-0.9,0.2-1.7,2
	C606.8,423,606.6,424.3,606.7,425.6L606.7,425.6z M301.3,426.9c-2,1.7-4.3,3-6.8,3.8c-4.8,2-9.9,3-15.2,2.8
	c-2.7-3.9-4.8-6.6-4.8-13.2c1.7-0.4,0.7-0.1,2-1.2c1.9-1.8,4-3.2,6.4-4.2c0.3,3,1.8,2.7,6.3,1c2.5-0.5,4.2-2.8,4.3-5.2
	c5.4,0,2.7-0.9,11.1,1.1c0.3,2.8,1.5,3.2,2.1,5.8l-0.7,0.3c-0.8,0.3,0.3-0.3-0.9,0.3v3.2l-3.8,2.5c-2.3,1.2-3.3,0.3-3.5,3.3
	c2.8-0.7,5.2-2,7.5-3.6c1.5-0.6,2-2.9,1.3-5.8c0-0.1,0.2,0,0.2-0.1l1.2,3c0.4,1.2-0.2,2.3-1.2,2.8L301.3,426.9L301.3,426.9z
	 M282.9,415.1v-0.5l0.6,0.4L282.9,415.1z M497,411.3c2.5-1.7,4.1-6.2,4.8-9c2.1,3,1.6,11.4,1.6,14.7c-2.6-0.6-3.1-1.9-5.8-2.1
	C497.6,413.8,497.5,412.6,497,411.3L497,411.3z M284,414.5c0.1-0.1,0.3-0.4,0.3-0.3l2.8-1.4c1.2-0.5,2.5-0.8,3.7-1
	c-0.1,0.1-0.3,0.1-0.3,0.3C288.8,413.7,286.4,414.6,284,414.5L284,414.5z M319.8,407.7v-1.1c3.3-0.4,6.7,0.8,9,3.2
	c-2.1,0.2-1.2,0.6-3,0.4c-3.3-0.3-6.1-1.9-8.5,2.8c3.7,0,2.6-1.1,6.8-1.1c-0.6,2.3-1.3,1.3-1.6,4.3c1.7-0.4,0.4,0.1,1.8-0.9
	c3.2-2.3,5.6-5.8,11.6-0.3c3.3,3.5,5.1,8,5,12.7c-0.3,5.6-0.1,6.7-2.5,6.9v1.1c4.1,0.1,2.5,1.3,5.2,2.1c-0.2-2.1-0.3-2.1-2.1-2.7
	c0.8-2.9,1.2-5.9,1.1-9l3.5,7c0.6,1.2,1,2.7,1.2,4c0.5,1.5,0.9,3.1,1,4.8c2.4,1.2,1.5,0.4,2.8,2.9l3.8,7.7
	c3.2,7.8-2.6,10.4,0.7,10.4c1.2,0,1.2-0.4,2.1-1.1c0.4,4.6,1.2,3,0.4,8.3c-0.7,3.9,5.6,13-2,18.1v-1.6c-2.8,0.3-2.5,1-4.1,2.2
	c-1.3,0.8-2.8,1.5-4.3,2c-4.1-2.1-4.8-1.8-4.8-7.9c1.1,0.4,2.1,0.5,3.2,0.5c-0.4-1.2-0.1-0.9-1.6-2.1c-2.9-2.4-3.2-4.5-3.9-2.6
	c-0.2,0.4,0,0.7,0.4,1.3c0.1,0.2,0.4,0.5,0.4,0.7l0.5,0.6c-1.2,1.7-1.8,3.7-1.6,5.8c-1.9-1.5-3.4-3.5-4.3-5.8c0-0.8,2.7-5.8-0.1-4.9
	c-0.1,0-1.8,1.1-2,1.2c-0.1-2.5,0.5-2-1.6-2.7c-1.4,6.2-0.5-0.8-0.5,5.8c-5.3,1.4,1.1,2-9.5,1.1c0.3-1.9,1.1-3.6,2.2-5.1l7.5-9.8
	c4.3-2,6.6-0.3,6.7-0.3c1.7-3.3-0.3,0.1,6.8-3.7c0-5.8-1-6.1-1.1-9c1.7,1.2,0.5,1.1,3.7,1.1c-0.4-4.3-3.6,0.2-8.8-15
	c-0.3-1.1-0.7-2-1.3-2.9l-1.1-2.1c-8.4,0-4.8-4.7-9-5.8c-1.1,1.2-0.3,2,0,3.2c-2.2-1.5-3.7-3.8-4.2-6.4c-0.7-2,0-1.3-2.1-1.5
	c0,5.6,2.3,10.6,8.4,10.6v1.1c-3.9,0.1-6.5,1.8-10,2.1c-3.7-7.1-5.1-3.7-7.4-2.1v4.3c-5.9,2.8-5.2,1.5-9-3.6
	c-1.6-1.7-2.8-3.7-3.6-5.9c2.2,1.6-0.1,1.4,2.7,2.1c0.7-1.6,0.5-1.5,0.5-3.7c1.5-1,2.8-2,4.1-3.3c1.8-1.1,2.8-3,2.8-5.1
	c0-2.5-1.5-10-5.2-11.1c0.3-1.3,1.2-2.4,2.5-2.8C313.3,404.3,315.8,407.6,319.8,407.7L319.8,407.7z M450.1,402.4v2.7H449
	c0.1-0.8-0.2-0.5,0.2-1.4C449.9,401.9,449.7,402.9,450.1,402.4L450.1,402.4z M409,403.4c4.7,3.1,3.9,1.1,7.9,0
	c-0.1,1.2,0,2.3,0.3,3.5c0.7,2.1-0.2,0.8,1.9,1.9c2.1-4.4-1.9-8.1,4.3-12.2c0.5,2,4.1,8.5,8.8,7.7c2.6-0.4,2.4-0.9,3.9-2
	c3.9,1.1,7.3,3.5,9.4,6.9l1.5,2.8c0.8,1.3,0,0.1,0.7,0.9c-0.9,1-1.5,2.3-1.6,3.7c3.8-0.1,0.8,0.1,2.7-1c1.3-0.8,1.8-0.4,3.1-1.1
	c-0.9-1.7-0.2-1.9-2.7-2.1c-0.2-1.5-0.7-2.9-1.6-4.3c7.5,0,11.4,4,14.8,9.5c0.6,1,0.9,1.2,1.6,2.1l2.1-0.6c1.2,1.8,4.9,4.7,4.6,9.5
	l0.1,3.8c3.1-0.3,1.1-0.5,3.2-2.1c0.2,2.2,1.1,4,1.1,6.3c0,3.5-1.4,5.7-2.1,8.4c-0.1-0.1-0.2-0.4-0.2-0.4s-0.1-0.3-0.2-0.4
	c-0.5-1.3-0.1-1.2-1.2-2l-1.3,4.3c-0.8-3.8-1.1-7.8-0.8-11.7c-2,0.5-2.1,1.2-2.1,5.2c-1.2-0.8-0.5-0.6-2.1-1.1
	c0.4,5.4,2.1,1.1,2.1,12.2c0,2.3-7.2,7.4-10,7.4c-2.5,0.3-5,0.1-7.4-0.5c0.4-0.9,1.3-2.8-0.2-2.2c-2.8,1.2,0,1.7-5.1,1.7
	c0.3,2.8,0.5,1.9,3.1,2.1c1.8,0.2,2.2,0.8,4.3,1c-2.8,4.2-11.1,4.3-12.2,3.2c-0.4-0.8-0.5,1,0-1.6c-2,0.1-14.2,4.1-15.3-9.5
	c-1.3,0.4-0.4-0.2-1.2,0.4l-1,1.2c-0.4-1.8-4.1-11.1,5.2-11.1c4.1,0,6.8,5.3,10.6,6.3c-0.6-2.8-1.3-2.3-2.7-4.3
	c1.9-2.5,4.7-1.8,6.1-2.3c1.1-0.4,1.1-1.3,1.8-1.3c2.5,0,2.6,2.8,4.8,4.3c1.1-1.9,0.4-2.3,0-4.3c1.9-0.5,1.2-0.2,2.1-1.6
	c-9.1-2.1-6.2-2.4-10.3-8.2c-1-1.4-0.3-0.9-1.9-1.3c-0.6,1.4-0.1,0.7,0,3.2c-4.1-0.6-8.1-2-11.6-4.2c-5.2-3.6-5.8-7-7.9-8.4
	c-1.2,0.8-0.6,0.1-1.1,1.6c-0.9-0.5-1.6-1.2-2.2-2l-3.9-5.6c-0.6-1.1-1.1-2.3-1.2-3.5c1.4,1,0.8,0.9,2.7,0.5c-0.1-3-0.6-2.6-1.9-4.4
	C410,406.5,409.4,405,409,403.4L409,403.4z M550.8,400.2c1.1,0.6,2.2,1.1,3.4,1.3c2.3,0.6,1.8,0,2.9,1.8c-1.9-0.2-3.6,0.3-5.2,1.1
	C551.7,403.6,551.1,401,550.8,400.2L550.8,400.2z M436.9,395V394c0.9-0.4,1.8-1,2.7-1.6c1.2,2.6,2.4,6.8,8.4,6.8l-0.5,5.8
	c-1.9-0.2-1.4-0.1-2.5-1.2c-2.1-2.2-5-3.7-8-4.1L436.9,395z M592.5,397.7c4-0.5,7.9,1.3,9.9,4.8c1.9,2.5,3.2,5.3,3.8,8.3
	c-1.2-1.2-3-1.8-4.7-1.6l1,1.6c3.3,4.1,4.3,5.1-0.6,9.8c-2.1,2-3.2,1.6-5.7,2.8c-0.5-4.1-1.4-8.2-2.7-12.2c2.5,0.7,2.2,2,3.9,3
	c2.1,1.3,1.9-0.7,0.4-2.6c-0.9-0.9-1.9-1.7-2.9-2.4c-1.5-1.2-2.1-0.7-2.8-2.4c-0.6-1.5-0.5-2.5-1.2-4l1.7-2c-0.3-0.4-1.2-2-1.3-2.1
	C591,397.8,590.9,397.7,592.5,397.7L592.5,397.7z M598.8,394.5c0.1,0.1,0.3,0.1,0.3,0.3c0,0.2,0.2,0.3,0.3,0.3
	c0.2,0.4,0.4,0.6,0.5,1C598.5,395.5,599.1,396.1,598.8,394.5L598.8,394.5z M597.3,395l0.2,0.2C597.3,395.2,597.2,395.1,597.3,395
	L597.3,395z M596.7,386.1c0.5,1.2,0.4,1.5,0.9,2.8c1.8,4.5,2.8,3.3-4.3,4.9c-6.1,1.3-5.1,2.8-3.8-2.8
	C590.3,387.9,590.5,387.5,596.7,386.1L596.7,386.1z M547.7,389.2c1.8,0.6,1.6,1.1,2.6,2.2c1.2,1.4,1.2,1.9,3.3,2
	c0,3.9,1,3.7,1.1,6.8c-1.1-0.7-1.2-1-2.4-1.8c-1.9-1.2-2-0.4-2.8-1.9C548.6,394.1,548,391.6,547.7,389.2L547.7,389.2z M442.2,390.2
	c2.3,1.6,2.8,1.8,6.1,0.9c4.4-1.2,4.4-2.9,6-4c0,2.8,0.4,4.2-0.9,5.9c-2.6,3.4-5.9,4.3-9,1.3c-0.5-0.5-1.1-1.1-1.5-1.7
	C442.6,392.1,442.4,390.7,442.2,390.2L442.2,390.2z M374.2,389.7c4.7-1.1,11.6-1.2,14.8,3.1c1.2,1.7,0.1,1.5,2.6,1.7v-2.1
	c3.9,2,4.3,3.6,6.3,7.4l-2.1,0.5c2.6,5,0.6,12.2-4.3,12.2s-6.2-2-7.5-7.2c-0.6-2.2,0.1-1.8-2-2.3c-0.8,1.6-0.5,2-0.5,4.3
	c-1.5,0.5-3,1-4.5,1.3c-2.7,0.4-2.5-0.8-5-0.8c-1.7,0-0.8,2,1.2,2.9c0.9,0.4,2.4-0.7,2.4,5.5c0,2.4-0.9,2.3,0,4.3
	c1.9-0.5,1.2-0.2,2.1-1.6c2.6,1.2,5,0.7,9.6,6.7c3.6,4.7,1.1,4.5,1,8c3.5-0.3,0.6-1,3.9-1.8c3.5-0.9,0.1-2.5-0.7-3.5
	c-0.6-1.2-1.2-2.4-1.6-3.6c8.5,0.2,11.4,5.3,14.6,9.6c2.1,2.8,7.9,2.7,8,9.9c0,1.8,0.4,3.6,1.1,5.2c1.4-0.9,1.1-0.3,1.6-2.1h1.1
	c0.2,2,1.1,3.5,1.1,5.2c-0.4,3.1-1.1,6-2.1,9l-1.6-2.7c-0.4,1.3-0.8,2.8-1.1,4.3c-1.8-1.3-1.1-7.2-1.1-11.6
	c-2.4,0.9-2.1,3.5-2.1,5.8l-2-1.7c0,5.2,6.2,11.5-2.4,17.3c-6.7,4.5-7.7,2.3-13,2.3c0.3-0.9,0.4-1.8,0.5-2.7
	c-2.8,0.7-2.3,2.3-5.8,1.6v2.1c1.5,0.4,5.6-0.4,7.4,2.1c-5.5,1.5,0.1,2.7-12.7,2.7c0.4-1.7,0.5-0.8,0-2.1c-3.3,0.8-6.3,2.6-12-1.8
	c-2.1-2-3.2-4.9-2.8-7.7c-1.5,0.4-1.1,0.3-2,1.8c0,0.1-0.1,0.3-0.2,0.4c-1.1-4.7-1.1-0.4-1.1-8.4c1.2-0.8,4.3-4.7,9-2.1
	c2,1.2,6.4,5.4,7.9,5.9c-0.6-2.8-2-2.8-2.7-5.2c3.7-1-1.2-1.1,5.8-1.1l2-2.2c4.1,2.2,2,2.9,4.9,4.9c1.2-1.3,0.1-3.3,0-4.8
	c1.6-0.4,1.2,0,1.6-1.6c-9.2,0-7.6-8.1-11.6-9.5c-1.1,1.2-0.3,2,0,3.2c-2.2,0-4.5-0.4-6.6-1.3l-5.1-2.8c-6.3-4.8-5.9-7.1-7.8-8.5
	c-1.2,0.8-0.6,0.1-1.1,1.6c-3.5-2.7-6.1-6.3-7.4-10.6c1.7,0.8,4.3,0.9,1.1-3.7c-0.7-0.9-1.2-2-1.7-3.1c-1.7-4.3-1.9-9-0.7-13.5
	l2.3-4.5c0,3,0.3,3.5,2.1,4.8c1.1-2.1-0.1-8,3.8-12c11.8-12.2,15.8-1.9,16.1-1.6c1.2,0.9,2.6,0.4-0.3-3.5
	C374.9,390.9,374.6,390.3,374.2,389.7L374.2,389.7z M547.7,389.2h-0.5l0.4-0.6L547.7,389.2z M553.4,391.3l-4.9-4.6l7.5-1.7
	C555.5,387.3,554.5,386.8,553.4,391.3L553.4,391.3z M416.4,385c1.5,1.1,4.3,7.4,5.2,9.5c-1.5,1.1-0.7,1.1-2.7,1.6
	c-0.3-1.9-0.7-3.7-1.2-5.6L416.4,385z M371.6,388.1c-4,0-4.6-0.4-9,2.1c-5.5,3.2-5.9,7.3-9.4,9.6c-4.9,3.1-5.9,9.9-5.9,15.7
	c0,4.2,2.1,6.7,2.1,9.5c-0.2,2,0,4,0.4,5.9c2,5.3,5.5,9.8,10.1,13.1c2.7,1.9,2.6,0,4.9,2.5c1.2,1.5,2.8,2.7,4.6,3.3
	c3.8,2.2,8.3,3.4,12.7,3.2c0.8,2.8,4.5,3.9-2,4.8c-1.5,0.4-3,1.2-4.3,2c-2.2-1.3-4.8-2-7.4-2.1c-3.6,0.4-6.5,3.3-6.8,6.8
	c0,2.9-0.1,5.9,2,8.1l2,2.8c2.2,4.3,6.2,4.3,7.1,8.2c1.2,0,2.5-0.2,3.7-0.5c0.5,2.2,3.2,1.7,5,2l7.3-1.3c3.6-0.9,1.7,0.4,3,0.4
	c2.9,0,2.5-1.4,4.3-2l4.6-2.2c0.4,2,0.9,3.9,1.6,5.8c-1.7,0.3-3.5,0.7-5.1,1.2l-16.1,4.5c-1.2-1.9-0.6-1.6-2.7-2.7
	c-0.4,2.3-0.1,0.9,0,3.7c-7.1,0.6-18.6,6.3-25.8,6.8c0.7-1.6,0.1-1.3,0-3.7l3.5-1.9c1-1.3-0.6-0.3,1.3-1.9c1.3-1.2,0.5-0.2,1.8-1.9
	c2.4-3.2,4-4.9,4-10.2c0.1-2-0.4-4.2-1.4-6c-2.6-5.1,1.2-6.7-2-13.2c-1-2-0.6,0.5-0.8-2.3c0-2.7-0.6-5.3-1.8-7.7l-6.9-12.1
	c-0.5-1.8-0.6-3.4-1.2-5.1c-0.9-3.9-2.8-7.5-5.4-10.5c-1.3-1.3-0.5,0.5-1.3-1.8c-0.4-1.2-0.2-1.3-0.6-2.5c-0.3-0.7-0.6-1.4-1.1-2.1
	l-2.3-2.9c-0.1-0.1-0.2-0.2-0.3-0.3c-0.1-0.1-0.2-0.2-0.3-0.3c-1.5-1.2-3.2-2.1-4.9-3c-1.6-1.1-5-6-11.4-6c-2.7,0-2.8,0.8-5.1,0.4
	c-5.2-1-10.6-1.6-13.4,3.9c-8.9,0-13.4-0.7-19.7,2.5c-3,1.4-5.8,3.3-8.3,5.5l-1.2,1.4c-2.2,2.7-2.8,6.4-1.2,9.5
	c3.5,9.8,3.5,9.1,13.6,9.1c-2,8.8-1.6,3-1.6,14.3c0,3.7,2.1,4.7,1.9,7.2c-0.2,2.9,0,5.9,0.6,8.8c0.5,2.5,1.3,4.9,2.2,7.3
	c2.1,5.4,0.3,13.8,6.3,20.6l4.8,7.8c1.5,2.8,1.1,5.1,4.6,5.4v1.1c-5.4,0-5.3,1.1-13.8-0.4c-2.5-0.4-4.5-0.6-6.7-1.2
	c-2.2-0.5-4-1-6.2-1.7c-18.4-5.6-34.3-20-40.1-38.5c-3.4-11-4.2-20.7,0.3-31.8c2.5-6.7,7.2-12.5,13.4-16.1
	c9.7-5.6,22.2-8.3,32.9-10.9c1.9-0.4,3.7-1.1,5.6-1.8c1.7-0.7,3.8-1.1,5.8-1.7l91.7-25.9c1.8-0.4,3.6-1,5.8-1.6
	c2-0.7,3.9-1.2,5.9-1.5c0.4,1.8,0.7,2.5,1.2,4.6l2.8,9.9c0.6,1.6,1.1,3.3,1.4,5c0.4,5.4,0,6.7,1.6,11.1c2.1,5.6-2.2,8.4,7.2,18.1
	c4.3,4.3,6.2,3.6,9.4,6.4c4.9,4.3,9.6,5.6,16.6,5.6c0.5,2.5,1,2,2.1,3.7c-1.3,0.4-0.6-0.2-1.1,1.1c-2.8-0.2-5.4,0.8-7.4,2.7
	c-3.9-2.7-3.5-2.1-8.4-2.1c-2.5,0-4.8,3.2-5.2,5.2h-1.1c-0.2-1.8-2.3-4.5-3.4-6.7c-3.6-7.7-6.8-5.9-9-9l-2.8-4.1
	c-0.1-0.1-0.2-0.2-0.3-0.3l-1.4-1.2c-4.2-3.3-7.4-4.1-13.8-4.1c-2.2-3.4-6-5.3-10-5.2v-5.4c2.8-0.3,2.5-0.9,4.3-2.1
	c0.5,1.9,1.5,3.6,2.8,5.1c4.1,4,10.6,2.2,13.4-2.2c1.7-3.4,2.5-7.1,2.3-10.9c0-7.3-5.9-9.5-11.3-12c-3.9-1.9-5.7-3.4-13-2.2
	C374.6,386.9,372.4,388.2,371.6,388.1L371.6,388.1z M560.4,384.5v0.5l-0.6-0.4L560.4,384.5z M560.9,383.9l-0.5,0.5L560.9,383.9z
	 M415.8,383.9l0.2,0.2C416,384.1,415.7,384,415.8,383.9L415.8,383.9z M454.9,382.3l0.6,1.1L454.9,382.3z M433.2,382.9
	c1.8,0.4,5.8,4.5,5.8,5.8v2.1l-3.1,0.6C434.7,388.9,434.4,385.2,433.2,382.9L433.2,382.9z M585.1,381.8c1.8-0.2,3.5-0.5,5.2-1.1
	c0.3,1.8,0.6,3.5,1.1,5.2h-1.5c-0.2-2.5,0.5-0.9-1.1-2.1c-0.6,2-1,4.2-1.1,6.3h-0.5C586.7,387.4,586,384.6,585.1,381.8L585.1,381.8z
	 M560.9,383.9c0.8-1.1,1.9-1.9,3.2-2.1C563,383.4,562.9,383.5,560.9,383.9L560.9,383.9z M454.9,382.3l-0.6-1.1L454.9,382.3z
	 M595.1,377.6c0.2,2.1,0.5,4.3,1.1,6.3c-1,0.2-1.9,0.5-2.7,1.1C593.5,381.4,591.6,378.5,595.1,377.6L595.1,377.6z M564.5,381.3
	l-0.5,0.5L564.5,381.3z M565.1,380.7l-0.5,0.5L565.1,380.7z M565.1,380.7v-0.5l0.6,0.4L565.1,380.7z M507.6,380.3H507l0.4-0.6
	L507.6,380.3z M593,375c-0.2,0.8-0.4,1.6-0.8,2.3c-1.2,2.1-5.3,2.2-7.6,2.4c-0.4-1.1-0.5-2.1-0.5-3.2C588.6,376.6,590,375.1,593,375
	L593,375z M593,375v-0.5l0.6,0.4L593,375z M546.1,385.5c0-3.9-0.9-3.7-1.6-6.8l11.2-3.1c2-0.6,4-1,5.8-1.6c1.8-0.6,4-1.2,5.8-1.7
	c-2,4,0.1,4.6-7.8,9.6c-1.8,1.2-6.4,1.4-10.2,3C546.4,386.1,548.8,386.1,546.1,385.5L546.1,385.5z M559.8,370.8
	c-0.3,2.8,0.5,1-1.1,1.6L559.8,370.8z M561.4,371.2c1-4,1.5-8.1,1.6-12.2l1.1-0.3c0.5-0.1,1.1-0.2,1.6-0.3l1.6,11.6
	C565.2,370.8,563.4,371.2,561.4,371.2L561.4,371.2z M593,373.4c-3.3,0.3-6.5,1.8-10,2.1c-0.1-2.8-1.3-3.8-1.6-6.8
	c3.3-1.1,6.7-2,10-2.7C593,369.3,591.7,370.5,593,373.4L593,373.4z M531.9,367.6l0.2,0.2C532,367.8,531.8,367.6,531.9,367.6
	L531.9,367.6z M481.2,431.9c0.8,0.4,5.5,3.1,4.3,0.9c-0.5-1.1-2.5-2-3.1-2.7c-5.3-4.7-4.3-10.6-4.3-17.8c-0.3,0.1-1.8-0.5-2.1,3.7
	c-1.6-1.2-1.3-1.8-2.1-3.7c-2.2-5.6-2.3-9-3.7-14.7c1.4,0.9,1.4,1.4,3.2,0.5c-0.7-2.7-2.8-2.7-4-5.5c-1.1-2.6-1.5-5.4-1.2-8.3
	l2.1-1.1c-1.1-4.5-3.1-3-1.6-9.5c0.1,0.1,0.2,0.2,0.2,0.4c0.9,2.8,2,5.5,3.5,8.1c1.6-1.2,1.2,0.2,0.5-2c-1.2-4.2-3.9-12,1.2-15.7
	c1.7-1.5,3.9-2.3,6.1-2.3c-0.7,1.4-0.4,0.5-0.5,2.7c2.6-0.3,1.4-0.3,2.8-2c4.8-5.9,9.7,1.2,10.3,5.2c0.9,5.2-1.8,3.8,1.8,9.3
	c2.9,4.5,3.5,9.8,3.1,16.5c-0.1,1.8-4.2,8.2-0.1,5.8c0.4-0.3,0.8-0.6,1.2-1.1c0.4-0.7,0.3-0.6,0.5-1.6h1.1c0.2,1.5,0.7,2.9,1.6,4.3
	c-0.8,0.4,1,0.5-1.6,0c-0.5,2.5-2.2,6.6-4.3,7.9c-0.4-2.2-2-4.1-4.3-4.8c0.2,2.4,1.4,3.3,2.6,6.9c0.7,2.8,1.1,5.6,1.1,8.4h1.6
	l0.6-2.1c6.3,1.4,8.5,9.3,8.4,15.3c-0.1,3.9-0.7,3.6-2.1,5.8c0.9,4,4.5,4.5-3.7,10c0.3-2,0.4-3.8,0.5-5.8H499c0,1-0.3,2-0.9,2.8
	c-3.5,7.2-11.1,0.8-12.3-1.2c-1.1-1.9-1.7-3.9-2.7-5.8c0.9,0.1,1.8,0.3,2.7,0.5C485.7,435.7,482.4,436.2,481.2,431.9L481.2,431.9z
	 M567.7,358.6c10.7-0.9,6.2-6.9,11.4,11.3c4.8,16.9,8.9,33.6,14.1,50.7c1,3.3,0.1,2.4,0.8,4.4c1,1.8,1.3,3.8,1.1,5.9
	c-3.5,0.8,0.1,1.1-6.8,1.1c-0.1-1.5-0.6-3-1.5-4.3c-0.3-0.4-0.4-1.1-0.6-1.5l-6.3-14.3c-0.9-1.9-0.1-1.6-2.1-2.1v2.7l-1.6-1.6
	c-0.1-0.1-0.2-0.2-0.3-0.3c-1.8-2.4,0.6-0.7-5.4-3.5c-3.1-1.2-6.2-2.5-9.1-4.1c-3.7-2-5.9-5.9-5.8-10c0-1.8,4.7-5.5,6.2-6.5
	c3-1.9,5.1-2.8,6.4-6.3c1.1-3.5,1.5-7,1.2-10.6L567.7,358.6z M290.8,356c-0.4-0.5-0.4,0-0.5-1.1c-0.1-0.5-0.1-1.1,0-1.5h0.5V356
	L290.8,356z M289.9,350.7c0.4,0.4,0.4,0.2,0.7,0.9c0.5,1.1,0.1,0.3,0.4,1.2h-1.1L289.9,350.7z M550.3,349.7v1.6
	c-1.6-0.2-1,0-2.1-0.5C549.4,349.1,547.8,349.9,550.3,349.7L550.3,349.7z M453.8,350.2c0-1.2,0.9-0.2,0.4,0
	C454.2,350.2,453.8,351.7,453.8,350.2L453.8,350.2z M290.4,349.7l0.2,0.2C290.5,349.8,290.3,349.7,290.4,349.7L290.4,349.7z
	 M291.4,348.1v0.5l-0.6-0.4L291.4,348.1z M291.9,347l-0.5,1.1L291.9,347z M452.7,341.8c0.1,2.3,0.5,2.8,0.5,5.8
	c-1.6,0.4-0.9,0.3-2.1,1.1l-4.2-2.1L452.7,341.8z M538.7,343.8v0.5l-0.6-0.4L538.7,343.8z M507.6,380.3h4.8
	c-0.1-0.1-0.3-0.4-0.3-0.3l-5.9-4.6c-0.9-0.9-1.6-1.9-2.4-2.9c-2.9-3.6-3.3-8.7-0.7-12.6c2-3.3,2.6-3.5,6.7-4.4v-2.1h-1.6
	c2.5-3.4,9.8-1,13.8,3c3.5,3.5,6.3,7.7,8.3,12.2c-0.6,0.9-2.1,2.2-2.3,3c-0.9,3.6,3.5-1,5.9-1.6c2.5-0.5,1.4,0.7,3.8-0.4
	c-1-1.4-1-2-3.2-2.1c-0.5-2.4-0.9-4.9-1.1-7.4c0-5,0.5-9.7,4.5-12.3c2-1.3,4.2-2.2,6.6-2.4c-0.6-2.1-0.2-1.6-5.8-1.6
	c4.2-3.6,8.9-0.4,10.6,0c0,2.1-0.2,1.7,0.5,3.2c-3.1,0.8-3.5,4-6.5,5.6c-1.7,0.9-1.4,0.4-2,2.3c2.8-0.3,4.1-2.1,7.3-1.9
	c3.1,0.3,1.4-0.1,4.9,5.1c3,0,3.6,0.5,6.8,0.5c-0.3,5.2-2,10.4-4.8,14.7h-5.3c-0.5,1.9-0.1,1.4-2.1,1.6c-0.1-2.6,0.4-5.2,1.3-7.6
	c1.3-3.1,2.7-3.1,3.4-6.1c-4.5,2.4-5.8,2.7-7.1,9.8c-0.6,3.3,0,2.3,0.3,5c-1.3-0.1-2.7,0.3-3.7,1.1c0.3,2.8,0.8,5.4,1.3,8.2
	l7.1,21.9c2.9-0.3,2.9-1.6,6.8-1.6c0.8,1.6,1.9,3,3.2,4.3c0.3-1.7-0.1-3.4-1.1-4.8l9,4.2c0,9.8-2.8,6.7-1.6,9.5
	c2.2-2.1,3.7-4.9,4.3-7.9c1.1,0.1,2,0.8,2.4,1.8c1.6,3.7,2,7.8,1.1,11.7c-1.6,8.3-5.4,5.5-12.5,5.5c0.6-2.5,1.6-2,0.5-4.3
	c-1.7,1.2-0.6,0.7-1.8,2.4c-1.2,1.8-1.3,0.6-1.9,2.8c2,0,4,0.4,5.8,1.1c-4,2.3-9,1.2-11.6-2.7c-1.2-1.6-2.8-2.9-4.5-3.9
	c-1.6-1.5-2.6-3.5-2.8-5.6c1.8-0.9,3.1-1.6,3.7-3.7c-1.7,0.5-3.4,1.2-5,1.9c-2,0.7-4.1,1-6.1,0.7v1.6c0.9,0.3,1.8,0.4,2.7,0.5
	c0,3.7-0.1,3.6-1.6,5.8c-1.7-1.2-1.2-1.5-3.7-2.1c0.1,3.6,5.1,7.8-0.6,13.6c-1.9,1.9-4.4,4.8-9.1,3c-2.2-0.8-2.1-1.7-2.4-2.4
	c-2.3,0.2-1-0.1-2.7,1.1c-1.2-1.7-6.6-5.4-7.4-13.2c-0.3-2.7,1.1-4.1,1.1-6.3h0.5c0.1,2.9,1.2,5.9,2.8,8.3c0.8,1.2,1.9,2.1,3.1,2.7
	c2,1,2.8,1.2,4.1-0.4c-1.3-0.4-0.7,0-1.8-0.8c-4.1-3.5-6.3-8.6-6.1-13.9c0.1,0.1,0.2,0.1,0.3,0.3c1.8,2.4,4,4.5,6.7,6
	c-0.2-1.3,0.1-0.9-1.2-2.5c-5.9-6.8-4.9-9-4-15c0.4-2.5,1.1-4.5,1.6-6.8c2.5,0.6,6,1.6,6.8-1.6c-3.5,0.1-6.9-1.2-9.5-3.7l-6.7-7.1
	C510.1,384.1,508.7,382.2,507.6,380.3L507.6,380.3z M443.8,345.4c-1.2-0.6-2.4-1-3.7-1.1v-1c2-0.8,4-1.9,5.8-3.2l6.3-2.7v3.2
	C448.4,341.6,446.5,343.6,443.8,345.4L443.8,345.4z M446.4,335.9l0.2,0.2C446.6,336.1,446.4,336,446.4,335.9L446.4,335.9z
	 M584.9,342.2l-2.1-7.3l0.3-0.1c1.8,2.3,2.8,5.1,3.2,7.9c-0.3,4.6,2.5,4.8-8,10c-6,3-9.4,3.2-15.8,3.2c-12.2,2.7-10.2-5.5-11.4-13.9
	c1.4-2.8,2.7-3.1,6.6-5.1c2.5-1.3,5.1-2.2,7.9-2.7c2.8-0.4,6.1-1.3,9-1.6c3-0.3,7,0.2,8.4,2.1c-1.5,0.4-0.8-0.1-1.6,1.1
	c1.1,4,1.6,8.1,1.6,12.2C586.3,348.5,585.6,345.7,584.9,342.2L584.9,342.2z M451.1,334.3l0.2,0.2
	C451.3,334.5,451.1,334.4,451.1,334.3L451.1,334.3z M451.6,330.6l0.1,1.7h-1.6L451.6,330.6z M585.6,327.5c3.9,0,7.8,6.7,7.9,11.1
	c-1.5-1.1-0.7-1.1-2.7-1.6c0.4,3.8,2.7,6.8,2.7,11.6c0,4.3-0.5,6.7-0.5,11.1c1.1-0.1,0.4,0.3,1.2-0.3l0.8-0.8
	c2,8.9,2.7,3.9,2.7,16.9c-1.4-1.1-0.9-0.8-1.5-2.7c-0.4-1.2-0.5-2-0.9-3.3c-0.6-2.1-1.4-4.2-2.3-6.1l-12.7,3.2
	c-0.3-3.1-2.4-7.4-3.2-10.6c2.7-0.8,5.1-2.1,7.3-3.8c5.8-3.8,4.8-8.6,2-15.5c-1.1-2.7-2.7-5.2-5.6-5.5c0.3-0.4,0.5-0.9,0.8-1.2
	C582.6,328.7,584,327.8,585.6,327.5L585.6,327.5z M573,329.1h6.3c-0.4,1.2-0.1,1.6-1.6,1.6h-2.1c-0.9,0-1.8-0.2-2.7-0.5L573,329.1z
	 M435.9,329.1c-1.2,1.6-0.4,1.6-1.6,0H435.9z M435.9,329.1v-0.5l0.6,0.4L435.9,329.1z M435.9,334.3c0.2-2,3-6.2,5.2-6.8
	c-0.4,1.7-1.2,1.9-2.3,3.5C438.1,332.3,437,333.4,435.9,334.3z M307.2,327.5v0.5l-0.6-0.4L307.2,327.5z M443.8,333.8l7.9-10v3.2
	c-1.4,1-2.8,2.2-3.8,3.6C446.4,332.5,446.6,333.2,443.8,333.8L443.8,333.8z M446.4,326.4c-1.4,2.1-5.6,7.8-7.9,8.4
	c1.4-2.7,3.8-4.6,5.8-8.4H446.4z M446.4,326.4v-0.5l0.6,0.4L446.4,326.4z M476,428.3c-5.5-3.6-0.1-6.4-10.7-12.4
	c-2.1-1.2-4.6-9.5-13.5-10.2v-6.8c2.9-1.3,5-3.9,5.6-7.1c0.9-3.7,1.8-6.7,0.4-10.6c-0.6-1.4-1.4-2.7-2.4-3.9
	c-4-4.7-3.9,0.3-9.4-10.1c3.9,0.8,7.9,0.4,11.6-1.1c3.7-1.9,4.7-3.5,4.7-9c2.4-0.1,13.8-3.6,17.1-4.5l34.2-9.7
	c14.4-4.5,36-10.4,51.3-14.6c2.9-0.8,13.9-3.7,16.6-5.1c4.4-2.2,21.6-3.9,28.1-4.6c7-0.8,23.2,0.1,30,3.1l10,5.8
	c2,1.3,1.7,0.8,3.1,2.8c8.4,11.1,13.8,28.6,11.6,42.1l-2.9,8.2c-1.8,5.1-4.1,10-7,14.6c-5.3,8.7-18.2,19.9-20.6,20.6l-15.6,8.6
	c-3.1,1.3-6.3,2.1-9.7,2.5c0-4.6,1.7-4.3,2.1-6.3c-0.3-1.6-0.4-3.1-0.5-4.7c0-4.1,0.4-5.7-1.6-9c-0.7-1.2-1.1-2.2-1.8-3.5
	c-1.4-2.8-3.8-3.6-4.9-5.7c-2-3.7-0.8-10.9-0.7-13c0.2-1.6-0.1-3.1-0.8-4.5c-0.6-2.2,0.7-6.3,0.8-9.1c-0.1-5.7-1.9-11.3-5.3-15.9
	c0.3-2,0.4-3.9,0.5-5.9c-0.1-2-0.9-3.9-0.8-5.1c0.3-4.3,1.6-5.1-0.4-10.6c-0.9-2.9-2.8-5.6-5.3-7.4c-2.2-1.4-5.1-1.5-7.5-0.3
	c-2.1,1.4-0.8,0.1-1.4,1.8c-4-0.4-4.3-2.3-9,0c-1.6,0.8-1.8,1.5-4.2,1.6c-5.9,0.2-4.3,2.3-7.4,4.3c-1.3,0.5-2.8,1.2-4,1.8
	c-2.1,1.4-5.3,3.1-6,5.6c-6.5-1.5-10.6-3.6-15.9,3.1c-2.3,2.9-3.6,9.5-3.6,13.3c0,2,0,3.9,0,5.8c-2.6-1.9-8.7-16.9-21.3-13.4
	c-4.6,1.2-5,4.1-7.5,6.7c-9,9.1,0.2,19.4,0.6,20.2c2,4.9,4.9,9.3,8.3,13.2c2.1,2.2,4.6,6.1,7.8,7c-1,4.2-2.5,9-3,13.3
	c-0.6,4-0.3,4.7-2.2,7.8c-0.3,0.4-0.4,0.9-0.7,1.3c-0.6,0.8-1.2,1.8-1.5,2.8c-1.2,4.6-0.4,9.5,1.9,13.6c2.4,4,4.3,4.6,5.1,6.9
	c0.3,1,0.8,2,1.5,2.8c6.5,0,4.9,1.2,8.5,1.4c8.4,0.5,8.7-2.9,11.4-8.9c1.5-2.8,1.9-5.9,1.2-8.9c2.8-2,2.3-2.7,3.2-6.3l1.1,2.1
	c0.4,0.6,0.9,1.2,1.4,1.7c1.7,1.7,1.2,2,4.3,2c0.1,4,4.3,7.4,7.9,7.9c3.3,0.5,6-2.2,7.4,2.7c-4,1.9-48.7,14.1-56.5,16.3
	c-2.3,0.6-2.2,0.7-2.8-1.8c-1.4-6.4,3.9-7.5,0.3-14.5c3.5-6.7,1.2-14.6-2.1-19.5c3.3-6.2,1.5-20.6-4.8-24.8
	c1.4-6.2,0.4-16.8-5.2-20.6c1.3-4.1,0.7-8.5-1.7-12.1c-5-6.7-8.6-3.5-11.1-2.8c-1,0.3-2.1,0.1-3.4,0.3c-2,0.3-3.7,1-5.3,2
	c-3.5,2-5.3,5.9-4.9,9.8c-2,0.5-2.6,2.4-3,4.4c-0.4,2.1,0.2,4.3,1.4,6.1c-6,9,2.1,10.9,1.5,16.8l0.1,5.9
	C469.7,414.9,476,417.9,476,428.3L476,428.3z M307.2,327.5c4.4-6.6,12.1-9.5,18.7-13.4c2.4-1.4,5.9-0.8,10.3-0.8
	c4.8,0,11,3.9,14.4,7.3c0.9,0.9,1.9,1.7,2.9,2.4c1.1,0.9,2,1.9,2.9,2.9c1.7,2,3.6,3.8,5.7,5.4c0.8,8.1,3.5,15.9,7.8,22.8
	c5.5,7.4,9.2,7.6,15.6,11.3c2,1.2,1,0.7,1.9,2.8c1.1,1.9,2.3,3.6,3.7,5.2l-3.1,0.6l-3.5-2.4c-2.4-1.4-9.7-6.5-11.8-6.7
	c1,2.4,2.7,4.3,4.9,5.7c1.1,0.8,2,1.4,3.1,2.1c2,1.2,2.5,0.7,3.1,2.8c-3.2-0.1-4.5-1.4-7.4-2.1c0.2,2.1,0.3,2.1,2.1,2.7
	c-1.2,1.6,0.1,0.6-2.3,1.4c-1,0.4-1.9,0.6-2.8,0.8c-2,0.6-3.9,1.2-5.9,1.5c0-11.1-13-44.8-18.1-51.5c-1.6-2-2.4-4.1-5.7-4.3
	c-0.6,2.7-0.3,2.1,2,6.5c3.5,6.7,6.5,13.6,9,20.6l3.8,10.5c0.5,1.9,0.7,2.3,1.3,4c1.8,5.2,3.1,10.6,4.1,16
	c-5.4,1.1-10.6,2.4-15.9,4.2l-47.7,13.7c0-4.5-1.6-6.8-2.8-10.5c-0.4-1.3-1.1-3.6-1.4-4.9l-3.8-16.2c-0.9-3.8-1.4-7.7-1.6-11.6
	l0.4,0.7c0.5,2.1-0.1,1.4,0.7,3h2.1c0-8.8-2.8-6.3,1-11.2c0.9-1.2,1.4-2,2.2-3.1c1.8-2,3.2-4.3,4.3-6.8c-3.2,1.5-1.7-0.2-5.4,3.5
	c-1.8,1.9-2.2,3.6-4.1,4.9c0.8-3.3,4-5.9,6.2-8.1c5.1-4.7,11.3-8.3,17.8-10.6c4.4-1.8,6.5-2.8,8.6-6.1c-4.6,0.4-9,1.7-13.2,3.6
	C310,326.5,308.7,327.1,307.2,327.5L307.2,327.5z M428.5,318.5c0,9.8,9.3,5.5,9.5-1.1c0.1,0.1,0.2,0.1,0.3,0.3l1.9,2.4
	c2.2,0,6.9,0.4,7.4-4.8c1.2,1,2.7,1.7,4.3,2.1v4.8l-15.5,3.5c-1.8,0.4-3.5,1.1-5.1,1.8c0.3,3.3,2.7,7.3,4.3,10.6
	c5.5,0,7.2-1.5,10.6-1.6l-8.2,5.1c-1,0.5-0.4,0.1-1.4,0.7c-0.6,0.4-0.8,0.6-1.5,1.2c-2.2-3.4-0.2-1.1-1.7-5.8l-3.8-12.1
	c-0.9-2-1.5-3.6-2.5-5.4c0.1-0.1,0.2-0.4,0.3-0.3L428.5,318.5z M431.6,321.2c0-1.6-0.3-2.6,1.2-3.6c1.2-0.9,0-0.5,2-0.1
	C434.6,320,434.1,320.9,431.6,321.2L431.6,321.2z M429.1,317.5l-0.5,1.1L429.1,317.5z M441.1,316.9c0-1.7-0.2-2,1.1-2.8
	c0.6-0.4,2.1-0.7,2.1,0.6C444.3,316.7,443.1,316.9,441.1,316.9L441.1,316.9z M451.1,311.7h0.5v2.1h-0.5V311.7z M543,294.3v0.5
	l-0.6-0.4L543,294.3z M543.5,293.8l-0.5,0.5L543.5,293.8z M543.5,293.8l1.5-1.7C544.6,293.8,545,293.3,543.5,293.8L543.5,293.8z
	 M446.4,295.8c-0.8-3.5-1.1-3.2,1.1-6.3c5.7,0.4,4.7,3.7,2.8,5.4C448.9,296.3,448.7,295.8,446.4,295.8L446.4,295.8z M431.2,291.7
	c4.8,1.2,9.5,2.9,5.3,10c-0.5,0.8-2.7,3.4-3.8,2.2C432.2,303.5,432.1,293.7,431.2,291.7L431.2,291.7z M541.4,292.2
	c0.2-2.3,3.5-5.1,5.2-6.3c-0.3,3.3-2,2.4-4.5,5.5c-0.1,0.1-0.2,0.3-0.3,0.3L541.4,292.2z M429.1,317.5c0.5-1.7,1.2-3.3,2-4.8
	c0.7-1.7,1.2-3.5,1.7-5.2c2.6,0.3,5-1.1,6.1-3.4c0.7-0.9,1.3-1.9,1.8-2.9c0.4-1.4,0.8-2.8,1-4.3c0.4-4.1-3.5-9.7-11.1-7.9
	c-0.3-0.9-0.4-1.8-0.5-2.7c6.1-1.1,12.2-1.8,18.5-2.1c2-0.1,3.8-0.9,5.8-1.1l-0.6,4.2c-4.6-2.4-2-1.6-6.4-0.6
	c-2.4,0.5-1.3-0.3-2.9,1.2c-5.1,4.9-1.3,15.3,7.8,10.5l-0.5,10c-3.3,0.1-3.5,1.5-4.3,4.3l-0.7-0.9c-2.6-2.3-8.3-1-8.8,5.1l-2.1-2.7
	c-3.6,0-3.5-0.4-4.4,0.8L429.1,317.5L429.1,317.5z M430.1,306.9c-0.3,2-0.9,3.8-1.9,5.6c-0.6,1.9-1.6,3.5-2.9,5l-4.6-8.1
	c-2.1-2.5-7.2-1.4-10.1-1.4c-2,0-1.9,0.6-3.7,1.1v1.6l12.4,0.3l3.5,7.4l-0.4,0.6l-3.2-7.1l-5.9-0.6c-2.5,0-2.1-0.4-2.7,1.6
	c2,0.6,4.2,0.8,6.3,0.5c1.3,2.6,2.8,6.6,5.8,7.4c-0.4-1.9-0.5-1.8,0-2.7c0.4,1.8,6.4,16.1,8.4,24.8c-8.3-0.7-14.5-5.5-23.2-3.2
	c-2,0.5-2.1,0.3-2.6,2.1c2.6,1.2,0.3,0,3.2,0h6.8c2.5,0,1.7,0.5,3.7,0.5v0.5c-4,0-12.1,4.3-15,6.1c-2.2,1.4-11.4,6.8-11.4,10.2
	c0,1.5,0.8,1.6,2.1,1.6c1.3,0,2.2-1.4,3-2.2c5.5-5.6,19.5-12.5,29.1-12.5c10.4,0,17.1,3.5,25,8.3c2.7,1.6,5,2.5,6.7,5
	c-1.5,6.4-8,4.8-12.8,3.8c-6.3-1.2-3.2-1.5-11.6-9c-1.4-1.3-0.5-1.2-3-1.2c0.1,2.5,2.2,4.4,4.6,7.5l8,10.5c0.9,1.2,1.6,2.4,2.6,3.8
	c0.9,1.3,1.5,2.5,2.4,4c1.5,2.2,2.2,4.9,2,7.5c-8.1,5.4-7.8,1.2-15.4-6.7c-9.7-10.1-3.5-3.6-10.6-14.3c-0.8-1.4-2-2.4-3.6-2.8
	c-1.9,2.2,4.5,9.4,7,16.1c0.5,1.3,0.7,2.7,1.2,4.1c1.6,4.6,6.4,14.1,3.1,17.5c-3,3-5.6-3.6-6.6-5.6l-12.7-23.2H410
	c-0.4,2.3-0.2,4.7,0.4,7l3.5,13.4c1,2.6,1.6,5.3,2,8.1c-0.9,0.6-1.7,1.1-2.7,1.6c-3.5-1.9-3.2-4-4.5-8.1c-2.1-6.5-3.7-12.7-6.4-19
	c-0.5-1.4-1.5-2.7-2.7-3.6c-1.9-1.9-1.8-2-4.3-1.4c0.1,0.9,0.3,1.8,0.5,2.7c-2.8-0.8-4.2-3.5-5.4-6.1c-0.8-1.2-1.3-2.7-1.6-4.2
	c-0.5-2.3,0.1-3.2-0.8-5c-1.7,0.6-2,1.2-2.1,4.3c-4.3-2.3-8.3-5.3-11.7-8.8c-5.7-5.7-7.1-14.3-9-21.6c-0.5-2.8-1.2-5.7-2.1-8.4
	c-1.7-5.6-3-11.3-4.1-17c-4.6,3.1-1.6,11.9-0.5,16.3c-1.7-0.4-1.3-0.4-2.5-1.7c-0.6-0.8-1.4-1.4-2.2-2c0-5.9-1.5-12.3,1.7-17.8
	l6.4-9.5c2-2.5,5.4-4,5-5.2c-0.9-2.6-14,8.1-16.5,19c-0.4,3.5-0.4,6.9-0.2,10.4l-10-4.8c0.3-7.3,2.1-14.5,5.3-21
	c3-5.8,6.5-11.3,10.5-16.4c3.4-4.5,10.2-12.2,15.1-15c1.8-1-0.1-0.3,2.2-1c5.5-1.6,17.4-2.2,18-2.5c1.5,2,8.9,5.5,11.6,6.8
	c5.9,3.5,11.3,7.6,16.2,12.2c4,4,8.1,14.2,8.6,19.9c-2.2-3-4.6-5.9-7.3-8.6c-1.9-1.7-7.9-5.4-10.6-5.7c0.1,3.1,0.2,2,2.4,3.4
	c5.1,2.8,9.4,6.8,12.7,11.6C426.4,296.1,430,304.1,430.1,306.9L430.1,306.9z M503.4,264.2c2.2,0.1,1.2,0,2.7,0.5l17.7,6.5
	c2.8,1.8,5.1,4.1,6.9,6.8c3.6,4.6,2.7,4.7,4.3,9.3c1.2,3.2,2.6,6.8,3.5,10.2c1,3.5,2.4,6.6,3.5,10.2c0.3,1,0.4,1.6,0.7,2.5
	c0.4,1,0.6,1.5,1.1,2.7l6,15.1c-2.6,0.9-5.2,1.6-7.9,2.1c1.2-2.7,0.6-9.4,0-12.2h-1.1c-0.1,3.2-0.4,6.3-1.1,9.4
	c-0.6,4.3-0.6,3.6-5.9,5.1L482.5,347c-5.1-9.5-4.9-20.8-6.5-29.4c-0.4-1.4-0.7-2.9-0.9-4.4c-0.9,0.1-1.8-0.4-3.1,2.2l-0.5,4.1
	c-0.3,6.9,0.6,13.9,2.7,20.6c1.2,5,2.7,6.3,3.2,8.4l-14.7,4.3c-1.7,0.8-3.5,1-5.3,0.4c1.3-5.5,0.6-9-0.4-16.1l-0.4-17
	c-0.1-0.9,0-13.8,0.3-17l4-24c1.5-5.9,1.5-5.9,8.5-10.5c5.8-3.6,14.3-7.5,21.6-6.1c4.3,0.7,11.4,4.6,14.3,4.6
	C504.7,265,504.6,265.9,503.4,264.2L503.4,264.2z M413.8,264.2l0.2,0.2C413.9,264.3,413.7,264.2,413.8,264.2L413.8,264.2z
	 M503.4,264.2h-0.5l0.4-0.6L503.4,264.2z M603,238.3v-0.5l0.6,0.4L603,238.3z M608.9,226.8l0.2,0.2
	C609,226.9,608.8,226.8,608.9,226.8L608.9,226.8z M609.9,225.7v0.5l-0.6-0.4L609.9,225.7z M610.4,224.7l-0.5,1.1L610.4,224.7z
	 M610.4,224.7v-0.5l0.6,0.4L610.4,224.7z M504.5,224.1v0.5l-0.6-0.4L504.5,224.1z M611.5,223.1v0.5l-0.6-0.4L611.5,223.1z
	 M611.5,223.1v-0.5l0.6,0.4L611.5,223.1z M612.5,221.5v0.5l-0.6-0.4L612.5,221.5z M612.5,221.5V221l0.6,0.4L612.5,221.5z M381.6,145
	c2.8,1.3,8.8-0.4,12.2-0.5l-13.4,12c-4.5,5.3-7.7,8.2-10.7,15.6l-3.8,8.8c-1.3,3.2-2.4,6.6-3.3,9.9c-1.7,6.7-4.2,21.9-2.8,29.9
	c0.4,2.4,0,4.4,0.5,6.9c2.2,11.2-0.8,2.6-0.8,12.4c0,0.9,0.2,1.8,0.5,2.7c-4.7,3.2-5.4,13.2-6,18.8c-0.5,4.9,2.5,4.7-3.1,11.2
	c-2.8,3.3-9,13.5-9.8,17H340c0-1.7-7.2-49.7-9.3-52.4c-0.7-1-0.1-0.4-1.2-0.9c0,5.4,2.5,18.8,3.5,24.5c1.6,9.2,2.9,23.6,5.9,31.6
	c0.9,2.4,0.5,0.9-0.9,7.2l-5.2-27c-0.9-5.9-8.3-49.1-8.5-55.4c-0.1-2.4-0.4-4.7-0.9-7.1l-0.7-7.7c-0.5-7.6-1.6-12,1.7-20.5
	c5.8-15.3,13-21.8,26.4-30.6c12.8-8.3,11.8-5.7,24-8.2c7.1-1.4,22.8-2.8,28.6-4.1c-2,2.8-7.4,2.5-10.6,3
	C388.3,143,383.4,142.5,381.6,145z M646.8,141.8l-4.2-2.1c2.3-2.8,4.8-5.3,7.5-7.7c2.5-2.5,3.9-8,6.2-9.7c3.1,5.9,3.1,6.6-2.8,13.6
	C651.6,138.3,649.4,140.3,646.8,141.8L646.8,141.8z M638.9,138.2c-6.8-3.3-4.1-2.2,3.1-11.7c2.3-3.1,4.3-6.4,5.9-9.9
	c1,0,2,0.4,2.7,1.1c2,1.4,3.4,2-0.3,7.7C647.4,129.9,643.7,135.6,638.9,138.2L638.9,138.2z M633.6,118.1l-0.5,0.5L633.6,118.1z
	 M633.6,118.1v-0.5l0.6,0.4L633.6,118.1z M634.7,116.5v0.5l-0.6-0.4L634.7,116.5z M634.7,116.5V116l0.6,0.4L634.7,116.5z
	 M636.2,114.4c3.8-5.7,9-2.1,9,0c-0.4,1.7-1.2,3.2-2.3,4.5l-8.3,12.9c-5.3-1.2-2.9-3.4,0.4-8.6c2.3-3.7,4.3-7,2.5-8.3
	C636,113.9,636.9,116.4,636.2,114.4L636.2,114.4z M633.1,118.7c-1.3,5.6-6.5,9.1-5,12.9c0.6,1.6,2.2,2.6,3.9,2.4
	c0,2.1-0.1,4.1,1.8,5.6c1.7,1.4,3.9,2.1,6.1,1.8c0.7,1.4,2.1,2.5,3.7,2.7c1.9,0.6,0.3,0.2,1.5,0.6c3.5,1.4,6.7-1.4,8.7-3.6l7.5-9.9
	c2.8-5.1-0.8-1.2,5.3-6.3c0.1-0.1,0.2-0.2,0.3-0.3l1.6-1.6c0.4-0.4,0.4-0.6,1-1.2c0.8-0.8,1.3-1.3,2.1-2.1l4.3-4.6l2.1,0.6
	c0,2.6-2.8,6.3-4.3,8.3c-5.1,5.7-9.5,11.8-13.2,18.5c-2.2,4.4-3.9,7.9-8.1,10.9c-2,1.5-8.8,11.6-10.6,14.7c-3.2,5.6-1.8,3.1-3.5,9.8
	c-8.2,32.5-12.7,24.5-18.3,32.9c-5.6,8.4-2,3-5.8,5.9c-8.3,6.2-9.3,14.4-12.3,19.3c-1.2,1.9-2.4,3.4,1.1,2.7c-0.6,2.5-5,6.7-6.7,8.6
	c-6.2,6.2-12.8,3.7-21.7,8.9c-1.5,0.9-2.9,2-4.3,3c-0.6,0.5-1.3,1.2-1.9,1.8c-1.2,1.2-1.2,0.8-1.7,2.5c-6.4-1.7-17-25.6-19.3-32.4
	c-0.7-2-0.8-4-2.3-5.1c0,12.4,6.7,24.1,13.3,34.2c0.4,0.7,1,1.4,1.6,2l4.2,4.3c1.4,1.3,0.5,1.2,3,1.2c1-2.3,2.7-4.3,4.8-5.8l0.1,4.3
	c-0.2,2.3-0.6,3.2-0.6,5.1c-3.8,0.9-7.8,3.7-11.8,5.1c-4.2,1.4-9.8,1.6-13.5,3.4v2.1h1.6c-1.2,1.2-2.4,2.2-3.8,3.1
	c-1.7,1.3-2,2.7-4.1,3.3c-2.1-8.2-7.1-15.3-14-20.2c-3.6-2.2-7.5-4-11.6-5.2c-9.3-3.6-19.3-5.1-29.2-4c-4.6,0.5-9.1,1.9-13.3,4.1
	l-7.5,5.1c-2.6,1.5-4.9,3.5-6.7,6c-1,2.2-1.7,4.5-2.1,6.8c-5.1,0-22.1,1.6-26.3,3.7c-0.4-4.6-6.3-12.6-9.7-15.6l-4.3-3.6l-0.3-0.3
	c5.3,0.1,11.8,3,17.4,3.2c11.3,0.4,15.7,2,27.2-2.8c1.7-0.7,1.3-0.2,1.8-2c-2.2,0.3-4.5,0.7-6.7,1.2c-2.3,0.5-4.6,0.8-7,0.9
	c-2.5,0.4-4.9,0.6-7.4,0.5c-2-0.2-1.3-0.4-3.6-0.5l-11.1-1.1c-7.5-1.2-14.6-3.4-21.4-6.6c-1.2-0.5-1.9-0.9-2.8-1.3
	c-5.3-2.5-10.1-5.9-14.4-9.8L373.4,232c-0.9-1.2-0.9-1.3-2.8-1.5c0.4,5.6,7.6,12.1,11.4,16c1.8,1.4,3.4,2.9,4.9,4.6
	c-4.3,0-9.9,1-13.8,1.2c-2.6,0.2-7.6,4.4-9.3,6.2l-5.9,5.1c0-7.6,2.1-11.2,3.7-17.9c3.3,0.8,5,4.3,8.4,2.7c-0.7-2.8-3.8-3.8-5.7-5.9
	c-2.4-2.8-0.9-6.4,0.4-8.9c-0.4-1.4-0.8-1.7-1-2.8c-0.6-6.3-0.8-12.6-0.6-18.9c-0.1-12.9,4.3-26.3,9.1-37.3l5.4-10.4
	c2.2-3.8,11.5-12.5,15.9-15.8c4.5-3.5,9.6-6.2,15-8.3c2.1-0.7,4.3-1.2,6.5-1.4c16.1-2.8,30-2.4,45.3,2.8c0.9,0.3,1.8,0.6,2.6,1.1
	c2.8,1.1,5.6,2.4,8.3,3.9c6.3,4.2,11.6,9.8,15.3,16.3c-1.2-0.3-2.3-0.8-3.3-1.5c-1.2-0.7-2-0.9-3.3-1.5c-2.1-1.2-4.3-2.1-6.7-2.8
	l-1,1.2c1.3,2.7,8.4,4.9,13.3,8.2c6.7,4.3,11.7,10.7,14.5,18.2c1.2,2.7,2,5.5,2.7,8.4c0.4,3.9,1.1,18.3,1.6,19.5
	c1.2-0.9,1.2-0.8,1.6-2.7c0.3-1.5,0.4-2.4,0.5-3.6c0.1-2.7-0.1-5.3-0.5-7.9c-0.7-9-3.8-17.8-9-25.3c-0.7-1-1.1-1.2-2-2.3l-4.2-4.3
	c-1.1-1.9-2-9.8-12-18.1l-10.2-7.2c-6.6-2.6-13.3-4.4-20.2-5.6v-0.5c7.6,0,9.5-1.3,16.4,1c13.4,4.5,18.5,9.5,29.2,17.3
	c7.7,5.6,7.7,9.4,10.1,17.8l2,6.9c0.6,2.9,1,5.1,1.4,8.1c0.4,2.4,0.9,5.1,1.3,7.6c1.6,8.8,1.8,15.5,3.9,24.6l-8.4,5.8l-0.5-4.3
	c0,2-5.2,15.3-7.2,18.2c-1,1.4-1.5,2.5-2.5,3.8l-2.8,3.5c-4.9,5.5-6.2,3.4-6.5,6.7c9.4-2.2,17.2-15.3,17.9-23.8
	c3.5-0.1,3.7-1.8,8.6-5.1l22.1-12.7c2-0.9,3.4-1.3,5.1-2.3c0.9,0.5,1.8,0.8,2.8,1.4c2,1.1,0.9,1.2,3,1.8c-0.7,1.1-2.6,2.6-2.6,3.8
	c-0.1,4.5,4.9-1.9,6.4-3.1l7.7-5.4c1.2-0.7,2.6-1.7,4-2.4c2.3-1.2,12-4.7,13.1-6.4c2.3-3.3,0.4-1.9,3.7-5.8c1.3-1.5,0.8-3.5,4.6-8.6
	c0.4-0.6,0.9-1.2,1.3-1.8c1-1.3,2.3-2.4,3.9-2.9l8.9-4.3c0-3.1,0.5-6.1,1.5-9l3.2-7.8c2-3.8,3.9-3.9,9.3-6c1.9-0.7,2.7-0.7,2.8-2.9
	h-2.7c0.8-3.1,0.5,0.4,4.4-6.1c4.3-7,6.6-3.5,2.4-14.9l-5.9-16.2c-1.3-2.3-3.3-4.2-5.6-5.5c0.2-1.4,0.5-2.8,1.1-4.3
	c1.2,0.4,2.5,1,3.7,1.6c4.6,2.8,8,10.8,9.4,12.8c0.4,0.6,0.7,0.8,1.2,1.5c2.3,3.2,5.1,4.2,10,4.2C631,120.6,631.9,119.5,633.1,118.7
	L633.1,118.7z M602,104.9c0,4.7,6.8,5.1,8.4,13.2c1,4.1,2.3,8,4.1,11.8c3.4,8.6,1.5,2.6-4.3,13.1c-1,1.7-2.2,2.8-3.3,4.7
	c-1.7,2.9-1.2,2-4.3,3.5c-3.7,1.9-4.7,5.4-6.5,8.8c-1.1,1.7-2,3.5-2.6,5.3c-0.8,2.2-1.1,4.6-1,6.9c-7.3,3.8-9,3.3-14.5,10.7
	c-0.8,1-1.4,2.1-2,3.3l-5.7,9.7c-0.4,0.3-3.3,1.3-3.7,1.5c-2.5,1-4.9,2-7.2,3.3l-12.8,8.3c-8.7-5.8-8.4-4.5-19.9,1.2
	c-4,2-7.5,4.2-11.3,6.1c-0.2-7.8-6.7-44.1-8.9-51.3c-0.9-3.9-2.8-7.5-5.2-10.6c-4.6-4.4-9.5-8.5-14.6-12.2
	c-7.9-5.3-18.4-11.4-30.3-11.4l-11.1,0.5c-4.1,0-7.1,1.1-11.6,1.1c-11.6-0.1-32.9,3-45.8,4.9l-21.7,3.5c-3.5,0.2-7,1.1-10.2,2.4
	l-7.1,4.5c-7.4,6.3-13.3,7.2-20.7,18.3c-1.9,2.4-3.5,5-5,7.6c-0.7,1.4-1.4,2.8-2,4.3c-2.2,5.4-3.4,11.3-3.5,17.1
	c0.3,2.2,0.7,4.3,1.4,6.5c0.9,5.1,0.6,9.8,1.4,14.9c0.4,2.8,0.5,4.8,0.9,7.5c2.2,18.8,5.7,38.1,8.8,56.6l5.4,27.9
	c-2.9,0.3-7.4,0.2-9.8,1.3c-0.1,0.1-0.3,0.1-0.4,0.2c-11.7,5.2-17.9,9.9-20.7,13c-3.8,4.3-10.1,7.7-15.8,19
	c-0.7,1.3-1.3,2.7-1.8,4.1c-2,5.9-0.5,5.6-0.2,10.9c0.1,2.4,0.3,4.9,0.6,7.3l8.8,31.3c0.1,0.1,0.1,0.3,0.2,0.4l2,3.3
	c-3.9,0.4-16.7,4.8-22,5.9c-10.9,1.9-21.4,5.9-30.6,12.2c-7.1,5.2-12.1,12.9-13.8,21.6c-1.5,7.5-1.5,15.2,0,22.6l7,17.3
	c3.4,6.2,7.7,11.8,12.9,16.7c10.6,9.8,24.2,15.5,38.6,16.2c19.4,0.3,11.1-2.8,15.9,8.3c1.5,3.8,5.3,6.2,9.4,5.9
	c4.6,0,9.1-1.1,13.2-3.2c1.9-0.9,3.6-1.9,5.3-3.1l4.6-3.8c0.5,1,0.9,1.7,1.3,2.8c1.4,3,3.3,5.8,5.5,8.3c2.1,2.8,11.3,3.6,14.8,3.6
	c11.3,0,19-3.5,27.3-9l12.4-12.3c2.9-4.3,3.7-13.5,5.2-19c0.7-2.6,0.9-2.3,3.4-2.9c1.7-0.4,3.3-0.9,4.9-1.5
	c3.2,4.8,19.9,11.6,28.5,11.6c3.6,5.4,12,5.9,18,6.7c10,1.5,24,2.9,34,1c10.8-2.6,21.4-6.4,31.3-11.4c1.2-0.6,2.2-1.2,3.5-1.8
	c6.2-2.8,10.8-8.4,12.3-15.2c2.5,0,4.9-0.2,7.3-0.6l15.1-4.4c8.9-4.2,15.3-8.9,16.1-19.7c3.5,1,7,1.5,10.6,1.6
	c6.7-0.2,13.1-2.8,18-7.3l3.5-3.4c2.9-2.5,0.2-8.8-0.6-11.5c-0.9-3,1.3-1.9,4.3-2.7c4-1.2,7.8-2.9,11.4-5c6-3.5,11.6-7.5,16.8-12.2
	l0.5-0.4c0.1-0.1,0.2-0.2,0.3-0.3c0.4-0.4,0.6-0.5,1.1-1c6.3-6.3,4.5-4.3,10.9-13.3l3.2-5.2c9.8-19.2,10.4-32.6,2.4-52.5l-2.1-4.2
	c-0.7-1.2-1.5-2.3-2.4-3.5c-2.8-3.5-6-6.4-9.7-8.8c-1.1-0.9-2.2-1.7-3.5-2.3l-4.3-2.1c-0.6-0.4-1.2-0.6-1.8-0.8
	c-14.7-5-26-4.9-41.5-2.5l-12.2,2.1c-2,0.4-2.8,0.7-4.2,1.1c-7,1.9-12.8,4.5-21.7,6.7c-2.7,0.5-5.2,1.3-7.7,2.3
	c-0.5-2.2-0.6-4.3-1.2-6.7c-0.9-3.1-5.6-17.2-5.6-19.2c0.4-1.6,1.1-3.1,1.8-4.6c2-5.2,3.5-10.6,4.6-16c6.7,0,13-3.6,18.1-6.2
	c5-2.5,5.7-3.3,5.7-10.2c0-1.8-0.4-3.6-1.1-5.2c3.1-1.7,5.3-3.5,9-4.2c3.1-0.5,9.1-1.4,11.4-2.9c0.9-0.5,0.4-0.4,1.2-1
	c6-4.9,10.7-11.3,13.8-18.4c2.9-6.5,7.5-11.8,11.4-17.6c8.3-12.4,9.2-7,12.2-12.6l4.8-9.4c2.8-6.5,4.2-13.5,4.3-20.5
	c0.7-1.2,1.5-2.3,2.5-3.3c1-1.1,1.7-2.2,2.2-3.5c1.4-2.5,3.1-5.1,4.7-7.4c4.3-6.2,4.3-3.1,10.6-13.7c3.8-6.1,8-12,12.5-17.6
	c2.8-3.5,7-8.5,7-13c-0.7-0.3-1.5-0.6-2.2-1c-2.2-1.4-2-1.2-4.7-1.2l-3.2,3.6c-0.7,0.5-1,0.9-1.7,1.5c-1,0.8-1.1,0.6-2.1,1.6
	c-1.3,1.2-2.1,2.3-3.4,3.5l-3.8,3c-1.4-3-1.5-5.9-5.8-6.3c-0.6-3.3-3.5-5.8-6.8-5.8c-0.4-5.4-6.9-6.7-10.6-4.3
	c-2.6,2-4.8,4.4-6.7,7.1c-1.2,1.5-0.8,1.4-2.3,2.4c-2.4-1.2-4.4-2.9-6.1-5l-8.5-11.5c-2-1.9-4.3-3.1-7-3.5
	C604.4,99.8,602,101.4,602,104.9L602,104.9z M442.7,258.4c-9.9,0-9.1-0.2-18.4-2.2c-1.3-0.3-3.1-1-4.4-1.3
	c-12.2-3.3-23.5-9-33.4-16.7c-11.4-8.7-8.3-9.5-7.6-14.5c0.4-2,0.8-4.1,1.4-6c1.2-4.3,2.8-8.5,4.9-12.5c0.6-1.2,0.6-1.2,1.3-2.4
	c5.2-9,12.4-16.9,20.9-22.9c3.3-2.1,6.7-4,10.1-5.7l11.4-5.4c1-0.4,1.6-0.4,2.8-0.9c5.9-2,19.3-4.7,23.4-4.2
	c7.9,1.2,28.4,10.1,32.6,18c2.1,4.1,3.1,4.6,6.4,11.5c6.9,14.5,2.6,32.6-6.4,44.8c-4,5.4-15.3,14.8-22,17c-3.5,1.2-7.2,1.9-10.9,2.3
	C450.8,257.9,446.8,258.3,442.7,258.4L442.7,258.4z M375.2,226.2c0,7.3,5.8,11.1,9.1,14.1c2.6,2.6,5.6,4.8,8.7,6.6
	c5.1,3.5,10.6,6.3,16.5,8.3c4.7,1.8,9.5,3.4,14.4,4.6c12.3,2.9,33.4,2.9,44.1-2.4c9.8-4.9,15.7-8.8,22.8-17.3l2.6-3.7
	c7.5-12.2,10.6-28.7,4.8-43c-0.6-1.5-1.1-2.8-1.8-4.1c-0.7-1.4-1.4-2.2-2.1-3.7l-7.5-10c-0.1-0.1-0.2-0.2-0.3-0.3l-2.5-2.3
	c-5.2-4.5-21.8-12.2-28.3-12.2c-21.8,0-38,7.1-55.7,20.2l-5.2,4.3C384.7,195.3,375.2,212.1,375.2,226.2L375.2,226.2z M256.6,472
	l0.3,0.3l-0.1-0.1C256.8,472.2,256.5,472,256.6,472L256.6,472z M249.2,464.7l-0.6-1.1L249.2,464.7z M249.2,464.7l1.8,3
	c0.7,1.6,0.8,2.1,1.6,3.7c1.2,2.5,1.9,4.6,3,7c1.1,2.3,1.9,4.7,3,7c0.5,1.2,1.2,2.3,1.9,3.4c1.3,1.6,1.7,1.1,3.6,0.6
	c0-3.8-0.6-7.6-2-11.3l-4.4-15.6c-0.4-1.9-0.8-3.5-1.4-5.5c-1.1-3.6-2-7.4-2.6-11.1c-0.6-1.7-0.7-3.5-0.4-5.2
	c0.6-3.2-1.3-3.9-2.9-2.4c-2.1,2.1,3.6,23.6,4.8,27.8c0.7,1.8,1.2,3.5,1.5,5.4c-1.8-2.1-6.9-17.2-10-19.5c-0.4,0.3-1,0.4-1.6,0.5
	c0,7.2,1.6,11.5,3,17.5c0.6,2.6,0.4,3.5,2.8,4.1C250.8,469.4,249.5,468.2,249.2,464.7L249.2,464.7z M782.9,141.3
	c-1.2-0.3-10-5.6-10-1.6c0,2.5,1.2,2.9,2.8,4.1c1.3,1.1,2.9,1.9,4.6,2.2c-0.8,2.4-1.9,4.7-3.2,6.8c-7,12-0.5,9.2,1.1,6.8
	c2.3-3.5,4.3-7.2,5.8-11.1c3.9,0.4,0.9,1.6,7.4,1.6c-0.4-4.9-4.3-6.2-4.3-6.8c0.4-1.8,1-3.5,1.8-5.1c1.3-3.7,0.4-1.9,0.4-5.5H788
	c-0.8,2.1,0.4-0.1-1.4,1.8C785.1,136.7,783.7,138.9,782.9,141.3L782.9,141.3z M905.6,475.7c-4.3-2.3-5.6-2.8-9-1.1
	c0,4.7,1.3,3.6,4.8,5.2c-0.8,3.1-5.8,4.9-5.8,7.9c0,5.1,7.5,0.4,10.6-5.2c1.1,0.6,2.2,1.1,3.4,1.4c4.8,1.2,2.4,2,3.6,0.8
	c1-1,0.2-0.5-0.6-2.3c-1.9-4-1.2-1.8-2.8-4.2c2.1-3.2,4.3-4.5,5.2-9C911,469.8,908.1,474.1,905.6,475.7L905.6,475.7z M34.6,166.5
	c0,3.2,0.5,3.8,0.5,6.8c-4.1,1.1-4.3,9.3,0.3,6.6c1.1-0.6,0.4-0.2,0.8-1.2h1c0.3,2.1,0.9,4.3,1.6,6.3c1.2,3.5,1.2,3,4.7,2.7
	c1.5-6.4-0.5-5.9-2.1-12.7c4.2-2.8,7.4-3.4,7.4-6.3c0-4.1-8.5,0.5-9.5,1.1c-1.6-3-2.2-4.5-4.8-4.8L34.6,166.5z M375.2,199.3
	c1.2-0.4,1.5-1.2,2.8-2.5l12.8-14.1l0.3-0.3l5.1-4.3c1.1-0.9,1.8-1.4,2.9-2.4c5.8-4.8,17.1-11.2,24.1-12.8v-1.6
	c-8.1,0.7-16.1,5-22.7,9.5l-9,7.3c-3,2.4-5.9,5.1-8.4,8c-0.6,0.8-0.4,0.6-1.1,1.5l-3.9,4.5C376.8,193.8,374.5,197.4,375.2,199.3
	L375.2,199.3z M95,432.8l-7.2-3.9c-1.3-0.7-2.9-0.8-4.3-0.3c-3.4,1.2-1.7,3.1-1.7,3.1c1.3,2.7-0.2-0.3,4.8,2.7
	c1.7,1,3.5,1.8,5.2,2.7c-3.1,4.6-4.3,2.4-4.3,6.3c5.4,3.6,9.1-3.8,9.5-5.2c1.9,0.2,4.3,1.6,4.3-1.1c0-1.6-0.6-1.4-2.1-1.6
	c0.9-3.9,4.3-6.5,3.2-11.1c-1.6,0.2-1.4-0.4-4.3,3.6L95,432.8z M170.1,164.9c-3.7-0.9-13.1-5.8-11.1,3.2c3.3,0.8,3.4-0.1,7.9,2.1
	c-2.5,4.8-4.8,5.6-4.8,10.6l1.6,1.1c0.5-0.1,1.2-0.3,1.7-0.4c1.4-0.9,2.5-2.2,3.2-3.6c1.2-2,2-4,3-5.9c1.6,0.2,1.8,0.6,3.5,0.4
	c1.3-0.3,2.6-0.4,3.9-0.4c-0.5-2.1-3.9-3.7-5.8-4.8l1.6-7.9L170.1,164.9z M452.7,168.3c0.4,4.3,3.2,0.8,12.2,5.2
	c10.2,5.1,10.8,7.6,16.5,13.6c1.2,1.2,1.2,1.4,2.1,2.7c1.6,1.9,6,9.6,7.8,10.2c-1.3-6.3-4.2-12.1-8.3-17c-3.7-4.8-8.4-8.7-13.8-11.5
	C466.3,169.4,457.2,166.5,452.7,168.3L452.7,168.3z M608.8,270c-2.1-1.3-4.4-2.2-6.8-2.7c-0.1,0.1-0.3,0.1-0.3,0.3
	c-0.4,1.5-4.8,2,4,6.6c-0.2,0.6-6.2,10-2.7,10c3.3,0,3.6-2.6,5.6-5.5c0.6-0.7,1.1-1.5,1.2-2.4c6,1.4,1.9,2.2,9.5,1.6
	c-0.3-3-3.4-4.3-6.3-5.8c1.9-3.6,3.6-5.4,3.7-9.5c-2.4,0.2-2.9,1.7-4.3,3C611,266.9,609.9,268.4,608.8,270L608.8,270z M734.3,283.8
	c-4.9,0-5.9-0.4-9,1.6c0,3.5,0.1,2,1.6,4.3h4.3c-1,4.3-2.7,2.3-0.5,6.3c4.4,0,3.6-0.2,6.3-5.2c1.2,0.3,7.9,2.7,7.9,0.5
	c0-2.5-4-4.9-5.8-5.8c0.1-2.8,2.4-9.5,0-9.5C737,275.8,734.8,281.6,734.3,283.8L734.3,283.8z M253.9,103.9c-2,0-9-1.6-9,1.1
	c0,2.5,0.8,2.8,2.8,3.5c1.9,0.6,3.7,1,5.6,1.2c0,5-0.4,4.3,1.6,7.4c5.1-3.5,0.8-7,5.2-7.4c2.9-0.3,1.8,0.3,3.7-1.1
	c-0.7-3-2.3-3-4.7-4.3c0.5-1.1,1.9-5.6,0.5-6.8c-1.6-0.7-1.5-0.5-3.7-0.5L253.9,103.9z M561.3,116c-1.9-0.8-3.8-1.2-5.8-1.1
	c-1.4,2.1-1.6,0.6-1.6,4.3c2.1,1.2,5.8,2.3,5.8,3.2c0,2.3-2.8,7.9,1.1,7.9c2.3,0,2.5-0.7,3.4-2.4c0.8-1.3,1.2-2.8,1.4-4.4
	c2-0.4,1.5-0.9,3.7-1.1c-0.7-2.7-1.2-2.8-2.7-3.2c0.1-1.6,2-9.5-1.6-9.5C563.1,109.7,561.8,114.2,561.3,116L561.3,116z M146.4,294.3
	c-0.2-0.1-7.4-5.7-7.4-0.5c0,1.8-0.3,1.5,0.8,2.4l3.4,2.9c-2.2,3.3-5.4,6.2-5.6,7.5c-0.3,3.6,7.5,2,9.2-4.3c2.7,0.3,2.6,1.1,5.8,1.1
	c0.1-0.4,0-1-0.1-1.4l-0.9-1.2c-4.1-5.9,1.1-3.3-0.6-10.5C148.5,290.3,148.2,291.6,146.4,294.3L146.4,294.3z M361.5,173.5
	c-1.7,1.2-8.6,14.2-9.8,16.6c-0.1,0.2-0.3,0.5-0.4,0.7l-12.2,23.6c-1.2,2.5-2.5,4.7-3.5,7.1c-1.3,2.5-2.2,5.1-2.7,7.8
	c2.3-0.2,2-0.7,2.8-2.5c0.6-1.4,1.1-2.1,1.8-3.5C341.3,216,361.1,178.9,361.5,173.5L361.5,173.5z M765.1,435.7
	c-0.7,1.7-0.7,3.6,0,5.3c2,4.7-0.4,3.5,3.1,5.3c0.9,0.4,8.5,8.6,8.5,4.7c0-2.3,0.1,0.2-0.5-1.6c-0.4-1-0.3-0.8-0.6-2
	c-0.4-1.2-0.9-2.2-1.5-3.3c1.2-1.7,9.8-8.4,4.7-8.4c-2.2,0-6.1,2.8-7.9,3.7C769.7,437,769.5,434.1,765.1,435.7L765.1,435.7z
	 M561.9,399.3h0.5l-0.4,0.6L561.9,399.3z M569.8,397.7c0.2-2.5-0.5-0.9,1.1-2.1C572,397.9,571.5,396.9,569.8,397.7L569.8,397.7z
	 M566.7,397.1v-1.6C569,397.2,566.9,396.4,566.7,397.1L566.7,397.1z M568.2,399.8c1.2,0,0.6-0.2,2.1-0.5c-1.7,2.3-7.4,2.8-7.4-3.2
	c-0.1-1,0.3-2,0.9-2.8c0.4-0.4,0.7-0.7,1.1-1.1c0.1-0.1,0.3-0.2,0.3-0.3l0.9-0.7c2.1,0.5,3.1,0.1,4.3,1.6h-3.7
	c-0.9,1.2-2.1,2.1-1.8,4C565.1,398.5,566.6,399.7,568.2,399.8L568.2,399.8z M561.9,399.3c-2-1.5-1.6-2.5-1.6-5.8
	c1.5-1.1,0.7-1.1,2.7-1.6C561,394.8,560.9,395,561.9,399.3L561.9,399.3z M557.7,396.6c0,5.1,11.8,9,14.5,2.4l0.4-0.7
	c3-7.5-2.4-7.5-7-8.5c0.1-0.1,0.3-0.4,0.3-0.3l1.3-0.8c0.7-0.3,1.3-0.4,2-0.5l-1.6-1.6c-1.1,0.5-2.5,0.7-3.5,1.2
	C562.5,388.8,557.7,392.8,557.7,396.6L557.7,396.6z M433.8,206.2c-0.3,7.5-1.6,14.8-4,21.8c-1,2.1-1.8,4.3-2.3,6.7
	c2.2-0.2,2.9-1.3,3.9-3c2.6-5.4,4.3-11.2,5.1-17.1c0.4-4,0.4-8.1,0-12.1c0-3.2-0.5-9.7-3.1-11.6
	C433.2,196.7,433.8,200.6,433.8,206.2L433.8,206.2z M928.6,199.8c-3.2-2.1-1.6-3.2-5.8-3.2c-1,1.6-1.5,3.5-1.6,5.2
	c1.1,0.8,2.4,1.2,3.7,1.1c-1.6,2.1-0.1,0.4-2.5,1.2c-4.4,1.3-0.9,4.3-0.6,4.6c6.1,0,5.2-1.6,6.8-2.1c2.4,0.1,2.1,0.5,4.8,0.5
	c-0.1-1.3-0.6-2.7-1.6-3.7c4.1-6.1,3.5-5.3,2.1-7.4C932.1,197.2,930.3,198.4,928.6,199.8L928.6,199.8z M710,176.2
	c4.7,0,8.4-2.6,8.4-7.9c-3.7-2.5-2.2-0.5-3.7-3.7c-2.5-0.2-5.8-1.2-8.3,3.8c-1.1,1.5-1.3,3.4-0.6,5.1
	C706.6,175.1,708.2,176.2,710,176.2L710,176.2z M214.5,510.5c-2.6-0.7-2.4-2.7-4.7-2.7c-2.5,0-3.6,3.4,1.6,6.8
	c-3.1,5.9-5.3,4-2.7,7.9c3,0,3.7-1.6,5.8-4.8c2.8,0.6,2.3,1.7,5.2,1.1c-0.1-2.8-0.6-3-2.7-5.2c2.8-4.1,2.2-4.7,1.1-6.8
	C216.2,507.1,214.6,508.6,214.5,510.5z M279.8,498.4c-0.4-3-1.4-5.9-2.9-8.6c-1.2-3-2.4-5.8-3.5-8.7c-1.9-5.2-5.1-13.1-6.2-18h-1.6
	c0,3.9,3.9,16.2,5.1,19.7l3.4,8.8c0.6,1.4,1.4,2.8,2.1,4.3C277.2,497.8,276.9,498.3,279.8,498.4L279.8,498.4z M318.3,280.6
	c-1.9,1.2-2,2.7-4.3,2.7c-4.3,0-4.8-4.3-7.4,0.5c1.5,2.8,2.5,2.9,5.8,3.7c-0.1,0.1-0.3,0.1-0.3,0.3l-0.5,0.5c-1.4,2-0.7,2.1-0.3,4
	c1.8,0,2.9,0.2,4.1-0.7c0.3-0.2,2-2.7,2.3-3c3,1.4,2.5-0.5,4.8,0.5c-0.6-1.6-1.5-3-2.7-4.3c0.6-2.8,1.6-6.6-2.1-6.8
	C317.8,278.8,318,279.7,318.3,280.6L318.3,280.6z M623.6,371.2c0.1-1.7-0.2-3.4-0.9-5c-0.4-1.9,0-3.9-0.4-5.9
	c-0.6-3.7-1.2-7.6-1.8-10.9c-0.4-2-0.4-2.8-0.8-5.1l-4.6-15.4c0.4,11.3,2,22.4,4.6,33.4c0.5,2,1.1,3,1.5,4.9
	C621.9,369.8,621.2,370.6,623.6,371.2L623.6,371.2z M368.9,332.2c4,0.9,1.5-1.7,10.6-12.5c2.9-3.5,1.2-1.8,5.5-3.5
	c1.2-0.4,1.1-0.5,2.2-0.9c3.1-1.1,6.7-1.2,8.5-3.6c-3.2-1.8-9.4,0.7-12.3,1.9c-5.1,2-8,6-11.4,10.7
	C370.4,326.7,369.3,329.4,368.9,332.2L368.9,332.2z M630.4,324.3c1.5,2,5.3,1.6,10.6,5.1l9.8,9.7c0.5,0.6,0.7,0.8,1.2,1.3
	c1.4,1.4,1.3,1.7,3.5,2.2c-1.5-3.1-0.2-2.4-3.6-6.9c-2.2-3-4.9-5.7-7.8-8c-1.3-0.8-2-1.3-3.4-2C638.9,324.8,631.8,322.7,630.4,324.3
	L630.4,324.3z M464.9,282.2c0,3.1,4.3,3.7,2.8,11.8c-0.3,1.7-0.3,3.4-0.2,5.1c0,1.5,0.3,1,1.1,1.6c2.2-1.7,0.2-2.9,2.7-4.8
	c0.3,3,1.5,3,2.1,5.2h1.1c0-1.9,0.4-1.9,0.3-3c-0.4-3-1.2-5.9-2.3-8.7c-1.2-3.5-3.2-6.5-5.9-8.9C466,280.8,464.9,281.5,464.9,282.2z
	 M493.4,466.7c0.9,3.3,6.7,5.3,9.8,6.6c13.1,5.2,12.2,3.1,19.7,2.9c-1.1-1.4-1.3-1.1-3.3-1.5c-1.7-0.4-2.3-0.4-4-0.8l-14.4-4.6
	C499.1,468.4,494.3,465.1,493.4,466.7z M339.9,265.8c1.9,0,2-2.9,3.7-7.3l7.4-15.8c0.4-1.3,0.9-2.9,1.5-4.3c0.7-1.3,1.2-2.8,1.6-4.3
	c-2,0.5-2.5,2.9-4.8,6.8l-1.5,2.8c-0.4,0.9,0,0-0.6,1l-5.9,12.6C341,258.2,337.5,265.8,339.9,265.8z M375.2,127.1
	c-3.3-1.6-3.3-1-5.2,0c-0.1,4.3,0.3,1.3,1.1,4.2c-1.9,0.5-1.6,0.5-2.1,2.7c4.5,3,4.5-0.9,6.8-1.6c1.6,0,5.2,0.5,5.2-1.1
	s-0.9-1.8-2.1-2.1c0.4-0.6,3.1-4.8,0.5-4.8C378.2,124.4,376.2,126.5,375.2,127.1z M347.3,376c4.2-0.1,4.3-4,4.3-11.1v-9.5
	c-0.2-2.8-0.5-5.7-1.1-8.4h-1.1c0,2.7-0.5,3.6-0.5,6.8c0,7.2-0.5,8.5-0.5,15.3C348.4,373,347.3,372.9,347.3,376L347.3,376z
	 M620.9,410.8l-5.1-40.8c-0.8-2.9-0.6-3.7-1.8-5.1c-0.1,8.2,0.5,16.4,1.9,24.5l4.7,21.1C620.8,410.6,620.9,410.7,620.9,410.8
	L620.9,410.8z M276.1,421.4v1.1c4,2.2,17.5-4,21.8-6.1c2.2-0.7,4.1-2.3,5.1-4.4c-3.5,0.1-3.9,1.6-6.4,2.6c-4.3,2-8.9,3.5-13.6,4.3
	C281.9,419.1,276.1,420.1,276.1,421.4L276.1,421.4z M656.3,468v3.7c8.6,5.8,12.2-7.5,5.2-8.4C658.8,463.9,656.3,464.7,656.3,468
	L656.3,468z M325.2,192.5c0,5.1-0.8,10.6,2.7,10.6c1.4-3,0.2-9.1,0.8-12.9c0.8-4.3,1.4-7.5,2.3-11.4c-1.2,0.4-0.4,0-1.2,0.8
	l-2.8,4.5C325.7,186.7,325.2,189.6,325.2,192.5z M179.4,403.2c0,5.5,10,7.5,10-0.5c0-3.2-5.9-4.6-8.3-2.6
	C180.4,401,179.9,402.1,179.4,403.2L179.4,403.2z M424.8,310.6c3.9-2.1-3.3-13-4.4-14.5l-2.7-3.1c-2.1-2.5-4.3-5.4-7.6-5.5
	c0.1,3.7,0.4,0.5,6.2,8c3.2,3.4,5.6,7.5,7.2,11.8C424,308.3,424.4,309.4,424.8,310.6L424.8,310.6z M571.4,238.9
	c-0.3-2.6-3-7.5-4.3-10c-0.8-1.8-1.4-3.6-1.8-5.6l-1.3-6c-2.8,0.7-2.7,2.8-2.1,5.3c0.4,2.2,1,4.4,1.9,6.7c0.7,2,1.7,3.8,2.8,5.6
	C568.4,237.3,569.5,238.7,571.4,238.9L571.4,238.9z M451.7,203.6c0,2.3-0.5,11.5,0,12.7c1.6-0.4,1.3-0.1,2-1.8c0.3-1,0.5-2,0.7-3
	c1-9.5,0.9-10.5-1.7-18.8c-0.2-1.3-1-2.5-2-3.3c0,2.6,0.4,4.1,0.5,6.8c0.2,2.1,0.4,1.1,0.5,3.2C451.8,200.6,451.7,202.2,451.7,203.6
	L451.7,203.6z M265,457.2l-5.3-27.9c-0.8-2-1-1.2-1-4.3h-0.5c-0.2,8.7,1,17.4,3.3,25.7C262.9,456.8,262.5,457,265,457.2L265,457.2z
	 M13.3,118.4c0,3.3,4.2,3.2,4.3,3.2c1.8-0.9,5.2-3.4,5.2-5.8C22.8,109.1,13.3,112.5,13.3,118.4z M712.1,354.4c-1.7,0-1.2-1.1-3,0.2
	c-1,0.7-1.7,1.8-1.8,3c0,7.5,10.6,2.7,10.6-1.6c0-1.2-0.9-1.5-1.6-2.7C710.9,353.3,713.9,354.4,712.1,354.4z M546.1,244.7
	c0.1-2.3-0.4-4.6-1.2-6.7c-1.8-7.2-2-11.3-3.4-17.7c-0.5-2.3,0.3-1.9-1.9-2.4c-0.3,6.2,0.5,12.3,2.3,18.3
	C542.9,238.9,543,243.8,546.1,244.7L546.1,244.7z M936.5,418.3c-0.3,1.4,0.5,2.8,2,3.4c4,2,4.6,1.4,7,0.9l0.5-3.7
	c0-2.2-3.5-4.3-7.4-4.3C937.9,415.8,936.5,416.8,936.5,418.3L936.5,418.3z M811.9,216.2c0,4.2,9,5.2,9-2.1c0-3.7-5-4.8-7.2-2
	C813.5,212.2,811.9,216.2,811.9,216.2L811.9,216.2z M926.7,292.7c0,6.7,9.5,2.7,9.5-1.1c0-1.2-0.9-1.5-1.6-2.7h-3.2
	c-0.4-1.5,0.1-0.8-1.1-1.6C929.9,287.7,926.7,287.8,926.7,292.7z M482.8,237.8c0,3,3.5,1.8,6.5-5.7c1.9-4.1,2.8-8.4,3-12.9
	c-1.8,0.4-1.7,0.5-2.7,4.3L482.8,237.8z M382.1,284.7c-6.1,0-5.2-0.4-6.3,1.1c1.9,2.5,1.3-0.1,9.8,1.8l3.2,1
	c2.2,0.5,8.1-2.8,12.9-1.8c-4-5.9-10.1,0.1-13.8-1C386,285.2,384.1,284.8,382.1,284.7L382.1,284.7z M555.6,342.8
	c0.9,3.3,2.4,2,5.3,1.6c4.2-0.5,15.6-2.7,16.9-7.4c-0.8,0.2-1.6,0.4-2.3,0.8c-1.3,0.4-1.6,0.4-2.8,0.9
	C567,340.5,561.3,341.8,555.6,342.8L555.6,342.8z M227,347c-0.1,1.3,0.3,2.7,1.1,3.7h4.3l1.3-2.3c0.1-0.1,0.2-0.2,0.3-0.3
	c1.4-1.5,2-0.5,2-3.7C236,339.7,227,343.9,227,347L227,347z M249.8,206.2c1.1,2,1.5,4.6,4.3,4.6c4.3,0,7.4-8.3,0.5-8.3
	C251.6,202.5,250.7,204.4,249.8,206.2L249.8,206.2z M488.6,155c0,2,5.9,3.6,8.9,11.7c0.4,1.6,1.4,3,2.8,4.2c2-3.5-1.6-8.7-3.3-10.9
	c-1.2-1.6-4.8-5.9-7.3-5.9C489.1,154.1,488.7,154.5,488.6,155L488.6,155z M592.5,429.3h1.6c-0.1-5.5-8.3-25.8-8.4-28.5h-1.1
	c0.4,5.3,4.1,16,5.8,21.1L592.5,429.3z M43.6,269.3c1.8,7.5,8.4,5.1,8.4,0.5c0-4.2-3.4-3.7-6.3-3.7
	C44.8,267.2,44.2,268.2,43.6,269.3L43.6,269.3z M876.7,126.4c0,5.2,7.4,7.1,7.4-3.2c-1.8-1.6-4.3-2.8-6.1-0.4
	C877.2,123.9,876.8,125.1,876.7,126.4L876.7,126.4z M467,496.2c-0.2-2.5-0.4-1.6-2.1-3.1l-8.8-8.1c-1-1-2.8-3.5-4.3-3.5
	c-3.3,0,0.1,3,0.9,3.8C463.4,496,458.9,490.8,467,496.2L467,496.2z M314.1,520.5c2.9,1.6,12.5-0.4,16.5-4.1c1.5-1.3,0.8,0,1.4-1.8
	c-3.1,0.3-9.1,2.5-14,3.4c-0.4,0.1-2.5,0.4-2.7,0.4C313.8,519.1,314.3,518.9,314.1,520.5L314.1,520.5z M36.5,498.5
	c0.1,0.1,0.2,0.1,0.3,0.3c0.8,3.5,7-1.1,8.2-1.9v-3.7C40.5,490.8,36.8,493.4,36.5,498.5L36.5,498.5z M306.7,466.8
	c0,6.8,9.8,9.6,12.7,5.8c-2.2-0.5-4.5-0.7-6.8-0.5c-3.8-5.7-4-1.4-1.6-11.6c-1.4,0.1-1.2-0.7-2.9,2.3
	C307.2,463.9,306.8,465.3,306.7,466.8L306.7,466.8z M764.3,510v3.7c4.2,2.2,7.9,0.8,7.9-3.2c0-1.2-0.9-1.5-1.6-2.7
	C765.5,507.9,767.2,508,764.3,510L764.3,510z M380,343.9v4.8c0,2-0.2,0.2,0.5,1.6c4.5-3-2.5-6.4,6.8-13.2c1.5-0.8,2.6-2.1,3.2-3.7
	c-2.6,0.5-5.1,1.8-7,3.5C381.3,338.5,380.1,341.1,380,343.9L380,343.9z M456.5,111.8v3.2c0.9,0.6,1.7,1.1,2.7,1.6
	c3.3-1.8,4.8-1.2,4.8-5.8c-1.7-1.3-3.7-2-5.8-2.1C456.9,109.6,456.5,109.9,456.5,111.8L456.5,111.8z M4.9,378.9
	c0,1.3,0.4,0.5,0.5,2.7c4.5,1.1,6.8-1.1,6.8-3.7c0-2.9-1.3-2.8-3.2-3.7c-1.4,0.7-1.6,0.3-2.8,1.4C5.5,376.5,5,377.6,4.9,378.9z
	 M629.9,165.1c-1.1-4-12.3-8.4-17.4-8.4c0.3,3.4,2.3,2.1,8.1,4.6C623.4,162.4,626.6,165,629.9,165.1L629.9,165.1z M358.9,302.7v1.6
	h1.6c0.3-3.5,4.3-10,7.5-13c1.7-1.6,2.9-1.4,3.5-3.8C364.8,287.9,358.9,299.4,358.9,302.7L358.9,302.7z M381.6,224.1
	c0,2.8-0.2,0.7,0.5,2.1c2.3-1.6,2-4.6,3.3-9.9c0.9-3.5,2.3-6.7,3-10.1c-2,0.7-2.8,3.5-3.7,5.2c-0.4,0.7-0.8,1.4-1.1,2.1
	C382.5,217,381.8,220.5,381.6,224.1L381.6,224.1z M303.5,461.5c1-2-1.1-7.8-1.7-10.5l-2-7.5c-0.4-2,0.5-1.4-1.7-2
	C298.3,446.5,300.4,459.2,303.5,461.5L303.5,461.5z M530.3,390.8c-2.3-2.3-4.8-4.3-7.5-6.2c-3.4-2.7-4.8-5.7-6.7-7
	c-0.4,1.7-0.5,0.8,0,2.1C517.4,383.7,524.3,390.7,530.3,390.8L530.3,390.8z M359.4,419.2c0,4.6-0.5,5.1,2.1,5.8c1.1-2.2,0.1-5.5,1-8
	c1.2-3.5,3.1-3,3.8-5.7C363.6,409.1,359.4,414.9,359.4,419.2L359.4,419.2z M432.7,350.2l11.4,4.4c1.2,0.9,2.8,1.4,4.4,1.4
	c-3.8-4.8-9.7-7.5-15.8-7.4L432.7,350.2z M507.6,361.2c2.9-0.1,2.9-1.1,5.8-1.1c3.3,0,5.8,3.8,7.9,5.2c1.1-2.4-2.3-5.9-4.5-7
	C513.2,356.7,508.6,357.4,507.6,361.2L507.6,361.2z M454.2,426.1c1.2,1.8,0.8,1,2.6,2.3l2,1.8c0.1,0.2,0.7,0.9,0.7,0.9
	c3,4.3-1.9,5.6,1.1,5.6c3.5,0,3.3-10-5.2-12L454.2,426.1z M445.6,528.3c3.1,0,4-3.7,4.3-4.3c-0.4-0.9-1-1.8-1.6-2.7h-2.1
	C441.7,521.3,441.9,528.3,445.6,528.3L445.6,528.3z M396.9,442.5c0,2.1,5.9,3.6,6.3,7.9c-0.8,3.1-1.2,0.1-0.5,3.2
	c1.7-0.4,2-1.1,2.4-2.9C406.5,444.4,396.9,439,396.9,442.5L396.9,442.5z M501.8,247.3c0,5.9-0.4,5.6,2.1,5.8
	c0-8.9,2.9-18.5-0.4-15.3C502.2,239.1,501.8,245.6,501.8,247.3L501.8,247.3z M588.7,184c0,2.6,9,8.7,12.7,3.7
	c-1.8-0.9-4.2-1-6.2-1.7C593.9,185.6,588.7,180.9,588.7,184L588.7,184z M480.2,331.7c0,11.2,0.7,6.1,2.1,12.2h2.1
	c0.7-2.8-0.4-3.5-1.2-6.7c-1.1-4.3-0.6-5.6-2.5-7C480.3,330.8,480.2,330.7,480.2,331.7L480.2,331.7z M440.1,382.3
	c-0.1-1.5-0.7-2.9-1.8-4l-5.4-6.7c-1.2-1.5-1.4-2.4-3.4-2.9c0.1,1.5,0.7,2.9,1.7,4.1C432.7,375,437.6,381.6,440.1,382.3L440.1,382.3
	z M377.9,438.8c-0.2-2-0.2-1.8-1.8-2.5c-8.2-3.3-2.7-4.8-7.2-5.9c-0.8,3.6,1.4,7.2,5,8.3C375.1,439.1,376.5,439.2,377.9,438.8
	L377.9,438.8z M380,259.5v-1.1c-4.8,0-5.5-0.2-8.7,1.9c-1.4,1-5.9,3.8-5.3,5.4c0.6,1.7,1.7-0.5,5.9-3.2
	C374.4,261,377.2,259.9,380,259.5L380,259.5z M435.4,422.4c-0.1-4.1-1.3-1.7-4.5-3.9c-1.6-1.3-2.8-3.1-3.4-5.1h-1.1
	C425.9,419.3,428.9,422.4,435.4,422.4L435.4,422.4z M604.6,446.1c0.8-1.2,0.1-0.7,1.6-1.1l3.8-4.1c-2.8,0.1-3.3,1.3-6.7,3.3
	c-2.4,1.3-4.9,2.3-7.5,3v1.1C600.6,449.4,600.5,447.1,604.6,446.1L604.6,446.1z M298.8,485.2c0.3,2,1.2,3.8,2.8,5.1
	c1.9,1.6,3.4,1.7,6.7,1.7c-1.2-1.7-3.3-2.2-4.9-3.5c-0.7-0.7-1.3-1.5-1.8-2.4c-1.2-2-0.2-1.9-2.3-2.4
	C298.9,484.3,298.8,484.2,298.8,485.2z M491.8,393.4c2.2-0.6,2.1-2.1,2.1-5.8c0-3-1.1-6-4.3-6.3
	C489.7,385.1,491.8,383.7,491.8,393.4L491.8,393.4z M351.5,471c0,3,0.4,5.1,3.2,5.8c1.5-1.8-0.5-1.5-0.5-5.8c0-2.7,0.9-2.8,1.1-5.2
	C352.4,465.9,351.5,467.9,351.5,471L351.5,471z M536,400.8c0,4.9-5.2,8.5-1.1,11.6c0.6-3.1-0.7-2,0.7-5.6c0,0,6.1-9.1-0.7-9.7
	C535.2,399.5,536,399.5,536,400.8L536,400.8z M367.8,215.2c-0.3,2.3-0.1,4.6,0.5,6.8h1.6c0-10.8,0.6-7.5,1.1-12.7
	C368.7,210,367.8,212.8,367.8,215.2L367.8,215.2z M491.8,434.1c0.3,4.1,3.7,7.1,7.8,6.8h0.1c-0.3-3.1-1.7-1.7-3.8-4.1
	c-1.5-1.7-1.7-3.1-3.5-4.3C492,433.1,491.8,433,491.8,434.1L491.8,434.1z M634.7,161.3c-0.1-3-1.1-3.5-1.7-6.2c-0.6-2.6-1-4-3-5.4
	c-0.2,2.4,0.1,4.8,0.9,7c0.4,1,0.8,2,1.3,2.9C632.9,160.9,633.1,161,634.7,161.3L634.7,161.3z M446.4,278.4c2.1,1.8,9-2.9,11.6-7.9
	c-2.1,0.9-4.1,2.1-5.8,3.7c-1,0.7-2,1.2-3,1.8C447.2,276.9,447,276.5,446.4,278.4L446.4,278.4z M383.6,462.5
	c0.1,4.1,3.4,7.3,7.4,7.4c-0.7-2.8-2.6-2-4.6-6.4c-0.9-1.8-0.2-1.5-2.2-2C384.2,461.5,383.6,462.4,383.6,462.5L383.6,462.5z
	 M579.2,395c0,3.5-2,3.4-3.7,5.8c3.7,1.8,8-5.4,3.1-10c-2-1.9-1.6-1.5-3.1-1.6c0.5,2,0.7,1.3,2,2.8C578.4,392.8,579,393.9,579.2,395
	L579.2,395z M448.5,453.6c-0.3-3.5-0.3,0-3.1-4.3c-2.1-3.3-1.7-3.5-3.8-4.1c-0.6,2,0,4,1.5,5.4C444.2,452.4,446.3,453.6,448.5,453.6
	L448.5,453.6z M408.5,361.7c2.9-0.3,1.6-0.9,4.1-3.3c1.8-1.8,3.2-1.6,3.8-4.1c-2-0.2-4,0.5-5.4,2c-0.6,0.6-1.2,1.3-1.6,2.1
	C408.6,359.4,408.3,360.6,408.5,361.7L408.5,361.7z M478,397.7c0,3.9,1,8.3,4.3,10.6c0.6-1.3-2-7.3-3.2-12.2
	C478.2,396.7,478,396.2,478,397.7L478,397.7z M435.9,416.1c1.8,2.6,1.2,0.3,4.8,5.7c0.8,1.2,0.4,1.2,2,1.7
	C442.7,416,437,414.7,435.9,416.1L435.9,416.1z M385.2,398.7c3.1,1,5.4,3.6,5.8,6.8h1.1c0.2-2-0.4-4.2-1.6-5.9
	c-1.2-1.5-2.9-2.7-4.8-3.1C385.4,397.2,385.1,397.9,385.2,398.7L385.2,398.7z M385.2,439.8c0-4.6-2.2-7.4-6.8-7.4
	c0.4,1.7,0,0.8,1.3,1.8C384,437.6,381.7,438.8,385.2,439.8L385.2,439.8z M440.1,306.4c0,2.2,2,2,3.5,1.4c1.9-0.4,3.1-2.1,2.8-4.1
	C444.3,303.7,440.1,304.9,440.1,306.4L440.1,306.4z M560.8,337c0.4,4.7,7.6,1.5,8.4-1.6L560.8,337z M375.7,477.8
	c1.4,0,1.6-0.8,2.1-1.6L371,473C368.5,473.1,372,477.8,375.7,477.8L375.7,477.8z M428,457.2c0,1.5,5.9,7.4,7.4,2.1
	C429.8,458.1,428,454.6,428,457.2L428,457.2z M442.2,169.2c0,1.5,1.4,3.6,5.2,1.6C447.5,165.3,442.2,168.3,442.2,169.2z M537.6,385
	c2,0.5,2.2,1.4,3.3,3c1.1,1.7,1,2.7,2.5,3.8c1.7-2-1.7-7.8-5.8-7.9V385L537.6,385z M361.5,400.8c2.7-0.7,1.3-1.1,2.8-2.5
	c1.8-1.8,2.3-0.1,3-2.8C365.7,394.1,361.6,396.3,361.5,400.8L361.5,400.8z M476.5,370.3v1.6c2.1-0.2,1.2-0.5,3.2-0.5
	c2.3,0,3.5,2,4.4,1.2C485.7,370.7,480.5,368.7,476.5,370.3L476.5,370.3z M319.8,454.1c-1.4-0.1-2.8,0.1-4.2,0.5
	c-0.7,0.4-2.8,1.6-1.8,2.8C314.4,457.8,319.1,456.8,319.8,454.1L319.8,454.1z M374.7,399.8c1.4,0,1.6-0.8,2.1-1.6
	c-1.8-0.9-1.4-0.2-3-0.6c-1.7-0.5-1.2-1.8-2.6-1.2C369,397.1,372.5,399.7,374.7,399.8L374.7,399.8z M448,357c0.3,0.4,0.4,1,0.5,1.6
	c1.8-1.9,2-0.9,2.7-2.7C450.1,356.2,449,356.5,448,357L448,357z M426.4,390.3h0.5v-1.6h-0.5L426.4,390.3L426.4,390.3z M372.6,364.9
	v-0.5l-0.6,0.4L372.6,364.9z M362.6,171.4h0.5l-0.4-0.6L362.6,171.4z M67.8,154.3l0.2-0.2C68,154.2,67.7,154.3,67.8,154.3z
	 M361.5,173.5l0.5-1.1L361.5,173.5z M362.1,172.4l0.5-1.1L362.1,172.4z M624.9,402.4l22.4-39l16.7,9.6L645.1,406
	c-1.7,1.6-3.4,3.3-5.2,4.9l-0.1-0.1L624.9,402.4z M641,398.7l0.4,0.1c0.2,0,0.3,0,0.4,0c0.2,0.1,0.4,0.1,0.6,0.1
	c0.2,0,0.4,0,0.6-0.1l0.6-0.1c0.2,0,0.4,0,0.5,0c0,0,0-0.1,0.1-0.1c0,0,0.1,0,0.2-0.1l0.2-0.1c0.1,0,0.1,0,0.2-0.1
	c0.1,0.1,0.1,0.2,0,0.3c0,0.1-0.1,0.2-0.1,0.3s0,0.1,0,0.2c0,0.1,0,0.1,0,0.2c0,0.1-0.1,0.2-0.1,0.3c0,0.1-0.1,0.2-0.1,0.3
	c0,0,0,0,0,0.1c0,0,0,0.1,0,0c0,0.1,0,0.1,0,0.2v0.1c0,0.1-0.1,0.1-0.2,0.2c-0.1,0-0.2,0.1-0.3,0.1c-0.1,0-0.2,0.1-0.3,0.1
	s-0.2,0.1-0.3,0.2c-0.1,0.1-0.2,0.1-0.2,0.2c0,0.1-0.1,0.1-0.2,0.2c0,0-0.1,0.1-0.2,0.1c-0.1,0-0.1,0-0.2,0.1c0,0.1-0.1,0.2-0.2,0.3
	c-0.1,0-0.1,0.1-0.2,0.3c0,0-0.1-0.1-0.1,0c0,0,0,0,0,0.1c0,0,0,0,0,0.1c0,0,0,0-0.1-0.1c0,0.1,0,0.1,0,0.1v0.1
	c-0.4,0.4-0.6,0.6-1,1c-0.4,0.4-0.6,0.7-0.8,1.2c0.1,0.1,0.3,0.2,0.4,0.3c0.1,0.1,0.3,0.1,0.4,0.3c0,0.2,0,0.4-0.1,0.4
	c-0.1,0.2-0.1,0.3-0.2,0.4c-0.1,0.2-0.1,0.3-0.2,0.4c-0.1,0.2-0.1,0.3-0.1,0.4c-0.1,0.1-0.2,0.3-0.3,0.3c-0.1,0.1-0.3,0.1-0.4,0
	c-0.2,0-0.3-0.1-0.4-0.2c-0.2-0.1-0.3-0.2-0.4-0.3c-0.2,0.4-0.4,0.7-0.5,1.2c-0.2,0.4-0.4,0.8-0.5,1.2h-0.4c-0.1,0-0.3,0-0.4-0.1
	c0-0.1,0-0.2,0-0.3c0-0.1,0.1-0.2,0.1-0.3l0.4-1c0.2-0.4,0.4-0.7,0.6-1.2c-0.3-0.2-0.4-0.4-0.6-0.6c-0.3-0.3-0.4-0.5-0.6-0.7
	c-0.6-0.7-1.2-1.3-1.7-2c-0.5-0.7-1.1-1.3-1.5-2l-0.1-0.2L634,400c-0.1-0.1-0.1-0.2-0.1-0.2c0-0.1-0.1-0.1-0.1-0.2
	c0-0.2,0.1-0.4,0.2-0.5c0.1-0.2,0.3-0.4,0.4-0.4c-0.4-0.3-0.9-0.6-1.3-0.9c-0.4-0.3-0.9-0.6-1.3-0.9c0-0.1-0.1-0.2-0.1-0.2
	c0-0.1-0.1-0.2,0-0.3c0.1-0.2,0.2-0.3,0.3-0.4c0.1-0.2,0.2-0.4,0.3-0.5c0.1-0.2,0.2-0.4,0.4-0.5c0.1-0.2,0.3-0.3,0.4-0.4
	c0.4,0.4,0.8,0.7,1.2,1c0.4,0.4,1,0.6,1.5,1c0.5,0.3,1.1,0.6,1.6,0.9c0.5,0.3,1.1,0.5,1.6,0.7c0.2,0.1,0.4,0.2,0.5,0.3
	c0.2,0.1,0.4,0.2,0.4,0.2c0.2,0.1,0.4,0.1,0.4,0.2c0.1,0.1,0.3,0.1,0.4,0.2c0.1,0.1,0.3,0.1,0.4,0.1c0.1,0,0.3,0,0.4,0
	c0,0.1,0,0.1,0,0.1L641,398.7L641,398.7z M639.1,403c0.1,0.1,0.2,0.2,0.3,0.3c0.1,0.1,0.2,0.2,0.4,0.3c0.3-0.5,0.6-1,1-1.5
	c0.4-0.4,0.7-0.8,1-1.2c-0.8,0.1-1.6,0.1-2.3-0.1c-0.9-0.2-1.7-0.4-2.6-0.7c0.2,0.3,0.4,0.5,0.5,0.7c0.2,0.3,0.4,0.4,0.5,0.7
	s0.4,0.4,0.5,0.7C638.6,402.5,638.9,402.7,639.1,403L639.1,403z M639.6,396c-0.2-0.1-0.3-0.1-0.4-0.1s-0.3,0-0.4,0l0.1-0.1h0.1
	c0,0-0.1-0.1-0.2-0.1s-0.1,0-0.2,0c-0.1,0-0.1,0-0.2,0c-0.1,0-0.1-0.1-0.2-0.1c-0.1,0-0.2,0-0.2,0c-0.1,0-0.2-0.1-0.2-0.1
	c-0.1-0.1-0.1-0.1-0.2-0.2c-0.1-0.1-0.1-0.1-0.1-0.2c0,0,0,0,0-0.1s0,0,0,0c-0.1-0.2-0.2-0.4-0.3-0.5c-0.1-0.2-0.2-0.4-0.3-0.6
	c-0.1-0.3-0.1-0.4-0.2-0.6c-0.1-0.2-0.1-0.4-0.1-0.4s0-0.1,0-0.1s-0.1,0-0.1-0.1c0-0.1,0-0.1,0.1-0.2v-0.1c-0.1,0-0.2-0.1-0.3,0
	c-0.1-0.1-0.3-0.2-0.4-0.4c-0.2-0.1-0.3-0.2-0.4-0.4v-0.1v-0.1v-0.1c0,0,0-0.1,0.1-0.1c0-0.1,0-0.1,0-0.2c0-0.1,0-0.1,0.1-0.2v-0.1
	v-0.1c0.1-0.1,0.1-0.2,0.2-0.3c0-0.1,0-0.3,0.1-0.4c0-0.1,0-0.3,0.1-0.4c0-0.1,0.1-0.3,0.2-0.4h0.1c0,0,0,0,0.1,0
	c0.1-0.1,0.2-0.1,0.3-0.1c0.1,0,0.2,0.1,0.3,0.1c0,0,0,0.1,0.1,0.1s0.1,0,0.1,0v0.2c0.2,0.1,0.4,0.3,0.6,0.4
	c0.3,0.1,0.4,0.2,0.7,0.3c0.3,0.1,0.5,0.2,0.8,0.2c0.3,0.1,0.4,0.1,0.7,0.1s0.4,0,0.6,0c0.4,0,0.7-0.1,1.1-0.3
	c0.2-0.1,0.4-0.2,0.5-0.4h0.1h0.1h0.1c0,0,0-0.1,0.1-0.1h0.1c0,0,0.1,0,0.1,0.1c0,0.1-0.1,0.1-0.1,0.2c0.1,0.1,0.1,0.1,0.1,0.2
	c0,0.1,0.1,0.1,0.1,0.2c-0.1,0.1-0.1,0.2,0,0.3c-0.1,0.1-0.1,0.2,0,0.2h-0.1h-0.1c0.1,0.1,0.1,0.1,0.1,0.2c0,0.1,0,0.1,0.1,0.2v0.1
	c0,0,0,0.1-0.1,0.1c0,0.1,0.1,0.1,0,0.2c0,0.1,0,0.1,0,0.2l0,0c0,0,0,0-0.1,0c0,0.1,0,0.2,0.1,0.3c0,0.1-0.1,0.1-0.1,0.2
	c0,0.1,0,0.1,0,0.2c0,0,0,0.1-0.1,0.1l-0.1,0.1c-0.1,0-0.3,0.1-0.4,0.2c-0.1,0.1-0.3,0.1-0.4,0.1c-0.5,0.2-1,0.3-1.5,0.4
	c-0.4,0-1,0-1.4-0.1c0.1,0.1,0.1,0.2,0.2,0.3c0.1,0.1,0.1,0.2,0.2,0.3c0.1,0.1,0.1,0.2,0.2,0.3c0.1,0.1,0.1,0.1,0.2,0.1
	c0.4,0.1,0.8,0.1,1.2,0.1s0.8-0.1,1.2-0.3c0.4-0.2,1-0.4,1.4-0.6c0.5-0.3,1.2-0.6,1.9-1.2c0.1-0.1,0.2-0.2,0.3-0.3
	c0.1-0.1,0.2-0.1,0.3-0.2c0,0,0.1,0,0.1-0.1c0.2,0,0.3,0.1,0.4,0.2c0.1,0.1,0.3,0.2,0.4,0.3l0.3,0.4c0.1,0.1,0.3,0.3,0.4,0.4
	c0.1,0.2,0.2,0.3,0.3,0.4c0.1,0.1,0.1,0.2,0.2,0.2c0,0.1,0,0.1,0,0.2c0,0.1,0,0.1,0.1,0.2c0,0.1,0,0.2,0,0.3c0,0.1,0,0.2,0,0.3
	l-0.1,0.1c0,0.1,0,0.2,0,0.3c0,0.1,0,0.2,0,0.3c-0.1,0.2-0.1,0.4-0.1,0.4c-0.1,0.2-0.2,0.4-0.1,0.5c0,0.1-0.1,0.1-0.1,0.1
	c-0.1,0.5-0.3,1-0.5,1.3c-0.3,0.4-0.6,0.7-1,1c-0.4,0.2-0.7,0.4-1,0.4c-0.4,0.1-0.7,0.2-1.1,0.3c-0.4,0-0.8,0-1.2-0.1
	c-0.4-0.1-0.9-0.3-1.2-0.5l-0.1-0.1c0,0,0-0.1-0.1-0.1l-0.1-0.2c0.1,0.1,0.1,0.1,0.2,0.1c0.1,0,0.1,0.1,0.2,0.1
	c-0.1-0.1-0.2-0.2-0.3-0.3c-0.1-0.1-0.2-0.2-0.3-0.3c0,0,0,0,0-0.1l0,0c0,0-0.1-0.1-0.1-0.2c0-0.1,0-0.1,0-0.1c0-0.1,0-0.1-0.1-0.2
	c-0.1,0-0.1-0.1-0.1-0.2l0.1,0.1l0.1,0.1c0.1,0,0.1,0,0.1-0.1s0-0.1,0.1-0.1c0,0,0.1,0,0.1,0.1l0.1,0.1v-0.1c0,0,0,0,0-0.1
	c0,0.1,0.1,0.1,0.1,0c0-0.1,0,0,0.1-0.1c0.1,0,0.2,0.1,0.2,0.1c0.1,0.1,0.2,0.1,0.2,0.1s0-0.1-0.1-0.1l0,0c-0.1,0-0.1,0-0.1-0.1
	c0.2,0,0.3,0.1,0.4,0.2c0.1,0.1,0.3,0.1,0.4,0.2l0,0v-0.1h0.2h0.2l-0.1-0.1c-0.1,0-0.1-0.1-0.1-0.1c0.1,0,0.2,0,0.3,0h0.3
	c0,0,0,0,0-0.1c0,0,0,0,0-0.1c0.1-0.1,0.2-0.1,0.4-0.1c0.1,0,0.3,0,0.4-0.1l0,0c0,0,0,0-0.1,0c0.1-0.1,0.2-0.1,0.3-0.1
	s0.2,0,0.3-0.1l0,0l0,0l0.1-0.1l0.1-0.1l0.6-0.3c0.2-0.1,0.4-0.1,0.4-0.3c0.2-0.1,0.4-0.2,0.4-0.4c0.2-0.2,0.4-0.4,0.4-0.5
	c0-0.1-0.1-0.3-0.2-0.4c-0.1-0.1-0.2-0.3-0.3-0.4c-0.1-0.1-0.2-0.2-0.3-0.3c-0.1-0.1-0.2-0.2-0.2-0.2c-0.1,0.1-0.3,0.3-0.4,0.4
	l-0.4,0.3c-0.4,0.3-0.7,0.5-1.2,0.8c-0.4,0.2-0.7,0.4-1.2,0.5c-0.4,0.2-0.8,0.3-1.2,0.3c-0.4,0.1-0.9,0.1-1.3,0l-0.6-0.1
	c0,0,0.1-0.1,0.2-0.1L639.6,396L639.6,396z M643.6,389c-0.2-0.1-0.3-0.1-0.4-0.1s-0.3,0-0.4,0l0.1-0.1h0.1c0,0-0.1-0.1-0.2-0.1
	c-0.1,0-0.1,0-0.2,0s-0.1,0-0.2,0c-0.1,0-0.1-0.1-0.2-0.1c-0.1,0-0.2,0-0.2,0c-0.1,0-0.2-0.1-0.2-0.1c-0.1-0.1-0.1-0.1-0.2-0.2
	c-0.1-0.1-0.1-0.1-0.1-0.2c0,0,0,0,0-0.1l0,0c-0.1-0.2-0.2-0.4-0.3-0.5c-0.1-0.2-0.2-0.4-0.3-0.6c-0.1-0.3-0.1-0.4-0.2-0.6
	c-0.1-0.2-0.1-0.4-0.1-0.4c0-0.1,0-0.1,0-0.1s-0.1,0-0.1-0.1c0-0.1,0-0.1,0.1-0.2v-0.1c-0.1,0-0.2-0.1-0.3,0
	c-0.1-0.1-0.3-0.2-0.4-0.4c-0.2-0.1-0.3-0.2-0.4-0.4v-0.1v-0.1v-0.1c0,0,0-0.1,0.1-0.1c0-0.1,0-0.1,0-0.2c0-0.1,0-0.1,0.1-0.2v-0.1
	v-0.1c0.1-0.1,0.1-0.2,0.2-0.3c0-0.1,0-0.3,0.1-0.4c0-0.1,0-0.3,0.1-0.4c0-0.1,0.1-0.3,0.2-0.4h0.1c0,0,0,0,0.1,0
	c0.1-0.1,0.2-0.1,0.3-0.1s0.2,0.1,0.3,0.1c0,0,0,0.1,0.1,0.1s0.1,0,0.1,0v0.2c0.2,0.1,0.4,0.3,0.6,0.4c0.3,0.1,0.4,0.2,0.7,0.3
	c0.3,0.1,0.5,0.2,0.8,0.2c0.3,0.1,0.4,0.1,0.7,0.1c0.3,0,0.4,0,0.6,0c0.4,0,0.7-0.1,1.1-0.3c0.2-0.1,0.4-0.2,0.5-0.4h0.1h0.1h0.1
	c0,0,0,0,0.1-0.1h0.1h0.1c0,0.1-0.1,0.1-0.1,0.2c0,0.1,0.1,0.1,0.1,0.2c0,0.1,0.1,0.1,0.1,0.2c-0.1,0.1-0.1,0.2,0,0.3
	c-0.1,0.1-0.1,0.2,0,0.2h-0.1h-0.1c0.1,0.1,0.1,0.1,0.1,0.2c0,0.1,0,0.1,0.1,0.2v0.1c0,0,0,0.1-0.1,0.1c0,0.1,0.1,0.1,0,0.2
	c0,0.1,0,0.1,0,0.2l0,0c0,0,0,0-0.1,0c0,0.1,0,0.2,0.1,0.3c0,0.1-0.1,0.1-0.1,0.2c0,0.1,0,0.1,0,0.2c0,0,0,0.1-0.1,0.1l-0.1,0.1
	c-0.1,0-0.3,0.1-0.4,0.2c-0.1,0.1-0.3,0.1-0.4,0.1c-0.5,0.2-1,0.3-1.5,0.4c-0.4,0-1,0-1.4-0.1c0.1,0.1,0.1,0.2,0.2,0.3
	c0.1,0.1,0.1,0.2,0.2,0.3c0.1,0.1,0.1,0.2,0.2,0.3c0.1,0.1,0.1,0.1,0.2,0.1c0.4,0.1,0.8,0.1,1.2,0.1c0.4,0,0.8-0.1,1.2-0.3
	c0.4-0.2,1-0.4,1.4-0.6c0.5-0.3,1.2-0.6,1.9-1.2c0.1-0.1,0.2-0.2,0.3-0.3c0.1-0.1,0.2-0.1,0.3-0.2c0,0,0.1,0,0.1-0.1
	c0.2,0,0.3,0.1,0.4,0.2c0.1,0.1,0.3,0.2,0.4,0.3l0.3,0.4l0.4,0.4c0.1,0.2,0.2,0.3,0.3,0.4c0.1,0.1,0.1,0.2,0.2,0.2
	c0,0.1,0,0.1,0,0.2c0,0.1,0,0.1,0.1,0.2c0,0.1,0,0.2,0,0.3c0,0.1,0,0.2,0,0.3l-0.1,0.1c0,0.1,0,0.2,0,0.4c0,0.1,0,0.2,0,0.3
	c-0.1,0.2-0.1,0.4-0.1,0.4c-0.1,0.1-0.1,0.2-0.1,0.3c0,0.1,0,0.2,0,0.3s-0.1,0.1-0.1,0.1c-0.1,0.5-0.3,1-0.5,1.3
	c-0.3,0.4-0.6,0.7-1,1c-0.4,0.2-0.7,0.4-1,0.4c-0.4,0.1-0.7,0.2-1.1,0.3c-0.4,0-0.8,0-1.2-0.1c-0.4-0.1-0.9-0.3-1.2-0.5l-0.1-0.1
	c0,0,0-0.1-0.1-0.1l-0.1-0.2c0.1,0.1,0.1,0.1,0.2,0.1c0.1,0,0.1,0.1,0.2,0.1c-0.1-0.1-0.2-0.2-0.3-0.3c-0.1-0.1-0.2-0.2-0.3-0.3
	c0,0,0,0,0-0.1l0,0c0,0-0.1-0.1-0.1-0.2c0-0.1,0-0.1,0-0.1c0-0.1,0-0.1-0.1-0.2c-0.1,0-0.1-0.1-0.1-0.2l0.1,0.1l0.1,0.1
	c0.1,0,0.1,0,0.1-0.1s0-0.1,0.1-0.1c0,0,0.1,0,0.1,0.1l0.1,0.1V390c0,0,0,0,0-0.1c0,0.1,0.1,0.1,0.1,0c0,0,0,0,0.1-0.1
	c0.1,0,0.2,0.1,0.2,0.1c0.1,0.1,0.2,0.1,0.2,0.1s0-0.1-0.1-0.1l0,0c-0.1,0-0.1,0-0.1-0.1c0.2,0,0.3,0.1,0.4,0.2
	c0.1,0.1,0.3,0.1,0.4,0.2l0,0v-0.1h0.2h0.2l-0.1-0.1c-0.1,0-0.1-0.1-0.1-0.1c0.1,0,0.2,0,0.3,0h0.3c0,0,0,0,0-0.1c0,0,0,0,0-0.1
	c0.1-0.1,0.2-0.1,0.4-0.1c0.1,0,0.3,0,0.4-0.1l0,0c0,0,0,0-0.1,0c0.1-0.1,0.2-0.1,0.3-0.1c0.1,0,0.2,0,0.3-0.1l0,0l0,0l0.1-0.1
	l0.1-0.1l0.6-0.3c0.2-0.1,0.4-0.1,0.4-0.3c0.2-0.1,0.4-0.2,0.4-0.4c0.2-0.2,0.4-0.4,0.4-0.5c0-0.1-0.1-0.3-0.2-0.4
	c-0.1-0.1-0.2-0.3-0.3-0.4c-0.1-0.1-0.2-0.2-0.3-0.3c-0.1-0.1-0.2-0.2-0.2-0.2c-0.1,0.1-0.3,0.3-0.4,0.4l-0.4,0.3
	c-0.4,0.3-0.7,0.5-1.2,0.8c-0.4,0.2-0.7,0.4-1.2,0.5c-0.4,0.2-0.8,0.3-1.2,0.3c-0.4,0.1-0.9,0.1-1.3,0l-0.6-0.1c0,0,0.1-0.1,0.2-0.1
	L643.6,389z M653.4,384L653.4,384C653.5,384,653.5,384,653.4,384c0.1,0.1,0.1,0.2,0,0.2v0.1c0,0.1,0,0.1,0.1,0.2c0,0,0,0-0.1,0
	c0,0,0,0-0.1,0.1v0.1l0,0c0,0,0,0.1-0.1,0.1v0.1c0,0,0,0.1,0.1,0.1c0,0,0,0-0.1,0c0,0.1,0,0.2-0.1,0.3c-0.1,0-0.1,0-0.1,0
	s-0.1,0-0.1,0.1l0,0l0,0h-0.1c0,0-0.1,0-0.2,0c-0.5-0.3-1.1-0.4-1.6-0.8c-0.5-0.3-1.1-0.6-1.7-0.9c-0.5-0.4-1.1-0.6-1.6-1
	c-0.5-0.4-1-0.6-1.4-0.9c-0.3-0.2-0.5-0.4-0.8-0.5c-0.3-0.2-0.5-0.4-0.7-0.5c0.1,0,0.1,0,0.2,0.1c0.1,0.1,0.1,0.1,0.2,0.1l-0.1-0.1
	c0,0-0.1,0-0.1-0.1c0-0.1,0-0.1,0-0.2c0,0,0.1-0.1,0.1-0.2h0.2v-0.1c0,0,0-0.1-0.1-0.1l0,0l0,0c-0.1-0.1-0.1-0.2-0.1-0.3
	c0-0.1,0.1-0.2,0.2-0.3c0,0,0,0,0-0.1c0,0,0,0,0-0.1c0.1-0.1,0.2-0.1,0.2-0.3c0-0.1,0.1-0.2,0.2-0.2c0-0.2,0-0.3,0.1-0.4
	c0.1-0.1,0.2-0.3,0.3-0.3h0.1h0.1h0.1l0,0c0.1,0,0.2,0,0.2,0c0.1,0,0.1,0.1,0.2,0.1c0,0.1,0.1,0.1,0.1,0.2c0,0.1,0.1,0.1,0.2,0.2
	c0,0.1,0,0.1,0,0.2c0,0,0,0,0.1,0h0.1c0.1,0.1,0.3,0.3,0.4,0.4c0.2,0.1,0.4,0.3,0.5,0.4c0.2,0.1,0.4,0.3,0.5,0.4l0.4,0.3
	c0.6,0.4,1.2,0.7,1.9,1.1c0.6,0.4,1.2,0.7,1.9,1.1c0.1,0,0.1,0,0.2,0c0.1,0.1,0.2,0.2,0.3,0.2c0.1,0,0.2,0.1,0.3,0.1l0,0l0,0
	c0.1,0,0.2,0.1,0.3,0.1s0.2,0.1,0.2,0.2l-0.1,0.1c0,0,0,0-0.1,0c0,0,0,0.1,0,0.2c0,0.1-0.1,0.1-0.1,0.2c0,0.1,0,0.1,0,0.2
	c0,0.1,0,0.1,0,0.2h-0.1h-0.1c0,0,0,0,0.1,0h0.1c-0.1,0-0.1,0.1-0.1,0.1C653.5,384,653.4,384,653.4,384L653.4,384L653.4,384z
	 M646.7,374.5c0.3,0.1,0.4,0.3,0.6,0.4l0.5,0.4c0.2,0.1,0.4,0.1,0.7,0.2c0.3,0.1,0.4,0.2,0.7,0.3c0.3,0.1,0.4,0.1,0.7,0.2
	c0.2,0,0.4,0.1,0.6,0.1c-0.1-0.4-0.2-0.7-0.3-1.1s-0.2-0.7-0.3-1.1c-0.1-0.2-0.1-0.4-0.1-0.5c0-0.2,0.1-0.4,0.1-0.5
	c0-0.2,0-0.3,0.1-0.4c0.1-0.2,0.1-0.4,0.2-0.4l0,0c0,0,0,0,0-0.1c0-0.1,0-0.2,0.1-0.3c0-0.1,0-0.2,0-0.3c0,0,0,0,0.1-0.1l0,0
	c0-0.1,0-0.1,0-0.2c0-0.1,0-0.2,0.1-0.2h0.1c0,0,0,0,0.1,0.1l0,0c0,0,0-0.1,0,0c0,0,0,0,0.1,0.1v0.1v0.1l-0.1,0.1c0,0,0,0.1,0.1,0.1
	c0,0,0.1,0,0.1,0.1c0,0.4,0,0.9,0.1,1.3c0.1,0.4,0.2,0.8,0.4,1.2c0.2,0.4,0.3,0.8,0.5,1.2c0.2,0.4,0.4,0.8,0.5,1.2
	c0.9,0.1,1.8,0.2,2.7,0.2c0.9,0,1.8-0.1,2.6-0.1c0,0,0.1,0,0.1,0.1h0.1c0,0.1,0,0.3,0,0.4c0,0.1,0,0.3,0.1,0.4
	c-0.1,0.1-0.1,0.3-0.1,0.4c0,0.1,0,0.3,0,0.4l-0.1,0.2c0,0.2,0,0.4-0.1,0.5v0.1h0.1v0.1l-0.1,0.1c-0.1,0-0.1,0.1-0.2,0.1
	c-0.1,0-0.2,0.1-0.2,0.1c-0.6,0-1.2,0.1-1.8,0.1c-0.5,0-1.2,0-1.8,0c0.1,0.1,0.1,0.3,0.2,0.4c0.1,0.1,0.1,0.3,0.2,0.4
	c0.1,0.1,0.2,0.3,0.3,0.4c0.1,0.1,0.3,0.3,0.4,0.4v0.1c0,0.1,0,0.1,0,0.1s0,0.1,0.1,0.1c0,0,0.1,0,0.1,0.1c0,0.1-0.1,0.2-0.1,0.3
	s0,0.2,0.1,0.3c-0.1,0.1-0.1,0.3-0.1,0.4c0,0.1,0.1,0.2,0,0.4l-0.1,0.1v0.1v0.2c0,0.1,0,0.1,0,0.2c0,0,0,0.1,0.1,0.1
	c0,0,0.1,0,0.1,0.1c0,0.1-0.2,0.2-0.3,0.1c-0.1,0.1-0.2,0.2-0.3,0.2c-0.1,0-0.2,0-0.3,0c-0.1-0.1-0.3-0.2-0.3-0.3
	c-0.1-0.2-0.2-0.3-0.3-0.4c-0.2-0.3-0.3-0.5-0.4-0.7c-0.2-0.3-0.3-0.5-0.4-0.8V381v-0.1c0,0,0,0,0-0.1l0,0c0,0-0.1-0.1-0.1-0.2
	c0-0.1,0-0.1-0.1-0.2v-0.1c0,0,0,0,0-0.1l0,0l0,0c-0.1,0-0.1-0.1-0.1-0.1c0-0.1,0-0.1,0-0.2c0,0,0,0-0.1,0h-0.1
	c-0.1-0.2-0.1-0.3-0.2-0.4c-0.1-0.1-0.2-0.3-0.1-0.4c-0.2-0.1-0.4-0.1-0.6-0.2c-0.3,0-0.4-0.1-0.6-0.1c-0.1,0-0.2,0-0.3-0.1
	c-0.1,0-0.2,0-0.3,0c-0.2-0.1-0.4-0.2-0.7-0.2c-0.2,0-0.4-0.1-0.5-0.2c-0.2-0.1-0.4-0.1-0.5-0.1c-0.2-0.1-0.4-0.2-0.6-0.3
	c-0.3-0.1-0.4-0.2-0.6-0.3c-0.2-0.1-0.4-0.2-0.6-0.3s-0.4-0.3-0.5-0.4v-0.1V377c-0.1-0.1-0.1-0.2-0.1-0.3c0-0.1,0-0.2-0.1-0.3
	c0.1-0.1,0.1-0.2,0.2-0.4c0-0.1,0.1-0.3,0.1-0.4c0-0.2,0-0.3,0-0.4c0-0.2,0.1-0.4,0.2-0.5c0.1,0,0.1,0,0.1,0
	C646.6,374.5,646.6,374.5,646.7,374.5L646.7,374.5z M654.6,369.9C654.7,369.9,654.7,369.8,654.6,369.9
	C654.6,369.8,654.6,369.8,654.6,369.9C654.7,369.7,654.7,369.8,654.6,369.9L654.6,369.9l0.2,0.1c0,0,0,0,0,0.1
	C654.7,370.1,654.7,370.1,654.6,369.9C654.7,369.9,654.7,369.9,654.6,369.9c0.1,0.1,0.1,0.1,0.2,0.1c0.1,0,0.1,0.1,0.1,0.1l0.2,0.1
	l0.1,0.1c0,0,0.1,0.1,0,0.1c0.4,0.4,0.8,0.6,1.3,0.9c0.4,0.3,0.7,0.4,1.1,0.5c0,0,0,0,0,0.1l0,0v0.1v0.1c0,0,0,0.1-0.1,0.1l0.1,0.1
	c0,0.1,0,0.1,0,0.1s0,0-0.1,0c0,0.1,0.1,0.2,0.1,0.2l0,0c0,0,0,0,0,0.1l0.1,0.2l-0.3-0.2v0.1c0,0,0,0,0,0.1c0,0,0,0.1,0,0.2
	c0,0.1-0.1,0.2-0.1,0.3c0,0.1-0.1,0.2-0.2,0.3c0,0.1-0.1,0.1-0.1,0.2l0.1,0.1l0,0l0,0c0,0,0,0,0,0.1c-0.1,0-0.1,0-0.2,0.1l0.1,0.1
	v0.1v0.1l-0.3-0.2c-0.1,0.1-0.3,0-0.5-0.2c-0.3-0.2-0.6-0.4-1-0.5c-0.4-0.3-0.8-0.5-1.2-0.8c-0.4-0.3-0.8-0.6-1.2-0.9l-1-0.8
	c-0.3-0.3-0.5-0.4-0.6-0.4c-0.2-0.2-0.4-0.4-0.5-0.4c-0.1-0.1-0.3-0.3-0.4-0.4c-0.1-0.1-0.1-0.2-0.1-0.3l0.1-0.2V369
	c0,0,0-0.1,0-0.2s0.1-0.2,0.1-0.3s0.1-0.2,0.1-0.3c0-0.1,0.1-0.1,0.1-0.1c0.1-0.1,0.1-0.1,0.2-0.2c0.1-0.1,0.1-0.2,0.1-0.3h0.1h0.1
	c0,0,0,0,0-0.1c0,0,0,0,0-0.1l0,0c0,0,0,0,0.1,0c0-0.2,0.1-0.3,0.2-0.4c0.1-0.1,0.3-0.2,0.4-0.1c0.1,0,0.1,0.1,0.1,0.2
	c0.1,0.2,0.4,0.4,0.5,0.6c0.3,0.3,0.5,0.5,0.7,0.7c0.3,0.3,0.5,0.4,0.8,0.7c0.2,0.2,0.4,0.4,0.5,0.4
	C654.6,369.7,654.6,369.7,654.6,369.9C654.7,369.8,654.7,369.8,654.6,369.9L654.6,369.9z M657.9,374.6c0-0.1,0-0.1,0.1-0.2
	c0-0.1,0.1-0.1,0.1-0.2c0-0.1,0.1-0.1,0.1-0.2c0-0.1,0-0.2,0-0.2c0.1-0.1,0.1-0.2,0.1-0.3c0-0.1,0.1-0.2,0.1-0.3s0.1-0.2,0.1-0.3
	s0.1-0.2,0.2-0.2c0-0.1,0-0.1,0-0.1c0.1,0,0.1,0,0.1-0.1c0.1,0,0.2,0.1,0.3,0.1l0.2,0.2c0.1,0.1,0.2,0.1,0.3,0.1s0.2,0.1,0.4,0.1
	c0.2,0,0.4,0,0.4,0c0.2,0,0.3,0.1,0.4,0.2l0.1,0.1c0,0.1,0,0.1,0.1,0v0.1c0,0,0,0-0.1,0c0,0,0,0-0.1,0c0,0,0,0-0.1,0
	c0,0.1-0.1,0.2-0.1,0.2c-0.1,0.1-0.1,0.1-0.1,0.2c0,0.2-0.1,0.3-0.1,0.4c-0.1,0.1-0.1,0.3-0.2,0.4c0,0.1,0,0.2-0.1,0.3l-0.1,0.2
	c-0.2,0-0.4,0-0.5,0c-0.2,0-0.3-0.1-0.4-0.1c-0.2-0.1-0.3-0.1-0.4-0.2C658.2,374.9,658,374.8,657.9,374.6L657.9,374.6L657.9,374.6z
	 M849.3,349.3l-7.2-3.9c-1.3-0.7-2.9-0.8-4.3-0.3c-3.4,1.2-1.7,3.1-1.7,3.1c1.3,2.7-0.2-0.3,4.8,2.7c1.7,1,3.5,1.8,5.2,2.7
	c-3.1,4.6-4.3,2.4-4.3,6.3c5.4,3.6,9.1-3.8,9.5-5.2c1.9,0.2,4.3,1.6,4.3-1.1c0-1.6-0.6-1.4-2.1-1.6c0.9-3.9,4.3-6.5,3.2-11.1
	c-1.6,0.2-1.4-0.4-4.3,3.6L849.3,349.3z M587.9,516.9c-0.2-0.1-7.4-5.7-7.4-0.5c0,1.8-0.3,1.5,0.8,2.4l3.4,2.9
	c-2.2,3.3-5.4,6.2-5.6,7.5c-0.3,3.6,7.5,2,9.2-4.3c2.7,0.3,2.6,1.1,5.8,1.1c0.1-0.4,0-1-0.1-1.4l-0.9-1.2c-4.1-5.9,1.1-3.3-0.6-10.5
	C590.1,512.9,589.7,514.2,587.9,516.9L587.9,516.9z"/>
</svg>
