<?xml version="1.0" encoding="utf-8"?>
<!-- Generator: Adobe Illustrator 24.2.3, SVG Export Plug-In . SVG Version: 6.00 Build 0)  -->
<svg version="1.1" id="Capa_1" xmlns="http://www.w3.org/2000/svg" xmlns:xlink="http://www.w3.org/1999/xlink" x="0px" y="0px"
	 viewBox="0 0 1125 2436" style="enable-background:new 0 0 1125 2436;" xml:space="preserve">
<style type="text/css">
	.st0{fill:#E9E9E9;stroke:#343434;}
	.st1{fill:#232323;stroke:#343434;}
	.st2{fill-rule:evenodd;clip-rule:evenodd;fill:#E9E9E9;}
</style>
<rect x="-0.5" y="1446.5" class="st0" width="1125" height="995"/>
<path id="Trazado_8" class="st1" d="M-24.5,1427.4c0,0-34.5,508.5,88.6,514.2c123.1,5.7,140.3-302.8,270.2-302.8
	s106,165.7,201.8,188.6s54.7-102.9,181.3-102.9s68.4,320,195,280c126.6-40,123.1-371.4,171-440c47.9-68.6,44.5-57.2,44.5-57.2v-1560
	H-24.5V1427.4z"/>
<path id="Trazado_10" class="st2" d="M388.1,690.7c-2.2-0.1-4.4-0.3-6.5-0.6c-0.8-3.5-2.7-5.4-3-8.9c2.7,0.1,2.3,0.8,4.7,0.6
	c10.2-0.8,18.8-6.1,25.9-12.8c0.8-0.8,0.3-0.6,1.5-1.4c1.3,4.3,2.3,8.7,3,13.1c-2.3,0.2-11.6,5.8-14.8,7.2
	C395.5,689.4,391.8,690.4,388.1,690.7z M384.5,677v0.6l-0.7-0.5L384.5,677z M380.9,676.4l-0.3,1.3L380.9,676.4z M381.5,675.8
	l-0.6,0.6L381.5,675.8z M382.1,674.6l-0.6,1.2L382.1,674.6z M394.6,674.6v0.6l-0.7-0.5L394.6,674.6z M395.2,673.4l-0.6,1.2
	L395.2,673.4z M382.7,674l-0.6,0.6L382.7,674z M378.6,674l0.2,0.2C378.7,674.2,378.5,674.1,378.6,674L378.6,674z M384.5,677
	c0.4-1.6-0.1-0.6,0.9-2.1c1.1-1.7,0.5-1.1,2.1-1.5C386.8,674.8,385.7,676,384.5,677L384.5,677z M383.3,673.4l-0.6,0.6L383.3,673.4z
	 M388.1,677c0.6-0.8,1-1.6,1.6-2.5c1.6-2.4-0.2-1.3,2.5-1.6c-0.5,0.8-1,1.8-1.6,2.6C389.7,676.8,390,676.5,388.1,677L388.1,677z
	 M379.7,672.8v0.6l-0.7-0.5L379.7,672.8z M395.2,673.4c0.4-1.7-0.1-0.9,1.2-1.8C396,673.3,396.5,672.5,395.2,673.4L395.2,673.4z
	 M379.7,672.8v-0.6l0.7,0.5L379.7,672.8z M383.3,673.4l0.7-2.4C385.6,672.3,385.5,671.9,383.3,673.4L383.3,673.4z M375,671.6
	l0.2,0.2C375.2,671.8,374.9,671.7,375,671.6L375,671.6z M400.5,670.5l-0.7,2.4c-0.2-0.5-0.8,0.9-0.4-1.1
	C399.7,670.7,399.7,671,400.5,670.5L400.5,670.5z M396.4,671.6l0.3-1.3L396.4,671.6z M373.8,671h0.6l-0.5,0.7L373.8,671z M373.8,671
	l-1.2-0.6L373.8,671z M467.1,675.8c0.7-2.5,5.4-10,5.4-12.5h0.6c0,1.9,0.6,6.5-0.6,7.7l-0.3,0.3L467.1,675.8z M422.5,678.2h-1.2
	c-1.4-6,0.8-2.6,1.2-7.7c1.4-0.3,2.8-0.7,4.2-1.2C426.1,672,423.4,674.3,422.5,678.2L422.5,678.2z M372.6,670.5H372l0.5-0.7
	L372.6,670.5z M405.3,668.1v0.6l-0.7-0.5L405.3,668.1z M426.1,685.3c-1-0.8-1.8-1.8-2.4-3c0.1-0.1,0.3-0.4,0.3-0.3l1.7-3
	c2-3.5,3.7-7.1,5.1-10.9c2.4-0.4,4.8-1,7.1-1.8l-9.2,14C427.8,681.9,426.9,683.6,426.1,685.3L426.1,685.3z M399.3,665.7v0.6
	l-0.7-0.5L399.3,665.7z M405.3,668.1c0.2-0.9,0.5-1.8,0.9-2.6c1.1-2.5-0.6-0.6,1.5-2.1c0.9,1.5,0.4,3.4-1,4.3
	C406.2,667.9,405.8,668,405.3,668.1L405.3,668.1z M429.1,687.7l3.8-6.9c1.7-2.8,9.2-15.6,10.6-16.2c0.7-0.3,3.8-1.1,4.7-1.3
	l-4.3,6.4c-0.8,1-1.6,2-2.2,3.1c-0.8,1-1.5,2.1-2.2,3.2l-6.6,9.5C431.2,687.7,432.4,687.6,429.1,687.7L429.1,687.7z M396.3,663.4
	c1.6,0.3,0.9-0.4,1.3,1.1L396.3,663.4z M400.5,670.5c0.1-1.6,0.7-3.1,1.6-4.4c0.5-1.1,0.5-1.3,0.8-2.1c1.1-2.7,0-1.2,1.7-1.8
	L400.5,670.5z M399.3,665.7c0.2-2.5,0.3-3,2.4-3.6L399.3,665.7z M426.7,660.3c0.6,0.8,0.6-1.3,0.6,1.8h-0.6V660.3z M442.1,687.1
	c-2.6,0.1-2.8,0.6-5.9,0.6c3.5-5.2,16.3-22,16.6-26.2c1.2,0,2.4-0.2,3.6-0.6C453.4,666.6,443,683.3,442.1,687.1L442.1,687.1z
	 M395.8,658.6c0-1.6,0.5-1.4,1.8-1.8c0,2.4,0.2,1.9-0.6,3.6C396,659.6,395.8,660.3,395.8,658.6L395.8,658.6z M458.2,680.6
	c1-1.9,2-4,3-5.9l6.5-11.9c0.5-1.1,0.9-2,1.6-3.2c0.2-0.5,0.5-1,0.9-1.5c0.1-0.1,0.4-0.6,0.5-0.7c0.1-0.1,0.2-0.3,0.3-0.3
	s0.2-0.2,0.3-0.3c0.4,1.6,0,0.5,0.6,1.8l-9.3,17.5C461.1,679.8,462.5,679.6,458.2,680.6L458.2,680.6z M446.9,685.9
	c0.9-2.6,2.3-5.1,3.9-7.4l8-15.2c1.6-3.3,2.1-4.6,7.1-4.8l-8.3,14.9C450.1,688.2,456.7,680.7,446.9,685.9L446.9,685.9z M426.7,660.3
	c-2.4-1.7-0.6-2.4-5.3-2.4v-0.6c7.7,0,4.7-0.8,8.3-1.8v3c-1.4-0.9-0.6-0.7-2.4-1.2C427,658.3,426.8,659.3,426.7,660.3L426.7,660.3z
	 M474.2,655.6h2.4c2,5.1,3,10.6,3,16.1c0,1.3-7.6,10-12.5,12.5c-1.5,0.8-1.9,1.2-3.4,2c-20,11-25.1,6.9-40,6.9
	c-0.5-2-3.8-6.1-5.7-9.7c-0.9-1.8-1-2.2-2.6-2.8c0.3-2.8,0.5-5.5,0.6-8.3c1-0.3,2-0.5,3-0.6c-0.9,2.6-4,0.3,0.4,9.1
	c4.6,9.3,6.4,11.1,15.7,11.1c10.6,0,22.5-5.7,30.9-11.3C476.2,673.7,479.5,667.3,474.2,655.6L474.2,655.6z M430.8,655.6
	c0.6-0.6,2.2,0.8,0.7,0.3C431.6,655.9,429.9,656.6,430.8,655.6L430.8,655.6z M395.2,655.6c0-1.4,1-0.2,0.4,0
	C395.6,655.6,395.2,657.3,395.2,655.6L395.2,655.6z M404.1,653.8c0-1.4,1-0.2,0.4,0C404.5,653.8,404.1,655.5,404.1,653.8
	L404.1,653.8z M483.7,660.4h-1.2c-0.1-4-1.5-3-1.8-6.5c1.6-0.1,3.2-0.5,4.8-1.2C484.6,655.1,484,657.7,483.7,660.4L483.7,660.4z
	 M403.5,652l0.2,0.2C403.7,652.2,403.5,652.1,403.5,652L403.5,652z M394.6,650.3c1.9,0.7,2.9,2.5,0.6,4.2
	C395.3,653,395.1,651.6,394.6,650.3L394.6,650.3z M408.9,648.5c2,2.3,1.7,3,3.8,4.5c4,2.9,6.3,5.9,9.9,6.7c3.8,0.8,1.3,0.6,4.1,4.8
	l-12.5,3.6c-1.1-3.6-3.7-6.7-7.1-8.3c0-5.2-1.8-6.2-1.8-10.7h0.6c-0.2,1.9,0.8,3.7,2.4,4.8C409.9,650.8,409.3,651.9,408.9,648.5
	L408.9,648.5z M407.1,649.7c0-1.4,1-0.2,0.4,0C407.5,649.6,407.1,651.3,407.1,649.7L407.1,649.7z M403.5,647.9v3.6
	c-0.6-0.4-1.5-0.9-1.6-2C401.8,647.9,401.7,648.8,403.5,647.9L403.5,647.9z M398.2,648.5c3,1.6,2.4,1.1,4,4.4c1.1,2,1.9,4.1,2.6,6.3
	c-2-0.9-2.1-0.5-4.2,0c0-3.5,0.4-5.4-1.2-8.3L398.2,648.5z M407.1,646.1v1.8C404.6,646.1,406,647.3,407.1,646.1L407.1,646.1z
	 M473.6,644.9l-1.2,0.7L473.6,644.9z M456.4,644.3c2.8,0.2,1-0.6,2.4,1.2C455.6,646.2,457.6,646.5,456.4,644.3L456.4,644.3z
	 M473.6,644.9v-0.6l0.7,0.5L473.6,644.9z M452.2,644.3h1.8v0.6h-1.8V644.3z M475.4,643.7v0.6l-0.7-0.5L475.4,643.7z M476,643.1
	l-0.6,0.6L476,643.1z M533.1,639.6c-0.8,3.3-2.4,6.4-4.6,9.1c-1.5,1.6-1.3,0.6-1.3,3.4c2.5-0.1,2.4-0.1,3.7-1.6
	c0.9-1.1,1.6-2.4,2.2-3.7c0.8-1.2,1.6-2.5,2.1-3.8c2.7-6.9-1.5-3.5,17.4-9.4c2.5-0.8,5.8-1.6,8.4-2.3c2.8-0.7,5.5-1.7,8.3-2.4
	l33.3-9.5c1.4,2.1,4.9,3.4,7.9,6.4l5.4,5.3c1.5,1.7,0.4,0.7,1.3,2.3c3.3,5.9,18.8,5.2,21.1,6.2c-2.9,12.5-14,14.1-26.3,19.4
	c-2.8,1.2-5,2.2-7.9,3.3l-13.2,4c-13.3,2.6-24.7,0.5-38.1,0l-10.5-0.8c-7.9-1.8-6.4-4.6-16.1-7c-3.1-0.8-6-1.5-9.3-2.6
	c-4.1-1.4-13.3-5.3-15.2-8c2.6-0.4,5.1-1,7.6-1.9l15.7-4.5C527.5,640.5,530.3,639.8,533.1,639.6L533.1,639.6z M483.1,640.2l2.4-1.2
	c0.1,7.7,4.2,7.8,0,8.9C485.1,645.2,484.3,642.6,483.1,640.2L483.1,640.2z M476,643.1c0.7-1,1.2-1.9,1.8-3c0.4,0,1.8,0.2,1.9,0.3
	c0.7,0,0.8-0.1,2.3-0.3C480.5,642.3,479.4,642.8,476,643.1z M533.1,639.5v-0.6l0.7,0.5L533.1,639.5z M366.7,628.2h1.8
	c0.9,1.8,1.5,4.1,2.4,5.9C369.4,634.3,366.9,636.4,366.7,628.2L366.7,628.2z M366.7,628.2h-0.6l0.5-0.7L366.7,628.2z M394.6,627.1
	l-1.2,0.7L394.6,627.1z M539,625.9l-1.2,0.7L539,625.9z M521.2,625.9h2.4v1.2C520.8,626.8,522.5,627.7,521.2,625.9L521.2,625.9z
	 M539,625.9v-0.6l0.7,0.5L539,625.9z M517,625.3l0.2,0.2C517.2,625.4,517,625.3,517,625.3L517,625.3z M540.8,624.7v0.6l-0.7-0.5
	L540.8,624.7z M503.4,624.7l0.2,0.2C503.5,624.8,503.3,624.7,503.4,624.7L503.4,624.7z M499.7,624c-0.3,1.7,0.3,0.8-1.1,1.3
	L499.7,624z M390.4,624.1h1.8c-0.4,1.7,0.1,0.9-1.2,1.8C390.8,625.3,390.6,624.7,390.4,624.1L390.4,624.1z M652,624.1v0.6l-0.7-0.5
	L652,624.1z M541.4,624.1l-0.6,0.6L541.4,624.1z M501,622.9v0.6l-0.7-0.5L501,622.9z M541.4,624.1l1.2-2.4h3.5
	c-0.6,1.5-0.3,0.6-0.6,1.2c-0.3,0.6,0-0.4-0.6,1.2H541.4L541.4,624.1z M501,622.9c0.5-2.2,0.3-1.9,1.8-3c0,1.4,0.2,2.8,0.6,4.2
	C502,623.1,502.8,623.4,501,622.9L501,622.9z M395.2,622.9h-1.8C394.8,621,393.9,621,395.2,622.9L395.2,622.9z M661.5,621.7v0.6
	l-0.7-0.5L661.5,621.7z M364.3,621.1c3.3,0.3,1-0.8,3.6,4.2c-1-0.1-2-0.3-3-0.6C364.9,623.5,364.7,622.2,364.3,621.1L364.3,621.1z
	 M547.3,621.1c1-0.1,2-0.3,3-0.6c0,6.6,4.2,7.8,0,8.9C550.2,626.4,549.1,623.5,547.3,621.1L547.3,621.1z M610.9,616.9
	c1.6-0.4,3.1-0.8,4.8-1.2v8.9c-1.6-1.1-3.2-2.5-4.8-3.6V616.9z M416.6,616.3c0.8,1.4,1.3,3.1,1.2,4.8c-3.4,1.3-7,2.1-10.7,2.4
	c0.1-5.6,3.3-0.5,6.5-5.4c1,0.1,2,0.3,3,0.6V616.3z M389.2,620.5v0.6l-0.7-0.5L389.2,620.5z M503.9,613.4l4.3,5.2
	c3.9,6.9,4.9,3.1,6.9,6.7l1.3,2.3c1-0.1,2-0.3,3-0.6l1.9,1.7c4-0.8,2.1,0.1,5.2,0.1c2,0,2.7-0.8,4.5-1l4.4-0.8
	c4,2.8,2.9-0.1,6.8-1.5c1.7-0.6,1.2,0.2,2.8-0.7c0.6-0.4,1.2-1.2,2.2-1.9c0.6,2.4,1.2,4.7,1.8,7.1c-1.9,0.3-3.9,0.8-5.7,1.4
	l-18.1,5.1c-0.5-0.9-0.9-2.4-2.1-2.8c-2-0.6-0.9,0.2-0.9,3.9l-16.9,4.5c-5.6,1.9-11.2,3.3-17,4.4c-0.3-3.6-1.8-3.5-1.8-8.3
	c2.3-1.1,4.4-2.7,6.1-4.6c0.9-0.9,1.7-1.9,2.3-3c1-1,1.6-2.3,1.7-3.7c2.8-0.7,3.5,0,4.2-2.4h1.2c0.4,4.8,0.8,5.9,3,6.5
	C507.1,627.7,503.9,623.2,503.9,613.4L503.9,613.4z M389.8,619.9l-0.6,0.6L389.8,619.9z M399.9,618.7c1.8,0.6,0.5-0.8,1.4,0.9
	c0.6,1.1,0.3,1.3,0.3,2.6C399.6,620.7,401.2,621.3,399.9,618.7L399.9,618.7z M389.8,619.9c0.3-1.2,1.2-2.1,2.4-2.4
	c1.3-0.6,7.2-0.8,7.2,7.8c-1.3,1.1-3,1.7-4.8,1.8c2.5-3.4,2.4,0,2.4-5.9C393.7,618.3,394.9,619.5,389.8,619.9L389.8,619.9z
	 M358.3,611c2.4,10.2,5.4,16.5,7.1,23.2c1.2,4.4,2.3,3.3,6,3l8.9,21.4c0.8,2.7,2.3,4.9,3,7.7c-2,0.6-3.8,1.6-5.4,3
	c-7.6-4-6.4-6.7-11.6-13.4c-2.9-4.8-4.6-10.2-5.1-15.7c1.9,0.4,0.9,0.6,2.4,0c-5.5-8.2-6.5-10.4-7.3-21.7l1.3-6.3
	C358.5,610.4,357.7,611.9,358.3,611L358.3,611z M674.5,614.6c0.1,2.4-1.3,4.6-3.6,5.4c0.2-1,0.7-2,1.4-2.7l1.6-2
	c0.1-0.1,0.2-0.3,0.3-0.3L674.5,614.6L674.5,614.6z M395.8,615.2c2.6,0.2,3.6,0.7,4.8,2.4C398.7,617.5,396.9,616.7,395.8,615.2
	L395.8,615.2z M674.5,614.6V614l0.7,0.5L674.5,614.6z M400.5,614h0.6l-0.5,0.7L400.5,614z M627,612.8v1.2l-1.3-1.1L627,612.8z
	 M627,612.8v-0.6l0.7,0.5L627,612.8z M633.5,611c-0.4,1.7-4.2,8.7-7.1,9.5c0.2-2.3,0.1-1.4,1.3-2.8c0.7-0.7,1.3-1.5,1.8-2.4
	C631.8,611.7,631.3,611.6,633.5,611L633.5,611z M416.6,616.4l-0.7-1.2c-4.1,0.3-3.8,3.1-8.8,3.5c-0.2-2.7-1-5.4-2.4-7.7
	c4.3-0.4,5.5-6.9,7.7-10.1C413.4,605.3,416.5,612.1,416.6,616.4L416.6,616.4z M641.8,633c-8.8,0-14.3,0.8-21.4-3v-16
	c2.3-0.1,1.4,0.2,3-0.6c-0.9,16.7-2,14.7,3.9,15.7c13.4,2.3,27.3,0,40.2-4.3c9.1-3,9.4-5,12.6-14.7c0-0.1,0.5-1.2,0.5-1.3l1-1.4
	c0,6.3-3.9,16.4-10.2,18.3c-1.1,0.3-2.1,0.6-3.1,1.1C661.9,629.3,648.9,633,641.8,633L641.8,633z M633.5,611v-0.6l0.7,0.5L633.5,611
	z M596.1,610.4c-2.9,4.3-5,1.8-7.1,0C592.8,610.7,591.8,611.4,596.1,610.4L596.1,610.4z M581.2,608.6c0.8,0.7,1.7,1.2,2.7,1.4
	c2.9,0.9,1.7-0.5,3.2,1.5C585.4,612,581.4,614.9,581.2,608.6L581.2,608.6z M600.2,608c-0.1,2.4,0.4,4.9,1.2,7.1
	c-2.2-0.3-1.7,0.6-3-4.8H596c0.1-0.1,0.3-0.4,0.3-0.3C597.6,609.2,598.9,608.5,600.2,608L600.2,608z M400.5,609.8h0.6l-0.5,0.7
	L400.5,609.8z M400.5,609.8l-3-1.2h2.4L400.5,609.8z M361.3,606.2c2.2,1.6,1.1,2.2,2.1,5c0.8,2.3,0.2,0.7,0.8,1.5
	c-0.4,1.5,0.2,0.7-1.2,1.2v1.8h1.8c0.1,1,0.3,2,0.6,3c-2.7-0.7-2.9-2.6-3.6-5.3C361.3,611.1,360.3,608.2,361.3,606.2L361.3,606.2z
	 M627.6,625.9c1.5-2.9,1.9-2.4,3.7-4.6c1.2-1.5,2.2-3.3,3.3-5c3.3-5,4.2-7.9,8.4-8.2c-1.2,1.7-2.3,2.5-3.8,4.5l-7.1,9.5
	C631.1,623.8,629.5,625.2,627.6,625.9L627.6,625.9z M397.6,608.6l-7.7-0.6C392.6,608,396.2,607.6,397.6,608.6L397.6,608.6z
	 M600.2,608v-0.6l0.7,0.5L600.2,608z M386.3,607.4h2.4v0.6c-0.4,0-0.8,0-1.1,0C386.5,607.7,386.9,607.8,386.3,607.4L386.3,607.4z
	 M386.3,607.4l-1.3-0.3L386.3,607.4z M383.9,606.2l0.2,0.2C384.1,606.4,383.9,606.3,383.9,606.2L383.9,606.2z M564,605.7l0.2,0.2
	C564.2,605.8,563.9,605.7,564,605.7L564,605.7z M382.7,605.7l0.2,0.2C382.9,605.8,382.7,605.7,382.7,605.7L382.7,605.7z
	 M635.9,626.5c-0.7-0.5-1.5-0.7-2.4-0.6l8.6-11.7c6.2-8.4,4.4-7.6,11-9.2C650.6,609.9,641.7,617.8,635.9,626.5L635.9,626.5z
	 M381.5,605.1h0.6l-0.5,0.7L381.5,605.1z M381.5,605.1h-0.6l0.5-0.7L381.5,605.1z M567.5,601.5c0,1.2,0.2,2.4,0.6,3.6
	c-1.6-0.8-0.6-0.5-3-0.6C565.7,603.3,566.6,602.3,567.5,601.5L567.5,601.5z M379.7,603.9h0.6l-0.5,0.7L379.7,603.9z M379.7,603.9
	l-0.6-0.6L379.7,603.9z M379.1,603.3h-0.6l0.5-0.7L379.1,603.3z M356,610.4h-0.6c0-3.1-1.7-4.3,0.5-13.2c1.3-5.3,1.1-5.3,3.1-5.8
	c0.6,3.9,1,7.9,1.2,11.9c-3.1,1.7-2.1,0.6-3.6,4.7C356.1,609.2,356,608.3,356,610.4L356,610.4z M640.6,625.9c1.2-2.1,2.7-4,4.6-5.5
	c2.6-2.5,12.4-13.6,13.2-17.1c2.4-0.2,3.6-1,5.9-1.2l-5.2,6.7c-1.9,2.2-3.4,4.2-5.3,6.6c-0.8,1-0.5,0.8-1.2,1.7
	c-0.6,0.7-0.9,0.9-1.4,1.6c-0.7,0.9-0.4,0.7-1.2,1.7C645.8,625.4,646.2,625.9,640.6,625.9L640.6,625.9z M633.5,600.9l-1.3,1.7
	c-5.1,0.3-7.4,0.8-8.8-1.1C628.9,602.8,629,601.9,633.5,600.9L633.5,600.9z M633.5,600.9v-0.6l0.7,0.5L633.5,600.9z M391,605.6
	c-3.7-0.4-7.1-2-9.8-4.5c-0.1-0.1-0.2-0.2-0.3-0.3c1.2,0.1,2.5-0.1,3.7-0.5l23.1-6c0.6,7.3,3.9,2.5-0.4,11.5c-1.9,4-1,1.8-4.4,3.4
	c-1.8-2.8-3.2-3-7.7-3v-0.6c2.8-0.5,5.4-1.5,8-2.7c2.3-1.1,1.6-0.4,2.1-2C400.2,602.1,394.8,603.1,391,605.6z M661.4,621.7
	l18.4-22.6c-1.6,6.8-1.4,4.7-5.2,9.6c-1,1.2-1.6,1.5-2.5,2.8l-4.2,6C666.1,620.2,666.1,621.6,661.4,621.7L661.4,621.7z M616.3,599.1
	c1,0.5,2.1,0.8,3.2,0.9c3.1,0.6,1.9-0.5,3.3,1.4C615.3,601.5,617.5,601.4,616.3,599.1z M651.9,624.1c1.5-2.4,3.1-4.7,5-6.9
	c0.7-0.9,0.7-0.8,1.4-1.6l9-11.8c2.3-3.1,2.6-4.5,7.8-4.7c-1.7,3.3-13.9,17-17.5,21.8c-1.1,1.5-1.8,1.7-2.7,3.2H651.9z M411.2,599.1
	l0.2,0.2C411.4,599.3,411.2,599.2,411.2,599.1L411.2,599.1z M675.1,599.1v-0.6l0.7,0.5L675.1,599.1z M386.9,596.8v-3.6
	c2.1,0.6,1.8,0.6,2.4,3L386.9,596.8z M409.4,593.8c1.3,0.9,0.7,0.1,1.2,1.8C408.4,594,410.4,595.5,409.4,593.8L409.4,593.8z
	 M702.5,593.2v0.6l-0.7-0.5L702.5,593.2z M695.8,595.5h-1.7c0.5-0.7,0.7-1.1,1.2-1.8l0.4-0.8c0.8-1.1,0.3-0.4,0.8-1L695.8,595.5z
	 M700.1,592c-0.6,2.4-0.2,1.8-1.8,2.4C699.4,592.4,698.4,593.2,700.1,592L700.1,592z M684.6,592c-0.6,2.4-0.2,1.8-1.8,2.4
	C683.9,592.4,682.9,593.2,684.6,592L684.6,592z M690,595.5c1-1.9,2.1-4.6,4.2-5.4C693.9,592.8,692.6,595.3,690,595.5L690,595.5z
	 M684.6,592v-0.6l0.7,0.5L684.6,592z M696.5,590.8c0.6-0.6,2.2,0.8,0.7,0.3C697.2,591.1,695.5,591.8,696.5,590.8L696.5,590.8z
	 M400.5,614l-3.6-1.2c-1.1,0.8-2.2,1.4-3.5,1.9c-3.5,1.6-9.5,6.6-5.2,11l2.8,2.3c0.8,0.8-0.8,0.3,1.1,0.9c0.1,0.1,0.3,0.1,0.4,0.2
	c0.1,0.2,0.3,0.2,0.4,0.2c0.5,0.1,1,0.2,1.6,0.2c3.8-0.1,8.9-5.5,9.4-7.4c0.9-3.9-1.3-3.7,0.8-5.1c0,8.8-0.2,7.3-7.6,16.8
	c-6.3,8.3-6.1,15.2-3.7,27.1c0.8,4,1.6,4.3,1.7,6.6c-2,0.5-0.3,0.1-1.7,0.7c-1.8,1.2-3.9,1.8-6,1.7c-2.2-9.2-10-27.9-13.6-38.7
	c-1.1-3.4-2-6.5-3.1-10c-1.1-3.3-2.2-6.2-3.1-9.9l-6.3-20.5c1.7-0.9,3.5-1.5,5.4-1.8c2.5,10.6,10.2,20.2,21.9,22.1
	C393.7,611.9,398.2,610.4,400.5,614z M672.2,592.6v2.4h-1.8c-0.8-3.4-1.7-2.1-2.4-4.8c3.3-0.9,0.5-1.7,4.8-1.8
	C672.5,589.8,672.3,591.2,672.2,592.6L672.2,592.6z M713.2,586.6v2.4c2.4-0.2,1,0.5,2.2-0.8l1.4-2.2c0.6,1.9,1.3,3.8,2.1,5.6
	c0.9,2.4,1.1,5,0.8,7.5c-3.3,2.2-3.4,3-5.4,3.6c-0.9,1.3-0.1,0.8-1.8,1.2c-2.4,3.3-12.5,5.3-17,5.7c-3.8,0.1-7.5-0.6-10.9-2.1
	c-1.3-3.2-2-6.6-1.8-10.1c9.6,2.7,19.8,1,27.9-4.7c1.5-1,1.9-1.1,2.4-3h-1.8c0.3-0.5,0.5-0.8,0.9-1.5L713.2,586.6z M568.7,586.6
	c6.7,7.7,2.9,15.2,11.3,20.8c0,6.7,3,8.3,8.3,4.8c5.4,4.7,5.3,0.8,8.2-0.2c1.9-0.7,1.3,2,1.3,4.3c-3.7,0.6-7.4,1.5-10.9,2.8
	l-33.1,9.1c-1.3-2.6-2.1-5.4-2.4-8.3c10.1-6.8,8.4-9.1,10.3-11.1c1.5-1.6,0.5-0.2,2.5-1c0.1,0,1.1-0.6,1.1-0.7
	c1.5-0.9-0.7-0.1,1.5-0.9c0.3,1.1,0.5,2.9,0.8,4c0.6,1.8,0.8,1.8,2.8,2c0-4.3-0.5-8.6-1.6-12.7c-0.6-3.6,0.2-3.6,0.4-6.3
	C569.3,591,569.1,588.8,568.7,586.6L568.7,586.6z M700.1,592c0.1-2.8,0.1-3,2.4-3.6C700.7,591.1,701.8,590.7,700.1,592L700.1,592z
	 M686.4,594.9c1.2-3.1,3-5.9,5.4-8.3c0.9,1.9,0.5,1.5-2.9,6.6C687.8,594.7,688.4,594.4,686.4,594.9L686.4,594.9z M573.5,587.8h-0.6
	l0.5-0.7L573.5,587.8z M710.8,585.4c-0.2,2.7-1.2,5.3-3.6,5.9C710.5,586.4,708.6,587,710.8,585.4L710.8,585.4z M713.8,585.4
	l-0.6,1.2L713.8,585.4z M568.1,585.4l0.6,1.2L568.1,585.4z M713.8,585.4l0.3-1.3L713.8,585.4z M567.6,583.6c0.6,0.7,0.6-1,0.6,1.8
	C567.5,584.8,567.6,586.5,567.6,583.6L567.6,583.6z M710.8,585.4c0.2-2.8-0.6-1,1.2-2.4c-0.3,1.1,0.4,0-0.4,1.4
	C711.2,585.2,711.2,585,710.8,585.4L710.8,585.4z M673.9,594.3c0.5-1.9,0.7-3.9,0.6-5.9c7.2-3.5,7.7-5.9,7.7-17.2l2.9,3
	c0.1,0.1,0.2,0.2,0.3,0.3c1.4,1.7,2.5,3.7,3.1,5.8c0.8,1.9,1.2,1.6,1.4,4c-3.1,1-5.8,2.8-7.9,5.2C679.4,593,681.5,592.6,673.9,594.3
	L673.9,594.3z M702.5,593.1l4.3-8.2c1.2-2.3-0.5-1.7,2.3-2.5c-0.9,3.7-3.9,7-4.8,10.7H702.5z M704.2,584.2v-1.8h1.2
	C704.9,584.8,704.3,584.2,704.2,584.2L704.2,584.2z M714.9,580.7c-2.6-0.1-3.2-0.6-6.5-0.6l2.7-2c0.9-0.7,1.7-1.4,2.5-2.3
	c1.8-1.8,2.8-4.4,2.5-7h0.6c0,3,0.5,2.7,0.6,5.4c-1.5,2.1-1,0.2-1.9,2.3C715,577.8,714.8,579.2,714.9,580.7L714.9,580.7z
	 M370.7,582.1c-2.3,1.9-4.9,3.4-7.7,4.3c-5.4,2.3-11.2,3.4-17.1,3.1c-3-4.4-5.4-7.4-5.4-14.9c1.9-0.5,0.8-0.1,2.3-1.3
	c2.1-2,4.5-3.6,7.2-4.7c0.3,3.4,2,3,7.1,1.1c2.8-0.6,4.7-3.1,4.8-5.9c6.1,0,3-1,12.5,1.2c0.3,3.1,1.7,3.6,2.4,6.5l-0.8,0.3
	c-0.9,0.3,0.3-0.3-1,0.3v3.6l-4.3,2.8c-2.6,1.3-3.7,0.3-4,3.7c3.1-0.8,5.9-2.2,8.4-4.1c1.7-0.7,2.3-3.3,1.5-6.5c0-0.1,0.2,0,0.2-0.1
	l1.3,3.4c0.4,1.3-0.2,2.6-1.4,3.2L370.7,582.1L370.7,582.1z M350,568.8v-0.6l0.7,0.5L350,568.8z M591.3,564.6
	c2.8-1.9,4.6-7,5.4-10.1c2.4,3.4,1.8,12.8,1.8,16.6c-2.9-0.7-3.5-2.1-6.5-2.4C592,567.4,591.8,566,591.3,564.6L591.3,564.6z
	 M351.2,568.2c0.1-0.1,0.3-0.4,0.3-0.3l3.2-1.6c1.4-0.6,2.8-0.9,4.2-1.1c-0.1,0.1-0.3,0.1-0.3,0.3
	C356.6,567.3,353.9,568.3,351.2,568.2L351.2,568.2z M391.6,560.5v-1.2c3.7-0.4,7.5,0.9,10.1,3.6c-2.4,0.2-1.4,0.7-3.4,0.5
	c-3.7-0.3-6.9-2.1-9.6,3.1c4.2,0,2.9-1.2,7.7-1.2c-0.7,2.6-1.5,1.5-1.8,4.8c1.9-0.5,0.4,0.1,2-1c3.6-2.6,6.3-6.5,13.1-0.3
	c3.7,3.9,5.7,9,5.6,14.3c-0.3,6.3-0.1,7.5-2.8,7.8v1.2c4.6,0.1,2.8,1.5,5.9,2.4c-0.2-2.4-0.3-2.4-2.4-3c0.9-3.3,1.3-6.7,1.2-10.1
	l4,7.9c0.7,1.4,1.1,3,1.4,4.5c0.6,1.7,1,3.5,1.1,5.4c2.7,1.4,1.7,0.5,3.2,3.3l4.3,8.7c3.6,8.8-2.9,11.7,0.8,11.7
	c1.3,0,1.3-0.5,2.4-1.2c0.4,5.2,1.4,3.4,0.4,9.4c-0.8,4.4,6.3,14.6-2.2,20.4v-1.8c-3.1,0.3-2.8,1.1-4.6,2.5
	c-1.5,0.9-3.2,1.7-4.9,2.3c-4.6-2.4-5.4-2-5.4-8.9c1.2,0.4,2.4,0.6,3.6,0.6c-0.4-1.3-0.1-1-1.8-2.4c-3.3-2.7-3.6-5.1-4.4-2.9
	c-0.2,0.4,0,0.8,0.4,1.5c0.1,0.2,0.4,0.6,0.5,0.8l0.6,0.7c-1.3,1.9-2,4.2-1.8,6.5c-2.1-1.7-3.8-4-4.8-6.5c0-0.9,3-6.5-0.1-5.5
	c-0.1,0-2,1.2-2.3,1.4c-0.1-2.8,0.6-2.3-1.8-3c-1.6,7-0.6-0.9-0.6,6.5c-6,1.6,1.2,2.2-10.7,1.2c0.3-2.1,1.2-4.1,2.5-5.8l8.5-11.1
	c4.9-2.2,7.4-0.3,7.5-0.3c1.9-3.7-0.3,0.1,7.7-4.2c0-6.5-1.1-6.9-1.2-10.1c1.9,1.3,0.6,1.2,4.2,1.2c-0.4-4.8-4.1,0.2-9.9-16.9
	c-0.3-1.2-0.8-2.3-1.5-3.3l-1.2-2.4c-9.5,0-5.4-5.3-10.1-6.5c-1.2,1.4-0.3,2.3,0,3.6c-2.5-1.7-4.2-4.3-4.7-7.2
	c-0.8-2.2,0-1.5-2.4-1.7c0,6.3,2.6,11.9,9.5,11.9v1.2c-4.4,0.1-7.3,2-11.3,2.4c-4.2-8-5.7-4.2-8.3-2.4v4.8
	c-6.6,3.2-5.9,1.7-10.2-4.1c-1.8-1.9-3.2-4.2-4.1-6.6c2.5,1.8-0.1,1.6,3,2.4c0.8-1.8,0.6-1.7,0.6-4.2c1.7-1.1,3.2-2.3,4.6-3.7
	c2-1.2,3.2-3.4,3.1-5.8c0-2.8-1.7-11.3-5.9-12.5c0.3-1.5,1.3-2.7,2.8-3.2C384.2,556.7,387,560.4,391.6,560.5L391.6,560.5z
	 M538.4,554.5v3h-1.2c0.1-0.9-0.2-0.6,0.2-1.6C538.2,554,538,555.1,538.4,554.5L538.4,554.5z M492.1,555.7c5.3,3.5,4.4,1.2,8.9,0
	c-0.1,1.3,0,2.6,0.3,3.9c0.8,2.4-0.2,0.9,2.1,2.1c2.4-5-2.1-9.1,4.8-13.7c0.6,2.2,4.6,9.6,9.9,8.7c2.9-0.5,2.7-1,4.4-2.2
	c4.4,1.2,8.2,4,10.6,7.8l1.7,3.1c0.9,1.5,0,0.1,0.8,1c-1,1.1-1.7,2.6-1.8,4.2c4.3-0.1,0.9,0.1,3-1.1c1.5-0.9,2-0.5,3.5-1.2
	c-1-1.9-0.2-2.1-3-2.4c-0.2-1.7-0.8-3.3-1.8-4.8c8.5,0,12.9,4.5,16.7,10.7c0.7,1.1,1,1.3,1.8,2.4l2.4-0.7c1.3,2,5.5,5.3,5.2,10.7
	l0.1,4.3c3.5-0.3,1.2-0.6,3.6-2.4c0.2,2.5,1.2,4.5,1.2,7.1c0,4-1.6,6.4-2.4,9.5c-0.1-0.1-0.2-0.5-0.2-0.4s-0.1-0.3-0.2-0.4
	c-0.6-1.5-0.1-1.3-1.4-2.2l-1.5,4.8c-0.9-4.3-1.2-8.8-0.9-13.2c-2.2,0.6-2.4,1.3-2.4,5.9c-1.4-0.9-0.6-0.7-2.4-1.2
	c0.5,6.1,2.4,1.2,2.4,13.7c0,2.6-8.1,8.3-11.3,8.3c-2.8,0.3-5.6,0.1-8.3-0.6c0.5-1,1.5-3.2-0.2-2.5c-3.1,1.3,0,1.9-5.8,1.9
	c0.3,3.1,0.6,2.1,3.5,2.4c2,0.2,2.5,0.9,4.8,1.1c-3.1,4.7-12.5,4.8-13.7,3.6c-0.5-0.9-0.6,1.1,0-1.8c-2.3,0.1-16,4.6-17.2-10.7
	c-1.5,0.4-0.4-0.2-1.3,0.5l-1.1,1.3c-0.5-2-4.6-12.5,5.9-12.5c4.6,0,7.7,6,11.9,7.1c-0.7-3.1-1.5-2.6-3-4.8c2.1-2.8,5.3-2,6.9-2.6
	c1.2-0.5,1.2-1.5,2-1.5c2.8,0,2.9,3.1,5.4,4.8c1.2-2.1,0.5-2.6,0-4.8c2.1-0.6,1.3-0.2,2.4-1.8c-10.3-2.4-7-2.7-11.6-9.2
	c-1.1-1.6-0.3-1-2.1-1.5c-0.7,1.6-0.1,0.8,0,3.6c-4.6-0.7-9.1-2.3-13.1-4.7c-5.9-4.1-6.5-7.9-8.9-9.5c-1.3,0.9-0.7,0.1-1.2,1.8
	c-1-0.6-1.8-1.4-2.5-2.3l-4.4-6.3c-0.7-1.2-1.2-2.6-1.4-3.9c1.6,1.1,0.9,1,3,0.6c-0.1-3.4-0.7-2.9-2.1-5
	C493.2,559.2,492.5,557.5,492.1,555.7L492.1,555.7z M651.9,552.1c1.2,0.7,2.5,1.2,3.8,1.5c2.6,0.7,2,0,3.3,2
	c-2.1-0.2-4.1,0.3-5.9,1.2C652.9,555.9,652.3,552.9,651.9,552.1L651.9,552.1z M523.6,546.2V545c1-0.5,2-1.1,3-1.8
	c1.4,2.9,2.7,7.7,9.5,7.7l-0.6,6.5c-2.1-0.2-1.6-0.1-2.8-1.3c-2.4-2.5-5.6-4.2-9-4.6L523.6,546.2z M698.9,549.2
	c4.5-0.6,8.9,1.5,11.2,5.4c2.1,2.8,3.6,6,4.3,9.4c-1.4-1.4-3.4-2-5.3-1.8l1.1,1.8c3.7,4.6,4.9,5.7-0.7,11.1
	c-2.4,2.3-3.6,1.8-6.4,3.1c-0.6-4.6-1.6-9.2-3-13.7c2.8,0.8,2.5,2.2,4.4,3.4c2.4,1.5,2.1-0.8,0.5-2.9c-1-1-2.1-1.9-3.3-2.7
	c-1.7-1.3-2.4-0.8-3.2-2.7c-0.7-1.7-0.6-2.8-1.4-4.5l1.9-2.3c-0.3-0.4-1.4-2.3-1.5-2.4C697.2,549.3,697.1,549.2,698.9,549.2
	L698.9,549.2z M706,545.6c0.1,0.1,0.3,0.1,0.3,0.3s0.2,0.3,0.3,0.3c0.2,0.4,0.5,0.7,0.6,1.1C705.7,546.8,706.4,547.4,706,545.6
	L706,545.6z M704.3,546.2l0.2,0.2C704.4,546.4,704.2,546.3,704.3,546.2L704.3,546.2z M703.7,536.1c0.6,1.4,0.4,1.7,1,3.2
	c2,5.1,3.1,3.7-4.8,5.5c-6.9,1.5-5.7,3.1-4.3-3.1C696.4,538.2,696.7,537.7,703.7,536.1L703.7,536.1z M648.4,539.6
	c2,0.7,1.8,1.2,2.9,2.5c1.3,1.6,1.4,2.1,3.7,2.3c0,4.4,1.1,4.2,1.2,7.7c-1.2-0.8-1.3-1.1-2.7-2c-2.1-1.3-2.3-0.4-3.2-2.1
	C649.4,545.2,648.8,542.4,648.4,539.6L648.4,539.6z M529.5,540.8c2.6,1.8,3.2,2,6.9,1c5-1.4,5-3.3,6.8-4.5c0,3.1,0.4,4.7-1,6.7
	c-2.9,3.8-6.7,4.8-10.1,1.5c-0.6-0.6-1.2-1.2-1.7-1.9C530,542.9,529.7,541.3,529.5,540.8L529.5,540.8z M452.9,540.2
	c5.3-1.2,13.1-1.4,16.7,3.5c1.4,1.9,0.1,1.7,2.9,1.9v-2.4c4.4,2.3,4.9,4.1,7.1,8.3l-2.4,0.6c2.9,5.6,0.7,13.7-4.8,13.7
	s-7-2.3-8.5-8.1c-0.7-2.5,0.1-2-2.2-2.6c-0.9,1.8-0.6,2.2-0.6,4.8c-1.7,0.6-3.4,1.1-5.1,1.5c-3,0.5-2.8-0.9-5.6-0.9
	c-1.9,0-0.9,2.3,1.4,3.3c1,0.4,2.7-0.8,2.7,6.2c0,2.7-1,2.6,0,4.8c2.1-0.6,1.3-0.2,2.4-1.8c2.9,1.4,5.6,0.8,10.8,7.6
	c4.1,5.3,1.2,5.1,1.1,9c3.9-0.3,0.7-1.1,4.4-2c4-1,0.1-2.8-0.8-4c-0.7-1.3-1.4-2.7-1.8-4.1c9.6,0.2,12.8,6,16.5,10.8
	c2.4,3.1,8.9,3,9,11.2c0,2,0.4,4.1,1.2,5.9c1.6-1,1.2-0.3,1.8-2.4h1.2c0.2,2.2,1.2,4,1.2,5.9c-0.4,3.5-1.2,6.8-2.4,10.1l-1.8-3
	c-0.5,1.5-0.9,3.1-1.2,4.8c-2-1.5-1.2-8.1-1.2-13.1c-2.7,1-2.4,4-2.4,6.5l-2.3-1.9c0,5.9,7,13-2.7,19.5c-7.6,5.1-8.7,2.6-14.6,2.6
	c0.3-1,0.5-2,0.6-3c-3.1,0.8-2.6,2.6-6.5,1.8v2.4c1.7,0.4,6.3-0.4,8.3,2.4c-6.2,1.7,0.1,3-14.3,3c0.4-1.9,0.6-0.9,0-2.4
	c-3.7,0.9-7.1,2.9-13.5-2c-2.4-2.2-3.6-5.5-3.2-8.7c-1.7,0.5-1.2,0.3-2.2,2c0,0.1-0.1,0.3-0.2,0.4c-1.2-5.3-1.2-0.4-1.2-9.5
	c1.4-0.9,4.8-5.3,10.1-2.4c2.3,1.3,7.2,6.1,8.9,6.6c-0.7-3.1-2.2-3.2-3-5.9c4.2-1.1-1.3-1.2,6.5-1.2l2.2-2.5
	c4.6,2.5,2.2,3.3,5.5,5.5c1.3-1.5,0.1-3.7,0-5.4c1.8-0.5,1.3,0,1.8-1.8c-10.4,0-8.6-9.1-13.1-10.7c-1.2,1.4-0.3,2.3,0,3.6
	c-2.5,0-5.1-0.5-7.4-1.5l-5.8-3.1c-7.1-5.4-6.6-8-8.8-9.6c-1.3,0.9-0.7,0.1-1.2,1.8c-4-3-6.9-7.1-8.3-11.9c1.9,0.9,4.9,1,1.2-4.2
	c-0.8-1-1.4-2.2-1.9-3.5c-1.9-4.9-2.1-10.2-0.8-15.2l2.6-5.1c0,3.4,0.3,4,2.4,5.4c1.2-2.4-0.1-9,4.3-13.5
	c13.3-13.7,17.8-2.1,18.2-1.8c1.4,1,2.9,0.4-0.3-4C453.7,541.6,453.3,540.9,452.9,540.2L452.9,540.2z M648.4,539.6h-0.6l0.5-0.7
	L648.4,539.6z M654.9,542l-5.5-5.2l8.5-1.9C657.2,537.5,656.1,536.9,654.9,542L654.9,542z M500.4,534.9c1.7,1.2,4.8,8.3,5.9,10.7
	c-1.7,1.2-0.8,1.2-3,1.8c-0.3-2.1-0.8-4.2-1.4-6.3L500.4,534.9z M449.9,538.4c-4.5,0-5.2-0.5-10.1,2.4c-6.2,3.6-6.6,8.2-10.6,10.8
	c-5.5,3.5-6.7,11.2-6.7,17.7c0,4.7,2.4,7.6,2.4,10.7c-0.2,2.2,0,4.5,0.5,6.6c2.2,6,6.2,11.1,11.4,14.8c3,2.1,2.9,0,5.5,2.8
	c1.4,1.7,3.2,3,5.2,3.7c4.3,2.5,9.3,3.8,14.3,3.6c0.9,3.2,5.1,4.4-2.3,5.4c-1.7,0.5-3.4,1.3-4.8,2.3c-2.5-1.5-5.4-2.3-8.3-2.4
	c-4.1,0.4-7.3,3.7-7.7,7.7c0,3.3-0.1,6.6,2.2,9.1l2.2,3.1c2.5,4.8,7,4.9,8,9.2c1.4,0,2.8-0.2,4.2-0.6c0.6,2.5,3.6,1.9,5.6,2.2
	l8.2-1.5c4.1-1,1.9,0.5,3.4,0.5c3.3,0,2.8-1.6,4.9-2.3l5.2-2.5c0.4,2.2,1,4.4,1.8,6.5c-1.9,0.3-3.9,0.8-5.7,1.4l-18.1,5.1
	c-1.4-2.1-0.7-1.8-3-3c-0.5,2.6-0.1,1,0,4.2c-8,0.7-21,7.1-29.1,7.7c0.8-1.8,0.1-1.5,0-4.2l3.9-2.1c1.1-1.5-0.7-0.3,1.5-2.1
	c1.5-1.3,0.6-0.2,2-2.1c2.7-3.6,4.5-5.5,4.5-11.5c0.1-2.3-0.5-4.7-1.6-6.8c-2.9-5.7,1.3-7.6-2.3-14.9c-1.1-2.2-0.7,0.6-0.9-2.6
	c0-3-0.7-6-2-8.7l-7.8-13.6c-0.6-2-0.7-3.8-1.3-5.8c-1-4.4-3.1-8.4-6.1-11.8c-1.5-1.5-0.6,0.6-1.5-2c-0.5-1.3-0.2-1.5-0.7-2.8
	c-0.3-0.8-0.7-1.6-1.2-2.4l-2.6-3.3c-0.1-0.1-0.2-0.2-0.3-0.3s-0.2-0.2-0.3-0.3c-1.7-1.3-3.6-2.4-5.5-3.4c-1.8-1.2-5.6-6.8-12.9-6.8
	c-3,0-3.2,0.9-5.7,0.4c-5.9-1.1-11.9-1.8-15.1,4.4c-10,0-15.1-0.8-22.2,2.8c-3.4,1.6-6.5,3.7-9.3,6.2l-1.4,1.6
	c-2.5,3-3.1,7.2-1.4,10.7c3.9,11,3.9,10.3,15.3,10.3c-2.3,9.9-1.8,3.4-1.8,16.1c0,4.2,2.4,5.3,2.1,8.1c-0.2,3.3,0,6.6,0.7,9.9
	c0.6,2.8,1.5,5.5,2.5,8.2c2.4,6.1,0.3,15.6,7.1,23.2l5.4,8.8c1.7,3.1,1.2,5.7,5.2,6.1v1.2c-6.1,0-6,1.2-15.6-0.4
	c-2.8-0.5-5.1-0.7-7.6-1.3s-4.5-1.1-7-1.9c-20.7-6.3-38.7-22.5-45.2-43.4c-3.8-12.4-4.7-23.3,0.3-35.8c2.8-7.6,8.1-14.1,15.1-18.2
	c10.9-6.3,25-9.3,37.1-12.3c2.1-0.5,4.2-1.2,6.3-2c1.9-0.8,4.3-1.2,6.5-1.9l103.4-29.2c2-0.5,4.1-1.1,6.5-1.8
	c2.2-0.8,4.4-1.3,6.6-1.7c0.5,2,0.8,2.8,1.3,5.2l3.1,11.2c0.7,1.8,1.2,3.7,1.6,5.6c0.4,6.1,0,7.6,1.8,12.5c2.4,6.3-2.5,9.5,8.1,20.4
	c4.8,4.9,7,4.1,10.6,7.2c5.5,4.8,10.8,6.3,18.7,6.3c0.6,2.8,1.1,2.2,2.4,4.2c-1.5,0.4-0.7-0.2-1.2,1.2c-3.1-0.2-6.1,0.9-8.3,3
	c-4.4-3-4-2.4-9.5-2.4c-2.8,0-5.4,3.6-5.9,5.9h-1.2c-0.2-2-2.6-5.1-3.8-7.5c-4.1-8.7-7.7-6.6-10.1-10.1l-3.2-4.6
	c-0.1-0.1-0.2-0.2-0.3-0.3l-1.6-1.4c-4.7-3.7-8.3-4.6-15.6-4.6c-2.5-3.8-6.8-6-11.3-5.9V564c3.2-0.3,2.8-1,4.8-2.4
	c0.6,2.1,1.7,4.1,3.1,5.8c4.6,4.5,12,2.5,15.1-2.5c1.9-3.8,2.8-8,2.6-12.3c0-8.2-6.7-10.7-12.7-13.5c-4.4-2.1-6.4-3.8-14.6-2.5
	C453.3,537,450.8,538.5,449.9,538.4L449.9,538.4z M662.7,534.3v0.6l-0.7-0.5L662.7,534.3z M663.3,533.7l-0.6,0.6L663.3,533.7z
	 M499.8,533.7l0.2,0.2C500,533.9,499.7,533.8,499.8,533.7L499.8,533.7z M543.8,531.9l0.7,1.2L543.8,531.9z M519.4,532.5
	c2,0.5,6.5,5.1,6.5,6.5v2.4l-3.5,0.7C521.1,539.3,520.7,535.1,519.4,532.5L519.4,532.5z M690.6,531.3c2-0.2,4-0.6,5.9-1.2
	c0.3,2,0.7,4,1.2,5.9H696c-0.2-2.8,0.6-1-1.2-2.4c-0.7,2.3-1.1,4.7-1.2,7.1H693C692.4,537.6,691.6,534.5,690.6,531.3L690.6,531.3z
	 M663.3,533.7c0.9-1.2,2.1-2.1,3.6-2.4C665.7,533.1,665.6,533.2,663.3,533.7L663.3,533.7z M543.8,531.9l-0.7-1.2L543.8,531.9z
	 M701.9,526.6c0.2,2.4,0.6,4.8,1.2,7.1c-1.1,0.2-2.1,0.6-3,1.2C700.1,530.9,697.9,527.6,701.9,526.6L701.9,526.6z M667.4,530.7
	l-0.6,0.6L667.4,530.7z M668,530.1l-0.6,0.6L668,530.1z M668,530.1v-0.6l0.7,0.5L668,530.1z M603.2,529.6h-0.6l0.5-0.7L603.2,529.6z
	 M699.5,523.6c-0.2,0.9-0.5,1.8-0.9,2.6c-1.4,2.4-6,2.5-8.6,2.7c-0.4-1.2-0.6-2.4-0.6-3.6C694.5,525.4,696.1,523.7,699.5,523.6
	L699.5,523.6z M699.5,523.6V523l0.7,0.5L699.5,523.6z M646.6,535.5c0-4.4-1-4.2-1.8-7.7l12.6-3.5c2.3-0.7,4.5-1.1,6.5-1.8
	s4.5-1.4,6.5-1.9c-2.2,4.5,0.1,5.2-8.8,10.8c-2,1.3-7.2,1.6-11.5,3.4C647,536.1,649.7,536.1,646.6,535.5L646.6,535.5z M662.1,518.9
	c-0.3,3.1,0.6,1.1-1.2,1.8L662.1,518.9z M663.9,519.4c1.1-4.5,1.7-9.1,1.8-13.7l1.2-0.3c0.6-0.1,1.2-0.2,1.8-0.3l1.8,13.1
	C668.2,518.9,666.1,519.3,663.9,519.4L663.9,519.4z M699.5,521.8c-3.7,0.3-7.3,2-11.3,2.4c-0.1-3.2-1.5-4.3-1.8-7.7
	c3.7-1.2,7.5-2.2,11.3-3C699.5,517.2,698,518.6,699.5,521.8L699.5,521.8z M630.6,515.3l0.2,0.2C630.7,515.5,630.5,515.3,630.6,515.3
	L630.6,515.3z M573.5,587.8c0.9,0.5,6.2,3.5,4.8,1c-0.6-1.2-2.8-2.3-3.5-3c-6-5.3-4.9-11.9-4.9-20.1c-0.3,0.1-2-0.6-2.4,4.2
	c-1.8-1.3-1.5-2-2.4-4.2c-2.5-6.3-2.6-10.2-4.2-16.6c1.6,1,1.6,1.6,3.6,0.6c-0.8-3-3.2-3-4.5-6.2c-1.2-2.9-1.7-6.1-1.4-9.3l2.4-1.2
	c-1.2-5.1-3.5-3.4-1.8-10.7c0.1,0.1,0.2,0.2,0.2,0.4c1,3.2,2.3,6.2,3.9,9.1c1.8-1.3,1.3,0.2,0.6-2.3c-1.3-4.7-4.4-13.5,1.4-17.7
	c1.9-1.7,4.4-2.6,6.9-2.6c-0.8,1.6-0.5,0.6-0.6,3c2.9-0.3,1.6-0.3,3.1-2.2c5.4-6.7,10.9,1.4,11.6,5.9c1,5.9-2,4.3,2,10.5
	c3.3,5.1,4,11.1,3.5,18.6c-0.1,2-4.7,9.2-0.1,6.5c0.5-0.3,0.9-0.7,1.3-1.2c0.5-0.8,0.3-0.7,0.6-1.8h1.2c0.2,1.7,0.8,3.3,1.8,4.8
	c-0.9,0.5,1.1,0.6-1.8,0c-0.6,2.8-2.5,7.4-4.8,8.9c-0.5-2.5-2.3-4.6-4.8-5.4c0.2,2.7,1.6,3.7,2.9,7.8c0.8,3.1,1.2,6.3,1.2,9.5h1.8
	l0.7-2.4c7.1,1.6,9.6,10.5,9.5,17.2c-0.1,4.4-0.8,4.1-2.4,6.5c1,4.5,5.1,5.1-4.2,11.3c0.3-2.2,0.5-4.3,0.6-6.5h-1.8
	c0,1.1-0.3,2.2-1,3.2c-4,8.1-12.5,0.9-13.9-1.4c-1.2-2.1-1.9-4.4-3-6.5c1,0.1,2,0.3,3,0.6C578.5,592.1,574.8,592.6,573.5,587.8
	L573.5,587.8z M671,505.2c12.1-1,7-7.8,12.8,12.7c5.4,19.1,10,37.9,15.9,57.2c1.1,3.7,0.1,2.7,0.9,5c1.1,2,1.5,4.3,1.2,6.6
	c-3.9,0.9,0.1,1.2-7.7,1.2c-0.1-1.7-0.7-3.4-1.7-4.9c-0.3-0.5-0.5-1.2-0.7-1.7l-7.1-16.1c-1-2.1-0.1-1.8-2.4-2.4v3l-1.8-1.8
	c-0.1-0.1-0.2-0.2-0.3-0.3c-2-2.7,0.7-0.8-6.1-4c-3.5-1.3-7-2.8-10.3-4.6c-4.2-2.2-6.7-6.6-6.5-11.3c0-2,5.3-6.2,7-7.3
	c3.4-2.1,5.8-3.1,7.2-7.1c1.2-3.9,1.7-7.9,1.4-12L671,505.2z M358.9,502.2c-0.4-0.6-0.4,0-0.6-1.2c-0.1-0.6-0.1-1.2,0-1.7h0.6V502.2
	L358.9,502.2z M357.8,496.3c0.4,0.4,0.4,0.2,0.8,1c0.6,1.2,0.1,0.3,0.4,1.4h-1.2L357.8,496.3z M651.4,495.1v1.8
	c-1.8-0.2-1.1,0-2.4-0.6C650.3,494.4,648.6,495.3,651.4,495.1L651.4,495.1z M542.6,495.7c0-1.4,1-0.2,0.4,0
	C543,495.7,542.6,497.4,542.6,495.7L542.6,495.7z M358.4,495.1l0.2,0.2C358.5,495.2,358.3,495.1,358.4,495.1L358.4,495.1z
	 M359.5,493.3v0.6l-0.7-0.5L359.5,493.3z M360.1,492.1l-0.6,1.2L360.1,492.1z M541.4,486.2c0.1,2.6,0.6,3.2,0.6,6.5
	c-1.8,0.5-1,0.3-2.4,1.2l-4.7-2.4L541.4,486.2z M638.3,488.5v0.6l-0.7-0.5L638.3,488.5z M603.2,529.6h5.4c-0.1-0.1-0.3-0.4-0.3-0.3
	l-6.7-5.2c-1-1-1.8-2.1-2.7-3.3c-3.3-4.1-3.7-9.8-0.8-14.2c2.3-3.7,2.9-3.9,7.5-5v-2.4h-1.8c2.8-3.8,11.1-1.1,15.6,3.4
	c3.9,4,7.1,8.7,9.4,13.8c-0.7,1-2.4,2.5-2.6,3.4c-1,4.1,3.9-1.1,6.7-1.8c2.8-0.6,1.6,0.8,4.3-0.4c-1.1-1.6-1.1-2.2-3.6-2.4
	c-0.6-2.7-1-5.5-1.2-8.3c0-5.6,0.6-10.9,5.1-13.9c2.2-1.5,4.7-2.5,7.4-2.7c-0.7-2.4-0.2-1.8-6.5-1.8c4.7-4.1,10-0.5,11.9,0
	c0,2.4-0.2,1.9,0.6,3.6c-3.5,0.9-4,4.5-7.3,6.3c-1.9,1-1.6,0.5-2.2,2.6c3.1-0.3,4.6-2.4,8.2-2.1c3.5,0.3,1.6-0.1,5.5,5.7
	c3.4,0,4.1,0.6,7.7,0.6c-0.3,5.9-2.2,11.7-5.4,16.6h-6c-0.6,2.1-0.1,1.6-2.4,1.8c-0.1-2.9,0.5-5.9,1.5-8.6c1.5-3.5,3-3.5,3.8-6.9
	c-5.1,2.7-6.5,3-8,11c-0.7,3.7,0,2.6,0.3,5.6c-1.5-0.1-3,0.3-4.2,1.2c0.3,3.1,0.9,6.1,1.5,9.2l8,24.7c3.3-0.3,3.3-1.8,7.7-1.8
	c0.9,1.8,2.1,3.4,3.6,4.8c0.3-1.9-0.1-3.8-1.2-5.4l10.1,4.7c0,11.1-3.1,7.6-1.8,10.7c2.5-2.4,4.2-5.5,4.8-8.9c1.2,0.1,2.3,0.9,2.7,2
	c1.8,4.2,2.2,8.8,1.2,13.2c-1.8,9.4-6.1,6.2-14.1,6.2c0.7-2.8,1.8-2.2,0.6-4.8c-1.9,1.4-0.7,0.8-2,2.7c-1.3,2-1.5,0.7-2.1,3.2
	c2.2,0,4.5,0.4,6.5,1.2c-4.5,2.6-10.2,1.3-13.1-3c-1.4-1.8-3.2-3.3-5.1-4.4c-1.8-1.7-2.9-3.9-3.2-6.3c2-1,3.5-1.8,4.2-4.2
	c-1.9,0.6-3.8,1.3-5.6,2.1c-2.2,0.8-4.6,1.1-6.9,0.8v1.8c1,0.3,2,0.5,3,0.6c0,4.2-0.1,4.1-1.8,6.5c-1.9-1.3-1.4-1.7-4.2-2.4
	c0.1,4.1,5.7,8.8-0.7,15.3c-2.1,2.1-5,5.4-10.3,3.4c-2.5-0.9-2.4-1.9-2.7-2.7c-2.6,0.2-1.1-0.1-3,1.2c-1.4-1.9-7.4-6.1-8.3-14.9
	c-0.3-3,1.2-4.6,1.2-7.1h0.6c0.1,3.3,1.3,6.6,3.2,9.3c0.9,1.3,2.1,2.4,3.5,3c2.2,1.1,3.2,1.4,4.6-0.4c-1.5-0.4-0.8,0-2-0.9
	c-4.6-3.9-7.1-9.7-6.9-15.7c0.1,0.1,0.2,0.1,0.3,0.3c2,2.7,4.5,5.1,7.5,6.8c-0.2-1.5,0.1-1-1.4-2.8c-6.6-7.7-5.5-10.2-4.5-16.9
	c0.4-2.8,1.2-5.1,1.8-7.7c2.8,0.7,6.8,1.8,7.7-1.8c-4,0.1-7.8-1.4-10.7-4.2l-7.5-8C606,533.9,604.5,531.8,603.2,529.6L603.2,529.6z
	 M531.3,490.3c-1.3-0.7-2.7-1.1-4.2-1.2V488c2.3-0.9,4.5-2.1,6.5-3.6l7.1-3v3.6C536.5,486,534.4,488.2,531.3,490.3L531.3,490.3z
	 M534.3,479.6l0.2,0.2C534.5,479.8,534.2,479.7,534.3,479.6L534.3,479.6z M690.4,486.7l-2.4-8.2l0.3-0.1c2,2.6,3.2,5.7,3.6,8.9
	c-0.3,5.2,2.8,5.4-9,11.3c-6.8,3.4-10.6,3.6-17.8,3.6c-13.7,3-11.5-6.2-12.8-15.7c1.6-3.1,3-3.5,7.4-5.7c2.8-1.5,5.8-2.5,8.9-3
	c3.2-0.5,6.9-1.5,10.1-1.8c3.4-0.3,7.9,0.2,9.5,2.4c-1.7,0.4-0.9-0.1-1.8,1.2c1.2,4.5,1.8,9.1,1.8,13.7
	C692,493.8,691.2,490.6,690.4,486.7L690.4,486.7z M539.6,477.8l0.2,0.2C539.8,478,539.6,477.9,539.6,477.8L539.6,477.8z
	 M540.1,473.6l0.1,1.9h-1.8L540.1,473.6z M691.2,470.1c4.4,0,8.8,7.6,8.9,12.5c-1.7-1.2-0.8-1.2-3-1.8c0.4,4.3,3,7.7,3,13.1
	c0,4.9-0.6,7.5-0.6,12.5c1.2-0.1,0.4,0.3,1.4-0.3l0.9-0.9c2.3,10,3,4.4,3,19c-1.6-1.2-1-0.9-1.7-3c-0.4-1.3-0.6-2.3-1-3.7
	c-0.7-2.4-1.6-4.7-2.6-6.9l-14.3,3.6c-0.3-3.5-2.7-8.3-3.6-11.9c3-0.9,5.7-2.4,8.2-4.3c6.5-4.3,5.4-9.7,2.3-17.5
	c-1.2-3-3-5.9-6.3-6.2c0.3-0.5,0.6-1,0.9-1.4C687.8,471.4,689.4,470.4,691.2,470.1L691.2,470.1z M676.9,471.9h7.1
	c-0.4,1.3-0.1,1.8-1.8,1.8h-2.4c-1,0-2-0.2-3-0.6L676.9,471.9z M522.4,471.9c-1.3,1.8-0.5,1.8-1.8,0H522.4z M522.4,471.9v-0.6
	l0.7,0.5L522.4,471.9z M522.4,477.8c0.2-2.2,3.4-7,5.9-7.7c-0.5,1.9-1.3,2.1-2.6,3.9C524.9,475.5,523.7,476.8,522.4,477.8z
	 M377.4,470.1v0.6l-0.7-0.5L377.4,470.1z M531.3,477.2l8.9-11.3v3.6c-1.6,1.1-3.1,2.5-4.3,4.1C534.3,475.7,534.5,476.5,531.3,477.2
	L531.3,477.2z M534.3,468.9c-1.6,2.4-6.3,8.8-8.9,9.5c1.6-3,4.3-5.2,6.5-9.5H534.3z M534.3,468.9v-0.6l0.7,0.5L534.3,468.9z
	 M567.6,583.7c-6.2-4.1-0.1-7.2-12.1-14c-2.4-1.4-5.2-10.7-15.2-11.5v-7.7c3.3-1.5,5.6-4.4,6.3-8c1-4.2,2-7.5,0.4-11.9
	c-0.7-1.6-1.6-3-2.7-4.4c-4.5-5.3-4.4,0.3-10.6-11.4c4.4,0.9,8.9,0.5,13.1-1.2c4.2-2.1,5.3-4,5.3-10.1c2.7-0.1,15.6-4.1,19.3-5.1
	l38.5-10.9c16.2-5.1,40.6-11.7,57.8-16.5c3.3-0.9,15.7-4.2,18.7-5.7c5-2.5,24.4-4.4,31.7-5.2c7.9-0.9,26.2,0.1,33.8,3.5l11.3,6.5
	c2.2,1.5,1.9,0.9,3.5,3.1c9.5,12.5,15.6,32.2,13.1,47.4l-3.3,9.2c-2,5.8-4.6,11.3-7.9,16.5c-6,9.8-20.5,22.4-23.2,23.2l-17.6,9.7
	c-3.5,1.5-7.1,2.4-10.9,2.8c0-5.2,1.9-4.8,2.4-7.1c-0.3-1.8-0.5-3.5-0.6-5.3c0-4.6,0.5-6.4-1.8-10.1c-0.8-1.3-1.2-2.5-2-4
	c-1.6-3.1-4.3-4.1-5.5-6.4c-2.3-4.2-0.9-12.3-0.8-14.6c0.2-1.8-0.1-3.5-0.9-5.1c-0.7-2.5,0.8-7.1,0.9-10.3c-0.1-6.4-2.1-12.7-6-17.9
	c0.3-2.2,0.5-4.4,0.6-6.6c-0.1-2.2-1-4.4-0.9-5.8c0.3-4.9,1.8-5.8-0.4-11.9c-1-3.3-3.1-6.3-6-8.3c-2.5-1.6-5.8-1.7-8.4-0.3
	c-2.4,1.6-0.9,0.1-1.6,2c-4.5-0.4-4.8-2.6-10.1,0c-1.8,0.9-2,1.7-4.7,1.8c-6.7,0.2-4.8,2.6-8.3,4.8c-1.5,0.6-3.1,1.3-4.5,2
	c-2.4,1.6-6,3.5-6.8,6.3c-7.3-1.7-12-4.1-17.9,3.5c-2.6,3.3-4.1,10.7-4.1,15c0,2.2,0,4.4,0,6.5c-2.9-2.1-9.8-19.1-24-15.1
	c-5.2,1.4-5.6,4.6-8.5,7.5c-10.1,10.3,0.2,21.9,0.7,22.8c2.3,5.5,5.5,10.5,9.4,14.9c2.4,2.5,5.2,6.9,8.8,7.9
	c-1.1,4.7-2.8,10.2-3.4,15c-0.7,4.5-0.3,5.3-2.5,8.8c-0.3,0.4-0.5,1-0.8,1.5c-0.7,0.9-1.3,2-1.7,3.1c-1.3,5.2-0.5,10.7,2.1,15.3
	c2.7,4.5,4.9,5.2,5.8,7.8c0.3,1.1,0.9,2.2,1.7,3.1c7.3,0,5.5,1.3,9.6,1.6c9.5,0.6,9.8-3.3,12.9-10c1.7-3.1,2.1-6.6,1.3-10
	c3.2-2.2,2.6-3,3.6-7.1l1.2,2.4c0.4,0.7,1,1.4,1.6,1.9c1.9,1.9,1.3,2.2,4.9,2.2c0.1,4.5,4.9,8.3,8.9,8.9c3.7,0.6,6.8-2.5,8.3,3
	c-4.5,2.1-54.9,15.9-63.7,18.4c-2.6,0.7-2.5,0.8-3.1-2c-1.6-7.2,4.4-8.5,0.3-16.3c4-7.6,1.3-16.5-2.4-22c3.7-7,1.7-23.2-5.4-27.9
	c1.6-7,0.4-18.9-5.9-23.2c1.5-4.6,0.8-9.6-1.9-13.6c-5.6-7.6-9.7-3.9-12.5-3.2c-1.1,0.3-2.4,0.1-3.8,0.3c-2.2,0.3-4.2,1.1-6,2.3
	c-3.9,2.3-6,6.7-5.5,11.1c-2.3,0.6-2.9,2.7-3.4,5c-0.4,2.4,0.2,4.9,1.6,6.9c-6.8,10.1,2.4,12.3,1.7,18.9l0.1,6.6
	C560.5,568.6,567.6,572,567.6,583.7L567.6,583.7z M377.4,470.1c5-7.4,13.6-10.7,21.1-15.1c2.7-1.6,6.6-0.9,11.6-0.9
	c5.4,0,12.4,4.4,16.2,8.2c1,1,2.1,1.9,3.3,2.7c1.2,1,2.2,2.1,3.3,3.3c1.9,2.2,4.1,4.3,6.4,6.1c0.9,9.1,3.9,17.9,8.8,25.7
	c6.2,8.3,10.4,8.6,17.6,12.7c2.3,1.3,1.1,0.8,2.1,3.2c1.2,2.1,2.6,4.1,4.2,5.9l-3.5,0.7l-3.9-2.7c-2.7-1.6-10.9-7.3-13.3-7.5
	c1.1,2.7,3,4.9,5.5,6.4c1.2,0.9,2.2,1.6,3.5,2.4c2.2,1.4,2.8,0.8,3.5,3.1c-3.6-0.1-5.1-1.6-8.3-2.4c0.2,2.4,0.3,2.4,2.4,3
	c-1.3,1.8,0.1,0.7-2.6,1.6c-1.1,0.4-2.1,0.7-3.2,0.9c-2.2,0.7-4.4,1.3-6.7,1.7c0-12.5-14.6-50.5-20.4-58.1c-1.8-2.3-2.7-4.6-6.4-4.9
	c-0.7,3-0.3,2.4,2.2,7.3c3.9,7.5,7.3,15.3,10.1,23.2l4.3,11.8c0.6,2.1,0.8,2.6,1.5,4.5c2,5.9,3.5,11.9,4.6,18
	c-6.1,1.2-12,2.7-17.9,4.7L369.6,551c0-5.1-1.8-7.7-3.1-11.8c-0.5-1.5-1.2-4.1-1.6-5.5l-4.3-18.3c-1-4.3-1.6-8.7-1.8-13.1l0.4,0.8
	c0.6,2.4-0.1,1.6,0.8,3.4h2.4c0-9.9-3.1-7.1,1.1-12.6c1-1.3,1.6-2.2,2.5-3.5c2-2.3,3.6-4.9,4.8-7.7c-3.6,1.7-1.9-0.2-6.1,4
	c-2,2.1-2.5,4.1-4.6,5.5c0.9-3.7,4.5-6.6,7-9.1c5.8-5.3,12.7-9.4,20.1-12c5-2,7.3-3.2,9.7-6.9c-5.2,0.5-10.2,1.9-14.9,4.1
	C380.5,469,379,469.6,377.4,470.1L377.4,470.1z M514.1,460c0,11.1,10.5,6.2,10.7-1.2c0.1,0.1,0.2,0.1,0.3,0.3l2.1,2.7
	c2.5,0,7.8,0.5,8.3-5.4c1.4,1.1,3,1.9,4.8,2.4v5.4l-17.5,3.9c-2,0.5-3.9,1.2-5.7,2c0.3,3.7,3,8.2,4.8,11.9c6.2,0,8.1-1.7,11.9-1.8
	l-9.2,5.7c-1.1,0.6-0.5,0.1-1.6,0.8c-0.7,0.4-0.9,0.7-1.7,1.3c-2.5-3.8-0.2-1.2-1.9-6.5l-4.3-13.6c-1-2.3-1.7-4.1-2.8-6.1
	c0.1-0.1,0.2-0.4,0.3-0.3L514.1,460z M517.6,463c0-1.8-0.3-2.9,1.3-4.1c1.4-1,0-0.6,2.3-0.1C521,461.6,520.4,462.7,517.6,463
	L517.6,463z M514.7,458.8l-0.6,1.2L514.7,458.8z M528.3,458.2c0-1.9-0.2-2.3,1.2-3.1c0.7-0.4,2.4-0.8,2.4,0.7
	C531.9,457.9,530.5,458.2,528.3,458.2L528.3,458.2z M539.6,452.3h0.6v2.4h-0.6V452.3z M643.1,432.7v0.6l-0.7-0.5L643.1,432.7z
	 M643.7,432.1l-0.6,0.6L643.7,432.1z M643.7,432.1l1.7-1.9C644.9,432.1,645.4,431.6,643.7,432.1L643.7,432.1z M534.3,434.4
	c-0.9-3.9-1.2-3.6,1.2-7.1c6.4,0.5,5.3,4.2,3.2,6.1C537.1,434.9,536.9,434.4,534.3,434.4L534.3,434.4z M517.1,429.7
	c5.4,1.3,10.7,3.3,6,11.3c-0.6,0.9-3,3.8-4.3,2.5C518.2,443,518.1,432,517.1,429.7L517.1,429.7z M641.3,430.3
	c0.2-2.6,3.9-5.7,5.9-7.1c-0.3,3.7-2.3,2.7-5.1,6.2c-0.1,0.1-0.2,0.3-0.3,0.3L641.3,430.3z M514.7,458.8c0.6-1.9,1.4-3.7,2.3-5.4
	c0.8-1.9,1.4-3.9,1.9-5.9c2.9,0.3,5.6-1.2,6.9-3.8c0.8-1,1.5-2.1,2-3.3c0.5-1.6,0.9-3.2,1.1-4.9c0.4-4.6-3.9-10.9-12.5-8.9
	c-0.3-1-0.5-2-0.6-3c6.9-1.2,13.8-2,20.8-2.4c2.2-0.1,4.3-1,6.5-1.2l-0.7,4.7c-5.2-2.7-2.2-1.8-7.2-0.7c-2.7,0.6-1.5-0.3-3.3,1.4
	c-5.8,5.5-1.5,17.2,8.8,11.8l-0.6,11.3c-3.7,0.1-4,1.7-4.8,4.8l-0.8-1c-2.9-2.6-9.3-1.1-9.9,5.7l-2.4-3c-4.1,0-3.9-0.4-5,0.9
	L514.7,458.8L514.7,458.8z M515.9,446.9c-0.3,2.2-1,4.3-2.1,6.3c-0.7,2.1-1.8,4-3.3,5.6l-5.2-9.1c-2.4-2.8-8.1-1.6-11.4-1.6
	c-2.2,0-2.1,0.7-4.2,1.2v1.8l14,0.3l3.9,8.3l-0.5,0.7l-3.6-8l-6.6-0.7c-2.8,0-2.4-0.5-3,1.8c2.3,0.7,4.7,0.9,7.1,0.6
	c1.5,2.9,3.1,7.4,6.5,8.3c-0.5-2.1-0.6-2,0-3c0.5,2,7.2,18.1,9.5,27.9c-9.3-0.8-16.4-6.2-26.2-3.6c-2.3,0.6-2.4,0.3-2.9,2.4
	c2.9,1.3,0.3,0,3.6,0h7.7c2.8,0,1.9,0.6,4.2,0.6v0.6c-4.5,0-13.6,4.9-16.9,6.9c-2.5,1.6-12.8,7.7-12.8,11.5c0,1.7,0.9,1.8,2.4,1.8
	s2.5-1.6,3.4-2.5c6.2-6.3,22-14.1,32.8-14.1c11.7,0,19.3,3.9,28.2,9.3c3,1.8,5.6,2.8,7.5,5.6c-1.7,7.2-9,5.4-14.4,4.3
	c-7.1-1.4-3.6-1.7-13.1-10.1c-1.6-1.5-0.6-1.3-3.4-1.3c0.1,2.8,2.5,5,5.2,8.4l9,11.8c1,1.4,1.8,2.7,2.9,4.3c1,1.5,1.7,2.8,2.7,4.5
	c1.7,2.5,2.5,5.5,2.2,8.5c-9.1,6.1-8.8,1.4-17.4-7.6c-10.9-11.4-3.9-4.1-11.9-16.1c-0.9-1.6-2.3-2.7-4.1-3.1
	c-2.1,2.5,5.1,10.6,7.9,18.2c0.6,1.5,0.8,3,1.4,4.6c1.8,5.2,7.2,15.9,3.5,19.7c-3.4,3.4-6.3-4.1-7.4-6.3l-14.3-26.2h-3.6
	c-0.4,2.6-0.2,5.3,0.5,7.9l3.9,15.1c1.1,2.9,1.8,6,2.2,9.1c-1,0.7-1.9,1.2-3,1.8c-4-2.1-3.6-4.5-5.1-9.1c-2.4-7.3-4.2-14.3-7.2-21.4
	c-0.6-1.6-1.7-3-3-4.1c-2.1-2.1-2-2.3-4.9-1.6c0.1,1,0.3,2,0.6,3c-3.2-0.9-4.7-4-6.1-6.9c-0.9-1.4-1.5-3-1.8-4.7
	c-0.6-2.6,0.1-3.6-0.9-5.6c-1.9,0.7-2.3,1.4-2.4,4.8c-4.9-2.6-9.4-6-13.2-9.9c-6.4-6.4-8-16.1-10.1-24.4c-0.6-3.2-1.4-6.4-2.4-9.5
	c-1.9-6.3-3.4-12.7-4.6-19.2c-5.2,3.5-1.8,13.4-0.6,18.4c-1.9-0.5-1.5-0.5-2.8-1.9c-0.7-0.9-1.6-1.6-2.5-2.2
	c0-6.7-1.7-13.9,1.9-20.1l7.2-10.7c2.3-2.8,6.1-4.5,5.6-5.9c-1-2.9-15.8,9.1-18.6,21.4c-0.4,3.9-0.4,7.8-0.2,11.7l-11.3-5.4
	c0.3-8.2,2.4-16.3,6-23.7c3.4-6.5,7.3-12.7,11.8-18.5c3.8-5.1,11.5-13.8,17-16.9c2-1.1-0.1-0.3,2.5-1.1c6.2-1.8,19.6-2.5,20.3-2.8
	c1.7,2.3,10,6.2,13.1,7.7c6.6,4,12.7,8.6,18.3,13.8c4.5,4.5,9.1,16,9.7,22.4c-2.5-3.4-5.2-6.7-8.2-9.7c-2.1-1.9-8.9-6.1-12-6.4
	c0.1,3.5,0.2,2.3,2.7,3.8c5.7,3.2,10.6,7.7,14.3,13.1C511.7,434.7,515.8,443.7,515.9,446.9L515.9,446.9z M598.5,398.8
	c2.5,0.1,1.4,0,3,0.6l20,7.3c3.1,2,5.8,4.6,7.8,7.7c4.1,5.2,3,5.3,4.9,10.5c1.3,3.6,2.9,7.7,4,11.5c1.1,4,2.7,7.4,3.9,11.5
	c0.3,1.1,0.4,1.8,0.8,2.8c0.4,1.1,0.7,1.7,1.2,3l6.8,17c-2.9,1-5.9,1.8-8.9,2.4c1.4-3,0.7-10.6,0-13.7h-1.2
	c-0.1,3.6-0.5,7.1-1.2,10.6c-0.7,4.8-0.7,4.1-6.7,5.8l-58,16.3c-5.7-10.7-5.5-23.4-7.3-33.1c-0.5-1.6-0.8-3.3-1-5
	c-1,0.1-2-0.5-3.5,2.5l-0.6,4.6c-0.3,7.8,0.7,15.7,3,23.2c1.4,5.6,3,7.1,3.6,9.5l-16.6,4.8c-1.9,0.9-4,1.1-6,0.5
	c1.5-6.2,0.7-10.2-0.4-18.1l-0.5-19.2c-0.1-1,0-15.6,0.3-19.2l4.5-27c1.7-6.6,1.7-6.7,9.6-11.8c6.5-4.1,16.1-8.4,24.4-6.9
	c4.8,0.8,12.9,5.2,16.1,5.2C600,399.6,599.8,400.7,598.5,398.8L598.5,398.8z M497.5,398.8l0.2,0.2
	C497.6,398.9,497.4,398.8,497.5,398.8L497.5,398.8z M598.5,398.8h-0.6l0.5-0.7L598.5,398.8z M710.8,369.6V369l0.7,0.5L710.8,369.6z
	 M717.4,356.6l0.2,0.2C717.5,356.7,717.3,356.6,717.4,356.6L717.4,356.6z M718.6,355.4v0.6l-0.7-0.5L718.6,355.4z M719.1,354.2
	l-0.6,1.2L719.1,354.2z M719.1,354.2v-0.6l0.7,0.5L719.1,354.2z M599.7,353.6v0.6l-0.7-0.5L599.7,353.6z M720.3,352.4v0.6l-0.7-0.5
	L720.3,352.4z M720.3,352.4v-0.6l0.7,0.5L720.3,352.4z M721.5,350.6v0.6l-0.7-0.5L721.5,350.6z M721.5,350.6V350l0.7,0.5
	L721.5,350.6z M461.2,264.4c3.2,1.5,9.9-0.5,13.7-0.6l-15.1,13.5c-5.1,6-8.7,9.2-12.1,17.6l-4.3,9.9c-1.5,3.6-2.7,7.4-3.7,11.2
	c-1.9,7.5-4.7,24.7-3.1,33.7c0.5,2.7,0,5,0.6,7.8c2.5,12.6-0.9,2.9-0.9,14c0,1,0.2,2,0.6,3c-5.3,3.6-6.1,14.9-6.8,21.2
	c-0.6,5.5,2.8,5.3-3.5,12.6c-3.2,3.7-10.2,15.2-11.1,19.2h-1.2c0-1.9-8.1-56-10.5-59.1c-0.8-1.1-0.1-0.5-1.4-1
	c0,6.1,2.8,21.2,3.9,27.6c1.8,10.4,3.3,26.6,6.6,35.6c1,2.7,0.6,1-1,8.1l-5.9-30.4c-1-6.6-9.4-55.3-9.6-62.4c-0.1-2.7-0.5-5.3-1-8
	l-0.8-8.7c-0.6-8.6-1.8-13.5,1.9-23.1c6.5-17.3,14.7-24.6,29.8-34.5c14.4-9.4,13.3-6.4,27.1-9.2c8-1.6,25.7-3.1,32.2-4.6
	c-2.2,3.1-8.3,2.8-12,3.4C468.8,262.1,463.2,261.6,461.2,264.4z M760.1,260.8l-4.7-2.4c2.6-3.1,5.4-6,8.5-8.7c2.8-2.8,4.4-9,7-10.9
	c3.5,6.6,3.5,7.4-3.1,15.3C765.6,256.8,763.1,259.1,760.1,260.8L760.1,260.8z M751.2,256.7c-7.7-3.7-4.6-2.5,3.5-13.2
	c2.6-3.5,4.9-7.2,6.6-11.2c1.1,0,2.2,0.4,3,1.2c2.3,1.6,3.8,2.2-0.3,8.7C760.8,247.4,756.6,253.8,751.2,256.7L751.2,256.7z
	 M745.3,234.1l-0.6,0.6L745.3,234.1z M745.3,234.1v-0.6l0.7,0.5L745.3,234.1z M746.5,232.3v0.6l-0.7-0.5L746.5,232.3z M746.5,232.3
	v-0.6l0.7,0.5L746.5,232.3z M748.2,229.9c4.3-6.4,10.1-2.4,10.1,0c-0.5,1.9-1.4,3.6-2.6,5.1l-9.3,14.5c-6-1.4-3.3-3.8,0.4-9.7
	c2.6-4.2,4.9-7.9,2.8-9.4C748,229.3,749,232.2,748.2,229.9L748.2,229.9z M744.7,234.7c-1.5,6.3-7.3,10.3-5.6,14.5
	c0.7,1.8,2.5,2.9,4.4,2.7c0,2.4-0.1,4.6,2,6.3c1.9,1.6,4.4,2.4,6.9,2c0.8,1.6,2.4,2.8,4.2,3c2.1,0.7,0.3,0.2,1.7,0.7
	c3.9,1.6,7.5-1.6,9.8-4.1l8.4-11.2c3.1-5.7-0.9-1.3,6-7.1c0.1-0.1,0.2-0.2,0.3-0.3l1.8-1.8c0.4-0.5,0.5-0.7,1.1-1.3
	c0.9-0.9,1.5-1.5,2.4-2.4l4.9-5.2l2.4,0.7c0,2.9-3.1,7.1-4.9,9.3c-5.7,6.4-10.7,13.3-14.9,20.8c-2.5,5-4.4,8.9-9.1,12.3
	c-2.3,1.7-9.9,13.1-11.9,16.6c-3.6,6.3-2,3.5-3.9,11c-9.2,36.6-14.3,27.6-20.6,37.1s-2.2,3.4-6.5,6.6c-9.3,7-10.5,16.2-13.9,21.8
	c-1.3,2.1-2.7,3.8,1.2,3c-0.7,2.8-5.6,7.6-7.6,9.7c-7,7-14.4,4.2-24.5,10c-1.7,1-3.3,2.2-4.9,3.4c-0.7,0.6-1.5,1.3-2.1,2
	c-1.4,1.4-1.4,0.9-1.9,2.8c-7.2-1.9-19.2-28.9-21.8-36.5c-0.8-2.3-0.9-4.5-2.6-5.7c0,14,7.5,27.2,15,38.5c0.5,0.8,1.1,1.6,1.8,2.3
	l4.7,4.8c1.6,1.5,0.6,1.3,3.4,1.3c1.1-2.6,3-4.9,5.4-6.5l0.1,4.9c-0.2,2.6-0.7,3.6-0.7,5.8c-4.3,1-8.8,4.2-13.3,5.7
	c-4.7,1.6-11,1.8-15.2,3.8v2.4h1.8c-1.3,1.3-2.7,2.5-4.3,3.5c-1.9,1.5-2.3,3-4.6,3.7c-2.4-9.2-8-17.3-15.8-22.8
	c-4.1-2.5-8.5-4.5-13.1-5.9c-10.5-4.1-21.7-5.7-32.9-4.5c-5.2,0.6-10.3,2.1-15,4.6l-8.4,5.8c-2.9,1.7-5.5,4-7.5,6.8
	c-1.1,2.5-1.9,5.1-2.4,7.7c-5.8,0-24.9,1.8-29.7,4.2c-0.4-5.2-7.1-14.2-10.9-17.6l-4.8-4.1l-0.3-0.3c6,0.1,13.3,3.4,19.6,3.6
	c12.7,0.4,17.7,2.2,30.7-3.2c1.9-0.8,1.5-0.2,2-2.2c-2.5,0.3-5.1,0.8-7.6,1.3c-2.6,0.6-5.2,0.9-7.9,1c-2.8,0.5-5.5,0.7-8.3,0.6
	c-2.3-0.2-1.5-0.5-4.1-0.6l-12.5-1.2c-8.4-1.3-16.5-3.8-24.1-7.4c-1.4-0.6-2.1-1-3.2-1.5c-6-2.8-11.4-6.6-16.2-11.1L452,362.5
	c-1-1.4-1-1.5-3.1-1.7c0.5,6.3,8.6,13.6,12.9,18c2,1.6,3.8,3.3,5.5,5.2c-4.9,0-11.2,1.1-15.5,1.4c-2.9,0.2-8.6,5-10.5,7l-6.7,5.8
	c0-8.6,2.4-12.6,4.2-20.2c3.7,0.9,5.6,4.9,9.5,3c-0.8-3.2-4.3-4.3-6.4-6.7c-2.7-3.1-1-7.2,0.5-10c-0.4-1.6-0.9-1.9-1.1-3.1
	c-0.7-7.1-0.9-14.2-0.7-21.3c-0.1-14.5,4.9-29.7,10.3-42l6.1-11.7c2.5-4.3,13-14.1,17.9-17.8c5.1-3.9,10.8-7,16.9-9.3
	c2.4-0.8,4.8-1.4,7.3-1.6c18.2-3.2,33.8-2.7,51.1,3.1c1,0.3,2,0.7,2.9,1.2c3.2,1.2,6.3,2.7,9.3,4.4c7.1,4.7,13.1,11,17.2,18.4
	c-1.3-0.3-2.6-0.9-3.7-1.7c-1.3-0.8-2.2-1-3.7-1.7c-2.4-1.3-4.9-2.4-7.5-3.2l-1.1,1.3c1.5,3,9.5,5.5,15,9.2
	c7.5,4.9,13.2,12.1,16.3,20.5c1.3,3,2.3,6.2,3,9.5c0.5,4.4,1.2,20.6,1.8,22c1.4-1,1.4-0.9,1.8-3c0.3-1.7,0.5-2.7,0.6-4.1
	c0.1-3-0.1-6-0.6-8.9c-0.8-10.2-4.3-20.1-10.1-28.5c-0.8-1.1-1.2-1.4-2.2-2.6l-4.7-4.8c-1.2-2.1-2.3-11.1-13.5-20.4l-11.5-8.1
	c-7.4-2.9-15-5-22.8-6.3v-0.6c8.6,0,10.7-1.5,18.5,1.1c15.1,5.1,20.8,10.7,32.9,19.5c8.7,6.3,8.7,10.6,11.4,20.1l2.3,7.8
	c0.7,3.3,1.1,5.8,1.6,9.1c0.4,2.7,1,5.7,1.5,8.6c1.8,9.9,2,17.5,4.4,27.7l-9.5,6.5l-0.6-4.8c0,2.3-5.9,17.2-8.1,20.5
	c-1.1,1.6-1.7,2.8-2.8,4.3l-3.2,4c-5.5,6.2-7,3.8-7.3,7.6c10.6-2.5,19.4-17.2,20.2-26.8c3.9-0.1,4.2-2,9.7-5.7l24.9-14.3
	c2.2-1,3.8-1.5,5.8-2.6c1,0.6,2,0.9,3.2,1.6c2.2,1.2,1,1.4,3.4,2c-0.8,1.2-2.9,2.9-2.9,4.3c-0.1,5.1,5.5-2.1,7.2-3.5l8.7-6.1
	c1.3-0.8,2.9-1.9,4.5-2.7c2.6-1.3,13.5-5.3,14.8-7.2c2.6-3.7,0.5-2.1,4.2-6.5c1.5-1.7,0.9-4,5.2-9.7c0.5-0.7,1-1.4,1.5-2
	c1.1-1.5,2.6-2.7,4.4-3.3l10-4.8c0-3.5,0.6-6.9,1.7-10.2l3.6-8.8c2.2-4.3,4.4-4.4,10.5-6.8c2.1-0.8,3-0.8,3.2-3.3h-3
	c0.9-3.5,0.6,0.5,5-6.9c4.8-7.9,7.4-4,2.7-16.8l-6.7-18.3c-1.5-2.6-3.7-4.7-6.3-6.2c0.2-1.6,0.6-3.2,1.2-4.8
	c1.4,0.5,2.8,1.1,4.2,1.8c5.2,3.2,9,12.2,10.6,14.4c0.5,0.7,0.8,0.9,1.3,1.7c2.6,3.6,5.8,4.7,11.3,4.7
	C742.3,236.9,743.4,235.6,744.7,234.7L744.7,234.7z M709.6,219.2c0,5.3,7.7,5.8,9.5,14.9c1.1,4.6,2.6,9,4.6,13.3
	c3.8,9.7,1.7,2.9-4.9,14.8c-1.1,1.9-2.5,3.2-3.7,5.3c-1.9,3.3-1.3,2.2-4.9,4c-4.2,2.1-5.3,6.1-7.3,9.9c-1.2,1.9-2.2,3.9-2.9,6
	c-0.9,2.5-1.2,5.2-1.1,7.8c-8.2,4.3-10.2,3.7-16.4,12.1c-0.9,1.1-1.6,2.4-2.2,3.7l-6.4,10.9c-0.4,0.3-3.7,1.5-4.2,1.7
	c-2.8,1.1-5.5,2.3-8.1,3.7l-14.4,9.4c-9.8-6.5-9.5-5.1-22.4,1.4c-4.5,2.3-8.4,4.7-12.7,6.9c-0.2-8.8-7.5-49.7-10-57.8
	c-1-4.4-3.1-8.4-5.9-11.9c-5.2-5-10.7-9.6-16.5-13.8c-8.9-6-20.7-12.8-34.1-12.8l-12.5,0.6c-4.6,0-8,1.2-13.1,1.2
	c-13.1-0.1-37.1,3.4-51.6,5.5l-24.5,4c-4,0.2-7.9,1.2-11.5,2.7l-8,5.1c-8.3,7.1-15,8.1-23.3,20.6c-2.1,2.7-4,5.6-5.6,8.6
	c-0.8,1.6-1.6,3.2-2.2,4.9c-2.5,6.1-3.8,12.7-3.9,19.3c0.3,2.5,0.8,4.9,1.6,7.3c1,5.7,0.7,11.1,1.6,16.8c0.5,3.1,0.6,5.4,1,8.5
	c2.5,21.2,6.4,42.9,9.9,63.8l6.1,31.4c-3.3,0.3-8.3,0.2-11,1.5c-0.1,0.1-0.3,0.1-0.4,0.2c-13.2,5.9-20.2,11.2-23.3,14.7
	c-4.3,4.9-11.4,8.7-17.8,21.4c-0.8,1.5-1.5,3-2,4.6c-2.2,6.6-0.6,6.3-0.2,12.3c0.1,2.7,0.3,5.5,0.7,8.2l9.9,35.3
	c0.1,0.1,0.1,0.3,0.2,0.4l2.3,3.7c-4.4,0.4-18.8,5.4-24.8,6.7c-12.3,2.1-24.1,6.7-34.5,13.7c-8,5.9-13.6,14.5-15.5,24.3
	c-1.7,8.4-1.7,17.1,0,25.5l7.9,19.5c3.8,7,8.7,13.3,14.5,18.8c11.9,11,27.3,17.5,43.5,18.3c21.9,0.3,12.5-3.1,17.9,9.4
	c1.7,4.3,6,7,10.6,6.6c5.2,0,10.3-1.2,14.9-3.6c2.1-1,4.1-2.1,6-3.5l5.2-4.3c0.6,1.1,1,1.9,1.5,3.2c1.6,3.4,3.7,6.5,6.2,9.3
	c2.4,3.1,12.7,4.1,16.7,4.1c12.7,0,21.4-4,30.8-10.2l14-13.9c3.3-4.9,4.2-15.2,5.9-21.4c0.8-2.9,1-2.6,3.8-3.3
	c1.9-0.4,3.7-1,5.5-1.7c3.6,5.4,22.4,13.1,32.1,13.1c4.1,6.1,13.5,6.6,20.3,7.6c11.3,1.7,27,3.3,38.3,1.1
	c12.2-2.9,24.1-7.2,35.3-12.9c1.3-0.7,2.5-1.3,4-2c7-3.2,12.2-9.5,13.9-17.1c2.8,0,5.5-0.2,8.2-0.7l17-5c10-4.7,17.2-10,18.2-22.2
	c3.9,1.1,7.9,1.7,11.9,1.8c7.5-0.2,14.8-3.1,20.3-8.2l4-3.8c3.3-2.8,0.2-9.9-0.7-13c-1-3.4,1.5-2.1,4.9-3c4.5-1.4,8.8-3.3,12.9-5.6
	c6.8-3.9,13.1-8.5,18.9-13.8l0.6-0.5c0.1-0.1,0.2-0.2,0.3-0.3c0.5-0.5,0.7-0.6,1.2-1.1c7.1-7.1,5.1-4.8,12.3-15l3.6-5.9
	c11-21.6,11.7-36.8,2.7-59.2l-2.4-4.7c-0.8-1.4-1.7-2.6-2.7-3.9c-3.1-3.9-6.8-7.2-10.9-9.9c-1.2-1-2.5-1.9-3.9-2.6l-4.8-2.4
	c-0.7-0.4-1.3-0.7-2-0.9c-16.6-5.6-29.3-5.5-46.8-2.8l-13.7,2.4c-2.2,0.5-3.1,0.8-4.7,1.2c-7.9,2.1-14.4,5.1-24.5,7.6
	c-3,0.6-5.9,1.5-8.7,2.6c-0.6-2.5-0.7-4.9-1.4-7.5c-1-3.5-6.3-19.4-6.3-21.6c0.5-1.8,1.2-3.5,2-5.2c2.2-5.9,3.9-11.9,5.2-18
	c7.6,0,14.6-4.1,20.4-7c5.6-2.8,6.4-3.7,6.4-11.5c0-2-0.4-4.1-1.2-5.9c3.5-1.9,6-4,10.1-4.7c3.5-0.6,10.3-1.6,12.8-3.3
	c1-0.6,0.5-0.5,1.3-1.1c6.8-5.5,12.1-12.7,15.5-20.7c3.3-7.3,8.5-13.3,12.8-19.8c9.3-14,10.4-7.9,13.7-14.2l5.4-10.6
	c3.1-7.3,4.7-15.2,4.8-23.1c0.8-1.3,1.7-2.6,2.8-3.7c1.1-1.2,1.9-2.5,2.5-4c1.6-2.8,3.5-5.8,5.3-8.3c4.9-7,4.9-3.5,11.9-15.4
	c4.3-6.9,9-13.5,14.1-19.8c3.1-4,7.9-9.6,7.9-14.7c-0.8-0.3-1.7-0.7-2.5-1.1c-2.5-1.6-2.2-1.3-5.3-1.3l-3.6,4.1
	c-0.8,0.6-1.1,1-1.9,1.7c-1.1,0.9-1.2,0.7-2.4,1.8c-1.5,1.3-2.4,2.6-3.8,3.9l-4.3,3.4c-1.6-3.4-1.7-6.7-6.5-7.1
	c-0.7-3.7-3.9-6.5-7.7-6.5c-0.5-6.1-7.8-7.6-11.9-4.8c-2.9,2.3-5.4,5-7.5,8c-1.3,1.7-0.9,1.6-2.6,2.7c-2.7-1.3-5-3.3-6.9-5.6
	l-9.6-13c-2.2-2.1-4.9-3.5-7.9-4C712.3,213.4,709.6,215.2,709.6,219.2L709.6,219.2z M530.1,392.2c-11.2,0-10.3-0.2-20.7-2.5
	c-1.5-0.3-3.5-1.1-5-1.5c-13.7-3.7-26.5-10.1-37.7-18.8c-12.9-9.8-9.4-10.7-8.6-16.4c0.4-2.3,0.9-4.6,1.6-6.8
	c1.3-4.9,3.1-9.6,5.5-14.1c0.7-1.4,0.7-1.3,1.5-2.7c5.9-10.2,14-19,23.6-25.8c3.7-2.4,7.5-4.5,11.4-6.4l12.9-6.1
	c1.1-0.5,1.8-0.5,3.2-1c6.6-2.3,21.7-5.3,26.4-4.7c8.9,1.3,32,11.4,36.7,20.3c2.4,4.6,3.5,5.2,7.2,13c7.8,16.3,2.9,36.8-7.2,50.5
	c-4.5,6.1-17.3,16.7-24.8,19.2c-4,1.3-8.1,2.1-12.3,2.6C539.2,391.7,534.7,392.1,530.1,392.2L530.1,392.2z M454,355.9
	c0,8.2,6.5,12.5,10.3,15.9c2.9,2.9,6.3,5.4,9.8,7.4c5.7,4,12,7.1,18.6,9.3c5.3,2,10.7,3.8,16.2,5.2c13.9,3.3,37.7,3.3,49.7-2.7
	c11-5.5,17.7-9.9,25.7-19.5l2.9-4.2c8.5-13.7,11.9-32.4,5.4-48.5c-0.7-1.7-1.2-3.2-2-4.6c-0.8-1.6-1.6-2.5-2.4-4.2l-8.4-11.3
	c-0.1-0.1-0.2-0.2-0.3-0.3l-2.8-2.6c-5.9-5.1-24.6-13.8-31.9-13.8c-24.6,0-42.8,8-62.8,22.8l-5.9,4.8C464.7,321.1,454,340,454,355.9
	L454,355.9z M320.3,633l0.3,0.3l-0.1-0.1C320.5,633.2,320.2,633,320.3,633L320.3,633z M312,624.7l-0.7-1.2L312,624.7z M312,624.7
	l2,3.4c0.8,1.8,0.9,2.4,1.8,4.2c1.4,2.8,2.1,5.2,3.4,7.9c1.2,2.6,2.1,5.3,3.4,7.9c0.6,1.4,1.3,2.6,2.1,3.8c1.5,1.8,1.9,1.2,4.1,0.7
	c0-4.3-0.7-8.6-2.2-12.7l-5-17.6c-0.5-2.1-0.9-4-1.6-6.2c-1.2-4.1-2.2-8.3-2.9-12.5c-0.7-1.9-0.8-4-0.5-5.9c0.7-3.6-1.5-4.4-3.3-2.7
	c-2.4,2.4,4.1,26.6,5.4,31.3c0.8,2,1.3,4,1.7,6.1c-2-2.4-7.8-19.4-11.3-22c-0.5,0.3-1.1,0.5-1.8,0.6c0,8.1,1.8,13,3.4,19.7
	c0.7,2.9,0.4,3.9,3.1,4.6C313.8,630.1,312.3,628.7,312,624.7L312,624.7z M913.5,260.2c-1.3-0.3-11.3-6.3-11.3-1.8
	c0,2.8,1.4,3.3,3.1,4.6c1.5,1.2,3.3,2.1,5.2,2.5c-0.9,2.7-2.1,5.3-3.6,7.7c-7.9,13.5-0.6,10.4,1.2,7.7c2.6-3.9,4.8-8.1,6.5-12.5
	c4.4,0.4,1,1.8,8.3,1.8c-0.5-5.5-4.8-7-4.8-7.7c0.4-2,1.1-3.9,2-5.7c1.5-4.2,0.4-2.1,0.4-6.2h-1.2c-0.9,2.4,0.4-0.1-1.6,2
	C916,255,914.5,257.5,913.5,260.2L913.5,260.2z M1051.9,637.2c-4.9-2.6-6.3-3.2-10.1-1.2c0,5.3,1.5,4.1,5.4,5.9
	c-0.9,3.5-6.5,5.5-6.5,8.9c0,5.7,8.5,0.4,11.9-5.9c1.2,0.7,2.5,1.2,3.8,1.6c5.4,1.3,2.7,2.3,4.1,0.9c1.1-1.1,0.2-0.6-0.7-2.6
	c-2.1-4.5-1.3-2-3.1-4.7c2.4-3.6,4.8-5.1,5.9-10.1C1058,630.5,1054.7,635.4,1051.9,637.2L1051.9,637.2z M70.1,288.6
	c0,3.6,0.6,4.3,0.6,7.7c-4.6,1.2-4.9,10.5,0.3,7.4c1.2-0.7,0.5-0.2,0.9-1.4H73c0.3,2.4,1,4.8,1.8,7.1c1.3,4,1.3,3.4,5.3,3
	c1.7-7.2-0.6-6.6-2.4-14.3c4.7-3.2,8.3-3.8,8.3-7.1c0-4.6-9.6,0.6-10.7,1.2c-1.8-3.4-2.5-5.1-5.4-5.4L70.1,288.6z M454,325.6
	c1.3-0.5,1.7-1.3,3.1-2.8l14.4-15.9l0.3-0.3l5.8-4.9c1.2-1,2-1.6,3.3-2.7c6.5-5.4,19.3-12.6,27.2-14.4v-1.8
	c-9.1,0.8-18.2,5.6-25.6,10.7l-10.2,8.2c-3.4,2.7-6.6,5.7-9.5,9c-0.7,0.9-0.4,0.7-1.2,1.7l-4.4,5.1
	C455.8,319.4,453.2,323.5,454,325.6L454,325.6z M138.2,588.8l-8.1-4.4c-1.5-0.8-3.3-0.9-4.8-0.3c-3.8,1.4-1.9,3.5-1.9,3.5
	c1.5,3-0.2-0.3,5.4,3c1.9,1.1,4,2,5.9,3c-3.5,5.2-4.8,2.7-4.8,7.1c6.1,4.1,10.3-4.3,10.7-5.9c2.1,0.2,4.8,1.8,4.8-1.2
	c0-1.8-0.7-1.6-2.4-1.8c1-4.4,4.8-7.3,3.6-12.5c-1.8,0.2-1.6-0.5-4.8,4.1L138.2,588.8z M222.8,286.8c-4.2-1-14.8-6.5-12.5,3.6
	c3.7,0.9,3.8-0.1,8.9,2.4c-2.8,5.4-5.4,6.3-5.4,11.9l1.8,1.2c0.6-0.1,1.3-0.3,1.9-0.5c1.6-1,2.8-2.5,3.6-4.1
	c1.4-2.2,2.3-4.5,3.4-6.7c1.8,0.2,2,0.7,3.9,0.4c1.5-0.3,2.9-0.4,4.4-0.4c-0.6-2.4-4.4-4.2-6.5-5.4l1.8-8.9L222.8,286.8z
	 M541.4,290.6c0.4,4.8,3.6,0.9,13.7,5.9c11.5,5.7,12.2,8.6,18.6,15.3c1.3,1.4,1.3,1.6,2.4,3c1.8,2.1,6.8,10.8,8.8,11.5
	c-1.5-7.1-4.7-13.6-9.4-19.2c-4.2-5.4-9.5-9.8-15.5-13C556.7,291.9,546.4,288.6,541.4,290.6L541.4,290.6z M717.3,405.3
	c-2.4-1.5-5-2.5-7.7-3c-0.1,0.1-0.3,0.1-0.3,0.3c-0.4,1.7-5.4,2.2,4.5,7.4c-0.2,0.7-7,11.3-3,11.3c3.7,0,4.1-2.9,6.3-6.2
	c0.7-0.8,1.2-1.7,1.4-2.7c6.8,1.6,2.1,2.5,10.7,1.8c-0.3-3.4-3.8-4.8-7.1-6.5c2.1-4.1,4.1-6.1,4.2-10.7c-2.7,0.2-3.3,1.9-4.9,3.4
	C719.8,401.8,718.5,403.5,717.3,405.3L717.3,405.3z M858.8,420.8c-5.5,0-6.6-0.5-10.1,1.8c0,4,0.1,2.3,1.8,4.8h4.8
	c-1.1,4.8-3,2.6-0.6,7.1c5,0,4.1-0.2,7.1-5.9c1.4,0.3,8.9,3,8.9,0.6c0-2.8-4.5-5.5-6.5-6.5c0.1-3.2,2.7-10.7,0-10.7
	C861.8,411.8,859.3,418.4,858.8,420.8L858.8,420.8z M317.3,218c-2.3,0-10.1-1.8-10.1,1.2c0,2.8,0.9,3.2,3.2,4
	c2.1,0.7,4.2,1.1,6.3,1.4c0,5.6-0.5,4.9,1.8,8.3c5.8-3.9,0.9-7.9,5.9-8.3c3.3-0.3,2,0.3,4.2-1.2c-0.8-3.4-2.6-3.4-5.3-4.8
	c0.6-1.2,2.1-6.3,0.6-7.7c-1.8-0.8-1.7-0.6-4.2-0.6L317.3,218z M663.8,231.7c-2.1-0.9-4.3-1.3-6.5-1.2c-1.6,2.4-1.8,0.7-1.8,4.8
	c2.4,1.3,6.5,2.6,6.5,3.6c0,2.6-3.2,8.9,1.2,8.9c2.6,0,2.8-0.8,3.8-2.7c0.9-1.5,1.4-3.2,1.6-5c2.2-0.5,1.7-1,4.2-1.2
	c-0.8-3-1.4-3.2-3-3.6c0.1-1.8,2.2-10.7-1.8-10.7C665.8,224.6,664.3,229.7,663.8,231.7L663.8,231.7z M196.1,432.7
	c-0.2-0.1-8.3-6.4-8.3-0.6c0,2-0.3,1.7,0.9,2.7l3.8,3.3c-2.5,3.7-6.1,7-6.3,8.5c-0.3,4.1,8.5,2.2,10.4-4.9c3,0.3,2.9,1.2,6.5,1.2
	c0.1-0.5,0-1.1-0.1-1.6l-1-1.4c-4.6-6.7,1.2-3.7-0.7-11.8C198.5,428.2,198.1,429.6,196.1,432.7L196.1,432.7z M438.6,296.5
	c-1.9,1.4-9.7,16-11,18.7c-0.1,0.2-0.3,0.6-0.4,0.8l-13.8,26.6c-1.4,2.8-2.8,5.3-3.9,8c-1.5,2.8-2.5,5.7-3,8.8
	c2.6-0.2,2.2-0.8,3.2-2.8c0.7-1.6,1.2-2.4,2-4C415.8,344.4,438.1,302.6,438.6,296.5L438.6,296.5z M893.5,592.1c-0.8,1.9-0.8,4.1,0,6
	c2.3,5.3-0.4,4,3.5,6c1,0.5,9.6,9.7,9.6,5.3c0-2.6,0.1,0.2-0.6-1.8c-0.4-1.1-0.3-0.9-0.7-2.3c-0.4-1.3-1-2.5-1.7-3.7
	c1.3-1.9,11.1-9.5,5.3-9.5c-2.5,0-6.9,3.1-8.9,4.2C898.7,593.5,898.4,590.2,893.5,592.1L893.5,592.1z M664.4,551h0.6l-0.5,0.7
	L664.4,551z M673.4,549.2c0.2-2.8-0.6-1,1.2-2.4C675.8,549.4,675.3,548.3,673.4,549.2L673.4,549.2z M669.8,548.6v-1.8
	C672.4,548.7,670.1,547.8,669.8,548.6L669.8,548.6z M671.6,551.6c1.4,0,0.7-0.2,2.4-0.6c-1.9,2.6-8.3,3.2-8.3-3.6
	c-0.1-1.1,0.3-2.3,1-3.1c0.4-0.4,0.8-0.8,1.2-1.2c0.1-0.1,0.3-0.2,0.3-0.3l1-0.8c2.4,0.6,3.5,0.1,4.8,1.8h-4.2c-1,1.4-2.4,2.4-2,4.5
	C668.1,550.1,669.7,551.5,671.6,551.6L671.6,551.6z M664.4,551c-2.3-1.7-1.8-2.8-1.8-6.5c1.7-1.2,0.8-1.2,3-1.8
	C663.4,546,663.3,546.2,664.4,551L664.4,551z M659.7,548c0,5.7,13.3,10.1,16.4,2.7l0.4-0.8c3.4-8.5-2.7-8.4-7.9-9.6
	c0.1-0.1,0.3-0.4,0.3-0.3l1.5-0.9c0.8-0.3,1.5-0.5,2.3-0.6l-1.8-1.8c-1.2,0.6-2.8,0.8-3.9,1.4C665.1,539.2,659.7,543.7,659.7,548
	L659.7,548z M520,333.4c-0.3,8.4-1.8,16.7-4.5,24.6c-1.1,2.4-2,4.9-2.6,7.5c2.5-0.2,3.3-1.5,4.4-3.4c2.9-6.1,4.8-12.6,5.7-19.3
	c0.5-4.5,0.5-9.1,0-13.6c0-3.6-0.6-10.9-3.5-13.1C519.4,322.7,520,327.1,520,333.4L520,333.4z M1077.8,326.2
	c-3.6-2.4-1.8-3.6-6.5-3.6c-1.1,1.8-1.7,3.9-1.8,5.9c1.2,0.9,2.7,1.3,4.2,1.2c-1.8,2.4-0.1,0.5-2.8,1.3c-5,1.5-1,4.8-0.7,5.2
	c6.9,0,5.9-1.8,7.7-2.4c2.7,0.1,2.4,0.6,5.4,0.6c-0.1-1.5-0.7-3-1.8-4.2c4.6-6.9,3.9-6,2.4-8.3
	C1081.7,323.2,1079.7,324.6,1077.8,326.2L1077.8,326.2z M831.4,299.5c5.3,0,9.5-2.9,9.5-8.9c-4.2-2.8-2.5-0.6-4.2-4.2
	c-2.8-0.2-6.5-1.3-9.3,4.3c-1.2,1.7-1.5,3.8-0.7,5.7C827.5,298.3,829.4,299.6,831.4,299.5L831.4,299.5z M272.8,676.4
	c-2.9-0.8-2.7-3-5.3-3c-2.8,0-4.1,3.8,1.8,7.7c-3.5,6.6-6,4.5-3,8.9c3.4,0,4.2-1.8,6.5-5.4c3.2,0.7,2.6,1.9,5.9,1.2
	c-0.1-3.1-0.7-3.4-3-5.9c3.1-4.6,2.5-5.3,1.2-7.7C274.8,672.5,273,674.2,272.8,676.4z M346.5,662.7c-0.5-3.4-1.6-6.7-3.3-9.7
	c-1.4-3.4-2.7-6.5-3.9-9.8c-2.1-5.9-5.8-14.8-7-20.3h-1.8c0,4.4,4.4,18.3,5.7,22.2l3.8,9.9c0.7,1.6,1.6,3.2,2.4,4.8
	C343.5,662.1,343.2,662.6,346.5,662.7L346.5,662.7z M389.9,417.2c-2.1,1.4-2.2,3-4.8,3c-4.9,0-5.4-4.9-8.3,0.6
	c1.7,3.2,2.8,3.3,6.5,4.2c-0.1,0.1-0.3,0.1-0.3,0.3l-0.6,0.6c-1.6,2.3-0.8,2.4-0.3,4.5c2,0,3.3,0.2,4.6-0.8c0.3-0.2,2.3-3,2.6-3.4
	c3.4,1.6,2.8-0.6,5.4,0.6c-0.7-1.8-1.7-3.4-3-4.8c0.7-3.1,1.8-7.4-2.4-7.7C389.3,415.2,389.5,416.2,389.9,417.2L389.9,417.2z
	 M734,519.4c0.1-1.9-0.2-3.8-1-5.6c-0.5-2.1,0-4.4-0.4-6.7c-0.7-4.2-1.3-8.6-2-12.3c-0.5-2.3-0.5-3.2-0.9-5.7l-5.2-17.4
	c0.5,12.7,2.2,25.3,5.2,37.6c0.6,2.2,1.2,3.4,1.7,5.5C732.1,517.8,731.3,518.7,734,519.4L734,519.4z M446.9,475.4
	c4.5,1,1.7-1.9,12-14.1c3.3-3.9,1.3-2,6.2-3.9c1.3-0.5,1.2-0.6,2.5-1c3.5-1.2,7.6-1.3,9.6-4.1c-3.6-2-10.6,0.8-13.9,2.1
	c-5.8,2.3-9,6.8-12.8,12.1C448.6,469.2,447.4,472.2,446.9,475.4L446.9,475.4z M741.7,466.5c1.7,2.3,6,1.8,12,5.8l11.1,10.9
	c0.6,0.7,0.8,0.9,1.4,1.5c1.6,1.6,1.5,1.9,4,2.5c-1.7-3.5-0.2-2.7-4.1-7.8c-2.5-3.4-5.5-6.4-8.8-9c-1.5-0.9-2.3-1.5-3.8-2.2
	C751.2,467.1,743.2,464.7,741.7,466.5L741.7,466.5z M555.1,419c0,3.5,4.9,4.2,3.2,13.3c-0.3,1.9-0.3,3.8-0.2,5.7
	c0,1.7,0.3,1.1,1.2,1.8c2.5-1.9,0.2-3.3,3-5.4c0.3,3.4,1.7,3.4,2.4,5.9h1.2c0-2.1,0.4-2.1,0.3-3.4c-0.4-3.4-1.3-6.7-2.6-9.8
	c-1.3-3.9-3.6-7.3-6.6-10C556.3,417.5,555.1,418.2,555.1,419z M587.2,627c1,3.7,7.6,6,11,7.4c14.8,5.9,13.7,3.5,22.2,3.3
	c-1.2-1.6-1.5-1.2-3.7-1.7c-1.9-0.4-2.6-0.5-4.5-0.9l-16.2-5.2C593.6,628.9,588.2,625.2,587.2,627z M414.2,400.5
	c2.1,0,2.3-3.3,4.2-8.2l8.3-17.8c0.5-1.5,1-3.3,1.7-4.8c0.8-1.5,1.4-3.1,1.8-4.8c-2.2,0.6-2.8,3.3-5.4,7.7l-1.7,3.1
	c-0.5,1,0,0-0.7,1.1l-6.6,14.2C415.5,392,411.5,400.5,414.2,400.5z M454,244.2c-3.7-1.8-3.7-1.1-5.9,0c-0.1,4.8,0.3,1.5,1.2,4.7
	c-2.1,0.6-1.8,0.6-2.4,3c5.1,3.4,5.1-1,7.7-1.8c1.8,0,5.9,0.6,5.9-1.2s-1-2-2.4-2.4c0.5-0.7,3.5-5.4,0.6-5.4
	C457.4,241.2,455.1,243.5,454,244.2z M422.5,524.8c4.7-0.1,4.8-4.5,4.8-12.5v-10.7c-0.2-3.2-0.6-6.4-1.2-9.5h-1.2
	c0,3-0.6,4.1-0.6,7.7c0,8.1-0.6,9.6-0.6,17.3C423.8,521.4,422.6,521.3,422.5,524.8L422.5,524.8z M731,564l-5.7-46
	c-0.9-3.3-0.7-4.2-2-5.7c-0.1,9.2,0.6,18.5,2.1,27.6l5.3,23.8C730.8,563.8,730.9,563.9,731,564L731,564z M342.3,575.9v1.2
	c4.5,2.5,19.7-4.5,24.6-6.9c2.5-0.8,4.6-2.6,5.7-5c-3.9,0.1-4.4,1.8-7.2,2.9c-4.9,2.3-10,4-15.3,4.9
	C348.8,573.4,342.3,574.5,342.3,575.9L342.3,575.9z M770.8,628.5v4.2c9.7,6.5,13.8-8.5,5.9-9.5C773.7,623.9,770.8,624.7,770.8,628.5
	L770.8,628.5z M397.6,317.9c0,5.7-0.9,11.9,3,11.9c1.6-3.4,0.2-10.3,0.9-14.5c0.9-4.9,1.6-8.5,2.6-12.8c-1.3,0.5-0.5,0-1.4,0.9
	l-3.2,5.1C398.2,311.4,397.6,314.7,397.6,317.9z M233.3,555.4c0,6.2,11.3,8.4,11.3-0.6c0-3.6-6.7-5.2-9.4-2.9
	C234.4,553,233.8,554.2,233.3,555.4L233.3,555.4z M509.9,451.1c4.4-2.4-3.7-14.6-5-16.4l-3-3.5c-2.4-2.8-4.9-6.1-8.6-6.2
	c0.1,4.2,0.4,0.6,7,9c3.6,3.8,6.3,8.4,8.1,13.3C509,448.5,509.5,449.7,509.9,451.1L509.9,451.1z M675.1,370.2
	c-0.3-2.9-3.4-8.4-4.8-11.3c-0.9-2-1.6-4.1-2-6.3l-1.5-6.8c-3.1,0.8-3,3.2-2.4,6c0.5,2.5,1.1,5,2.1,7.5c0.8,2.2,1.9,4.3,3.2,6.3
	C671.8,368.4,673,370,675.1,370.2L675.1,370.2z M540.2,330.4c0,2.6-0.6,13,0,14.3c1.8-0.5,1.5-0.1,2.2-2c0.3-1.1,0.6-2.3,0.8-3.4
	c1.1-10.7,1-11.8-1.9-21.2c-0.2-1.5-1.1-2.8-2.3-3.7c0,2.9,0.4,4.6,0.6,7.7c0.2,2.4,0.4,1.2,0.6,3.6
	C540.3,327,540.2,328.9,540.2,330.4L540.2,330.4z M329.8,616.3l-6-31.4c-0.9-2.3-1.1-1.4-1.1-4.8h-0.6c-0.2,9.8,1.1,19.6,3.7,29
	C327.4,615.8,327,616.1,329.8,616.3L329.8,616.3z M46.1,234.4c0,3.7,4.7,3.6,4.8,3.6c2-1,5.9-3.8,5.9-6.5
	C56.8,223.9,46.1,227.7,46.1,234.4z M833.8,500.4c-1.9,0-1.3-1.2-3.4,0.2c-1.1,0.8-1.9,2-2,3.4c0,8.5,11.9,3,11.9-1.8
	c0-1.4-1-1.7-1.8-3C832.4,499.2,835.8,500.4,833.8,500.4z M646.6,376.8c0.1-2.6-0.4-5.2-1.3-7.6c-2-8.1-2.2-12.7-3.8-20
	c-0.6-2.6,0.3-2.1-2.1-2.7c-0.3,7,0.6,13.9,2.6,20.6C643,370.2,643.1,375.8,646.6,376.8L646.6,376.8z M1086.7,572.5
	c-0.3,1.6,0.6,3.2,2.2,3.8c4.5,2.2,5.2,1.6,7.9,1l0.6-4.2c0-2.5-3.9-4.8-8.3-4.8C1088.3,569.6,1086.7,570.8,1086.7,572.5
	L1086.7,572.5z M946.2,344.6c0,4.7,10.1,5.9,10.1-2.4c0-4.2-5.6-5.4-8.1-2.2C948.1,340.1,946.2,344.6,946.2,344.6L946.2,344.6z
	 M1075.7,430.9c0,7.6,10.7,3,10.7-1.2c0-1.4-1-1.7-1.8-3h-3.6c-0.4-1.7,0.1-0.9-1.2-1.8C1079.3,425.2,1075.7,425.3,1075.7,430.9z
	 M575.3,369c0,3.4,4,2,7.3-6.4c2.1-4.6,3.2-9.5,3.4-14.5c-2,0.5-1.9,0.6-3,4.8L575.3,369z M461.8,421.9c-6.9,0-5.9-0.5-7.1,1.2
	c2.1,2.8,1.5-0.1,11.1,2l3.6,1.1c2.5,0.6,9.1-3.2,14.5-2c-4.5-6.7-11.4,0.1-15.5-1.1C466.2,422.4,464,422,461.8,421.9L461.8,421.9z
	 M657.3,487.3c1,3.7,2.7,2.2,6,1.8c4.7-0.6,17.6-3,19-8.3c-0.9,0.2-1.8,0.5-2.6,0.9c-1.5,0.5-1.8,0.5-3.1,1
	C670.2,484.7,663.8,486.2,657.3,487.3L657.3,487.3z M287,492.1c-0.1,1.5,0.3,3,1.2,4.2h4.8l1.5-2.6c0.1-0.1,0.2-0.2,0.3-0.3
	c1.6-1.7,2.3-0.6,2.3-4.2C297.1,483.8,287,488.6,287,492.1L287,492.1z M312.6,333.4c1.2,2.2,1.7,5.2,4.8,5.2c4.9,0,8.3-9.3,0.6-9.3
	C314.7,329.2,313.7,331.3,312.6,333.4L312.6,333.4z M581.8,275.7c0,2.3,6.6,4.1,10,13.2c0.5,1.8,1.6,3.4,3.1,4.7
	c2.2-3.9-1.8-9.8-3.7-12.3c-1.4-1.8-5.4-6.7-8.2-6.7C582.4,274.6,581.9,275.1,581.8,275.7L581.8,275.7z M698.9,584.8h1.8
	c-0.1-6.2-9.4-29.1-9.5-32.1H690c0.5,6,4.6,18,6.5,23.8L698.9,584.8z M80.2,404.5c2,8.5,9.5,5.7,9.5,0.6c0-4.7-3.8-4.2-7.1-4.2
	C81.6,402.1,80.9,403.3,80.2,404.5L80.2,404.5z M1019.3,243.4c0,5.9,8.3,8,8.3-3.6c-2-1.8-4.8-3.1-6.9-0.4
	C1019.8,240.6,1019.4,241.9,1019.3,243.4L1019.3,243.4z M557.5,660.3c-0.2-2.8-0.5-1.8-2.4-3.5l-9.9-9.1c-1.1-1.1-3.2-4-4.9-4
	c-3.7,0,0.1,3.4,1,4.3C553.4,660,548.3,654.2,557.5,660.3L557.5,660.3z M385.1,687.7c3.3,1.8,14.1-0.5,18.6-4.6c1.7-1.5,0.9,0,1.6-2
	c-3.5,0.3-10.3,2.8-15.8,3.8c-0.4,0.1-2.8,0.4-3,0.5C384.8,686.1,385.3,685.8,385.1,687.7L385.1,687.7z M72.2,662.8
	c0.1,0.1,0.2,0.1,0.3,0.3c0.9,3.9,7.9-1.2,9.2-2.1v-4.2C76.7,654.2,72.6,657.1,72.2,662.8L72.2,662.8z M376.8,627.1
	c0,7.7,11.1,10.8,14.3,6.5c-2.5-0.6-5.1-0.8-7.7-0.6c-4.3-6.4-4.5-1.6-1.8-13.1c-1.6,0.1-1.4-0.8-3.3,2.6
	C377.4,623.9,376.9,625.4,376.8,627.1L376.8,627.1z M892.6,675.8v4.2c4.7,2.5,8.9,0.9,8.9-3.6c0-1.4-1-1.7-1.8-3
	C893.9,673.4,895.9,673.5,892.6,675.8L892.6,675.8z M459.4,488.6v5.4c0,2.3-0.2,0.2,0.6,1.8c5.1-3.4-2.8-7.2,7.7-14.9
	c1.7-0.9,2.9-2.4,3.6-4.2c-2.9,0.6-5.7,2-7.9,4C460.9,482.5,459.5,485.4,459.4,488.6L459.4,488.6z M545.6,227v3.6
	c1,0.7,1.9,1.2,3,1.8c3.7-2,5.4-1.4,5.4-6.5c-1.9-1.5-4.2-2.3-6.5-2.4C546.1,224.5,545.6,224.8,545.6,227L545.6,227z M36.6,528
	c0,1.5,0.4,0.6,0.6,3c5.1,1.2,7.7-1.2,7.7-4.2c0-3.3-1.5-3.1-3.6-4.2c-1.6,0.8-1.8,0.3-3.2,1.6C37.3,525.3,36.7,526.6,36.6,528z
	 M741.1,287c-1.2-4.5-13.9-9.5-19.6-9.5c0.3,3.8,2.6,2.4,9.1,5.2C733.8,284,737.4,286.9,741.1,287L741.1,287z M435.6,442.1v1.8h1.8
	c0.3-3.9,4.8-11.3,8.5-14.7c1.9-1.8,3.3-1.6,4-4.3C442.3,425.5,435.6,438.4,435.6,442.1L435.6,442.1z M461.2,353.6
	c0,3.1-0.2,0.8,0.6,2.4c2.6-1.8,2.2-5.2,3.7-11.2c1-3.9,2.6-7.6,3.4-11.4c-2.3,0.8-3.2,3.9-4.2,5.9c-0.4,0.8-0.9,1.6-1.2,2.4
	C462.2,345.5,461.4,349.5,461.2,353.6L461.2,353.6z M373.2,621.1c1.1-2.3-1.2-8.8-1.9-11.8l-2.2-8.5c-0.5-2.2,0.6-1.6-1.9-2.3
	C367.3,604.2,369.7,618.5,373.2,621.1L373.2,621.1z M628.8,541.4c-2.6-2.6-5.4-4.9-8.4-7c-3.8-3-5.4-6.4-7.6-7.9
	c-0.4,1.9-0.6,0.9,0,2.4C614.3,533.4,622.1,541.3,628.8,541.4L628.8,541.4z M436.2,573.5c0,5.2-0.6,5.8,2.4,6.5
	c1.2-2.5,0.1-6.2,1.1-9c1.3-3.9,3.5-3.4,4.3-6.4C440.9,562.1,436.2,568.6,436.2,573.5L436.2,573.5z M518.8,495.7l12.9,5
	c1.4,1,3.2,1.6,5,1.6c-4.3-5.4-10.9-8.5-17.8-8.3L518.8,495.7z M603.2,508.1c3.3-0.1,3.3-1.2,6.5-1.2c3.7,0,6.5,4.3,8.9,5.9
	c1.2-2.7-2.6-6.7-5.1-7.9C609.5,503,604.4,503.8,603.2,508.1L603.2,508.1z M543.1,581.2c1.4,2,0.9,1.1,2.9,2.6l2.2,2
	c0.1,0.2,0.8,1,0.8,1c3.4,4.8-2.1,6.3,1.2,6.3c4,0,3.7-11.3-5.9-13.5L543.1,581.2z M533.3,696.4c3.5,0,4.5-4.2,4.8-4.8
	c-0.5-1-1.1-2-1.8-3h-2.4C528.9,688.6,529.2,696.4,533.3,696.4L533.3,696.4z M478.4,599.7c0,2.4,6.7,4.1,7.1,8.9
	c-0.9,3.5-1.3,0.1-0.6,3.6c1.9-0.5,2.2-1.2,2.7-3.3C489.3,601.9,478.4,595.8,478.4,599.7L478.4,599.7z M596.7,379.7
	c0,6.6-0.5,6.3,2.4,6.5c0-10,3.3-20.9-0.5-17.2C597.2,370.4,596.7,377.8,596.7,379.7L596.7,379.7z M694.7,308.4
	c0,2.9,10.2,9.8,14.3,4.2c-2-1-4.7-1.1-7-1.9C700.5,310.1,694.7,304.9,694.7,308.4L694.7,308.4z M572.3,474.8
	c0,12.6,0.8,6.9,2.4,13.7h2.4c0.8-3.2-0.4-4-1.3-7.6c-1.2-4.8-0.7-6.3-2.8-7.9C572.5,473.8,572.3,473.7,572.3,474.8L572.3,474.8z
	 M527.1,531.9c-0.1-1.7-0.8-3.3-2-4.5l-6.1-7.6c-1.3-1.7-1.6-2.7-3.8-3.3c0.1,1.7,0.8,3.3,1.9,4.6
	C518.8,523.6,524.3,531.1,527.1,531.9L527.1,531.9z M457,595.5c-0.2-2.2-0.2-2-2-2.8c-9.2-3.7-3-5.4-8.1-6.7
	c-0.9,4.1,1.6,8.1,5.6,9.3C453.9,595.9,455.5,596,457,595.5L457,595.5z M459.4,393.4v-1.2c-5.4,0-6.2-0.2-9.8,2.1
	c-1.6,1.1-6.7,4.3-6,6.1c0.7,1.9,1.9-0.6,6.7-3.6C453.1,395.1,456.2,393.9,459.4,393.4L459.4,393.4z M521.8,577.1
	c-0.1-4.6-1.5-1.9-5.1-4.4c-1.8-1.5-3.1-3.5-3.8-5.7h-1.2C511.1,573.6,514.5,577.1,521.8,577.1L521.8,577.1z M712.6,603.8
	c0.9-1.3,0.1-0.8,1.8-1.2l4.3-4.6c-3.1,0.1-3.7,1.5-7.6,3.7c-2.7,1.5-5.5,2.6-8.5,3.4v1.2C708.1,607.5,708,604.9,712.6,603.8
	L712.6,603.8z M367.9,647.8c0.3,2.3,1.4,4.3,3.1,5.8c2.1,1.8,3.8,1.9,7.6,1.9c-1.4-1.9-3.7-2.5-5.5-4c-0.8-0.8-1.5-1.7-2-2.7
	c-1.3-2.3-0.2-2.1-2.6-2.7C368,646.8,367.9,646.7,367.9,647.8z M585.4,544.4c2.5-0.7,2.4-2.4,2.4-6.5c0-3.4-1.2-6.8-4.8-7.1
	C583.1,535,585.4,533.4,585.4,544.4L585.4,544.4z M427.3,631.8c0,3.4,0.5,5.7,3.6,6.5c1.7-2-0.6-1.7-0.6-6.5c0-3,1-3.2,1.2-5.9
	C428.3,626.1,427.3,628.4,427.3,631.8L427.3,631.8z M635.3,552.7c0,5.5-5.9,9.6-1.2,13.1c0.7-3.5-0.8-2.3,0.8-6.3
	c0,0,6.9-10.3-0.8-10.9C634.3,551.2,635.3,551.2,635.3,552.7L635.3,552.7z M445.7,343.5c-0.3,2.6-0.1,5.2,0.6,7.7h1.8
	c0-12.2,0.7-8.4,1.2-14.3C446.7,337.6,445.7,340.8,445.7,343.5L445.7,343.5z M585.4,590.2c0.3,4.6,4.2,8,8.8,7.7h0.1
	c-0.3-3.5-1.9-1.9-4.3-4.6c-1.7-1.9-1.9-3.5-4-4.9C585.6,589.1,585.4,589,585.4,590.2L585.4,590.2z M746.5,282.8
	c-0.1-3.4-1.2-4-1.9-7c-0.7-2.9-1.1-4.5-3.4-6.1c-0.2,2.7,0.1,5.4,1,7.9c0.4,1.1,0.9,2.2,1.5,3.3
	C744.5,282.3,744.7,282.4,746.5,282.8L746.5,282.8z M534.3,414.8c2.4,2,10.1-3.3,13.1-8.9c-2.4,1-4.6,2.4-6.5,4.2
	c-1.1,0.8-2.2,1.4-3.4,2C535.2,413.1,534.9,412.6,534.3,414.8L534.3,414.8z M463.5,622.3c0.1,4.6,3.8,8.2,8.3,8.3
	c-0.8-3.2-2.9-2.3-5.2-7.2c-1-2-0.2-1.7-2.5-2.3C464.1,621.1,463.5,622.2,463.5,622.3L463.5,622.3z M684,546.2c0,4-2.3,3.8-4.2,6.5
	c4.2,2,9-6.1,3.5-11.3c-2.2-2.1-1.8-1.7-3.5-1.8c0.6,2.3,0.8,1.5,2.2,3.1C683,543.7,683.7,544.9,684,546.2L684,546.2z M536.6,612.2
	c-0.3-4-0.3,0-3.5-4.9c-2.4-3.7-1.9-4-4.3-4.6c-0.7,2.2,0,4.5,1.7,6.1C531.8,610.9,534.1,612.2,536.6,612.2L536.6,612.2z
	 M491.5,508.7c3.3-0.3,1.8-1,4.6-3.7c2-2,3.6-1.8,4.3-4.6c-2.3-0.2-4.5,0.6-6.1,2.3c-0.7,0.7-1.3,1.5-1.8,2.4
	C491.7,506.1,491.3,507.4,491.5,508.7L491.5,508.7z M569.9,549.2c0,4.4,1.1,9.4,4.8,11.9c0.7-1.5-2.3-8.2-3.6-13.7
	C570.1,548.1,569.9,547.5,569.9,549.2L569.9,549.2z M522.4,570c2,2.9,1.4,0.3,5.4,6.4c0.9,1.4,0.5,1.4,2.3,1.9
	C530.1,569.9,523.7,568.4,522.4,570L522.4,570z M465.3,550.4c3.5,1.1,6.1,4.1,6.5,7.7h1.2c0.2-2.3-0.4-4.7-1.8-6.6
	c-1.4-1.7-3.3-3-5.4-3.5C465.5,548.7,465.2,549.5,465.3,550.4L465.3,550.4z M465.3,596.7c0-5.2-2.5-8.3-7.7-8.3c0.5,1.9,0,0.9,1.5,2
	C463.9,594.2,461.3,595.6,465.3,596.7L465.3,596.7z M527.1,446.3c0,2.5,2.2,2.3,3.9,1.6c2.1-0.4,3.5-2.4,3.2-4.6
	C531.9,443.3,527.1,444.6,527.1,446.3L527.1,446.3z M663.2,480.8c0.4,5.3,8.6,1.7,9.5-1.8L663.2,480.8z M454.6,639.5
	c1.6,0,1.8-0.9,2.4-1.8l-7.7-3.6C446.4,634.2,450.4,639.5,454.6,639.5L454.6,639.5z M513.5,616.3c0,1.7,6.7,8.3,8.3,2.4
	C515.5,617.3,513.5,613.4,513.5,616.3L513.5,616.3z M529.5,291.7c0,1.7,1.6,4.1,5.9,1.8C535.5,287.3,529.5,290.6,529.5,291.7z
	 M637.1,534.9c2.2,0.6,2.5,1.6,3.7,3.4c1.2,1.9,1.1,3,2.8,4.3c1.9-2.2-1.9-8.8-6.5-8.9V534.9L637.1,534.9z M438.6,552.7
	c3-0.8,1.5-1.2,3.1-2.8c2-2,2.6-0.1,3.4-3.1C443.3,545.2,438.7,547.6,438.6,552.7L438.6,552.7z M568.2,518.3v1.8
	c2.4-0.2,1.3-0.6,3.6-0.6c2.6,0,4,2.2,5,1.3C578.6,518.8,572.7,516.5,568.2,518.3L568.2,518.3z M391.6,612.8
	c-1.6-0.1-3.2,0.1-4.7,0.6c-0.8,0.4-3.2,1.8-2,3.1C385.5,617,390.8,615.8,391.6,612.8L391.6,612.8z M453.4,551.6
	c1.6,0,1.8-0.9,2.4-1.8c-2-1-1.6-0.2-3.4-0.7c-1.9-0.6-1.4-2-2.9-1.4C447,548.6,451,551.5,453.4,551.6L453.4,551.6z M536.1,503.4
	c0.3,0.5,0.5,1.1,0.6,1.8c2-2.1,2.3-1,3-3C538.4,502.4,537.2,502.8,536.1,503.4L536.1,503.4z M511.7,540.9h0.6v-1.8h-0.6
	L511.7,540.9L511.7,540.9z M451.1,512.3v-0.6l-0.7,0.5L451.1,512.3z M439.8,294.1h0.6l-0.5-0.7L439.8,294.1z M107.5,274.9l0.2-0.2
	C107.7,274.8,107.4,274.9,107.5,274.9z M438.6,296.5l0.6-1.2L438.6,296.5z M439.2,295.3l0.6-1.2L439.2,295.3z M735.5,554.5l25.2-44
	l18.8,10.8l-21.3,37.3c-1.9,1.8-3.8,3.7-5.9,5.5l-0.1-0.1L735.5,554.5z M753.6,550.4l0.4,0.1c0.2,0,0.3,0,0.5,0
	c0.2,0.1,0.4,0.1,0.7,0.1c0.2,0,0.5,0,0.7-0.1l0.7-0.1c0.2,0,0.4,0,0.6,0c0,0,0-0.1,0.1-0.1c0,0,0.1,0,0.2-0.1l0.2-0.1
	c0.1,0,0.1,0,0.2-0.1c0.1,0.1,0.1,0.2,0,0.3c0,0.1-0.1,0.2-0.1,0.3s0,0.1,0,0.2c0,0.1,0,0.1,0,0.2c0,0.1-0.1,0.2-0.1,0.3
	s-0.1,0.2-0.1,0.3c0,0,0,0,0,0.1c0,0,0,0.1,0,0c0,0.1,0,0.1,0,0.2v0.1c0,0.1-0.1,0.1-0.2,0.2c-0.1,0-0.2,0.1-0.3,0.1
	s-0.2,0.1-0.3,0.1s-0.2,0.1-0.3,0.2c-0.1,0.1-0.2,0.1-0.2,0.2c0,0.1-0.1,0.1-0.2,0.2c0,0-0.1,0.1-0.2,0.1c-0.1,0-0.1,0-0.2,0.1
	c0,0.1-0.1,0.2-0.2,0.3c-0.1,0-0.1,0.1-0.2,0.3c0,0-0.1-0.1-0.1,0c0,0,0,0,0,0.1c0,0,0,0,0,0.1c0,0,0,0-0.1-0.1c0,0.1,0,0.1,0,0.1
	v0.1c-0.4,0.4-0.7,0.7-1.1,1.1c-0.4,0.4-0.7,0.8-0.9,1.3c0.1,0.1,0.3,0.2,0.5,0.3c0.1,0.1,0.3,0.1,0.4,0.3c0,0.2,0,0.4-0.1,0.5
	c-0.1,0.2-0.1,0.3-0.2,0.5s-0.1,0.3-0.2,0.5c-0.1,0.2-0.1,0.3-0.1,0.5c-0.1,0.1-0.2,0.3-0.3,0.3c-0.1,0.1-0.3,0.1-0.4,0
	c-0.2,0-0.3-0.1-0.5-0.2c-0.2-0.1-0.3-0.2-0.5-0.3c-0.2,0.4-0.4,0.8-0.6,1.3c-0.2,0.4-0.4,0.9-0.6,1.3h-0.4c-0.1,0-0.3,0-0.4-0.1
	c0-0.1,0-0.2,0-0.3s0.1-0.2,0.1-0.3l0.5-1.1c0.2-0.4,0.4-0.8,0.7-1.4c-0.3-0.2-0.5-0.4-0.7-0.7c-0.3-0.3-0.5-0.6-0.7-0.8
	c-0.7-0.8-1.3-1.5-1.9-2.3s-1.2-1.5-1.7-2.3l-0.1-0.2l-0.2-0.2c-0.1-0.1-0.1-0.2-0.1-0.2c0-0.1-0.1-0.1-0.1-0.2
	c0-0.2,0.1-0.4,0.2-0.6c0.1-0.2,0.3-0.4,0.4-0.5c-0.5-0.3-1-0.7-1.5-1s-1-0.7-1.5-1c0-0.1-0.1-0.2-0.1-0.2c0-0.1-0.1-0.2,0-0.3
	c0.1-0.2,0.2-0.3,0.3-0.5s0.2-0.4,0.3-0.6c0.1-0.2,0.2-0.4,0.4-0.6c0.1-0.2,0.3-0.3,0.5-0.5c0.4,0.4,0.9,0.8,1.4,1.1
	c0.5,0.4,1.1,0.7,1.7,1.1c0.6,0.3,1.2,0.7,1.8,1s1.2,0.6,1.8,0.8c0.2,0.1,0.4,0.2,0.6,0.3c0.2,0.1,0.4,0.2,0.5,0.2
	c0.2,0.1,0.4,0.1,0.5,0.2c0.1,0.1,0.3,0.1,0.5,0.2c0.1,0.1,0.3,0.1,0.4,0.1c0.1,0,0.3,0,0.4,0c0,0.1,0,0.1,0,0.1L753.6,550.4
	L753.6,550.4z M751.5,555.2c0.1,0.1,0.2,0.2,0.3,0.3s0.2,0.2,0.4,0.3c0.3-0.6,0.7-1.1,1.1-1.7c0.4-0.5,0.8-0.9,1.1-1.4
	c-0.9,0.1-1.8,0.1-2.6-0.1c-1-0.2-1.9-0.5-2.9-0.8c0.2,0.3,0.4,0.6,0.6,0.8c0.2,0.3,0.4,0.5,0.6,0.8c0.2,0.3,0.4,0.5,0.6,0.8
	C750.9,554.6,751.2,554.9,751.5,555.2L751.5,555.2z M752,547.3c-0.2-0.1-0.3-0.1-0.5-0.1s-0.3,0-0.5,0l0.1-0.1h0.1
	c0,0-0.1-0.1-0.2-0.1c-0.1,0-0.1,0-0.2,0c-0.1,0-0.1,0-0.2,0c-0.1,0-0.1-0.1-0.2-0.1c-0.1,0-0.2,0-0.2,0c-0.1,0-0.2-0.1-0.2-0.1
	c-0.1-0.1-0.1-0.1-0.2-0.2c-0.1-0.1-0.1-0.1-0.1-0.2c0,0,0,0,0-0.1s0,0,0,0c-0.1-0.2-0.2-0.4-0.3-0.6c-0.1-0.2-0.2-0.5-0.3-0.7
	c-0.1-0.3-0.1-0.5-0.2-0.7c-0.1-0.2-0.1-0.4-0.1-0.5s0-0.1,0-0.1s-0.1,0-0.1-0.1s0-0.1,0.1-0.2v-0.1c-0.1,0-0.2-0.1-0.3,0
	c-0.1-0.1-0.3-0.2-0.4-0.4c-0.2-0.1-0.3-0.2-0.4-0.4v-0.1v-0.1v-0.1c0,0,0-0.1,0.1-0.1c0-0.1,0-0.1,0-0.2c0-0.1,0-0.1,0.1-0.2v-0.1
	v-0.1c0.1-0.1,0.1-0.2,0.2-0.3c0-0.1,0-0.3,0.1-0.4c0-0.1,0-0.3,0.1-0.4c0-0.1,0.1-0.3,0.2-0.4h0.1c0,0,0,0,0.1,0
	c0.1-0.1,0.2-0.1,0.3-0.1s0.2,0.1,0.3,0.1c0,0,0,0.1,0.1,0.1s0.1,0,0.1,0v0.2c0.2,0.1,0.4,0.3,0.7,0.4c0.3,0.1,0.5,0.2,0.8,0.3
	s0.6,0.2,0.9,0.2c0.3,0.1,0.5,0.1,0.8,0.1s0.5,0,0.7,0c0.4,0,0.8-0.1,1.2-0.3c0.2-0.1,0.4-0.2,0.6-0.4h0.1h0.1h0.1
	c0,0,0-0.1,0.1-0.1h0.1c0,0,0.1,0,0.1,0.1s-0.1,0.1-0.1,0.2c0.1,0.1,0.1,0.1,0.1,0.2c0,0.1,0.1,0.1,0.1,0.2c-0.1,0.1-0.1,0.2,0,0.3
	c-0.1,0.1-0.1,0.2,0,0.2h-0.1h-0.1c0.1,0.1,0.1,0.1,0.1,0.2c0,0.1,0,0.1,0.1,0.2v0.1c0,0,0,0.1-0.1,0.1c0,0.1,0.1,0.1,0,0.2
	c0,0.1,0,0.1,0,0.2l0,0c0,0,0,0-0.1,0c0,0.1,0,0.2,0.1,0.3c0,0.1-0.1,0.1-0.1,0.2c0,0.1,0,0.1,0,0.2c0,0,0,0.1-0.1,0.1l-0.1,0.1
	c-0.1,0-0.3,0.1-0.4,0.2c-0.1,0.1-0.3,0.1-0.4,0.1c-0.6,0.2-1.1,0.3-1.7,0.4c-0.5,0-1.1,0-1.6-0.1c0.1,0.1,0.1,0.2,0.2,0.3
	c0.1,0.1,0.1,0.2,0.2,0.3c0.1,0.1,0.1,0.2,0.2,0.3c0.1,0.1,0.1,0.1,0.2,0.1c0.5,0.1,0.9,0.1,1.4,0.1s0.9-0.1,1.4-0.3
	s1.1-0.4,1.6-0.7c0.6-0.3,1.3-0.7,2.1-1.3c0.1-0.1,0.2-0.2,0.3-0.3s0.2-0.1,0.3-0.2c0,0,0.1,0,0.1-0.1c0.2,0,0.3,0.1,0.5,0.2
	c0.1,0.1,0.3,0.2,0.4,0.3l0.3,0.4c0.1,0.1,0.3,0.3,0.4,0.5c0.1,0.2,0.2,0.3,0.3,0.4c0.1,0.1,0.1,0.2,0.2,0.2c0,0.1,0,0.1,0,0.2
	c0,0.1,0,0.1,0.1,0.2c0,0.1,0,0.2,0,0.3s0,0.2,0,0.3l-0.1,0.1c0,0.1,0,0.2,0,0.3s0,0.2,0,0.3c-0.1,0.2-0.1,0.4-0.1,0.5
	c-0.1,0.2-0.2,0.4-0.1,0.6c0,0.1-0.1,0.1-0.1,0.1c-0.1,0.6-0.3,1.1-0.6,1.5s-0.7,0.8-1.1,1.1c-0.4,0.2-0.8,0.4-1.1,0.5
	c-0.4,0.1-0.8,0.2-1.2,0.3c-0.4,0-0.9,0-1.3-0.1c-0.5-0.1-1-0.3-1.4-0.6l-0.1-0.1c0,0,0-0.1-0.1-0.1l-0.1-0.2
	c0.1,0.1,0.1,0.1,0.2,0.1c0.1,0,0.1,0.1,0.2,0.1c-0.1-0.1-0.2-0.2-0.3-0.3s-0.2-0.2-0.3-0.3c0,0,0,0,0-0.1l0,0c0,0-0.1-0.1-0.1-0.2
	c0-0.1,0-0.1,0-0.1c0-0.1,0-0.1-0.1-0.2c-0.1,0-0.1-0.1-0.1-0.2l0.1,0.1l0.1,0.1c0.1,0,0.1,0,0.1-0.1s0-0.1,0.1-0.1
	c0,0,0.1,0,0.1,0.1l0.1,0.1v-0.1c0,0,0,0,0-0.1c0,0.1,0.1,0.1,0.1,0s0,0,0.1-0.1c0.1,0,0.2,0.1,0.2,0.1c0.1,0.1,0.2,0.1,0.2,0.1
	s0-0.1-0.1-0.1l0,0c-0.1,0-0.1,0-0.1-0.1c0.2,0,0.3,0.1,0.5,0.2c0.1,0.1,0.3,0.1,0.5,0.2l0,0v-0.1h0.2h0.2l-0.1-0.1
	c-0.1,0-0.1-0.1-0.1-0.1c0.1,0,0.2,0,0.3,0h0.3c0,0,0,0,0-0.1c0,0,0,0,0-0.1c0.1-0.1,0.2-0.1,0.4-0.1c0.1,0,0.3,0,0.4-0.1l0,0
	c0,0,0,0-0.1,0c0.1-0.1,0.2-0.1,0.3-0.1s0.2,0,0.3-0.1l0,0l0,0l0.1-0.1l0.1-0.1l0.7-0.3c0.2-0.1,0.4-0.1,0.5-0.3
	c0.2-0.1,0.4-0.2,0.5-0.4c0.2-0.2,0.4-0.4,0.5-0.6c0-0.1-0.1-0.3-0.2-0.4c-0.1-0.1-0.2-0.3-0.3-0.4c-0.1-0.1-0.2-0.2-0.3-0.3
	s-0.2-0.2-0.2-0.2c-0.1,0.1-0.3,0.3-0.4,0.4l-0.5,0.3c-0.4,0.3-0.8,0.6-1.3,0.9c-0.4,0.2-0.8,0.4-1.3,0.6c-0.4,0.2-0.9,0.3-1.3,0.3
	c-0.5,0.1-1,0.1-1.5,0l-0.7-0.1c0,0,0.1-0.1,0.2-0.1L752,547.3L752,547.3z M756.5,539.4c-0.2-0.1-0.3-0.1-0.5-0.1s-0.3,0-0.5,0
	l0.1-0.1h0.1c0,0-0.1-0.1-0.2-0.1c-0.1,0-0.1,0-0.2,0c-0.1,0-0.1,0-0.2,0c-0.1,0-0.1-0.1-0.2-0.1c-0.1,0-0.2,0-0.2,0
	c-0.1,0-0.2-0.1-0.2-0.1c-0.1-0.1-0.1-0.1-0.2-0.2c-0.1-0.1-0.1-0.1-0.1-0.2c0,0,0,0,0-0.1l0,0c-0.1-0.2-0.2-0.4-0.3-0.6
	c-0.1-0.2-0.2-0.5-0.3-0.7c-0.1-0.3-0.1-0.5-0.2-0.7c-0.1-0.2-0.1-0.4-0.1-0.5s0-0.1,0-0.1s-0.1,0-0.1-0.1s0-0.1,0.1-0.2v-0.1
	c-0.1,0-0.2-0.1-0.3,0c-0.1-0.1-0.3-0.2-0.4-0.4c-0.2-0.1-0.3-0.2-0.4-0.4v-0.1v-0.1v-0.1c0,0,0-0.1,0.1-0.1c0-0.1,0-0.1,0-0.2
	c0-0.1,0-0.1,0.1-0.2v-0.1v-0.1c0.1-0.1,0.1-0.2,0.2-0.3c0-0.1,0-0.3,0.1-0.4c0-0.1,0-0.3,0.1-0.4c0-0.1,0.1-0.3,0.2-0.4h0.1
	c0,0,0,0,0.1,0c0.1-0.1,0.2-0.1,0.3-0.1s0.2,0.1,0.3,0.1c0,0,0,0.1,0.1,0.1s0.1,0,0.1,0v0.2c0.2,0.1,0.4,0.3,0.7,0.4
	c0.3,0.1,0.5,0.2,0.8,0.3s0.6,0.2,0.9,0.2c0.3,0.1,0.5,0.1,0.8,0.1s0.5,0,0.7,0c0.4,0,0.8-0.1,1.2-0.3c0.2-0.1,0.4-0.2,0.6-0.4h0.1
	h0.1h0.1c0,0,0,0,0.1-0.1h0.1h0.1c0,0.1-0.1,0.1-0.1,0.2c0,0.1,0.1,0.1,0.1,0.2c0,0.1,0.1,0.1,0.1,0.2c-0.1,0.1-0.1,0.2,0,0.3
	c-0.1,0.1-0.1,0.2,0,0.2h-0.1h-0.1c0.1,0.1,0.1,0.1,0.1,0.2c0,0.1,0,0.1,0.1,0.2v0.1c0,0,0,0.1-0.1,0.1c0,0.1,0.1,0.1,0,0.2
	c0,0.1,0,0.1,0,0.2l0,0c0,0,0,0-0.1,0c0,0.1,0,0.2,0.1,0.3c0,0.1-0.1,0.1-0.1,0.2c0,0.1,0,0.1,0,0.2c0,0,0,0.1-0.1,0.1l-0.1,0.1
	c-0.1,0-0.3,0.1-0.4,0.2c-0.1,0.1-0.3,0.1-0.4,0.1c-0.6,0.2-1.1,0.3-1.7,0.4c-0.5,0-1.1,0-1.6-0.1c0.1,0.1,0.1,0.2,0.2,0.3
	c0.1,0.1,0.1,0.2,0.2,0.3c0.1,0.1,0.1,0.2,0.2,0.3c0.1,0.1,0.1,0.1,0.2,0.1c0.5,0.1,0.9,0.1,1.4,0.1s0.9-0.1,1.4-0.3
	s1.1-0.4,1.6-0.7c0.6-0.3,1.3-0.7,2.1-1.3c0.1-0.1,0.2-0.2,0.3-0.3s0.2-0.1,0.3-0.2c0,0,0.1,0,0.1-0.1c0.2,0,0.3,0.1,0.5,0.2
	c0.1,0.1,0.3,0.2,0.4,0.3l0.3,0.4l0.4,0.5c0.1,0.2,0.2,0.3,0.3,0.4c0.1,0.1,0.1,0.2,0.2,0.2c0,0.1,0,0.1,0,0.2c0,0.1,0,0.1,0.1,0.2
	c0,0.1,0,0.2,0,0.3s0,0.2,0,0.3l-0.1,0.1c0,0.1,0,0.2,0,0.4c0,0.1,0,0.2,0,0.3c-0.1,0.2-0.1,0.4-0.1,0.5c-0.1,0.1-0.1,0.2-0.1,0.3
	s0,0.2,0,0.3s-0.1,0.1-0.1,0.1c-0.1,0.6-0.3,1.1-0.6,1.5s-0.7,0.8-1.1,1.1c-0.4,0.2-0.8,0.4-1.1,0.5c-0.4,0.1-0.8,0.2-1.2,0.3
	c-0.4,0-0.9,0-1.3-0.1c-0.5-0.1-1-0.3-1.4-0.6l-0.1-0.1c0,0,0-0.1-0.1-0.1l-0.1-0.2c0.1,0.1,0.1,0.1,0.2,0.1c0.1,0,0.1,0.1,0.2,0.1
	c-0.1-0.1-0.2-0.2-0.3-0.3s-0.2-0.2-0.3-0.3c0,0,0,0,0-0.1l0,0c0,0-0.1-0.1-0.1-0.2c0-0.1,0-0.1,0-0.1c0-0.1,0-0.1-0.1-0.2
	c-0.1,0-0.1-0.1-0.1-0.2l0.1,0.1l0.1,0.1c0.1,0,0.1,0,0.1-0.1s0-0.1,0.1-0.1c0,0,0.1,0,0.1,0.1l0.1,0.1v-0.1c0,0,0,0,0-0.1
	c0,0.1,0.1,0.1,0.1,0c0,0,0,0,0.1-0.1c0.1,0,0.2,0.1,0.2,0.1c0.1,0.1,0.2,0.1,0.2,0.1s0-0.1-0.1-0.1l0,0c-0.1,0-0.1,0-0.1-0.1
	c0.2,0,0.3,0.1,0.5,0.2c0.1,0.1,0.3,0.1,0.5,0.2l0,0v-0.1h0.2h0.2l-0.1-0.1c-0.1,0-0.1-0.1-0.1-0.1c0.1,0,0.2,0,0.3,0h0.3
	c0,0,0,0,0-0.1c0,0,0,0,0-0.1c0.1-0.1,0.2-0.1,0.4-0.1c0.1,0,0.3,0,0.4-0.1l0,0c0,0,0,0-0.1,0c0.1-0.1,0.2-0.1,0.3-0.1
	s0.2,0,0.3-0.1l0,0l0,0l0.1-0.1l0.1-0.1l0.7-0.3c0.2-0.1,0.4-0.1,0.5-0.3c0.2-0.1,0.4-0.2,0.5-0.4c0.2-0.2,0.4-0.4,0.5-0.6
	c0-0.1-0.1-0.3-0.2-0.4c-0.1-0.1-0.2-0.3-0.3-0.4c-0.1-0.1-0.2-0.2-0.3-0.3s-0.2-0.2-0.2-0.2c-0.1,0.1-0.3,0.3-0.4,0.4l-0.5,0.3
	c-0.4,0.3-0.8,0.6-1.3,0.9c-0.4,0.2-0.8,0.4-1.3,0.6c-0.4,0.2-0.9,0.3-1.3,0.3c-0.5,0.1-1,0.1-1.5,0l-0.7-0.1c0,0,0.1-0.1,0.2-0.1
	L756.5,539.4z M767.6,533.8L767.6,533.8C767.7,533.8,767.7,533.8,767.6,533.8c0.1,0.1,0.1,0.2,0,0.2v0.1c0,0.1,0,0.1,0.1,0.2
	c0,0,0,0-0.1,0c0,0,0,0-0.1,0.1v0.1l0,0c0,0,0,0.1-0.1,0.1v0.1c0,0,0,0.1,0.1,0.1c0,0,0,0-0.1,0c0,0.1,0,0.2-0.1,0.3
	c-0.1,0-0.1,0-0.1,0s-0.1,0-0.1,0.1l0,0l0,0H767c0,0-0.1,0-0.2,0c-0.6-0.3-1.2-0.5-1.8-0.9c-0.6-0.3-1.2-0.7-1.9-1
	c-0.6-0.4-1.2-0.7-1.8-1.1s-1.1-0.7-1.6-1c-0.3-0.2-0.6-0.4-0.9-0.6c-0.3-0.2-0.6-0.4-0.8-0.6c0.1,0,0.1,0,0.2,0.1
	c0.1,0.1,0.1,0.1,0.2,0.1l-0.1-0.1c0,0-0.1,0-0.1-0.1s0-0.1,0-0.2c0,0,0.1-0.1,0.1-0.2h0.2v-0.1c0,0,0-0.1-0.1-0.1l0,0l0,0
	c-0.1-0.1-0.1-0.2-0.1-0.3s0.1-0.2,0.2-0.3c0,0,0,0,0-0.1c0,0,0,0,0-0.1c0.1-0.1,0.2-0.1,0.2-0.3c0-0.1,0.1-0.2,0.2-0.2
	c0-0.2,0-0.3,0.1-0.4c0.1-0.1,0.2-0.3,0.3-0.3h0.1h0.1h0.1l0,0c0.1,0,0.2,0,0.2,0c0.1,0,0.1,0.1,0.2,0.1c0,0.1,0.1,0.1,0.1,0.2
	c0,0.1,0.1,0.1,0.2,0.2c0,0.1,0,0.1,0,0.2c0,0,0,0,0.1,0h0.1c0.1,0.1,0.3,0.3,0.4,0.4c0.2,0.1,0.4,0.3,0.6,0.4
	c0.2,0.1,0.4,0.3,0.6,0.4l0.4,0.3c0.7,0.4,1.4,0.8,2.1,1.2c0.7,0.4,1.4,0.8,2.1,1.2c0.1,0,0.1,0,0.2,0c0.1,0.1,0.2,0.2,0.3,0.2
	s0.2,0.1,0.3,0.1l0,0l0,0c0.1,0,0.2,0.1,0.3,0.1s0.2,0.1,0.2,0.2l-0.1,0.1c0,0,0,0-0.1,0c0,0,0,0.1,0,0.2c0,0.1-0.1,0.1-0.1,0.2
	c0,0.1,0,0.1,0,0.2c0,0.1,0,0.1,0,0.2h-0.1h-0.1c0,0,0,0,0.1,0h0.1c-0.1,0-0.1,0.1-0.1,0.1C767.7,533.8,767.6,533.8,767.6,533.8
	L767.6,533.8L767.6,533.8z M760,523.1c0.3,0.1,0.5,0.3,0.7,0.4l0.6,0.4c0.2,0.1,0.5,0.1,0.8,0.2s0.5,0.2,0.8,0.3s0.5,0.1,0.8,0.2
	c0.2,0,0.5,0.1,0.7,0.1c-0.1-0.4-0.2-0.8-0.3-1.2s-0.2-0.8-0.3-1.2c-0.1-0.2-0.1-0.4-0.1-0.6c0-0.2,0.1-0.4,0.1-0.6
	c0-0.2,0-0.3,0.1-0.5s0.1-0.4,0.2-0.5l0,0c0,0,0,0,0-0.1s0-0.2,0.1-0.3c0-0.1,0-0.2,0-0.3c0,0,0,0,0.1-0.1l0,0c0-0.1,0-0.1,0-0.2
	c0-0.1,0-0.2,0.1-0.2h0.1c0,0,0,0,0.1,0.1l0,0c0,0,0-0.1,0,0c0,0,0,0,0.1,0.1v0.1v0.1l-0.1,0.1c0,0,0,0.1,0.1,0.1c0,0,0.1,0,0.1,0.1
	c0,0.5,0,1,0.1,1.5s0.2,0.9,0.4,1.4s0.3,0.9,0.6,1.4c0.2,0.4,0.4,0.9,0.6,1.3c1,0.1,2,0.2,3,0.2s2-0.1,2.9-0.1c0,0,0.1,0,0.1,0.1
	h0.1c0,0.1,0,0.3,0,0.4c0,0.1,0,0.3,0.1,0.4c-0.1,0.1-0.1,0.3-0.1,0.4c0,0.1,0,0.3,0,0.4l-0.1,0.2c0,0.2,0,0.4-0.1,0.6v0.1h0.1v0.1
	l-0.1,0.1c-0.1,0-0.1,0.1-0.2,0.1c-0.1,0-0.2,0.1-0.2,0.1c-0.7,0-1.3,0.1-2,0.1c-0.6,0-1.3,0-2,0c0.1,0.1,0.1,0.3,0.2,0.4
	c0.1,0.1,0.1,0.3,0.2,0.4c0.1,0.1,0.2,0.3,0.3,0.4c0.1,0.1,0.3,0.3,0.4,0.4v0.1c0,0.1,0,0.1,0,0.1s0,0.1,0.1,0.1c0,0,0.1,0,0.1,0.1
	s-0.1,0.2-0.1,0.3s0,0.2,0.1,0.3c-0.1,0.1-0.1,0.3-0.1,0.4c0,0.1,0.1,0.2,0,0.4l-0.1,0.1v0.1v0.2c0,0.1,0,0.1,0,0.2
	c0,0,0,0.1,0.1,0.1c0,0,0.1,0,0.1,0.1s-0.2,0.2-0.3,0.1c-0.1,0.1-0.2,0.2-0.3,0.2s-0.2,0-0.3,0c-0.1-0.1-0.3-0.2-0.3-0.3
	c-0.1-0.2-0.2-0.3-0.3-0.4c-0.2-0.3-0.3-0.6-0.5-0.8c-0.2-0.3-0.3-0.6-0.4-0.9v-0.1v-0.1c0,0,0,0,0-0.1l0,0c0,0-0.1-0.1-0.1-0.2
	c0-0.1,0-0.1-0.1-0.2v-0.1c0,0,0,0,0-0.1l0,0l0,0c-0.1,0-0.1-0.1-0.1-0.1c0-0.1,0-0.1,0-0.2c0,0,0,0-0.1,0h-0.1
	c-0.1-0.2-0.1-0.3-0.2-0.5c-0.1-0.1-0.2-0.3-0.1-0.5c-0.2-0.1-0.4-0.1-0.7-0.2c-0.3,0-0.5-0.1-0.7-0.1c-0.1,0-0.2,0-0.3-0.1
	c-0.1,0-0.2,0-0.3,0c-0.2-0.1-0.5-0.2-0.8-0.2c-0.2,0-0.4-0.1-0.6-0.2c-0.2-0.1-0.4-0.1-0.6-0.1c-0.2-0.1-0.4-0.2-0.7-0.3
	s-0.5-0.2-0.7-0.3s-0.5-0.2-0.7-0.3s-0.4-0.3-0.6-0.4V526v-0.1c-0.1-0.1-0.1-0.2-0.1-0.3s0-0.2-0.1-0.3c0.1-0.1,0.1-0.2,0.2-0.4
	c0-0.1,0.1-0.3,0.1-0.5s0-0.3,0-0.5s0.1-0.4,0.2-0.6c0.1,0,0.1,0,0.1,0C759.9,523.1,759.9,523.1,760,523.1L760,523.1z M768.9,517.9
	C769,517.9,769,517.8,768.9,517.9C768.9,517.8,768.9,517.8,768.9,517.9C769,517.7,769,517.8,768.9,517.9L768.9,517.9l0.2,0.1
	c0,0,0,0,0,0.1C769.1,518.1,769,518.1,768.9,517.9C769.1,517.9,769,517.9,768.9,517.9c0.1,0.1,0.1,0.1,0.2,0.1
	c0.1,0,0.1,0.1,0.1,0.1l0.2,0.1l0.1,0.1c0,0,0.1,0.1,0,0.1c0.5,0.4,0.9,0.7,1.5,1c0.4,0.3,0.8,0.5,1.2,0.6c0,0,0,0,0,0.1l0,0v0.1
	v0.1c0,0,0,0.1-0.1,0.1l0.1,0.1c0,0.1,0,0.1,0,0.1s0,0-0.1,0c0,0.1,0.1,0.2,0.1,0.2l0,0c0,0,0,0,0,0.1l0.1,0.2l-0.3-0.2v0.1
	c0,0,0,0,0,0.1c0,0,0,0.1,0,0.2c0,0.1-0.1,0.2-0.1,0.3s-0.1,0.2-0.2,0.3c0,0.1-0.1,0.1-0.1,0.2l0.1,0.1l0,0l0,0c0,0,0,0,0,0.1
	c-0.1,0-0.1,0-0.2,0.1l0.1,0.1v0.1v0.1l-0.3-0.2c-0.1,0.1-0.3,0-0.6-0.2s-0.7-0.4-1.1-0.6c-0.4-0.3-0.9-0.6-1.3-0.9
	c-0.5-0.3-0.9-0.7-1.4-1l-1.1-0.9c-0.3-0.3-0.6-0.4-0.7-0.5c-0.2-0.2-0.4-0.4-0.6-0.5c-0.1-0.1-0.3-0.3-0.4-0.4
	c-0.1-0.1-0.1-0.2-0.1-0.3l0.1-0.2v-0.1c0,0,0-0.1,0-0.2s0.1-0.2,0.1-0.3s0.1-0.2,0.1-0.3s0.1-0.1,0.1-0.1c0.1-0.1,0.1-0.1,0.2-0.2
	c0.1-0.1,0.1-0.2,0.1-0.3h0.1h0.1c0,0,0,0,0-0.1c0,0,0,0,0-0.1l0,0c0,0,0,0,0.1,0c0-0.2,0.1-0.3,0.2-0.4c0.1-0.1,0.3-0.2,0.4-0.1
	c0.1,0,0.1,0.1,0.1,0.2c0.1,0.2,0.4,0.4,0.6,0.7c0.3,0.3,0.6,0.6,0.8,0.8c0.3,0.3,0.6,0.5,0.9,0.8c0.2,0.2,0.4,0.4,0.6,0.5
	C768.9,517.7,768.9,517.7,768.9,517.9C769,517.8,769,517.8,768.9,517.9L768.9,517.9z M772.6,523.2c0-0.1,0-0.1,0.1-0.2
	c0-0.1,0.1-0.1,0.1-0.2c0-0.1,0.1-0.1,0.1-0.2c0-0.1,0-0.2,0-0.2c0.1-0.1,0.1-0.2,0.1-0.3s0.1-0.2,0.1-0.3s0.1-0.2,0.1-0.3
	s0.1-0.2,0.2-0.2c0-0.1,0-0.1,0-0.1c0.1,0,0.1,0,0.1-0.1c0.1,0,0.2,0.1,0.3,0.1l0.2,0.2c0.1,0.1,0.2,0.1,0.3,0.1s0.2,0.1,0.4,0.1
	s0.4,0,0.5,0c0.2,0,0.3,0.1,0.4,0.2l0.1,0.1c0,0.1,0,0.1,0.1,0v0.1c0,0,0,0-0.1,0c0,0,0,0-0.1,0c0,0,0,0-0.1,0
	c0,0.1-0.1,0.2-0.1,0.2c-0.1,0.1-0.1,0.1-0.1,0.2c0,0.2-0.1,0.3-0.1,0.5c-0.1,0.1-0.1,0.3-0.2,0.5c0,0.1,0,0.2-0.1,0.3l-0.1,0.2
	c-0.2,0-0.4,0-0.6,0c-0.2,0-0.3-0.1-0.5-0.1c-0.2-0.1-0.3-0.1-0.5-0.2C773,523.5,772.8,523.4,772.6,523.2L772.6,523.2L772.6,523.2z
	 M988.4,494.7l-8.1-4.4c-1.5-0.8-3.3-0.9-4.8-0.3c-3.8,1.4-1.9,3.5-1.9,3.5c1.5,3-0.2-0.3,5.4,3c1.9,1.1,4,2,5.9,3
	c-3.5,5.2-4.8,2.7-4.8,7.1c6.1,4.1,10.3-4.3,10.7-5.9c2.1,0.2,4.8,1.8,4.8-1.2c0-1.8-0.7-1.6-2.4-1.8c1-4.4,4.8-7.3,3.6-12.5
	c-1.8,0.2-1.6-0.5-4.8,4.1L988.4,494.7z M693.7,683.6c-0.2-0.1-8.3-6.4-8.3-0.6c0,2-0.3,1.7,0.9,2.7l3.8,3.3c-2.5,3.7-6.1,7-6.3,8.5
	c-0.3,4.1,8.5,2.2,10.4-4.9c3,0.3,2.9,1.2,6.5,1.2c0.1-0.5,0-1.1-0.1-1.6l-1-1.4c-4.6-6.7,1.2-3.7-0.7-11.8
	C696.2,679.1,695.8,680.5,693.7,683.6L693.7,683.6z"/>
</svg>
