<?xml version="1.0" encoding="utf-8"?>
<!-- Generator: Adobe Illustrator 24.2.3, SVG Export Plug-In . SVG Version: 6.00 Build 0)  -->
<svg version="1.1" id="Capa_1" xmlns="http://www.w3.org/2000/svg" xmlns:xlink="http://www.w3.org/1999/xlink" x="0px" y="0px"
	 viewBox="0 0 411 823" style="enable-background:new 0 0 411 823;" xml:space="preserve">
<style type="text/css">
	.st0{fill:#E9E9E9;}
	.st1{fill:#232323;}
	.st2{fill-rule:evenodd;clip-rule:evenodd;fill:#E9E9E9;}
</style>
<g>
	<rect x="0.4" y="0.5" class="st0" width="410.6" height="822.5"/>
</g>
<path id="Trazado_8" class="st1" d="M-1.3,471.2c0,0-12.3,161.9,31.7,163.7c44.1,1.8,50.2-96.4,96.7-96.4s37.9,52.7,72.2,60
	s19.6-32.8,64.9-32.8s24.5,101.9,69.8,89.1c45.3-12.7,44.1-118.2,61.2-140.1c17.1-21.8,15.9-18.2,15.9-18.2V0H-1.3V471.2z"/>
<path id="Trazado_10" class="st2" d="M147.9,218.6c-0.7,0-1.4-0.1-2-0.2c-0.2-1.1-0.8-1.7-0.9-2.7c0.8,0,0.7,0.2,1.5,0.2
	c3.1-0.2,5.8-1.9,8-3.9c0.2-0.2,0.1-0.2,0.5-0.4c0.4,1.3,0.7,2.7,0.9,4c-0.7,0.1-3.6,1.8-4.6,2.2C150.2,218.2,149,218.5,147.9,218.6
	z M146.8,214.4v0.2l-0.2-0.2L146.8,214.4z M145.7,214.2l-0.1,0.4L145.7,214.2z M145.8,214l-0.2,0.2L145.8,214z M146,213.7l-0.2,0.4
	L146,213.7z M149.9,213.7v0.2l-0.2-0.2L149.9,213.7z M150.1,213.3l-0.2,0.4L150.1,213.3z M146.2,213.5l-0.2,0.2L146.2,213.5z
	 M144.9,213.5L144.9,213.5C145,213.5,144.9,213.5,144.9,213.5L144.9,213.5z M146.8,214.4c0.1-0.5,0-0.2,0.3-0.6
	c0.3-0.5,0.2-0.3,0.6-0.5C147.5,213.7,147.1,214.1,146.8,214.4L146.8,214.4z M146.4,213.3l-0.2,0.2L146.4,213.3z M147.9,214.4
	c0.2-0.2,0.3-0.5,0.5-0.8c0.5-0.7-0.1-0.4,0.8-0.5c-0.2,0.2-0.3,0.6-0.5,0.8C148.4,214.3,148.5,214.2,147.9,214.4L147.9,214.4z
	 M145.3,213.1v0.2l-0.2-0.2L145.3,213.1z M150.1,213.3c0.1-0.5,0-0.3,0.4-0.6C150.3,213.3,150.5,213,150.1,213.3L150.1,213.3z
	 M145.3,213.1v-0.2l0.2,0.2L145.3,213.1z M146.4,213.3l0.2-0.7C147.1,212.9,147.1,212.8,146.4,213.3L146.4,213.3z M143.8,212.7
	L143.8,212.7C143.9,212.8,143.8,212.8,143.8,212.7L143.8,212.7z M151.7,212.4l-0.2,0.7c-0.1-0.2-0.2,0.3-0.1-0.3
	C151.5,212.5,151.5,212.5,151.7,212.4L151.7,212.4z M150.4,212.7l0.1-0.4L150.4,212.7z M143.5,212.5h0.2l-0.2,0.2L143.5,212.5z
	 M143.5,212.5l-0.4-0.2L143.5,212.5z M172.3,214c0.2-0.8,1.7-3.1,1.7-3.9h0.2c0,0.6,0.2,2-0.2,2.4l-0.1,0.1L172.3,214z M158.5,214.8
	h-0.4c-0.4-1.9,0.2-0.8,0.4-2.4c0.4-0.1,0.9-0.2,1.3-0.4C159.6,212.9,158.8,213.6,158.5,214.8L158.5,214.8z M143.1,212.4h-0.2
	l0.2-0.2L143.1,212.4z M153.2,211.7v0.2l-0.2-0.2L153.2,211.7z M159.6,217c-0.3-0.2-0.6-0.6-0.7-0.9c0,0,0.1-0.1,0.1-0.1l0.5-0.9
	c0.6-1.1,1.1-2.2,1.6-3.4c0.7-0.1,1.5-0.3,2.2-0.6l-2.8,4.3C160.1,215.9,159.8,216.4,159.6,217L159.6,217z M151.3,210.9v0.2
	l-0.2-0.2L151.3,210.9z M153.2,211.7c0.1-0.3,0.2-0.6,0.3-0.8c0.3-0.8-0.2-0.2,0.5-0.6c0.3,0.5,0.1,1-0.3,1.3
	C153.5,211.6,153.3,211.6,153.2,211.7L153.2,211.7z M160.5,217.7l1.2-2.1c0.5-0.9,2.8-4.8,3.3-5c0.2-0.1,1.2-0.3,1.5-0.4l-1.3,2
	c-0.2,0.3-0.5,0.6-0.7,1c-0.2,0.3-0.5,0.6-0.7,1l-2,2.9C161.2,217.7,161.5,217.7,160.5,217.7L160.5,217.7z M150.4,210.2
	c0.5,0.1,0.3-0.1,0.4,0.3L150.4,210.2z M151.7,212.4c0-0.5,0.2-1,0.5-1.4c0.2-0.3,0.2-0.4,0.2-0.6c0.3-0.8,0-0.4,0.5-0.6
	L151.7,212.4z M151.3,210.9c0.1-0.8,0.1-0.9,0.7-1.1L151.3,210.9z M159.8,209.2c0.2,0.2,0.2-0.4,0.2,0.6h-0.2V209.2z M164.5,217.5
	c-0.8,0-0.9,0.2-1.8,0.2c1.1-1.6,5-6.8,5.1-8.1c0.4,0,0.7-0.1,1.1-0.2C168,211.2,164.8,216.3,164.5,217.5L164.5,217.5z M150.3,208.7
	c0-0.5,0.2-0.4,0.6-0.6c0,0.7,0.1,0.6-0.2,1.1C150.3,209,150.3,209.2,150.3,208.7L150.3,208.7z M169.5,215.5
	c0.3-0.6,0.6-1.2,0.9-1.8l2-3.7c0.2-0.3,0.3-0.6,0.5-1c0.1-0.2,0.2-0.3,0.3-0.5c0,0,0.1-0.2,0.2-0.2c0,0,0.1-0.1,0.1-0.1
	c0,0,0.1-0.1,0.1-0.1c0.1,0.5,0,0.2,0.2,0.6l-2.9,5.4C170.4,215.3,170.8,215.2,169.5,215.5L169.5,215.5z M166,217.1
	c0.3-0.8,0.7-1.6,1.2-2.3l2.5-4.7c0.5-1,0.6-1.4,2.2-1.5l-2.6,4.6C167,217.9,169,215.5,166,217.1L166,217.1z M159.8,209.2
	c-0.7-0.5-0.2-0.7-1.6-0.7v-0.2c2.4,0,1.5-0.2,2.6-0.6v0.9c-0.4-0.3-0.2-0.2-0.7-0.4C159.9,208.6,159.8,208.9,159.8,209.2
	L159.8,209.2z M174.4,207.8h0.7c0.6,1.6,0.9,3.3,0.9,5c0,0.4-2.3,3.1-3.9,3.9c-0.5,0.2-0.6,0.4-1,0.6c-6.2,3.4-7.7,2.1-12.3,2.1
	c-0.2-0.6-1.2-1.9-1.8-3c-0.3-0.6-0.3-0.7-0.8-0.9c0.1-0.9,0.2-1.7,0.2-2.6c0.3-0.1,0.6-0.2,0.9-0.2c-0.3,0.8-1.2,0.1,0.1,2.8
	c1.4,2.9,2,3.4,4.8,3.4c3.3,0,6.9-1.8,9.5-3.5C175.1,213.4,176.1,211.4,174.4,207.8L174.4,207.8z M161.1,207.8
	c0.2-0.2,0.7,0.2,0.2,0.1C161.3,207.9,160.8,208.1,161.1,207.8L161.1,207.8z M150.1,207.8c0-0.4,0.3-0.1,0.1,0
	C150.2,207.8,150.1,208.3,150.1,207.8L150.1,207.8z M152.8,207.2c0-0.4,0.3-0.1,0.1,0C152.9,207.2,152.8,207.8,152.8,207.2
	L152.8,207.2z M177.4,209.3H177c0-1.2-0.5-0.9-0.6-2c0.5,0,1-0.2,1.5-0.4C177.7,207.6,177.5,208.4,177.4,209.3L177.4,209.3z
	 M152.6,206.7L152.6,206.7C152.7,206.7,152.6,206.7,152.6,206.7L152.6,206.7z M149.9,206.2c0.6,0.2,0.9,0.8,0.2,1.3
	C150.1,207,150,206.6,149.9,206.2L149.9,206.2z M154.3,205.6c0.6,0.7,0.5,0.9,1.2,1.4c1.2,0.9,1.9,1.8,3.1,2.1
	c1.2,0.2,0.4,0.2,1.3,1.5l-3.9,1.1c-0.3-1.1-1.1-2.1-2.2-2.6c0-1.6-0.6-1.9-0.6-3.3h0.2c-0.1,0.6,0.2,1.1,0.7,1.5
	C154.6,206.3,154.4,206.7,154.3,205.6L154.3,205.6z M153.7,206c0-0.4,0.3-0.1,0.1,0C153.9,205.9,153.7,206.5,153.7,206L153.7,206z
	 M152.6,205.4v1.1c-0.2-0.1-0.5-0.3-0.5-0.6C152.1,205.4,152.1,205.7,152.6,205.4L152.6,205.4z M151,205.6c0.9,0.5,0.7,0.3,1.2,1.4
	c0.3,0.6,0.6,1.3,0.8,1.9c-0.6-0.3-0.6-0.2-1.3,0c0-1.1,0.1-1.7-0.4-2.6L151,205.6z M153.7,204.9v0.6
	C153,204.9,153.4,205.2,153.7,204.9L153.7,204.9z M174.3,204.5l-0.4,0.2L174.3,204.5z M169,204.3c0.9,0.1,0.3-0.2,0.7,0.4
	C168.7,204.9,169.3,205,169,204.3L169,204.3z M174.3,204.5v-0.2l0.2,0.2L174.3,204.5z M167.7,204.3h0.6v0.2h-0.6V204.3z
	 M174.8,204.1v0.2l-0.2-0.2L174.8,204.1z M175,203.9l-0.2,0.2L175,203.9z M192.6,202.9c-0.2,1-0.7,2-1.4,2.8c-0.5,0.5-0.4,0.2-0.4,1
	c0.8,0,0.7,0,1.1-0.5c0.3-0.3,0.5-0.7,0.7-1.1c0.2-0.4,0.5-0.8,0.6-1.2c0.8-2.1-0.5-1.1,5.4-2.9c0.8-0.2,1.8-0.5,2.6-0.7
	c0.9-0.2,1.7-0.5,2.6-0.7l10.3-2.9c0.4,0.6,1.5,1,2.4,2l1.7,1.6c0.5,0.5,0.1,0.2,0.4,0.7c1,1.8,5.8,1.6,6.5,1.9
	c-0.9,3.9-4.3,4.4-8.1,6c-0.9,0.4-1.5,0.7-2.4,1l-4.1,1.2c-4.1,0.8-7.6,0.2-11.8,0l-3.2-0.2c-2.4-0.6-2-1.4-5-2.2
	c-1-0.2-1.9-0.5-2.9-0.8c-1.3-0.4-4.1-1.6-4.7-2.5c0.8-0.1,1.6-0.3,2.3-0.6l4.8-1.4C190.9,203.1,191.8,202.9,192.6,202.9
	L192.6,202.9z M177.2,203l0.7-0.4c0,2.4,1.3,2.4,0,2.7C177.8,204.6,177.6,203.8,177.2,203L177.2,203z M175,203.9
	c0.2-0.3,0.4-0.6,0.6-0.9c0.1,0,0.6,0.1,0.6,0.1c0.2,0,0.2,0,0.7-0.1C176.4,203.7,176,203.8,175,203.9z M192.6,202.8v-0.2l0.2,0.2
	L192.6,202.8z M141.3,199.3h0.6c0.3,0.6,0.5,1.3,0.7,1.8C142.1,201.2,141.3,201.9,141.3,199.3L141.3,199.3z M141.3,199.3h-0.2
	l0.2-0.2L141.3,199.3z M149.9,199l-0.4,0.2L149.9,199z M194.4,198.6l-0.4,0.2L194.4,198.6z M188.9,198.6h0.7v0.4
	C188.8,198.9,189.3,199.2,188.9,198.6L188.9,198.6z M194.4,198.6v-0.2l0.2,0.2L194.4,198.6z M187.6,198.4L187.6,198.4
	C187.7,198.5,187.6,198.4,187.6,198.4L187.6,198.4z M195,198.3v0.2l-0.2-0.2L195,198.3z M183.5,198.3L183.5,198.3
	C183.5,198.3,183.4,198.3,183.5,198.3L183.5,198.3z M182.3,198c-0.1,0.5,0.1,0.2-0.3,0.4L182.3,198z M148.6,198.1h0.6
	c-0.1,0.5,0,0.3-0.4,0.6C148.7,198.4,148.6,198.3,148.6,198.1L148.6,198.1z M229.3,198.1v0.2l-0.2-0.2L229.3,198.1z M195.2,198.1
	l-0.2,0.2L195.2,198.1z M182.7,197.7v0.2l-0.2-0.2L182.7,197.7z M195.2,198.1l0.4-0.7h1.1c-0.2,0.5-0.1,0.2-0.2,0.4
	c-0.1,0.2,0-0.1-0.2,0.4H195.2L195.2,198.1z M182.7,197.7c0.2-0.7,0.1-0.6,0.6-0.9c0,0.4,0.1,0.9,0.2,1.3
	C183,197.8,183.3,197.9,182.7,197.7L182.7,197.7z M150.1,197.7h-0.6C149.9,197.1,149.7,197.1,150.1,197.7L150.1,197.7z M232.2,197.3
	v0.2l-0.2-0.2L232.2,197.3z M140.5,197.1c1,0.1,0.3-0.2,1.1,1.3c-0.3,0-0.6-0.1-0.9-0.2C140.7,197.9,140.7,197.5,140.5,197.1
	L140.5,197.1z M197,197.1c0.3,0,0.6-0.1,0.9-0.2c0,2,1.3,2.4,0,2.7C197.9,198.8,197.6,197.9,197,197.1L197,197.1z M216.6,195.9
	c0.5-0.1,1-0.2,1.5-0.4v2.7c-0.5-0.3-1-0.8-1.5-1.1V195.9z M156.7,195.7c0.2,0.4,0.4,1,0.4,1.5c-1,0.4-2.2,0.6-3.3,0.7
	c0-1.7,1-0.2,2-1.7c0.3,0,0.6,0.1,0.9,0.2V195.7z M148.2,197v0.2L148,197L148.2,197z M183.6,194.8l1.3,1.6c1.2,2.1,1.5,1,2.1,2.1
	l0.4,0.7c0.3,0,0.6-0.1,0.9-0.2l0.6,0.5c1.2-0.2,0.6,0,1.6,0c0.6,0,0.8-0.2,1.4-0.3l1.4-0.2c1.2,0.9,0.9,0,2.1-0.5
	c0.5-0.2,0.4,0.1,0.9-0.2c0.2-0.1,0.4-0.4,0.7-0.6c0.2,0.7,0.4,1.5,0.6,2.2c-0.6,0.1-1.2,0.2-1.8,0.4l-5.6,1.6
	c-0.2-0.3-0.3-0.7-0.6-0.9c-0.6-0.2-0.3,0.1-0.3,1.2l-5.2,1.4c-1.7,0.6-3.5,1-5.2,1.4c-0.1-1.1-0.6-1.1-0.6-2.6
	c0.7-0.3,1.4-0.8,1.9-1.4c0.3-0.3,0.5-0.6,0.7-0.9c0.3-0.3,0.5-0.7,0.5-1.1c0.9-0.2,1.1,0,1.3-0.7h0.4c0.1,1.5,0.2,1.8,0.9,2
	C184.6,199.2,183.6,197.8,183.6,194.8L183.6,194.8z M148.4,196.8l-0.2,0.2L148.4,196.8z M151.5,196.4c0.6,0.2,0.2-0.2,0.4,0.3
	c0.2,0.3,0.1,0.4,0.1,0.8C151.4,197,151.9,197.2,151.5,196.4L151.5,196.4z M148.4,196.8c0.1-0.4,0.4-0.6,0.7-0.7
	c0.4-0.2,2.2-0.2,2.2,2.4c-0.4,0.3-0.9,0.5-1.5,0.6c0.8-1,0.7,0,0.7-1.8C149.6,196.3,150,196.7,148.4,196.8L148.4,196.8z M138.7,194
	c0.7,3.1,1.7,5.1,2.2,7.2c0.4,1.4,0.7,1,1.9,0.9l2.7,6.6c0.2,0.8,0.7,1.5,0.9,2.4c-0.6,0.2-1.2,0.5-1.7,0.9c-2.3-1.2-2-2.1-3.6-4.1
	c-0.9-1.5-1.4-3.1-1.6-4.8c0.6,0.1,0.3,0.2,0.7,0c-1.7-2.5-2-3.2-2.3-6.7l0.4-1.9C138.7,193.8,138.5,194.3,138.7,194L138.7,194z
	 M236.2,195.1c0,0.7-0.4,1.4-1.1,1.7c0.1-0.3,0.2-0.6,0.4-0.8l0.5-0.6c0,0,0.1-0.1,0.1-0.1L236.2,195.1L236.2,195.1z M150.3,195.3
	c0.8,0.1,1.1,0.2,1.5,0.7C151.1,196,150.6,195.8,150.3,195.3L150.3,195.3z M236.2,195.1V195l0.2,0.2L236.2,195.1z M151.7,195h0.2
	l-0.2,0.2L151.7,195z M221.6,194.6v0.4l-0.4-0.3L221.6,194.6z M221.6,194.6v-0.2l0.2,0.2L221.6,194.6z M223.6,194
	c-0.1,0.5-1.3,2.7-2.2,2.9c0.1-0.7,0-0.4,0.4-0.9c0.2-0.2,0.4-0.5,0.6-0.7C223.1,194.2,222.9,194.2,223.6,194L223.6,194z
	 M156.7,195.7l-0.2-0.4c-1.3,0.1-1.2,1-2.7,1.1c-0.1-0.8-0.3-1.7-0.7-2.4c1.3-0.1,1.7-2.1,2.4-3.1
	C155.7,192.3,156.6,194.4,156.7,195.7L156.7,195.7z M226.2,200.8c-2.7,0-4.4,0.2-6.6-0.9V195c0.7,0,0.4,0.1,0.9-0.2
	c-0.3,5.2-0.6,4.5,1.2,4.8c4.1,0.7,8.4,0,12.4-1.3c2.8-0.9,2.9-1.5,3.9-4.5c0,0,0.2-0.4,0.2-0.4l0.3-0.4c0,1.9-1.2,5.1-3.1,5.6
	c-0.3,0.1-0.6,0.2-1,0.3C232.4,199.7,228.3,200.8,226.2,200.8L226.2,200.8z M223.6,194v-0.2l0.2,0.2L223.6,194z M212.1,193.8
	c-0.9,1.3-1.5,0.6-2.2,0C211,193.9,210.7,194.2,212.1,193.8L212.1,193.8z M207.5,193.3c0.2,0.2,0.5,0.4,0.8,0.4
	c0.9,0.3,0.5-0.2,1,0.5C208.8,194.3,207.5,195.2,207.5,193.3L207.5,193.3z M213.3,193.1c0,0.7,0.1,1.5,0.4,2.2
	c-0.7-0.1-0.5,0.2-0.9-1.5H212c0,0,0.1-0.1,0.1-0.1C212.5,193.5,212.9,193.3,213.3,193.1L213.3,193.1z M151.7,193.7h0.2l-0.2,0.2
	L151.7,193.7z M151.7,193.7l-0.9-0.4h0.7L151.7,193.7z M139.6,192.6c0.7,0.5,0.3,0.7,0.6,1.5c0.2,0.7,0.1,0.2,0.2,0.5
	c-0.1,0.5,0.1,0.2-0.4,0.4v0.6h0.6c0,0.3,0.1,0.6,0.2,0.9c-0.8-0.2-0.9-0.8-1.1-1.6C139.6,194.1,139.3,193.2,139.6,192.6
	L139.6,192.6z M221.8,198.6c0.5-0.9,0.6-0.7,1.1-1.4c0.4-0.5,0.7-1,1-1.5c1-1.5,1.3-2.4,2.6-2.5c-0.4,0.5-0.7,0.8-1.2,1.4l-2.2,2.9
	C222.9,198,222.4,198.4,221.8,198.6L221.8,198.6z M150.8,193.3l-2.4-0.2C149.3,193.1,150.4,193,150.8,193.3L150.8,193.3z
	 M213.3,193.1v-0.2l0.2,0.2L213.3,193.1z M147.3,192.9h0.7v0.2c-0.1,0-0.2,0-0.3,0C147.4,193,147.5,193,147.3,192.9L147.3,192.9z
	 M147.3,192.9l-0.4-0.1L147.3,192.9z M146.6,192.6L146.6,192.6C146.6,192.6,146.6,192.6,146.6,192.6L146.6,192.6z M202.2,192.4
	L202.2,192.4C202.2,192.4,202.1,192.4,202.2,192.4L202.2,192.4z M146.2,192.4L146.2,192.4C146.3,192.4,146.2,192.4,146.2,192.4
	L146.2,192.4z M224.3,198.8c-0.2-0.2-0.5-0.2-0.7-0.2l2.7-3.6c1.9-2.6,1.4-2.3,3.4-2.8C228.9,193.7,226.1,196.1,224.3,198.8
	L224.3,198.8z M145.8,192.2h0.2l-0.2,0.2L145.8,192.2z M145.8,192.2h-0.2l0.2-0.2L145.8,192.2z M203.2,191.1c0,0.4,0.1,0.7,0.2,1.1
	c-0.5-0.2-0.2-0.2-0.9-0.2C202.7,191.7,203,191.3,203.2,191.1L203.2,191.1z M145.3,191.8h0.2l-0.2,0.2L145.3,191.8z M145.3,191.8
	l-0.2-0.2L145.3,191.8z M145.1,191.7h-0.2l0.2-0.2L145.1,191.7z M138,193.8h-0.2c0-1-0.5-1.3,0.2-4.1c0.4-1.6,0.3-1.6,1-1.8
	c0.2,1.2,0.3,2.4,0.4,3.7c-1,0.5-0.6,0.2-1.1,1.5C138,193.5,138,193.2,138,193.8L138,193.8z M225.8,198.6c0.4-0.6,0.8-1.2,1.4-1.7
	c0.8-0.8,3.8-4.2,4.1-5.3c0.7-0.1,1.1-0.3,1.8-0.4l-1.6,2.1c-0.6,0.7-1,1.3-1.6,2c-0.2,0.3-0.2,0.2-0.4,0.5
	c-0.2,0.2-0.3,0.3-0.4,0.5c-0.2,0.3-0.1,0.2-0.4,0.5C227.4,198.5,227.5,198.6,225.8,198.6L225.8,198.6z M223.6,190.9l-0.4,0.5
	c-1.6,0.1-2.3,0.2-2.7-0.3C222.2,191.5,222.2,191.2,223.6,190.9L223.6,190.9z M223.6,190.9v-0.2l0.2,0.2L223.6,190.9z M148.8,192.4
	c-1.1-0.1-2.2-0.6-3-1.4c0,0-0.1-0.1-0.1-0.1c0.4,0,0.8,0,1.1-0.2l7.1-1.9c0.2,2.3,1.2,0.8-0.1,3.5c-0.6,1.2-0.3,0.6-1.4,1
	c-0.6-0.9-1-0.9-2.4-0.9v-0.2c0.9-0.2,1.7-0.5,2.5-0.8c0.7-0.3,0.5-0.1,0.6-0.6C151.6,191.3,149.9,191.6,148.8,192.4z M232.2,197.3
	l5.7-7c-0.5,2.1-0.4,1.5-1.6,3c-0.3,0.4-0.5,0.5-0.8,0.9l-1.3,1.9C233.7,196.9,233.7,197.3,232.2,197.3L232.2,197.3z M218.3,190.4
	c0.3,0.2,0.6,0.2,1,0.3c1,0.2,0.6-0.2,1,0.4C218,191.1,218.7,191.1,218.3,190.4z M229.3,198.1c0.5-0.7,1-1.5,1.5-2.1
	c0.2-0.3,0.2-0.2,0.4-0.5l2.8-3.6c0.7-1,0.8-1.4,2.4-1.5c-0.5,1-4.3,5.2-5.4,6.7c-0.3,0.5-0.6,0.5-0.8,1H229.3z M155,190.4
	L155,190.4C155.1,190.4,155,190.4,155,190.4L155,190.4z M236.4,190.4v-0.2l0.2,0.2L236.4,190.4z M147.5,189.6v-1.1
	c0.6,0.2,0.6,0.2,0.7,0.9L147.5,189.6z M154.4,188.7c0.4,0.3,0.2,0,0.4,0.6C154.1,188.8,154.8,189.2,154.4,188.7L154.4,188.7z
	 M244.9,188.5v0.2l-0.2-0.2L244.9,188.5z M242.8,189.2h-0.5c0.2-0.2,0.2-0.3,0.4-0.6l0.1-0.2c0.2-0.3,0.1-0.1,0.2-0.3L242.8,189.2z
	 M244.1,188.2c-0.2,0.7-0.1,0.6-0.6,0.7C243.9,188.3,243.6,188.5,244.1,188.2L244.1,188.2z M239.4,188.2c-0.2,0.7-0.1,0.6-0.6,0.7
	C239.1,188.3,238.8,188.5,239.4,188.2L239.4,188.2z M241,189.2c0.3-0.6,0.6-1.4,1.3-1.7C242.2,188.4,241.8,189.2,241,189.2
	L241,189.2z M239.4,188.2V188l0.2,0.2L239.4,188.2z M243,187.8c0.2-0.2,0.7,0.2,0.2,0.1C243.3,187.9,242.7,188.1,243,187.8
	L243,187.8z M151.7,195l-1.1-0.4c-0.3,0.2-0.7,0.4-1.1,0.6c-1.1,0.5-2.9,2-1.6,3.4l0.9,0.7c0.2,0.2-0.2,0.1,0.3,0.3
	c0,0,0.1,0,0.1,0.1c0,0.1,0.1,0.1,0.1,0.1c0.2,0,0.3,0.1,0.5,0.1c1.2,0,2.7-1.7,2.9-2.3c0.3-1.2-0.4-1.1,0.2-1.6
	c0,2.7-0.1,2.3-2.3,5.2c-1.9,2.6-1.9,4.7-1.1,8.4c0.2,1.2,0.5,1.3,0.5,2c-0.6,0.2-0.1,0-0.5,0.2c-0.6,0.4-1.2,0.6-1.9,0.5
	c-0.7-2.8-3.1-8.6-4.2-11.9c-0.3-1-0.6-2-1-3.1c-0.3-1-0.7-1.9-1-3.1l-1.9-6.3c0.5-0.3,1.1-0.5,1.7-0.6c0.8,3.3,3.1,6.2,6.8,6.8
	C149.6,194.3,151,193.8,151.7,195z M235.5,188.4v0.7H235c-0.2-1-0.5-0.6-0.7-1.5c1-0.3,0.2-0.5,1.5-0.6
	C235.6,187.5,235.6,187.9,235.5,188.4L235.5,188.4z M248.2,186.5v0.7c0.7-0.1,0.3,0.2,0.7-0.2l0.4-0.7c0.2,0.6,0.4,1.2,0.6,1.7
	c0.3,0.7,0.3,1.5,0.2,2.3c-1,0.7-1,0.9-1.7,1.1c-0.3,0.4,0,0.2-0.6,0.4c-0.7,1-3.9,1.6-5.2,1.8c-1.2,0-2.3-0.2-3.4-0.6
	c-0.4-1-0.6-2-0.6-3.1c3,0.8,6.1,0.3,8.6-1.5c0.5-0.3,0.6-0.3,0.7-0.9h-0.6c0.1-0.2,0.2-0.2,0.3-0.5L248.2,186.5z M203.6,186.5
	c2.1,2.4,0.9,4.7,3.5,6.4c0,2.1,0.9,2.6,2.6,1.5c1.7,1.5,1.6,0.2,2.5-0.1c0.6-0.2,0.4,0.6,0.4,1.3c-1.1,0.2-2.3,0.5-3.4,0.9
	l-10.2,2.8c-0.4-0.8-0.6-1.7-0.7-2.6c3.1-2.1,2.6-2.8,3.2-3.4c0.5-0.5,0.2-0.1,0.8-0.3c0,0,0.3-0.2,0.3-0.2c0.5-0.3-0.2,0,0.5-0.3
	c0.1,0.3,0.2,0.9,0.2,1.2c0.2,0.6,0.2,0.6,0.9,0.6c0-1.3-0.2-2.7-0.5-3.9c-0.2-1.1,0.1-1.1,0.1-1.9
	C203.8,187.9,203.7,187.2,203.6,186.5L203.6,186.5z M244.1,188.2c0-0.9,0-0.9,0.7-1.1C244.3,187.9,244.7,187.8,244.1,188.2
	L244.1,188.2z M239.9,189.1c0.4-1,0.9-1.8,1.7-2.6c0.3,0.6,0.2,0.5-0.9,2C240.4,189,240.5,188.9,239.9,189.1L239.9,189.1z
	 M205.1,186.9h-0.2l0.2-0.2L205.1,186.9z M247.5,186.1c-0.1,0.8-0.4,1.6-1.1,1.8C247.4,186.4,246.8,186.6,247.5,186.1L247.5,186.1z
	 M248.4,186.1l-0.2,0.4L248.4,186.1z M203.4,186.1l0.2,0.4L203.4,186.1z M248.4,186.1l0.1-0.4L248.4,186.1z M203.3,185.6
	c0.2,0.2,0.2-0.3,0.2,0.6C203.2,185.9,203.3,186.5,203.3,185.6L203.3,185.6z M247.5,186.1c0.1-0.9-0.2-0.3,0.4-0.7
	c-0.1,0.3,0.1,0-0.1,0.4C247.6,186.1,247.6,186,247.5,186.1L247.5,186.1z M236.1,188.9c0.2-0.6,0.2-1.2,0.2-1.8
	c2.2-1.1,2.4-1.8,2.4-5.3l0.9,0.9c0,0,0.1,0.1,0.1,0.1c0.4,0.5,0.8,1.1,1,1.8c0.2,0.6,0.4,0.5,0.4,1.2c-1,0.3-1.8,0.9-2.4,1.6
	C237.8,188.5,238.4,188.4,236.1,188.9L236.1,188.9z M244.9,188.5l1.3-2.5c0.4-0.7-0.2-0.5,0.7-0.8c-0.3,1.1-1.2,2.2-1.5,3.3H244.9z
	 M245.4,185.8v-0.6h0.4C245.6,185.9,245.4,185.8,245.4,185.8L245.4,185.8z M248.7,184.7c-0.8,0-1-0.2-2-0.2l0.8-0.6
	c0.3-0.2,0.5-0.4,0.8-0.7c0.6-0.6,0.9-1.4,0.8-2.2h0.2c0,0.9,0.2,0.8,0.2,1.7c-0.5,0.6-0.3,0.1-0.6,0.7
	C248.7,183.8,248.7,184.2,248.7,184.7L248.7,184.7z M142.5,185.1c-0.7,0.6-1.5,1-2.4,1.3c-1.7,0.7-3.5,1-5.3,1
	c-0.9-1.4-1.7-2.3-1.7-4.6c0.6-0.2,0.2,0,0.7-0.4c0.6-0.6,1.4-1.1,2.2-1.5c0.1,1,0.6,0.9,2.2,0.3c0.9-0.2,1.5-1,1.5-1.8
	c1.9,0,0.9-0.3,3.9,0.4c0.1,1,0.5,1.1,0.7,2l-0.2,0.1c-0.3,0.1,0.1-0.1-0.3,0.1v1.1l-1.3,0.9c-0.8,0.4-1.1,0.1-1.2,1.1
	c1-0.2,1.8-0.7,2.6-1.3c0.5-0.2,0.7-1,0.5-2c0,0,0.1,0,0.1,0l0.4,1c0.1,0.4-0.1,0.8-0.4,1L142.5,185.1L142.5,185.1z M136.1,181v-0.2
	l0.2,0.2L136.1,181z M210.6,179.7c0.9-0.6,1.4-2.2,1.7-3.1c0.7,1,0.6,3.9,0.6,5.1c-0.9-0.2-1.1-0.6-2-0.7
	C210.8,180.6,210.7,180.1,210.6,179.7L210.6,179.7z M136.5,180.8C136.5,180.8,136.6,180.7,136.5,180.8l1.1-0.6
	c0.4-0.2,0.9-0.3,1.3-0.3c0,0-0.1,0-0.1,0.1C138.2,180.5,137.3,180.9,136.5,180.8L136.5,180.8z M149,178.4v-0.4
	c1.1-0.1,2.3,0.3,3.1,1.1c-0.7,0.1-0.4,0.2-1,0.2c-1.1-0.1-2.1-0.6-3,1c1.3,0,0.9-0.4,2.4-0.4c-0.2,0.8-0.5,0.5-0.6,1.5
	c0.6-0.2,0.1,0,0.6-0.3c1.1-0.8,1.9-2,4-0.1c1.1,1.2,1.8,2.8,1.7,4.4c-0.1,1.9,0,2.3-0.9,2.4v0.4c1.4,0,0.9,0.5,1.8,0.7
	c-0.1-0.7-0.1-0.7-0.7-0.9c0.3-1,0.4-2.1,0.4-3.1l1.2,2.4c0.2,0.4,0.3,0.9,0.4,1.4c0.2,0.5,0.3,1.1,0.3,1.7c0.8,0.4,0.5,0.2,1,1
	l1.3,2.7c1.1,2.7-0.9,3.6,0.2,3.6c0.4,0,0.4-0.2,0.7-0.4c0.1,1.6,0.4,1,0.1,2.9c-0.2,1.4,1.9,4.5-0.7,6.3V206
	c-1,0.1-0.9,0.3-1.4,0.8c-0.5,0.3-1,0.5-1.5,0.7c-1.4-0.7-1.7-0.6-1.7-2.7c0.4,0.1,0.7,0.2,1.1,0.2c-0.1-0.4,0-0.3-0.6-0.7
	c-1-0.8-1.1-1.6-1.4-0.9c-0.1,0.1,0,0.2,0.1,0.5c0,0.1,0.1,0.2,0.2,0.2l0.2,0.2c-0.4,0.6-0.6,1.3-0.6,2c-0.6-0.5-1.2-1.2-1.5-2
	c0-0.3,0.9-2,0-1.7c0,0-0.6,0.4-0.7,0.4c0-0.9,0.2-0.7-0.6-0.9c-0.5,2.2-0.2-0.3-0.2,2c-1.9,0.5,0.4,0.7-3.3,0.4
	c0.1-0.6,0.4-1.3,0.8-1.8l2.6-3.4c1.5-0.7,2.3-0.1,2.3-0.1c0.6-1.1-0.1,0,2.4-1.3c0-2-0.3-2.1-0.4-3.1c0.6,0.4,0.2,0.4,1.3,0.4
	c-0.1-1.5-1.3,0.1-3.1-5.2c-0.1-0.4-0.2-0.7-0.5-1L155,188c-2.9,0-1.7-1.6-3.1-2c-0.4,0.4-0.1,0.7,0,1.1c-0.8-0.5-1.3-1.3-1.5-2.2
	c-0.2-0.7,0-0.5-0.7-0.5c0,1.9,0.8,3.7,2.9,3.7v0.4c-1.4,0-2.3,0.6-3.5,0.7c-1.3-2.5-1.8-1.3-2.6-0.7v1.5c-2,1-1.8,0.5-3.1-1.3
	c-0.6-0.6-1-1.3-1.3-2c0.8,0.6,0,0.5,0.9,0.7c0.2-0.6,0.2-0.5,0.2-1.3c0.5-0.3,1-0.7,1.4-1.1c0.6-0.4,1-1,1-1.8
	c0-0.9-0.5-3.5-1.8-3.9c0.1-0.5,0.4-0.8,0.9-1C146.7,177.3,147.5,178.4,149,178.4L149,178.4z M194.3,176.6v0.9h-0.4
	c0-0.3-0.1-0.2,0.1-0.5C194.2,176.4,194.1,176.8,194.3,176.6L194.3,176.6z M180,177c1.6,1.1,1.4,0.4,2.7,0c0,0.4,0,0.8,0.1,1.2
	c0.2,0.7-0.1,0.3,0.6,0.6c0.7-1.5-0.6-2.8,1.5-4.2c0.2,0.7,1.4,3,3.1,2.7c0.9-0.2,0.8-0.3,1.4-0.7c1.4,0.4,2.5,1.2,3.3,2.4l0.5,1
	c0.3,0.5,0,0,0.2,0.3c-0.3,0.3-0.5,0.8-0.6,1.3c1.3,0,0.3,0,0.9-0.3c0.5-0.3,0.6-0.2,1.1-0.4c-0.3-0.6-0.1-0.6-0.9-0.7
	c-0.1-0.5-0.2-1-0.6-1.5c2.6,0,4,1.4,5.2,3.3c0.2,0.3,0.3,0.4,0.6,0.7l0.7-0.2c0.4,0.6,1.7,1.6,1.6,3.3l0,1.3
	c1.1-0.1,0.4-0.2,1.1-0.7c0.1,0.8,0.4,1.4,0.4,2.2c0,1.2-0.5,2-0.7,2.9c0,0-0.1-0.2-0.1-0.1c0,0,0-0.1-0.1-0.1
	c-0.2-0.5,0-0.4-0.4-0.7l-0.5,1.5c-0.3-1.3-0.4-2.7-0.3-4.1c-0.7,0.2-0.7,0.4-0.7,1.8c-0.4-0.3-0.2-0.2-0.7-0.4
	c0.2,1.9,0.7,0.4,0.7,4.2c0,0.8-2.5,2.6-3.5,2.6c-0.9,0.1-1.7,0-2.6-0.2c0.2-0.3,0.5-1-0.1-0.8c-1,0.4,0,0.6-1.8,0.6
	c0.1,1,0.2,0.6,1.1,0.7c0.6,0.1,0.8,0.3,1.5,0.3c-1,1.5-3.9,1.5-4.2,1.1c-0.2-0.3-0.2,0.3,0-0.6c-0.7,0-4.9,1.4-5.3-3.3
	c-0.5,0.1-0.1-0.1-0.4,0.2l-0.3,0.4c-0.2-0.6-1.4-3.9,1.8-3.9c1.4,0,2.4,1.9,3.7,2.2c-0.2-1-0.5-0.8-0.9-1.5
	c0.6-0.9,1.6-0.6,2.1-0.8c0.4-0.2,0.4-0.5,0.6-0.5c0.9,0,0.9,1,1.7,1.5c0.4-0.6,0.2-0.8,0-1.5c0.6-0.2,0.4-0.1,0.7-0.6
	c-3.2-0.7-2.2-0.8-3.6-2.8c-0.3-0.5-0.1-0.3-0.6-0.5c-0.2,0.5,0,0.2,0,1.1c-1.4-0.2-2.8-0.7-4-1.5c-1.8-1.3-2-2.4-2.7-2.9
	c-0.4,0.3-0.2,0-0.4,0.6c-0.3-0.2-0.6-0.4-0.8-0.7l-1.4-1.9c-0.2-0.4-0.4-0.8-0.4-1.2c0.5,0.3,0.3,0.3,0.9,0.2c0-1-0.2-0.9-0.6-1.5
	C180.3,178,180.1,177.5,180,177L180,177z M229.3,175.9c0.4,0.2,0.8,0.4,1.2,0.5c0.8,0.2,0.6,0,1,0.6c-0.6-0.1-1.3,0.1-1.8,0.4
	C229.6,177,229.4,176.1,229.3,175.9L229.3,175.9z M189.7,174v-0.4c0.3-0.2,0.6-0.3,0.9-0.6c0.4,0.9,0.8,2.4,2.9,2.4l-0.2,2
	c-0.6-0.1-0.5,0-0.9-0.4c-0.7-0.8-1.7-1.3-2.8-1.4L189.7,174z M243.8,175c1.4-0.2,2.7,0.5,3.5,1.7c0.6,0.9,1.1,1.9,1.3,2.9
	c-0.4-0.4-1-0.6-1.6-0.6l0.3,0.6c1.1,1.4,1.5,1.8-0.2,3.4c-0.7,0.7-1.1,0.6-2,1c-0.2-1.4-0.5-2.8-0.9-4.2c0.9,0.2,0.8,0.7,1.4,1
	c0.7,0.5,0.6-0.2,0.2-0.9c-0.3-0.3-0.6-0.6-1-0.8c-0.5-0.4-0.7-0.2-1-0.8c-0.2-0.5-0.2-0.9-0.4-1.4l0.6-0.7
	c-0.1-0.1-0.4-0.7-0.5-0.7C243.3,175,243.2,175,243.8,175L243.8,175z M246,173.9C246,173.9,246.1,173.9,246,173.9
	c0.1,0.2,0.2,0.2,0.2,0.2c0.1,0.1,0.2,0.2,0.2,0.3C245.9,174.2,246.1,174.4,246,173.9L246,173.9z M245.4,174L245.4,174
	C245.5,174.1,245.4,174.1,245.4,174L245.4,174z M245.3,170.9c0.2,0.4,0.1,0.5,0.3,1c0.6,1.6,1,1.1-1.5,1.7c-2.1,0.5-1.8,1-1.3-1
	C243,171.6,243.1,171.4,245.3,170.9L245.3,170.9z M228.2,172c0.6,0.2,0.6,0.4,0.9,0.8c0.4,0.5,0.4,0.6,1.1,0.7
	c0,1.4,0.3,1.3,0.4,2.4c-0.4-0.2-0.4-0.3-0.8-0.6c-0.6-0.4-0.7-0.1-1-0.6C228.5,173.7,228.3,172.9,228.2,172L228.2,172z
	 M191.5,172.4c0.8,0.6,1,0.6,2.1,0.3c1.5-0.4,1.5-1,2.1-1.4c0,1,0.1,1.5-0.3,2.1c-0.9,1.2-2.1,1.5-3.1,0.5c-0.2-0.2-0.4-0.4-0.5-0.6
	C191.7,173,191.6,172.5,191.5,172.4L191.5,172.4z M167.9,172.2c1.6-0.4,4-0.4,5.2,1.1c0.4,0.6,0,0.5,0.9,0.6v-0.7
	c1.4,0.7,1.5,1.3,2.2,2.6l-0.7,0.2c0.9,1.7,0.2,4.2-1.5,4.2s-2.2-0.7-2.6-2.5c-0.2-0.8,0-0.6-0.7-0.8c-0.3,0.6-0.2,0.7-0.2,1.5
	c-0.5,0.2-1,0.3-1.6,0.5c-0.9,0.2-0.9-0.3-1.7-0.3c-0.6,0-0.3,0.7,0.4,1c0.3,0.1,0.8-0.2,0.8,1.9c0,0.8-0.3,0.8,0,1.5
	c0.6-0.2,0.4-0.1,0.7-0.6c0.9,0.4,1.7,0.2,3.3,2.3c1.3,1.6,0.4,1.6,0.3,2.8c1.2-0.1,0.2-0.3,1.4-0.6c1.2-0.3,0-0.9-0.2-1.2
	c-0.2-0.4-0.4-0.8-0.6-1.3c3,0.1,3.9,1.9,5.1,3.3c0.7,1,2.7,0.9,2.8,3.5c0,0.6,0.1,1.3,0.4,1.8c0.5-0.3,0.4-0.1,0.6-0.7h0.4
	c0.1,0.7,0.4,1.2,0.4,1.8c-0.1,1.1-0.4,2.1-0.7,3.1l-0.6-0.9c-0.2,0.5-0.3,1-0.4,1.5c-0.6-0.5-0.4-2.5-0.4-4c-0.8,0.3-0.7,1.2-0.7,2
	l-0.7-0.6c0,1.8,2.2,4-0.8,6c-2.3,1.6-2.7,0.8-4.5,0.8c0.1-0.3,0.2-0.6,0.2-0.9c-1,0.2-0.8,0.8-2,0.6v0.7c0.5,0.1,1.9-0.1,2.6,0.7
	c-1.9,0.5,0,0.9-4.4,0.9c0.1-0.6,0.2-0.3,0-0.7c-1.1,0.3-2.2,0.9-4.2-0.6c-0.7-0.7-1.1-1.7-1-2.7c-0.5,0.2-0.4,0.1-0.7,0.6
	c0,0,0,0.1-0.1,0.1c-0.4-1.6-0.4-0.1-0.4-2.9c0.4-0.3,1.5-1.6,3.1-0.7c0.7,0.4,2.2,1.9,2.7,2c-0.2-1-0.7-1-0.9-1.8
	c1.3-0.3-0.4-0.4,2-0.4l0.7-0.8c1.4,0.8,0.7,1,1.7,1.7c0.4-0.5,0-1.1,0-1.7c0.6-0.2,0.4,0,0.6-0.6c-3.2,0-2.7-2.8-4-3.3
	c-0.4,0.4-0.1,0.7,0,1.1c-0.8,0-1.6-0.2-2.3-0.5l-1.8-1c-2.2-1.7-2-2.5-2.7-3c-0.4,0.3-0.2,0-0.4,0.6c-1.2-0.9-2.1-2.2-2.6-3.7
	c0.6,0.3,1.5,0.3,0.4-1.3c-0.2-0.3-0.4-0.7-0.6-1.1c-0.6-1.5-0.6-3.1-0.2-4.7l0.8-1.6c0,1,0.1,1.2,0.7,1.7c0.4-0.7,0-2.8,1.3-4.2
	c4.1-4.2,5.5-0.6,5.6-0.6c0.4,0.3,0.9,0.1-0.1-1.2C168.1,172.6,168,172.4,167.9,172.2L167.9,172.2z M228.2,172H228l0.2-0.2
	L228.2,172z M230.2,172.7l-1.7-1.6l2.6-0.6C230.9,171.4,230.6,171.2,230.2,172.7L230.2,172.7z M182.5,170.5c0.5,0.4,1.5,2.6,1.8,3.3
	c-0.5,0.4-0.2,0.4-0.9,0.6c-0.1-0.6-0.2-1.3-0.4-1.9L182.5,170.5z M166.9,171.6c-1.4,0-1.6-0.2-3.1,0.7c-1.9,1.1-2,2.5-3.3,3.3
	c-1.7,1.1-2.1,3.5-2.1,5.5c0,1.5,0.7,2.3,0.7,3.3c-0.1,0.7,0,1.4,0.2,2c0.7,1.9,1.9,3.4,3.5,4.6c0.9,0.6,0.9,0,1.7,0.9
	c0.4,0.5,1,0.9,1.6,1.1c1.3,0.8,2.9,1.2,4.4,1.1c0.3,1,1.6,1.4-0.7,1.7c-0.5,0.2-1,0.4-1.5,0.7c-0.8-0.5-1.7-0.7-2.6-0.7
	c-1.3,0.1-2.3,1.1-2.4,2.4c0,1,0,2,0.7,2.8l0.7,1c0.8,1.5,2.2,1.5,2.5,2.8c0.4,0,0.9-0.1,1.3-0.2c0.2,0.8,1.1,0.6,1.7,0.7l2.5-0.5
	c1.3-0.3,0.6,0.2,1,0.2c1,0,0.9-0.5,1.5-0.7l1.6-0.8c0.1,0.7,0.3,1.4,0.6,2c-0.6,0.1-1.2,0.2-1.8,0.4l-5.6,1.6
	c-0.4-0.6-0.2-0.6-0.9-0.9c-0.2,0.8,0,0.3,0,1.3c-2.5,0.2-6.5,2.2-9,2.4c0.2-0.6,0-0.5,0-1.3l1.2-0.6c0.3-0.5-0.2-0.1,0.5-0.6
	c0.5-0.4,0.2-0.1,0.6-0.6c0.8-1.1,1.4-1.7,1.4-3.5c0-0.7-0.2-1.5-0.5-2.1c-0.9-1.8,0.4-2.3-0.7-4.6c-0.3-0.7-0.2,0.2-0.3-0.8
	c0-0.9-0.2-1.9-0.6-2.7l-2.4-4.2c-0.2-0.6-0.2-1.2-0.4-1.8c-0.3-1.4-1-2.6-1.9-3.6c-0.5-0.5-0.2,0.2-0.5-0.6
	c-0.2-0.4-0.1-0.5-0.2-0.9c-0.1-0.2-0.2-0.5-0.4-0.7l-0.8-1c0,0-0.1-0.1-0.1-0.1c0,0-0.1-0.1-0.1-0.1c-0.5-0.4-1.1-0.7-1.7-1
	c-0.6-0.4-1.7-2.1-4-2.1c-0.9,0-1,0.3-1.8,0.1c-1.8-0.3-3.7-0.6-4.7,1.4c-3.1,0-4.7-0.2-6.9,0.9c-1,0.5-2,1.1-2.9,1.9l-0.4,0.5
	c-0.8,0.9-1,2.2-0.4,3.3c1.2,3.4,1.2,3.2,4.7,3.2c-0.7,3.1-0.6,1-0.6,5c0,1.3,0.7,1.6,0.6,2.5c-0.1,1,0,2,0.2,3.1
	c0.2,0.9,0.5,1.7,0.8,2.5c0.7,1.9,0.1,4.8,2.2,7.2l1.7,2.7c0.5,1,0.4,1.8,1.6,1.9v0.4c-1.9,0-1.9,0.4-4.8-0.1
	c-0.9-0.2-1.6-0.2-2.3-0.4s-1.4-0.3-2.2-0.6c-6.4-1.9-11.9-6.9-13.9-13.4c-1.2-3.8-1.5-7.2,0.1-11c0.9-2.3,2.5-4.4,4.7-5.6
	c3.4-1.9,7.7-2.9,11.4-3.8c0.6-0.2,1.3-0.4,1.9-0.6c0.6-0.2,1.3-0.4,2-0.6l31.9-9c0.6-0.2,1.3-0.3,2-0.6c0.7-0.2,1.4-0.4,2-0.5
	c0.2,0.6,0.2,0.9,0.4,1.6l1,3.5c0.2,0.6,0.4,1.1,0.5,1.7c0.1,1.9,0,2.3,0.6,3.9c0.7,1.9-0.8,2.9,2.5,6.3c1.5,1.5,2.2,1.3,3.3,2.2
	c1.7,1.5,3.3,1.9,5.8,1.9c0.2,0.9,0.3,0.7,0.7,1.3c-0.5,0.1-0.2-0.1-0.4,0.4c-1-0.1-1.9,0.3-2.6,0.9c-1.4-0.9-1.2-0.7-2.9-0.7
	c-0.9,0-1.7,1.1-1.8,1.8h-0.4c-0.1-0.6-0.8-1.6-1.2-2.3c-1.3-2.7-2.4-2-3.1-3.1l-1-1.4c0,0-0.1-0.1-0.1-0.1l-0.5-0.4
	c-1.5-1.1-2.6-1.4-4.8-1.4c-0.8-1.2-2.1-1.9-3.5-1.8v-1.9c1-0.1,0.9-0.3,1.5-0.7c0.2,0.6,0.5,1.3,1,1.8c1.4,1.4,3.7,0.8,4.7-0.8
	c0.6-1.2,0.9-2.5,0.8-3.8c0-2.5-2.1-3.3-3.9-4.2c-1.4-0.6-2-1.2-4.5-0.8C168,171.2,167.2,171.7,166.9,171.6L166.9,171.6z
	 M232.6,170.4v0.2l-0.2-0.2L232.6,170.4z M232.8,170.2l-0.2,0.2L232.8,170.2z M182.3,170.2L182.3,170.2
	C182.4,170.2,182.3,170.2,182.3,170.2L182.3,170.2z M195.9,169.6l0.2,0.4L195.9,169.6z M188.4,169.8c0.6,0.2,2,1.6,2,2v0.7l-1.1,0.2
	C188.9,171.9,188.8,170.6,188.4,169.8L188.4,169.8z M241.2,169.4c0.6-0.1,1.2-0.2,1.8-0.4c0.1,0.6,0.2,1.2,0.4,1.8h-0.5
	c-0.1-0.9,0.2-0.3-0.4-0.7c-0.2,0.7-0.3,1.5-0.4,2.2H242C241.8,171.4,241.5,170.4,241.2,169.4L241.2,169.4z M232.8,170.2
	c0.3-0.4,0.6-0.6,1.1-0.7C233.5,170,233.5,170,232.8,170.2L232.8,170.2z M195.9,169.6l-0.2-0.4L195.9,169.6z M244.7,168
	c0.1,0.7,0.2,1.5,0.4,2.2c-0.3,0.1-0.6,0.2-0.9,0.4C244.1,169.3,243.5,168.3,244.7,168L244.7,168z M234.1,169.3l-0.2,0.2
	L234.1,169.3z M234.2,169.1l-0.2,0.2L234.2,169.1z M234.2,169.1v-0.2l0.2,0.2L234.2,169.1z M214.2,168.9h-0.2l0.2-0.2L214.2,168.9z
	 M244,167.1c-0.1,0.3-0.2,0.6-0.3,0.8c-0.4,0.7-1.9,0.8-2.7,0.8c-0.1-0.4-0.2-0.7-0.2-1.1C242.4,167.6,242.9,167.1,244,167.1
	L244,167.1z M244,167.1v-0.2l0.2,0.2L244,167.1z M227.6,170.7c0-1.4-0.3-1.3-0.6-2.4l3.9-1.1c0.7-0.2,1.4-0.3,2-0.6
	c0.6-0.2,1.4-0.4,2-0.6c-0.7,1.4,0,1.6-2.7,3.3c-0.6,0.4-2.2,0.5-3.5,1C227.8,170.9,228.6,170.9,227.6,170.7L227.6,170.7z
	 M232.4,165.6c-0.1,1,0.2,0.3-0.4,0.6L232.4,165.6z M233,165.8c0.3-1.4,0.5-2.8,0.6-4.2l0.4-0.1c0.2,0,0.4-0.1,0.6-0.1l0.6,4
	C234.3,165.6,233.7,165.7,233,165.8L233,165.8z M244,166.5c-1.1,0.1-2.3,0.6-3.5,0.7c0-1-0.5-1.3-0.6-2.4c1.1-0.4,2.3-0.7,3.5-0.9
	C244,165.1,243.5,165.5,244,166.5L244,166.5z M222.7,164.5L222.7,164.5C222.7,164.6,222.7,164.5,222.7,164.5L222.7,164.5z
	 M205.1,186.9c0.3,0.2,1.9,1.1,1.5,0.3c-0.2-0.4-0.9-0.7-1.1-0.9c-1.9-1.6-1.5-3.7-1.5-6.2c-0.1,0-0.6-0.2-0.7,1.3
	c-0.6-0.4-0.5-0.6-0.7-1.3c-0.8-1.9-0.8-3.1-1.3-5.1c0.5,0.3,0.5,0.5,1.1,0.2c-0.2-0.9-1-0.9-1.4-1.9c-0.4-0.9-0.5-1.9-0.4-2.9
	l0.7-0.4c-0.4-1.6-1.1-1-0.6-3.3c0,0,0.1,0.1,0.1,0.1c0.3,1,0.7,1.9,1.2,2.8c0.6-0.4,0.4,0.1,0.2-0.7c-0.4-1.5-1.4-4.2,0.4-5.5
	c0.6-0.5,1.4-0.8,2.1-0.8c-0.2,0.5-0.2,0.2-0.2,0.9c0.9-0.1,0.5-0.1,1-0.7c1.7-2.1,3.4,0.4,3.6,1.8c0.3,1.8-0.6,1.3,0.6,3.2
	c1,1.6,1.2,3.4,1.1,5.7c0,0.6-1.5,2.8,0,2c0.2-0.1,0.3-0.2,0.4-0.4c0.2-0.2,0.1-0.2,0.2-0.6h0.4c0.1,0.5,0.2,1,0.6,1.5
	c-0.3,0.2,0.3,0.2-0.6,0c-0.2,0.9-0.8,2.3-1.5,2.7c-0.2-0.8-0.7-1.4-1.5-1.7c0.1,0.8,0.5,1.1,0.9,2.4c0.2,1,0.4,1.9,0.4,2.9h0.6
	l0.2-0.7c2.2,0.5,3,3.2,2.9,5.3c0,1.4-0.2,1.3-0.7,2c0.3,1.4,1.6,1.6-1.3,3.5c0.1-0.7,0.2-1.3,0.2-2h-0.6c0,0.3-0.1,0.7-0.3,1
	c-1.2,2.5-3.9,0.3-4.3-0.4c-0.4-0.6-0.6-1.4-0.9-2c0.3,0,0.6,0.1,0.9,0.2C206.6,188.2,205.5,188.4,205.1,186.9L205.1,186.9z
	 M235.2,161.4c3.7-0.3,2.2-2.4,3.9,3.9c1.7,5.9,3.1,11.7,4.9,17.7c0.3,1.1,0,0.8,0.3,1.5c0.3,0.6,0.5,1.3,0.4,2
	c-1.2,0.3,0,0.4-2.4,0.4c0-0.5-0.2-1-0.5-1.5c-0.1-0.2-0.2-0.4-0.2-0.5l-2.2-5c-0.3-0.6,0-0.6-0.7-0.7v0.9l-0.6-0.6
	c0,0-0.1-0.1-0.1-0.1c-0.6-0.8,0.2-0.2-1.9-1.2c-1.1-0.4-2.2-0.9-3.2-1.4c-1.3-0.7-2.1-2-2-3.5c0-0.6,1.6-1.9,2.2-2.3
	c1-0.6,1.8-1,2.2-2.2c0.4-1.2,0.5-2.4,0.4-3.7L235.2,161.4z M138.9,160.5c-0.1-0.2-0.1,0-0.2-0.4c0-0.2,0-0.4,0-0.5h0.2V160.5
	L138.9,160.5z M138.5,158.6c0.1,0.1,0.1,0.1,0.2,0.3c0.2,0.4,0,0.1,0.1,0.4h-0.4L138.5,158.6z M229.1,158.3v0.6
	c-0.6-0.1-0.3,0-0.7-0.2C228.8,158.1,228.3,158.3,229.1,158.3L229.1,158.3z M195.5,158.5c0-0.4,0.3-0.1,0.1,0
	C195.7,158.5,195.5,159,195.5,158.5L195.5,158.5z M138.7,158.3L138.7,158.3C138.7,158.3,138.7,158.3,138.7,158.3L138.7,158.3z
	 M139.1,157.7v0.2l-0.2-0.2L139.1,157.7z M139.2,157.3l-0.2,0.4L139.2,157.3z M195.2,155.5c0,0.8,0.2,1,0.2,2
	c-0.6,0.2-0.3,0.1-0.7,0.4l-1.5-0.7L195.2,155.5z M225.1,156.2v0.2l-0.2-0.2L225.1,156.2z M214.2,168.9h1.7c0,0-0.1-0.1-0.1-0.1
	l-2.1-1.6c-0.3-0.3-0.6-0.6-0.8-1c-1-1.3-1.1-3-0.2-4.4c0.7-1.1,0.9-1.2,2.3-1.5v-0.7h-0.6c0.9-1.2,3.4-0.3,4.8,1
	c1.2,1.2,2.2,2.7,2.9,4.3c-0.2,0.3-0.7,0.8-0.8,1c-0.3,1.3,1.2-0.3,2.1-0.6c0.9-0.2,0.5,0.2,1.3-0.1c-0.3-0.5-0.3-0.7-1.1-0.7
	c-0.2-0.8-0.3-1.7-0.4-2.6c0-1.7,0.2-3.4,1.6-4.3c0.7-0.5,1.5-0.8,2.3-0.8c-0.2-0.7-0.1-0.6-2-0.6c1.5-1.3,3.1-0.2,3.7,0
	c0,0.7-0.1,0.6,0.2,1.1c-1.1,0.3-1.2,1.4-2.3,1.9c-0.6,0.3-0.5,0.2-0.7,0.8c1-0.1,1.4-0.7,2.5-0.6c1.1,0.1,0.5,0,1.7,1.8
	c1,0,1.3,0.2,2.4,0.2c-0.1,1.8-0.7,3.6-1.7,5.1h-1.9c-0.2,0.6,0,0.5-0.7,0.6c0-0.9,0.2-1.8,0.5-2.7c0.5-1.1,0.9-1.1,1.2-2.1
	c-1.6,0.8-2,0.9-2.5,3.4c-0.2,1.1,0,0.8,0.1,1.7c-0.5,0-0.9,0.1-1.3,0.4c0.1,1,0.3,1.9,0.5,2.8l2.5,7.6c1-0.1,1-0.6,2.4-0.6
	c0.3,0.6,0.6,1,1.1,1.5c0.1-0.6,0-1.2-0.4-1.7l3.1,1.5c0,3.4-1,2.3-0.6,3.3c0.8-0.7,1.3-1.7,1.5-2.7c0.4,0,0.7,0.3,0.8,0.6
	c0.6,1.3,0.7,2.7,0.4,4.1c-0.6,2.9-1.9,1.9-4.4,1.9c0.2-0.9,0.6-0.7,0.2-1.5c-0.6,0.4-0.2,0.2-0.6,0.8c-0.4,0.6-0.5,0.2-0.6,1
	c0.7,0,1.4,0.1,2,0.4c-1.4,0.8-3.1,0.4-4-0.9c-0.4-0.6-1-1-1.6-1.4c-0.6-0.5-0.9-1.2-1-1.9c0.6-0.3,1.1-0.6,1.3-1.3
	c-0.6,0.2-1.2,0.4-1.7,0.6c-0.7,0.2-1.4,0.3-2.1,0.2v0.6c0.3,0.1,0.6,0.2,0.9,0.2c0,1.3,0,1.3-0.6,2c-0.6-0.4-0.4-0.5-1.3-0.7
	c0,1.3,1.8,2.7-0.2,4.7c-0.6,0.6-1.5,1.7-3.2,1c-0.8-0.3-0.7-0.6-0.8-0.8c-0.8,0.1-0.3,0-0.9,0.4c-0.4-0.6-2.3-1.9-2.6-4.6
	c-0.1-0.9,0.4-1.4,0.4-2.2h0.2c0,1,0.4,2,1,2.9c0.3,0.4,0.6,0.7,1.1,0.9c0.7,0.3,1,0.4,1.4-0.1c-0.5-0.1-0.2,0-0.6-0.3
	c-1.4-1.2-2.2-3-2.1-4.8c0,0,0.1,0,0.1,0.1c0.6,0.8,1.4,1.6,2.3,2.1c-0.1-0.5,0-0.3-0.4-0.9c-2-2.4-1.7-3.1-1.4-5.2
	c0.1-0.9,0.4-1.6,0.6-2.4c0.9,0.2,2.1,0.6,2.4-0.6c-1.2,0-2.4-0.4-3.3-1.3l-2.3-2.5C215.1,170.2,214.6,169.6,214.2,168.9
	L214.2,168.9z M192.1,156.8c-0.4-0.2-0.8-0.3-1.3-0.4v-0.3c0.7-0.3,1.4-0.6,2-1.1l2.2-0.9v1.1C193.7,155.5,193,156.1,192.1,156.8
	L192.1,156.8z M193,153.5L193,153.5C193,153.5,193,153.5,193,153.5L193,153.5z M241.2,155.7l-0.7-2.5l0.1,0c0.6,0.8,1,1.8,1.1,2.7
	c-0.1,1.6,0.9,1.7-2.8,3.5c-2.1,1-3.3,1.1-5.5,1.1c-4.2,0.9-3.5-1.9-3.9-4.8c0.5-1,0.9-1.1,2.3-1.8c0.9-0.5,1.8-0.8,2.7-0.9
	c1-0.2,2.1-0.5,3.1-0.6c1-0.1,2.4,0.1,2.9,0.7c-0.5,0.1-0.3,0-0.6,0.4c0.4,1.4,0.6,2.8,0.6,4.2C241.6,157.9,241.4,156.9,241.2,155.7
	L241.2,155.7z M194.6,152.9L194.6,152.9C194.7,153,194.6,153,194.6,152.9L194.6,152.9z M194.8,151.6l0,0.6h-0.6L194.8,151.6z
	 M241.4,150.6c1.4,0,2.7,2.3,2.7,3.9c-0.5-0.4-0.2-0.4-0.9-0.6c0.1,1.3,0.9,2.4,0.9,4c0,1.5-0.2,2.3-0.2,3.9c0.4,0,0.1,0.1,0.4-0.1
	l0.3-0.3c0.7,3.1,0.9,1.4,0.9,5.9c-0.5-0.4-0.3-0.3-0.5-0.9c-0.1-0.4-0.2-0.7-0.3-1.1c-0.2-0.7-0.5-1.5-0.8-2.1l-4.4,1.1
	c-0.1-1.1-0.8-2.6-1.1-3.7c0.9-0.3,1.8-0.7,2.5-1.3c2-1.3,1.7-3,0.7-5.4c-0.4-0.9-0.9-1.8-1.9-1.9c0.1-0.2,0.2-0.3,0.3-0.4
	C240.4,151,240.8,150.6,241.4,150.6L241.4,150.6z M237,151.1h2.2c-0.1,0.4,0,0.6-0.6,0.6h-0.7c-0.3,0-0.6-0.1-0.9-0.2L237,151.1z
	 M189.3,151.1c-0.4,0.6-0.2,0.6-0.6,0H189.3z M189.3,151.1v-0.2l0.2,0.2L189.3,151.1z M189.3,152.9c0.1-0.7,1-2.2,1.8-2.4
	c-0.2,0.6-0.4,0.6-0.8,1.2C190.1,152.2,189.7,152.6,189.3,152.9z M144.6,150.6v0.2l-0.2-0.2L144.6,150.6z M192.1,152.7l2.7-3.5v1.1
	c-0.5,0.3-1,0.8-1.3,1.3C193,152.3,193,152.5,192.1,152.7L192.1,152.7z M193,150.2c-0.5,0.7-1.9,2.7-2.7,2.9c0.5-0.9,1.3-1.6,2-2.9
	H193z M193,150.2V150l0.2,0.2L193,150.2z M203.3,185.6c-1.9-1.3,0-2.2-3.7-4.3c-0.7-0.4-1.6-3.3-4.7-3.5v-2.4c1-0.5,1.7-1.4,1.9-2.5
	c0.3-1.3,0.6-2.3,0.1-3.7c-0.2-0.5-0.5-0.9-0.8-1.4c-1.4-1.6-1.4,0.1-3.3-3.5c1.4,0.3,2.7,0.2,4-0.4c1.3-0.6,1.6-1.2,1.6-3.1
	c0.8,0,4.8-1.3,6-1.6l11.9-3.4c5-1.6,12.5-3.6,17.8-5.1c1-0.3,4.8-1.3,5.8-1.8c1.5-0.8,7.5-1.4,9.8-1.6c2.4-0.3,8.1,0,10.4,1.1
	l3.5,2c0.7,0.5,0.6,0.3,1.1,1c2.9,3.9,4.8,9.9,4,14.6l-1,2.8c-0.6,1.8-1.4,3.5-2.4,5.1c-1.9,3-6.3,6.9-7.2,7.2l-5.4,3
	c-1.1,0.5-2.2,0.7-3.4,0.9c0-1.6,0.6-1.5,0.7-2.2c-0.1-0.6-0.2-1.1-0.2-1.6c0-1.4,0.2-2-0.6-3.1c-0.2-0.4-0.4-0.8-0.6-1.2
	c-0.5-1-1.3-1.3-1.7-2c-0.7-1.3-0.3-3.8-0.2-4.5c0.1-0.6,0-1.1-0.3-1.6c-0.2-0.8,0.2-2.2,0.3-3.2c0-2-0.6-3.9-1.9-5.5
	c0.1-0.7,0.2-1.4,0.2-2c0-0.7-0.3-1.4-0.3-1.8c0.1-1.5,0.6-1.8-0.1-3.7c-0.3-1-1-1.9-1.9-2.6c-0.8-0.5-1.8-0.5-2.6-0.1
	c-0.7,0.5-0.3,0-0.5,0.6c-1.4-0.1-1.5-0.8-3.1,0c-0.6,0.3-0.6,0.5-1.5,0.6c-2.1,0.1-1.5,0.8-2.6,1.5c-0.5,0.2-1,0.4-1.4,0.6
	c-0.7,0.5-1.9,1.1-2.1,1.9c-2.3-0.5-3.7-1.3-5.5,1.1c-0.8,1-1.3,3.3-1.3,4.6c0,0.7,0,1.4,0,2c-0.9-0.6-3-5.9-7.4-4.7
	c-1.6,0.4-1.7,1.4-2.6,2.3c-3.1,3.2,0.1,6.8,0.2,7c0.7,1.7,1.7,3.2,2.9,4.6c0.7,0.8,1.6,2.1,2.7,2.4c-0.3,1.5-0.9,3.1-1,4.6
	c-0.2,1.4-0.1,1.6-0.8,2.7c-0.1,0.1-0.2,0.3-0.2,0.5c-0.2,0.3-0.4,0.6-0.5,1c-0.4,1.6-0.2,3.3,0.6,4.7c0.8,1.4,1.5,1.6,1.8,2.4
	c0.1,0.3,0.3,0.7,0.5,1c2.3,0,1.7,0.4,3,0.5c2.9,0.2,3-1,4-3.1c0.5-1,0.6-2,0.4-3.1c1-0.7,0.8-0.9,1.1-2.2l0.4,0.7
	c0.1,0.2,0.3,0.4,0.5,0.6c0.6,0.6,0.4,0.7,1.5,0.7c0,1.4,1.5,2.6,2.7,2.7c1.1,0.2,2.1-0.8,2.6,0.9c-1.4,0.6-16.9,4.9-19.7,5.7
	c-0.8,0.2-0.8,0.2-1-0.6c-0.5-2.2,1.4-2.6,0.1-5c1.2-2.3,0.4-5.1-0.7-6.8c1.1-2.2,0.5-7.2-1.7-8.6c0.5-2.2,0.1-5.8-1.8-7.2
	c0.5-1.4,0.2-3-0.6-4.2c-1.7-2.3-3-1.2-3.9-1c-0.3,0.1-0.7,0-1.2,0.1c-0.7,0.1-1.3,0.3-1.9,0.7c-1.2,0.7-1.9,2.1-1.7,3.4
	c-0.7,0.2-0.9,0.8-1,1.5c-0.1,0.7,0.1,1.5,0.5,2.1c-2.1,3.1,0.7,3.8,0.5,5.8l0,2C201.1,180.9,203.3,182,203.3,185.6L203.3,185.6z
	 M144.6,150.6c1.5-2.3,4.2-3.3,6.5-4.7c0.8-0.5,2-0.3,3.6-0.3c1.7,0,3.8,1.4,5,2.5c0.3,0.3,0.6,0.6,1,0.8c0.4,0.3,0.7,0.6,1,1
	c0.6,0.7,1.3,1.3,2,1.9c0.3,2.8,1.2,5.5,2.7,7.9c1.9,2.6,3.2,2.7,5.4,3.9c0.7,0.4,0.3,0.2,0.6,1c0.4,0.6,0.8,1.3,1.3,1.8l-1.1,0.2
	l-1.2-0.8c-0.8-0.5-3.4-2.3-4.1-2.3c0.3,0.8,0.9,1.5,1.7,2c0.4,0.3,0.7,0.5,1.1,0.7c0.7,0.4,0.9,0.2,1.1,1c-1.1,0-1.6-0.5-2.6-0.7
	c0.1,0.7,0.1,0.7,0.7,0.9c-0.4,0.6,0,0.2-0.8,0.5c-0.3,0.1-0.6,0.2-1,0.3c-0.7,0.2-1.4,0.4-2.1,0.5c0-3.9-4.5-15.6-6.3-17.9
	c-0.6-0.7-0.8-1.4-2-1.5c-0.2,0.9-0.1,0.7,0.7,2.3c1.2,2.3,2.3,4.7,3.1,7.2l1.3,3.6c0.2,0.6,0.2,0.8,0.5,1.4
	c0.6,1.8,1.1,3.7,1.4,5.6c-1.9,0.4-3.7,0.8-5.5,1.5l-16.6,4.8c0-1.6-0.6-2.4-1-3.6c-0.2-0.5-0.4-1.3-0.5-1.7l-1.3-5.6
	c-0.3-1.3-0.5-2.7-0.6-4l0.1,0.2c0.2,0.7,0,0.5,0.2,1h0.7c0-3.1-1-2.2,0.3-3.9c0.3-0.4,0.5-0.7,0.8-1.1c0.6-0.7,1.1-1.5,1.5-2.4
	c-1.1,0.5-0.6-0.1-1.9,1.2c-0.6,0.6-0.8,1.3-1.4,1.7c0.3-1.1,1.4-2,2.2-2.8c1.8-1.6,3.9-2.9,6.2-3.7c1.5-0.6,2.3-1,3-2.1
	c-1.6,0.2-3.1,0.6-4.6,1.3C145.5,150.2,145.1,150.4,144.6,150.6L144.6,150.6z M186.8,147.4c0,3.4,3.2,1.9,3.3-0.4c0,0,0.1,0,0.1,0.1
	l0.6,0.8c0.8,0,2.4,0.2,2.6-1.7c0.4,0.3,0.9,0.6,1.5,0.7v1.7l-5.4,1.2c-0.6,0.2-1.2,0.4-1.8,0.6c0.1,1.1,0.9,2.5,1.5,3.7
	c1.9,0,2.5-0.5,3.7-0.6l-2.8,1.8c-0.3,0.2-0.2,0-0.5,0.2c-0.2,0.1-0.3,0.2-0.5,0.4c-0.8-1.2-0.1-0.4-0.6-2l-1.3-4.2
	c-0.3-0.7-0.5-1.3-0.9-1.9c0,0,0.1-0.1,0.1-0.1L186.8,147.4z M187.8,148.4c0-0.6-0.1-0.9,0.4-1.3c0.4-0.3,0-0.2,0.7,0
	C188.9,147.9,188.7,148.3,187.8,148.4L187.8,148.4z M186.9,147.1l-0.2,0.4L186.9,147.1z M191.1,146.9c0-0.6-0.1-0.7,0.4-1
	c0.2-0.1,0.7-0.2,0.7,0.2C192.2,146.8,191.8,146.9,191.1,146.9L191.1,146.9z M194.6,145.1h0.2v0.7h-0.2V145.1z M226.6,139v0.2
	l-0.2-0.2L226.6,139z M226.7,138.8l-0.2,0.2L226.7,138.8z M226.7,138.8l0.5-0.6C227.1,138.8,227.3,138.7,226.7,138.8L226.7,138.8z
	 M193,139.5c-0.3-1.2-0.4-1.1,0.4-2.2c2,0.2,1.6,1.3,1,1.9C193.9,139.7,193.8,139.5,193,139.5L193,139.5z M187.7,138.1
	c1.7,0.4,3.3,1,1.9,3.5c-0.2,0.3-0.9,1.2-1.3,0.8C188,142.2,188,138.8,187.7,138.1L187.7,138.1z M226,138.3c0.1-0.8,1.2-1.8,1.8-2.2
	c-0.1,1.1-0.7,0.8-1.6,1.9c0,0-0.1,0.1-0.1,0.1L226,138.3z M186.9,147.1c0.2-0.6,0.4-1.1,0.7-1.7c0.2-0.6,0.4-1.2,0.6-1.8
	c0.9,0.1,1.7-0.4,2.1-1.2c0.2-0.3,0.5-0.6,0.6-1c0.2-0.5,0.3-1,0.3-1.5c0.1-1.4-1.2-3.4-3.9-2.7c-0.1-0.3-0.2-0.6-0.2-0.9
	c2.1-0.4,4.3-0.6,6.4-0.7c0.7,0,1.3-0.3,2-0.4l-0.2,1.5c-1.6-0.8-0.7-0.6-2.2-0.2c-0.8,0.2-0.5-0.1-1,0.4c-1.8,1.7-0.5,5.3,2.7,3.6
	l-0.2,3.5c-1.1,0-1.2,0.5-1.5,1.5l-0.2-0.3c-0.9-0.8-2.9-0.3-3.1,1.8l-0.7-0.9c-1.3,0-1.2-0.1-1.5,0.3L186.9,147.1L186.9,147.1z
	 M187.3,143.4c-0.1,0.7-0.3,1.3-0.6,1.9c-0.2,0.6-0.6,1.2-1,1.7l-1.6-2.8c-0.7-0.9-2.5-0.5-3.5-0.5c-0.7,0-0.6,0.2-1.3,0.4v0.6
	l4.3,0.1l1.2,2.6l-0.2,0.2l-1.1-2.5l-2-0.2c-0.9,0-0.7-0.2-0.9,0.6c0.7,0.2,1.5,0.3,2.2,0.2c0.5,0.9,1,2.3,2,2.6
	c-0.2-0.6-0.2-0.6,0-0.9c0.2,0.6,2.2,5.6,2.9,8.6c-2.9-0.2-5.1-1.9-8.1-1.1c-0.7,0.2-0.7,0.1-0.9,0.7c0.9,0.4,0.1,0,1.1,0h2.4
	c0.9,0,0.6,0.2,1.3,0.2v0.2c-1.4,0-4.2,1.5-5.2,2.1c-0.8,0.5-3.9,2.4-3.9,3.5c0,0.5,0.3,0.6,0.7,0.6c0.5,0,0.8-0.5,1-0.8
	c1.9-1.9,6.8-4.4,10.1-4.4c3.6,0,6,1.2,8.7,2.9c0.9,0.6,1.7,0.9,2.3,1.7c-0.5,2.2-2.8,1.7-4.4,1.3c-2.2-0.4-1.1-0.5-4-3.1
	c-0.5-0.5-0.2-0.4-1-0.4c0,0.9,0.8,1.5,1.6,2.6l2.8,3.6c0.3,0.4,0.6,0.8,0.9,1.3c0.3,0.5,0.5,0.9,0.8,1.4c0.5,0.8,0.8,1.7,0.7,2.6
	c-2.8,1.9-2.7,0.4-5.4-2.3c-3.4-3.5-1.2-1.3-3.7-5c-0.3-0.5-0.7-0.8-1.3-1c-0.6,0.8,1.6,3.3,2.4,5.6c0.2,0.5,0.2,0.9,0.4,1.4
	c0.6,1.6,2.2,4.9,1.1,6.1c-1,1-1.9-1.3-2.3-1.9l-4.4-8.1h-1.1c-0.1,0.8-0.1,1.6,0.2,2.4l1.2,4.7c0.3,0.9,0.6,1.9,0.7,2.8
	c-0.3,0.2-0.6,0.4-0.9,0.6c-1.2-0.6-1.1-1.4-1.6-2.8c-0.7-2.3-1.3-4.4-2.2-6.6c-0.2-0.5-0.5-0.9-0.9-1.3c-0.6-0.6-0.6-0.7-1.5-0.5
	c0,0.3,0.1,0.6,0.2,0.9c-1-0.3-1.5-1.2-1.9-2.1c-0.3-0.4-0.5-0.9-0.6-1.5c-0.2-0.8,0-1.1-0.3-1.7c-0.6,0.2-0.7,0.4-0.7,1.5
	c-1.5-0.8-2.9-1.9-4.1-3.1c-2-2-2.5-5-3.1-7.5c-0.2-1-0.4-2-0.7-2.9c-0.6-1.9-1-3.9-1.4-5.9c-1.6,1.1-0.6,4.1-0.2,5.7
	c-0.6-0.2-0.5-0.2-0.9-0.6c-0.2-0.3-0.5-0.5-0.8-0.7c0-2.1-0.5-4.3,0.6-6.2l2.2-3.3c0.7-0.9,1.9-1.4,1.7-1.8
	c-0.3-0.9-4.9,2.8-5.7,6.6c-0.1,1.2-0.1,2.4-0.1,3.6l-3.5-1.7c0.1-2.5,0.7-5,1.9-7.3c1-2,2.3-3.9,3.6-5.7c1.2-1.6,3.5-4.3,5.2-5.2
	c0.6-0.3,0-0.1,0.8-0.3c1.9-0.6,6-0.8,6.3-0.9c0.5,0.7,3.1,1.9,4,2.4c2,1.2,3.9,2.7,5.6,4.3c1.4,1.4,2.8,4.9,3,6.9
	c-0.8-1-1.6-2.1-2.5-3c-0.6-0.6-2.7-1.9-3.7-2c0,1.1,0.1,0.7,0.8,1.2c1.8,1,3.3,2.4,4.4,4C186,139.6,187.3,142.4,187.3,143.4
	L187.3,143.4z M212.8,128.6c0.8,0,0.4,0,0.9,0.2l6.2,2.3c1,0.6,1.8,1.4,2.4,2.4c1.3,1.6,0.9,1.6,1.5,3.2c0.4,1.1,0.9,2.4,1.2,3.5
	c0.3,1.2,0.8,2.3,1.2,3.5c0.1,0.3,0.1,0.6,0.2,0.9c0.1,0.3,0.2,0.5,0.4,0.9l2.1,5.2c-0.9,0.3-1.8,0.6-2.7,0.7c0.4-0.9,0.2-3.3,0-4.2
	h-0.4c0,1.1-0.2,2.2-0.4,3.3c-0.2,1.5-0.2,1.3-2.1,1.8l-17.9,5c-1.8-3.3-1.7-7.2-2.3-10.2c-0.2-0.5-0.2-1-0.3-1.5
	c-0.3,0-0.6-0.2-1.1,0.8l-0.2,1.4c-0.1,2.4,0.2,4.8,0.9,7.2c0.4,1.7,0.9,2.2,1.1,2.9l-5.1,1.5c-0.6,0.3-1.2,0.3-1.9,0.2
	c0.5-1.9,0.2-3.1-0.1-5.6l-0.2-5.9c0-0.3,0-4.8,0.1-5.9l1.4-8.3c0.5-2,0.5-2.1,3-3.6c2-1.3,5-2.6,7.5-2.1c1.5,0.2,4,1.6,5,1.6
	C213.3,128.8,213.2,129.1,212.8,128.6L212.8,128.6z M181.6,128.6L181.6,128.6C181.7,128.6,181.6,128.6,181.6,128.6L181.6,128.6z
	 M212.8,128.6h-0.2l0.2-0.2L212.8,128.6z M247.5,119.5v-0.2l0.2,0.2L247.5,119.5z M249.5,115.5L249.5,115.5
	C249.5,115.6,249.5,115.5,249.5,115.5L249.5,115.5z M249.9,115.2v0.2l-0.2-0.2L249.9,115.2z M250,114.8l-0.2,0.4L250,114.8z
	 M250,114.8v-0.2l0.2,0.2L250,114.8z M213.2,114.6v0.2l-0.2-0.2L213.2,114.6z M250.4,114.2v0.2l-0.2-0.2L250.4,114.2z M250.4,114.2
	v-0.2l0.2,0.2L250.4,114.2z M250.8,113.7v0.2l-0.2-0.2L250.8,113.7z M250.8,113.7v-0.2l0.2,0.2L250.8,113.7z M170.4,87.1
	c1,0.5,3.1-0.2,4.2-0.2l-4.7,4.2c-1.6,1.9-2.7,2.8-3.7,5.4l-1.3,3.1c-0.5,1.1-0.8,2.3-1.1,3.5c-0.6,2.3-1.5,7.6-1,10.4
	c0.2,0.8,0,1.5,0.2,2.4c0.8,3.9-0.3,0.9-0.3,4.3c0,0.3,0.1,0.6,0.2,0.9c-1.6,1.1-1.9,4.6-2.1,6.5c-0.2,1.7,0.9,1.6-1.1,3.9
	c-1,1.1-3.1,4.7-3.4,5.9H156c0-0.6-2.5-17.3-3.2-18.2c-0.2-0.3,0-0.2-0.4-0.3c0,1.9,0.9,6.5,1.2,8.5c0.6,3.2,1,8.2,2,11
	c0.3,0.8,0.2,0.3-0.3,2.5l-1.8-9.4c-0.3-2-2.9-17.1-3-19.3c0-0.8-0.2-1.6-0.3-2.5l-0.2-2.7c-0.2-2.7-0.6-4.2,0.6-7.1
	c2-5.3,4.5-7.6,9.2-10.6c4.4-2.9,4.1-2,8.4-2.8c2.5-0.5,7.9-1,9.9-1.4c-0.7,1-2.6,0.9-3.7,1C172.8,86.4,171,86.2,170.4,87.1z
	 M262.7,86l-1.5-0.7c0.8-1,1.7-1.9,2.6-2.7c0.9-0.9,1.4-2.8,2.2-3.4c1.1,2,1.1,2.3-1,4.7C264.4,84.7,263.6,85.4,262.7,86L262.7,86z
	 M259.9,84.7c-2.4-1.1-1.4-0.8,1.1-4.1c0.8-1.1,1.5-2.2,2-3.5c0.3,0,0.7,0.1,0.9,0.4c0.7,0.5,1.2,0.7-0.1,2.7
	C262.9,81.8,261.6,83.8,259.9,84.7L259.9,84.7z M258.1,77.7l-0.2,0.2L258.1,77.7z M258.1,77.7v-0.2l0.2,0.2L258.1,77.7z M258.5,77.2
	v0.2l-0.2-0.2L258.5,77.2z M258.5,77.2V77l0.2,0.2L258.5,77.2z M259,76.4c1.3-2,3.1-0.7,3.1,0c-0.2,0.6-0.4,1.1-0.8,1.6l-2.9,4.5
	c-1.9-0.4-1-1.2,0.1-3c0.8-1.3,1.5-2.4,0.9-2.9C258.9,76.3,259.2,77.1,259,76.4L259,76.4z M257.9,77.9c-0.5,1.9-2.3,3.2-1.7,4.5
	c0.2,0.6,0.8,0.9,1.4,0.8c0,0.7,0,1.4,0.6,1.9c0.6,0.5,1.4,0.7,2.1,0.6c0.2,0.5,0.7,0.9,1.3,0.9c0.6,0.2,0.1,0.1,0.5,0.2
	c1.2,0.5,2.3-0.5,3-1.3l2.6-3.5c1-1.8-0.3-0.4,1.9-2.2c0,0,0.1-0.1,0.1-0.1l0.6-0.6c0.1-0.2,0.2-0.2,0.3-0.4
	c0.3-0.3,0.5-0.5,0.7-0.7l1.5-1.6l0.7,0.2c0,0.9-1,2.2-1.5,2.9c-1.8,2-3.3,4.1-4.6,6.4c-0.8,1.5-1.4,2.7-2.8,3.8
	c-0.7,0.5-3.1,4-3.7,5.1c-1.1,1.9-0.6,1.1-1.2,3.4c-2.8,11.3-4.4,8.5-6.4,11.4c-1.9,2.9-0.7,1-2,2c-2.9,2.2-3.2,5-4.3,6.7
	c-0.4,0.6-0.8,1.2,0.4,0.9c-0.2,0.9-1.7,2.3-2.3,3c-2.2,2.2-4.4,1.3-7.6,3.1c-0.5,0.3-1,0.7-1.5,1c-0.2,0.2-0.5,0.4-0.6,0.6
	c-0.4,0.4-0.4,0.3-0.6,0.9c-2.2-0.6-5.9-8.9-6.7-11.3c-0.2-0.7-0.3-1.4-0.8-1.8c0,4.3,2.3,8.4,4.6,11.9c0.2,0.2,0.3,0.5,0.6,0.7
	l1.5,1.5c0.5,0.5,0.2,0.4,1,0.4c0.3-0.8,0.9-1.5,1.7-2l0,1.5c-0.1,0.8-0.2,1.1-0.2,1.8c-1.3,0.3-2.7,1.3-4.1,1.8
	c-1.5,0.5-3.4,0.6-4.7,1.2v0.7h0.6c-0.4,0.4-0.8,0.8-1.3,1.1c-0.6,0.5-0.7,0.9-1.4,1.1c-0.7-2.8-2.5-5.3-4.9-7
	c-1.3-0.8-2.6-1.4-4-1.8c-3.2-1.3-6.7-1.8-10.2-1.4c-1.6,0.2-3.2,0.6-4.6,1.4l-2.6,1.8c-0.9,0.5-1.7,1.2-2.3,2.1
	c-0.3,0.8-0.6,1.6-0.7,2.4c-1.8,0-7.7,0.6-9.2,1.3c-0.1-1.6-2.2-4.4-3.4-5.4l-1.5-1.3l-0.1-0.1c1.9,0,4.1,1,6,1.1
	c3.9,0.1,5.5,0.7,9.5-1c0.6-0.2,0.5-0.1,0.6-0.7c-0.8,0.1-1.6,0.2-2.3,0.4c-0.8,0.2-1.6,0.3-2.4,0.3c-0.9,0.2-1.7,0.2-2.6,0.2
	c-0.7-0.1-0.5-0.2-1.3-0.2l-3.9-0.4c-2.6-0.4-5.1-1.2-7.4-2.3c-0.4-0.2-0.6-0.3-1-0.5c-1.9-0.9-3.5-2-5-3.4l-4.7-5
	c-0.3-0.4-0.3-0.5-1-0.5c0.2,1.9,2.7,4.2,4,5.6c0.6,0.5,1.2,1,1.7,1.6c-1.5,0-3.5,0.3-4.8,0.4c-0.9,0.1-2.7,1.5-3.2,2.2l-2.1,1.8
	c0-2.7,0.7-3.9,1.3-6.2c1.1,0.3,1.7,1.5,2.9,0.9c-0.2-1-1.3-1.3-2-2.1c-0.8-1-0.3-2.2,0.2-3.1c-0.1-0.5-0.3-0.6-0.3-1
	c-0.2-2.2-0.3-4.4-0.2-6.6c0-4.5,1.5-9.2,3.2-13l1.9-3.6c0.8-1.3,4-4.4,5.5-5.5c1.6-1.2,3.3-2.2,5.2-2.9c0.7-0.2,1.5-0.4,2.3-0.5
	c5.6-1,10.4-0.8,15.8,1c0.3,0.1,0.6,0.2,0.9,0.4c1,0.4,1.9,0.8,2.9,1.4c2.2,1.5,4,3.4,5.3,5.7c-0.4-0.1-0.8-0.3-1.1-0.5
	c-0.4-0.2-0.7-0.3-1.1-0.5c-0.7-0.4-1.5-0.7-2.3-1l-0.3,0.4c0.5,0.9,2.9,1.7,4.6,2.8c2.3,1.5,4.1,3.7,5,6.3c0.4,0.9,0.7,1.9,0.9,2.9
	c0.2,1.4,0.4,6.4,0.6,6.8c0.4-0.3,0.4-0.3,0.6-0.9c0.1-0.5,0.2-0.8,0.2-1.3c0-0.9,0-1.9-0.2-2.7c-0.2-3.1-1.3-6.2-3.1-8.8
	c-0.2-0.3-0.4-0.4-0.7-0.8l-1.5-1.5c-0.4-0.6-0.7-3.4-4.2-6.3l-3.5-2.5c-2.3-0.9-4.6-1.5-7-1.9v-0.2c2.7,0,3.3-0.5,5.7,0.3
	c4.7,1.6,6.4,3.3,10.2,6c2.7,1.9,2.7,3.3,3.5,6.2l0.7,2.4c0.2,1,0.3,1.8,0.5,2.8c0.1,0.8,0.3,1.8,0.5,2.7c0.6,3.1,0.6,5.4,1.4,8.5
	l-2.9,2l-0.2-1.5c0,0.7-1.8,5.3-2.5,6.3c-0.3,0.5-0.5,0.9-0.9,1.3l-1,1.2c-1.7,1.9-2.2,1.2-2.3,2.3c3.3-0.8,6-5.3,6.2-8.3
	c1.2,0,1.3-0.6,3-1.8l7.7-4.4c0.7-0.3,1.2-0.5,1.8-0.8c0.3,0.2,0.6,0.3,1,0.5c0.7,0.4,0.3,0.4,1,0.6c-0.2,0.4-0.9,0.9-0.9,1.3
	c0,1.6,1.7-0.6,2.2-1.1l2.7-1.9c0.4-0.2,0.9-0.6,1.4-0.8c0.8-0.4,4.2-1.6,4.6-2.2c0.8-1.1,0.2-0.6,1.3-2c0.5-0.5,0.3-1.2,1.6-3
	c0.2-0.2,0.3-0.4,0.5-0.6c0.3-0.5,0.8-0.8,1.4-1l3.1-1.5c0-1.1,0.2-2.1,0.5-3.1l1.1-2.7c0.7-1.3,1.4-1.4,3.2-2.1
	c0.6-0.2,0.9-0.2,1-1h-0.9c0.3-1.1,0.2,0.2,1.5-2.1c1.5-2.4,2.3-1.2,0.8-5.2l-2.1-5.6c-0.5-0.8-1.1-1.5-1.9-1.9
	c0.1-0.5,0.2-1,0.4-1.5c0.4,0.2,0.9,0.3,1.3,0.6c1.6,1,2.8,3.8,3.3,4.4c0.2,0.2,0.2,0.3,0.4,0.5c0.8,1.1,1.8,1.5,3.5,1.5
	C257.2,78.6,257.5,78.2,257.9,77.9L257.9,77.9z M247.1,73.1c0,1.6,2.4,1.8,2.9,4.6c0.3,1.4,0.8,2.8,1.4,4.1c1.2,3,0.5,0.9-1.5,4.6
	c-0.3,0.6-0.8,1-1.1,1.6c-0.6,1-0.4,0.7-1.5,1.2c-1.3,0.6-1.6,1.9-2.3,3.1c-0.4,0.6-0.7,1.2-0.9,1.9c-0.3,0.8-0.4,1.6-0.3,2.4
	c-2.5,1.3-3.1,1.1-5.1,3.7c-0.3,0.3-0.5,0.7-0.7,1.1l-2,3.4c-0.1,0.1-1.1,0.5-1.3,0.5c-0.9,0.3-1.7,0.7-2.5,1.1l-4.4,2.9
	c-3-2-2.9-1.6-6.9,0.4c-1.4,0.7-2.6,1.5-3.9,2.1c-0.1-2.7-2.3-15.3-3.1-17.8c-0.3-1.4-1-2.6-1.8-3.7c-1.6-1.5-3.3-3-5.1-4.3
	c-2.7-1.9-6.4-3.9-10.5-3.9l-3.9,0.2c-1.4,0-2.5,0.4-4,0.4c-4,0-11.4,1-15.9,1.7l-7.6,1.2c-1.2,0.1-2.4,0.4-3.5,0.8l-2.5,1.6
	c-2.6,2.2-4.6,2.5-7.2,6.4c-0.6,0.8-1.2,1.7-1.7,2.7c-0.2,0.5-0.5,1-0.7,1.5c-0.8,1.9-1.2,3.9-1.2,6c0.1,0.8,0.2,1.5,0.5,2.3
	c0.3,1.8,0.2,3.4,0.5,5.2c0.2,1,0.2,1.7,0.3,2.6c0.8,6.5,2,13.2,3.1,19.7l1.9,9.7c-1,0.1-2.6,0.1-3.4,0.5c0,0-0.1,0-0.1,0.1
	c-4.1,1.8-6.2,3.5-7.2,4.5c-1.3,1.5-3.5,2.7-5.5,6.6c-0.2,0.5-0.5,0.9-0.6,1.4c-0.7,2-0.2,1.9-0.1,3.8c0,0.8,0.1,1.7,0.2,2.5
	l3.1,10.9c0,0,0,0.1,0.1,0.1l0.7,1.1c-1.4,0.1-5.8,1.7-7.7,2.1c-3.8,0.6-7.4,2.1-10.6,4.2c-2.5,1.8-4.2,4.5-4.8,7.5
	c-0.5,2.6-0.5,5.3,0,7.9l2.4,6c1.2,2.2,2.7,4.1,4.5,5.8c3.7,3.4,8.4,5.4,13.4,5.6c6.8,0.1,3.9-1,5.5,2.9c0.5,1.3,1.9,2.2,3.3,2
	c1.6,0,3.2-0.4,4.6-1.1c0.6-0.3,1.3-0.6,1.9-1.1l1.6-1.3c0.2,0.3,0.3,0.6,0.5,1c0.5,1,1.1,2,1.9,2.9c0.7,1,3.9,1.3,5.2,1.3
	c3.9,0,6.6-1.2,9.5-3.1l4.3-4.3c1-1.5,1.3-4.7,1.8-6.6c0.2-0.9,0.3-0.8,1.2-1c0.6-0.1,1.1-0.3,1.7-0.5c1.1,1.7,6.9,4,9.9,4
	c1.3,1.9,4.2,2,6.3,2.3c3.5,0.5,8.3,1,11.8,0.3c3.8-0.9,7.4-2.2,10.9-4c0.4-0.2,0.8-0.4,1.2-0.6c2.2-1,3.8-2.9,4.3-5.3
	c0.9,0,1.7-0.1,2.5-0.2l5.2-1.5c3.1-1.5,5.3-3.1,5.6-6.9c1.2,0.3,2.4,0.5,3.7,0.6c2.3-0.1,4.6-1,6.3-2.5l1.2-1.2
	c1-0.9,0.1-3.1-0.2-4c-0.3-1,0.5-0.6,1.5-0.9c1.4-0.4,2.7-1,4-1.7c2.1-1.2,4-2.6,5.8-4.3l0.2-0.2c0,0,0.1-0.1,0.1-0.1
	c0.2-0.2,0.2-0.2,0.4-0.3c2.2-2.2,1.6-1.5,3.8-4.6l1.1-1.8c3.4-6.7,3.6-11.4,0.8-18.3l-0.7-1.5c-0.2-0.4-0.5-0.8-0.8-1.2
	c-1-1.2-2.1-2.2-3.4-3.1c-0.4-0.3-0.8-0.6-1.2-0.8l-1.5-0.7c-0.2-0.1-0.4-0.2-0.6-0.3c-5.1-1.7-9-1.7-14.4-0.9l-4.2,0.7
	c-0.7,0.2-1,0.2-1.5,0.4c-2.4,0.6-4.4,1.6-7.6,2.3c-0.9,0.2-1.8,0.5-2.7,0.8c-0.2-0.8-0.2-1.5-0.4-2.3c-0.3-1.1-1.9-6-1.9-6.7
	c0.2-0.6,0.4-1.1,0.6-1.6c0.7-1.8,1.2-3.7,1.6-5.6c2.3,0,4.5-1.3,6.3-2.2c1.7-0.9,2-1.1,2-3.5c0-0.6-0.1-1.3-0.4-1.8
	c1.1-0.6,1.9-1.2,3.1-1.5c1.1-0.2,3.2-0.5,3.9-1c0.3-0.2,0.2-0.2,0.4-0.3c2.1-1.7,3.7-3.9,4.8-6.4c1-2.3,2.6-4.1,3.9-6.1
	c2.9-4.3,3.2-2.4,4.2-4.4l1.7-3.3c1-2.3,1.5-4.7,1.5-7.1c0.2-0.4,0.5-0.8,0.9-1.1c0.3-0.4,0.6-0.8,0.8-1.2c0.5-0.9,1.1-1.8,1.6-2.6
	c1.5-2.2,1.5-1.1,3.7-4.8c1.3-2.1,2.8-4.2,4.4-6.1c1-1.2,2.4-3,2.4-4.5c-0.2-0.1-0.5-0.2-0.8-0.3c-0.8-0.5-0.7-0.4-1.6-0.4l-1.1,1.3
	c-0.2,0.2-0.3,0.3-0.6,0.5c-0.3,0.3-0.4,0.2-0.7,0.6c-0.5,0.4-0.7,0.8-1.2,1.2l-1.3,1c-0.5-1-0.5-2.1-2-2.2c-0.2-1.1-1.2-2-2.4-2
	c-0.2-1.9-2.4-2.3-3.7-1.5c-0.9,0.7-1.7,1.5-2.3,2.5c-0.4,0.5-0.3,0.5-0.8,0.8c-0.8-0.4-1.5-1-2.1-1.7l-3-4
	c-0.7-0.6-1.5-1.1-2.4-1.2C247.9,71.3,247.1,71.9,247.1,73.1L247.1,73.1z M191.7,126.5c-3.5,0-3.2-0.1-6.4-0.8
	c-0.5-0.1-1.1-0.3-1.5-0.5c-4.2-1.1-8.2-3.1-11.6-5.8c-4-3-2.9-3.3-2.7-5.1c0.1-0.7,0.3-1.4,0.5-2.1c0.4-1.5,1-3,1.7-4.4
	c0.2-0.4,0.2-0.4,0.5-0.8c1.8-3.1,4.3-5.9,7.3-8c1.1-0.7,2.3-1.4,3.5-2l4-1.9c0.3-0.2,0.6-0.2,1-0.3c2-0.7,6.7-1.6,8.1-1.5
	c2.7,0.4,9.9,3.5,11.3,6.3c0.7,1.4,1.1,1.6,2.2,4c2.4,5,0.9,11.4-2.2,15.6c-1.4,1.9-5.3,5.2-7.7,5.9c-1.2,0.4-2.5,0.6-3.8,0.8
	C194.5,126.4,193.1,126.5,191.7,126.5L191.7,126.5z M168.2,115.3c0,2.5,2,3.9,3.2,4.9c0.9,0.9,1.9,1.7,3,2.3
	c1.8,1.2,3.7,2.2,5.7,2.9c1.6,0.6,3.3,1.2,5,1.6c4.3,1,11.6,1,15.3-0.8c3.4-1.7,5.5-3.1,7.9-6l0.9-1.3c2.6-4.2,3.7-10,1.7-15
	c-0.2-0.5-0.4-1-0.6-1.4c-0.2-0.5-0.5-0.8-0.7-1.3l-2.6-3.5c0,0-0.1-0.1-0.1-0.1l-0.9-0.8c-1.8-1.6-7.6-4.3-9.8-4.3
	c-7.6,0-13.2,2.5-19.4,7L175,101C171.5,104.6,168.2,110.4,168.2,115.3L168.2,115.3z M127,200.8L127,200.8L127,200.8
	C127,200.9,126.9,200.8,127,200.8L127,200.8z M124.4,198.3l-0.2-0.4L124.4,198.3z M124.4,198.3l0.6,1c0.2,0.6,0.3,0.7,0.6,1.3
	c0.4,0.9,0.6,1.6,1,2.4c0.4,0.8,0.6,1.6,1,2.4c0.2,0.4,0.4,0.8,0.6,1.2c0.5,0.6,0.6,0.4,1.3,0.2c0-1.3-0.2-2.7-0.7-3.9l-1.5-5.4
	c-0.2-0.6-0.3-1.2-0.5-1.9c-0.4-1.3-0.7-2.6-0.9-3.9c-0.2-0.6-0.2-1.2-0.2-1.8c0.2-1.1-0.5-1.4-1-0.8c-0.7,0.7,1.3,8.2,1.7,9.7
	c0.2,0.6,0.4,1.2,0.5,1.9c-0.6-0.7-2.4-6-3.5-6.8c-0.2,0.1-0.3,0.2-0.6,0.2c0,2.5,0.6,4,1,6.1c0.2,0.9,0.1,1.2,1,1.4
	C124.9,199.9,124.5,199.5,124.4,198.3L124.4,198.3z M310,85.8c-0.4-0.1-3.5-1.9-3.5-0.6c0,0.9,0.4,1,1,1.4c0.5,0.4,1,0.6,1.6,0.8
	c-0.3,0.8-0.6,1.6-1.1,2.4c-2.4,4.2-0.2,3.2,0.4,2.4c0.8-1.2,1.5-2.5,2-3.9c1.4,0.1,0.3,0.6,2.6,0.6c-0.2-1.7-1.5-2.2-1.5-2.4
	c0.1-0.6,0.3-1.2,0.6-1.8c0.5-1.3,0.1-0.6,0.1-1.9h-0.4c-0.3,0.7,0.1,0-0.5,0.6C310.8,84.2,310.3,85,310,85.8L310,85.8z
	 M352.7,202.1c-1.5-0.8-1.9-1-3.1-0.4c0,1.6,0.5,1.3,1.7,1.8c-0.3,1.1-2,1.7-2,2.7c0,1.8,2.6,0.1,3.7-1.8c0.4,0.2,0.8,0.4,1.2,0.5
	c1.7,0.4,0.8,0.7,1.3,0.3c0.3-0.3,0.1-0.2-0.2-0.8c-0.6-1.4-0.4-0.6-1-1.5c0.7-1.1,1.5-1.6,1.8-3.1
	C354.6,200,353.6,201.6,352.7,202.1L352.7,202.1z M49.8,94.5c0,1.1,0.2,1.3,0.2,2.4c-1.4,0.4-1.5,3.2,0.1,2.3
	c0.4-0.2,0.2-0.1,0.3-0.4h0.3c0.1,0.7,0.3,1.5,0.6,2.2c0.4,1.2,0.4,1,1.6,0.9c0.5-2.2-0.2-2-0.7-4.4c1.5-1,2.6-1.2,2.6-2.2
	c0-1.4-3,0.2-3.3,0.4c-0.6-1-0.8-1.6-1.7-1.7L49.8,94.5z M168.2,106c0.4-0.2,0.5-0.4,1-0.9l4.4-4.9l0.1-0.1l1.8-1.5
	c0.4-0.3,0.6-0.5,1-0.8c2-1.7,6-3.9,8.4-4.4v-0.6c-2.8,0.2-5.6,1.7-7.9,3.3l-3.1,2.5c-1,0.8-2,1.8-2.9,2.8c-0.2,0.3-0.1,0.2-0.4,0.5
	l-1.4,1.6C168.8,104.1,168,105.3,168.2,106L168.2,106z M70.8,187.2l-2.5-1.4c-0.5-0.2-1-0.3-1.5-0.1c-1.2,0.4-0.6,1.1-0.6,1.1
	c0.5,0.9-0.1-0.1,1.7,0.9c0.6,0.3,1.2,0.6,1.8,0.9c-1.1,1.6-1.5,0.8-1.5,2.2c1.9,1.3,3.2-1.3,3.3-1.8c0.6,0.1,1.5,0.6,1.5-0.4
	c0-0.6-0.2-0.5-0.7-0.6c0.3-1.4,1.5-2.3,1.1-3.9c-0.6,0.1-0.5-0.2-1.5,1.3L70.8,187.2z M96.9,94c-1.3-0.3-4.6-2-3.9,1.1
	c1.1,0.3,1.2,0,2.7,0.7c-0.9,1.7-1.7,1.9-1.7,3.7l0.6,0.4c0.2,0,0.4-0.1,0.6-0.2c0.5-0.3,0.9-0.8,1.1-1.3c0.4-0.7,0.7-1.4,1-2.1
	c0.6,0.1,0.6,0.2,1.2,0.1c0.5-0.1,0.9-0.1,1.4-0.1c-0.2-0.7-1.4-1.3-2-1.7l0.6-2.7L96.9,94z M195.2,95.2c0.1,1.5,1.1,0.3,4.2,1.8
	c3.5,1.8,3.8,2.7,5.7,4.7c0.4,0.4,0.4,0.5,0.7,0.9c0.6,0.6,2.1,3.3,2.7,3.5c-0.5-2.2-1.5-4.2-2.9-5.9c-1.3-1.7-2.9-3-4.8-4
	C199.9,95.6,196.7,94.5,195.2,95.2L195.2,95.2z M249.5,130.6c-0.7-0.5-1.5-0.8-2.4-0.9c0,0-0.1,0-0.1,0.1c-0.1,0.5-1.7,0.7,1.4,2.3
	c-0.1,0.2-2.2,3.5-0.9,3.5c1.1,0,1.3-0.9,1.9-1.9c0.2-0.2,0.4-0.5,0.4-0.8c2.1,0.5,0.6,0.8,3.3,0.6c-0.1-1-1.2-1.5-2.2-2
	c0.6-1.3,1.3-1.9,1.3-3.3c-0.8,0.1-1,0.6-1.5,1C250.2,129.5,249.8,130,249.5,130.6L249.5,130.6z M293.1,135.3c-1.7,0-2-0.2-3.1,0.6
	c0,1.2,0,0.7,0.6,1.5h1.5c-0.3,1.5-0.9,0.8-0.2,2.2c1.5,0,1.3-0.1,2.2-1.8c0.4,0.1,2.7,0.9,2.7,0.2c0-0.9-1.4-1.7-2-2
	c0-1,0.8-3.3,0-3.3C294,132.6,293.3,134.6,293.1,135.3L293.1,135.3z M126,72.8c-0.7,0-3.1-0.6-3.1,0.4c0,0.9,0.3,1,1,1.2
	c0.6,0.2,1.3,0.3,1.9,0.4c0,1.7-0.2,1.5,0.6,2.6c1.8-1.2,0.3-2.4,1.8-2.6c1-0.1,0.6,0.1,1.3-0.4c-0.2-1-0.8-1-1.6-1.5
	c0.2-0.4,0.6-1.9,0.2-2.4c-0.6-0.2-0.5-0.2-1.3-0.2L126,72.8z M232.9,77c-0.6-0.3-1.3-0.4-2-0.4c-0.5,0.7-0.6,0.2-0.6,1.5
	c0.7,0.4,2,0.8,2,1.1c0,0.8-1,2.7,0.4,2.7c0.8,0,0.9-0.2,1.2-0.8c0.3-0.5,0.4-1,0.5-1.5c0.7-0.2,0.5-0.3,1.3-0.4
	c-0.2-0.9-0.4-1-0.9-1.1c0-0.6,0.7-3.3-0.6-3.3C233.6,74.8,233.1,76.4,232.9,77L232.9,77z M88.6,139c-0.1,0-2.6-2-2.6-0.2
	c0,0.6-0.1,0.5,0.3,0.8l1.2,1c-0.8,1.1-1.9,2.2-1.9,2.6c-0.1,1.3,2.6,0.7,3.2-1.5c0.9,0.1,0.9,0.4,2,0.4c0-0.2,0-0.3,0-0.5l-0.3-0.4
	c-1.4-2.1,0.4-1.1-0.2-3.6C89.4,137.6,89.2,138.1,88.6,139L88.6,139z M163.5,97c-0.6,0.4-3,4.9-3.4,5.8c0,0.1-0.1,0.2-0.1,0.2
	l-4.3,8.2c-0.4,0.9-0.9,1.6-1.2,2.5c-0.5,0.9-0.8,1.8-0.9,2.7c0.8-0.1,0.7-0.2,1-0.9c0.2-0.5,0.4-0.7,0.6-1.2
	C156.4,111.8,163.3,98.9,163.5,97L163.5,97z M303.8,188.2c-0.2,0.6-0.2,1.3,0,1.9c0.7,1.6-0.1,1.2,1.1,1.9c0.3,0.2,3,3,3,1.6
	c0-0.8,0,0.1-0.2-0.6c-0.1-0.3-0.1-0.3-0.2-0.7c-0.1-0.4-0.3-0.8-0.5-1.1c0.4-0.6,3.4-2.9,1.6-2.9c-0.8,0-2.1,1-2.7,1.3
	C305.4,188.6,305.3,187.6,303.8,188.2L303.8,188.2z M233.1,175.5h0.2l-0.2,0.2L233.1,175.5z M235.9,175c0.1-0.9-0.2-0.3,0.4-0.7
	C236.7,175,236.5,174.7,235.9,175L235.9,175z M234.8,174.8v-0.6C235.6,174.8,234.9,174.5,234.8,174.8L234.8,174.8z M235.4,175.7
	c0.4,0,0.2-0.1,0.7-0.2c-0.6,0.8-2.6,1-2.6-1.1c0-0.3,0.1-0.7,0.3-1c0.1-0.1,0.2-0.2,0.4-0.4c0,0,0.1-0.1,0.1-0.1l0.3-0.2
	c0.7,0.2,1.1,0,1.5,0.6h-1.3c-0.3,0.4-0.7,0.7-0.6,1.4C234.3,175.2,234.8,175.7,235.4,175.7L235.4,175.7z M233.1,175.5
	c-0.7-0.5-0.6-0.9-0.6-2c0.5-0.4,0.2-0.4,0.9-0.6C232.8,174,232.8,174,233.1,175.5L233.1,175.5z M231.7,174.6c0,1.8,4.1,3.1,5.1,0.8
	l0.1-0.2c1-2.6-0.8-2.6-2.4-3c0,0,0.1-0.1,0.1-0.1l0.5-0.3c0.2-0.1,0.5-0.2,0.7-0.2l-0.6-0.6c-0.4,0.2-0.9,0.2-1.2,0.4
	C233.3,171.9,231.7,173.3,231.7,174.6L231.7,174.6z M188.6,108.4c-0.1,2.6-0.6,5.2-1.4,7.6c-0.3,0.7-0.6,1.5-0.8,2.3
	c0.8-0.1,1-0.5,1.4-1c0.9-1.9,1.5-3.9,1.8-6c0.2-1.4,0.2-2.8,0-4.2c0-1.1-0.2-3.4-1.1-4C188.4,105.1,188.6,106.4,188.6,108.4
	L188.6,108.4z M360.7,106.2c-1.1-0.7-0.6-1.1-2-1.1c-0.3,0.6-0.5,1.2-0.6,1.8c0.4,0.3,0.8,0.4,1.3,0.4c-0.6,0.7,0,0.2-0.9,0.4
	c-1.5,0.5-0.3,1.5-0.2,1.6c2.1,0,1.8-0.6,2.4-0.7c0.8,0,0.7,0.2,1.7,0.2c0-0.5-0.2-0.9-0.6-1.3c1.4-2.1,1.2-1.9,0.7-2.6
	C361.9,105.2,361.3,105.7,360.7,106.2L360.7,106.2z M284.7,97.9c1.6,0,2.9-0.9,2.9-2.7c-1.3-0.9-0.8-0.2-1.3-1.3
	c-0.9-0.1-2-0.4-2.9,1.3c-0.4,0.5-0.5,1.2-0.2,1.8C283.5,97.5,284,97.9,284.7,97.9L284.7,97.9z M112.3,214.2
	c-0.9-0.2-0.8-0.9-1.6-0.9c-0.9,0-1.3,1.2,0.6,2.4c-1.1,2-1.9,1.4-0.9,2.7c1,0,1.3-0.6,2-1.7c1,0.2,0.8,0.6,1.8,0.4
	c0-1-0.2-1-0.9-1.8c1-1.4,0.8-1.6,0.4-2.4C112.9,213,112.4,213.5,112.3,214.2z M135,210c-0.2-1-0.5-2.1-1-3c-0.4-1-0.8-2-1.2-3
	c-0.6-1.8-1.8-4.6-2.2-6.3h-0.6c0,1.4,1.4,5.6,1.8,6.9l1.2,3.1c0.2,0.5,0.5,1,0.7,1.5C134.1,209.8,134,210,135,210L135,210z
	 M148.4,134.2c-0.6,0.4-0.7,0.9-1.5,0.9c-1.5,0-1.7-1.5-2.6,0.2c0.5,1,0.9,1,2,1.3c0,0-0.1,0-0.1,0.1l-0.2,0.2
	c-0.5,0.7-0.2,0.7-0.1,1.4c0.6,0,1,0.1,1.4-0.2c0.1-0.1,0.7-0.9,0.8-1c1,0.5,0.9-0.2,1.7,0.2c-0.2-0.6-0.5-1-0.9-1.5
	c0.2-1,0.6-2.3-0.7-2.4C148.2,133.6,148.3,133.9,148.4,134.2L148.4,134.2z M254.6,165.8c0-0.6-0.1-1.2-0.3-1.7
	c-0.2-0.6,0-1.4-0.1-2.1c-0.2-1.3-0.4-2.7-0.6-3.8c-0.2-0.7-0.2-1-0.3-1.8l-1.6-5.4c0.2,3.9,0.7,7.8,1.6,11.6c0.2,0.7,0.4,1,0.5,1.7
	C254,165.3,253.8,165.6,254.6,165.8L254.6,165.8z M166,152.2c1.4,0.3,0.5-0.6,3.7-4.4c1-1.2,0.4-0.6,1.9-1.2
	c0.4-0.2,0.4-0.2,0.8-0.3c1.1-0.4,2.3-0.4,3-1.3c-1.1-0.6-3.3,0.2-4.3,0.6c-1.8,0.7-2.8,2.1-3.9,3.7
	C166.5,150.3,166.2,151.2,166,152.2L166,152.2z M257,149.4c0.5,0.7,1.9,0.6,3.7,1.8l3.4,3.4c0.2,0.2,0.2,0.3,0.4,0.5
	c0.5,0.5,0.5,0.6,1.2,0.8c-0.5-1.1-0.1-0.8-1.3-2.4c-0.8-1-1.7-2-2.7-2.8c-0.5-0.3-0.7-0.5-1.2-0.7
	C259.9,149.6,257.4,148.9,257,149.4L257,149.4z M199.4,134.8c0,1.1,1.5,1.3,1,4.1c-0.1,0.6-0.1,1.2-0.1,1.8c0,0.5,0.1,0.3,0.4,0.6
	c0.8-0.6,0.1-1,0.9-1.7c0.1,1,0.5,1,0.7,1.8h0.4c0-0.6,0.1-0.6,0.1-1c-0.1-1-0.4-2.1-0.8-3c-0.4-1.2-1.1-2.3-2-3.1
	C199.8,134.3,199.4,134.5,199.4,134.8z M209.3,199c0.3,1.1,2.3,1.9,3.4,2.3c4.6,1.8,4.2,1.1,6.9,1c-0.4-0.5-0.5-0.4-1.1-0.5
	c-0.6-0.1-0.8-0.2-1.4-0.3l-5-1.6C211.3,199.6,209.6,198.4,209.3,199z M155.9,129.1c0.6,0,0.7-1,1.3-2.5l2.6-5.5
	c0.2-0.5,0.3-1,0.5-1.5c0.2-0.5,0.4-1,0.6-1.5c-0.7,0.2-0.9,1-1.7,2.4l-0.5,1c-0.2,0.3,0,0-0.2,0.3l-2,4.4
	C156.3,126.5,155.1,129.1,155.9,129.1z M168.2,80.8c-1.1-0.6-1.1-0.3-1.8,0c0,1.5,0.1,0.5,0.4,1.5c-0.6,0.2-0.6,0.2-0.7,0.9
	c1.6,1,1.6-0.3,2.4-0.6c0.6,0,1.8,0.2,1.8-0.4c0-0.6-0.3-0.6-0.7-0.7c0.2-0.2,1.1-1.7,0.2-1.7C169.3,79.9,168.5,80.6,168.2,80.8z
	 M158.5,167.4c1.5,0,1.5-1.4,1.5-3.9v-3.3c-0.1-1-0.2-2-0.4-2.9h-0.4c0,0.9-0.2,1.3-0.2,2.4c0,2.5-0.2,3-0.2,5.3
	C158.9,166.4,158.5,166.4,158.5,167.4L158.5,167.4z M253.7,179.5l-1.8-14.2c-0.3-1-0.2-1.3-0.6-1.8c0,2.8,0.2,5.7,0.6,8.5
	L253.7,179.5C253.6,179.5,253.7,179.5,253.7,179.5L253.7,179.5z M133.7,183.2v0.4c1.4,0.8,6.1-1.4,7.6-2.1c0.8-0.2,1.4-0.8,1.8-1.5
	c-1.2,0-1.4,0.6-2.2,0.9c-1.5,0.7-3.1,1.2-4.7,1.5C135.7,182.4,133.7,182.8,133.7,183.2L133.7,183.2z M266,199.4v1.3
	c3,2,4.3-2.6,1.8-2.9C266.9,198,266,198.3,266,199.4L266,199.4z M150.8,103.6c0,1.8-0.3,3.7,0.9,3.7c0.5-1,0.1-3.2,0.3-4.5
	c0.3-1.5,0.5-2.6,0.8-3.9c-0.4,0.2-0.2,0-0.4,0.3l-1,1.6C151,101.6,150.8,102.6,150.8,103.6z M100.1,176.9c0,1.9,3.5,2.6,3.5-0.2
	c0-1.1-2.1-1.6-2.9-0.9C100.4,176.1,100.3,176.5,100.1,176.9L100.1,176.9z M185.5,144.7c1.4-0.7-1.1-4.5-1.5-5.1l-0.9-1.1
	c-0.7-0.9-1.5-1.9-2.7-1.9c0,1.3,0.1,0.2,2.2,2.8c1.1,1.2,1.9,2.6,2.5,4.1C185.2,143.9,185.3,144.3,185.5,144.7L185.5,144.7z
	 M236.4,119.7c-0.1-0.9-1-2.6-1.5-3.5c-0.3-0.6-0.5-1.3-0.6-1.9l-0.5-2.1c-1,0.2-0.9,1-0.7,1.9c0.2,0.8,0.3,1.5,0.6,2.3
	c0.2,0.7,0.6,1.3,1,1.9C235.4,119.2,235.8,119.7,236.4,119.7L236.4,119.7z M194.8,107.4c0,0.8-0.2,4,0,4.4c0.6-0.2,0.5,0,0.7-0.6
	c0.1-0.3,0.2-0.7,0.2-1c0.3-3.3,0.3-3.6-0.6-6.5c-0.1-0.5-0.3-0.9-0.7-1.1c0,0.9,0.1,1.4,0.2,2.4c0.1,0.7,0.1,0.4,0.2,1.1
	C194.8,106.4,194.8,107,194.8,107.4L194.8,107.4z M129.9,195.7L128,186c-0.3-0.7-0.3-0.4-0.3-1.5h-0.2c-0.1,3,0.3,6,1.1,8.9
	C129.1,195.5,129,195.6,129.9,195.7L129.9,195.7z M42.3,77.8c0,1.1,1.5,1.1,1.5,1.1c0.6-0.3,1.8-1.2,1.8-2
	C45.6,74.6,42.3,75.8,42.3,77.8z M285.4,159.9c-0.6,0-0.4-0.4-1,0.1c-0.3,0.2-0.6,0.6-0.6,1c0,2.6,3.7,0.9,3.7-0.6
	c0-0.4-0.3-0.5-0.6-0.9C285,159.5,286,159.9,285.4,159.9z M227.6,121.8c0-0.8-0.1-1.6-0.4-2.3c-0.6-2.5-0.7-3.9-1.2-6.2
	c-0.2-0.8,0.1-0.6-0.6-0.8c-0.1,2.2,0.2,4.3,0.8,6.4C226.5,119.7,226.6,121.5,227.6,121.8L227.6,121.8z M363.4,182.2
	c-0.1,0.5,0.2,1,0.7,1.2c1.4,0.7,1.6,0.5,2.4,0.3l0.2-1.3c0-0.8-1.2-1.5-2.6-1.5C363.9,181.3,363.4,181.6,363.4,182.2L363.4,182.2z
	 M320.1,111.8c0,1.5,3.1,1.8,3.1-0.7c0-1.3-1.7-1.7-2.5-0.7C320.7,110.4,320.1,111.8,320.1,111.8L320.1,111.8z M360,138.5
	c0,2.3,3.3,0.9,3.3-0.4c0-0.4-0.3-0.5-0.6-0.9h-1.1c-0.1-0.5,0-0.3-0.4-0.6C361.2,136.7,360,136.7,360,138.5z M205.6,119.4
	c0,1,1.2,0.6,2.3-2c0.6-1.4,1-2.9,1-4.5c-0.6,0.2-0.6,0.2-0.9,1.5L205.6,119.4z M170.6,135.7c-2.1,0-1.8-0.2-2.2,0.4
	c0.6,0.9,0.5,0,3.4,0.6l1.1,0.3c0.8,0.2,2.8-1,4.5-0.6c-1.4-2.1-3.5,0-4.8-0.3C172,135.8,171.3,135.7,170.6,135.7L170.6,135.7z
	 M230.9,155.9c0.3,1.1,0.8,0.7,1.9,0.6c1.5-0.2,5.4-0.9,5.9-2.6c-0.3,0.1-0.6,0.2-0.8,0.3c-0.5,0.2-0.6,0.2-1,0.3
	C234.9,155.1,232.9,155.5,230.9,155.9L230.9,155.9z M116.7,157.3c0,0.5,0.1,0.9,0.4,1.3h1.5l0.5-0.8c0,0,0.1-0.1,0.1-0.1
	c0.5-0.5,0.7-0.2,0.7-1.3C119.8,154.8,116.7,156.3,116.7,157.3L116.7,157.3z M124.6,108.4c0.4,0.7,0.5,1.6,1.5,1.6
	c1.5,0,2.6-2.9,0.2-2.9C125.2,107.1,124.9,107.7,124.6,108.4L124.6,108.4z M207.6,90.6c0,0.7,2,1.3,3.1,4.1c0.2,0.6,0.5,1,1,1.5
	c0.7-1.2-0.6-3-1.1-3.8c-0.4-0.6-1.7-2.1-2.5-2.1C207.8,90.2,207.7,90.4,207.6,90.6L207.6,90.6z M243.8,185.9h0.6
	c0-1.9-2.9-9-2.9-9.9H241c0.2,1.9,1.4,5.6,2,7.3L243.8,185.9z M52.9,130.3c0.6,2.6,2.9,1.8,2.9,0.2c0-1.5-1.2-1.3-2.2-1.3
	C53.3,129.6,53.1,129.9,52.9,130.3L52.9,130.3z M342.6,80.6c0,1.8,2.6,2.5,2.6-1.1c-0.6-0.6-1.5-1-2.1-0.1
	C342.8,79.7,342.7,80.1,342.6,80.6L342.6,80.6z M200.1,209.2c-0.1-0.9-0.2-0.6-0.7-1.1l-3.1-2.8c-0.3-0.3-1-1.2-1.5-1.2
	c-1.1,0,0,1,0.3,1.3C198.9,209.2,197.3,207.4,200.1,209.2L200.1,209.2z M146.9,217.7c1,0.6,4.4-0.2,5.7-1.4c0.5-0.5,0.3,0,0.5-0.6
	c-1.1,0.1-3.2,0.9-4.9,1.2c-0.1,0-0.9,0.1-0.9,0.2C146.9,217.2,147,217.1,146.9,217.7L146.9,217.7z M50.4,210
	C50.4,210,50.5,210,50.4,210c0.4,1.3,2.5-0.3,2.9-0.6v-1.3C51.8,207.4,50.5,208.3,50.4,210L50.4,210z M144.4,199
	c0,2.4,3.4,3.3,4.4,2c-0.8-0.2-1.6-0.2-2.4-0.2c-1.3-2-1.4-0.5-0.6-4c-0.5,0-0.4-0.2-1,0.8C144.6,198,144.4,198.5,144.4,199
	L144.4,199z M303.5,214v1.3c1.5,0.8,2.7,0.3,2.7-1.1c0-0.4-0.3-0.5-0.6-0.9C303.9,213.3,304.6,213.3,303.5,214L303.5,214z
	 M169.9,156.3v1.7c0,0.7-0.1,0.1,0.2,0.6c1.6-1-0.9-2.2,2.4-4.6c0.5-0.3,0.9-0.7,1.1-1.3c-0.9,0.2-1.8,0.6-2.4,1.2
	C170.3,154.4,169.9,155.3,169.9,156.3L169.9,156.3z M196.5,75.5v1.1c0.3,0.2,0.6,0.4,0.9,0.6c1.1-0.6,1.7-0.4,1.7-2
	c-0.6-0.5-1.3-0.7-2-0.7C196.6,74.8,196.5,74.9,196.5,75.5L196.5,75.5z M39.4,168.4c0,0.5,0.1,0.2,0.2,0.9c1.6,0.4,2.4-0.4,2.4-1.3
	c0-1-0.5-1-1.1-1.3c-0.5,0.2-0.6,0.1-1,0.5C39.6,167.6,39.4,168,39.4,168.4z M256.8,94.1c-0.4-1.4-4.3-2.9-6-2.9
	c0.1,1.2,0.8,0.7,2.8,1.6C254.5,93.1,255.7,94,256.8,94.1L256.8,94.1z M162.5,141.9v0.6h0.6c0.1-1.2,1.5-3.5,2.6-4.5
	c0.6-0.6,1-0.5,1.2-1.3C164.6,136.8,162.5,140.8,162.5,141.9L162.5,141.9z M170.4,114.6c0,1-0.1,0.2,0.2,0.7
	c0.8-0.6,0.7-1.6,1.1-3.5c0.3-1.2,0.8-2.3,1-3.5c-0.7,0.2-1,1.2-1.3,1.8c-0.1,0.2-0.3,0.5-0.4,0.7
	C170.7,112.1,170.5,113.3,170.4,114.6L170.4,114.6z M143.3,197.1c0.3-0.7-0.4-2.7-0.6-3.6l-0.7-2.6c-0.2-0.7,0.2-0.5-0.6-0.7
	C141.5,191.9,142.2,196.3,143.3,197.1L143.3,197.1z M222.1,172.6c-0.8-0.8-1.7-1.5-2.6-2.2c-1.2-0.9-1.7-2-2.3-2.4
	c-0.1,0.6-0.2,0.3,0,0.7C217.7,170.1,220.1,172.5,222.1,172.6L222.1,172.6z M162.7,182.5c0,1.6-0.2,1.8,0.7,2c0.4-0.8,0-1.9,0.3-2.8
	c0.4-1.2,1.1-1,1.3-2C164.2,178.9,162.7,180.9,162.7,182.5L162.7,182.5z M188.2,158.5l4,1.5c0.4,0.3,1,0.5,1.5,0.5
	c-1.3-1.7-3.4-2.6-5.5-2.6L188.2,158.5z M214.2,162.3c1,0,1-0.4,2-0.4c1.1,0,2,1.3,2.7,1.8c0.4-0.8-0.8-2.1-1.6-2.4
	C216.2,160.7,214.6,161,214.2,162.3L214.2,162.3z M195.7,184.8c0.4,0.6,0.3,0.3,0.9,0.8l0.7,0.6c0,0.1,0.2,0.3,0.2,0.3
	c1,1.5-0.6,1.9,0.4,1.9c1.2,0,1.1-3.5-1.8-4.2L195.7,184.8z M192.7,220.4c1.1,0,1.4-1.3,1.5-1.5c-0.2-0.3-0.3-0.6-0.6-0.9h-0.7
	C191.3,218,191.4,220.4,192.7,220.4L192.7,220.4z M175.7,190.5c0,0.7,2.1,1.3,2.2,2.7c-0.3,1.1-0.4,0-0.2,1.1c0.6-0.2,0.7-0.4,0.8-1
	C179.1,191.2,175.7,189.3,175.7,190.5L175.7,190.5z M212.2,122.7c0,2-0.2,1.9,0.7,2c0-3.1,1-6.4-0.2-5.3
	C212.4,119.8,212.2,122.1,212.2,122.7L212.2,122.7z M242.5,100.7c0,0.9,3.1,3,4.4,1.3c-0.6-0.3-1.5-0.3-2.2-0.6
	C244.3,101.2,242.5,99.6,242.5,100.7L242.5,100.7z M204.7,152c0,3.9,0.2,2.1,0.7,4.2h0.7c0.2-1-0.1-1.2-0.4-2.3
	c-0.4-1.5-0.2-1.9-0.9-2.4C204.8,151.7,204.7,151.7,204.7,152L204.7,152z M190.8,169.6c0-0.5-0.2-1-0.6-1.4l-1.9-2.3
	c-0.4-0.5-0.5-0.8-1.2-1c0,0.5,0.2,1,0.6,1.4C188.2,167.1,189.9,169.4,190.8,169.6L190.8,169.6z M169.1,189.2
	c-0.1-0.7-0.1-0.6-0.6-0.9c-2.8-1.1-0.9-1.7-2.5-2.1c-0.3,1.3,0.5,2.5,1.7,2.9C168.2,189.4,168.7,189.4,169.1,189.2L169.1,189.2z
	 M169.9,126.9v-0.4c-1.7,0-1.9-0.1-3,0.6c-0.5,0.3-2.1,1.3-1.9,1.9c0.2,0.6,0.6-0.2,2.1-1.1C167.9,127.4,168.9,127,169.9,126.9
	L169.9,126.9z M189.1,183.6c0-1.4-0.5-0.6-1.6-1.4c-0.6-0.5-1-1.1-1.2-1.8H186C185.8,182.5,186.9,183.6,189.1,183.6L189.1,183.6z
	 M248,191.8c0.3-0.4,0-0.2,0.6-0.4l1.3-1.4c-1,0-1.1,0.5-2.3,1.1c-0.8,0.5-1.7,0.8-2.6,1v0.4C246.6,193,246.6,192.1,248,191.8
	L248,191.8z M141.6,205.4c0.1,0.7,0.4,1.3,1,1.8c0.6,0.6,1.2,0.6,2.3,0.6c-0.4-0.6-1.1-0.8-1.7-1.2c-0.2-0.2-0.5-0.5-0.6-0.8
	c-0.4-0.7-0.1-0.6-0.8-0.8C141.7,205.1,141.6,205,141.6,205.4z M208.8,173.5c0.8-0.2,0.7-0.7,0.7-2c0-1-0.4-2.1-1.5-2.2
	C208,170.6,208.8,170.1,208.8,173.5L208.8,173.5z M160,200.4c0,1,0.2,1.8,1.1,2c0.5-0.6-0.2-0.5-0.2-2c0-0.9,0.3-1,0.4-1.8
	C160.3,198.7,160,199.4,160,200.4L160,200.4z M224.2,176c0,1.7-1.8,3-0.4,4c0.2-1.1-0.2-0.7,0.2-1.9c0,0,2.1-3.2-0.2-3.4
	C223.8,175.6,224.2,175.6,224.2,176L224.2,176z M165.6,111.5c-0.1,0.8,0,1.6,0.2,2.4h0.6c0-3.8,0.2-2.6,0.4-4.4
	C166,109.7,165.6,110.7,165.6,111.5L165.6,111.5z M208.8,187.6c0.1,1.4,1.3,2.5,2.7,2.4h0c-0.1-1.1-0.6-0.6-1.3-1.4
	c-0.5-0.6-0.6-1.1-1.2-1.5C208.8,187.3,208.8,187.2,208.8,187.6L208.8,187.6z M258.5,92.8c0-1-0.4-1.2-0.6-2.2
	c-0.2-0.9-0.3-1.4-1-1.9c-0.1,0.8,0,1.7,0.3,2.4c0.1,0.3,0.3,0.7,0.5,1C257.8,92.6,257.9,92.6,258.5,92.8L258.5,92.8z M193,133.5
	c0.7,0.6,3.1-1,4-2.7c-0.7,0.3-1.4,0.7-2,1.3c-0.3,0.2-0.7,0.4-1,0.6C193.3,133,193.2,132.8,193,133.5L193,133.5z M171.1,197.5
	c0,1.4,1.2,2.5,2.6,2.6c-0.2-1-0.9-0.7-1.6-2.2c-0.3-0.6-0.1-0.5-0.8-0.7C171.3,197.1,171.1,197.5,171.1,197.5L171.1,197.5z
	 M239.2,174c0,1.2-0.7,1.2-1.3,2c1.3,0.6,2.8-1.9,1.1-3.5c-0.7-0.6-0.6-0.5-1.1-0.6c0.2,0.7,0.2,0.5,0.7,1
	C238.9,173.3,239.1,173.6,239.2,174L239.2,174z M193.7,194.4c-0.1-1.2-0.1,0-1.1-1.5c-0.7-1.1-0.6-1.2-1.3-1.4
	c-0.2,0.7,0,1.4,0.5,1.9C192.2,194,192.9,194.4,193.7,194.4L193.7,194.4z M179.8,162.5c1-0.1,0.6-0.3,1.4-1.1
	c0.6-0.6,1.1-0.6,1.3-1.4c-0.7-0.1-1.4,0.2-1.9,0.7c-0.2,0.2-0.4,0.5-0.6,0.7C179.8,161.7,179.7,162.1,179.8,162.5L179.8,162.5z
	 M204,175c0,1.4,0.3,2.9,1.5,3.7c0.2-0.5-0.7-2.5-1.1-4.2C204,174.6,204,174.4,204,175L204,175z M189.3,181.4c0.6,0.9,0.4,0.1,1.7,2
	c0.3,0.4,0.2,0.4,0.7,0.6C191.7,181.3,189.7,180.9,189.3,181.4L189.3,181.4z M171.7,175.3c1.1,0.3,1.9,1.3,2,2.4h0.4
	c0.1-0.7-0.1-1.5-0.6-2c-0.4-0.5-1-0.9-1.7-1.1C171.8,174.8,171.7,175.1,171.7,175.3L171.7,175.3z M171.7,189.6
	c0-1.6-0.8-2.6-2.4-2.6c0.2,0.6,0,0.3,0.5,0.6C171.3,188.8,170.5,189.3,171.7,189.6L171.7,189.6z M190.8,143.2
	c0,0.8,0.7,0.7,1.2,0.5c0.6-0.1,1.1-0.7,1-1.4C192.2,142.3,190.8,142.7,190.8,143.2L190.8,143.2z M232.8,153.9
	c0.1,1.6,2.7,0.5,2.9-0.6L232.8,153.9z M168.4,202.8c0.5,0,0.6-0.3,0.7-0.6l-2.4-1.1C165.9,201.2,167.1,202.8,168.4,202.8
	L168.4,202.8z M186.6,195.7c0,0.5,2.1,2.6,2.6,0.7C187.2,196,186.6,194.8,186.6,195.7L186.6,195.7z M191.5,95.5
	c0,0.5,0.5,1.3,1.8,0.6C193.4,94.1,191.5,95.2,191.5,95.5z M224.7,170.5c0.7,0.2,0.8,0.5,1.1,1c0.4,0.6,0.3,0.9,0.9,1.3
	c0.6-0.7-0.6-2.7-2-2.7V170.5L224.7,170.5z M163.5,176c0.9-0.2,0.5-0.4,1-0.9c0.6-0.6,0.8,0,1-1C164.9,173.7,163.5,174.5,163.5,176
	L163.5,176z M203.4,165.4v0.6c0.7-0.1,0.4-0.2,1.1-0.2c0.8,0,1.2,0.7,1.5,0.4C206.7,165.6,204.8,164.9,203.4,165.4L203.4,165.4z
	 M149,194.6c-0.5,0-1,0-1.5,0.2c-0.2,0.1-1,0.6-0.6,1C147.1,195.9,148.7,195.5,149,194.6L149,194.6z M168,175.7
	c0.5,0,0.6-0.3,0.7-0.6c-0.6-0.3-0.5-0.1-1-0.2c-0.6-0.2-0.4-0.6-0.9-0.4C166,174.8,167.3,175.7,168,175.7L168,175.7z M193.5,160.8
	c0.1,0.2,0.2,0.3,0.2,0.6c0.6-0.6,0.7-0.3,0.9-0.9C194.3,160.5,193.9,160.6,193.5,160.8L193.5,160.8z M186,172.4h0.2v-0.6H186
	L186,172.4L186,172.4z M167.3,163.6v-0.2l-0.2,0.2L167.3,163.6z M163.8,96.2h0.2l-0.2-0.2L163.8,96.2z M61.3,90.3L61.3,90.3
	C61.4,90.3,61.3,90.3,61.3,90.3z M163.5,97l0.2-0.4L163.5,97z M163.6,96.6l0.2-0.4L163.6,96.6z M255.1,176.6l7.8-13.6l5.8,3.3
	l-6.6,11.5c-0.6,0.6-1.2,1.1-1.8,1.7l0,0L255.1,176.6z M260.7,175.3l0.1,0c0.1,0,0.1,0,0.2,0c0.1,0,0.1,0,0.2,0c0.1,0,0.2,0,0.2,0
	l0.2,0c0.1,0,0.1,0,0.2,0c0,0,0,0,0,0c0,0,0,0,0.1,0l0.1,0c0,0,0,0,0.1,0c0,0,0,0.1,0,0.1c0,0,0,0.1,0,0.1s0,0,0,0.1c0,0,0,0,0,0.1
	c0,0,0,0.1,0,0.1s0,0.1,0,0.1c0,0,0,0,0,0c0,0,0,0,0,0c0,0,0,0,0,0.1v0c0,0,0,0-0.1,0.1c0,0-0.1,0-0.1,0s-0.1,0-0.1,0
	s-0.1,0-0.1,0.1c0,0-0.1,0-0.1,0.1c0,0,0,0-0.1,0.1c0,0,0,0-0.1,0c0,0,0,0-0.1,0c0,0,0,0.1-0.1,0.1c0,0,0,0-0.1,0.1c0,0,0,0,0,0
	c0,0,0,0,0,0c0,0,0,0,0,0c0,0,0,0,0,0c0,0,0,0,0,0v0c-0.1,0.1-0.2,0.2-0.3,0.3c-0.1,0.1-0.2,0.2-0.3,0.4c0,0,0.1,0.1,0.2,0.1
	c0,0,0.1,0,0.1,0.1c0,0.1,0,0.1,0,0.2c0,0.1,0,0.1-0.1,0.2c0,0.1,0,0.1-0.1,0.2c0,0.1,0,0.1,0,0.2c0,0-0.1,0.1-0.1,0.1
	c0,0-0.1,0-0.1,0c-0.1,0-0.1,0-0.2-0.1c-0.1,0-0.1-0.1-0.2-0.1c-0.1,0.1-0.1,0.2-0.2,0.4c-0.1,0.1-0.1,0.3-0.2,0.4h-0.1
	c0,0-0.1,0-0.1,0c0,0,0-0.1,0-0.1c0,0,0-0.1,0-0.1l0.2-0.3c0.1-0.1,0.1-0.2,0.2-0.4c-0.1-0.1-0.2-0.1-0.2-0.2
	c-0.1-0.1-0.2-0.2-0.2-0.2c-0.2-0.2-0.4-0.5-0.6-0.7c-0.2-0.2-0.4-0.5-0.5-0.7l0-0.1l-0.1-0.1c0,0,0-0.1,0-0.1c0,0,0,0,0-0.1
	c0-0.1,0-0.1,0.1-0.2c0-0.1,0.1-0.1,0.1-0.2c-0.2-0.1-0.3-0.2-0.5-0.3c-0.2-0.1-0.3-0.2-0.5-0.3c0,0,0-0.1,0-0.1c0,0,0-0.1,0-0.1
	c0-0.1,0.1-0.1,0.1-0.2c0-0.1,0.1-0.1,0.1-0.2c0-0.1,0.1-0.1,0.1-0.2c0-0.1,0.1-0.1,0.2-0.2c0.1,0.1,0.3,0.2,0.4,0.3
	c0.2,0.1,0.3,0.2,0.5,0.3c0.2,0.1,0.4,0.2,0.6,0.3c0.2,0.1,0.4,0.2,0.6,0.2c0.1,0,0.1,0.1,0.2,0.1s0.1,0.1,0.2,0.1
	c0.1,0,0.1,0,0.2,0.1C260.4,175.3,260.5,175.3,260.7,175.3C260.6,175.4,260.7,175.4,260.7,175.3c0.1,0.1,0.1,0.1,0.2,0.1
	c0,0,0,0,0,0L260.7,175.3L260.7,175.3z M260,176.8C260,176.8,260.1,176.9,260,176.8c0.1,0.1,0.2,0.2,0.2,0.2
	c0.1-0.2,0.2-0.3,0.3-0.5c0.1-0.2,0.2-0.3,0.3-0.4c-0.3,0-0.6,0-0.8,0c-0.3-0.1-0.6-0.2-0.9-0.2c0.1,0.1,0.1,0.2,0.2,0.2
	c0.1,0.1,0.1,0.2,0.2,0.2c0.1,0.1,0.1,0.2,0.2,0.2C259.8,176.6,259.9,176.7,260,176.8L260,176.8z M260.2,174.4c-0.1,0-0.1,0-0.2,0
	c-0.1,0-0.1,0-0.2,0l0,0h0c0,0,0,0-0.1,0c0,0,0,0-0.1,0s0,0-0.1,0s0,0-0.1,0c0,0-0.1,0-0.1,0c0,0-0.1,0-0.1,0c0,0,0,0-0.1-0.1
	c0,0,0,0,0-0.1c0,0,0,0,0,0s0,0,0,0c0-0.1-0.1-0.1-0.1-0.2c0-0.1-0.1-0.2-0.1-0.2c0-0.1,0-0.2-0.1-0.2c0-0.1,0-0.1,0-0.2s0,0,0,0
	s0,0,0,0c0,0,0,0,0-0.1v0c0,0-0.1,0-0.1,0c0,0-0.1-0.1-0.1-0.1c-0.1,0-0.1-0.1-0.1-0.1v0v0v0c0,0,0,0,0,0c0,0,0,0,0-0.1
	c0,0,0,0,0-0.1v0v0c0,0,0-0.1,0.1-0.1c0,0,0-0.1,0-0.1c0,0,0-0.1,0-0.1c0,0,0-0.1,0.1-0.1h0c0,0,0,0,0,0c0,0,0.1,0,0.1,0
	s0.1,0,0.1,0c0,0,0,0,0,0s0,0,0,0v0.1c0.1,0,0.1,0.1,0.2,0.1c0.1,0,0.2,0.1,0.2,0.1s0.2,0.1,0.3,0.1c0.1,0,0.2,0,0.2,0s0.2,0,0.2,0
	c0.1,0,0.2,0,0.4-0.1c0.1,0,0.1-0.1,0.2-0.1h0h0h0c0,0,0,0,0,0h0c0,0,0,0,0,0c0,0,0,0,0,0.1c0,0,0,0,0,0.1c0,0,0,0,0,0.1
	c0,0,0,0.1,0,0.1c0,0,0,0.1,0,0.1h0h0c0,0,0,0,0,0.1c0,0,0,0,0,0.1v0c0,0,0,0,0,0c0,0,0,0,0,0.1c0,0,0,0,0,0.1l0,0c0,0,0,0,0,0
	c0,0,0,0.1,0,0.1c0,0,0,0,0,0.1c0,0,0,0,0,0.1c0,0,0,0,0,0l0,0c0,0-0.1,0-0.1,0.1c0,0-0.1,0-0.1,0c-0.2,0.1-0.3,0.1-0.5,0.1
	c-0.2,0-0.3,0-0.5,0c0,0,0,0.1,0.1,0.1c0,0,0,0.1,0.1,0.1c0,0,0,0.1,0.1,0.1s0,0,0.1,0c0.2,0,0.3,0,0.4,0c0.2,0,0.3,0,0.4-0.1
	c0.2-0.1,0.3-0.1,0.5-0.2c0.2-0.1,0.4-0.2,0.6-0.4c0,0,0.1-0.1,0.1-0.1c0,0,0.1,0,0.1-0.1c0,0,0,0,0,0c0.1,0,0.1,0,0.2,0.1
	c0,0,0.1,0.1,0.1,0.1l0.1,0.1c0,0,0.1,0.1,0.1,0.2c0,0.1,0.1,0.1,0.1,0.1c0,0,0,0.1,0.1,0.1c0,0,0,0,0,0.1c0,0,0,0,0,0.1
	c0,0,0,0.1,0,0.1c0,0,0,0.1,0,0.1l0,0c0,0,0,0.1,0,0.1s0,0.1,0,0.1c0,0.1,0,0.1,0,0.2c0,0.1-0.1,0.1,0,0.2c0,0,0,0,0,0
	c0,0.2-0.1,0.3-0.2,0.5c-0.1,0.1-0.2,0.2-0.3,0.3c-0.1,0.1-0.2,0.1-0.3,0.2c-0.1,0-0.2,0.1-0.4,0.1c-0.1,0-0.3,0-0.4,0
	c-0.2,0-0.3-0.1-0.4-0.2l0,0c0,0,0,0,0,0l0-0.1c0,0,0,0,0.1,0s0,0,0.1,0c0,0-0.1-0.1-0.1-0.1s-0.1-0.1-0.1-0.1c0,0,0,0,0,0l0,0
	c0,0,0,0,0-0.1c0,0,0,0,0,0c0,0,0,0,0-0.1c0,0,0,0,0-0.1l0,0l0,0c0,0,0,0,0,0c0,0,0,0,0,0c0,0,0,0,0,0l0,0v0c0,0,0,0,0,0
	c0,0,0,0,0,0c0,0,0,0,0,0c0,0,0.1,0,0.1,0c0,0,0.1,0,0.1,0s0,0,0,0l0,0c0,0,0,0,0,0c0.1,0,0.1,0,0.2,0.1c0,0,0.1,0,0.2,0.1l0,0v0
	h0.1h0.1l0,0c0,0,0,0,0,0c0,0,0.1,0,0.1,0h0.1c0,0,0,0,0,0c0,0,0,0,0,0c0,0,0.1,0,0.1,0c0,0,0.1,0,0.1,0l0,0c0,0,0,0,0,0
	c0,0,0.1,0,0.1,0s0.1,0,0.1,0l0,0l0,0l0,0l0,0l0.2-0.1c0.1,0,0.1,0,0.2-0.1c0.1,0,0.1-0.1,0.2-0.1c0.1-0.1,0.1-0.1,0.2-0.2
	c0,0,0-0.1-0.1-0.1c0,0-0.1-0.1-0.1-0.1c0,0-0.1-0.1-0.1-0.1c0,0-0.1-0.1-0.1-0.1c0,0-0.1,0.1-0.1,0.1l-0.2,0.1
	c-0.1,0.1-0.2,0.2-0.4,0.3c-0.1,0.1-0.2,0.1-0.4,0.2c-0.1,0.1-0.3,0.1-0.4,0.1c-0.2,0-0.3,0-0.5,0L260.2,174.4
	c0.1-0.1,0.1-0.1,0.1-0.1L260.2,174.4L260.2,174.4z M261.6,171.9c-0.1,0-0.1,0-0.2,0c-0.1,0-0.1,0-0.2,0l0,0h0c0,0,0,0-0.1,0
	s0,0-0.1,0c0,0,0,0-0.1,0s0,0-0.1,0c0,0-0.1,0-0.1,0c0,0-0.1,0-0.1,0c0,0,0,0-0.1-0.1c0,0,0,0,0-0.1c0,0,0,0,0,0l0,0
	c0-0.1-0.1-0.1-0.1-0.2s-0.1-0.2-0.1-0.2c0-0.1,0-0.2-0.1-0.2c0-0.1,0-0.1,0-0.2c0,0,0,0,0,0s0,0,0,0s0,0,0-0.1v0c0,0-0.1,0-0.1,0
	c0,0-0.1-0.1-0.1-0.1c-0.1,0-0.1-0.1-0.1-0.1v0v0v0c0,0,0,0,0,0c0,0,0,0,0-0.1c0,0,0,0,0-0.1v0v0c0,0,0-0.1,0.1-0.1c0,0,0-0.1,0-0.1
	c0,0,0-0.1,0-0.1c0,0,0-0.1,0.1-0.1h0c0,0,0,0,0,0c0,0,0.1,0,0.1,0s0.1,0,0.1,0c0,0,0,0,0,0c0,0,0,0,0,0v0.1c0.1,0,0.1,0.1,0.2,0.1
	c0.1,0,0.2,0.1,0.2,0.1c0.1,0,0.2,0.1,0.3,0.1c0.1,0,0.2,0,0.2,0s0.2,0,0.2,0c0.1,0,0.2,0,0.4-0.1c0.1,0,0.1-0.1,0.2-0.1h0h0h0
	c0,0,0,0,0,0h0h0c0,0,0,0,0,0.1c0,0,0,0,0,0.1c0,0,0,0,0,0.1c0,0,0,0.1,0,0.1c0,0,0,0.1,0,0.1h0h0c0,0,0,0,0,0.1c0,0,0,0,0,0.1v0
	c0,0,0,0,0,0c0,0,0,0,0,0.1c0,0,0,0,0,0.1l0,0c0,0,0,0,0,0c0,0,0,0.1,0,0.1c0,0,0,0,0,0.1c0,0,0,0,0,0.1c0,0,0,0,0,0l0,0
	c0,0-0.1,0-0.1,0.1c0,0-0.1,0-0.1,0c-0.2,0.1-0.3,0.1-0.5,0.1c-0.2,0-0.3,0-0.5,0c0,0,0,0.1,0.1,0.1c0,0,0,0.1,0.1,0.1
	c0,0,0,0.1,0.1,0.1c0,0,0,0,0.1,0c0.2,0,0.3,0,0.4,0c0.2,0,0.3,0,0.4-0.1c0.2-0.1,0.3-0.1,0.5-0.2c0.2-0.1,0.4-0.2,0.6-0.4
	c0,0,0.1-0.1,0.1-0.1c0,0,0.1,0,0.1-0.1c0,0,0,0,0,0c0.1,0,0.1,0,0.2,0.1c0,0,0.1,0.1,0.1,0.1l0.1,0.1l0.1,0.2
	c0,0.1,0.1,0.1,0.1,0.1c0,0,0,0.1,0.1,0.1c0,0,0,0,0,0.1c0,0,0,0,0,0.1c0,0,0,0.1,0,0.1s0,0.1,0,0.1l0,0c0,0,0,0.1,0,0.1
	c0,0,0,0.1,0,0.1c0,0.1,0,0.1,0,0.2c0,0,0,0.1,0,0.1c0,0,0,0.1,0,0.1s0,0,0,0c0,0.2-0.1,0.3-0.2,0.5c-0.1,0.1-0.2,0.2-0.3,0.3
	c-0.1,0.1-0.2,0.1-0.3,0.2c-0.1,0-0.2,0.1-0.4,0.1c-0.1,0-0.3,0-0.4,0c-0.2,0-0.3-0.1-0.4-0.2l0,0c0,0,0,0,0,0l0-0.1c0,0,0,0,0.1,0
	c0,0,0,0,0.1,0c0,0-0.1-0.1-0.1-0.1c0,0-0.1-0.1-0.1-0.1c0,0,0,0,0,0l0,0c0,0,0,0,0-0.1c0,0,0,0,0,0c0,0,0,0,0-0.1c0,0,0,0,0-0.1
	l0,0l0,0c0,0,0,0,0,0s0,0,0,0c0,0,0,0,0,0l0,0v0c0,0,0,0,0,0c0,0,0,0,0,0c0,0,0,0,0,0c0,0,0.1,0,0.1,0c0,0,0.1,0,0.1,0s0,0,0,0l0,0
	c0,0,0,0,0,0c0.1,0,0.1,0,0.2,0.1c0,0,0.1,0,0.2,0.1l0,0v0h0.1h0.1l0,0c0,0,0,0,0,0c0,0,0.1,0,0.1,0h0.1c0,0,0,0,0,0c0,0,0,0,0,0
	c0,0,0.1,0,0.1,0c0,0,0.1,0,0.1,0l0,0c0,0,0,0,0,0c0,0,0.1,0,0.1,0s0.1,0,0.1,0l0,0l0,0l0,0l0,0l0.2-0.1c0.1,0,0.1,0,0.2-0.1
	c0.1,0,0.1-0.1,0.2-0.1c0.1-0.1,0.1-0.1,0.2-0.2c0,0,0-0.1-0.1-0.1c0,0-0.1-0.1-0.1-0.1c0,0-0.1-0.1-0.1-0.1s-0.1-0.1-0.1-0.1
	c0,0-0.1,0.1-0.1,0.1l-0.2,0.1c-0.1,0.1-0.2,0.2-0.4,0.3c-0.1,0.1-0.2,0.1-0.4,0.2c-0.1,0.1-0.3,0.1-0.4,0.1c-0.2,0-0.3,0-0.5,0
	L261.6,171.9c0.1-0.1,0.1-0.1,0.1-0.1L261.6,171.9z M265,170.2L265,170.2C265,170.2,265,170.2,265,170.2
	C265,170.2,265,170.3,265,170.2L265,170.2c0,0.1,0,0.1,0,0.2c0,0,0,0,0,0c0,0,0,0,0,0v0l0,0c0,0,0,0,0,0v0c0,0,0,0,0,0c0,0,0,0,0,0
	c0,0,0,0.1,0,0.1c0,0,0,0,0,0s0,0,0,0l0,0l0,0h0c0,0,0,0-0.1,0c-0.2-0.1-0.4-0.2-0.6-0.3c-0.2-0.1-0.4-0.2-0.6-0.3
	c-0.2-0.1-0.4-0.2-0.6-0.3c-0.2-0.1-0.3-0.2-0.5-0.3c-0.1-0.1-0.2-0.1-0.3-0.2c-0.1-0.1-0.2-0.1-0.2-0.2c0,0,0,0,0.1,0s0,0,0.1,0
	l0,0c0,0,0,0,0,0s0,0,0-0.1c0,0,0,0,0-0.1h0.1v0c0,0,0,0,0,0l0,0l0,0c0,0,0-0.1,0-0.1s0-0.1,0.1-0.1c0,0,0,0,0,0c0,0,0,0,0,0
	c0,0,0.1,0,0.1-0.1c0,0,0-0.1,0.1-0.1c0-0.1,0-0.1,0-0.1c0,0,0.1-0.1,0.1-0.1h0h0h0l0,0c0,0,0.1,0,0.1,0c0,0,0,0,0.1,0
	c0,0,0,0,0,0.1c0,0,0,0,0.1,0.1c0,0,0,0,0,0.1c0,0,0,0,0,0h0c0,0,0.1,0.1,0.1,0.1c0.1,0,0.1,0.1,0.2,0.1c0.1,0,0.1,0.1,0.2,0.1
	l0.1,0.1c0.2,0.1,0.4,0.2,0.6,0.4c0.2,0.1,0.4,0.2,0.6,0.4c0,0,0,0,0.1,0c0,0,0.1,0.1,0.1,0.1s0.1,0,0.1,0l0,0l0,0c0,0,0.1,0,0.1,0
	s0.1,0,0.1,0.1l0,0c0,0,0,0,0,0c0,0,0,0,0,0.1c0,0,0,0,0,0.1c0,0,0,0,0,0.1C265,170.1,265,170.1,265,170.2L265,170.2L265,170.2
	C264.9,170.1,264.9,170.1,265,170.2L265,170.2C265,170.1,265,170.1,265,170.2C265,170.2,265,170.2,265,170.2L265,170.2L265,170.2z
	 M262.6,166.9c0.1,0,0.2,0.1,0.2,0.1l0.2,0.1c0.1,0,0.2,0,0.2,0.1c0.1,0,0.2,0.1,0.2,0.1c0.1,0,0.2,0,0.2,0.1c0.1,0,0.2,0,0.2,0
	c0-0.1-0.1-0.2-0.1-0.4c0-0.1-0.1-0.2-0.1-0.4c0-0.1,0-0.1,0-0.2s0-0.1,0-0.2c0-0.1,0-0.1,0-0.2c0-0.1,0-0.1,0.1-0.2l0,0
	c0,0,0,0,0,0c0,0,0-0.1,0-0.1c0,0,0-0.1,0-0.1c0,0,0,0,0,0l0,0c0,0,0,0,0-0.1c0,0,0-0.1,0-0.1h0c0,0,0,0,0,0l0,0c0,0,0,0,0,0
	c0,0,0,0,0,0v0v0l0,0c0,0,0,0,0,0c0,0,0,0,0,0c0,0.2,0,0.3,0,0.5s0.1,0.3,0.1,0.4c0.1,0.2,0.1,0.3,0.2,0.4c0.1,0.1,0.1,0.3,0.2,0.4
	c0.3,0,0.6,0.1,0.9,0.1s0.6,0,0.9,0c0,0,0,0,0,0h0c0,0,0,0.1,0,0.1c0,0,0,0.1,0,0.1c0,0,0,0.1,0,0.1c0,0,0,0.1,0,0.1l0,0.1
	c0,0.1,0,0.1,0,0.2v0h0v0l0,0c0,0,0,0-0.1,0c0,0-0.1,0-0.1,0c-0.2,0-0.4,0-0.6,0c-0.2,0-0.4,0-0.6,0c0,0,0,0.1,0.1,0.1
	c0,0,0,0.1,0.1,0.1c0,0,0.1,0.1,0.1,0.1c0,0,0.1,0.1,0.1,0.1v0c0,0,0,0,0,0s0,0,0,0c0,0,0,0,0,0c0,0,0,0.1,0,0.1s0,0.1,0,0.1
	c0,0,0,0.1,0,0.1c0,0,0,0.1,0,0.1l0,0v0v0.1c0,0,0,0,0,0.1c0,0,0,0,0,0c0,0,0,0,0,0s-0.1,0.1-0.1,0c0,0-0.1,0.1-0.1,0.1
	s-0.1,0-0.1,0c0,0-0.1-0.1-0.1-0.1c0-0.1-0.1-0.1-0.1-0.1c-0.1-0.1-0.1-0.2-0.2-0.2c-0.1-0.1-0.1-0.2-0.1-0.3v0v0c0,0,0,0,0,0l0,0
	c0,0,0,0,0-0.1c0,0,0,0,0-0.1v0c0,0,0,0,0,0l0,0l0,0c0,0,0,0,0,0c0,0,0,0,0-0.1c0,0,0,0,0,0h0c0-0.1,0-0.1-0.1-0.2
	c0,0-0.1-0.1,0-0.2c-0.1,0-0.1,0-0.2-0.1c-0.1,0-0.2,0-0.2,0c0,0-0.1,0-0.1,0c0,0-0.1,0-0.1,0c-0.1,0-0.2-0.1-0.2-0.1
	c-0.1,0-0.1,0-0.2-0.1c-0.1,0-0.1,0-0.2,0c-0.1,0-0.1-0.1-0.2-0.1c-0.1,0-0.2-0.1-0.2-0.1c-0.1,0-0.2-0.1-0.2-0.1
	c-0.1,0-0.1-0.1-0.2-0.1v0v0c0,0,0-0.1,0-0.1s0-0.1,0-0.1c0,0,0-0.1,0.1-0.1c0,0,0-0.1,0-0.2s0-0.1,0-0.2S262.5,167,262.6,166.9
	C262.6,167,262.6,167,262.6,166.9C262.6,166.9,262.6,166.9,262.6,166.9L262.6,166.9z M265.4,165.3
	C265.4,165.3,265.4,165.3,265.4,165.3C265.4,165.3,265.4,165.3,265.4,165.3C265.4,165.2,265.4,165.3,265.4,165.3L265.4,165.3
	L265.4,165.3C265.4,165.3,265.4,165.3,265.4,165.3C265.4,165.4,265.4,165.4,265.4,165.3C265.4,165.3,265.4,165.3,265.4,165.3
	C265.4,165.3,265.4,165.3,265.4,165.3C265.5,165.3,265.5,165.4,265.4,165.3l0.2,0.1l0,0c0,0,0,0,0,0c0.2,0.1,0.3,0.2,0.5,0.3
	c0.1,0.1,0.2,0.2,0.4,0.2c0,0,0,0,0,0l0,0v0v0c0,0,0,0,0,0l0,0c0,0,0,0,0,0s0,0,0,0c0,0,0,0.1,0,0.1l0,0c0,0,0,0,0,0l0,0.1l-0.1-0.1
	v0c0,0,0,0,0,0c0,0,0,0,0,0.1c0,0,0,0.1,0,0.1c0,0,0,0.1-0.1,0.1c0,0,0,0,0,0.1l0,0l0,0l0,0c0,0,0,0,0,0c0,0,0,0-0.1,0l0,0v0v0
	l-0.1-0.1c0,0-0.1,0-0.2-0.1c-0.1-0.1-0.2-0.1-0.3-0.2c-0.1-0.1-0.3-0.2-0.4-0.3c-0.2-0.1-0.3-0.2-0.4-0.3l-0.3-0.3
	c-0.1-0.1-0.2-0.1-0.2-0.2c-0.1-0.1-0.1-0.1-0.2-0.2c0,0-0.1-0.1-0.1-0.1c0,0,0-0.1,0-0.1l0-0.1v0c0,0,0,0,0-0.1s0-0.1,0-0.1
	s0-0.1,0-0.1c0,0,0,0,0,0c0,0,0,0,0.1-0.1c0,0,0-0.1,0-0.1h0h0c0,0,0,0,0,0c0,0,0,0,0,0l0,0c0,0,0,0,0,0c0-0.1,0-0.1,0.1-0.1
	c0,0,0.1-0.1,0.1,0c0,0,0,0,0,0.1c0,0.1,0.1,0.1,0.2,0.2c0.1,0.1,0.2,0.2,0.2,0.2c0.1,0.1,0.2,0.2,0.3,0.2
	C265.2,165.2,265.2,165.2,265.4,165.3C265.4,165.2,265.4,165.2,265.4,165.3C265.4,165.3,265.4,165.3,265.4,165.3L265.4,165.3z
	 M266.5,166.9C266.5,166.9,266.5,166.9,266.5,166.9c0-0.1,0.1-0.1,0.1-0.1s0,0,0-0.1c0,0,0-0.1,0-0.1c0,0,0-0.1,0-0.1
	c0,0,0-0.1,0-0.1s0-0.1,0-0.1c0,0,0-0.1,0.1-0.1c0,0,0,0,0,0c0,0,0,0,0,0c0,0,0.1,0,0.1,0l0.1,0.1c0,0,0.1,0,0.1,0s0.1,0,0.1,0
	s0.1,0,0.2,0c0.1,0,0.1,0,0.1,0.1l0,0c0,0,0,0,0,0v0c0,0,0,0,0,0c0,0,0,0,0,0c0,0,0,0,0,0c0,0,0,0.1,0,0.1c0,0,0,0,0,0.1
	c0,0.1,0,0.1,0,0.2c0,0,0,0.1-0.1,0.2c0,0,0,0.1,0,0.1l0,0.1c-0.1,0-0.1,0-0.2,0s-0.1,0-0.2,0c-0.1,0-0.1,0-0.2-0.1
	C266.6,167,266.6,167,266.5,166.9L266.5,166.9L266.5,166.9z M333.1,158.1l-2.5-1.4c-0.5-0.2-1-0.3-1.5-0.1c-1.2,0.4-0.6,1.1-0.6,1.1
	c0.5,0.9-0.1-0.1,1.7,0.9c0.6,0.3,1.2,0.6,1.8,0.9c-1.1,1.6-1.5,0.8-1.5,2.2c1.9,1.3,3.2-1.3,3.3-1.8c0.6,0.1,1.5,0.6,1.5-0.4
	c0-0.6-0.2-0.5-0.7-0.6c0.3-1.4,1.5-2.3,1.1-3.9c-0.6,0.1-0.5-0.2-1.5,1.3L333.1,158.1z M242.2,216.4c-0.1,0-2.6-2-2.6-0.2
	c0,0.6-0.1,0.5,0.3,0.8l1.2,1c-0.8,1.1-1.9,2.2-1.9,2.6c-0.1,1.3,2.6,0.7,3.2-1.5c0.9,0.1,0.9,0.4,2,0.4c0-0.2,0-0.3,0-0.5l-0.3-0.4
	c-1.4-2.1,0.4-1.1-0.2-3.6C242.9,215,242.8,215.5,242.2,216.4L242.2,216.4z"/>
</svg>
