<?xml version="1.0" encoding="utf-8"?>
<!-- Generator: Adobe Illustrator 24.2.3, SVG Export Plug-In . SVG Version: 6.00 Build 0)  -->
<svg version="1.1" id="Capa_1" xmlns="http://www.w3.org/2000/svg" xmlns:xlink="http://www.w3.org/1999/xlink" x="0px" y="0px"
	 viewBox="0 0 1920 1080" style="enable-background:new 0 0 1920 1080;" xml:space="preserve">
<style type="text/css">
	.st0{fill:#E9E9E9;}
	.st1{fill:#232323;}
	.st2{fill-rule:evenodd;clip-rule:evenodd;fill:#E9E9E9;}
</style>
<g id="Capa_2_1_">
	<rect x="0.6" y="0.2" class="st0" width="1920.1" height="1074.3"/>
</g>
<rect x="-0.5" y="0.2" class="st1" width="1922" height="1079.9"/>
<g id="Estrellas" transform="matrix(0.259, 0.966, -0.966, 0.259, 831.708, 33)">
	<path id="Trazado_11" class="st2" d="M-113.4,417.2c0.1,3.7,0.8,4.5,0.9,7.9c-5.1,1.1-5.2,10.6,0.5,7.6c1.3-0.7,0.5-0.2,1-1.4
		l1.3,0c0.3,2.6,1.4,5,2.3,7.3c1.5,4.1,1.5,3.5,6.1,3.3c1.7-7.3-0.9-6.8-3.1-14.7c5.2-3.1,9.3-3.7,9.2-7.1c-0.1-4.7-10.8,0.3-12,0.9
		c-2.2-3.6-3-5.3-6.2-5.6L-113.4,417.2z"/>
	<path id="Trazado_12" class="st2" d="M-27.5,727.2l-9.3-4.7c-1.7-0.9-3.7-1-5.5-0.5c-4.2,1.3-2.1,3.5-2,3.5
		c1.8,3.1-0.2-0.3,6.2,3.2c2.2,1.2,4.6,2.1,6.8,3.2c-3.8,5.3-5.3,2.7-5.2,7.2c7,4.4,11.5-4.1,11.9-5.8c2.3,0.2,5.4,2,5.3-1.1
		c-0.1-1.8-0.8-1.7-2.7-1.9c1-4.5,5.2-7.3,3.7-12.7c-2.1,0.1-1.8-0.5-5.3,4.1L-27.5,727.2L-27.5,727.2z"/>
	<path id="Trazado_13" class="st2" d="M59,419.9c-4.7-1.1-16.9-7.1-14,3.3c4.2,1,4.3,0,10.1,2.7c-3,5.4-5.9,6.3-5.7,12l2,1.3
		c0.7-0.1,1.4-0.2,2.1-0.4c1.8-0.7,2.9-2.6,3.9-4.1c1.5-2.2,2.4-4.5,3.7-6.7c2.1,0.2,2.3,0.7,4.4,0.5c1.6-0.2,3.3-0.3,5-0.3
		c-0.8-2.5-5.1-4.5-7.5-5.7l1.7-9.1L59,419.9L59,419.9z"/>
	<path id="Trazado_14" class="st2" d="M33.1,568.7c-0.2-0.1-9.6-6.8-9.4-0.9c0.1,2-0.2,1.7,1.1,2.8l4.4,3.5c-2.7,3.7-6.7,7-6.8,8.5
		c-0.2,4.2,9.7,2.5,11.6-4.7c3.4,0.3,3.3,1.3,7.4,1.4c0.1-0.6,0-1.1-0.2-1.7l-1.1-1.5c-5.4-7,1.3-3.8-1.1-12.1
		C35.8,564.2,35.4,565.6,33.1,568.7L33.1,568.7z"/>
	<path id="Trazado_15" class="st2" d="M127,821c-3.3-0.9-3.1-3.1-6.1-3.2c-3.2-0.1-4.6,3.7,2.2,8c-3.7,6.6-6.6,4.4-3.1,9.1
		c3.8,0.1,4.6-1.7,7.2-5.3c3.6,0.8,3,2,6.7,1.4c-0.2-3.2-0.9-3.5-3.5-6.2c3.3-4.6,2.7-5.3,1.1-7.9C129.1,817.3,127.8,818.2,127,821z
		"/>
	<path id="Trazado_16" class="st2" d="M78.8,695.7c0.2,6.4,13,9,12.7-0.3c-0.1-3.7-7.7-5.6-10.7-3.2
		C80.1,693.3,79.4,694.5,78.8,695.7L78.8,695.7z"/>
	<path id="Trazado_17" class="st2" d="M-142.1,360.8c0.1,3.8,5.4,3.8,5.5,3.8c2.2-1,6.6-3.7,6.5-6.5
		C-130.4,350.3-142.3,354-142.1,360.8z"/>
	<path id="Trazado_18" class="st2" d="M-98.6,536.4c2.5,8.8,10.9,6.1,10.8,0.9c-0.1-4.9-4.4-4.4-8.2-4.5
		C-96.9,533.9-97.8,535.1-98.6,536.4z"/>
	<path id="Trazado_19" class="st2" d="M-99.9,801.1c0.1,0.1,0.3,0.2,0.3,0.3c1.1,4,8.8-1,10.4-1.9l-0.1-4.3
		C-95,792.4-99.5,795.3-99.9,801.1z"/>
	<path id="Trazado_20" class="st2" d="M-144.1,661.8c0,1.6,0.5,0.6,0.8,3.1c5.8,1.4,8.7-1,8.6-4c-0.1-3.3-1.8-3.2-4.1-4.4
		c-1.8,0.7-2.1,0.2-3.5,1.5C-143.4,659-144,660.3-144.1,661.8L-144.1,661.8z"/>
	<path id="Trazado_21" class="st2" d="M-71.6,404.3l0.2-0.2C-71.4,404.1-71.6,404.2-71.6,404.3z"/>
</g>
<g id="Estrellas-2" transform="matrix(0.259, 0.966, -0.966, 0.259, 539.708, 522)">
	<path id="Trazado_11-2" class="st2" d="M186.1,88.4c0.1,3.7,0.8,4.5,0.9,7.9c-5.1,1.1-5.2,10.6,0.5,7.6c1.3-0.7,0.5-0.2,1-1.4
		l1.3,0c0.3,2.6,1.4,5,2.3,7.3c1.5,4.1,1.5,3.5,6.1,3.3c1.7-7.3-0.9-6.8-3.1-14.7c5.2-3.1,9.3-3.7,9.2-7.1c-0.1-4.7-10.8,0.3-12,0.9
		c-2.2-3.6-3-5.3-6.2-5.6L186.1,88.4z"/>
	<path id="Trazado_12-2" class="st2" d="M272,398.4l-9.3-4.7c-1.7-0.9-3.7-1-5.5-0.5c-4.2,1.3-2.1,3.5-2,3.5
		c1.8,3.1-0.2-0.3,6.2,3.2c2.2,1.2,4.6,2.1,6.8,3.2c-3.8,5.3-5.3,2.7-5.2,7.2c7,4.4,11.5-4.1,11.9-5.8c2.3,0.2,5.4,2,5.3-1.1
		c-0.1-1.8-0.8-1.7-2.7-1.9c1-4.5,5.2-7.3,3.7-12.7c-2.1,0.1-1.8-0.5-5.3,4.1L272,398.4L272,398.4z"/>
	<path id="Trazado_13-2" class="st2" d="M358.5,91.1c-4.7-1.1-16.9-7.1-14,3.3c4.2,1,4.3,0,10.1,2.7c-3,5.4-5.9,6.3-5.7,12l2,1.3
		c0.7-0.1,1.4-0.2,2.1-0.4c1.8-0.7,2.9-2.6,3.9-4.1c1.5-2.2,2.4-4.5,3.7-6.7c2.1,0.2,2.3,0.7,4.4,0.5c1.6-0.2,3.3-0.3,5-0.3
		c-0.8-2.5-5.1-4.5-7.5-5.7l1.7-9.1L358.5,91.1L358.5,91.1z"/>
	<path id="Trazado_14-2" class="st2" d="M332.7,240c-0.2-0.1-9.6-6.8-9.4-0.9c0.1,2-0.2,1.7,1.1,2.8l4.4,3.5c-2.7,3.7-6.7,7-6.8,8.5
		c-0.2,4.2,9.7,2.5,11.6-4.7c3.4,0.3,3.3,1.3,7.4,1.4c0.1-0.6,0-1.1-0.2-1.7l-1.1-1.5c-5.4-7,1.3-3.8-1.1-12.1
		C335.3,235.4,334.9,236.9,332.7,240L332.7,240z"/>
	<path id="Trazado_15-2" class="st2" d="M426.5,492.2c-3.3-0.9-3.1-3.1-6.1-3.2c-3.2-0.1-4.6,3.7,2.2,8c-3.7,6.6-6.6,4.4-3.1,9.1
		c3.8,0.1,4.6-1.7,7.2-5.3c3.6,0.8,3,2,6.7,1.4c-0.2-3.2-0.9-3.5-3.5-6.2c3.3-4.6,2.7-5.3,1.1-7.9
		C428.6,488.6,427.3,489.4,426.5,492.2z"/>
	<path id="Trazado_16-2" class="st2" d="M378.4,366.9c0.2,6.4,13,9,12.7-0.3c-0.1-3.7-7.7-5.6-10.7-3.2
		C379.6,364.5,378.9,365.7,378.4,366.9L378.4,366.9z"/>
	<path id="Trazado_17-2" class="st2" d="M157.4,32.1c0.1,3.8,5.4,3.8,5.5,3.8c2.2-1,6.6-3.7,6.5-6.5
		C169.2,21.6,157.2,25.2,157.4,32.1z"/>
	<path id="Trazado_18-2" class="st2" d="M201,207.6c2.5,8.8,10.9,6.1,10.8,0.9c-0.1-4.9-4.4-4.4-8.2-4.5
		C202.6,205.2,201.7,206.4,201,207.6z"/>
	<path id="Trazado_19-2" class="st2" d="M199.6,472.3c0.1,0.1,0.3,0.2,0.3,0.3c1.1,4,8.8-1,10.4-1.9l-0.1-4.3
		C204.5,463.6,200,466.5,199.6,472.3z"/>
	<path id="Trazado_20-2" class="st2" d="M155.4,333c0,1.6,0.5,0.6,0.8,3.1c5.8,1.4,8.7-1,8.6-4c-0.1-3.3-1.8-3.2-4.1-4.4
		c-1.8,0.7-2.1,0.2-3.5,1.5C156.1,330.3,155.5,331.6,155.4,333L155.4,333z"/>
	<path id="Trazado_21-2" class="st2" d="M228,75.5l0.2-0.2C228.1,75.3,227.9,75.4,228,75.5z"/>
</g>
<g id="Estrellas-3" transform="matrix(0.259, 0.966, -0.966, 0.259, 1029.708, 736)">
	<path id="Trazado_11-3" class="st2" d="M-506.2,532.3c0.1,3.7,0.8,4.5,0.9,7.9c-5.1,1.1-5.2,10.6,0.5,7.6c1.3-0.7,0.5-0.2,1-1.4
		l1.3,0c0.3,2.6,1.4,5,2.3,7.3c1.5,4.1,1.5,3.5,6.1,3.3c1.7-7.3-0.9-6.8-3.1-14.7c5.2-3.1,9.3-3.7,9.2-7.1c-0.1-4.7-10.8,0.3-12,0.9
		c-2.2-3.6-3-5.3-6.2-5.6L-506.2,532.3z"/>
	<path id="Trazado_12-3" class="st2" d="M-420.3,842.2l-9.3-4.7c-1.7-0.9-3.7-1-5.5-0.5c-4.2,1.3-2.1,3.5-2,3.5
		c1.8,3.1-0.2-0.3,6.2,3.2c2.2,1.2,4.6,2.1,6.8,3.2c-3.8,5.3-5.3,2.7-5.2,7.2c7,4.4,11.5-4.1,11.9-5.8c2.3,0.2,5.4,2,5.3-1.1
		c-0.1-1.8-0.8-1.7-2.7-1.9c1-4.5,5.2-7.3,3.7-12.7c-2.1,0.1-1.8-0.5-5.3,4.1L-420.3,842.2L-420.3,842.2z"/>
	<path id="Trazado_13-3" class="st2" d="M-333.8,535c-4.7-1.1-16.9-7.1-14,3.3c4.2,1,4.3,0,10.1,2.7c-3,5.4-5.9,6.3-5.7,12l2,1.3
		c0.7-0.1,1.4-0.2,2.1-0.4c1.8-0.7,2.9-2.6,3.9-4.1c1.5-2.2,2.4-4.5,3.7-6.7c2.1,0.2,2.3,0.7,4.4,0.5c1.6-0.2,3.3-0.3,5-0.3
		c-0.8-2.5-5.1-4.5-7.5-5.7l1.7-9.1L-333.8,535L-333.8,535z"/>
	<path id="Trazado_14-3" class="st2" d="M-359.6,683.8c-0.2-0.1-9.6-6.8-9.4-0.9c0.1,2-0.2,1.7,1.1,2.8l4.4,3.5
		c-2.7,3.7-6.7,7-6.8,8.5c-0.2,4.2,9.7,2.5,11.6-4.7c3.4,0.3,3.3,1.3,7.4,1.4c0.1-0.6,0-1.1-0.2-1.7l-1.1-1.5
		c-5.4-7,1.3-3.8-1.1-12.1C-357,679.3-357.4,680.7-359.6,683.8L-359.6,683.8z"/>
	<path id="Trazado_15-3" class="st2" d="M-265.8,936.1c-3.3-0.9-3.1-3.1-6.1-3.2c-3.2-0.1-4.6,3.7,2.2,8c-3.7,6.6-6.6,4.4-3.1,9.1
		c3.8,0.1,4.6-1.7,7.2-5.3c3.6,0.8,3,2,6.7,1.4c-0.2-3.2-0.9-3.5-3.5-6.2c3.3-4.6,2.7-5.3,1.1-7.9
		C-263.7,932.4-265,933.2-265.8,936.1z"/>
	<path id="Trazado_16-3" class="st2" d="M-313.9,810.8c0.2,6.4,13,9,12.7-0.3c-0.1-3.7-7.7-5.6-10.7-3.2
		C-312.7,808.4-313.4,809.5-313.9,810.8L-313.9,810.8z"/>
	<path id="Trazado_17-3" class="st2" d="M-534.9,475.9c0.1,3.8,5.4,3.8,5.5,3.8c2.2-1,6.6-3.7,6.5-6.5
		C-523.1,465.4-535.1,469.1-534.9,475.9z"/>
	<path id="Trazado_18-3" class="st2" d="M-491.3,651.5c2.5,8.8,10.9,6.1,10.8,0.9c-0.1-4.9-4.4-4.4-8.2-4.5
		C-489.7,649-490.6,650.2-491.3,651.5z"/>
	<path id="Trazado_19-3" class="st2" d="M-492.7,916.1c0.1,0.1,0.3,0.2,0.3,0.3c1.1,4,8.8-1,10.4-1.9l-0.1-4.3
		C-487.8,907.5-492.3,910.4-492.7,916.1z"/>
	<path id="Trazado_20-3" class="st2" d="M-536.9,776.9c0,1.6,0.5,0.6,0.8,3.1c5.8,1.4,8.7-1,8.6-4c-0.1-3.3-1.8-3.2-4.1-4.4
		c-1.8,0.7-2.1,0.2-3.5,1.5C-536.2,774.1-536.7,775.4-536.9,776.9L-536.9,776.9z"/>
	<path id="Trazado_21-3" class="st2" d="M-464.3,519.3l0.2-0.2C-464.1,519.2-464.4,519.3-464.3,519.3z"/>
</g>
<g id="Estrellas-4" transform="matrix(0.259, 0.966, -0.966, 0.259, 2046.708, 0)">
	<path id="Trazado_11-4" class="st2" d="M41.3,665.7c2.8-2.4,3-3.4,5.6-5.7c4.1,3.3,11.5-2.6,5.6-5.1c-1.3-0.6-0.5-0.3-1.8,0.1
		l-0.8-1.1c1.8-1.9,3-4.3,4.3-6.4c2.2-3.8,1.8-3.4-1.2-6.8c-6.8,3.3-4.8,5-9.5,11.6c-5.7-2.1-8.7-4.9-11.3-2.7c-3.6,3,7,8.2,8.2,8.8
		c-1.4,3.9-2.3,5.7-0.5,8.4L41.3,665.7z"/>
	<path id="Trazado_12-4" class="st2" d="M229.2,404.7l2.1,10.2c0.4,1.9,1.5,3.5,3.1,4.6c3.7,2.4,4-0.6,4-0.6
		c1.3-3.3-0.1,0.4-1.4-6.8c-0.4-2.4-1.2-4.9-1.7-7.3c6.5-0.3,5.4,2.4,8.8-0.5c-1-8.2-10.4-6.4-12-5.7c-1.3-2-1.8-5.5-4.2-3.5
		c-1.4,1.2-0.8,1.7,0.2,3.3c-4.1,2-8.9,0.5-12.2,5.1c1.4,1.6,0.7,1.7,6.5,1.5L229.2,404.7L229.2,404.7z"/>
	<path id="Trazado_13-4" class="st2" d="M-64.5,529.6c2.1,4.4,5,17.7,11.3,8.8c-1.9-3.9-2.6-3.3-4.2-9.6c6.1-1,8.6,0.6,12.9-3.1
		l-0.3-2.4c-0.5-0.5-1.1-1-1.7-1.4c-1.7-1-3.9-0.6-5.7-0.5c-2.7,0.2-5,0.9-7.6,1.4c-1.1-1.8-0.9-2.2-2.4-3.8
		c-1.2-1.1-2.3-2.4-3.3-3.7c-1.4,2.2-0.3,6.7,0.3,9.4l-8.2,4.3L-64.5,529.6L-64.5,529.6z"/>
	<path id="Trazado_14-4" class="st2" d="M67.7,456.5c0,0.2,0.7,11.7,5.2,7.9c1.6-1.3,1.5-0.9,1.5-2.6l-0.1-5.6
		c4.6-0.2,9.7,0.9,10.9,0c3.4-2.5-4.1-9.1-10.9-6.1c-1.9-2.9-1-3.4-3.5-6.7c-0.5,0.3-0.9,0.7-1.2,1.2l-0.4,1.8
		c-2,8.6-3.7,1.4-8.8,8.5C62.5,457.3,63.9,456.7,67.7,456.5L67.7,456.5z"/>
	<path id="Trazado_15-4" class="st2" d="M205.6,225.4c1.4,3.2-0.5,4.4,1.3,6.8c1.9,2.5,5.8,1.2,4.8-6.7c7.5-1.2,7.6,2.4,9-3.3
		c-2.3-3-4.2-2.5-8.7-2.3c-1.6-3.3-0.3-3.6-3.1-6.1c-2.4,2.2-2.1,2.9-2.6,6.6c-5.7,0.3-5.8,1.2-6.9,4.1
		C201.5,226.1,202.9,226.6,205.6,225.4z"/>
	<path id="Trazado_16-4" class="st2" d="M138.1,341.4c4.9-4.2-1.2-15.7-8.2-9.8c-2.8,2.4,0.5,9.5,4.2,10.3
		C135.4,342,136.8,341.8,138.1,341.4L138.1,341.4z"/>
	<path id="Trazado_17-4" class="st2" d="M15.3,723.4c2.9-2.4-0.4-6.6-0.5-6.6c-2.2-1.1-7-2.8-9.2-1
		C-0.2,720.8,10.1,727.8,15.3,723.4z"/>
	<path id="Trazado_18-4" class="st2" d="M124.9,579.5c5.3-7.5-2.1-12.3-6-8.9c-3.7,3.2-0.7,6.2,1.6,9.2
		C122,579.8,123.5,579.7,124.9,579.5z"/>
	<path id="Trazado_19-4" class="st2" d="M332.1,414.8c0-0.2,0-0.3,0.1-0.5c2.5-3.4-6.3-6.3-8-6.9l-3.3,2.8
		C322.3,416.5,327.4,418.1,332.1,414.8z"/>
	<path id="Trazado_20-4" class="st2" d="M251.2,536.5c1.2-1,0.2-0.8,1.9-2.5c-2.5-5.4-6.2-6.1-8.5-4.2c-2.5,2.2-1.4,3.4-0.8,6
		c1.7,0.9,1.5,1.5,3.4,1.8C248.6,537.7,250,537.3,251.2,536.5L251.2,536.5z"/>
	<path id="Trazado_21-4" class="st2" d="M5,641.2l-0.3,0C4.8,641.1,5,641.3,5,641.2z"/>
</g>
<g id="Estrellas-3_1_" transform="matrix(0.259, 0.966, -0.966, 0.259, 1029.708, 736)">
	<path id="Trazado_11-3_1_" class="st2" d="M-33,26.6c0.1,3.7,0.8,4.5,0.9,7.9c-5.1,1.1-5.2,10.6,0.5,7.6c1.3-0.7,0.5-0.2,1-1.4
		l1.3,0c0.3,2.6,1.4,5,2.3,7.3c1.5,4.1,1.5,3.5,6.1,3.3c1.7-7.3-0.9-6.8-3.1-14.7c5.2-3.1,9.3-3.7,9.2-7.1c-0.1-4.7-10.8,0.3-12,0.9
		c-2.2-3.6-3-5.3-6.2-5.6L-33,26.6z"/>
	<path id="Trazado_12-3_1_" class="st2" d="M52.9,336.6l-9.3-4.7c-1.7-0.9-3.7-1-5.5-0.5c-4.2,1.3-2.1,3.5-2,3.5
		c1.8,3.1-0.2-0.3,6.2,3.2c2.2,1.2,4.6,2.1,6.8,3.2c-3.8,5.3-5.3,2.7-5.2,7.2c7,4.4,11.5-4.1,11.9-5.8c2.3,0.2,5.4,2,5.3-1.1
		c-0.1-1.8-0.8-1.7-2.7-1.9c1-4.5,5.2-7.3,3.7-12.7c-2.1,0.1-1.8-0.5-5.3,4.1L52.9,336.6L52.9,336.6z"/>
	<path id="Trazado_13-3_1_" class="st2" d="M139.4,29.3c-4.7-1.1-16.9-7.1-14,3.3c4.2,1,4.3,0,10.1,2.7c-3,5.4-5.9,6.3-5.7,12l2,1.3
		c0.7-0.1,1.4-0.2,2.1-0.4c1.8-0.7,2.9-2.6,3.9-4.1c1.5-2.2,2.4-4.5,3.7-6.7c2.1,0.2,2.3,0.7,4.4,0.5c1.6-0.2,3.3-0.3,5-0.3
		c-0.8-2.5-5.1-4.5-7.5-5.7l1.7-9.1L139.4,29.3L139.4,29.3z"/>
	<path id="Trazado_14-3_1_" class="st2" d="M113.5,178.2c-0.2-0.1-9.6-6.8-9.4-0.9c0.1,2-0.2,1.7,1.1,2.8l4.4,3.5
		c-2.7,3.7-6.7,7-6.8,8.5c-0.2,4.2,9.7,2.5,11.6-4.7c3.4,0.3,3.3,1.3,7.4,1.4c0.1-0.6,0-1.1-0.2-1.7l-1.1-1.5
		c-5.4-7,1.3-3.8-1.1-12.1C116.2,173.6,115.8,175,113.5,178.2L113.5,178.2z"/>
	<path id="Trazado_15-3_1_" class="st2" d="M207.4,430.4c-3.3-0.9-3.1-3.1-6.1-3.2c-3.2-0.1-4.6,3.7,2.2,8c-3.7,6.6-6.6,4.4-3.1,9.1
		c3.8,0.1,4.6-1.7,7.2-5.3c3.6,0.8,3,2,6.7,1.4c-0.2-3.2-0.9-3.5-3.5-6.2c3.3-4.6,2.7-5.3,1.1-7.9
		C209.4,426.8,208.1,427.6,207.4,430.4z"/>
	<path id="Trazado_16-3_1_" class="st2" d="M159.2,305.1c0.2,6.4,13,9,12.7-0.3c-0.1-3.7-7.7-5.6-10.7-3.2
		C160.4,302.7,159.7,303.9,159.2,305.1L159.2,305.1z"/>
	<path id="Trazado_17-3_1_" class="st2" d="M-61.8-29.8c0.1,3.8,5.4,3.8,5.5,3.8c2.2-1,6.6-3.7,6.5-6.5C-50-40.2-62-36.6-61.8-29.8z
		"/>
	<path id="Trazado_18-3_1_" class="st2" d="M-18.2,145.8c2.5,8.8,10.9,6.1,10.8,0.9c-0.1-4.9-4.4-4.4-8.2-4.5
		C-16.6,143.4-17.4,144.6-18.2,145.8z"/>
	<path id="Trazado_19-3_1_" class="st2" d="M-19.5,410.5c0.1,0.1,0.3,0.2,0.3,0.3c1.1,4,8.8-1,10.4-1.9l-0.1-4.3
		C-14.7,401.8-19.2,404.7-19.5,410.5z"/>
	<path id="Trazado_20-3_1_" class="st2" d="M-63.7,271.2c0,1.6,0.5,0.6,0.8,3.1c5.8,1.4,8.7-1,8.6-4c-0.1-3.3-1.8-3.2-4.1-4.4
		c-1.8,0.7-2.1,0.2-3.5,1.5C-63,268.4-63.6,269.8-63.7,271.2L-63.7,271.2z"/>
	<path id="Trazado_21-3_1_" class="st2" d="M8.8,13.7L9,13.5C9,13.5,8.7,13.6,8.8,13.7z"/>
</g>
<g id="Estrellas-3_2_" transform="matrix(0.259, 0.966, -0.966, 0.259, 1029.708, 736)">
	<path id="Trazado_11-3_2_" class="st2" d="M436.2-715.3c-3.5-1.1-4.5-0.7-7.8-1.7c0.6-5.2-8.4-8.4-7.3-2c0.2,1.4,0,0.6,1,1.4
		l-0.5,1.3c-2.6-0.6-5.2-0.3-7.7-0.2c-4.4,0.1-3.8,0.3-5.1,4.7c6.4,4,6.7,1.4,14.9,1.8c1.2,6,0.5,10,3.7,11
		c4.5,1.4,3.2-10.3,3.1-11.7c4.1-0.9,6-1.1,7.4-4L436.2-715.3z"/>
	<path id="Trazado_12-3_2_" class="st2" d="M115.2-734.7l7.5-7.3c1.4-1.3,2.2-3.2,2.2-5c0.1-4.4-2.6-3.1-2.7-3.1
		c-3.5,0.6,0.3-0.1-5,4.8c-1.8,1.7-3.5,3.6-5.3,5.4c-3.8-5.3-0.8-5.9-5.1-7.2c-6.4,5.2,0.2,12.2,1.6,13.1c-1,2.1-3.7,4.5-0.7,5.4
		c1.8,0.5,1.9-0.2,2.7-2c3.9,2.4,5.2,7.3,10.8,7.6c0.6-2,1.1-1.5-2.2-6.3L115.2-734.7L115.2-734.7z"/>
	<path id="Trazado_13-3_2_" class="st2" d="M377.7-553.1c2.6-4.1,12.3-13.7,1.4-14.3c-2.3,3.7-1.4,4-5.9,8.7
		c-4.1-4.6-4.1-7.6-9.5-9.3l-1.9,1.5c-0.1,0.7-0.2,1.4-0.3,2.1c0.1,2,1.5,3.6,2.6,5.1c1.6,2.1,3.5,3.8,5.2,5.7
		c-0.9,1.9-1.4,1.9-1.9,4c-0.3,1.6-0.8,3.2-1.4,4.8c2.6,0.1,5.9-3.4,7.8-5.3l8,4.6L377.7-553.1L377.7-553.1z"/>
	<path id="Trazado_14-3_2_" class="st2" d="M245.3-625.9c0.2-0.1,9.5-6.9,3.9-8.6c-2-0.6-1.5-0.8-3,0.1l-4.7,3.1
		c-2.7-3.8-4.4-8.6-5.8-9.2c-3.9-1.6-5.5,8.3,0.7,12.5c-1.4,3.1-2.3,2.7-3.7,6.6c0.5,0.2,1.1,0.4,1.7,0.3l1.8-0.6
		c8.3-2.9,3.1,2.4,11.8,2.9C248.8-621.9,247.5-622.8,245.3-625.9L245.3-625.9z"/>
	<path id="Trazado_15-3_2_" class="st2" d="M-23.8-619.1c1.9-2.9,4-2,5-4.8c1.1-3-2.1-5.5-8.3-0.5c-5.1-5.7-2-7.7-7.6-5.9
		c-1.3,3.6,0.1,4.9,2.7,8.6c-2,3.1-2.9,2.2-3.5,5.9c3.1,0.9,3.6,0.3,7-1.3c3.3,4.7,4.2,4.2,7.1,3.6C-21-615.9-21.3-617.4-23.8-619.1
		z"/>
	<path id="Trazado_16-3_2_" class="st2" d="M110.4-623.9c-6.1-1.9-12.7,9.4-3.9,12.1c3.5,1.1,7.8-5.5,6.5-9.1
		C112.3-622,111.4-623,110.4-623.9L110.4-623.9z"/>
	<path id="Trazado_17-3_2_" class="st2" d="M498.9-724.2c-3.6-1.1-5.3,3.8-5.4,3.9c0.2,2.4,1.4,7.4,4.1,8.3
		C505-709.6,505.4-722.1,498.9-724.2z"/>
	<path id="Trazado_18-3_2_" class="st2" d="M318.7-740c-9.1-0.5-9.3,8.3-4.3,9.9c4.7,1.4,5.6-2.7,6.9-6.3
		C320.5-737.6,319.6-738.8,318.7-740z"/>
	<path id="Trazado_19-3_2_" class="st2" d="M68.8-827.2c-0.1,0.1-0.2,0.2-0.4,0.2c-4.2-0.3-1.9,8.7-1.6,10.4l4.1,1.3
		C75.4-819.8,74.1-825,68.8-827.2z"/>
	<path id="Trazado_20-3_2_" class="st2" d="M214.9-823.8c-1.5-0.5-0.8,0.2-3.1-0.3c-3.2,5.1-1.9,8.5,1,9.4c3.2,1,3.6-0.6,5.5-2.5
		c-0.1-1.9,0.5-2-0.3-3.8C217.2-822.2,216.2-823.2,214.9-823.8L214.9-823.8z"/>
	<path id="Trazado_21-3_2_" class="st2" d="M434.9-671.5l0.1,0.2C435-671.3,434.9-671.6,434.9-671.5z"/>
</g>
<g id="Estrellas-3_4_" transform="matrix(0.259, 0.966, -0.966, 0.259, 1029.708, 736)">
	<path id="Trazado_11-3_4_" class="st2" d="M342.2-128.1c-1.3-3.5-2.2-4-3.4-7.2c4.5-2.7,1.5-11.7-2.9-7c-1,1.1-0.5,0.3-0.5,1.7
		l-1.3,0.4c-1.1-2.4-3-4.3-4.5-6.2c-2.8-3.4-2.6-2.8-6.8-1.2c0.7,7.5,3,6.2,7.6,13c-4,4.6-7.6,6.5-6.5,9.6
		c1.6,4.4,10.1-3.7,11.1-4.7c3.2,2.7,4.5,4.1,7.7,3.4L342.2-128.1z"/>
	<path id="Trazado_12-3_4_" class="st2" d="M162.3-394.7l10.3,1.5c1.9,0.3,3.8-0.2,5.3-1.3c3.6-2.6,0.8-4,0.8-4
		c-2.7-2.4,0.3,0.2-6.8-1.1c-2.4-0.4-5-0.6-7.5-0.9c1.9-6.2,4.2-4.2,2.6-8.4c-8-1.9-9.6,7.5-9.4,9.3c-2.3,0.5-5.8-0.2-4.7,2.7
		c0.6,1.7,1.3,1.4,3.2,0.9c0.5,4.6-2.6,8.6,0.6,13.2c1.9-0.8,1.8-0.1,3.7-5.6L162.3-394.7L162.3-394.7z"/>
	<path id="Trazado_13-3_4_" class="st2" d="M177.9-75.9c4.8-0.4,18.3,1.4,12.2-7.6c-4.3,0.4-4.1,1.3-10.5,0.7
		c1.2-6.1,3.5-7.9,1.6-13.2l-2.3-0.6c-0.7,0.3-1.3,0.7-1.9,1.1c-1.5,1.3-1.9,3.4-2.4,5.2c-0.7,2.6-0.9,5-1.3,7.6
		c-2,0.5-2.4,0-4.3,0.9c-1.5,0.7-3,1.4-4.6,1.8c1.5,2.1,6.2,2.6,9,3l1.2,9.2L177.9-75.9L177.9-75.9z"/>
	<path id="Trazado_14-3_4_" class="st2" d="M155.1-225.2c0.2,0,11.2,3.4,9.2-2.2c-0.7-1.9-0.3-1.7-1.9-2.3l-5.3-1.9
		c1.4-4.4,4.2-8.8,3.8-10.2c-1.1-4.1-10,0.7-9.5,8.2c-3.3,0.8-3.5-0.2-7.5,1c0.1,0.6,0.4,1.1,0.7,1.5l1.5,1c7.3,4.9,0,4,4.9,11.2
		C154-220,154-221.6,155.1-225.2L155.1-225.2z"/>
	<path id="Trazado_15-3_4_" class="st2" d="M-14.1-434.6c3.4-0.2,4,2,6.8,1.1c3-0.9,3.1-5-4.7-6.9c1.4-7.5,4.8-6.3,0.1-9.6
		c-3.7,1.1-3.9,3.1-5.2,7.3c-3.7,0.3-3.5-0.9-6.8,0.8c1.2,3,2,3,5.3,4.7c-1.7,5.4-0.8,5.9,1.5,7.8
		C-14.8-430.5-13.9-431.6-14.1-434.6z"/>
	<path id="Trazado_16-3_4_" class="st2" d="M71.4-331.1c-2.2-6-15.2-4.4-12,4.3c1.3,3.4,9.1,2.8,11.1-0.4
		C71-328.4,71.3-329.7,71.4-331.1L71.4-331.1z"/>
	<path id="Trazado_17-3_4_" class="st2" d="M387.3-83.8c-1.3-3.5-6.3-1.9-6.4-1.9c-1.8,1.6-5.1,5.6-4.1,8.3
		C379.5-70.1,389.7-77.3,387.3-83.8z"/>
	<path id="Trazado_18-3_4_" class="st2" d="M290.2-236.4c-5.2-7.6-12.3-2.3-10.5,2.6c1.7,4.6,5.5,2.8,9.2,1.7
		C289.5-233.5,289.9-235,290.2-236.4z"/>
	<path id="Trazado_19-3_4_" class="st2" d="M207.4-487.8c-0.1-0.1-0.3-0.1-0.4-0.2c-2.3-3.5-8.1,3.7-9.2,5.1l1.5,4
		C205.6-478,208.9-482.2,207.4-487.8z"/>
	<path id="Trazado_20-3_4_" class="st2" d="M293.6-369.7c-0.5-1.5-0.6-0.5-1.7-2.7c-6,0.5-7.9,3.7-6.9,6.6c1.2,3.1,2.7,2.5,5.3,2.8
		c1.5-1.3,1.9-0.9,2.9-2.6C293.8-366.9,293.9-368.4,293.6-369.7L293.6-369.7z"/>
	<path id="Trazado_21-3_4_" class="st2" d="M306.6-102.5l-0.1,0.2C306.5-102.3,306.7-102.5,306.6-102.5z"/>
</g>
</svg>
