<?xml version="1.0" encoding="utf-8"?>
<!-- Generator: Adobe Illustrator 24.2.3, SVG Export Plug-In . SVG Version: 6.00 Build 0)  -->
<svg version="1.1" id="Capa_1" xmlns="http://www.w3.org/2000/svg" xmlns:xlink="http://www.w3.org/1999/xlink" x="0px" y="0px"
	 viewBox="0 0 1920 1080" style="enable-background:new 0 0 1920 1080;" xml:space="preserve">
<style type="text/css">
	.st0{clip-path:url(#SVGID_2_);}
	.st1{fill:#232323;}
	.st2{fill-rule:evenodd;clip-rule:evenodd;fill:#E9E9E9;}
</style>
<g id="Capa_1_1_">
</g>
<g>
	<defs>
		<rect id="SVGID_1_" x="0.6" y="0.4" width="1920.3" height="1077.6"/>
	</defs>
	<clipPath id="SVGID_2_">
		<use xlink:href="#SVGID_1_"  style="overflow:visible;"/>
	</clipPath>
	<g id="Capa_2_1_" class="st0">
		<path class="st1" d="M-2.9-11.6h1058c0,0,41,111,9,247s-111,50-152,171s19,212,29,297s-26,162-121,212s-205,0-392,64
			s-437,91-437,91L-2.9-11.6z"/>
		<g id="Capa_x0020_1" transform="translate(-1684.8 584.179) rotate(-21)">
			<path id="Trazado_10" class="st2" d="M1856.5,932.1c-5.4,0-4.9-0.7-8.2-0.7c-1-4.4-3.3-6.7-3.7-11.1c3.4,0.1,2.9,1,5.9,0.7
				c12.7-1,23.5-7.6,32.3-16c1.1-1,0.4-0.7,1.9-1.8c1.3,5.5,3.7,12.7,3.7,16.3c-2.9,0.2-14.5,7.2-18.4,9
				C1866.4,930.2,1861.1,932.1,1856.5,932.1L1856.5,932.1z M1852,915.1v0.7l-0.9-0.6L1852,915.1z M1847.6,914.3l-0.4,1.6
				L1847.6,914.3z M1848.3,913.6l-0.7,0.7L1848.3,913.6z M1849.1,912.1l-0.7,1.5L1849.1,912.1z M1864.7,912.1v0.7l-0.9-0.6
				L1864.7,912.1z M1865.4,910.6l-0.7,1.5L1865.4,910.6z M1849.8,911.4l-0.7,0.7L1849.8,911.4z M1844.6,911.4l0.2,0.2
				C1844.8,911.6,1844.6,911.4,1844.6,911.4L1844.6,911.4z M1852,915.1c0.5-2-0.1-0.7,1.1-2.6c1.4-2.1,0.6-1.3,2.6-1.9
				C1854.5,912.4,1853.9,913.8,1852,915.1L1852,915.1z M1850.6,910.6l-0.7,0.7L1850.6,910.6z M1856.5,915.1c0.7-1,1.2-2,2-3.2
				c2-3-0.3-1.7,3.2-2c-0.7,1-1.2,2.2-2,3.2C1858.5,914.8,1858.9,914.5,1856.5,915.1L1856.5,915.1z M1846.1,909.9v0.7l-0.9-0.6
				L1846.1,909.9z M1865.4,910.6c0.5-2.1-0.1-1.1,1.5-2.2C1866.4,910.5,1867,909.5,1865.4,910.6L1865.4,910.6z M1846.1,909.9v-0.7
				l0.9,0.6L1846.1,909.9z M1850.6,910.6l0.8-2.9C1853.4,909.2,1853.3,908.8,1850.6,910.6L1850.6,910.6z M1840.2,908.4l0.2,0.2
				C1840.4,908.6,1840.1,908.5,1840.2,908.4L1840.2,908.4z M1872.1,906.9l-0.8,2.9c-0.3-0.6-1.1,1.1-0.5-1.4
				C1871,907.1,1871.1,907.6,1872.1,906.9L1872.1,906.9z M1866.9,908.4l0.4-1.6L1866.9,908.4z M1838.7,907.6h0.7l-0.6,0.9
				L1838.7,907.6z M1838.7,907.6l-1.5-0.7L1838.7,907.6z M1955.2,913.6c0.8-3.1,6.7-12.5,6.7-15.6h0.7c0,2.3,0.8,8.1-0.7,9.7
				c-0.1,0.1-0.3,0.3-0.4,0.4L1955.2,913.6z M1899.5,916.5h-1.5c-1.8-7.5,0.9-3.3,1.5-9.7c1.8-0.3,3.5-0.8,5.2-1.5
				C1904,908.8,1900.7,911.7,1899.5,916.5L1899.5,916.5z M1837.2,906.9h-0.7l0.6-0.9L1837.2,906.9z M1878,903.9v0.7l-0.9-0.6
				L1878,903.9z M1904,925.5c-1.6-1.2-1.9-2.1-3-3.7c0.1-0.1,0.3-0.5,0.3-0.4l2.1-3.8c1.3-2.6,6.3-11.7,6.4-13.6
				c3.4-0.3,5.9-1.5,8.9-2.2l-11.4,17.5C1906.1,921.2,1905,923.3,1904,925.5L1904,925.5z M1870.6,901v0.7l-0.9-0.6L1870.6,901z
				 M1878,903.9c0.2-1.2,0.6-2.3,1.1-3.3c1.3-3.2-0.8-0.7,1.8-2.6C1882.4,900.9,1881.1,903.1,1878,903.9L1878,903.9z M1907.7,928.4
				l4.8-8.6c2.2-3.5,11.5-19.5,13.2-20.2c0.9-0.4,4.8-1.4,5.8-1.6l-5.4,8c-1,1.2-1.9,2.5-2.8,3.9c-1,1.3-1.9,2.6-2.7,3.9l-8.2,11.9
				C1910.3,928.5,1911.8,928.3,1907.7,928.4L1907.7,928.4z M1866.7,898.1c2,0.3,1.1-0.5,1.6,1.3L1866.7,898.1z M1872.1,906.9
				c0.3-3,0.8-3,2-5.4c0.6-1.3,0.6-1.6,1-2.7c1.4-3.3,0-1.5,2.2-2.3L1872.1,906.9z M1870.6,901c0.3-3.2,0.4-3.8,3-4.5L1870.6,901z
				 M1904.7,894.3c0.8,1,0.7-1.6,0.7,2.2h-0.7V894.3z M1924,927.7c-3.3,0.1-3.5,0.7-7.4,0.7c4.3-6.5,20.3-27.5,20.8-32.7
				c1.5,0,3-0.3,4.4-0.7C1938.1,902.1,1925.1,923,1924,927.7L1924,927.7z M1866.2,892c0-2,0.6-1.8,2.2-2.2c0,3,0.3,2.4-0.7,4.5
				C1866.4,893.4,1866.2,894.2,1866.2,892L1866.2,892z M1944.1,919.5c1.3-2.4,2.5-5,3.7-7.4l8.2-14.8c0.7-1.3,1.1-2.5,2-4
				c0.3-0.7,0.7-1.3,1.1-1.8c0.1-0.2,0.5-0.7,0.7-0.8c0.1-0.1,0.3-0.3,0.3-0.4s0.2-0.3,0.3-0.4c0.5,2-0.1,0.6,0.7,2.2l-11.6,21.8
				C1947.7,918.6,1949.4,918.3,1944.1,919.5L1944.1,919.5z M1930,926.2c0.7-3.2,3.2-6.4,4.9-9.2l9.9-19c2-4.1,2.7-5.8,8.9-5.9
				l-10.4,18.6C1933.9,929,1942.2,919.8,1930,926.2L1930,926.2z M1904.7,894.3c-3-2.2-0.7-3-6.7-3v-0.7c9.7,0,5.9-1,10.4-2.2v3.7
				c-1.8-1.2-0.8-0.9-3-1.5C1905.1,891.8,1904.9,893,1904.7,894.3L1904.7,894.3z M1964.1,888.3h3c2.2,4.7,3.7,13.8,3.7,20.1
				c0,1.6-9.5,12.5-15.6,15.6c-1.8,1-2.3,1.5-4.2,2.5c-24.9,13.8-31.4,8.7-50,8.7c-0.7-2.5-4.8-7.6-7.2-12.1
				c-1.2-2.2-1.3-2.8-3.2-3.5c0.4-3.5,0.7-6.9,0.7-10.4c1.2-0.4,2.4-0.6,3.7-0.7c-1.2,3.2-5,0.3,0.5,11.4
				c5.7,11.6,7.9,13.8,19.6,13.8c13.3,0,28.1-7.1,38.6-14.1C1966.6,910.9,1970.6,902.9,1964.1,888.3L1964.1,888.3z M1909.9,888.3
				c0.7-0.7,2.7,1,0.9,0.4C1910.8,888.7,1908.7,889.6,1909.9,888.3L1909.9,888.3z M1865.4,888.3c0-1.8,1.2-0.3,0.5,0
				C1865.9,888.3,1865.4,890.5,1865.4,888.3L1865.4,888.3z M1876.5,886.1c0-1.8,1.2-0.3,0.5,0C1877,886.1,1876.5,888.2,1876.5,886.1
				L1876.5,886.1z M1976,894.3h-1.5c-0.1-4.9-1.9-3.8-2.2-8.2c2-0.2,4.1-0.7,5.9-1.5C1977.5,887.9,1976.1,890.4,1976,894.3
				L1976,894.3z M1875.8,883.9l0.2,0.2C1876,884.1,1875.7,884,1875.8,883.9L1875.8,883.9z M1864.7,881.6c2.3,0.8,3.6,3.1,0.7,5.2
				C1865.5,885.1,1865.3,883.3,1864.7,881.6L1864.7,881.6z M1882.5,879.4c2.5,2.9,2.1,3.7,4.7,5.7c5,3.7,7.8,7.3,12.4,8.4
				c4.7,1.1,1.6,0.7,5.1,6l-15.6,4.5c-1-4.3-5.9-9.6-8.9-10.4c0-6.5-2.2-7.8-2.2-13.4h0.7c0,3.1,1.1,4.7,3,5.9
				C1883.7,882.4,1883,883.8,1882.5,879.4L1882.5,879.4z M1880.3,880.9c0-1.8,1.2-0.3,0.5,0C1880.7,880.9,1880.3,883,1880.3,880.9
				L1880.3,880.9z M1875.8,878.7v4.5c-0.8-0.6-1.9-1.1-2-2.5C1873.6,878.7,1873.5,879.8,1875.8,878.7L1875.8,878.7z M1869.1,879.4
				c3.8,2,2.9,1.4,4.9,5.4c1.3,2.5,2.4,5.2,3.2,7.9c-2.4-1.2-2.7-0.6-5.2,0c0-4.4,0.5-6.7-1.5-10.4L1869.1,879.4z M1880.3,876.5v2.2
				C1877.2,876.5,1878.9,877.9,1880.3,876.5L1880.3,876.5z M1963.4,875l-1.5,0.8L1963.4,875z M1941.9,874.2c3.4,0.3,1.3-0.8,3,1.5
				C1940.8,876.6,1943.3,877,1941.9,874.2L1941.9,874.2z M1963.4,875v-0.7l0.9,0.6L1963.4,875z M1936.7,874.2h2.2v0.7h-2.2V874.2z
				 M1965.6,873.5v0.7l-0.9-0.6L1965.6,873.5z M1966.4,872.7l-0.7,0.7L1966.4,872.7z M2037.6,868.3c-0.3,3.2-4.1,9.4-5.8,11.3
				c-1.8,2-1.6,0.7-1.7,4.3c3.1-0.1,3-0.2,4.7-2s1.6-2.7,2.8-4.7c1.1-1.5,1.9-3.1,2.7-4.7c3.4-8.7-1.9-4.4,21.7-11.7
				c3.1-1,7.2-2,10.5-2.9c3.5-0.9,6.9-2.1,10.4-3l41.6-11.9c1.8,2.6,6.1,4.3,9.9,8l6.7,6.7c1.9,2.2,0.5,0.9,1.6,2.8
				c4.1,7.3,23.5,6.5,26.4,7.8c-3.6,15.6-17.5,17.6-32.9,24.3c-3.5,1.5-6.3,2.7-9.9,4.2l-16.5,5c-16.6,3.3-30.8,0.6-47.6,0l-13.1-1
				c-9.8-2.2-8-5.8-20.2-8.8c-3.9-1-7.5-1.9-11.6-3.3c-5.1-1.7-16.6-6.6-19-9.9c3.3-0.3,6.3-1.5,9.5-2.4l19.6-5.7
				C2030.7,869.8,2034,868.4,2037.6,868.3L2037.6,868.3z M1975.3,869l2.9-1.5c0.1,9.6,5.3,9.8,0,11.2
				C1977.7,875.3,1976.7,872.1,1975.3,869L1975.3,869z M1966.4,872.7c0.8-1.2,1.6-2.4,2.2-3.7c0.5,0,2.3,0.3,2.4,0.3
				c0.8,0,1-0.2,2.8-0.3C1971.9,871.8,1970.5,872.4,1966.4,872.7L1966.4,872.7z M2037.6,868.3v-0.7l0.9,0.6L2037.6,868.3z
				 M1829.8,854.2h2.2c1.1,2.3,1.9,5.2,3,7.4C1833.2,861.8,1830,864.4,1829.8,854.2L1829.8,854.2z M1829.8,854.2h-0.7l0.6-0.9
				L1829.8,854.2z M1864.7,852.7l-1.4,0.8L1864.7,852.7z M2045,851.2l-1.4,0.8L2045,851.2z M2022.8,851.2h3v1.5
				C2022.3,852.4,2024.4,853.5,2022.8,851.2L2022.8,851.2z M2045,851.2v-0.7l0.9,0.6L2045,851.2z M2017.6,850.5l0.2,0.2
				C2017.8,850.7,2017.5,850.5,2017.6,850.5L2017.6,850.5z M2047.3,849.7v0.7l-0.9-0.6L2047.3,849.7z M2000.5,849.7l0.2,0.2
				C2000.7,849.9,2000.4,849.8,2000.5,849.7L2000.5,849.7z M1995.9,848.8c-0.4,2.1,0.4,1-1.3,1.6L1995.9,848.8z M1859.5,849h2.2
				c-0.5,2.2,0.1,1.1-1.5,2.2C1859.9,850.5,1859.6,849.8,1859.5,849L1859.5,849z M2186.1,849v0.8l-0.9-0.6L2186.1,849z M2048,849
				l-0.7,0.7L2048,849z M1997.5,847.5v0.7l-0.9-0.6L1997.5,847.5z M2048,849l1.5-3l4.4,0c-0.7,1.9-0.4,0.8-0.7,1.5s0-0.5-0.7,1.5
				L2048,849L2048,849z M1997.5,847.5c0.6-2.7,0.4-2.4,2.2-3.7c-0.1,1.8,0.2,3.5,0.7,5.2C1998.7,847.8,1999.7,848.1,1997.5,847.5
				L1997.5,847.5z M1865.4,847.5h-2.2C1864.8,845.2,1863.7,845.2,1865.4,847.5L1865.4,847.5z M2197.9,846v0.7l-0.9-0.6L2197.9,846z
				 M1826.8,845.3c4.1,0.3,1.2-1,4.4,5.2c-1.3-0.1-2.5-0.4-3.7-0.7C1827.6,848.2,1827.3,846.7,1826.8,845.3L1826.8,845.3z
				 M2055.4,845.3c1.3-0.1,2.5-0.4,3.7-0.7c0,8.2,5.3,9.7,0,11.1C2058.9,851.9,2057.6,848.3,2055.4,845.3L2055.4,845.3z
				 M2134.8,840.1c2-0.5,3.9-1,5.9-1.5v11.1c-2-1.3-4-3.1-5.9-4.5V840.1z M1892.1,839.3c1.1,1.8,1.6,3.9,1.5,5.9
				c-4.3,1.7-8.8,2.7-13.4,3c0.2-6.9,4.1-0.6,8.2-6.7c1.3,0.1,2.5,0.4,3.7,0.7V839.3z M1858,844.5v0.7l-0.9-0.6L1858,844.5z
				 M2001.2,835.6l5.3,6.5c4.8,8.6,6.1,3.9,8.7,8.4l1.6,2.9c1.3-0.1,2.5-0.4,3.7-0.7l2.4,2.1c5-1,2.6,0.2,6.5,0.2
				c2.4,0,3.4-1,5.6-1.2l5.5-1c5,3.4,3.6-0.1,8.5-1.9c2.1-0.8,1.5,0.2,3.5-0.9c0.8-0.5,1.6-1.5,2.8-2.4c0.7,3,1.5,5.9,2.2,8.9
				c-2.4,0.4-4.8,1-7.1,1.8l-22.6,6.4c-0.6-1.1-1.1-3-2.6-3.4c-2.5-0.8-1.1,0.2-1.1,4.9l-21.1,5.7c-3.7,1.2-18,5.4-21.3,5.5
				c-0.4-4.5-2.2-4.3-2.2-10.4c2.9-1.4,5.5-3.3,7.6-5.7c1.1-1.1,2.1-2.4,2.9-3.8c1.2-1.7,1.9-2.1,2.1-4.6c3.5-0.8,4.4,0,5.2-3h1.5
				c0.5,6,0.9,7.4,3.7,8.2C2005.2,853.5,2001.2,847.9,2001.2,835.6L2001.2,835.6z M1858.7,843.8l-0.7,0.7L1858.7,843.8z
				 M1871.4,842.3c2.2,0.8,0.6-1,1.8,1.2c0.7,1.4,0.4,1.6,0.4,3.3C1870.9,844.8,1872.9,845.5,1871.4,842.3L1871.4,842.3z
				 M1858.7,843.8c0.4-1.2,0.8-2.1,2.9-3c1.7-0.7,8.9-1,8.9,9.7c-2.1,1.1-2.7,2.2-5.9,2.2c3.2-4.3,3,0,3-7.4
				C1863.6,841.8,1865,843.3,1858.7,843.8L1858.7,843.8z M1819.4,832.6c3,12.7,6.7,20.6,8.9,29c1.4,5.6,2.9,4.1,7.4,3.7l11.1,26.7
				c1,3.4,2.9,6.2,3.7,9.7c-2.8,0.7-4.5,2.3-6.7,3.7c-9.5-5-8-8.3-14.5-16.7c-3.1-4-6.3-14.8-6.3-19.7c2.4,0.5,1.2,0.8,3,0
				c-6.9-10.3-8.2-13-9.2-27.1l1.6-7.9C1819.5,831.9,1818.6,833.8,1819.4,832.6L1819.4,832.6z M2214.3,837.1
				c-0.4,4.2-1.6,5.2-4.4,6.7c0.3-1.3,0.9-2.5,1.8-3.4l2-2.5c0.1-0.1,0.3-0.3,0.4-0.4S2214.2,837.2,2214.3,837.1L2214.3,837.1z
				 M1866.2,837.8c3.3,0.3,4.5,0.8,5.9,3C1869.2,840.6,1867.5,839.6,1866.2,837.8L1866.2,837.8z M2214.3,837.1v-0.7l0.9,0.6
				L2214.3,837.1z M1872.1,836.4h0.7l-0.6,0.9L1872.1,836.4z M2154.9,834.9v1.5l-1.6-1.3L2154.9,834.9z M2154.9,834.9v-0.7l0.9,0.6
				L2154.9,834.9z M2163.1,832.6c-0.5,2.1-5.3,10.9-8.9,11.9c0.2-2.9,0.1-1.8,1.6-3.5c0.8-0.9,1.6-1.9,2.2-3
				C2160.9,833.5,2160.2,833.4,2163.1,832.6L2163.1,832.6z M1892.1,839.3l-0.8-1.5c-5.2,0.4-4.8,3.9-11,4.4c-0.2-3.4-1.2-6.7-3-9.7
				c5.4-0.5,6.8-8.6,9.7-12.6C1888.2,825.4,1892,834,1892.1,839.3L1892.1,839.3z M2173.4,860.1c-10.9,0-17.8,1-26.7-3.7v-20
				c2.9-0.1,1.7,0.2,3.7-0.7c-1.2,20.9-2.5,18.3,4.9,19.6c16.7,2.9,34.1,0,50.1-5.4c11.3-3.8,11.8-6.2,15.8-18.4
				c0-0.1,0.6-1.5,0.6-1.6l1.3-1.7c0,7.9-4.9,20.5-12.8,22.9c-1.3,0.3-2.6,0.8-3.9,1.3C2198.5,855.6,2182.2,860.1,2173.4,860.1
				L2173.4,860.1z M2163.1,832.6v-0.7l0.9,0.6L2163.1,832.6z M2116.3,831.9c-3.6,5.4-6.3,2.3-8.9,0
				C2112.2,832.3,2110.9,833.2,2116.3,831.9L2116.3,831.9z M2097.7,829.7c1,0.8,2.2,1.5,3.4,1.8c3.6,1.1,2.1-0.6,4,1.9
				C2102.9,833.9,2098,837.5,2097.7,829.7L2097.7,829.7z M2121.5,828.9c0,3.1,0.5,6.9,1.5,8.9c-2.8-0.3-2.2,0.7-3.7-5.9h-3
				c0.1-0.1,0.3-0.5,0.4-0.3C2118.1,830.4,2119.8,829.6,2121.5,828.9L2121.5,828.9z M1872.1,831.2h0.7l-0.6,0.9L1872.1,831.2z
				 M1872,831.3l-3.7-1.5h3L1872,831.3z M1823.1,826.7c2.7,2,1.4,2.7,2.7,6.2c1,2.9,0.3,0.8,1.1,1.9c-0.5,1.9,0.3,0.8-1.5,1.5v2.2
				h2.2c0.1,1.3,0.4,2.5,0.7,3.7c-3.4-0.9-3.6-3.2-4.5-6.7C1823.1,832.8,1821.9,829.2,1823.1,826.7L1823.1,826.7z M2155.6,851.2
				c1.9-3.6,2.4-3,4.6-5.8c1.5-1.9,2.8-4.2,4.2-6.2c4.2-6.2,5.2-9.8,10.5-10.2c-1.4,2.2-2.9,3.2-4.8,5.6l-8.9,11.9
				C2159.7,848.6,2158.3,850.5,2155.6,851.2L2155.6,851.2z M1868.4,829.7l-9.7-0.7C1862.1,828.9,1866.7,828.4,1868.4,829.7
				L1868.4,829.7z M2121.5,828.9v-0.7l0.9,0.6L2121.5,828.9z M1854.3,828.2h3v0.7c-0.5,0-1,0-1.4,0
				C1854.5,828.5,1855,828.6,1854.3,828.2L1854.3,828.2z M1854.3,828.2l-1.6-0.4L1854.3,828.2z M1851.3,826.7l0.2,0.2
				C1851.5,826.9,1851.2,826.8,1851.3,826.7L1851.3,826.7z M2076.2,826l0.2,0.2C2076.4,826.2,2076.1,826,2076.2,826L2076.2,826z
				 M1849.8,826l0.2,0.2C1850,826.2,1849.7,826,1849.8,826L1849.8,826z M2166,851.9c-1.4-0.7-0.9-0.6-3-0.7l10.7-14.5
				c7.8-10.5,5.4-9.5,13.8-11.4C2184.3,831.3,2173.3,841.1,2166,851.9L2166,851.9z M1848.3,825.2h0.7l-0.6,0.9L1848.3,825.2z
				 M1848.3,825.2h-0.7l0.6-0.9L1848.3,825.2z M2080.7,820.8c0,1.5,0.3,3,0.7,4.5c-2-1-0.8-0.7-3.7-0.7
				C2078.8,822.9,2079.1,821.9,2080.7,820.8L2080.7,820.8z M1846.1,823.7h0.7l-0.6,0.9L1846.1,823.7z M1846.1,823.7l-0.7-0.7
				L1846.1,823.7z M1845.4,823h-0.7l0.6-0.9L1845.4,823z M1816.4,831.9h-0.7c0-3.9-2.1-5.4,0.6-16.5c1.6-6.6,1.4-6.6,3.9-7.3
				c0.1,3.8,1.5,6.2,1.5,14.8c-3.9,2.1-2.7,0.8-4.5,5.9C1816.6,830.4,1816.4,829.3,1816.4,831.9L1816.4,831.9z M2172,851.2
				c1.8-3.4,3-4.2,5.8-6.9c3.2-3.2,15.5-17,16.5-21.3c2.9-0.2,4.5-1.2,7.4-1.5l-6.5,8.3c-2.4,2.8-4.3,5.3-6.7,8.2
				c-1,1.2-0.7,1.1-1.6,2.2c-0.7,0.9-1.1,1.1-1.8,2c-0.9,1.1-0.5,0.9-1.6,2.2C2178.4,850.6,2178.9,851.2,2172,851.2L2172,851.2z
				 M2163.1,820l-1.6,2.1c-6.4,0.3-9.3,1-11-1.4C2157.2,822.4,2157.4,821.3,2163.1,820L2163.1,820z M2163.1,820v-0.7l0.9,0.6
				L2163.1,820z M1860.2,826c-4.9-0.4-8.7-2.6-12.2-5.6c-0.1-0.1-0.3-0.2-0.4-0.3c1.6,0.1,3.1-0.1,4.6-0.6l28.8-7.5
				c0.8,9.2,4.9,3.1-0.5,14.4c-2.4,5-1.3,2.2-5.4,4.2c-2.3-3.4-4-3.7-9.7-3.7V826c2.1,0,7.8-2.4,9.9-3.4c2.9-1.4,1.9-0.5,2.7-2.5
				C1871.6,821.5,1865,822.8,1860.2,826L1860.2,826z M2197.9,846l23-28.2c-2,8.5-1.8,5.9-6.5,12c-1.2,1.5-2,1.9-3.1,3.6l-5.2,7.4
				C2203.7,844.2,2203.7,845.9,2197.9,846L2197.9,846z M2141.5,817.8c1.3,0.6,2.6,1,4,1.2c3.8,0.8,2.4-0.6,4.1,1.8
				C2140.3,820.8,2143,820.7,2141.5,817.8L2141.5,817.8z M2186.1,849c1.8-3.4,3.9-5.4,6.2-8.6c0.9-1.1,0.9-1,1.7-2l11.2-14.8
				c2.9-3.8,3.3-5.7,9.8-5.8c-2.2,4.1-17.4,21.3-21.8,27.2c-1.4,1.8-2.2,2.2-3.4,4L2186.1,849L2186.1,849z M1885.5,817.8l0.2,0.2
				C1885.7,818,1885.4,817.9,1885.5,817.8L1885.5,817.8z M2215,817.8v-0.7l0.9,0.6L2215,817.8z M1855.1,814.9l0-4.5
				c2.6,0.7,2.3,0.8,3,3.7L1855.1,814.9z M1883.2,811.1c1.6,1.1,0.9,0.1,1.5,2.2C1881.9,811.4,1884.4,813.4,1883.2,811.1
				L1883.2,811.1z M2249.2,810.4v0.7l-0.9-0.6L2249.2,810.4z M2240.9,813.3l-2.1,0c0.6-0.9,0.9-1.3,1.4-2.3l0.5-0.9
				c0.9-1.4,0.3-0.5,1-1.3L2240.9,813.3L2240.9,813.3z M2246.2,808.9c-0.7,3-0.2,2.2-2.2,3C2245.3,809.4,2244,810.5,2246.2,808.9
				L2246.2,808.9z M2226.9,808.9c-0.7,3-0.2,2.2-2.2,3C2226,809.4,2224.7,810.5,2226.9,808.9L2226.9,808.9z M2233.6,813.3
				c1.3-2.4,2.6-5.7,5.2-6.7C2238.5,809.9,2236.8,813.1,2233.6,813.3L2233.6,813.3z M2226.9,808.9v-0.7l0.9,0.6L2226.9,808.9z
				 M2241.7,807.4c0.7-0.7,2.7,1,0.9,0.4C2242.6,807.8,2240.5,808.7,2241.7,807.4L2241.7,807.4z M1872.1,836.4l-4.4-1.5
				c-1.3,1-2.8,1.8-4.3,2.3c-4.4,2-11.9,8.2-6.5,13.7l3.5,2.9c1,1-1.1,0.4,1.4,1.2c0.2,0.1,0.4,0.1,0.5,0.3s0.4,0.2,0.5,0.3
				c0.6,0.2,1.3,0.3,2,0.3c4.7-0.1,11.2-6.9,11.7-9.2c1.1-4.9-1.6-4.6,1-6.4c0,11-0.3,9.1-9.4,21c-7.9,10.3-7.6,19-4.6,33.9
				c1,5,1.9,5.3,2.2,8.2c-2.5,0.7-0.4,0.1-2.1,0.9c-3.5,1.7-3.7,2.1-7.6,2.1c-2.7-11.5-12.5-34.9-17-48.3c-1.4-4.3-2.5-8.1-3.9-12.5
				c-1.3-4.1-2.8-7.7-3.9-12.4l-7.9-25.5c2.1-1.1,4.3-1.8,6.7-2.2c3.1,13.2,12.7,25.2,27.4,27.5
				C1863.5,833.7,1869.1,831.9,1872.1,836.4L1872.1,836.4z M2211.3,809.6v3h-2.2c-1-4.2-2.1-2.6-3-5.9c4.1-1.1,0.6-2.1,5.9-2.2
				C2211.8,806.8,2211.3,807.1,2211.3,809.6L2211.3,809.6z M2262.5,802.2v3c3-0.3,1.2,0.6,2.7-1l1.7-2.7c0.7,2.4,1.6,4.7,2.7,7
				c1.4,3.5,1,5,1,9.4c-4.1,2.8-4.3,3.8-6.7,4.5c-1.1,1.6-0.1,1-2.2,1.5c-3,4.1-15.6,6.6-21.2,7.1c-4.9,0.4-12.8-1.9-13.6-2.7
				c-1.7-3.5-2.2-7.5-2.2-12.6c13.2,3.1,24.1,1.4,34.9-5.9c1.9-1.3,2.3-1.3,2.9-3.7h-2.2c0.4-0.6,0.7-1,1.1-1.8L2262.5,802.2
				L2262.5,802.2z M2082.1,802.2c8.3,9.6,3.6,19,14.1,26c0,8.4,3.8,10.4,10.4,5.9c6.7,5.9,6.7,1,10.2-0.2c2.4-0.8,1.6,2.5,1.6,5.4
				c-3.2,0.1-10.2,2.4-13.6,3.4l-41.3,11.4c-1.1-2.3-3-7.1-3-10.4c12.7-8.5,10.5-11.3,12.9-13.9c1.8-2,0.6-0.3,3.1-1.3
				c0.1,0,1.4-0.8,1.4-0.8c1.9-1.2-0.9-0.1,1.9-1.1c0.3,1.3,0.6,3.6,1,4.9c0.7,2.3,0.9,2.3,3.4,2.5c0-7.6-0.8-9.4-1.9-15.9
				c-0.8-4.5,0.2-4.6,0.5-7.9C2083.2,806.5,2082.1,806.1,2082.1,802.2L2082.1,802.2z M2246.2,808.9c0.1-3.5,0.1-3.7,3-4.5
				C2246.9,807.8,2248.3,807.3,2246.2,808.9L2246.2,808.9z M2229.1,812.6c0.5-2.3,4.8-9,6.7-10.4c1.1,2.3,0.7,1.9-3.7,8.2
				C2230.8,812.3,2231.6,812,2229.1,812.6L2229.1,812.6z M2088.1,803.7h-0.7l0.6-0.9L2088.1,803.7z M2259.5,800.7
				c-0.3,3.3-1.5,6.6-4.4,7.4C2259.2,802,2256.8,802.7,2259.5,800.7L2259.5,800.7z M2263.3,800.7l-0.7,1.5L2263.3,800.7z
				 M2081.4,800.7l0.7,1.5L2081.4,800.7z M2263.3,800.7l0.4-1.6L2263.3,800.7z M2080.7,798.5c0.8,0.8,0.7-1.3,0.7,2.2
				C2080.6,799.9,2080.7,802,2080.7,798.5L2080.7,798.5z M2259.5,800.7c0.3-3.5-0.8-1.3,1.5-3c-0.3,1.4,0.4,0-0.5,1.7
				C2260,800.4,2260,800.2,2259.5,800.7L2259.5,800.7z M2213.5,811.9c0.6-2.4,0.9-4.9,0.7-7.4c9-4.3,9.6-7.4,9.6-21.5l3.7,3.8
				c0.1,0.1,0.3,0.3,0.4,0.4c2.4,2.5,2.6,4.4,3.9,7.3c1,2.4,1.5,2,1.7,5c-3.8,1.2-7.2,3.5-9.8,6.5
				C2220.3,810.2,2222.9,809.7,2213.5,811.9L2213.5,811.9z M2249.2,810.4l5.3-10.3c1.5-2.8-0.6-2.2,2.9-3.1
				c-1.1,4.7-4.9,8.7-5.9,13.4L2249.2,810.4z M2251.4,799.2V797h1.5C2252.1,800,2251.4,799.2,2251.4,799.2L2251.4,799.2z
				 M2264.7,794.8c-3.2-0.1-4.1-0.7-8.2-0.7l3.4-2.5c1.1-0.8,2.1-1.8,3.1-2.8c2.2-2.3,3.1-4.4,3.1-8.7h0.7c0,3.7,0.7,3.3,0.7,6.7
				c-1.9,2.6-1.2,0.3-2.4,2.8C2264.7,790.7,2264.7,792.6,2264.7,794.8L2264.7,794.8z M1834.8,796.6c-1.3,1.8-7.7,4.7-9.6,5.4
				c-8.1,3-11.1,3.9-21.4,3.9c-3.7-5.5-6.7-9.3-6.7-18.6c2.3-0.6,1-0.2,2.9-1.6c2.9-2.2,6-5.1,9-5.8c0.3,4.3,2.5,3.8,8.8,1.4
				c3.6-1.3,5.9-3.4,6-7.3c7.6,0,3.8-1.3,15.6,1.5c0.3,3.8,2.1,4.6,3,8.2l-0.9,0.4c-1.1,0.3,0.4-0.3-1.3,0.4v4.5l-5.4,3.5
				c-3.3,1.6-4.6,0.4-5,4.7c2.7-0.4,6.2-2.1,10.5-5.1c2.2-0.9,2.8-4.1,1.9-8.1c0-0.1,0.2,0,0.2-0.1l1.7,4.2c0.3,2-0.3,3.3-1.7,4
				L1834.8,796.6L1834.8,796.6z M1809,779.9v-0.7l0.9,0.6L1809,779.9z M2110.3,774.7c3.5-2.3,5.8-8.7,6.7-12.6
				c3,4.3,2.2,16,2.2,20.8c-3.6-0.8-4.3-2.7-8.2-3C2111.2,778.2,2110.9,776.4,2110.3,774.7L2110.3,774.7z M1810.5,779.2
				c0.1-0.1,0.3-0.5,0.4-0.3l3.9-2c1.7-0.7,3.5-1.2,5.3-1.4c-0.1,0.1-0.3,0.1-0.4,0.3C1819.5,776.8,1815,779.2,1810.5,779.2
				L1810.5,779.2z M1861,769.5v-1.5c5.6,0,8,0.4,12.6,4.5c-3,0.3-1.7,0.8-4.3,0.6c-4.6-0.4-8.6-2.6-12,3.9c5.3,0,3.7-1.5,9.7-1.5
				c-0.8,3.2-1.9,1.8-2.2,5.9c2.4-0.6,0.5,0.2,2.5-1.3c4.5-3.2,7.8-8.2,16.3-0.4c5,4.5,7.2,13.1,7,17.9c-0.3,7.8-0.1,9.4-3.5,9.8
				v1.5c5.8,0.1,3.5,1.9,7.4,3c-0.3-3-0.4-3-3-3.7c1.1-4.1,1.6-8.4,1.5-12.6l5,9.9c0.8,1.8,1.4,3.7,1.8,5.7c0.6,2.8,1.4,3.4,1.4,6.7
				c3.3,1.8,2.1,0.7,4,4.1l5.4,10.9c4.5,11-3.6,14.6,0.9,14.6c1.7,0,1.6-0.6,3-1.5c0.5,6.5,1.8,4.3,0.5,11.7
				c-0.9,5.5,7.9,18.3-2.8,25.4v-2.2c-3.9,0.3-3.5,1.3-5.8,3.1c-2,1.5-4,1.8-6.1,2.8c-5.7-3-6.7-2.5-6.7-11.1
				c1.4,0.5,2.9,0.7,4.4,0.7c-0.4-1.7-0.1-1.2-2.2-3c-4.1-3.4-4.4-6.4-5.5-3.6c-0.2,0.5,0,1,0.5,1.9c0.1,0.2,0.5,0.8,0.6,0.9
				l0.7,0.8c-1.6,2.4-2.2,4.2-2.2,8.2c-3-2-5.9-7.4-5.9-8.2c0-1.1,3.8-8.2-0.2-6.9c-0.1,0-2.4,1.5-2.8,1.7c-0.1-3.5,0.8-2.9-2.2-3.7
				c-2,8.8-0.7-1.1-0.7,8.2c-7.5,2,1.5,2.7-13.4,1.5c0.8-2-0.4-1.9,3.1-7.3l10.6-13.9c6.1-2.8,9.3-0.3,9.3-0.3
				c2.4-4.6-0.4,0.1,9.7-5.2c0-8.2-1.4-8.6-1.5-12.6c2.4,1.6,0.8,1.5,5.2,1.5c-0.5-6-5.2,0.3-12.3-21.1c-0.4-1.5-1-2.9-1.8-4.2
				l-1.4-3c-11.8,0-6.8-6.6-12.6-8.2c-1.5,1.8-0.4,2.9,0,4.5c-3.9-2.6-4.5-5-5.9-9c-0.9-2.8,0-1.9-3-2.2c0,7.8,3.3,14.8,11.9,14.8
				v1.5c-5.5,0.1-9.2,2.6-14.1,3c-5.3-9.9-7.1-5.2-10.4-3v5.9c-8.2,3.9-7.4,2.1-12.7-5.1c-1.8-2.4-4.3-5.2-5.1-8.3
				c3.1,2.3-0.2,1.9,3.7,3c1.1-2.2,0.7-2.1,0.7-5.2c2.1-1.3,4-2.9,5.8-4.6c0.9-0.8,3.9-2.3,3.9-7.2c0-3.5-2.1-14.2-7.4-15.6
				c0.6-2.2,1.3-3,3.4-4C1851.7,764.7,1855.1,769.4,1861,769.5L1861,769.5z M2044.3,762.1v3.7h-1.5c0.1-1.2-0.2-0.7,0.3-2
				C2044,761.5,2043.7,762.8,2044.3,762.1L2044.3,762.1z M1986.4,763.6c6.6,4.4,5.5,1.5,11.1,0c0,2-0.2,3,0.4,4.8
				c1,3-0.3,1.1,2.6,2.6c3-6.2-2.6-11.4,5.9-17.1c0.7,2.7,5.8,12,12.3,10.9c3.6-0.6,3.3-1.3,5.5-2.7c5.6,1.3,10.3,5.3,13.2,9.8
				l2.1,3.8c1.2,1.8,0.1,0.2,1,1.2c-1.2,1.7-2,2.4-2.2,5.2c5.3-0.1,1.1,0.2,3.8-1.4c1.9-1.1,2.4-0.6,4.4-1.5c-1.3-2.4-0.3-2.7-3.7-3
				c-0.2-2.8-1.2-3.9-2.2-5.9c10.6,0,16.1,5.7,20.8,13.3c0.9,1.4,1.3,1.6,2.2,3l2.9-0.8c1.6,2.4,6.9,6.6,6.5,13.3l0.2,5.3
				c4.4-0.4,1.4-0.8,4.4-3c0.3,3.1,1.5,5.7,1.5,8.9c0,4.9-2.1,7.9-3,11.9c-0.1-0.2-0.2-0.6-0.3-0.5s-0.2-0.4-0.2-0.5
				c-0.8-1.8-0.2-1.6-1.7-2.7l-1.9,6c-1.4-4.9-1.1-10.6-1.1-16.5c-2.8,0.8-3,1.6-3,7.4c-1.8-1.2-0.8-0.9-3-1.5c0.6,7.6,3,1.6,3,17.1
				c0,3.2-10.2,10.4-14.1,10.4c-6.1,0-5.3,0.4-10.4-0.7c0.6-1.2,1.9-4-0.2-3.1c-3.9,1.6,0,2.3-7.2,2.3c0.3,3.9,0.8,2.6,4.4,3
				c2.5,0.3,3.1,1.2,6,1.4c-3.9,5.8-15.6,5.9-17.1,4.5c-0.6-1.2-0.8,1.4,0-2.2c-2.9,0.1-19.9,5.8-21.5-13.4
				c-1.8,0.5-0.5-0.2-1.6,0.6l-1.4,1.6c-0.6-2.5-5.8-15.6,7.4-15.6c5.7,0,9.6,7.5,14.8,8.9c-0.9-3.9-1.9-3.2-3.7-5.9
				c2.6-3.5,6.6-2.5,8.6-3.3c1.5-0.6,1.5-1.9,2.6-1.9c3.5,0,3.7,3.9,6.7,5.9c1.5-2.6,0.6-3.3,0-5.9c2.6-0.7,1.7-0.3,3-2.2
				c-12.8-3-8.8-3.4-14.5-11.5c-1.4-2-0.4-1.3-2.6-1.9c-0.8,2-0.1,1,0,4.5c-5.2-1.2-10.7-2-16.4-5.9c-7.3-5.1-8.1-9.9-11.1-11.9
				c-1.6,1.1-0.9,0.1-1.5,2.2c-1.2-0.7-2.3-1.7-3.1-2.8l-5.5-7.8c-0.9-1.5-1.5-3.2-1.8-4.9c2.1,1.4,1.1,1.3,3.7,0.7
				c-0.1-4.3-0.9-3.6-2.7-6.2C1987.1,767.4,1987.4,766,1986.4,763.6L1986.4,763.6z M2186.1,759.1c1.5,0.9,3.1,1.5,4.8,1.9
				c3.3,0.9,2.4,0,4.1,2.5c-3.6,0-5,0.3-7.4,1.5C2187.2,763.8,2186.5,760.1,2186.1,759.1L2186.1,759.1z M2025.7,751.7v-1.5
				c1.3-0.7,2.5-1.4,3.7-2.2c1.8,3.7,3.4,9.7,11.9,9.7l-0.7,8.2c-2.7-0.2-2-0.1-3.6-1.7c-3-2.9-6.8-5.4-11.3-5.8L2025.7,751.7
				L2025.7,751.7z M2244.7,755.4c6,0,9.3,0.5,14,6.8c2.6,3.5,4.5,7.5,5.3,11.8c-2.4-1.6-2.6-2.2-6.7-2.2l1.4,2.3
				c4.6,5.8,6.1,7.1-0.8,13.9c-3,2.9-4.5,2.2-8,3.9c-0.1-4.9-2.6-12.5-3.7-17.1c3.5,0.9,3.1,2.8,5.5,4.3c3,1.8,2.7-1,0.6-3.7
				c-1.2-1.3-2.6-2.4-4.1-3.3c-2.2-1.6-3-1-4-3.4c-0.9-2.2-0.7-3.5-1.8-5.7l2.4-2.8c-0.3-0.5-1.8-2.8-1.8-2.9
				C2242.5,755.6,2242.4,755.4,2244.7,755.4L2244.7,755.4z M2253.6,751c0.1,0.1,0.3,0.2,0.4,0.4s0.3,0.3,0.3,0.4
				c0.3,0.5,0.6,0.9,0.8,1.4C2253.1,752.5,2254,753.2,2253.6,751L2253.6,751z M2251.4,751.7l0.2,0.2
				C2251.6,751.9,2251.3,751.8,2251.4,751.7L2251.4,751.7z M2250.6,739.1c0.8,1.7,0.5,2.1,1.2,4c2.5,6.4,3.9,4.7-6,6.9
				c-8.6,1.9-7.1,3.8-5.3-3.8C2241.6,741.7,2241.9,741.1,2250.6,739.1L2250.6,739.1z M2181.6,743.6c2.6,0.9,2.2,1.5,3.6,3.1
				c1.6,2,1.7,2.6,4.6,2.8c0,5.4,1.4,5.3,1.5,9.7c-1.6-1-1.6-1.4-3.4-2.5c-2.7-1.7-2.8-0.5-4-2.7
				C2182.9,750.5,2182.1,747.1,2181.6,743.6L2181.6,743.6z M2033.1,745c3.3,2.2,4,2.5,8.6,1.2c6.2-1.8,6.3-4.1,8.5-5.7
				c0,3.9,0.6,5.9-1.3,8.3c-3.6,4.7-8.3,6-12.7,1.9c-0.8-0.7-1.5-1.5-2.1-2.4C2033.7,747.6,2033.4,745.6,2033.1,745L2033.1,745z
				 M1937.4,744.3c6.6-1.5,16.3-1.7,20.9,4.3c1.8,2.3,0.2,2.1,3.6,2.3v-3c5.5,2.9,6.1,5.1,8.9,10.4l-3,0.7
				c3.7,6.9,0.8,17.1-5.9,17.1c-6.9,0-8.8-2.9-10.7-10.1c-0.8-3.1,0.1-2.5-2.7-3.2c-1.1,2.3-0.7,2.7-0.7,5.9
				c-2.7,0.6-2.8,1.3-6.4,1.8c-3.8,0.6-3.5-1.1-7-1.1c-2.4,0-1.2,2.9,1.8,4.2c1.3,0.5,3.4-1,3.4,7.7c0,3.4-1.3,3.3,0,5.9
				c2.6-0.7,1.7-0.3,3-2.2c3.6,1.7,7,0.9,13.5,9.5c5.1,6.7,1.4,6.3,1.3,11.3c4.8-0.4,0.8-1.4,5.5-2.5c4.9-1.2,0.2-3.5-1-5
				c-1.1-1.4-1.5-3.5-2.3-5.2c12,0.3,16,7.5,20.6,13.5c3,3.9,11.1,3.7,11.3,14c-0.1,2.5,0.5,5.1,1.5,7.4c1.9-1.3,1.5-0.4,2.2-3h1.5
				c0.2,2.8,1.5,5,1.5,7.4c0,4.7-2.1,8.8-3,12.6l-2.2-3.7c-0.6,2.4-1.3,3.3-1.5,5.9c-2.6-1.9-1.5-10.2-1.5-16.3c-3.3,1.2-3,5-3,8.2
				l-2.8-2.3c0,7.4,8.8,16.2-3.4,24.3c-9.5,6.4-10.8,3.3-18.3,3.3c0.4-1.2,0.6-2.5,0.7-3.7c-3.9,1-3.3,3.3-8.2,2.2l0,3
				c2.1,0.5,7.9-0.5,10.4,3c-7.8,2.1,0.1,3.7-17.8,3.7c0.5-2.4,0.8-1.2,0-3c-4.7,1.1-8.8,3.6-16.8-2.5c-2.9-2.3-4-6-4-10.9
				c-2.2,0.6-1.5,0.3-2.7,2.5c-0.1,0.1-0.2,0.3-0.3,0.5c-1.5-6.6-1.5-0.5-1.5-11.9c1.7-1.2,6-6.6,12.6-3c2.9,1.6,9,7.6,11.1,8.2
				c-0.9-3.8-2.8-4-3.7-7.4c5.3-1.4-1.6-1.5,8.2-1.5l2.8-3.1c5.8,3.2,2.8,4.1,6.8,6.8c1.6-1.9,0.2-4.7,0-6.7c2.2-0.6,1.6,0,2.2-2.2
				c-13,0-10.8-11.3-16.3-13.4c-1.5,1.8-0.4,2.9,0,4.5c-4.2,0-5.9-0.8-9.2-1.9l-7.3-3.9c-8.9-6.8-8.3-10-11-12
				c-1.6,1.1-0.9,0.1-1.5,2.2c-4.1-2.7-9.1-9.4-10.4-14.8c2.4,1.2,6.2,1.3,1.5-5.2c-1-1.3-1.8-2.8-2.3-4.3c-2.3-6.1-2.7-12.7-0.9-19
				l3.3-6.4c0,4.3,0.4,5,3,6.7c1.4-3-0.1-11.3,5.4-16.9c16.6-17.2,22.2-2.7,22.8-2.2c1.7,1.3,3.7,0.5-0.4-5
				C1938.5,746,1938,745.1,1937.4,744.3L1937.4,744.3z M2181.6,743.6h-0.7l0.6-0.9L2181.6,743.6z M2189.8,746.5l-6.9-6.5l10.6-2.4
				C2192.6,740.9,2191.2,740.1,2189.8,746.5L2189.8,746.5z M1996.8,737.6c2.1,1.5,6,10.3,7.4,13.4c-2.2,1.4-1,1.5-3.7,2.2
				c-0.4-2.7-1-5.3-1.8-7.9L1996.8,737.6z M1933.7,742.1c-5.7,0-6.4-0.6-12.6,3c-7.8,4.5-8.2,10.3-13.2,13.5
				c-6.9,4.4-8.3,14-8.3,22.1c0,5.9,3,9.5,3,13.4c0,2.1-0.3,5.5,0.6,8.3c2.3,7.2,8.1,14.2,14.2,18.5c3.7,2.6,3.6,0,6.9,3.5
				c2.9,3,2.7,2.8,6.5,4.7c5.7,2.8,9.2,4.5,17.8,4.5c1.1,4,6.4,5.5-2.9,6.7c-2.4,0.3-3.8,1.8-6,2.9c-3.1-1.9-6.7-2.9-10.4-3
				c-4.6,0-9.7,5.1-9.7,9.7c0,4.2-0.1,8.2,2.8,11.3l2.8,3.9c3.1,6,8.8,6.1,10,11.5c1.8,0.1,3.5-0.2,5.2-0.7c0.8,3.1,4.5,2.4,7,2.7
				l10.3-1.8c5.1-1.3,2.3,0.6,4.3,0.6c4.1,0,3.6-2,6.1-2.8l6.5-3.1c0.5,2.2,1.4,6.4,2.2,8.2c-2.4,0.2-4.5,1-7.1,1.8l-22.6,6.4
				c-1.8-2.6-0.9-2.2-3.7-3.7c-0.7,3.2-0.1,1.3,0,5.2c-10,0.8-26.3,8.8-36.4,9.7c1.1-2.3,0.1-1.9,0-5.2l4.8-2.6
				c1.4-1.9-0.9-0.3,1.8-2.6c1.9-1.6,0.8-0.3,2.6-2.7c3.4-4.5,5.6-6.9,5.6-14.4c0.1-2.9-0.6-5.8-2-8.4c-3.6-7.1,1.6-9.4-2.8-18.7
				c-1.3-2.8-0.8,0.8-1.2-3.3c-0.3-4-0.6-7.1-2.5-10.9l-9.7-17c-0.8-2.5-0.8-4.7-1.6-7.3c-1.5-5.2-3.7-10.9-7.6-14.7
				c-1.9-1.9-0.8,0.7-1.9-2.5c-0.6-1.6-0.3-1.9-0.9-3.5c-0.4-1-0.9-2-1.5-3l-3.3-4.1c-0.1-0.1-0.3-0.3-0.4-0.4s-0.3-0.3-0.4-0.4
				c-1.9-1.8-4.5-2.7-6.9-4.2c-2.2-1.5-7-8.4-16.1-8.4c-3.8,0-4,1.1-7.1,0.5c-7.4-1.4-14.8-2.2-18.8,5.4c-12.5,0-18.8-0.9-27.7,3.5
				c-4.2,2-8.1,4.6-11.6,7.7l-1.8,2c-3.5,4-3.5,8.6-1.8,13.4c4.9,13.7,4.9,12.8,19.1,12.8c-2.9,12.4-2.2,4.3-2.2,20
				c0,5.3,3,6.6,2.7,10.1c-0.3,4.1,0,8.3,0.9,12.3c0.8,3.5,1.9,6.9,3.2,10.2c3,7.6,0.4,19.5,8.9,28.9l6.8,11
				c2.1,3.8,1.6,7.2,6.5,7.6v1.5c-7.6,0-7.5,1.5-19.5-0.6c-3.5-0.6-6.4-0.9-9.5-1.7c-3.1-0.8-5.6-1.4-8.8-2.4
				c-25.9-7.8-48.4-28.1-56.4-54.2c-4.8-15.4-5.9-29.1,0.3-44.8c3.9-9.9,9.8-17.5,18.9-22.7c13.6-7.9,31.2-11.6,46.3-15.3
				c2.7-0.6,5.3-1.5,7.8-2.5c2.4-1,5.4-1.5,8.1-2.3l129.1-36.4c2.5-0.7,5.2-1.4,8.2-2.2c2.4-0.7,5.2-1.8,8.3-2.1
				c0.6,2.5,1,3.5,1.6,6.5l3.8,14c0.7,2.7,1.8,4,1.9,7c0.5,7.6-0.1,9.5,2.2,15.6c2.9,7.8-3.2,11.9,10.2,25.5c6,6.1,8.7,5.1,13.2,9
				c6.9,6,13.4,7.8,23.3,7.8c0.8,3.5,1.3,2.8,3,5.2c-1.9,0.5-0.8-0.3-1.5,1.5c-6,0-6.9,1.4-10.4,3.7c-5.5-3.7-5-3-11.9-3
				c-3.4,0-6.8,4.5-7.4,7.4h-1.5c-0.2-2.5-3.3-6.4-4.7-9.4c-5.1-10.8-9.7-8.2-12.6-12.7l-4-5.7c-0.1-0.1-0.2-0.3-0.3-0.4l-2-1.8
				c-5.8-4.7-10.4-5.7-19.5-5.7c-3.1-4.7-8.4-7.5-14.1-7.4V774c3.9-0.3,3.4-1.3,5.9-3c0.8,2.7,2.1,5.1,3.9,7.2
				c5.7,5.7,15,3.2,18.8-3.1c2.3-3.8,3.3-10.2,3.3-15.3c0-10.3-8.4-13.3-15.8-16.8c-5.5-2.6-7.9-4.8-18.2-3.2
				C1938,740.3,1934.9,742.1,1933.7,742.1L1933.7,742.1z M2199.4,736.9v0.7l-0.9-0.6L2199.4,736.9z M2200.2,736.1l-0.7,0.7
				L2200.2,736.1z M1996,736.1l0.2,0.2C1996.2,736.3,1996,736.2,1996,736.1L1996,736.1z M2051,733.9l0.9,1.5L2051,733.9z
				 M2020.5,734.6c2.5,0.7,8.2,6.4,8.2,8.2v3l-4.4,0.8C2022.6,743.1,2022.1,737.9,2020.5,734.6L2020.5,734.6z M2234.3,733.2
				c2.5-0.2,5-0.7,7.4-1.5c0.3,2.5,0.8,5,1.5,7.4h-2.2c-0.3-3.5,0.8-1.3-1.5-3c-0.8,2.9-1.3,5.9-1.5,8.9h-0.7
				C2236.5,741,2235.5,737.1,2234.3,733.2L2234.3,733.2z M2200.2,736.1c1.1-1.5,2.6-2.6,4.4-3
				C2203.2,735.3,2203.1,735.5,2200.2,736.1L2200.2,736.1z M2051,733.9l-0.9-1.5L2051,733.9z M2248.4,727.2c0,4.3,1.2,5.3,1.5,8.9
				c-1.3,0.3-2.6,0.8-3.7,1.5C2246.2,732.6,2243.5,728.5,2248.4,727.2L2248.4,727.2z M2205.3,732.4l-0.7,0.7L2205.3,732.4z
				 M2206.1,731.7l-0.7,0.7L2206.1,731.7z M2206.1,731.7v-0.7l0.9,0.6L2206.1,731.7z M2125.2,730.9h-0.7l0.6-0.9L2125.2,730.9z
				 M2245.4,723.5c-0.2,1.2-0.6,2.3-1.2,3.3c-1.7,3-7.5,3.1-10.7,3.4c-0.5-1.4-0.7-2.9-0.7-4.5
				C2239.2,725.7,2241.1,723.6,2245.4,723.5L2245.4,723.5z M2245.4,723.5v-0.7l0.9,0.6L2245.4,723.5z M2179.4,738.4
				c0-5.5-1.2-5.3-2.2-9.7l15.7-4.4c2.8-0.9,5.6-1.4,8.2-2.2c2.5-0.8,5.7-1.8,8.1-2.3c-2.7,5.7,0.1,6.5-10.9,13.5
				c-2.5,1.6-9,2-14.4,4.2C2179.8,739.1,2183.2,739.2,2179.4,738.4L2179.4,738.4z M2198.7,717.6c-0.3,3.9,0.7,1.3-1.5,2.2
				L2198.7,717.6z M2200.9,718.3c1.1-2.2,2.2-13.2,2.2-17.1l1.4-0.3c0.8-0.1,1.5-0.2,2.3-0.4l2.2,16.3
				C2206.4,717.6,2203.7,718.1,2200.9,718.3L2200.9,718.3z M2245.4,721.3c-4.6,0.4-9.1,2.6-14.1,3c-0.1-4-1.9-5.3-2.2-9.7
				c4.6-1.5,9.3-2.7,14.1-3.7C2245.4,715.5,2243.5,717.3,2245.4,721.3L2245.4,721.3z M2159.3,713.1l0.2,0.2
				C2159.5,713.3,2159.3,713.2,2159.3,713.1L2159.3,713.1z M2088.1,803.7c1.1,0.6,7.7,4.4,6,1.3c-0.8-1.5-3.4-2.9-4.4-3.7
				c-7.5-6.6-6.1-14.8-6.1-25.1c-0.4,0.1-2.5-0.7-3,5.2c-2.2-1.6-1.9-2.5-3-5.2c-3.2-7.8-3.3-12.7-5.2-20.8c1.9,1.3,1.9,1.9,4.4,0.7
				c-1-3.7-4-3.7-5.7-7.7c-1.6-3.9-1.8-6.3-1.8-11.6l2.9-1.5c-1.5-6.3-4.3-4.2-2.2-13.3c0.1,0.2,0.3,0.2,0.3,0.5
				c0.4,3.1,4.7,10.7,4.9,11.4c2.2-1.6,1.6,0.2,0.7-2.8c-1.7-5.8-5.5-16.8,1.8-22.1c2.6-1.9,4.6-3.2,8.6-3.3c-0.9,2-0.7,0.8-0.7,3.7
				c3.7-0.3,2-0.4,3.9-2.8c6.7-8.4,13.6,1.8,14.5,7.3c1.2,7.3-2.5,5.4,2.5,13.1c4.2,6.4,5,13.9,4.3,23.2c-0.2,2.5-5.9,11.5-0.2,8.1
				c0.6-0.4,1.1-0.9,1.6-1.5c0.6-1,0.4-0.8,0.8-2.2h1.5c0.2,2.8,1.2,3.9,2.2,5.9c-1.2,0.6,1.4,0.8-2.2,0c-0.8,3.5-3.1,9.2-5.9,11.1
				c-0.6-3.2-2.9-5.7-5.9-6.7c0.3,3.4,1.9,4.6,3.6,9.7c0.9,3.9,1.5,7.8,1.6,11.8h2.2l0.8-2.9c8.9,2,11.9,13.1,11.8,21.5
				c-0.1,5.5-1,5.1-3,8.2c1.3,5.6,6.4,6.4-5.2,14.1c0.3-3,0.7-4,0.7-8.2h-2.2c0,1.4-0.4,2.8-1.2,4c-5,10.1-15.6,1.1-17.4-1.8
				c-1.6-2.6-2.4-5.4-3.7-8.2c1.3,0.1,2.5,0.4,3.7,0.7C2094.3,809,2089.7,809.7,2088.1,803.7L2088.1,803.7z M2209.8,700.5
				c15.1-1.3,8.8-9.7,16,15.9c6.8,23.8,12.5,47.3,19.9,71.5c1.4,4.6,0.1,3.3,1.2,6.2c1.4,3.8,1.5,2.9,1.5,8.2
				c-4.8,1.1,0.1,1.5-9.6,1.5c-0.3-3.5-1-3.6-2.1-6.1c-0.3-0.7-0.6-1.5-0.9-2.1l-8.9-20.1c-1.3-2.6-0.2-2.2-3-3v3.7l-2.3-2.2
				c-0.1-0.1-0.2-0.3-0.3-0.4c-2.5-3.3,0.9-1-7.6-5c-3.4-1.6-8.1-2.8-12.9-5.7c-5-3.1-8.2-7.1-8.2-14.1c0-2.5,6.7-7.8,8.8-9.1
				c4.3-2.7,7.2-3.9,9-8.8c1.3-3.6,2.3-11.8,1.8-14.9L2209.8,700.5L2209.8,700.5z M1820.1,696.8c-0.5-0.8-0.4,0-0.7-1.5
				c-0.1-0.7-0.1-1.5-0.1-2.2h0.7L1820.1,696.8L1820.1,696.8z M1818.6,689.4c0.5,0.6,0.5,0.2,1,1.3c0.7,1.5,0.2,0.4,0.5,1.7h-1.5
				V689.4z M2185.3,687.9v2.2c-2.3-0.2-1.4,0-3-0.7C2184,687.1,2181.9,688.2,2185.3,687.9L2185.3,687.9z M2049.5,688.6
				c0-1.8,1.2-0.3,0.5,0C2049.9,688.6,2049.5,690.7,2049.5,688.6L2049.5,688.6z M1819.4,687.9l0.2,0.2
				C1819.6,688.1,1819.3,687.9,1819.4,687.9L1819.4,687.9z M1820.9,685.6v0.7l-0.9-0.6L1820.9,685.6z M1821.6,684.2l-0.7,1.5
				L1821.6,684.2z M2048,676.7c0.1,3.2,0.7,4,0.7,8.2c-2.2,0.6-1.2,0.3-3,1.5l-5.9-3L2048,676.7z M2169,679.7v0.7l-0.9-0.6
				L2169,679.7z M2125.2,730.9h6.7c-0.1-0.1-0.3-0.5-0.4-0.3l-8.3-6.5c-1.4-1.3-1.9-2.5-3.3-4.1c-4-4.6-4.6-11.8-1-17.7
				c2.9-4.7,3.6-4.9,9.4-6.2v-3h-2.2c3.5-4.8,13.9-1.3,19.5,4.3c5.9,6,7.9,10.2,11.7,17.3c-0.8,1.3-3,3.1-3.3,4.2
				c-1.3,5.1,4.8-1.4,8.3-2.2c3.5-0.8,2.1,1.1,5.4-0.5c-1.4-2-1.4-2.7-4.4-3c-0.3-3.8-1.5-5.7-1.5-10.4c0-7,0.8-13.7,6.4-17.4
				c2.3-1.5,5.9-3.3,9.2-3.4c-0.8-3-0.3-2.2-8.2-2.2c5.9-5.1,12.5-0.6,14.8,0c0,3-0.3,2.4,0.7,4.5c-4.4,1.2-5,5.6-9.1,7.9
				c-2.3,1.3-2,0.6-2.7,3.2c3.8-0.3,5.7-3,10.2-2.7c4.3,0.3,2.1-0.1,6.9,7.1c4.2,0,5.1,0.7,9.6,0.7c0,8.4-3.5,14.8-6.7,20.8h-7.4
				c-0.7,2.7-0.1,2-3,2.2c-0.1-3.7,0.6-7.3,1.9-10.7c1.9-4.4,3.8-4.3,4.8-8.6c-6.4,3.4-8.1,3.7-10,13.8c-0.8,4.6,0,3.3,0.3,7
				c-3,0.1-3.2,0.4-5.2,1.5c0.4,3.8,1.1,7.7,1.9,11.5l10,30.9c4.2-0.3,4.1-2.2,9.6-2.2c1.4,2.1,2.3,4.5,4.4,5.9c0-4.2,0-3.9-1.5-6.7
				l12.6,5.9c0,13.9-3.9,9.4-2.2,13.4c2.3-1.7,5.6-7.4,5.9-11.1c1.8,0.5,2.5,0.8,3.4,2.5c2.4,4.6,2.5,11.5,1.5,16.5
				c-2.2,11.7-7.6,7.7-17.6,7.7c0.8-3.5,2.3-2.7,0.7-5.9c-2.4,1.8-0.8,1-2.5,3.4c-1.6,2.4-1.9,0.9-2.7,4c4.8,0,4.6,0.7,8.2,1.5
				c-4.4,3-12.1,2.3-16.3-3.7c-2-2.8-3.5-3.3-6.4-5.5c-2.4-1.8-3.3-4.8-4-7.9c2.4-1.3,4.4-2.2,5.2-5.2c-2.4,0.7-4.7,1.6-7,2.7
				c-3.2,1.3-4.5,1-8.6,1v2.2c1.2,0.4,2.4,0.6,3.7,0.7c0,5.3-0.1,5.1-2.2,8.2c-2.4-1.6-1.7-2.2-5.2-3c0.1,5.2,7.1,10.9-0.9,19.1
				c-2.6,2.6-6.3,6.8-12.9,4.3c-3.1-1.2-3-2.3-3.3-3.4c-3.2,0.3-1.3-0.1-3.7,1.5c-1.7-2.3-9.3-7.6-10.4-18.6
				c-0.4-3.8,1.5-5.7,1.5-8.8h0.8c0.2,4.2,1.6,8.2,4,11.6c1.1,1.6,2.6,2.9,4.4,3.8c2.8,1.4,4,1.8,5.7-0.5c-1.8-0.5-1,0.1-2.6-1.2
				c-5.5-4.2-8.6-11.7-8.6-19.6c0.1,0.1,0.3,0.2,0.3,0.4c0.2,1,5.7,6.6,9.3,8.5c-0.2-1.8,0.1-1.3-1.8-3.5c-8.2-9.7-6.9-12.7-5.7-21
				c0.5-3.5,1.5-6.4,2.2-9.7c3.5,0.8,8.4,2.3,9.6-2.2c-6.7,0-9.2-2.2-13.4-5.2l-9.4-10C2128.3,735.6,2127.1,734.4,2125.2,730.9
				L2125.2,730.9z M2035.4,681.9c-1.6-0.9-3.4-1.4-5.2-1.5V679c3.3-0.8,5.2-3,8.2-4.5l8.9-3.7v4.5
				C2041.8,676.5,2039.2,679.3,2035.4,681.9L2035.4,681.9z M2039.1,668.6l0.2,0.2C2039.3,668.8,2039,668.6,2039.1,668.6
				L2039.1,668.6z M2234,677.4l-3-10.2l0.3-0.1c2.1,3.2,4.6,7.4,4.6,11.1c-0.3,6.5,3.6,6.7-11.2,14.1c-8.5,4.3-13.3,4.5-22.3,4.5
				c-17.1,3.8-14.4-7.8-16-19.6c2-3.8,3.8-4.4,9.3-7.1c3.5-1.8,7.2-3.1,11.1-3.7c4-0.6,8.6-1.9,12.6-2.2c4.2-0.3,9.9,0.2,11.9,3
				c-2.2,0.5-1.1-0.1-2.2,1.5c1.4,6.1,2.2,9.3,2.2,17.1C2236,686.3,2235.1,682.3,2234,677.4L2234,677.4z M2045.8,666.3l0.2,0.2
				C2046,666.6,2045.7,666.4,2045.8,666.3L2045.8,666.3z M2046.3,661l0.2,2.4h-2.2L2046.3,661z M2235,656.7c5.5,0,11,9.4,11.1,15.6
				c-2.2-1.4-1-1.5-3.7-2.2c0.4,5.4,3.7,9.6,3.7,16.3c0,6.1-0.7,9.3-0.7,15.6c1.4-0.2,0.5,0.3,1.8-0.4l1.2-1.1
				c2.9,12.5,3.7,5.5,3.7,23.8c-2-1.5-1.3-1.1-2.1-3.8c-0.5-1.6-0.7-2.8-1.3-4.7c-0.9-3-2-5.8-3.3-8.6l-17.8,4.5
				c-0.4-4.4-3.4-10.3-4.4-14.8c3.7-0.9,7.3-3.4,10.3-5.3c8.1-5.3,6.7-12.1,2.8-21.8c-1.5-3.7-3.7-7.4-7.9-7.7
				c0.4-0.6,0.8-1.2,1.2-1.8C2230.7,658.7,2233,656.7,2235,656.7L2235,656.7z M2217.2,658.9h8.9c-0.4,1.7-0.2,2.2-2.2,2.2h-3
				c-2,0-2.1-0.3-3.7-0.7V658.9L2217.2,658.9z M2024.2,658.9c-1.7,2.3-0.6,2.3-2.2,0H2024.2z M2024.2,658.9v-0.7l0.9,0.6
				L2024.2,658.9z M2024.2,666.3c0.2-2.7,4.2-8.8,7.4-9.7c-0.6,2.4-1.6,2.7-3.3,4.9C2027,663.5,2026.1,665.1,2024.2,666.3
				L2024.2,666.3z M1843.1,656.7v0.7l-0.9-0.6L1843.1,656.7z M2035.4,665.6l11.1-14.1v4.5c-2,1.4-3.8,3.1-5.3,5.1
				C2039.1,663.7,2039.4,664.7,2035.4,665.6L2035.4,665.6z M2039.1,655.2c-2,3-7.8,11-11.1,11.9c2-3.8,5.3-6.5,8.2-11.9H2039.1z
				 M2039.1,655.2v-0.7l0.9,0.6L2039.1,655.2z M2080.6,798.5c-7.7-5.2-0.1-9-15.1-17.5c-3.1-1.7-6.5-13.3-19-14.4v-9.7
				c4-2.1,6.6-4.8,7.9-9.9c1.3-5.2,2.5-9.4,0.6-14.8c-0.9-2-2.1-3.8-3.4-5.5c-5.6-6.6-5.5,0.3-13.2-14.3c4.9,1.2,12.4,0.6,16.3-1.5
				c5.2-2.7,6.7-4.9,6.7-12.6c3.4-0.1,19.5-5.1,24.1-6.4l48.1-13.6c20.2-6.4,50.7-14.5,72.2-20.6c4.1-1.2,19.6-5.2,23.3-7.1
				c6.3-3.2,30.5-5.4,39.5-6.5c9.8-1.2,32.7,0.1,42.3,4.4l14.1,8.2c2.7,1.8,2.3,1.2,4.3,3.8c11.8,15.7,19.4,40.2,16.4,59.2
				l-4.2,11.4c-3.1,7.7-5.5,14.4-9.9,20.6c-7.5,12.3-25.6,28-29,28.9l-22,12.1c-3.3,1.5-10.1,3.4-13.6,3.5c0-6.5,2.4-6,3-8.9
				c-0.2-2.8-0.8-3-0.8-6.7c0-5.7,0.6-8-2.2-12.7c-0.9-1.6-1.5-3.1-2.5-5c-2-3.9-5.3-5.1-6.9-8c-2.9-5.2-1.1-15.3-1-18.2
				c0.2-3.9-0.3-3.5-1.1-6.4c-0.9-3.2,1-8.9,1.1-12.9c0.2-9.5-3.7-16.7-7.5-22.3c0.1-3.3,0.9-4.1,0.8-8.2c-0.1-2.7-1.2-5.5-1.1-7.3
				c0.3-6.1,2.3-7.2-0.5-14.9c-1.4-4-3.9-8.2-7.5-10.3c-2.6-1.6-7.3-2.5-10.5-0.3c-3,2-1.2,0.1-2,2.4c-5.6-0.5-5.9-3.2-12.6,0
				c-2.3,1.1-2.5,2.2-5.9,2.3c-8.3,0.2-6,3.2-10.4,5.9c-1.6,1-3.6,1-5.7,2.5c-3,2-7.5,4.3-8.4,7.9c-9.1-2.1-15-5.1-22.4,4.3
				c-3.3,4.1-5.1,13.3-5.1,18.7c0,2.7,0,5.5,0,8.2c-3.6-2.7-12.2-23.9-30-18.9c-6.4,1.8-7,5.7-10.6,9.4
				c-12.6,12.9,0.3,27.3,0.8,28.5c3.2,6.7,6.6,13.3,11.8,18.7c3,3.1,6.5,8.6,11,9.8c-1.4,5.9-3.4,12.8-4.3,18.7
				c-0.8,5.6-0.3,6.6-3.1,11c-0.3,0.5-0.6,1.2-1.1,1.9c-1,1.7-1.3,1.7-2.1,3.9c-2.1,6.4,0,14.9,2.7,19.2c3.4,5.6,6.1,6.4,7.3,9.8
				c0.4,1.4,1.1,2.7,2.1,3.9c9.1,0,6.9,1.6,12,2c11.8,0.8,12.2-4.1,16.1-12.5c1.9-4.1,2.8-7.5,1.6-12.5c4-2.7,3.3-3.8,4.4-8.9l1.5,3
				c0.5,0.9,1.2,1.8,2,2.4c2.4,2.4,1.7,2.8,6.1,2.8c0.1,5.6,6.1,10.3,11.2,11.1c4.6,0.7,8.6-3.1,10.4,3.7
				c-5.6,2.7-68.6,19.8-79.6,22.9c-3.3,0.9-3.1,1-3.9-2.5c-2-9,5.6-10.6,0.3-20.4c5-9.5,1.6-20.6-3-27.5c4.6-8.7,2.2-29-6.7-34.9
				c2.1-8.8,0.5-23.6-7.4-29c1.5-6.3,1.2-12-2.4-17c-6.9-9.5-12.2-4.8-15.6-4c-1.4,0.3-3,0.1-4.8,0.4c-2.7,0.3-5.3,1.3-7.5,2.9
				c-4.6,3.5-6.9,6-6.9,13.9c-2.9,0.8-3.7,3.4-4.2,6.2c-0.4,1.5-0.4,3.1,0.1,4.5c0.7,2.8,0.6,2.3,1.8,4.1c-8.5,12.7,3,15.3,2.1,23.6
				l0.2,8.3C2071.9,779.7,2080.6,784,2080.6,798.5L2080.6,798.5z M1843.1,656.7c6.2-9.3,17-13.3,26.4-18.9c3.3-2,8.2-1.2,14.4-1.2
				c6.8,0,15.5,5.5,20.2,10.2c1.3,1.2,2.6,2.3,4.1,3.3c1.5,1.2,2.7,2.7,4.1,4.1c2.7,2.7,4.9,5.6,8,7.6c0,7.5,5.6,24.9,11,32
				c7.8,10.4,13,10.7,21.9,15.9c2.9,1.7,1.3,1,2.7,4c1.5,3.4,3.4,4.8,5.2,7.4l-4.4,0.8l-4.9-3.4c-3.4-2-13.6-9.1-16.6-9.3
				c2.4,4.6,2.8,4.8,6.9,8c1.5,1.2,2.8,2,4.4,3c2.7,1.7,3.5,0.9,4.3,3.8c-4.4-0.1-6.4-2-10.4-3c0.3,3,0.4,3,3,3.7
				c-1.7,2.3,0.1,0.9-3.2,2c-1.3,0.5-2.7,0.8-4.1,1.2c-2.3,0.6-5.8,1.9-8.3,2.1c0-15.6-18.2-63.1-25.4-72.6c-2.2-2.9-3.4-5.8-8-6.1
				c-0.9,3.8-0.4,3,2.7,9.2c4.9,9.4,9.1,19,12.6,29l5.3,14.7c0.8,2.6,1,3.2,1.9,5.6c1.4,3.8,5.6,18.9,5.7,22.5
				c-3.6,0.1-18.3,4.6-22.4,5.8l-66.7,19.4c0-6.4-2.2-9.6-3.8-14.7c-0.6-1.9-1.5-5.1-2-6.9l-5.3-22.9c-0.9-5.7-2.2-9.9-2.2-16.3
				l0.5,1c0.7,3-0.1,2,1,4.2h3c0-12.4-3.8-8.9,1.3-15.7c1.3-1.7,2-2.7,3.1-4.3c1.8-2.7,5.1-6.2,5.9-9.6c-4.5,2.2-2.4-0.3-7.6,5
				c-2.5,2.6-3.1,5.1-5.7,6.9c1.1-4.6,5.7-8.2,8.7-11.3c7-7.1,16.1-11.3,25.1-15c6.3-2.5,9.1-4,12.2-8.6c-6.1,0-13.4,3-18.7,5.1
				C1846.6,655.3,1845.5,656.1,1843.1,656.7z M2013.8,644.1c0,13.9,13.2,7.7,13.4-1.5c0.1,0.1,0.3,0.2,0.3,0.4l2.6,3.3
				c3.1,0,9.8,0.6,10.4-6.7c1.8,1.4,3.8,2.4,5.9,3v6.7l-21.8,4.9c-2.5,0.6-4.8,1.4-7.1,2.5c0.4,4.6,3.8,10.3,5.9,14.8
				c7.7,0,10.2-2.1,14.8-2.2l-11.5,7.1c-1.4,0.7-0.6,0.1-2,1c-0.9,0.6-1.1,0.9-2.1,1.6c-3.2-4.7-0.2-1.5-2.3-8.1l-5.3-16.9
				c-1.3-2.8-2.1-5.1-3.5-7.7c0.1-0.1,0.3-0.5,0.3-0.4L2013.8,644.1z M2018.3,647.8c0-2.3-0.3-3.7,1.6-5.1c1.8-1.3,0-0.7,2.8-0.1
				C2022.5,646,2021.7,647.5,2018.3,647.8z M2014.6,642.6l-0.7,1.5L2014.6,642.6z M2031.7,641.8c0.1-2.4-0.3-2.8,1.4-3.9
				c0.9-0.5,3-1,3,0.9C2036.1,641.5,2034.4,641.8,2031.7,641.8L2031.7,641.8z M2045.8,634.4h0.7v3h-0.7V634.4z M2174.9,609.9v0.7
				l-0.9-0.6L2174.9,609.9z M2175.7,609.2l-0.7,0.7L2175.7,609.2z M2175.7,609.2l2.1-2.4C2177.3,609.2,2177.9,608.6,2175.7,609.2
				L2175.7,609.2z M2039.1,612.1c-1.1-4.8-1.5-4.5,1.5-8.9c8,0.7,6.6,5.2,4,7.7C2042.6,612.7,2042.4,612.1,2039.1,612.1
				L2039.1,612.1z M2017.6,606.2c6.8,1.6,13.4,4.1,7.4,14.1c-0.7,1.2-3.8,4.8-5.4,3.2C2019,622.9,2018.8,609.1,2017.6,606.2
				L2017.6,606.2z M2172.7,606.9c0.3-3.2,4.8-7.2,7.4-8.9c-0.4,4.7-2.8,3.4-6.4,7.7c-0.1,0.1-0.3,0.3-0.3,0.4L2172.7,606.9z
				 M2014.6,642.6c0.6-2.7,2-4.5,2.9-6.8c1-2.4,1.8-4.8,2.3-7.3c4.9,0,6.3-1.6,8.6-4.7c1-1.3,1.8-2.7,2.6-4.1c0.6-2,1.1-4,1.4-6.1
				c0.4-5.7-4.8-13.6-15.6-11.1c-0.4-1.2-0.6-2.5-0.7-3.7c6.7-1.5,18.2-2.4,26-3c2.8-0.2,5.3-1.3,8.2-1.5l-0.9,5.9
				c-6.4-3.3-2.8-2.2-9-0.9c-3.3,0.7-1.9-0.3-4.1,1.8c-7.2,6.8-1.9,21.5,11,14.7l-0.7,14.1c-4.7,0.1-5,2.1-5.9,5.9l-1-1.2
				c-3.6-3.2-11.7-1.4-12.4,7.2l-3-3.7c-5.2,0-4.9-0.5-6.3,1.1L2014.6,642.6L2014.6,642.6z M2016.1,627.7c0,2.2-1.7,5.9-2.6,7.8
				c-1.2,2.5-2.1,5.6-4.1,7l-6.5-11.3c-2.9-3.5-10.1-2.1-14.3-2.1c-2.7,0-2.6,0.9-5.2,1.5v2.2l17.5,0.4l4.8,10.4l-0.6,0.9l-4.5-10
				l-8.3-0.8c-3.5,0-2.9-0.6-3.7,2.2c2.4,1.2,5.4,0.7,8.9,0.7c1.9,3.6,3.8,9.2,8.2,10.4c-0.6-2.7-0.8-2.5,0-3.7
				c0.6,2.5,9,22.6,11.9,34.9c-11.6-1-20.4-7.7-32.7-4.5c-2.9,0.8-3,0.4-3.7,3c3.6,1.7,0.3,0,4.4,0h9.7c3.5,0,2.3,0.7,5.2,0.7v0.7
				c-5.6,0-17,6.1-21.1,8.6c-3.2,2-16,9.7-16,14.4c0,2.2,1.1,2.2,3,2.2c1.9,0,3.1-2,4.3-3.2c7.7-7.8,27.4-17.6,41-17.6
				c14.7,0,24.1,4.9,35.2,11.6c3.8,2.3,7,3.5,9.4,7c-2.1,9-11.2,6.7-18,5.4c-8.8-1.7-4.5-2.2-16.3-12.6c-2.1-1.8-0.7-1.6-4.3-1.7
				c0.1,3.5,3.2,6.3,6.5,10.5l11.3,14.7c1.2,1.8,2.3,3.4,3.6,5.3c1.2,1.9,2.2,3.5,3.3,5.6c2.6,4.5,2.7,5.7,2.7,10.6
				c-11.4,7.6-11,1.7-21.7-9.5c-13.6-14.2-4.8-5.1-14.8-20.1c-1.1-1.9-2.9-3.3-5.1-3.8c-2.6,3.2,6.4,13.2,9.9,22.8
				c0.7,1.9,1,3.7,1.7,5.7c2.2,6.5,9,19.9,4.4,24.6c-4.2,4.3-7.9-5.1-9.3-7.8l-17.8-32.7h-4.5c-0.3,4.2-0.5,5.5,0.6,9.8l4.9,18.9
				c1.1,3.2,2.7,8.4,2.7,11.4c-1.2,0.8-2.4,1.6-3.7,2.2c-5-2.7-4.5-5.6-6.4-11.4c-3-9.1-5.2-17.8-8.9-26.7c-1.2-2.8-1.8-3.3-3.8-5.2
				c-2.7-2.6-2.4-2.9-6.1-2c0.1,1.3,0.4,2.5,0.7,3.7c-4-1.1-5.8-5-7.7-8.7c-1.1-1.8-1.9-3.8-2.3-5.9c-0.7-3.2,0.1-4.5-1.2-7
				c-2.3,0.8-2.9,1.7-3,5.9c-6.1-3.3-11.7-7.4-16.5-12.4c-8-8-10-20.1-12.6-30.5c-1.2-4.9-1.1-6.4-3-11.8c-2.8-7.6-3.9-16.1-5.7-24
				c-6.5,4.3-2.2,16.7-0.7,23c-2.4-0.7-1.8-0.6-3.5-2.4c-0.9-1.1-2-2-3.2-2.8c0-8.4-2.1-17.3,2.4-25.1l8.9-13.3
				c2.9-3.5,7.6-5.7,7-7.4c-1.3-3.6-19.7,11.3-23.2,26.8c-0.8,3.3-0.3,10.8-0.3,14.6l-14.1-6.7c0-9.8,3.4-21.3,7.5-29.6
				c4.2-8.1,9.2-15.9,14.7-23.1c4.7-6.4,14.4-17.2,21.2-21.1c2.5-1.4-0.2-0.4,3.1-1.3c7.7-2.3,24.5-3.1,25.4-3.5
				c2.1,2.8,12.5,7.8,16.3,9.7c5.4,2.7,18.2,12.7,22.8,17.3c5.7,5.6,11.4,20,12.1,28c-3.7-4.2-5.4-7.7-10.2-12.1
				c-2.6-2.3-11.1-7.6-15-8c0.1,4.3,0.3,2.9,3.4,4.8c7.1,4,13.2,9.6,17.8,16.3C2010.9,612.5,2016.1,623.7,2016.1,627.7L2016.1,627.7
				z M2119.1,568c3.1,0.1,1.8,0,3.7,0.7l25,9.1c3.9,1.9,7.1,6.3,9.7,9.6c5.2,6.5,3.8,6.6,6.1,13.2c1.6,4.5,3.7,9.6,5,14.3
				c1.4,5,3.4,9.2,4.9,14.4c0.4,1.3,0.5,2.2,1,3.5c0.5,1.4,0.9,2.1,1.4,3.8l8.4,21.3c-3.3,0.8-7.8,2.7-11.1,3
				c1.8-3.8,0.9-13.2,0-17.1h-1.5c0,5.3-0.9,8.6-1.6,13.3c-0.9,6-0.8,5.1-8.4,7.2l-72.4,20.3c-7.1-13.3-6.8-29.2-9.2-41.3
				c-0.5-2.4-1.1-3.5-1.2-6.2c-1.2,0.1-2.4-0.6-4.4,3.1l-0.8,5.8c-0.7,10.1,1.3,19.5,3.7,29c1.8,7,3.8,8.8,4.5,11.9l-20.7,6
				c-3.6,1.1-3.8,1.5-7.5,0.7c1.8-7.8,0.9-12.8-0.5-22.6l-0.6-24c-0.1-1.3,0-19.5,0.4-23.9l5.6-33.7c2.1-8.3,2.1-8.4,12-14.7
				c8.1-5.1,20.1-10.4,30.5-8.6c6,1,16.1,6.5,20.2,6.5C2121,569,2120.7,570.4,2119.1,568L2119.1,568z M1993.1,567.6l0.2,0.2
				C1993.3,567.8,1993,567.7,1993.1,567.6L1993.1,567.6z M2119.2,567.6h-0.7l0.6-0.9L2119.2,567.6z M2259.5,531.2v-0.7l0.9,0.6
				L2259.5,531.2z M2267.7,514.9l0.2,0.2C2267.9,515.1,2267.6,515,2267.7,514.9L2267.7,514.9z M2269.2,513.4v0.7l-0.9-0.6
				L2269.2,513.4z M2269.9,511.9l-0.7,1.5L2269.9,511.9z M2269.9,511.9v-0.7l0.9,0.6L2269.9,511.9z M2120.7,511.2v0.7l-0.9-0.6
				L2120.7,511.2z M2271.4,509.7v0.7l-0.9-0.6L2271.4,509.7z M2271.4,509.7v-0.7l0.9,0.6L2271.4,509.7z M2272.9,507.5v0.7l-0.9-0.6
				L2272.9,507.5z M2272.9,507.5v-0.7l0.9,0.6L2272.9,507.5z M1947.8,399.8c4,1.9,12.3-0.6,17.1-0.7l-18.8,16.8
				c-6.3,7.5-10.9,11.5-15.1,22l-5.4,12.4c-1.8,4.5-3.4,9.2-4.6,14c-2.3,9.3-5.9,30.8-3.8,42c0.6,3.4,0,6.3,0.7,9.7
				c3.2,15.7-1.2,3.6-1.2,17.5c0,2,0.3,2,0.7,3.7c-6.7,4.5-7.6,18.6-8.5,26.4c-0.8,6.9,3.5,6.7-4.3,15.7c-4,4.7-12.8,19-13.9,23.9
				h-1.5c0-2.4-10.1-70-13.1-73.8c-1-1.3-0.1-0.6-1.8-1.2c0,7.7,3.5,26.5,4.9,34.4c2.3,13,4.2,33.2,8.3,44.5
				c1.2,3.4,0.8,1.3-1.3,10.2l-7.3-37.9c-1.3-8.2-11.7-69.1-11.9-77.9c-0.2-3.3-0.6-6.7-1.2-10l-1-10.8c-0.7-10.7-2.2-16.8,2.3-28.9
				c8.1-21.6,18.3-30.7,37.2-43c17.9-11.7,16.6-7.9,33.8-11.5c10-2,32.1-3.9,40.3-5.8c-2.8,3.8-10.4,3.5-15,4.3
				C1957.3,396.9,1950.3,396.4,1947.8,399.8L1947.8,399.8z M2321.1,395.4l-5.9-3c2.2-3.3,7.4-7.8,10.6-10.9
				c3.4-3.5,5.5-11.2,8.7-13.6c4.4,8.3,4.4,9.3-3.9,19.1C2327.8,390.3,2324.9,393.4,2321.1,395.4L2321.1,395.4z M2310,390.2
				c-9.6-4.6-5.7-3.2,4.3-16.5c2-2.6,7.5-10.9,8.3-14c1.4,0,2.7,0.5,3.8,1.5c2.8,2,4.7,2.7-0.3,10.9
				C2322,378.6,2316.7,386.6,2310,390.2L2310,390.2z M2302.6,361.9l-0.7,0.7L2302.6,361.9z M2302.6,361.9v-0.7l0.9,0.6L2302.6,361.9
				z M2304.1,359.7v0.7l-0.9-0.6L2304.1,359.7z M2304.1,359.7V359l0.9,0.6L2304.1,359.7z M2306.3,356.7c5.3-8,12.6-3,12.6,0
				c0,1.8-2.3,4.9-3.3,6.4l-11.6,18.1c-7.4-1.7-4.1-4.8,0.4-12.2c3.2-5.3,6.1-9.8,3.4-11.7C2305.9,356,2307.3,359.6,2306.3,356.7
				L2306.3,356.7z M2301.8,362.7c-1.8,7.9-9.1,12.8-7,18.1c1,2.4,2.7,3.2,5.5,3.4c0,3-0.1,5.8,2.5,7.9c3.1,2.5,4.7,2.5,8.6,2.5
				c2.2,3.3,2.8,2.9,5.2,3.7c2.7,0.9,0.4,0.2,2.1,0.9c4.9,2,9.4-2,12.2-5.2l10.5-14c3.8-7.1-1.2-1.6,7.4-8.9
				c0.1-0.1,0.3-0.2,0.4-0.3l2.2-2.2c0.5-0.6,0.7-0.9,1.3-1.6c1.1-1.2,1.8-1.8,3-3l6.1-6.5l2.9,0.8c-0.1,3.7-3.9,8.9-6.1,11.6
				c-6.1,7.2-14.4,17.6-18.6,25.9c-3.1,6.3-5.5,11.1-11.3,15.4c-2.8,2.1-12.4,16.3-14.9,20.7c-4.6,7.9-2.5,4.4-4.8,13.7
				c-11.4,45.8-17.9,34.5-25.7,46.3c-7.9,11.9-2.8,4.2-8.1,8.2c-11.6,8.7-13.1,20.3-17.3,27.3c-1.6,2.7-3.4,4.8,1.5,3.7
				c-0.9,3.5-6.9,9.5-9.5,12.1c-8.7,8.7-18,5.2-30.6,12.5c-2.1,1.3-4.1,2.7-6.1,4.3c-0.9,0.8-1.8,1.6-2.6,2.5
				c-1.8,1.8-1.8,1.1-2.4,3.5c-8.9-2.4-24-36-27.2-45.6c-0.9-2.8-1.1-5.6-3.2-7.2c0,17.5,9.4,34,18.7,48.1c0.6,1.1,1.4,2,2.3,2.9
				l5.9,6c2.1,1.8,0.7,1.6,4.3,1.7c1.4-3.3,3.7-6.1,6.7-8.2l0.2,6.1c-0.3,3.3-0.9,4.5-0.9,7.3c-5.3,1.2-11,5.3-16.6,7.2
				c-5.9,2-13.8,2.2-19,4.7v3h2.2c-1.3,1.7-3.5,2.9-5.3,4.3c-2.3,1.8-2.8,3.8-5.8,4.6c-2.4-10.3-10.4-22.6-19.7-28.5
				c-5.1-3.1-10.6-5.6-16.4-7.4c-15.7-5.4-24.1-6.9-41.1-5.7c-5.1,0.4-15.6,3.4-18.7,5.8l-10.5,7.3c-3.2,2.3-7.4,4.9-9.4,8.5
				c-1.4,3.1-2.3,6.3-3,9.7c-7.2,0-31.1,2.3-37.1,5.2c-0.5-6.5-8.8-17.7-13.7-22l-6-5.2c-0.1-0.1-0.3-0.2-0.4-0.3
				c7.5,0.2,16.6,4.2,24.5,4.5c15.9,0.5,22.1,2.8,38.3-4c2.4-1,1.8-0.2,2.5-2.7c-3.2,0.4-6.4,0.9-9.5,1.7c-3.2,0.7-6.5,1.2-9.8,1.3
				c-3.3,0.2-5.9,1.1-10.4,0.8c-2.8-0.2-1.9-0.7-5.2-0.8l-15.6-1.5c-10.6-1.2-20.8-5.2-30.1-9.2c-1.7-0.7-2.6-1.2-4-1.9
				c-7-3.5-14.7-8.3-20.2-13.9l-19-20.4c-1.3-1.7-1.3-1.8-3.9-2.1c0.7,7.8,10.7,17,16.1,22.5c2.2,2.3,5.2,4,6.9,6.5
				c-6.2,0-14,1.4-19.3,1.8c-3.7,0.3-10.7,6.3-13.2,8.8l-8.3,7.2c0-10.8,3-15.8,5.2-25.2c4.6,1.1,6.9,6.1,11.9,3.7
				c-1.1-4-5.4-5.3-8-8.3c-3.4-3.9-1.3-9,0.6-12.5c-0.5-2-1.1-2.4-1.4-3.8c-1.1-5.3-0.8-20.3-0.9-26.6c-0.1-18.1,6.2-37.1,12.8-52.5
				l7.7-14.6c3.1-5.4,16.3-17.6,22.3-22.2c6.4-4.9,13.5-8.8,21.1-11.6c3.7-1.4,4.8-1.2,9.1-2c22.7-4,42.3-3.4,63.8,3.9
				c1.3,0.4,2.5,0.9,3.7,1.5c4.1,1.9,8,3,11.6,5.4c8.6,5.8,16.6,13.6,21.5,23c-2.4-0.5-2.7-1-4.6-2.1c-1.7-1-2.7-1.2-4.6-2.1
				c-2.9-1.4-6.2-3.2-9.4-4l-1.3,1.6c1.9,3.8,11.8,6.8,18.7,11.4c9.4,6.1,16.5,15.1,20.4,25.6c1.2,3.4,3.4,8.3,3.8,11.8
				c0.6,5.5,1.4,25.7,2.3,27.4c1.7-1.3,1.7-1.1,2.2-3.8c0.4-2.1,0.7-3.4,0.8-5.1c0.3-4.6-0.4-7.7-0.7-11.2
				c-1.1-12.5-5.3-25.7-12.6-35.6c-1-1.4-1.5-1.8-2.7-3.2l-5.9-6c-1.5-2.6-2.9-13.8-16.8-25.5l-14.4-10.1
				c-3.5-1.9-24.6-7.9-28.5-7.9v-0.7c10.8,0,13.3-1.9,23.1,1.4c18.9,6.4,25.9,13.4,41,24.3c10.9,7.9,10.9,13.2,14.3,25.1l2.8,9.8
				c0.8,4.1,1.3,7.2,2,11.4c0.6,3.4,1.2,7.1,1.9,10.8c2.2,12.3,2.5,21.9,5.5,34.6l-11.9,8.2l-0.7-5.9c0,2.9-7.4,21.5-10.1,25.5
				c-1.4,2-2.1,3.5-3.6,5.3l-4,4.9c-6.9,7.7-8.7,4.7-9.1,9.5c13.2-3.1,24.3-21.5,25.2-33.4c4.8-0.1,5.2-2.5,12.2-7.1l31.1-17.9
				c2.7-1.3,4.7-1.9,7.2-3.2c1.3,0.7,2.5,1.1,4,2c2.7,1.5,1.3,1.7,4.2,2.5c-1,1.5-3.6,3.6-3.6,5.4c-0.2,6.4,6.9-2.6,9-4.4l10.9-7.6
				c1.6-1,3.6-2.4,5.6-3.4c3.2-1.6,16.8-6.6,18.5-9c3.2-4.7,0.6-2.6,5.3-8.1c1.8-2.2,1.1-5,6.5-12.1c0.6-0.9,1.2-1.8,1.9-2.5
				c1.9-2.1,2.8-3.1,5.5-4.2l12.5-6c0-4.3,0.8-8.6,2.1-12.7l4.6-11c2.7-5.4,5.5-5.5,13.1-8.4c2.6-1,3.7-1,4-4.2h-3.7
				c1.2-4.4,0.7,0.6,6.2-8.6c6-9.9,9.3-5,3.3-21l-8.4-22.8c-2.6-4.2-4.1-5.1-7.9-7.7c0.2-2.7,0.9-3.5,1.5-5.9
				c1.8,0.9,3.5,1.2,5.2,2.2c6.5,3.9,11.2,15.2,13.2,18c0.7,0.9,0.9,1.1,1.6,2.1c3.3,4.5,7.2,5.9,14.1,5.9
				C2299.3,365.3,2300,363.9,2301.8,362.7L2301.8,362.7z M2258,343.4c0,6.6,9.6,7.3,11.8,18.6c1.3,6.7,3.4,10.6,5.7,16.6
				c4.7,12,2.1,3.6-6.1,18.5c-1.3,2.4-3.1,4-4.6,6.6c-2.4,4.1-1.6,2.8-6.1,5c-5.3,2.6-6.6,7.7-9.1,12.4c-1.8,3.4-2.3,3.4-3.6,7.5
				c-1.1,3.1-1.6,6.5-1.4,9.8c-10.3,5.4-12.7,4.6-20.5,15.1c-1.1,1.4-2.1,3-2.8,4.7l-7.9,13.6c-0.4,0.3-4.6,1.9-5.3,2.1
				c-3.5,1.4-6.9,2.9-10.2,4.7l-17.9,11.8c-12.2-8.2-11.8-6.3-28,1.7c-5.7,2.8-10.4,5.8-15.8,8.7c-0.3-11.1-9.3-62.1-12.5-72.2
				c-1.6-5.3-3.5-10.8-7.4-14.9c-6.5-6.2-13.4-12-20.7-17.2c-11.1-7.5-25.9-16-42.6-16l-15.6,0.7c-5.8,0-10,1.5-16.3,1.5
				c-16.4-0.1-46.3,4.2-64.4,6.8l-30.6,5c-6.5,1-7.8,0.6-14.4,3.4l-10,6.3c-10.3,8.8-18.8,10.1-29.2,25.8c-2.6,4-4.7,6.1-7,10.8
				c-1,2-2,4-2.8,6.1c-3.1,7.7-4.7,15.8-4.9,24.1c0,3.1,1.3,5.7,1.9,9.2c1.3,7.2,0.8,13.8,2.1,21c0.7,3.9,0.8,6.7,1.3,10.6
				c3.1,26.5,8,53.6,12.4,79.7l7.6,39.2c-4.1,0.3-10.3,0.3-13.7,1.9c-0.2,0.1-0.3,0.2-0.5,0.2c-16.5,7.3-25.2,14-29.1,18.4
				c-5.3,6.1-14.2,10.8-22.2,26.8c-1,1.8-1.8,3.7-2.4,5.7c-2.8,8.3-0.8,7.8-0.3,15.3c0.1,3.4,0.4,6.8,0.9,10.2l12.3,44.1
				c0.1,0.2,0.2,0.3,0.3,0.5l2.8,4.6c-5.5,0.5-23.5,6.8-31,8.3c-17.1,3.5-28.8,7.7-43.1,17c-9.7,6.4-17.1,18.8-19.4,30.3
				c-2.1,10.5-2.1,21.3,0,31.8l9.8,24.3c4.7,9,10.9,16.3,18.1,23.5c13,12.8,35.8,22.6,54.3,22.8c27.4,0.4,15.6-3.9,22.4,11.8
				c2.4,5.5,6.5,8.3,13.3,8.3c6.5,0,12.8-1.5,18.6-4.5c2.7-1.2,5.2-2.7,7.6-4.3l6.6-5.3c0.7,1.3,1.2,2.3,1.9,4
				c1.9,4.4,4.9,8.1,7.7,11.6c3,3.8,15.8,5.2,20.8,5.2c15.8,0,26.8-5,38.4-12.8l17.5-17.4c4.1-6.1,5.3-19,7.4-26.8
				c1-3.6,1.2-3.2,4.8-4.1c2.3-0.5,4.6-1.2,6.8-2.1c4.5,6.7,28,16.3,40.1,16.3c5.1,7.6,16.9,8.2,25.4,9.5
				c14.1,2.1,33.8,4.1,47.8,1.4c13.6-2.7,31.8-9.9,44.1-16.1c1.6-0.8,3.1-1.7,5-2.5c5.7-2.4,8.8-5.3,12.6-10.5
				c1.8-2.4,4.5-7.5,4.8-10.8c3.4,0,6.9-0.3,10.3-0.9l21.2-6.3c12.5-5.9,21.5-12.5,22.8-27.7c5.4,1.3,8.7,2.2,14.8,2.2
				c8.9,0,19.7-4.4,25.4-10.2l5-4.7c4.1-3.5,0.3-12.4-0.9-16.2c-1.3-4.3,1.8-2.6,6.1-3.8c5.6-1.5,10.8-4.2,16.1-7
				c8.9-4.7,16.1-10.8,23.6-17.2l0.8-0.7c0.1-0.1,0.3-0.2,0.4-0.3c0.7-0.6,0.9-0.8,1.5-1.4c8.9-8.8,6.4-6,15.4-18.7l4.4-7.4
				c13.7-27,14.6-45.9,3.4-74l-3-5.9c-1-1.7-2.1-3.3-3.4-4.8c-3.7-5-8.6-8.8-13.7-12.3c-2.3-1.6-2.4-2-4.9-3.3l-5.9-3
				c-0.8-0.5-1.7-0.8-2.5-1.2c-20.7-7-36.6-6.9-58.5-3.5l-17.1,3c-2.8,0.6-3.8,0.9-5.9,1.5c-9.8,2.7-18.1,6.4-30.6,9.5
				c-3.3,0.8-8.4,2.1-10.8,3.3c-0.7-3.1-0.8-6.1-1.8-9.4c-1.3-4.3-7.9-24.3-7.9-27c0-0.9,1.9-5.2,2.5-6.5c1.5-3.7,6.1-18.9,6.4-22.5
				c9.5,0,18.3-5.1,25.5-8.7c7-3.4,7.9-4.6,7.9-14.3c0.1-2.5-0.5-5.1-1.5-7.4c4.4-2.3,7.5-5,12.6-5.9c4.4-0.7,12.9-2,16-4.1
				c1.2-0.8,0.7-0.6,1.6-1.3c8.5-6.5,15-16.2,19.4-25.9c4.1-9.1,10.6-16.6,16-24.8c11.7-17.5,13-9.8,17.1-17.8l6.8-13.2
				c6.8-15.8,5.5-27.1,6.1-28.9c1-1.7,2.2-3.2,3.5-4.6c2.1-2.2,1.8-2.6,3.2-5c2-3.4,4.4-7.2,6.7-10.4c6.1-8.7,6.1-4.4,14.9-19.3
				c5.1-8.7,11.5-16.8,17.6-24.7c3.8-5,9.9-12,9.9-18.4c-1.1-0.4-2.1-0.9-3.1-1.4c-3.2-2-2.7-1.6-6.6-1.6l-4.5,5.1
				c-1,0.8-1.4,1.3-2.4,2.1c-1.4,1.2-1.5,0.9-3,2.2c-1.8,1.6-3,3.2-4.8,4.9l-5.4,4.3c-2-4.2-2.1-8.4-8.2-8.9
				c-0.4-4.6-4.9-7.8-9.6-8.2c-0.6-7.7-9.8-9.5-14.9-6c-3.4,2.4-6.8,6.6-9.3,10c-1.6,2.1-1.1,2-3.3,3.4c-3.4-1.7-6.3-4.1-8.6-7
				l-12-16.2c-2.6-2.6-5.9-4.1-9.9-5C2261.4,336.2,2258,338.4,2258,343.4L2258,343.4z M2033.9,559.4c-14,0-12.9-0.3-25.8-3.1
				c-1.9-0.4-4.3-1.4-6.2-1.9c-17.5-4.7-32.7-12.6-47.1-23.5c-16.2-12.2-11.7-13.3-10.7-20.5c0.4-2.9,1.1-5.7,1.9-8.5
				c2.4-8,3.2-10.4,6.8-17.7c0.9-1.8,0.8-1.6,1.8-3.4c7.4-12.7,17.4-23.7,29.4-32.2c5.9-4.2,8.3-4.6,14.3-8l16.2-7.6
				c1.4-0.6,2.3-0.7,3.9-1.3c8.3-2.9,27.2-6.7,32.9-5.8c11.2,1.7,40,14.2,45.8,25.4c3,5.8,4.4,6.5,9,16.2c9.8,20.4,3.6,45.9-8.9,63
				c-5.6,7.7-21.6,20.8-31,23.9c-5,1.6-10.1,2.7-15.3,3.2C2045.1,558.6,2040.5,559.4,2033.9,559.4L2033.9,559.4z M1938.9,514.1
				c0,10.3,8.1,15.6,12.8,19.8c6.4,5.8,5.8,5,12.3,9.2c7.2,4.9,15,8.9,23.3,11.6c6.8,2.4,13,4.8,20.2,6.5
				c17.4,4.1,47.1,4.1,62.1-3.4c13.7-6.9,22.1-12.4,32.1-24.3l3.7-5.3c10.7-17,14.9-40.5,6.8-60.5c-0.9-2.1-1.5-4-2.4-5.7
				c-1-2-1.9-3.1-3-5.2l-10.4-14.1c-0.1-0.1-0.3-0.3-0.4-0.4l-3.5-3.2c-7.4-6.3-30.7-17.3-39.9-17.3c-30.8,0-53.4,10-78.4,28.5
				l-7.3,6.1C1952.2,470.6,1938.9,494.2,1938.9,514.1L1938.9,514.1z M1771.9,860.1l0.3,0.3l-0.1-0.1
				C1772.1,860.3,1771.8,860.2,1771.9,860.1L1771.9,860.1z M1761.5,849.7l-0.8-1.5L1761.5,849.7z M1761.5,849.7l2.5,4.2
				c0.9,2.3,1.1,3,2.2,5.2c1.8,3.5,2.7,6.5,4.2,9.9c1.4,3.2,2.6,6.6,4.2,9.9c0.7,1.7,1.6,3.3,2.6,4.8c1.9,2.2,2.4,1.5,5.1,0.9
				c0-7.1-1-10.2-2.7-15.9l-6.2-22c-0.7-2.6-1.1-5-1.9-7.7c-1.5-5.1-2.7-10.4-3.7-15.6c-0.7-3.3-1.2-4.1-0.6-7.4
				c0.8-4.5-1.8-5.5-4.1-3.3c-3,3,5.1,33.3,6.7,39.1c0.6,2.4,1.8,4.7,2.1,7.6c-2.6-2.9-9.7-24.2-14.1-27.5c-0.7,0.4-1.4,0.7-2.2,0.7
				c0,10.1,2.3,16.2,4.3,24.7c0.9,3.6,0.6,4.9,3.9,5.8C1763.7,856.5,1761.9,854.8,1761.5,849.7L1761.5,849.7z M2512.6,394.6
				c-1.7-0.4-14.1-7.9-14.1-2.2c0,3.5,1.8,4.2,3.9,5.8c1.9,1.5,4.1,2.6,6.5,3.2c-0.6,2.4-3.3,7.6-4.5,9.6c-9.8,16.8-0.7,13,1.5,9.7
				c2-3,7.4-12.6,8.1-15.6c5.5,0.5,1.3,2.2,10.4,2.2c-0.6-6.8-5.9-8.7-5.9-9.6c0-2.4,1.6-4.5,2.5-7.1c1.9-5.3,0.6-2.6,0.4-7.7h-1.5
				c-1.1,3,0.5-0.2-2,2.5C2515.6,387.8,2514.1,391.6,2512.6,394.6L2512.6,394.6z M2685.5,865.4c-6.1-3.2-7.8-4-12.6-1.5
				c0,6.7,1.9,5.1,6.7,7.4c-1.2,4.4-8.2,6.9-8.2,11.1c0,7.1,10.6,0.5,14.8-7.4c1.5,0.9,3.1,1.5,4.8,1.9c6.7,1.6,3.4,2.9,5.1,1.2
				c1.4-1.4,0.3-0.8-0.8-3.2c-2.6-5.6-1.6-2.5-3.9-5.8c3-4.5,6-6.3,7.4-12.6C2693.1,857,2689,863.1,2685.5,865.4L2685.5,865.4z
				 M1459.4,430c0,4.5,0.7,5.4,0.7,9.6c-5.7,1.5-6.1,13.1,0.3,9.2c1.4-0.9,0.6-0.2,1.2-1.8h1.5c0.3,3.2,1.4,6,2.3,8.8
				c1.6,5,1.6,4.2,6.6,3.8c2.1-9-0.8-8.3-3-17.8c5.9-4,10.4-4.8,10.4-8.9c0-5.7-12,0.7-13.4,1.5c-2.3-4.3-3.1-6.4-6.7-6.7
				L1459.4,430L1459.4,430z M1938.9,476.3c1.7-0.6,2.2-1.6,3.9-3.5l18-19.8c0.1-0.1,0.3-0.2,0.4-0.3l7.2-6.2c1.5-1.3,2.5-2,4.1-3.3
				c8.1-6.8,24-15.7,33.9-18v-2.2c-11.3,0.9-22.8,6.9-31.9,13.4l-12.8,10.2c-2.7,2.7-7.3,5.3-11.8,11.2c-0.9,1.2-0.4,0.9-1.5,2.2
				l-5.5,6.4C1941.1,468.5,1937.8,473.6,1938.9,476.3L1938.9,476.3z M1544.5,804.9l-10.2-5.5c-1.9-1-4.1-1.1-6.1-0.4
				c-4.7,1.8-2.4,4.3-2.4,4.4c1.8,3.8-0.3-0.3,6.7,3.7c2.4,1.4,5,2.5,7.4,3.7c-4.4,6.5-5.9,3.4-5.9,8.9c7.6,5.1,12.8-5.4,13.4-7.4
				c2.6,0.2,5.9,2.3,5.9-1.5c0-2.2-0.9-2-3-2.2c1.3-5.5,6-9.1,4.4-15.6c-2.3,0.2-1.9-0.6-5.9,5.2L1544.5,804.9z M1650.1,427.8
				c-5.2-1.2-18.5-8.2-15.6,4.5c4.7,1.1,4.7-0.1,11.1,3c-3.5,6.7-6.7,7.9-6.7,14.9l2.2,1.5c0.8-0.1,1.6-0.3,2.4-0.6
				c2.1-1,3.3-3.3,4.5-5.2c1.7-2.8,2.8-5.6,4.3-8.3c2.3,0.2,2.5,0.8,4.9,0.5c1.8-0.3,3.7-0.5,5.5-0.5c-0.8-3-5.5-5.3-8.2-6.7
				l2.2-11.1L1650.1,427.8L1650.1,427.8z M2048,432.5c0.5,6,4.5,1.2,17.1,7.4c14.3,7.2,15.3,10.8,23.2,19.1c1.6,1.7,1.6,2,3,3.7
				c2.2,2.6,8.5,13.4,10.9,14.3c-2-8.5-6-17.8-11.7-24c-8.4-9.2-7.9-9-19.3-16.3C2067.1,434.2,2054.2,430.1,2048,432.5L2048,432.5z
				 M2267.7,575.8c-2.7-1.4-6-3.4-9.6-3.7c-0.1,0.1-0.3,0.1-0.4,0.3c-0.4,2.1-6.8,2.8,5.6,9.3c-0.3,0.9-8.8,14.1-3.7,14.1
				c4.6,0,5.1-3.7,7.9-7.7c1.1-1.7,1.3-1.5,1.8-3.4c8.5,2,2.7,3.1,13.4,2.2c-0.4-4.3-4.7-6-8.9-8.2c2.7-5,5.1-7.7,5.2-13.4
				c-3.4,0.3-4.2,2.3-6.1,4.3C2270.8,571.5,2269.1,573.5,2267.7,575.8L2267.7,575.8z M2444.3,595.1c-6.8,0-8.3-0.7-12.6,2.2
				c0,5,0.2,2.9,2.2,5.9h5.9c-1.4,6-3.7,3.3-0.7,8.9c6.2,0,5.1-0.3,8.9-7.4c1.7,0.4,11.1,3.8,11.1,0.7c0-3.5-5.6-6.8-8.2-8.2
				c0.1-4,3.3-13.4,0-13.4C2448.1,583.9,2445,592.2,2444.3,595.1z M1768.2,341.9c-2.9,0-12.6-2.3-12.6,1.5c0,3.5,1.1,4,4,5
				c2.6,0.9,5.2,1.4,7.9,1.7c0,7-0.6,6.1,2.2,10.4c7.3-4.9,1.1-9.9,7.4-10.4c4.1-0.3,2.5,0.4,5.2-1.5c-1-4.3-3.3-4.3-6.7-5.9
				c0.7-1.5,2.6-7.9,0.7-9.6c-2.2-1-2.1-0.7-5.2-0.7L1768.2,341.9z M2200.9,359c-4.1-1-2.6-1.5-8.2-1.5c-2,3-2.2,0.9-2.2,5.9
				c3,1.6,8.2,3.3,8.2,4.5c0,3.3-4.1,11.1,1.5,11.1c3.3,0,3.6-1,4.7-3.4c1.1-1.9,1.8-4,1.9-6.2c2.8-0.6,2.1-1.2,5.2-1.5
				c-1-3.7-1.8-3.9-3.7-4.5c0.2-2.2,2.8-13.4-2.2-13.4C2203.3,350.1,2201.5,356.4,2200.9,359z M1616.7,610c-0.2-0.1-10.4-8-10.4-0.7
				c0,2.5-0.3,2.1,1.1,3.3l4.8,4.1c-3.1,4.7-7.7,8.8-7.8,10.6c-0.4,5.1,10.6,2.8,13-6.1c3.7,0.3,3.6,1.5,8.2,1.5
				c0.1-0.7,0-1.4-0.2-2l-1.2-1.8c-5.8-8.3,1.5-4.6-0.8-14.8C1619.8,604.3,1619.3,606.1,1616.7,610z M1919.6,439.9
				c-2.4,1.8-12.1,20-13.7,23.4c-0.1,0.2-0.4,0.8-0.5,1l-17.2,33.3c-1.8,3.5-3.5,6.6-4.8,10c-1.3,3.3-3.7,7.2-3.8,11
				c3.2-0.3,2.8-1,4-3.5c0.9-1.9,1.5-3,2.5-5C1891.2,499.7,1918.9,447.6,1919.6,439.9L1919.6,439.9z M2487.7,809
				c-0.6,2.8-1.4,4.3,0,7.5c2.9,6.6-0.6,5,4.4,7.5c1.3,0.7,12,12.1,12,6.6c0-3.2,0.2,0.2-0.7-2.2c-0.5-1.3-0.4-1.1-0.9-2.8
				c-0.6-1.6-1.3-3.1-2.1-4.6c1.6-2.3,13.9-11.9,6.7-11.9c-3.1,0-8.7,3.9-11.1,5.2C2494.2,810.7,2493.8,806.6,2487.7,809L2487.7,809
				z M2201.6,757.7h0.7l-0.6,0.9L2201.6,757.7z M2212.8,755.4c0.3-3.5-0.8-1.3,1.5-3C2215.8,755.8,2215.1,754.4,2212.8,755.4
				L2212.8,755.4z M2208.3,754.7v-2.2C2211.6,754.8,2208.7,753.7,2208.3,754.7L2208.3,754.7z M2210.5,758.4c1.7,0,0.9-0.3,3-0.7
				c-2.4,3.3-10.4,4-10.4-4.5c-0.1-1.4,0.4-2.8,1.3-3.9c0.4-0.5,1-1,1.5-1.5c0.1-0.1,0.3-0.2,0.4-0.3l1.2-1c3.1,0.7,4.4,0.2,5.9,2.2
				h-5.2c-1.2,1.8-3,3-2.5,5.6C2206.2,756.6,2208.2,758.3,2210.5,758.4L2210.5,758.4z M2201.6,757.7c-2.9-2.1-2.2-3.5-2.2-8.2
				c2.2-1.4,1-1.5,3.7-2.2C2200.3,751.5,2200.3,751.8,2201.6,757.7L2201.6,757.7z M2195.7,753.9c0,7.2,16.6,12.6,20.4,3.4l0.5-1
				c4.2-10.7-3.4-10.5-9.8-12c0.1-0.1,0.3-0.5,0.4-0.4l1.9-1.1c0.9-0.3,1.9-0.6,2.9-0.8l-2.2-2.2c-1.5,0.7-3.5,1-4.9,1.8
				C2202.4,743,2195.7,748.6,2195.7,753.9L2195.7,753.9z M2021.3,485.9c0,10.9-2.7,21-5.7,30.7c-1,3.3-3,6-3.3,9.4
				c3.1-0.3,4.2-1.8,5.5-4.2c3.2-5.8,6.4-17.9,7.1-24.1c1.2-11.1,0.1-11.4,0-17c0-4.5-0.7-13.7-4.4-16.4
				C2020.5,472.6,2021.3,478.2,2021.3,485.9L2021.3,485.9z M2717.9,477c-4.4-3-2.3-4.5-8.2-4.5c-1.3,2.8-2.2,4.9-2.2,7.4
				c2,1,2.2,1.4,5.2,1.5c-2.2,3-0.2,0.6-3.6,1.6c-6.2,1.9-1.3,6-0.9,6.5c8.6,0,7.4-2.3,9.6-3c3.4,0.1,2.9,0.7,6.7,0.7
				c-0.2-2.8-1.1-3.5-2.2-5.2c5.8-8.7,4.9-7.5,3-10.4C2719.9,474.6,2720.9,474.9,2717.9,477L2717.9,477z M2410.2,443.6
				c6.6,0,11.9-3.6,11.9-11.1c-5.3-3.5-3.1-0.8-5.2-5.2c-3.5-0.3-8.1-1.6-11.7,5.4c-1.3,2.5-2.1,4.5-0.9,7.1
				C2405.3,442.2,2407.6,443.7,2410.2,443.6z M1712.5,914.3c-3.7-1-3.4-3.7-6.7-3.7c-3.5,0-5.2,4.7,2.2,9.7
				c-4.3,8.2-7.4,5.6-3.7,11.1c4.2,0,5.2-2.2,8.2-6.7c3.9,0.9,3.3,2.4,7.4,1.5c-0.1-3.9-0.9-4.2-3.7-7.4c3.8-5.7,3.1-6.6,1.5-9.7
				C1714.9,909.8,1713.4,910.8,1712.5,914.3L1712.5,914.3z M1804.5,897.2c-0.1-4.4-2.7-8.5-4.2-12.2c-1.7-4.3-3.4-8.1-4.8-12.2
				c-2.6-7.3-7.2-18.5-8.8-25.3h-2.2c0,5.5,5.5,22.8,7.1,27.8l4.7,12.3c0.9,2,2,4,3,6C1800.8,896.5,1800.5,897.2,1804.5,897.2
				L1804.5,897.2z M1858.7,590.6c-2.6,1.8-2.7,3.7-5.9,3.7c-6.2,0-6.8-6.1-10.4,0.7c2.1,4,3.5,4.1,8.2,5.2c-0.1,0.1-0.3,0.1-0.4,0.3
				l-0.7,0.7c-2,2.8-0.9,3-0.3,5.6c2.4,0,4.2,0.2,5.7-1c0.4-0.3,2.9-3.7,3.2-4.2c4.3,2,3.5-0.7,6.7,0.7c-0.7-2.8-2.3-3.9-3.7-5.9
				c0.9-3.8,2.2-9.2-3-9.7C1858.1,588.2,1858.3,589.4,1858.7,590.6L1858.7,590.6z M2288.5,718.3c0-4.8-0.4-3.4-1.2-7
				c-0.6-2.6-0.1-5.5-0.6-8.3c-0.9-5.2-1.6-10.8-2.5-15.3c-0.6-2.9-0.6-4-1.1-7.1l-6.5-21.7c0,13.2,3.5,34.8,6.5,46.9
				c0.7,2.8,1.5,4.2,2.1,6.8C2286.1,716.3,2285.1,717.4,2288.5,718.3L2288.5,718.3z M1930,663.4c5.6,1.2,2.1-2.4,15-17.6
				c4.1-4.9,1.6-2.5,7.7-4.9c1.6-0.6,1.5-0.8,3.2-1.3c4.4-1.5,9.4-1.6,12-5.1c-4.5-2.5-13.3,1-17.4,2.7c-7.2,2.8-11.3,8.4-16,15.1
				C1932.6,654.8,1930.3,659.3,1930,663.4L1930,663.4z M2298.1,652.2c2.1,2.9,7.5,2.2,15,7.3l13.8,13.7c0.7,0.8,1,1.1,1.8,1.9
				c2,2,1.9,2.4,5,3.2c-2.1-4.4-0.3-3.4-5.1-9.8c-2.2-2.9-7.8-9.4-11-11.3c-1.9-1.1-2.9-1.8-4.7-2.7
				C2310,652.9,2300,650,2298.1,652.2L2298.1,652.2z M2065.1,592.8c0,4.3,6.1,5.3,4,16.6c-0.3,2.4-0.4,4.8-0.3,7.1
				c0,2.1,0.3,1.4,1.5,2.2c3.2-2.3,0.3-4.2,3.7-6.7c0.4,4.2,2.1,4.2,3,7.4h1.5c0.1-2.6,0.5-2.6,0.4-4.2c-0.2-4-2-8.7-3.3-12.2
				c-1.4-4.1-4.8-10.2-8.3-12.5C2066.6,591.1,2065.1,591.8,2065.1,592.8z M2105.1,852.7c1.3,4.7,9.6,7.5,13.8,9.2
				c18.4,7.4,17.1,4.4,27.8,4.2c-1.5-2-1.9-1.5-4.6-2.1c-2.4-0.5-3.2-0.6-5.6-1.1l-20.2-6.5C2113.1,855,2106.5,850.4,2105.1,852.7
				L2105.1,852.7z M1889.2,569.8c2.7,0,2.9-4.1,5.3-10.3l10.4-22.3c0.7-1.9,1.3-4.2,2.1-6c1-1.9,1.8-3.9,2.2-5.9
				c-2.7,0.7-3.5,4.1-6.7,9.6l-2.1,3.9c-0.7,1.2-0.1,0-0.8,1.4l-8.3,17.7C1890.8,559.2,1885.8,569.8,1889.2,569.8L1889.2,569.8z
				 M1938.9,374.6c-4.6-2.2-4.6-1.4-7.4,0c-0.1,6.1,0.4,1.8,1.5,5.9c-2.6,0.7-2.3,0.8-3,3.7c6.3,4.2,6.3-1.2,9.7-2.2
				c2.3,0,7.4,0.7,7.4-1.5c0-2.3-1.3-2.5-3-3c0.6-0.9,4.3-6.7,0.7-6.7C1943.1,370.9,1940.2,373.7,1938.9,374.6L1938.9,374.6z
				 M1899.5,725c5.9-0.1,5.9-5.6,5.9-15.6V696c0-5.2-1.1-7.6-1.5-11.9h-1.5c0,3.7-0.8,5.1-0.8,9.7c0.1,10.1-0.7,12-0.7,21.5
				C1901.1,720.7,1899.6,720.6,1899.5,725L1899.5,725z M2284.8,774l-7.1-57.5c-1.2-4.1-0.9-5.2-2.5-7.1c-0.1,11.5,0.8,23.1,2.7,34.5
				l6.6,29.8C2284.5,773.7,2284.7,773.9,2284.8,774L2284.8,774z M1799.3,788.8v1.5c5.6,3.2,24.7-5.7,30.7-8.7
				c3.8-1.9,5.3-2.6,7.2-6.2c-4.8,0.1-5.4,2.2-9,3.6c-12.4,4.9-5.8,2.8-19.1,6.2C1807.5,785.7,1799.3,787.1,1799.3,788.8
				L1799.3,788.8z M2334.5,854.5v5.2c12.2,8.2,17.2-10.6,7.4-11.9C2338,848.8,2334.5,849.8,2334.5,854.5L2334.5,854.5z
				 M1868.4,466.6c0,7.1-1.1,14.9,3.7,14.9c2-4.3,0.2-12.9,1.2-18.1c1.1-6.1,2-10.6,3.3-16c-1.6,0.6-0.7,0-1.8,1.2l-4.1,6.3
				C1869.2,458.6,1868.4,462.6,1868.4,466.6z M1663.2,763.2c0,7.8,14.1,10.5,14.1-0.7c0-4.5-8.4-6.5-11.7-3.6
				C1664.6,760.2,1663.8,761.7,1663.2,763.2z M2008.7,632.9c5.4-3.1-4.6-18.3-6.2-20.5l-3.8-4.4c-3-3.5-6.1-7.7-10.8-7.8
				c0.1,5.2,0.4,0.7,8.8,11.3c5.4,6.8,6.2,7.1,10.1,16.6C2007.6,630.4,2008.1,630.6,2008.7,632.9z M2215,532
				c-0.3-3.7-4.3-10.5-5.9-14.1c-1.1-2.5-2-5.2-2.5-7.8l-1.9-8.5c-3.9,1-3.8,4-3.1,7.5c0.6,3.2,1.4,6.3,2.6,9.3c1,2.8,2.4,5.4,4,7.8
				C2210.8,529.7,2212.3,531.7,2215,532L2215,532z M2046.5,482.2c0,3.2-0.8,16.3,0,17.8c2.2-0.6,1.9-0.1,2.7-2.5
				c0.4-1.4,0.7-2.8,0.9-4.2c1.4-13.4,1.2-14.8-2.3-26.5c-0.6-2.1-1.1-3.3-2.8-4.6c0,3.6,0.5,5.7,0.7,9.6c0.2,3,0.5,1.5,0.8,4.5
				C2046.6,478,2046.5,480.4,2046.5,482.2L2046.5,482.2z M1783.8,839.3l-7.5-39.3c-1.1-2.9-1.4-1.7-1.4-6h-0.7
				c0,15.2,1.3,23,4.6,36.2C1780.8,838.7,1780.2,839,1783.8,839.3L1783.8,839.3z M1429.4,362.3c0,4.6,5.8,4.5,5.9,4.5
				c2.4-1.3,7.4-4.7,7.4-8.2C1442.8,349.2,1429.4,354,1429.4,362.3L1429.4,362.3z M2413.2,694.6c-2.4,0-1.6-1.5-4.2,0.2
				c-1.4,1-2.3,2.5-2.5,4.3c0,10.6,14.8,3.8,14.8-2.2c0-1.8-1.2-2.2-2.2-3.7C2411.4,693.1,2415.6,694.6,2413.2,694.6L2413.2,694.6z
				 M2179.4,540.1c0-5.4-0.6-5.2-1.6-9.5c-2.6-10.2-2.7-15.8-4.7-25c-0.7-3.3,0.4-2.6-2.6-3.4c0,10.5,0.4,15.7,3.3,25.7
				C2174.8,531.9,2175,539,2179.4,540.1L2179.4,540.1z M2729,784.6c0,2.6,0.7,3.8,2.7,4.7c5.6,2.7,6.5,2,9.9,1.2l0.7-5.2
				c0-3.2-4.9-5.9-10.4-5.9C2730.9,780.9,2729,782.4,2729,784.6L2729,784.6z M2553.5,500c0,5.9,12.6,7.3,12.6-3
				c0-5.3-7-6.8-10.1-2.7C2555.9,494.4,2553.5,500,2553.5,500z M2715.2,607.8c0,9.5,13.4,3.8,13.4-1.5c0-1.8-1.2-2.2-2.2-3.7h-4.4
				c-0.5-2.2,0.1-1.1-1.5-2.2C2719.8,600.6,2715.2,600.8,2715.2,607.8z M2090.3,530.5c0,4.3,5,2.5,9.1-7.9
				c2.1-5.2,4.2-11.2,4.2-18.1c-2.5,0.7-2.4,0.7-3.7,5.9L2090.3,530.5z M1948.5,596.5c-8.6,0-7.3-0.7-8.9,1.5
				c2.6,3.5,1.8-0.1,13.8,2.5l4.4,1.4c3.1,0.8,11.4-4,18.1-2.4c-5.6-8.4-14.2,0.1-19.4-1.3C1953.6,597.3,1952.4,596.6,1948.5,596.5
				L1948.5,596.5z M2192.7,678.2c1.2,4.7,3.4,2.7,7.4,2.3c5.8-0.7,21.9-3.7,23.7-10.4c-1.1,0.3-2.2,0.7-3.3,1.2
				c-1.9,0.6-2.2,0.7-3.9,1.3C2208,675.6,2200,676.5,2192.7,678.2L2192.7,678.2z M1730.3,684.2c0,3.1,0.3,3,1.5,5.2h5.9l1.9-3.3
				c0.1-0.1,0.2-0.3,0.3-0.4c2-2.1,2.9-0.8,2.9-5.3C1742.9,673.9,1730.3,679.8,1730.3,684.2L1730.3,684.2z M1762.2,485.9
				c1.5,2.8,2.1,6.5,5.9,6.5c6.1,0,10.4-11.6,0.7-11.6C1764.9,480.7,1763.6,483.3,1762.2,485.9L1762.2,485.9z M2098.5,413.9
				c0,2.9,8.2,5.1,12.5,16.4c0.9,2.5,1.9,4.5,3.8,5.8c2.7-4.8-2.2-12.2-4.6-15.4c-1.8-2.3-6.8-8.4-10.2-8.4
				C2099.2,412.5,2098.6,413.1,2098.5,413.9L2098.5,413.9z M2244.7,800h2.2c-0.2-7.8-11.8-36.4-11.9-40.1h-1.5
				c0.6,7.5,5.7,22.4,8.1,29.8L2244.7,800z M1472,574.8c2.5,10.7,11.9,7.1,11.9,0.7c0-5.9-4.7-5.2-8.9-5.2
				C1473.8,571.8,1472.8,573.3,1472,574.8z M2644.8,373.6c0,7.3,10.4,10,10.4-4.5c-2.6-2.2-5.9-3.8-8.6-0.5
				C2645.5,370.1,2644.9,371.8,2644.8,373.6L2644.8,373.6z M2068,894.3c-0.3-3.5-0.6-2.2-3.1-4.4l-12.4-11.4c-1.4-1.4-4-5-6.1-5
				c-4.6,0,0.1,4.2,1.3,5.4C2062.9,893.8,2056.6,886.6,2068,894.3L2068,894.3z M1852.8,928.4c4.1,2.3,17.6-0.7,23.3-5.7
				c2.1-1.9,1.1,0,2-2.5c-4.4,0.4-12.9,3.5-19.7,4.8c-0.5,0.1-3.5,0.5-3.8,0.7C1852.4,926.5,1853,926.1,1852.8,928.4L1852.8,928.4z
				 M1462,897.3c0.1,0.1,0.3,0.2,0.3,0.4c1.1,4.9,9.8-1.5,11.5-2.6v-5.2C1467.6,886.6,1462.6,890.3,1462,897.3L1462,897.3z
				 M1842.4,852.7c0,9.6,13.9,13.5,17.8,8.2c-3.6-0.8-5.2-0.7-9.7-0.7c-5.3-8-5.6-2-2.2-16.3c-2,0.2-1.8-1-4.2,3.2
				C1843.1,848.8,1842.5,850.7,1842.4,852.7L1842.4,852.7z M2486.5,913.5v5.2c5.9,3.1,11.1,1.2,11.1-4.5c0-1.8-1.2-2.2-2.2-3.7
				C2488.2,910.5,2490.6,910.7,2486.5,913.5L2486.5,913.5z M1945.6,679.7v6.7c0,2.8-0.2,0.3,0.7,2.2c6.3-4.3-3.5-9,9.7-18.6
				c1.9-1.4,3.8-2.6,4.4-5.2c-3.3,0.3-7.8,3.2-9.8,5C1948,672.2,1945.6,675.1,1945.6,679.7z M2053.2,353v4.5
				c1.2,0.8,2.4,1.6,3.7,2.2c4.6-2.5,6.7-1.8,6.7-8.2c-2.3-1.8-5.2-2.9-8.2-3C2053.9,350,2053.2,350.4,2053.2,353L2053.2,353z
				 M1417.5,729c0,1.9,0.5,0.8,0.7,3.7c6.4,1.5,9.7-1.5,9.7-5.2c0-4.1-1.9-3.8-4.4-5.2c-2,1-2.3,0.3-4,2
				C1418.4,725.7,1417.7,727.3,1417.5,729L1417.5,729z M2297.4,428c-1.5-5.7-17.4-11.9-24.5-11.9c0.4,4.8,3.3,3,11.4,6.4
				C2288.2,424.3,2292.8,427.9,2297.4,428L2297.4,428z M1915.9,621.8v2.2h2.2c0.4-4.8,6.1-14.1,10.6-18.4c2.4-2.3,4.1-2,5-5.4
				C1924.2,601.1,1915.9,617.2,1915.9,621.8z M1947.8,511.2c0,3.9-0.3,1,0.7,3c3.3-2.2,2.8-6.5,4.6-14c1.2-4.9,3.2-9.5,4.3-14.3
				c-2.9,1-4,4.9-5.2,7.4c-0.4,1-1.1,2-1.5,3C1949,501.1,1948,506.1,1947.8,511.2z M1837.9,845.3c1.4-2.9-1.4-11-2.4-14.7l-2.7-10.6
				c-0.6-2.8,0.7-2.1-2.3-2.9C1830.5,824.1,1833.6,842.1,1837.9,845.3L1837.9,845.3z M2157.1,745.8c-1.5-2.2-7.9-6.7-10.5-8.8
				c-4.7-3.7-6.8-8-9.5-9.8c-0.5,2.3-0.7,1.2-0.1,3C2139,735.7,2148.7,745.6,2157.1,745.8L2157.1,745.8z M1916.6,785.9
				c0,6.5-0.7,7.2,3,8.2c1.5-3.2,0.2-7.7,1.3-11.3c1.6-4.9,4.3-4.2,5.3-8C1922.5,771.6,1916.6,779.7,1916.6,785.9z M2019.7,688.7
				l16.1,6.2c2.3,1.2,3,1.9,6.2,2c-3.8-5.7-12.7-10.4-22.3-10.4L2019.7,688.7L2019.7,688.7z M2125.2,704.2c4.2-0.1,4.1-1.5,8.2-1.5
				c4.6,0,8.1,5.4,11.1,7.4c1.6-3.4-3.2-8.4-6.4-9.9C2133,697.8,2126.6,698.8,2125.2,704.2z M2050.1,795.4c1.7,2.5,1.1,1.4,3.7,3.2
				l2.7,2.5c0.2,0.2,1,1.2,1,1.2c4.3,6-2.6,7.8,1.5,7.8c4.9,0,4.6-14.1-7.4-16.9L2050.1,795.4z M2037.9,939.3c4.3,0,5.6-5.2,5.9-5.9
				c-0.7-1.3-1.4-2.5-2.2-3.7h-3C2032.4,929.6,2032.7,939.3,2037.9,939.3L2037.9,939.3z M1969.3,818.5c0,3,8.3,5.1,8.9,11.1
				c-1.2,4.4-1.7,0.2-0.7,4.5c2.3-0.6,2.7-1.5,3.3-4.2C1982.9,821.3,1969.3,813.6,1969.3,818.5L1969.3,818.5z M2117,543.8
				c0,8.2-0.6,7.9,3,8.2c0-12.5,4.2-26.1-0.6-21.5C2117.7,532.2,2117,541.4,2117,543.8L2117,543.8z M2239.5,454.7
				c0,3.6,12.7,12.2,17.8,5.2c-2.5-1.2-5.9-1.3-8.8-2.4C2246.7,456.9,2239.5,450.4,2239.5,454.7L2239.5,454.7z M2086.6,662.6
				c0,15.7,1,8.6,3,17.1h3c0.9-4-0.5-5-1.6-9.5c-1.5-6-0.9-7.9-3.6-9.8C2086.8,661.3,2086.6,661.2,2086.6,662.6L2086.6,662.6z
				 M2030.2,733.9c-0.2-2.9-1.1-3.7-2.5-5.7l-7.6-9.5c-1.6-2.2-2-3.4-4.8-4.2c0.2,2.8,1.1,3.9,2.4,5.8
				C2019.8,723.5,2026.6,733,2030.2,733.9L2030.2,733.9z M1942.6,813.3c-0.2-2.7-0.2-2.5-2.5-3.5c-11.5-4.7-3.8-6.7-10.1-8.4
				c-1.3,5.8,2.7,10.2,7,11.6C1938.7,813.8,1940.7,813.9,1942.6,813.3L1942.6,813.3z M1945.6,560.9v-1.5c-6.7,0-7.8-0.3-12.2,2.7
				c-1.9,1.3-8.3,5.4-7.4,7.6c0.9,2.3,2.4-0.7,8.3-4.5C1936.9,563.5,1941.9,561.2,1945.6,560.9L1945.6,560.9z M2023.5,790.3
				c-0.1-5.8-1.9-2.4-6.4-5.5c-1.8-1.2-4.1-5-4.7-7.2h-1.5C2010.2,785.9,2014.4,790.3,2023.5,790.3L2023.5,790.3z M2261.8,823.7
				c1.1-1.6,0.1-1,2.2-1.5l5.4-5.8c-3.9,0.1-4.7,1.9-9.6,4.6c-3.3,1.9-6.9,3.3-10.6,4.2v1.5C2256.1,828.3,2256.1,825.1,2261.8,823.7
				L2261.8,823.7z M1831.3,878.7c0,2.5,2.1,5.7,3.9,7.3c2.6,2.3,4.8,2.4,9.5,2.4c-1.7-2.3-4.6-3.1-6.8-5c-1-1-1.8-2.2-2.5-3.4
				c-1.7-2.8-0.2-2.6-3.3-3.4C1831.5,877.4,1831.3,877.2,1831.3,878.7L1831.3,878.7z M2102.9,749.5c3.2-0.8,3-3,3-8.2
				c0-4.2-1.5-8.5-5.9-8.9C2100.1,737.8,2102.9,735.8,2102.9,749.5z M1905.5,858.6c0,4.2,0.6,7.2,4.4,8.2c2.1-2.5-0.7-2.2-0.7-8.2
				c0-3.8,1.2-3.9,1.5-7.4C1906.7,851.5,1905.5,854.4,1905.5,858.6L1905.5,858.6z M2165.3,759.9c0,6.9-7.4,12-1.5,16.3
				c0.9-4.4-1-2.9,1-7.9c0,0,8.6-12.8-1-13.6C2164,758,2165.3,757.9,2165.3,759.9L2165.3,759.9z M1928.5,498.5
				c0,5.9-0.4,4.7,0.7,9.6h2.2c0-15.2,0.9-10.4,1.5-17.8C1929.7,491.2,1928.5,495.3,1928.5,498.5z M2102.9,806.7
				c0,4.5,3.9,9.7,11.1,9.7c-0.4-4.3-2.4-2.4-5.4-5.7c-2.1-2.3-2.4-4.4-5-6.2C2103.1,805.3,2102.9,805.2,2102.9,806.7z
				 M2304.1,422.8c-0.1-4.3-1.5-5-2.4-8.8c-0.9-3.6-1.4-5.6-4.3-7.6c0,4.5,0,6.4,1.3,9.9c0.5,1.4,1.1,2.8,1.8,4.1
				C2301.6,422.2,2301.8,422.3,2304.1,422.8L2304.1,422.8z M2039.1,587.6c3,2.5,12.6-4.1,16.3-11.1c-3,0.8-5.8,3.5-8.1,5.2
				c-1.3,1-2.7,1.8-4.2,2.5C2040.2,585.6,2039.8,584.9,2039.1,587.6z M1950.8,846.8c0,3.7,3.1,10.4,10.4,10.4c-1.1-4-3.6-2.9-6.5-9
				c-1.2-2.5-0.2-2.1-3.1-2.8C1951.5,845.3,1950.8,846.7,1950.8,846.8L1950.8,846.8z M2226.1,751.7c0,5-2.9,4.7-5.2,8.2
				c5.3,2.4,11.2-7.6,4.4-14.1c-2.8-2.6-2.3-2.1-4.4-2.3c0.8,2.8,1,1.9,2.8,3.9C2224.5,748.3,2226.1,750.5,2226.1,751.7z
				 M2042,834.1c-0.4-4.9-0.4,0-4.3-6.1c-3-4.7-2.4-5-5.3-5.8c-1.3,2.8,0.4,5.4,2.1,7.6C2036.5,832.4,2037.9,834,2042,834.1
				L2042,834.1z M1985.6,704.9c4.1-0.3,2.3-1.2,5.7-4.7c2.5-2.5,4.5-2.3,5.4-5.7c-2.8-0.2-5.6,0.8-7.6,2.8c-0.9,0.8-1.7,1.8-2.3,3
				C1985.8,702.2,1985.7,702.2,1985.6,704.9L1985.6,704.9z M2083.6,755.4c0,5.5,1.4,11.8,5.9,14.8c0.9-1.8-2.9-10.3-4.4-17.1
				C2083.8,754.1,2083.6,753.3,2083.6,755.4L2083.6,755.4z M2024.2,781.4c2.5,3.7,1.8,0.3,6.8,8c1.1,1.8,0.6,1.8,2.8,2.3
				C2033.9,781.4,2025.8,779.5,2024.2,781.4L2024.2,781.4z M1953,756.9c4.6,1.1,7.1,5.1,8.2,9.7h1.5c0-4-0.6-6-2.2-8.2
				c-1.7-2.2-4.1-3.7-6.7-4.4C1953.2,754.8,1952.9,755.9,1953,756.9L1953,756.9z M1953,814.8c0-6.5-3.1-10.4-9.7-10.4
				c0.6,2.3,0.1,1.1,1.9,2.6C1951.2,811.6,1948,813.5,1953,814.8L1953,814.8z M2030.2,627c0,3.1,2.8,2.9,4.9,2
				c2.9-1.2,3.9-2.1,4-5.7C2036.1,623.3,2030.2,624.9,2030.2,627L2030.2,627z M2200.1,670.1c0.6,6.7,10.7,2.2,11.9-2.2L2200.1,670.1
				z M1939.6,868.3c2,0,2.2-1.1,3-2.2l-9.7-4.5C1929.3,861.6,1934.3,868.3,1939.6,868.3z M2013.1,839.3c0,2.1,8.4,10.3,10.4,3
				C2015.7,840.5,2013.1,835.7,2013.1,839.3L2013.1,839.3z M2033.1,434c0,2.2,2,5.1,7.4,2.2C2040.6,428.5,2033.1,432.6,2033.1,434
				L2033.1,434z M2167.5,737.6c2.8,0.7,3.2,2,4.6,4.3c1.5,2.4,1.4,3.8,3.6,5.4c2.3-2.8-2.4-11-8.2-11.1L2167.5,737.6L2167.5,737.6z
				 M1919.6,759.9c3.7-1,1.8-1.5,3.9-3.5c2.5-2.5,3.3-0.1,4.3-3.9C1925.4,750.5,1919.7,753.4,1919.6,759.9L1919.6,759.9z
				 M2081.4,716.8v2.2c3.1-0.3,1.7-0.7,4.4-0.7c3.3,0,5,2.8,6.2,1.6C2094.4,717.5,2087.1,714.6,2081.4,716.8L2081.4,716.8z
				 M1860.9,834.9c-2.5,0-4.1,0-5.9,0.8c-1,0.5-4,2.3-2.5,3.8C1853.3,840.2,1859.9,838.7,1860.9,834.9z M1938.1,758.4
				c2,0,2.2-1.1,3-2.2c-2.5-1.2-2.1-0.2-4.3-0.9c-2.4-0.7-1.8-2.5-3.7-1.8C1930.1,754.7,1935.1,758.4,1938.1,758.4L1938.1,758.4z
				 M2041.3,698.3c0.4,0.7,0.7,1.4,0.7,2.2c2.5-2.6,2.8-1.3,3.7-3.7C2044.2,697.1,2042.7,697.6,2041.3,698.3L2041.3,698.3z
				 M2010.9,745h0.7v-2.2h-0.7V745z M1935.2,709.4v-0.7l-0.9,0.6L1935.2,709.4z M1921.1,436.9h0.7l-0.6-0.9L1921.1,436.9z
				 M1506.1,413l0.2-0.2C1506.3,412.8,1506,412.9,1506.1,413z M1919.6,439.9l0.7-1.5L1919.6,439.9z M1920.3,438.4l0.7-1.5
				L1920.3,438.4z M2290.3,762.2l31.5-54.9l23.5,13.5l-26.6,46.5c-2.4,2.3-4.7,4.6-7.4,6.9l-0.2-0.1L2290.3,762.2z M2313,757
				c0.2,0,0.4,0.1,0.6,0.1s0.4,0,0.6,0c0.3,0.1,0.5,0.1,0.8,0.1c0.3,0,0.6,0,0.9-0.1l0.8-0.1c0.3,0,0.5,0,0.8,0c0-0.1,0-0.1,0.1-0.1
				c0.1,0,0.1,0,0.2-0.1l0.2-0.1c0.1,0,0.1-0.1,0.2-0.1c0.1,0.1,0.1,0.3,0,0.4c-0.1,0.1-0.1,0.2-0.1,0.4c0,0.1,0,0.2,0,0.2
				c0,0.1,0,0.2,0,0.2c0,0.1-0.1,0.3-0.1,0.4c-0.1,0.1-0.1,0.3-0.1,0.4c0,0,0,0-0.1,0.1s0,0.1,0,0c0,0.1,0,0.1,0,0.2
				c0,0,0,0.1,0,0.2c-0.1,0.1-0.1,0.2-0.2,0.2c-0.1,0-0.2,0.1-0.3,0.1c-0.1,0-0.3,0.1-0.4,0.1s-0.3,0.1-0.4,0.2
				c-0.1,0.1-0.2,0.2-0.3,0.3c-0.1,0.1-0.1,0.2-0.2,0.2c-0.1,0-0.1,0.1-0.2,0.1c-0.1,0-0.1,0-0.2,0.1c0,0.1-0.1,0.2-0.3,0.3
				c-0.1,0-0.2,0.1-0.2,0.3c-0.1,0-0.1-0.1-0.1,0s0,0,0,0.1c0,0,0,0,0,0.1c0,0,0,0-0.1-0.1c-0.1,0.1-0.1,0.1,0,0.2s0,0.1,0,0.2
				c-0.5,0.5-0.9,0.9-1.4,1.4c-0.5,0.5-0.9,1-1.2,1.6c0.2,0.1,0.4,0.3,0.6,0.4c0.2,0.1,0.3,0.2,0.5,0.3c0,0.2-0.1,0.5-0.1,0.7
				s-0.1,0.4-0.2,0.6s-0.2,0.4-0.2,0.6c-0.1,0.2-0.1,0.4-0.1,0.7c-0.1,0.2-0.3,0.3-0.4,0.4c-0.2,0.1-0.4,0.1-0.6,0
				c-0.2,0-0.4-0.1-0.6-0.2c-0.2-0.1-0.4-0.2-0.6-0.4c-0.3,0.5-0.5,1-0.7,1.6c-0.2,0.5-0.5,1.1-0.8,1.6c-0.1,0-0.3,0-0.5,0
				c-0.2,0-0.3,0-0.5-0.1c-0.1-0.1-0.1-0.2,0-0.3c0-0.1,0.1-0.2,0.1-0.3c0.2-0.5,0.4-1,0.6-1.4s0.5-1,0.8-1.7
				c-0.3-0.3-0.6-0.6-0.9-0.9c-0.3-0.3-0.6-0.7-0.9-1c-0.8-0.9-1.6-1.9-2.4-2.8s-1.5-1.9-2.1-2.9c-0.1-0.1-0.1-0.2-0.2-0.3l-0.2-0.3
				c-0.1-0.1-0.1-0.2-0.2-0.3c0-0.1-0.1-0.1-0.1-0.2c0-0.3,0.1-0.5,0.3-0.7c0.2-0.2,0.3-0.5,0.5-0.7c-0.6-0.4-1.2-0.9-1.9-1.3
				s-1.3-0.8-1.9-1.3c0-0.1-0.1-0.2-0.1-0.3c-0.1-0.1-0.1-0.3-0.1-0.4c0.1-0.2,0.2-0.4,0.4-0.7c0.1-0.3,0.3-0.5,0.4-0.8
				c0.1-0.3,0.3-0.5,0.5-0.7c0.2-0.2,0.4-0.4,0.6-0.6c0.5,0.5,1.1,1,1.7,1.4c0.7,0.5,1.4,0.9,2.1,1.3s1.5,0.8,2.3,1.2
				c0.8,0.4,1.5,0.7,2.3,1c0.3,0.1,0.5,0.2,0.7,0.3c0.2,0.1,0.4,0.2,0.7,0.3c0.3,0.1,0.5,0.1,0.6,0.2s0.4,0.2,0.6,0.3
				c0.2,0.1,0.4,0.1,0.6,0.1c0.2,0,0.4,0,0.5,0c0.1,0.1,0.1,0.1,0,0.1S2313,757,2313,757L2313,757z M2310.3,763
				c0.1,0.2,0.3,0.3,0.4,0.4c0.1,0.1,0.3,0.2,0.4,0.3c0.4-0.7,0.9-1.4,1.4-2.1c0.5-0.6,1-1.2,1.4-1.7c-1.1,0.2-2.2,0.1-3.3-0.1
				c-1.2-0.2-2.4-0.6-3.6-1c0.3,0.4,0.5,0.7,0.7,1c0.2,0.3,0.5,0.7,0.7,1s0.5,0.7,0.8,1C2309.6,762.2,2310,762.6,2310.3,763z
				 M2311,753.1c-0.2-0.1-0.4-0.2-0.6-0.1c-0.2,0-0.4,0-0.6,0c0,0,0.1-0.1,0.1-0.1c0,0,0.1,0,0.1,0c-0.1-0.1-0.1-0.1-0.2-0.1
				c-0.1,0-0.2,0-0.3,0c-0.1,0-0.2,0-0.3,0s-0.2-0.1-0.2-0.1c-0.1,0-0.2,0-0.3,0c-0.1,0-0.2-0.1-0.3-0.2c-0.1-0.1-0.2-0.2-0.3-0.2
				c-0.1-0.1-0.1-0.2-0.2-0.2c0,0,0.1,0,0-0.1s0,0,0-0.1c-0.1-0.2-0.2-0.5-0.3-0.8c-0.1-0.3-0.2-0.6-0.3-0.9s-0.2-0.6-0.3-0.9
				s-0.1-0.5-0.2-0.7c0-0.1,0-0.1,0-0.1s-0.1,0-0.1-0.1c0-0.1,0-0.1,0.1-0.2c0,0,0.1-0.1,0-0.2c-0.1,0-0.2-0.1-0.3-0.1
				c-0.2-0.2-0.4-0.3-0.6-0.4s-0.4-0.3-0.5-0.5c0,0,0-0.1,0-0.2c0,0,0-0.1-0.1-0.1c0,0,0-0.1,0-0.1c0-0.1,0.1-0.1,0.1-0.2
				c0-0.1,0-0.2,0-0.3s0-0.2,0.1-0.2c0,0,0-0.1,0-0.1c0,0,0-0.1-0.1-0.1c0.1-0.1,0.2-0.3,0.2-0.4s0.1-0.3,0.1-0.5s0.1-0.3,0.1-0.5
				c0.1-0.2,0.1-0.3,0.3-0.5c0.1,0,0.1,0,0.1,0s0.1,0,0.1,0c0.1-0.1,0.2-0.2,0.3-0.1c0.1,0,0.3,0.1,0.4,0.1c0,0,0.1,0.1,0.1,0.1
				s0.1,0,0.1,0l0,0.2c0.3,0.2,0.6,0.3,0.8,0.5c0.3,0.2,0.7,0.3,1,0.4c0.4,0.1,0.7,0.2,1.1,0.3c0.3,0.1,0.6,0.1,1,0.1
				c0.3,0,0.6,0,0.9,0c0.5,0,1-0.2,1.5-0.4c0.3-0.1,0.6-0.3,0.8-0.5c0,0,0.1,0,0.1,0c0,0,0.1,0,0.1,0c0,0,0.1,0,0.1,0
				c0,0,0-0.1,0.1-0.1c0,0,0.1,0.1,0.1,0s0.1,0,0.1,0.1c0,0.1-0.1,0.1-0.1,0.2c0.1,0.1,0.1,0.1,0.2,0.2c0.1,0.1,0.1,0.2,0.1,0.3
				c-0.1,0.2-0.1,0.3,0,0.4c-0.1,0.1-0.1,0.2,0,0.3c0,0-0.1,0-0.1,0c0,0-0.1,0-0.1,0c0.1,0.1,0.1,0.2,0.1,0.3c0,0.1,0,0.2,0.1,0.2
				c0,0,0,0.1,0,0.1c0,0-0.1,0.1-0.1,0.1c0.1,0.1,0.1,0.2,0.1,0.2c0,0.1,0,0.2,0,0.2c0,0,0,0.1-0.1,0s-0.1,0-0.1,0
				c0,0.1,0,0.3,0.1,0.4c-0.1,0.1-0.1,0.1-0.1,0.2c0,0.1,0,0.2,0,0.2c0,0,0,0.1-0.1,0.1s-0.1,0.1-0.1,0.1c-0.2,0-0.4,0.1-0.5,0.2
				c-0.1,0.1-0.3,0.2-0.5,0.2c-0.7,0.2-1.4,0.4-2.1,0.5c-0.7,0-1.3,0-1.9-0.2c0.1,0.1,0.2,0.2,0.2,0.3c0.1,0.1,0.1,0.3,0.2,0.4
				c0.1,0.1,0.1,0.2,0.2,0.3c0.1,0.1,0.2,0.1,0.3,0.1c0.6,0.1,1.1,0.1,1.7,0.1c0.6,0,1.1-0.1,1.7-0.3c0.7-0.2,1.4-0.5,2-0.9
				c0.7-0.4,1.6-0.9,2.6-1.6c0.1-0.1,0.2-0.3,0.4-0.3c0.1-0.1,0.3-0.2,0.4-0.3c0.1,0,0.1,0,0.2-0.1c0.2,0,0.4,0.1,0.6,0.2
				c0.2,0.1,0.4,0.3,0.5,0.4c0.1,0.1,0.2,0.3,0.4,0.5s0.3,0.4,0.5,0.6c0.2,0.2,0.3,0.4,0.4,0.5c0.1,0.1,0.1,0.2,0.2,0.3
				c0,0.1,0,0.2,0,0.2c0,0.1,0.1,0.1,0.1,0.2c0,0.1,0,0.2,0,0.3c0,0.1,0,0.2,0,0.3c-0.1,0-0.1,0.1-0.1,0.1c0,0.2,0,0.3,0,0.4
				c0,0.1,0,0.3,0,0.4c-0.1,0.2-0.1,0.5-0.1,0.7c-0.2,0.2-0.2,0.5-0.1,0.7c-0.1,0.1-0.1,0.1-0.1,0.1c-0.1,0.7-0.4,1.3-0.8,1.9
				c-0.4,0.5-0.8,1-1.4,1.4c-0.5,0.2-0.9,0.5-1.4,0.7s-1,0.3-1.5,0.4c-0.6,0-1.1,0-1.6-0.1c-0.6-0.1-1.2-0.4-1.8-0.7
				c-0.1,0-0.1-0.1-0.1-0.1c0,0-0.1-0.1-0.1-0.1l-0.1-0.3c0.1,0.1,0.2,0.1,0.3,0.2c0.1,0,0.2,0.1,0.3,0.2c-0.1-0.1-0.2-0.3-0.3-0.4
				c-0.1-0.1-0.3-0.2-0.3-0.4c0,0,0-0.1,0-0.1c0,0,0,0,0.1,0c-0.1-0.1-0.1-0.1-0.1-0.2s0-0.1,0-0.1c0-0.1,0-0.2-0.1-0.2
				c-0.1,0-0.1-0.1-0.1-0.2c0.1,0,0.1,0.1,0.1,0.1c0,0.1,0.1,0.1,0.1,0.2c0.1,0,0.1,0,0.1-0.1s0-0.1,0.1-0.1c0,0,0.1,0,0.1,0.1
				c0,0,0.1,0.1,0.1,0.1c0,0,0-0.1-0.1-0.1c-0.1,0-0.1,0,0-0.1c0.1,0.1,0.1,0.1,0.1,0.1s0,0,0.1-0.1c0.1,0,0.2,0.1,0.3,0.2
				c0.1,0.1,0.2,0.1,0.3,0.1c0-0.1,0-0.1-0.1-0.1c0,0,0,0,0,0c-0.1,0-0.1,0-0.2-0.1c0.2,0.1,0.4,0.1,0.6,0.2
				c0.2,0.1,0.4,0.2,0.6,0.2c0,0,0,0,0-0.1s0-0.1,0-0.1c0.1,0,0.2,0,0.3,0c0.1,0,0.2,0,0.3,0c0-0.1-0.1-0.1-0.1-0.1
				c-0.1,0-0.1-0.1-0.1-0.1c0.1,0,0.3-0.1,0.4,0s0.3,0,0.4,0c0,0,0,0,0-0.1s0,0,0-0.1c0.1-0.1,0.3-0.1,0.5-0.1s0.3,0,0.5-0.1
				c0,0,0,0-0.1,0s-0.1,0-0.1,0c0.1-0.1,0.2-0.1,0.3-0.1s0.2,0,0.3-0.1c0,0,0,0,0,0s0,0,0,0c0.1,0,0.1-0.1,0.2-0.1
				c0.1,0,0.1-0.1,0.1-0.2c0.3-0.1,0.6-0.2,0.8-0.3c0.2-0.1,0.5-0.2,0.7-0.3c0.2-0.1,0.4-0.3,0.6-0.5c0.3-0.3,0.5-0.5,0.7-0.8
				c-0.1-0.2-0.1-0.3-0.2-0.5c-0.1-0.2-0.2-0.3-0.4-0.5c-0.1-0.2-0.3-0.3-0.4-0.4c-0.1-0.1-0.2-0.2-0.3-0.3
				c-0.2,0.2-0.3,0.3-0.5,0.5c-0.1,0.1-0.3,0.3-0.6,0.4c-0.5,0.4-1,0.7-1.6,1.1c-0.5,0.3-1,0.5-1.6,0.7c-0.5,0.2-1.1,0.3-1.7,0.4
				c-0.6,0.1-1.2,0.1-1.9,0l-0.9-0.2c0.1,0,0.1-0.1,0.2-0.1S2310.9,753,2311,753.1L2311,753.1z M2316.6,743.3
				c-0.2-0.1-0.4-0.2-0.6-0.1c-0.2,0-0.4,0-0.6,0c0,0,0.1-0.1,0.1-0.1c0,0,0.1,0,0.1,0c-0.1-0.1-0.1-0.1-0.2-0.1c-0.1,0-0.2,0-0.3,0
				c-0.1,0-0.2,0-0.3,0s-0.2-0.1-0.2-0.1c-0.1,0-0.2,0-0.3,0c-0.1,0-0.2-0.1-0.3-0.2c-0.1-0.1-0.2-0.2-0.3-0.2
				c-0.1-0.1-0.1-0.2-0.2-0.2c0,0,0.1,0,0-0.1c0,0,0,0,0-0.1c-0.1-0.2-0.2-0.5-0.3-0.8c-0.1-0.3-0.2-0.6-0.3-0.9s-0.2-0.6-0.3-0.9
				s-0.1-0.5-0.2-0.7c0-0.1,0-0.1,0-0.1c-0.1,0-0.1,0-0.1-0.1c0-0.1,0-0.1,0.1-0.2c0,0,0.1-0.1,0-0.2c-0.1,0-0.2-0.1-0.3-0.1
				c-0.2-0.2-0.4-0.3-0.6-0.4s-0.4-0.3-0.5-0.5c0,0,0-0.1,0-0.2c0,0,0-0.1-0.1-0.1c0,0,0-0.1,0-0.1c0-0.1,0.1-0.1,0.1-0.2
				c0-0.1,0-0.2,0-0.3s0-0.2,0.1-0.2c0,0,0-0.1,0-0.1c0,0,0-0.1-0.1-0.1c0.1-0.1,0.2-0.3,0.2-0.4s0.1-0.3,0.1-0.5s0.1-0.3,0.1-0.5
				c0.1-0.2,0.1-0.3,0.3-0.5c0.1,0,0.1,0,0.1,0s0.1,0,0.1,0c0.1-0.1,0.2-0.2,0.3-0.1c0.1,0,0.3,0.1,0.4,0.1c0,0,0.1,0.1,0.1,0.1
				c0.1,0,0.1,0,0.1,0l0,0.2c0.3,0.2,0.5,0.3,0.8,0.5c0.3,0.2,0.7,0.3,1,0.4c0.4,0.1,0.7,0.2,1.1,0.3c0.3,0.1,0.6,0.1,1,0.1
				c0.3,0,0.6,0,0.9,0c0.5,0,1-0.2,1.5-0.4c0.3-0.1,0.6-0.3,0.8-0.5c0,0,0.1,0,0.1,0c0,0,0.1,0,0.1,0c0,0,0.1,0,0.1,0
				c0,0,0-0.1,0.1-0.1c0,0,0.1,0.1,0.1,0s0.1,0,0.1,0.1c0,0.1-0.1,0.1-0.1,0.2c0.1,0.1,0.1,0.1,0.2,0.2c0.1,0.1,0.1,0.2,0.1,0.3
				c-0.1,0.2-0.1,0.3,0,0.4c-0.1,0.1-0.1,0.2,0,0.3c0,0-0.1,0-0.1,0c0,0-0.1,0-0.1,0c0.1,0.1,0.1,0.2,0.1,0.3c0,0.1,0,0.2,0.1,0.2
				c0,0,0,0.1,0,0.1c0,0-0.1,0.1-0.1,0.1c0.1,0.1,0.1,0.2,0.1,0.2c0,0.1,0,0.2,0,0.2c0,0,0,0.1-0.1,0s-0.1,0-0.1,0
				c0,0.1,0,0.3,0.1,0.4c-0.1,0.1-0.1,0.1-0.1,0.2c0,0.1,0,0.2,0,0.2c0,0,0,0.1-0.1,0.1s-0.1,0.1-0.1,0.1c-0.2,0-0.4,0.1-0.5,0.2
				c-0.1,0.1-0.3,0.2-0.5,0.2c-0.7,0.2-1.4,0.4-2.1,0.5c-0.7,0-1.3,0-1.9-0.2c0.1,0.1,0.2,0.2,0.2,0.3c0.1,0.1,0.1,0.3,0.2,0.4
				c0.1,0.1,0.1,0.2,0.2,0.3c0.1,0.1,0.2,0.1,0.3,0.1c0.6,0.1,1.1,0.1,1.7,0.1c0.6,0,1.1-0.1,1.7-0.3c0.7-0.2,1.4-0.5,2-0.9
				c0.7-0.4,1.6-0.9,2.6-1.6c0.1-0.1,0.2-0.3,0.4-0.3c0.1-0.1,0.3-0.2,0.4-0.3c0.1,0,0.1,0,0.2-0.1c0.2,0,0.4,0.1,0.6,0.2
				c0.2,0.1,0.4,0.3,0.5,0.4c0.1,0.1,0.2,0.3,0.4,0.5s0.3,0.4,0.5,0.6c0.2,0.2,0.3,0.4,0.4,0.5c0.1,0.1,0.1,0.2,0.2,0.3
				c0,0.1,0,0.2,0,0.2c0,0.1,0.1,0.1,0.1,0.2c0,0.1,0,0.2,0,0.3c0,0.1,0,0.2,0,0.3c-0.1,0-0.1,0.1-0.1,0.1c0,0.2,0,0.3,0,0.4
				c0,0.1,0,0.3,0,0.4c-0.1,0.2-0.1,0.5-0.1,0.7c-0.1,0.1-0.1,0.2-0.2,0.3c0,0.1,0,0.3,0,0.4c-0.1,0.1-0.1,0.1-0.1,0.1
				c-0.1,0.7-0.4,1.3-0.8,1.9c-0.4,0.5-0.8,1-1.4,1.4c-0.5,0.2-0.9,0.5-1.4,0.7s-1,0.3-1.5,0.4c-0.6,0-1.1,0-1.6-0.1
				c-0.6-0.1-1.2-0.4-1.8-0.7c-0.1,0-0.1-0.1-0.1-0.1c0,0-0.1-0.1-0.1-0.1l-0.1-0.3c0.1,0.1,0.2,0.1,0.3,0.2c0.1,0,0.2,0.1,0.3,0.2
				c-0.1-0.1-0.2-0.3-0.3-0.4c-0.1-0.1-0.3-0.2-0.3-0.4c0,0,0-0.1,0-0.1c0,0,0,0,0.1,0c-0.1-0.1-0.1-0.1-0.1-0.2s0-0.1,0-0.1
				c0-0.1,0-0.2-0.1-0.2c-0.1,0-0.1-0.1-0.1-0.2c0.1,0,0.1,0.1,0.1,0.1c0,0.1,0.1,0.1,0.1,0.2c0.1,0,0.1,0,0.1-0.1s0-0.1,0.1-0.1
				c0,0,0.1,0,0.1,0.1c0,0,0.1,0.1,0.1,0.1c0,0,0-0.1-0.1-0.1s-0.1,0,0-0.1c0.1,0.1,0.1,0.1,0.1,0.1s0,0,0.1-0.1
				c0.1,0,0.2,0.1,0.3,0.2c0.1,0.1,0.2,0.1,0.3,0.1c0-0.1,0-0.1-0.1-0.1c0,0,0,0,0,0c-0.1,0-0.1,0-0.2-0.1c0.2,0.1,0.4,0.1,0.6,0.2
				c0.2,0.1,0.4,0.2,0.6,0.2c0,0,0,0,0-0.1s0-0.1,0-0.1c0.1,0,0.2,0,0.3,0c0.1,0,0.2,0,0.3,0c0-0.1-0.1-0.1-0.1-0.1
				c-0.1,0-0.1-0.1-0.1-0.1c0.1,0,0.3-0.1,0.4,0s0.3,0,0.4,0c0,0,0,0,0-0.1s0,0,0-0.1c0.1-0.1,0.3-0.1,0.5-0.1s0.3,0,0.5-0.1
				c0,0,0,0-0.1,0s-0.1,0-0.1,0c0.1-0.1,0.2-0.1,0.3-0.1s0.2,0,0.3-0.1c0,0,0,0,0,0s0,0,0,0c0.1,0,0.1-0.1,0.2-0.1
				c0.1,0,0.1-0.1,0.1-0.2c0.3-0.1,0.6-0.2,0.8-0.3c0.2-0.1,0.5-0.2,0.7-0.3c0.2-0.1,0.4-0.3,0.6-0.5c0.3-0.3,0.5-0.5,0.7-0.8
				c-0.1-0.2-0.1-0.3-0.2-0.5c-0.1-0.2-0.2-0.3-0.4-0.5c-0.1-0.2-0.3-0.3-0.4-0.4c-0.1-0.1-0.2-0.2-0.3-0.3
				c-0.2,0.2-0.3,0.3-0.5,0.5c-0.1,0.1-0.3,0.3-0.6,0.4c-0.5,0.4-1,0.7-1.6,1.1c-0.5,0.3-1,0.5-1.6,0.7c-0.5,0.2-1.1,0.3-1.7,0.4
				c-0.6,0.1-1.2,0.1-1.9,0l-0.9-0.2c0.1,0,0.1-0.1,0.2-0.1S2316.5,743.3,2316.6,743.3L2316.6,743.3z M2330.4,736.3c0,0,0.1,0,0.1,0
				c0,0,0.1,0,0.1,0.1s0,0.1-0.1,0.1c0,0.1,0,0.1,0,0.2c0,0.1,0,0.2,0.1,0.2c0,0-0.1,0.1-0.1,0.1s-0.1,0-0.1,0.1c0,0,0,0.1,0,0.1
				c0,0-0.1,0.1-0.1,0.1c0,0,0,0.1,0,0.1c0,0,0,0.1,0.1,0.1c0,0-0.1,0-0.1,0c0,0.1,0,0.2-0.1,0.3c-0.1,0-0.1,0-0.2,0
				s-0.1,0.1-0.2,0.1c0,0,0,0,0.1,0s0,0,0.1,0c-0.1,0-0.1,0-0.2,0c-0.1,0-0.1,0-0.2,0c-0.7-0.3-1.5-0.7-2.3-1.1
				c-0.8-0.4-1.6-0.8-2.3-1.3c-0.8-0.4-1.5-0.9-2.2-1.3s-1.4-0.9-2-1.3c-0.4-0.3-0.8-0.5-1.2-0.8s-0.7-0.5-1-0.8
				c0.1,0,0.2,0,0.3,0.1c0.1,0.1,0.2,0.1,0.2,0.1c-0.1-0.1-0.1-0.1-0.2-0.1c-0.1,0-0.1-0.1-0.2-0.1c0-0.1,0-0.1,0.1-0.2
				c0.1-0.1,0.1-0.1,0.1-0.2l0.2,0c0,0,0-0.1,0-0.1c0,0-0.1-0.1-0.1-0.1c0,0,0,0,0.1,0s0,0,0,0c-0.1-0.1-0.1-0.2-0.1-0.4
				c0-0.1,0.1-0.3,0.2-0.3c0,0,0-0.1,0-0.1s0,0,0-0.1c0.1-0.1,0.2-0.2,0.2-0.3c0-0.1,0.1-0.2,0.2-0.3c0-0.2,0.1-0.4,0.2-0.5
				c0.1-0.2,0.2-0.3,0.4-0.4c0.1,0,0.1,0,0.2,0c0.1,0,0.1,0,0.1,0c0,0,0.1,0,0.1,0c0,0,0,0,0.1,0.1c0.1,0,0.2,0,0.3,0
				c0.1,0,0.1,0.1,0.2,0.2c0.1,0.1,0.1,0.2,0.2,0.3c0.1,0.1,0.1,0.2,0.2,0.2c0,0.1,0,0.1,0,0.2c0,0,0.1,0,0.1,0s0.1,0,0.1,0
				c0.2,0.2,0.4,0.3,0.5,0.5c0.2,0.2,0.5,0.4,0.8,0.5s0.5,0.3,0.8,0.5c0.3,0.2,0.4,0.3,0.6,0.3c0.8,0.5,1.7,1,2.6,1.5s1.7,1,2.6,1.4
				c0.1,0,0.1,0,0.2,0c0.1,0.1,0.2,0.2,0.3,0.2c0.1,0,0.3,0.1,0.4,0.2c0.1,0,0.1,0,0.1,0s0,0,0,0c0.1,0,0.3,0.1,0.4,0.2
				c0.1,0.1,0.2,0.2,0.3,0.3c0,0-0.1,0.1-0.1,0.1c0,0-0.1,0-0.1,0c0.1,0.1,0.1,0.2,0,0.2c-0.1,0.1-0.1,0.1-0.2,0.2
				c0,0.1,0,0.1,0,0.2s0,0.2-0.1,0.2c0,0-0.1,0.1-0.1,0s-0.1,0-0.1,0c0,0,0.1,0.1,0.1,0s0.1,0,0.1,0c-0.1,0-0.1,0.1-0.1,0.2
				C2330.5,736.2,2330.5,736.3,2330.4,736.3L2330.4,736.3z M2321,722.9c0.3,0.2,0.6,0.3,0.9,0.5c0.3,0.2,0.6,0.4,0.8,0.5
				c0.3,0.1,0.6,0.2,1,0.3s0.7,0.2,1,0.3c0.3,0.1,0.7,0.2,1,0.3c0.3,0.1,0.6,0.1,0.9,0.1c-0.1-0.5-0.2-1-0.4-1.5
				c-0.2-0.5-0.3-1-0.3-1.5c-0.1-0.2-0.1-0.5-0.1-0.7c0-0.3,0.1-0.5,0.2-0.8c0-0.2,0-0.4,0.1-0.7c0.1-0.2,0.2-0.4,0.2-0.7
				c0,0,0,0,0.1,0s0,0,0-0.1c0-0.1,0.1-0.2,0.1-0.4s0.1-0.3,0.1-0.4c0,0,0-0.1,0.1-0.1s0,0,0.1,0c0-0.1,0-0.2,0-0.2
				c0-0.1,0-0.2,0.1-0.3c0,0,0.1,0,0.1,0c0,0,0,0.1,0.1,0.1c0,0,0,0,0.1,0s0-0.1,0.1-0.1c0,0,0.1,0.1,0.1,0.1l0.1,0.1
				c0,0,0,0.1-0.1,0.2c0,0-0.1,0.1-0.1,0.2c0,0,0,0.1,0.1,0.1s0.1,0,0.1,0.1c0,0.6,0,1.2,0.1,1.8c0.1,0.6,0.3,1.2,0.5,1.8
				c0.2,0.6,0.4,1.1,0.7,1.7s0.5,1.1,0.8,1.7c1.2,0.2,2.5,0.2,3.8,0.2c1.2,0,2.4-0.1,3.7-0.2c0,0,0.1,0.1,0.1,0.1s0.1,0,0.1,0
				c0,0.2,0.1,0.3,0,0.5s0,0.3,0.1,0.5c-0.1,0.2-0.1,0.3-0.1,0.5c0,0.2,0,0.3,0,0.5l-0.1,0.2c0.1,0.3,0,0.5-0.1,0.7c0,0,0,0.1,0,0.1
				s0.1,0,0.1,0c0,0.1,0,0.1-0.1,0.2s-0.1,0.1-0.1,0.1c-0.1,0-0.2,0.1-0.3,0.1c-0.1,0-0.2,0.1-0.3,0.2c-0.8,0-1.6,0.1-2.4,0.1
				s-1.6,0-2.5,0c0.1,0.2,0.2,0.3,0.3,0.5s0.2,0.3,0.3,0.5c0.1,0.2,0.2,0.3,0.3,0.5c0.1,0.2,0.3,0.3,0.5,0.4c0,0.1,0,0.1,0,0.2
				c0,0.1,0,0.1-0.1,0.2c0,0,0.1,0.1,0.1,0.1s0.1,0,0.1,0.1c0,0.1-0.1,0.3-0.1,0.4c0,0.1,0,0.2,0.1,0.3c-0.1,0.1-0.1,0.3-0.1,0.5
				c0.1,0.1,0.1,0.3,0,0.5c-0.1,0-0.1,0.1-0.1,0.2c0,0.1,0,0.1,0,0.2s0,0.1,0,0.2c0,0.1,0,0.2-0.1,0.2c0,0,0.1,0.1,0.1,0.1
				s0.1,0,0.1,0.1c-0.1,0.1-0.2,0.2-0.4,0.2c-0.1,0.1-0.2,0.2-0.3,0.2c-0.1,0-0.3,0-0.4,0c-0.2-0.1-0.3-0.2-0.4-0.4
				c-0.1-0.2-0.2-0.4-0.3-0.6c-0.2-0.3-0.4-0.7-0.6-1c-0.2-0.3-0.4-0.7-0.6-1.1c0,0,0-0.1,0-0.1c0,0,0-0.1,0-0.1c0,0,0-0.1-0.1-0.1
				c0,0,0,0-0.1,0c-0.1-0.1-0.1-0.1-0.1-0.2c0-0.1,0-0.1-0.1-0.2c0,0,0-0.1,0-0.1c0,0,0-0.1,0-0.1s0,0,0,0s0,0,0,0.1
				c-0.1,0-0.1-0.1-0.2-0.2c0-0.1,0-0.2,0-0.3c0,0-0.1,0-0.1,0c0,0-0.1,0-0.1,0c-0.1-0.2-0.2-0.4-0.3-0.6c-0.1-0.2-0.2-0.4-0.2-0.6
				c-0.3-0.1-0.6-0.2-0.8-0.2c-0.3,0-0.6-0.1-0.9-0.1c-0.1,0-0.2-0.1-0.4-0.1c-0.1-0.1-0.2-0.1-0.4,0c-0.3-0.1-0.6-0.2-1-0.2
				c-0.3-0.1-0.5-0.1-0.8-0.2c-0.2-0.1-0.5-0.1-0.7-0.2c-0.3-0.1-0.5-0.2-0.8-0.3c-0.3-0.1-0.6-0.2-0.9-0.3
				c-0.3-0.1-0.6-0.3-0.9-0.4c-0.3-0.2-0.5-0.3-0.7-0.6c0-0.1,0-0.1,0-0.2c0,0,0-0.1,0-0.2c-0.1-0.1-0.1-0.2-0.1-0.3
				c0-0.1,0-0.3-0.1-0.3c0.1-0.2,0.1-0.3,0.2-0.5c0.1-0.2,0.1-0.4,0.1-0.6c0-0.2,0-0.4,0.1-0.7c0-0.3,0.1-0.5,0.2-0.7
				c0.1,0,0.1,0,0.1,0C2320.8,722.9,2320.9,722.9,2321,722.9L2321,722.9z M2332.1,716.4C2332.2,716.4,2332.2,716.3,2332.1,716.4
				c0-0.2,0-0.2,0-0.2C2332.2,716.2,2332.2,716.2,2332.1,716.4l0.2,0c0,0,0.1,0,0.1,0.1s0,0,0,0.1c0,0-0.1,0-0.1-0.1
				c0,0-0.1,0-0.1,0c0,0.1,0,0.1,0.1,0.1c0.1,0,0.2,0.1,0.2,0.2l0.3,0.2c0.1,0,0.1,0.1,0.2,0.1c0,0,0.1,0.1,0.1,0.2
				c0.6,0.5,1.2,0.9,1.8,1.3c0.6,0.3,1,0.6,1.5,0.8c0,0,0,0,0,0.1c0,0,0,0.1,0.1,0.1c0,0,0,0.1,0,0.1s0,0.1-0.1,0.1
				c0.1,0,0.1,0.1,0.1,0.2s0,0.1,0,0.2c0,0,0,0-0.1,0c0,0.1,0.1,0.2,0.1,0.3c0,0,0,0,0,0c0,0,0,0.1,0,0.1l0.1,0.2l-0.4-0.2
				c0,0,0,0.1,0.1,0.1c0,0,0,0,0,0.1c0,0,0,0.1,0,0.2s-0.1,0.2-0.1,0.4s-0.1,0.3-0.2,0.4c0,0.1-0.1,0.2-0.2,0.2l0.1,0.2l0,0
				c0,0,0,0-0.1,0c0,0,0,0,0,0.1c-0.1,0-0.2,0-0.2,0.1c0,0,0.1,0.1,0.1,0.1c0,0,0,0.1-0.1,0.1v0.1l-0.3-0.2c-0.1,0.1-0.3,0-0.7-0.2
				c-0.4-0.2-0.8-0.5-1.3-0.8c-0.5-0.3-1.1-0.7-1.7-1.1c-0.6-0.4-1.2-0.8-1.7-1.2c-0.5-0.4-1-0.8-1.4-1.1s-0.7-0.5-0.9-0.7
				c-0.3-0.3-0.5-0.5-0.7-0.7c-0.2-0.2-0.3-0.3-0.5-0.5c-0.1-0.2-0.2-0.3-0.1-0.4l0.1-0.2c0,0,0.1-0.1,0.1-0.2c0,0,0-0.1,0-0.2
				c0-0.1,0.1-0.2,0.1-0.4s0.1-0.3,0.2-0.4s0.1-0.2,0.1-0.2c0.1-0.1,0.2-0.2,0.3-0.3c0.1-0.1,0.1-0.2,0.1-0.3c0,0,0.1-0.1,0.1,0
				s0.1,0,0.1,0c0,0,0-0.1,0-0.1s0,0,0-0.1c0,0,0,0,0,0c0,0,0.1,0,0.1,0c0-0.2,0.1-0.4,0.3-0.5c0.1-0.2,0.3-0.2,0.5-0.1
				c0.1,0,0.1,0.1,0.2,0.2c0.2,0.2,0.4,0.5,0.8,0.8s0.7,0.7,1.1,1s0.7,0.7,1.1,1c0.3,0.2,0.5,0.4,0.8,0.6c0,0,0.1,0.1,0.1,0.1
				C2332.1,716.3,2332.1,716.3,2332.1,716.4L2332.1,716.4z M2336.7,723.1c0-0.1,0-0.1,0.1-0.2c0.1-0.1,0.1-0.1,0.1-0.2
				c0-0.1,0.1-0.2,0.1-0.2c0-0.1,0-0.2,0-0.3c0.1-0.1,0.1-0.2,0.2-0.3c0-0.1,0.1-0.3,0.1-0.4c0-0.1,0.1-0.2,0.1-0.3
				c0.1-0.1,0.1-0.2,0.2-0.3c-0.1-0.1-0.1-0.2,0-0.2s0.1-0.1,0.1-0.1c0.1,0,0.3,0.1,0.4,0.2l0.3,0.2c0.1,0.1,0.2,0.1,0.3,0.2
				c0.1,0.1,0.3,0.1,0.5,0.1c0.3,0,0.5,0,0.6,0c0.2,0,0.4,0.1,0.6,0.2c0.1,0,0.1,0.1,0.1,0.2c0,0.1,0.1,0.1,0.1,0c0,0,0,0.1,0,0.1
				c0,0-0.1,0-0.1,0s-0.1,0-0.1,0s-0.1,0-0.1,0.1c0,0.1-0.1,0.2-0.1,0.3c-0.1,0.1-0.1,0.2-0.2,0.3c0,0.2-0.1,0.4-0.2,0.6
				c-0.1,0.2-0.2,0.4-0.2,0.6c0,0.1,0,0.2-0.1,0.3c0,0.1-0.1,0.2-0.1,0.3c-0.3,0-0.5,0-0.8,0c-0.2,0-0.4-0.1-0.6-0.2
				c-0.2-0.1-0.4-0.2-0.6-0.3c-0.2-0.1-0.5-0.3-0.8-0.4L2336.7,723.1L2336.7,723.1z M2606.2,687.5L2596,682c-1.9-1-4.1-1.1-6.1-0.4
				c-4.7,1.8-2.4,4.3-2.4,4.4c1.8,3.8-0.3-0.3,6.7,3.7c2.4,1.4,5,2.5,7.4,3.7c-4.4,6.5-5.9,3.4-5.9,8.9c7.6,5.1,12.8-5.4,13.4-7.4
				c2.6,0.2,5.9,2.3,5.9-1.5c0-2.2-0.9-2-3-2.2c1.3-5.5,6-9.1,4.4-15.6c-2.3,0.2-1.9-0.6-5.9,5.2L2606.2,687.5z M2238.2,923.3
				c-0.2-0.1-10.4-8-10.4-0.7c0,2.5-0.3,2.1,1.1,3.3l4.8,4.1c-3.1,4.7-7.7,8.8-7.8,10.6c-0.4,5.1,10.6,2.8,13-6.1
				c3.7,0.3,3.6,1.5,8.2,1.5c0.1-0.7,0-1.4-0.2-2l-1.2-1.8c-5.8-8.3,1.5-4.6-0.8-14.8C2241.3,917.7,2240.8,919.5,2238.2,923.3
				L2238.2,923.3z"/>
		</g>
		<g id="Estrellas" transform="translate(82.879 461.704) rotate(-107)">
			<path id="Trazado_12" class="st2" d="M-567.7,110.9l-9.8-5.3c-1.8-0.9-3.9-1.1-5.8-0.4c-4.5,1.7-2.3,4.2-2.3,4.2
				c1.8,3.6-0.2-0.3,6.5,3.6c2.3,1.3,4.8,2.4,7.2,3.6c-4.2,6.3-5.7,3.3-5.7,8.6c7.3,4.9,12.4-5.2,12.9-7.2c2.5,0.2,5.7,2.2,5.7-1.4
				c0-2.2-0.8-2-2.9-2.2c1.2-5.3,5.8-8.8,4.3-15.1c-2.2,0.2-1.9-0.6-5.8,5L-567.7,110.9L-567.7,110.9z"/>
			<path id="Trazado_13" class="st2" d="M-694.5-348.3c-5-1.2-17.9-7.9-15.1,4.3c4.5,1,10.8,2.9,10.8,2.9s-6.5,7.6-6.5,14.4l2.2,1.4
				c0.8-0.1,1.5-0.3,2.3-0.6c2-0.9,3.2-3.2,4.3-5c1.7-2.7,2.7-5.4,4.2-8c2.2,0.2,2.4,0.8,4.7,0.5c1.8-0.3,3.5-0.5,5.3-0.5
				c-0.8-2.9-5.3-5.1-7.9-6.5l2.2-10.8L-694.5-348.3L-694.5-348.3z"/>
			<path id="Trazado_14" class="st2" d="M-522-211.4c-0.2-0.1-10-7.7-10-0.7c0,2.4-0.3,2,1.1,3.2l4.7,4c-3,4.5-7.4,8.5-7.5,10.2
				c-0.4,5,10.3,2.7,12.6-5.9c3.6,0.3,3.5,1.4,7.9,1.4c0.1-0.7,0-1.3-0.2-2l-1.2-1.7c-5.6-8,1.5-4.5-0.8-14.3
				C-519.1-216.8-519.5-215.1-522-211.4L-522-211.4z"/>
			<path id="Trazado_15" class="st2" d="M-450.6,198.2c-3.5-0.9-3.3-3.6-6.5-3.6c-3.4,0-5,4.5,2.1,9.3c-4.2,7.9-7.2,5.4-3.6,10.8
				c4.1,0,5-2.2,7.9-6.5c3.8,0.9,3.2,2.3,7.2,1.4c-0.1-3.8-0.9-4.1-3.6-7.2c3.7-5.6,3-6.3,1.4-9.3
				C-448.3,193.8-449.7,194.8-450.6,198.2z"/>
			<path id="Trazado_16" class="st2" d="M-498.2,78.4c0,7.5,13.6,10.1,13.6-0.7c0-4.3-8.1-6.3-11.3-3.4
				C-496.8,75.5-497.6,76.9-498.2,78.4L-498.2,78.4z"/>
			<path id="Trazado_17" class="st2" d="M-726.9-428.7c0,4.4,5.6,4.3,5.7,4.3c2.4-1.3,7.2-4.6,7.2-7.9
				C-714-441.4-726.9-436.7-726.9-428.7z"/>
			<path id="Trazado_18" class="st2" d="M-628.7-228.8c2.4,10.3,11.5,6.9,11.5,0.7c0-5.7-4.5-5-8.6-5
				C-626.9-231.8-627.8-230.4-628.7-228.8z"/>
			<path id="Trazado_19" class="st2" d="M-617.8,181.8c0.1,0.1,0.3,0.2,0.3,0.4c1.1,4.7,9.5-1.4,11.2-2.6v-5
				C-612.3,171.4-617.2,175-617.8,181.8z"/>
			<path id="Trazado_20" class="st2" d="M-518.3-89.4c0,1.9,0.5,0.7,0.7,3.6c6.2,1.5,9.3-1.4,9.3-5c0-3.9-1.8-3.7-4.3-5
				c-2,0.9-2.2,0.3-3.8,1.9C-517.5-92.7-518.1-91.1-518.3-89.4L-518.3-89.4z"/>
			<path id="Trazado_21" class="st2" d="M-597.1-194.5l0.2-0.2C-596.9-194.7-597.2-194.6-597.1-194.5z"/>
		</g>
		<g id="Estrellas_1_" transform="translate(82.879 461.704) rotate(-107)">
			<path id="Trazado_12_1_" class="st2" d="M-578.7,707.8l-9.8-5.3c-1.8-1-3.9-1.1-5.8-0.4c-4.5,1.7-2.3,4.2-2.3,4.2
				c1.8,3.6-0.2-0.3,6.5,3.6c2.3,1.3,4.8,2.4,7.2,3.6c-4.2,6.3-5.7,3.3-5.7,8.6c7.3,4.9,12.4-5.2,12.9-7.2c2.5,0.2,5.7,2.2,5.7-1.4
				c0-2.2-0.8-2-2.9-2.2c1.2-5.3,5.8-8.8,4.3-15.1c-2.2,0.2-1.9-0.5-5.8,5L-578.7,707.8L-578.7,707.8z"/>
			<path id="Trazado_13_1_" class="st2" d="M-705.5,248.6c-5-1.2-17.9-7.9-15.1,4.3c4.5,1,10.8,2.9,10.8,2.9s-6.5,7.6-6.5,14.4
				l2.2,1.4c0.8-0.1,1.5-0.3,2.3-0.6c2-0.9,3.2-3.2,4.3-5c1.7-2.7,2.7-5.4,4.2-8c2.2,0.2,2.4,0.8,4.7,0.5c1.8-0.3,3.5-0.5,5.3-0.5
				c-0.8-2.9-5.3-5.1-7.9-6.5l2.2-10.8L-705.5,248.6L-705.5,248.6z"/>
			<path id="Trazado_14_1_" class="st2" d="M-533,385.5c-0.2-0.1-10-7.7-10-0.7c0,2.4-0.3,2,1.1,3.2l4.7,4c-3,4.5-7.4,8.5-7.5,10.2
				c-0.4,5,10.3,2.7,12.6-5.9c3.6,0.3,3.5,1.4,7.9,1.4c0.1-0.7,0-1.3-0.2-2l-1.2-1.7c-5.6-8,1.5-4.5-0.8-14.3
				C-530,380-530.5,381.7-533,385.5L-533,385.5z"/>
			<path id="Trazado_15_1_" class="st2" d="M-461.6,795.1c-3.5-1-3.3-3.6-6.5-3.6c-3.4,0-5,4.5,2.1,9.3c-4.2,7.9-7.2,5.4-3.6,10.8
				c4.1,0,5-2.2,7.9-6.5c3.8,0.9,3.2,2.3,7.2,1.4c-0.1-3.8-0.9-4.1-3.6-7.2c3.7-5.5,3-6.3,1.4-9.3
				C-459.2,790.7-460.7,791.7-461.6,795.1z"/>
			<path id="Trazado_16_1_" class="st2" d="M-509.2,675.2c0,7.5,13.6,10.1,13.6-0.7c0-4.3-8.1-6.3-11.3-3.4
				C-507.8,672.4-508.6,673.8-509.2,675.2L-509.2,675.2z"/>
			<path id="Trazado_17_1_" class="st2" d="M-737.9,168.2c0,4.4,5.6,4.3,5.7,4.3c2.4-1.3,7.2-4.6,7.2-7.9
				C-724.9,155.5-737.9,160.1-737.9,168.2z"/>
			<path id="Trazado_18_1_" class="st2" d="M-639.7,368c2.4,10.3,11.5,6.9,11.5,0.7c0-5.7-4.5-5-8.6-5
				C-637.9,365.1-638.8,366.5-639.7,368z"/>
			<path id="Trazado_19_1_" class="st2" d="M-628.8,778.6c0.1,0.1,0.3,0.2,0.3,0.4c1.1,4.7,9.5-1.4,11.2-2.5v-5
				C-623.3,768.3-628.2,771.8-628.8,778.6z"/>
			<path id="Trazado_20_1_" class="st2" d="M-529.3,507.4c0,1.9,0.5,0.7,0.7,3.6c6.2,1.5,9.3-1.5,9.3-5c0-3.9-1.8-3.7-4.3-5
				c-2,0.9-2.2,0.3-3.8,1.9C-528.5,504.2-529.1,505.8-529.3,507.4L-529.3,507.4z"/>
			<path id="Trazado_21_1_" class="st2" d="M-608.1,402.4l0.2-0.2C-607.9,402.2-608.2,402.3-608.1,402.4z"/>
		</g>
	</g>
</g>
</svg>
