<?xml version="1.0" encoding="utf-8"?>
<!-- Generator: Adobe Illustrator 24.2.3, SVG Export Plug-In . SVG Version: 6.00 Build 0)  -->
<svg version="1.1" xmlns="http://www.w3.org/2000/svg" xmlns:xlink="http://www.w3.org/1999/xlink" x="0px" y="0px"
	 viewBox="0 0 1920 600" style="enable-background:new 0 0 1920 600;" xml:space="preserve">
<style type="text/css">
	.st0{fill:#E9E9E9;}
	.st1{fill:#232323;}
</style>
<g id="Capa_1">
	<polygon class="st0" points="1920.1,607 0,607 0,605 0,0.6 0,-3 1920.1,-3 	"/>
</g>
<g id="Capa_2">
	<path class="st1" d="M0,0c0,0-1,5,8,8s32-1,40,0s35,6,47,4S216,2,247,8s289,2,299-2s54-6,60-2s145,8,165,4s258-7,272-5s174,3,181,2
		s195-3,199,0s127-3,139-2s109,7,120,4s107-8,113-5s117,3,122,0c11-2,2-38,2-38L-3-19L0-4"/>
	<path class="st1" d="M11-11"/>
</g>
</svg>
