<?xml version="1.0" encoding="utf-8"?>
<!-- Generator: Adobe Illustrator 24.2.3, SVG Export Plug-In . SVG Version: 6.00 Build 0)  -->
<svg version="1.1" id="Capa_1" xmlns="http://www.w3.org/2000/svg" xmlns:xlink="http://www.w3.org/1999/xlink" x="0px" y="0px"
	 viewBox="0 0 1024 768" style="enable-background:new 0 0 1024 768;" xml:space="preserve">
<style type="text/css">
	.st0{fill:#E9E9E9;}
	.st1{clip-path:url(#SVGID_2_);}
	.st2{fill:#232323;}
	.st3{fill-rule:evenodd;clip-rule:evenodd;fill:#E9E9E9;}
</style>
<rect y="1" class="st0" width="1024" height="767"/>
<g id="Capa_1_2_">
	<g id="Capa_1_1_">
	</g>
	<g>
		<g>
			<g>
				<defs>
					<rect id="SVGID_1_" x="0.1" y="82.5" width="899.9" height="505"/>
				</defs>
				<clipPath id="SVGID_2_">
					<use xlink:href="#SVGID_1_"  style="overflow:visible;"/>
				</clipPath>
				<g id="Capa_2_2_" class="st1">
					<path class="st2" d="M-1.6,76.8h495.8c0,0,19.2,52,4.2,115.7c-15,63.7-52,23.4-71.2,80.1c-19.2,56.7,8.9,99.4,13.6,139.2
						c4.7,39.8-12.2,75.9-56.7,99.4s-96.1,0-183.7,30S-4.4,583.9-4.4,583.9L-1.6,76.8z"/>
					<g id="Capa_x0020_1" transform="translate(-1684.8 584.179) rotate(-21)">
						<path id="Trazado_10" class="st3" d="M1787.4,544.6c-2.5,0-2.3-0.3-3.8-0.3c-0.5-2.1-1.5-3.1-1.7-5.2c1.6,0.1,1.4,0.5,2.8,0.3
							c6-0.5,11-3.6,15.1-7.5c0.5-0.5,0.2-0.3,0.9-0.8c0.6,2.6,1.7,6,1.7,7.6c-1.4,0.1-6.8,3.4-8.6,4.2
							C1792,543.7,1789.5,544.6,1787.4,544.6L1787.4,544.6z M1785.3,536.6v0.3l-0.4-0.3L1785.3,536.6z M1783.2,536.3l-0.2,0.8
							L1783.2,536.3z M1783.5,536l-0.3,0.3L1783.5,536z M1783.9,535.2l-0.3,0.7L1783.9,535.2z M1791.2,535.2v0.3l-0.4-0.3
							L1791.2,535.2z M1791.5,534.5l-0.3,0.7L1791.5,534.5z M1784.2,534.9l-0.3,0.3L1784.2,534.9z M1781.8,534.9l0.1,0.1
							C1781.9,535,1781.8,534.9,1781.8,534.9L1781.8,534.9z M1785.3,536.6c0.2-0.9-0.1-0.3,0.5-1.2c0.7-1,0.3-0.6,1.2-0.9
							C1786.4,535.4,1786.1,536,1785.3,536.6L1785.3,536.6z M1784.6,534.5l-0.3,0.3L1784.6,534.5z M1787.4,536.6
							c0.3-0.5,0.5-0.9,0.9-1.5c0.9-1.4-0.2-0.8,1.5-0.9c-0.3,0.5-0.5,1-0.9,1.5C1788.3,536.5,1788.5,536.3,1787.4,536.6
							L1787.4,536.6z M1782.5,534.2v0.3l-0.4-0.3L1782.5,534.2z M1791.5,534.5c0.2-1-0.1-0.5,0.7-1
							C1792,534.5,1792.3,534,1791.5,534.5L1791.5,534.5z M1782.5,534.2v-0.3l0.4,0.3L1782.5,534.2z M1784.6,534.5l0.4-1.4
							C1785.9,533.9,1785.9,533.7,1784.6,534.5L1784.6,534.5z M1779.7,533.5l0.1,0.1C1779.8,533.6,1779.7,533.6,1779.7,533.5
							L1779.7,533.5z M1794.7,532.8l-0.4,1.4c-0.2-0.3-0.5,0.5-0.2-0.7C1794.2,532.9,1794.2,533.1,1794.7,532.8L1794.7,532.8z
							 M1792.3,533.5l0.2-0.8L1792.3,533.5z M1779,533.1h0.3l-0.3,0.4L1779,533.1z M1779,533.1l-0.7-0.3L1779,533.1z M1833.6,536
							c0.4-1.5,3.1-5.8,3.1-7.3h0.3c0,1.1,0.4,3.8-0.3,4.5c-0.1,0.1-0.2,0.2-0.2,0.2L1833.6,536z M1807.5,537.3h-0.7
							c-0.8-3.5,0.4-1.5,0.7-4.5c0.8-0.2,1.6-0.4,2.5-0.7C1809.6,533.7,1808.1,535,1807.5,537.3L1807.5,537.3z M1778.3,532.8h-0.3
							l0.3-0.4L1778.3,532.8z M1797.4,531.4v0.3l-0.4-0.3L1797.4,531.4z M1809.6,541.5c-0.8-0.5-0.9-1-1.4-1.7
							c0.1-0.1,0.2-0.2,0.2-0.2l1-1.8c0.6-1.2,2.9-5.5,3-6.4c1.6-0.2,2.8-0.7,4.2-1l-5.4,8.2
							C1810.6,539.5,1810.1,540.5,1809.6,541.5L1809.6,541.5z M1794,530v0.3l-0.4-0.3L1794,530z M1797.4,531.4
							c0.1-0.5,0.3-1.1,0.5-1.5c0.6-1.5-0.4-0.3,0.8-1.2C1799.5,530,1798.9,531,1797.4,531.4L1797.4,531.4z M1811.4,542.9l2.2-4
							c1-1.6,5.4-9.1,6.2-9.4c0.4-0.2,2.2-0.7,2.7-0.8l-2.5,3.8c-0.5,0.5-0.9,1.1-1.3,1.8c-0.5,0.6-0.9,1.2-1.3,1.8l-3.8,5.6
							C1812.6,542.9,1813.3,542.8,1811.4,542.9L1811.4,542.9z M1792.1,528.7c0.9,0.2,0.5-0.2,0.8,0.6L1792.1,528.7z M1794.7,532.8
							c0.2-1.4,0.4-1.4,0.9-2.5c0.3-0.6,0.3-0.8,0.5-1.3c0.7-1.5,0-0.7,1-1.1L1794.7,532.8z M1794,530c0.2-1.5,0.2-1.8,1.4-2.1
							L1794,530z M1810,526.9c0.4,0.5,0.3-0.8,0.3,1h-0.3V526.9z M1819,542.6c-1.5,0.1-1.6,0.3-3.4,0.3c2-3.1,9.5-12.9,9.7-15.3
							c0.7,0,1.4-0.2,2.1-0.3C1825.6,530.5,1819.5,540.3,1819,542.6L1819,542.6z M1791.9,525.8c0-0.9,0.3-0.8,1-1
							c0,1.4,0.2,1.1-0.3,2.1C1792,526.5,1791.9,526.8,1791.9,525.8L1791.9,525.8z M1828.4,538.7c0.6-1.1,1.1-2.3,1.7-3.4l3.8-6.9
							c0.3-0.6,0.5-1.1,0.9-1.9c0.2-0.3,0.3-0.6,0.5-0.8c0.1-0.1,0.2-0.3,0.3-0.4c0.1-0.1,0.2-0.2,0.2-0.2c0-0.1,0.1-0.2,0.2-0.2
							c0.2,0.9-0.1,0.3,0.3,1l-5.5,10.2C1830.1,538.3,1830.9,538.1,1828.4,538.7L1828.4,538.7z M1821.8,541.9c0.3-1.5,1.5-3,2.3-4.3
							l4.6-8.9c0.9-1.9,1.3-2.7,4.2-2.8l-4.9,8.7C1823.7,543.2,1827.5,538.9,1821.8,541.9L1821.8,541.9z M1810,526.9
							c-1.4-1-0.3-1.4-3.1-1.4v-0.3c4.5,0,2.8-0.5,4.9-1v1.7c-0.8-0.5-0.4-0.4-1.4-0.7C1810.2,525.7,1810.1,526.3,1810,526.9
							L1810,526.9z M1837.8,524h1.4c1,2.2,1.7,6.4,1.7,9.4c0,0.8-4.5,5.8-7.3,7.3c-0.8,0.5-1.1,0.7-2,1.1
							c-11.7,6.4-14.7,4.1-23.4,4.1c-0.3-1.1-2.2-3.6-3.4-5.7c-0.5-1-0.6-1.3-1.5-1.6c0.2-1.6,0.3-3.2,0.3-4.9
							c0.5-0.2,1.1-0.3,1.7-0.3c-0.5,1.5-2.3,0.2,0.2,5.4c2.7,5.5,3.7,6.4,9.2,6.4c6.2,0,13.2-3.3,18.1-6.6
							C1839,534.6,1840.9,530.9,1837.8,524L1837.8,524z M1812.4,524c0.3-0.3,1.3,0.5,0.4,0.2C1812.8,524.3,1811.8,524.7,1812.4,524
							L1812.4,524z M1791.5,524c0-0.8,0.5-0.2,0.2,0C1791.8,524,1791.5,525.1,1791.5,524L1791.5,524z M1796.7,523.1
							c0-0.8,0.5-0.2,0.2,0C1797,523.1,1796.7,524,1796.7,523.1L1796.7,523.1z M1843.4,526.9h-0.7c-0.1-2.3-0.9-1.8-1-3.8
							c0.9-0.1,1.9-0.3,2.8-0.7C1844.1,523.9,1843.4,525,1843.4,526.9L1843.4,526.9z M1796.4,522l0.1,0.1
							C1796.5,522.1,1796.4,522.1,1796.4,522L1796.4,522z M1791.2,520.9c1.1,0.4,1.7,1.5,0.3,2.5
							C1791.6,522.6,1791.5,521.8,1791.2,520.9L1791.2,520.9z M1799.6,519.9c1.1,1.4,1,1.7,2.2,2.7c2.3,1.7,3.7,3.4,5.8,3.9
							c2.2,0.5,0.8,0.3,2.4,2.8l-7.3,2.1c-0.5-2-2.8-4.5-4.2-4.9c0-3.1-1-3.7-1-6.3h0.3c0,1.5,0.5,2.2,1.4,2.8
							C1800.1,521.3,1799.8,522,1799.6,519.9L1799.6,519.9z M1798.5,520.6c0-0.8,0.5-0.2,0.2,0
							C1798.7,520.6,1798.5,521.6,1798.5,520.6L1798.5,520.6z M1796.4,519.6v2.1c-0.4-0.3-0.9-0.5-0.9-1.1
							C1795.4,519.6,1795.3,520.1,1796.4,519.6L1796.4,519.6z M1793.3,519.9c1.8,0.9,1.4,0.7,2.3,2.5c0.6,1.1,1.1,2.5,1.5,3.7
							c-1.1-0.5-1.3-0.3-2.5,0c0-2.1,0.2-3.1-0.7-4.9L1793.3,519.9z M1798.5,518.5v1C1797.1,518.5,1797.9,519.2,1798.5,518.5
							L1798.5,518.5z M1837.5,517.8l-0.7,0.4L1837.5,517.8z M1827.4,517.4c1.6,0.2,0.6-0.4,1.4,0.7
							C1826.9,518.6,1828,518.8,1827.4,517.4L1827.4,517.4z M1837.5,517.8v-0.3l0.4,0.3L1837.5,517.8z M1825,517.4h1v0.3h-1V517.4z
							 M1838.5,517.1v0.3l-0.4-0.3L1838.5,517.1z M1838.9,516.8l-0.3,0.3L1838.9,516.8z M1872.2,514.7c-0.2,1.5-1.9,4.4-2.7,5.3
							c-0.8,0.9-0.8,0.3-0.8,2c1.5-0.1,1.4-0.1,2.2-0.9c0.8-0.8,0.8-1.3,1.3-2.2c0.5-0.7,0.9-1.5,1.3-2.2c1.6-4.1-0.9-2.1,10.2-5.5
							c1.5-0.5,3.4-0.9,4.9-1.4c1.6-0.4,3.2-1,4.9-1.4l19.5-5.6c0.8,1.2,2.8,2,4.6,3.8l3.1,3.1c0.9,1,0.2,0.4,0.8,1.3
							c1.9,3.4,11,3.1,12.4,3.7c-1.7,7.3-8.2,8.2-15.4,11.4c-1.6,0.7-2.9,1.3-4.6,2l-7.8,2.3c-7.8,1.5-14.4,0.3-22.3,0l-6.1-0.5
							c-4.6-1-3.8-2.7-9.4-4.2c-1.8-0.5-3.5-0.9-5.5-1.5c-2.4-0.8-7.8-3.1-8.9-4.6c1.5-0.2,2.9-0.7,4.5-1.1l9.2-2.7
							C1869,515.4,1870.6,514.8,1872.2,514.7L1872.2,514.7z M1843.1,515l1.4-0.7c0.1,4.5,2.5,4.6,0,5.2
							C1844.1,518,1843.7,516.5,1843.1,515L1843.1,515z M1838.9,516.8c0.4-0.5,0.8-1.1,1-1.7c0.2,0,1.1,0.2,1.1,0.2
							c0.4,0,0.5-0.1,1.3-0.2C1841.5,516.3,1840.8,516.6,1838.9,516.8L1838.9,516.8z M1872.2,514.7v-0.3l0.4,0.3L1872.2,514.7z
							 M1774.9,508.1h1c0.5,1.1,0.9,2.5,1.4,3.4C1776.5,511.7,1774.9,512.9,1774.9,508.1L1774.9,508.1z M1774.9,508.1h-0.3l0.3-0.4
							L1774.9,508.1z M1791.2,507.4l-0.7,0.4L1791.2,507.4z M1875.7,506.7l-0.7,0.4L1875.7,506.7z M1865.3,506.7h1.4v0.7
							C1865.1,507.2,1866,507.8,1865.3,506.7L1865.3,506.7z M1875.7,506.7v-0.3l0.4,0.3L1875.7,506.7z M1862.9,506.4l0.1,0.1
							C1863,506.5,1862.8,506.4,1862.9,506.4L1862.9,506.4z M1876.8,506v0.3l-0.4-0.3L1876.8,506z M1854.9,506l0.1,0.1
							C1855,506.1,1854.8,506,1854.9,506L1854.9,506z M1852.7,505.6c-0.2,1,0.2,0.5-0.6,0.8L1852.7,505.6z M1788.8,505.6h1
							c-0.2,1,0.1,0.5-0.7,1C1789,506.4,1788.8,506,1788.8,505.6L1788.8,505.6z M1941.9,505.6v0.4l-0.4-0.3L1941.9,505.6z
							 M1877.1,505.6l-0.3,0.3L1877.1,505.6z M1853.4,504.9v0.3l-0.4-0.3L1853.4,504.9z M1877.1,505.6l0.7-1.4h2.1
							c-0.3,0.9-0.2,0.4-0.3,0.7c-0.2,0.3,0-0.2-0.3,0.7H1877.1L1877.1,505.6z M1853.4,504.9c0.3-1.3,0.2-1.1,1-1.7
							c-0.1,0.8,0.1,1.6,0.3,2.5C1854,505.1,1854.5,505.3,1853.4,504.9L1853.4,504.9z M1791.5,504.9h-1
							C1791.3,503.9,1790.7,503.9,1791.5,504.9L1791.5,504.9z M1947.4,504.3v0.3l-0.4-0.3L1947.4,504.3z M1773.5,503.9
							c1.9,0.2,0.5-0.5,2.1,2.5c-0.6-0.1-1.1-0.2-1.7-0.3C1773.8,505.3,1773.7,504.6,1773.5,503.9L1773.5,503.9z M1880.6,503.9
							c0.6-0.1,1.1-0.2,1.7-0.3c0,3.8,2.5,4.5,0,5.2C1882.2,507,1881.6,505.3,1880.6,503.9L1880.6,503.9z M1917.8,501.5
							c0.9-0.2,1.8-0.5,2.8-0.7v5.2c-0.9-0.6-1.9-1.5-2.8-2.1V501.5z M1804.1,501.1c0.5,0.8,0.8,1.8,0.7,2.8c-2,0.8-4.2,1.3-6.3,1.4
							c0.1-3.2,1.9-0.3,3.8-3.1c0.6,0.1,1.1,0.2,1.7,0.3V501.1L1804.1,501.1z M1788,503.6v0.3l-0.4-0.3L1788,503.6z M1855.2,499.4
							l2.5,3.1c2.2,4,2.8,1.8,4.1,3.9l0.8,1.4c0.6-0.1,1.1-0.2,1.7-0.3l1.1,1c2.3-0.5,1.2,0.1,3.1,0.1c1.1,0,1.6-0.5,2.6-0.5
							l2.6-0.5c2.3,1.6,1.7-0.1,4-0.9c1-0.4,0.7,0.1,1.6-0.4c0.4-0.2,0.8-0.7,1.3-1.1c0.3,1.4,0.7,2.8,1,4.2
							c-1.1,0.2-2.2,0.5-3.3,0.8l-10.6,3c-0.3-0.5-0.5-1.4-1.2-1.6c-1.1-0.4-0.5,0.1-0.5,2.3l-9.9,2.7c-1.7,0.5-8.4,2.5-10,2.6
							c-0.2-2.1-1-2-1-4.9c1.4-0.7,2.6-1.5,3.6-2.7c0.5-0.5,1-1.1,1.4-1.8c0.5-0.8,0.9-1,1-2.1c1.6-0.4,2.1,0,2.5-1.4h0.7
							c0.2,2.8,0.4,3.4,1.7,3.8C1857,507.8,1855.2,505.2,1855.2,499.4L1855.2,499.4z M1788.4,503.2l-0.3,0.3L1788.4,503.2z
							 M1794.3,502.5c1,0.4,0.3-0.5,0.8,0.5c0.3,0.7,0.2,0.8,0.2,1.5C1794.1,503.7,1795,504,1794.3,502.5L1794.3,502.5z
							 M1788.4,503.2c0.2-0.5,0.4-1,1.4-1.4c0.8-0.3,4.2-0.5,4.2,4.5c-1,0.5-1.3,1-2.8,1c1.5-2,1.4,0,1.4-3.4
							C1790.7,502.3,1791.4,503,1788.4,503.2L1788.4,503.2z M1770,498c1.4,6,3.1,9.7,4.2,13.6c0.7,2.6,1.4,1.9,3.4,1.7l5.2,12.5
							c0.5,1.6,1.4,2.9,1.7,4.5c-1.3,0.3-2.1,1.1-3.1,1.7c-4.5-2.3-3.8-3.9-6.8-7.8c-1.5-1.9-2.9-6.9-2.9-9.2c1.1,0.2,0.5,0.4,1.4,0
							c-3.2-4.8-3.8-6.1-4.3-12.7l0.8-3.7C1770,497.7,1769.6,498.5,1770,498L1770,498z M1955.1,500.1c-0.2,2-0.8,2.5-2.1,3.1
							c0.2-0.6,0.4-1.1,0.8-1.6l0.9-1.1c0.1-0.1,0.2-0.2,0.2-0.2S1955,500.1,1955.1,500.1L1955.1,500.1z M1791.9,500.4
							c1.5,0.2,2.1,0.4,2.8,1.4C1793.3,501.7,1792.5,501.3,1791.9,500.4L1791.9,500.4z M1955.1,500.1v-0.3l0.4,0.3L1955.1,500.1z
							 M1794.7,499.7h0.3l-0.3,0.4L1794.7,499.7z M1927.2,499v0.7l-0.8-0.6L1927.2,499z M1927.2,499v-0.3l0.4,0.3L1927.2,499z
							 M1931,498c-0.2,1-2.5,5.1-4.2,5.6c0.1-1.4,0.1-0.8,0.8-1.6c0.4-0.4,0.8-0.9,1-1.4C1930,498.4,1929.7,498.3,1931,498L1931,498
							z M1804.1,501.1l-0.4-0.7c-2.5,0.2-2.2,1.8-5.1,2.1c-0.1-1.6-0.5-3.1-1.4-4.5c2.5-0.2,3.2-4,4.5-5.9
							C1802.3,494.6,1804,498.7,1804.1,501.1L1804.1,501.1z M1935.9,510.9c-5.1,0-8.4,0.5-12.5-1.7v-9.4c1.4-0.1,0.8,0.1,1.7-0.3
							c-0.5,9.8-1.1,8.6,2.3,9.2c7.8,1.4,16,0,23.5-2.5c5.3-1.8,5.5-2.9,7.4-8.6c0-0.1,0.3-0.7,0.3-0.8l0.6-0.8
							c0,3.7-2.3,9.6-6,10.7c-0.6,0.2-1.2,0.4-1.8,0.6C1947.7,508.8,1940,510.9,1935.9,510.9L1935.9,510.9z M1931,498v-0.3l0.4,0.3
							L1931,498z M1909.1,497.7c-1.7,2.5-2.9,1.1-4.2,0C1907.2,497.8,1906.6,498.3,1909.1,497.7L1909.1,497.7z M1900.4,496.6
							c0.5,0.4,1,0.7,1.6,0.8c1.7,0.5,1-0.3,1.9,0.9C1902.9,498.6,1900.6,500.3,1900.4,496.6L1900.4,496.6z M1911.5,496.2
							c0,1.5,0.2,3.2,0.7,4.2c-1.3-0.2-1,0.3-1.7-2.8h-1.4c0.1-0.1,0.2-0.2,0.2-0.2C1910,497,1910.8,496.6,1911.5,496.2
							L1911.5,496.2z M1794.7,497.3h0.3l-0.3,0.4L1794.7,497.3z M1794.7,497.3l-1.7-0.7h1.4L1794.7,497.3z M1771.7,495.2
							c1.3,0.9,0.7,1.3,1.3,2.9c0.5,1.4,0.2,0.4,0.5,0.9c-0.2,0.9,0.2,0.4-0.7,0.7v1h1c0.1,0.6,0.2,1.1,0.3,1.7
							c-1.6-0.4-1.7-1.5-2.1-3.1C1771.7,498.1,1771.2,496.4,1771.7,495.2L1771.7,495.2z M1927.6,506.7c0.9-1.7,1.1-1.4,2.1-2.7
							c0.7-0.9,1.3-2,2-2.9c2-2.9,2.5-4.6,4.9-4.8c-0.7,1-1.4,1.5-2.2,2.6l-4.2,5.6C1929.5,505.5,1928.8,506.4,1927.6,506.7
							L1927.6,506.7z M1793,496.6l-4.5-0.3C1790,496.2,1792.1,496,1793,496.6L1793,496.6z M1911.5,496.2v-0.3l0.4,0.3L1911.5,496.2z
							 M1786.4,495.9h1.4v0.3c-0.2,0-0.5,0-0.7,0C1786.4,496,1786.7,496.1,1786.4,495.9L1786.4,495.9z M1786.4,495.9l-0.8-0.2
							L1786.4,495.9z M1784.9,495.2l0.1,0.1C1785,495.3,1784.9,495.3,1784.9,495.2L1784.9,495.2z M1890.4,494.9l0.1,0.1
							C1890.4,495,1890.3,494.9,1890.4,494.9L1890.4,494.9z M1784.2,494.9l0.1,0.1C1784.3,495,1784.2,494.9,1784.2,494.9
							L1784.2,494.9z M1932.4,507c-0.7-0.3-0.4-0.3-1.4-0.3l5-6.8c3.7-4.9,2.5-4.5,6.4-5.4C1941,497.3,1935.9,501.9,1932.4,507
							L1932.4,507z M1783.5,494.5h0.3l-0.3,0.4L1783.5,494.5z M1783.5,494.5h-0.3l0.3-0.4L1783.5,494.5z M1892.4,492.4
							c0,0.7,0.2,1.4,0.3,2.1c-0.9-0.5-0.4-0.3-1.7-0.3C1891.6,493.4,1891.7,493,1892.4,492.4L1892.4,492.4z M1782.5,493.8h0.3
							l-0.3,0.4L1782.5,493.8z M1782.5,493.8l-0.3-0.3L1782.5,493.8z M1782.2,493.5h-0.3l0.3-0.4L1782.2,493.5z M1768.6,497.7h-0.3
							c0-1.8-1-2.5,0.3-7.8c0.8-3.1,0.7-3.1,1.8-3.4c0.1,1.8,0.7,2.9,0.7,6.9c-1.8,1-1.3,0.4-2.1,2.8
							C1768.7,497,1768.6,496.4,1768.6,497.7L1768.6,497.7z M1935.3,506.7c0.8-1.6,1.4-2,2.7-3.2c1.5-1.5,7.3-8,7.8-10
							c1.4-0.1,2.1-0.5,3.4-0.7l-3.1,3.9c-1.1,1.3-2,2.5-3.1,3.8c-0.5,0.5-0.3,0.5-0.8,1c-0.3,0.4-0.5,0.5-0.8,0.9
							c-0.4,0.5-0.2,0.4-0.8,1C1938.2,506.4,1938.5,506.7,1935.3,506.7L1935.3,506.7z M1931,492l-0.8,1c-3,0.2-4.4,0.5-5.1-0.7
							C1928.3,493.2,1928.4,492.7,1931,492L1931,492z M1931,492v-0.3l0.4,0.3L1931,492z M1789.1,494.9c-2.3-0.2-4.1-1.2-5.7-2.6
							c-0.1-0.1-0.2-0.1-0.2-0.2c0.8,0.1,1.5-0.1,2.1-0.3l13.5-3.5c0.4,4.3,2.3,1.5-0.2,6.8c-1.1,2.3-0.6,1-2.5,2
							c-1.1-1.6-1.9-1.7-4.5-1.7v-0.4c1,0,3.7-1.1,4.6-1.6c1.4-0.7,0.9-0.2,1.3-1.1C1794.4,492.8,1791.4,493.4,1789.1,494.9
							L1789.1,494.9z M1947.4,504.3l10.8-13.2c-0.9,4-0.8,2.8-3.1,5.6c-0.5,0.7-0.9,0.9-1.5,1.7l-2.5,3.4
							C1950.1,503.4,1950.1,504.2,1947.4,504.3L1947.4,504.3z M1920.9,491.1c0.6,0.3,1.2,0.5,1.9,0.5c1.8,0.4,1.1-0.3,1.9,0.8
							C1920.4,492.4,1921.7,492.4,1920.9,491.1L1920.9,491.1z M1941.9,505.6c0.8-1.6,1.8-2.5,2.9-4c0.4-0.5,0.4-0.5,0.8-0.9l5.2-6.9
							c1.4-1.8,1.5-2.7,4.6-2.7c-1,1.9-8.1,10-10.2,12.7c-0.7,0.8-1,1-1.6,1.9L1941.9,505.6L1941.9,505.6z M1800.9,491.1l0.1,0.1
							C1801,491.1,1800.9,491.1,1800.9,491.1L1800.9,491.1z M1955.4,491.1v-0.3l0.4,0.3L1955.4,491.1z M1786.7,489.7v-2.1
							c1.2,0.3,1.1,0.4,1.4,1.7L1786.7,489.7z M1799.9,487.9c0.8,0.5,0.4,0.1,0.7,1C1799.3,488.1,1800.4,489,1799.9,487.9
							L1799.9,487.9z M1971.4,487.6v0.3l-0.4-0.3L1971.4,487.6z M1967.5,488.9h-1c0.3-0.4,0.4-0.6,0.7-1.1l0.2-0.4
							c0.4-0.7,0.2-0.2,0.5-0.6L1967.5,488.9L1967.5,488.9z M1970,486.9c-0.3,1.4-0.1,1-1,1.4C1969.6,487.1,1969,487.6,1970,486.9
							L1970,486.9z M1961,486.9c-0.3,1.4-0.1,1-1,1.4C1960.5,487.1,1959.9,487.6,1961,486.9L1961,486.9z M1964.1,488.9
							c0.6-1.1,1.2-2.7,2.5-3.1C1966.4,487.3,1965.6,488.8,1964.1,488.9L1964.1,488.9z M1961,486.9v-0.3l0.4,0.3L1961,486.9z
							 M1967.9,486.1c0.3-0.3,1.3,0.5,0.4,0.2C1968.3,486.4,1967.3,486.8,1967.9,486.1L1967.9,486.1z M1794.7,499.7l-2.1-0.7
							c-0.6,0.5-1.3,0.8-2,1.1c-2.1,0.9-5.6,3.8-3.1,6.4l1.6,1.4c0.5,0.5-0.5,0.2,0.7,0.5c0.1,0.1,0.2,0.1,0.2,0.2
							c0.1,0.1,0.2,0.1,0.2,0.2c0.3,0.1,0.6,0.2,0.9,0.2c2.2-0.1,5.2-3.2,5.5-4.3c0.5-2.3-0.8-2.1,0.5-3c0,5.1-0.2,4.3-4.4,9.8
							c-3.7,4.8-3.6,8.9-2.1,15.9c0.5,2.3,0.9,2.5,1,3.8c-1.1,0.3-0.2,0.1-1,0.4c-1.6,0.8-1.7,1-3.6,1c-1.3-5.4-5.8-16.3-8-22.6
							c-0.7-2-1.1-3.8-1.8-5.8c-0.6-1.9-1.3-3.6-1.8-5.8l-3.7-12c1-0.5,2-0.8,3.1-1c1.5,6.2,6,11.8,12.8,12.9
							C1790.7,498.5,1793.3,497.7,1794.7,499.7L1794.7,499.7z M1953.7,487.2v1.4h-1c-0.5-2-1-1.2-1.4-2.8c1.9-0.5,0.3-1,2.8-1
							C1953.9,485.9,1953.7,486,1953.7,487.2L1953.7,487.2z M1977.6,483.7v1.4c1.4-0.2,0.5,0.3,1.3-0.5l0.8-1.3
							c0.3,1.1,0.8,2.2,1.3,3.3c0.7,1.6,0.5,2.3,0.5,4.4c-1.9,1.3-2,1.8-3.1,2.1c-0.5,0.8-0.1,0.5-1,0.7c-1.4,1.9-7.3,3.1-9.9,3.3
							c-2.3,0.2-6-0.9-6.4-1.3c-0.8-1.6-1-3.5-1-5.9c6.2,1.5,11.3,0.7,16.3-2.8c0.9-0.6,1.1-0.6,1.4-1.7h-1c0.2-0.3,0.3-0.5,0.5-0.8
							L1977.6,483.7L1977.6,483.7z M1893.1,483.7c3.9,4.5,1.7,8.9,6.6,12.2c0,3.9,1.8,4.9,4.9,2.8c3.1,2.8,3.1,0.5,4.8-0.1
							c1.1-0.4,0.8,1.1,0.8,2.5c-1.5,0.1-4.8,1.1-6.4,1.6l-19.3,5.4c-0.5-1.1-1.4-3.3-1.4-4.9c6-4,4.9-5.3,6.1-6.5
							c0.8-0.9,0.3-0.2,1.5-0.6c0.1,0,0.7-0.4,0.7-0.4c0.9-0.5-0.4-0.1,0.9-0.5c0.2,0.6,0.3,1.7,0.5,2.3c0.3,1.1,0.4,1.1,1.6,1.1
							c0-3.6-0.4-4.4-0.9-7.4c-0.4-2.1,0.1-2.1,0.2-3.7C1893.6,485.8,1893.1,485.5,1893.1,483.7L1893.1,483.7z M1970,486.9
							c0.1-1.6,0.1-1.7,1.4-2.1C1970.3,486.4,1971,486.1,1970,486.9L1970,486.9z M1962,488.6c0.2-1.1,2.2-4.2,3.1-4.9
							c0.5,1.1,0.3,0.9-1.7,3.8C1962.8,488.4,1963.2,488.3,1962,488.6L1962,488.6z M1895.9,484.4h-0.3l0.3-0.4L1895.9,484.4z
							 M1976.2,483c-0.2,1.5-0.7,3.1-2.1,3.4C1976.1,483.6,1975,484,1976.2,483L1976.2,483z M1978,483l-0.3,0.7L1978,483z
							 M1892.8,483l0.3,0.7L1892.8,483z M1978,483l0.2-0.8L1978,483z M1892.4,482c0.4,0.4,0.3-0.6,0.3,1
							C1892.4,482.6,1892.4,483.6,1892.4,482L1892.4,482z M1976.2,483c0.2-1.6-0.4-0.6,0.7-1.4c-0.2,0.7,0.2,0-0.2,0.8
							C1976.5,482.9,1976.5,482.8,1976.2,483L1976.2,483z M1954.7,488.3c0.3-1.1,0.4-2.3,0.3-3.4c4.2-2,4.5-3.4,4.5-10.1l1.7,1.8
							c0.1,0.1,0.2,0.2,0.2,0.2c1.1,1.1,1.2,2.1,1.8,3.4c0.5,1.1,0.7,0.9,0.8,2.3c-1.8,0.5-3.4,1.6-4.6,3.1
							C1957.9,487.5,1959.1,487.2,1954.7,488.3L1954.7,488.3z M1971.4,487.6l2.5-4.8c0.7-1.3-0.3-1,1.4-1.5
							c-0.5,2.2-2.3,4.1-2.8,6.3H1971.4z M1972.4,482.3v-1h0.7C1972.8,482.7,1972.4,482.3,1972.4,482.3L1972.4,482.3z M1978.7,480.2
							c-1.5-0.1-1.9-0.3-3.8-0.3l1.6-1.1c0.5-0.4,1-0.8,1.5-1.3c1-1.1,1.5-2.1,1.5-4.1h0.3c0,1.7,0.3,1.5,0.3,3.1
							c-0.9,1.2-0.5,0.2-1.1,1.3C1978.7,478.3,1978.7,479.2,1978.7,480.2L1978.7,480.2z M1777.2,481.1c-0.6,0.8-3.6,2.2-4.5,2.5
							c-3.8,1.4-5.2,1.8-10.1,1.8c-1.7-2.6-3.1-4.4-3.1-8.7c1.1-0.3,0.5-0.1,1.4-0.8c1.4-1,2.8-2.4,4.2-2.7c0.2,2,1.1,1.8,4.2,0.7
							c1.7-0.6,2.8-1.6,2.8-3.4c3.6,0,1.8-0.6,7.3,0.7c0.2,1.8,1,2.1,1.4,3.8l-0.4,0.2c-0.5,0.2,0.2-0.2-0.6,0.2v2.1l-2.5,1.6
							c-1.5,0.8-2.1,0.2-2.3,2.2c1.3-0.2,2.9-1,4.9-2.4c1-0.4,1.3-1.9,0.9-3.8c0-0.1,0.1,0,0.1-0.1l0.8,2c0.2,0.9-0.2,1.5-0.8,1.9
							L1777.2,481.1L1777.2,481.1z M1765.1,473.3v-0.3l0.4,0.3L1765.1,473.3z M1906.3,470.8c1.6-1.1,2.7-4.1,3.1-5.9
							c1.4,2,1,7.5,1,9.7c-1.7-0.4-2-1.3-3.8-1.4C1906.7,472.5,1906.6,471.6,1906.3,470.8L1906.3,470.8z M1765.8,472.9
							c0.1-0.1,0.2-0.2,0.2-0.2l1.8-0.9c0.8-0.3,1.6-0.5,2.5-0.7c-0.1,0.1-0.2,0.1-0.2,0.2C1770,471.8,1767.9,472.9,1765.8,472.9
							L1765.8,472.9z M1789.5,468.4v-0.7c2.6,0,3.8,0.2,5.9,2.1c-1.4,0.2-0.8,0.4-2,0.3c-2.1-0.2-4-1.2-5.6,1.8
							c2.5,0,1.7-0.7,4.5-0.7c-0.4,1.5-0.9,0.8-1,2.8c1.1-0.3,0.2,0.1,1.1-0.6c2.1-1.5,3.7-3.8,7.6-0.2c2.3,2.1,3.4,6.1,3.3,8.4
							c-0.2,3.7-0.1,4.4-1.6,4.6v0.7c2.7,0.1,1.6,0.9,3.4,1.4c-0.2-1.4-0.2-1.4-1.4-1.7c0.5-1.9,0.8-3.9,0.7-5.9l2.3,4.6
							c0.4,0.8,0.7,1.7,0.8,2.7c0.3,1.3,0.7,1.6,0.7,3.1c1.5,0.8,1,0.3,1.9,1.9l2.5,5.1c2.1,5.1-1.7,6.8,0.4,6.8
							c0.8,0,0.8-0.3,1.4-0.7c0.2,3.1,0.8,2,0.2,5.5c-0.4,2.6,3.7,8.6-1.3,11.9v-1c-1.8,0.2-1.6,0.6-2.7,1.5
							c-0.9,0.7-1.9,0.8-2.8,1.3c-2.7-1.4-3.1-1.1-3.1-5.2c0.7,0.2,1.4,0.3,2.1,0.3c-0.2-0.8-0.1-0.5-1-1.4c-1.9-1.6-2.1-3-2.6-1.7
							c-0.1,0.2,0,0.5,0.2,0.9c0.1,0.1,0.2,0.4,0.3,0.4l0.3,0.4c-0.8,1.1-1,2-1,3.8c-1.4-0.9-2.8-3.4-2.8-3.8c0-0.5,1.8-3.8-0.1-3.2
							c-0.1,0-1.1,0.7-1.3,0.8c-0.1-1.6,0.4-1.4-1-1.7c-0.9,4.2-0.3-0.5-0.3,3.8c-3.5,0.9,0.7,1.3-6.3,0.7c0.4-0.9-0.2-0.9,1.5-3.4
							l5-6.5c2.8-1.3,4.4-0.2,4.4-0.2c1.1-2.1-0.2,0.1,4.5-2.5c0-3.8-0.7-4-0.7-5.9c1.1,0.8,0.4,0.7,2.5,0.7
							c-0.2-2.8-2.5,0.2-5.8-9.9c-0.2-0.7-0.5-1.4-0.8-2l-0.7-1.4c-5.5,0-3.2-3.1-5.9-3.8c-0.7,0.8-0.2,1.4,0,2.1
							c-1.8-1.2-2.1-2.3-2.8-4.2c-0.4-1.3,0-0.9-1.4-1c0,3.7,1.5,6.9,5.6,6.9v0.7c-2.6,0.1-4.3,1.2-6.6,1.4
							c-2.5-4.6-3.3-2.5-4.9-1.4v2.8c-3.8,1.8-3.4,1-6-2.4c-0.8-1.1-2-2.5-2.4-3.9c1.5,1.1-0.1,0.9,1.7,1.4c0.5-1,0.3-1,0.3-2.5
							c1-0.6,1.9-1.4,2.7-2.1c0.4-0.4,1.8-1.1,1.8-3.4c0-1.6-1-6.7-3.4-7.3c0.3-1,0.6-1.4,1.6-1.9
							C1785.1,466.2,1786.7,468.3,1789.5,468.4L1789.5,468.4z M1875.4,464.9v1.7h-0.7c0.1-0.5-0.1-0.3,0.2-0.9
							C1875.2,464.7,1875.1,465.3,1875.4,464.9L1875.4,464.9z M1848.2,465.7c3.1,2.1,2.6,0.7,5.2,0c0,0.9-0.1,1.4,0.2,2.2
							c0.5,1.4-0.2,0.5,1.2,1.2c1.4-2.9-1.2-5.4,2.8-8c0.3,1.3,2.7,5.6,5.8,5.1c1.7-0.3,1.5-0.6,2.6-1.3c2.6,0.6,4.8,2.5,6.2,4.6
							l1,1.8c0.5,0.8,0.1,0.1,0.5,0.5c-0.5,0.8-0.9,1.1-1,2.5c2.5-0.1,0.5,0.1,1.8-0.7c0.9-0.5,1.1-0.3,2.1-0.7
							c-0.6-1.1-0.2-1.3-1.7-1.4c-0.1-1.3-0.5-1.8-1-2.8c5,0,7.5,2.7,9.7,6.2c0.4,0.7,0.6,0.8,1,1.4l1.4-0.4
							c0.8,1.1,3.2,3.1,3.1,6.2l0.1,2.5c2.1-0.2,0.7-0.4,2.1-1.4c0.2,1.5,0.7,2.7,0.7,4.2c0,2.3-1,3.7-1.4,5.6
							c-0.1-0.1-0.1-0.3-0.2-0.2c-0.1,0.1-0.1-0.2-0.1-0.2c-0.4-0.8-0.1-0.8-0.8-1.3l-0.9,2.8c-0.7-2.3-0.5-5-0.5-7.8
							c-1.3,0.4-1.4,0.8-1.4,3.4c-0.8-0.5-0.4-0.4-1.4-0.7c0.3,3.6,1.4,0.8,1.4,8c0,1.5-4.8,4.9-6.6,4.9c-2.8,0-2.5,0.2-4.9-0.3
							c0.3-0.5,0.9-1.9-0.1-1.5c-1.8,0.8,0,1.1-3.4,1.1c0.2,1.8,0.4,1.2,2.1,1.4c1.1,0.2,1.5,0.5,2.8,0.7c-1.8,2.7-7.3,2.8-8,2.1
							c-0.3-0.5-0.4,0.7,0-1c-1.4,0.1-9.3,2.7-10.1-6.3c-0.8,0.2-0.2-0.1-0.8,0.3l-0.7,0.8c-0.3-1.1-2.7-7.3,3.4-7.3
							c2.7,0,4.5,3.5,6.9,4.2c-0.4-1.8-0.9-1.5-1.7-2.8c1.2-1.6,3.1-1.1,4-1.5c0.7-0.3,0.7-0.9,1.2-0.9c1.6,0,1.7,1.8,3.1,2.8
							c0.7-1.2,0.3-1.5,0-2.8c1.2-0.3,0.8-0.2,1.4-1c-6-1.4-4.2-1.6-6.8-5.4c-0.7-0.9-0.2-0.6-1.2-0.9c-0.4,0.9-0.1,0.5,0,2.1
							c-2.5-0.5-5-0.9-7.7-2.8c-3.4-2.4-3.8-4.6-5.2-5.6c-0.8,0.5-0.4,0.1-0.7,1c-0.5-0.3-1.1-0.8-1.5-1.3l-2.6-3.7
							c-0.4-0.7-0.7-1.5-0.8-2.3c1,0.7,0.5,0.6,1.7,0.3c-0.1-2-0.4-1.7-1.3-2.9C1848.6,467.4,1848.7,466.8,1848.2,465.7
							L1848.2,465.7z M1941.9,463.5c0.7,0.4,1.5,0.7,2.2,0.9c1.5,0.4,1.1,0,1.9,1.1c-1.7,0-2.3,0.2-3.4,0.7
							C1942.4,465.7,1942,464,1941.9,463.5L1941.9,463.5z M1866.6,460v-0.7c0.6-0.3,1.1-0.7,1.7-1c0.8,1.7,1.6,4.5,5.6,4.5l-0.3,3.8
							c-1.3-0.1-0.9-0.1-1.7-0.8c-1.4-1.4-3.2-2.5-5.3-2.7V460L1866.6,460z M1969.3,461.8c2.8,0,4.4,0.2,6.6,3.2
							c1.2,1.6,2.1,3.5,2.5,5.5c-1.1-0.8-1.2-1-3.1-1l0.7,1.1c2.1,2.7,2.8,3.3-0.4,6.5c-1.4,1.4-2.1,1-3.8,1.8
							c-0.1-2.3-1.2-5.8-1.7-8c1.6,0.4,1.5,1.3,2.6,2c1.4,0.8,1.3-0.5,0.3-1.7c-0.5-0.6-1.2-1.1-1.9-1.5c-1-0.8-1.4-0.5-1.9-1.6
							c-0.4-1-0.3-1.6-0.8-2.7l1.1-1.3c-0.2-0.2-0.8-1.3-0.8-1.4C1968.2,461.9,1968.2,461.8,1969.3,461.8L1969.3,461.8z
							 M1973.5,459.7c0.1,0.1,0.2,0.1,0.2,0.2c0.1,0.1,0.2,0.2,0.2,0.2c0.2,0.2,0.3,0.4,0.4,0.7
							C1973.2,460.4,1973.7,460.7,1973.5,459.7L1973.5,459.7z M1972.4,460l0.1,0.1C1972.6,460.1,1972.4,460.1,1972.4,460L1972.4,460
							z M1972.1,454.1c0.4,0.8,0.2,1,0.5,1.9c1.1,3,1.8,2.2-2.8,3.2c-4,0.9-3.3,1.8-2.5-1.8C1967.9,455.4,1968,455.1,1972.1,454.1
							L1972.1,454.1z M1939.7,456.3c1.2,0.4,1,0.7,1.7,1.5c0.8,0.9,0.8,1.2,2.1,1.3c0,2.5,0.7,2.5,0.7,4.5c-0.8-0.5-0.8-0.7-1.6-1.1
							c-1.3-0.8-1.3-0.2-1.9-1.3C1940.3,459.5,1940,457.9,1939.7,456.3L1939.7,456.3z M1870.1,456.9c1.5,1,1.9,1.1,4,0.5
							c2.9-0.8,2.9-1.9,4-2.7c0,1.8,0.3,2.8-0.6,3.9c-1.7,2.2-3.9,2.8-6,0.9c-0.4-0.3-0.7-0.7-1-1.1
							C1870.4,458.1,1870.3,457.2,1870.1,456.9L1870.1,456.9z M1825.3,456.6c3.1-0.7,7.6-0.8,9.8,2c0.8,1.1,0.1,1,1.7,1.1v-1.4
							c2.6,1.4,2.8,2.4,4.2,4.9l-1.4,0.3c1.7,3.2,0.4,8-2.8,8c-3.2,0-4.2-1.4-5-4.8c-0.4-1.5,0.1-1.1-1.3-1.5
							c-0.5,1.1-0.3,1.3-0.3,2.8c-1.3,0.3-1.3,0.6-3,0.8c-1.8,0.3-1.6-0.5-3.3-0.5c-1.1,0-0.5,1.4,0.8,2c0.6,0.2,1.6-0.5,1.6,3.6
							c0,1.6-0.6,1.5,0,2.8c1.2-0.3,0.8-0.2,1.4-1c1.7,0.8,3.3,0.4,6.3,4.5c2.4,3.1,0.7,2.9,0.6,5.3c2.2-0.2,0.4-0.7,2.6-1.1
							c2.3-0.5,0.1-1.6-0.5-2.3c-0.5-0.7-0.7-1.6-1.1-2.5c5.6,0.2,7.5,3.5,9.7,6.3c1.4,1.8,5.2,1.7,5.3,6.6
							c-0.1,1.1,0.2,2.4,0.7,3.4c0.9-0.6,0.7-0.2,1-1.4h0.7c0.1,1.3,0.7,2.3,0.7,3.4c0,2.2-1,4.2-1.4,5.9l-1-1.7
							c-0.3,1.1-0.6,1.5-0.7,2.8c-1.2-0.9-0.7-4.8-0.7-7.6c-1.5,0.5-1.4,2.3-1.4,3.8l-1.3-1.1c0,3.4,4.2,7.6-1.6,11.4
							c-4.5,3-5.1,1.5-8.6,1.5c0.2-0.5,0.3-1.1,0.3-1.7c-1.8,0.5-1.5,1.5-3.8,1v1.4c1,0.2,3.7-0.2,4.9,1.4c-3.7,1,0.1,1.7-8.4,1.7
							c0.2-1.1,0.4-0.5,0-1.4c-2.2,0.5-4.2,1.7-7.9-1.1c-1.4-1.1-1.9-2.8-1.9-5.1c-1,0.3-0.7,0.2-1.3,1.1c-0.1,0.1-0.1,0.2-0.2,0.2
							c-0.7-3.1-0.7-0.2-0.7-5.6c0.8-0.5,2.8-3.1,5.9-1.4c1.4,0.8,4.2,3.6,5.2,3.8c-0.4-1.8-1.3-1.9-1.7-3.4
							c2.5-0.7-0.8-0.7,3.8-0.7l1.3-1.5c2.7,1.5,1.3,1.9,3.2,3.2c0.8-0.9,0.1-2.2,0-3.1c1-0.3,0.8,0,1-1c-6.1,0-5.1-5.3-7.6-6.3
							c-0.7,0.8-0.2,1.4,0,2.1c-2,0-2.8-0.4-4.3-0.9l-3.4-1.8c-4.2-3.2-3.9-4.7-5.1-5.6c-0.8,0.5-0.4,0.1-0.7,1
							c-1.9-1.3-4.3-4.4-4.9-6.9c1.1,0.5,2.9,0.6,0.7-2.5c-0.5-0.6-0.8-1.3-1.1-2c-1.1-2.8-1.3-6-0.4-8.9l1.5-3c0,2,0.2,2.3,1.4,3.1
							c0.7-1.4-0.1-5.3,2.5-7.9c7.8-8.1,10.4-1.3,10.7-1c0.8,0.6,1.7,0.2-0.2-2.3C1825.8,457.4,1825.6,457,1825.3,456.6
							L1825.3,456.6z M1939.7,456.3h-0.3l0.3-0.4L1939.7,456.3z M1943.6,457.6l-3.2-3.1l5-1.1C1944.9,455,1944.2,454.6,1943.6,457.6
							L1943.6,457.6z M1853.1,453.4c1,0.7,2.8,4.8,3.4,6.3c-1,0.7-0.5,0.7-1.7,1c-0.2-1.3-0.5-2.5-0.8-3.7L1853.1,453.4z
							 M1823.6,455.6c-2.7,0-3-0.3-5.9,1.4c-3.7,2.1-3.8,4.8-6.2,6.3c-3.2,2.1-3.9,6.6-3.9,10.4c0,2.8,1.4,4.5,1.4,6.3
							c0,1-0.2,2.6,0.3,3.9c1.1,3.4,3.8,6.7,6.7,8.7c1.7,1.2,1.7,0,3.2,1.6c1.4,1.4,1.3,1.3,3.1,2.2c2.7,1.3,4.3,2.1,8.4,2.1
							c0.5,1.9,3,2.6-1.4,3.1c-1.1,0.2-1.8,0.8-2.8,1.4c-1.5-0.9-3.1-1.4-4.9-1.4c-2.1,0-4.5,2.4-4.5,4.5c0,2-0.1,3.8,1.3,5.3
							l1.3,1.8c1.5,2.8,4.2,2.8,4.7,5.4c0.8,0.1,1.6-0.1,2.5-0.3c0.4,1.5,2.1,1.1,3.3,1.3l4.8-0.8c2.4-0.6,1.1,0.3,2,0.3
							c1.9,0,1.7-0.9,2.8-1.3l3.1-1.5c0.2,1,0.7,3,1,3.8c-1.1,0.1-2.1,0.5-3.3,0.8l-10.6,3c-0.8-1.2-0.4-1-1.7-1.7
							c-0.3,1.5-0.1,0.6,0,2.5c-4.7,0.4-12.3,4.2-17,4.5c0.5-1.1,0.1-0.9,0-2.5l2.2-1.2c0.7-0.9-0.4-0.2,0.8-1.2
							c0.9-0.8,0.4-0.2,1.2-1.3c1.6-2.1,2.6-3.2,2.6-6.8c0.1-1.4-0.3-2.7-0.9-3.9c-1.7-3.3,0.8-4.4-1.3-8.7
							c-0.6-1.3-0.4,0.4-0.5-1.5c-0.2-1.9-0.3-3.3-1.1-5.1l-4.5-8c-0.4-1.1-0.4-2.2-0.8-3.4c-0.7-2.5-1.7-5.1-3.6-6.9
							c-0.9-0.9-0.4,0.3-0.9-1.1c-0.3-0.8-0.2-0.9-0.4-1.6c-0.2-0.5-0.4-0.9-0.7-1.4l-1.5-1.9c-0.1-0.1-0.2-0.2-0.2-0.2
							c-0.1-0.1-0.2-0.2-0.2-0.2c-0.9-0.8-2.1-1.3-3.2-2c-1-0.7-3.3-3.9-7.5-3.9c-1.8,0-1.9,0.5-3.3,0.2c-3.4-0.7-6.9-1-8.8,2.5
							c-5.8,0-8.8-0.4-13,1.6c-2,0.9-3.8,2.1-5.5,3.6l-0.8,0.9c-1.6,1.9-1.6,4-0.8,6.3c2.3,6.4,2.3,6,9,6c-1.4,5.8-1,2-1,9.4
							c0,2.5,1.4,3.1,1.3,4.8c-0.2,1.9,0,3.9,0.4,5.8c0.4,1.6,0.9,3.2,1.5,4.8c1.4,3.6,0.2,9.1,4.2,13.5l3.2,5.1
							c1,1.8,0.8,3.4,3.1,3.6v0.7c-3.6,0-3.5,0.7-9.1-0.3c-1.6-0.3-3-0.4-4.5-0.8c-1.5-0.4-2.6-0.7-4.2-1.1
							c-12.1-3.7-22.7-13.2-26.4-25.4c-2.2-7.2-2.8-13.7,0.2-21c1.8-4.6,4.6-8.2,8.8-10.7c6.4-3.7,14.6-5.5,21.7-7.2
							c1.3-0.3,2.5-0.7,3.7-1.1c1.1-0.5,2.5-0.7,3.8-1.1l60.5-17c1.1-0.3,2.5-0.7,3.8-1c1.1-0.3,2.5-0.8,3.9-1
							c0.3,1.1,0.5,1.6,0.8,3.1l1.8,6.6c0.3,1.3,0.8,1.9,0.9,3.3c0.2,3.6-0.1,4.5,1,7.3c1.4,3.7-1.5,5.6,4.8,12
							c2.8,2.8,4.1,2.4,6.2,4.2c3.2,2.8,6.3,3.7,10.9,3.7c0.4,1.6,0.6,1.3,1.4,2.5c-0.9,0.2-0.4-0.2-0.7,0.7c-2.8,0-3.2,0.7-4.9,1.7
							c-2.6-1.7-2.3-1.4-5.6-1.4c-1.6,0-3.2,2.1-3.4,3.4h-0.7c-0.1-1.1-1.5-3-2.2-4.4c-2.4-5.1-4.5-3.8-5.9-6l-1.9-2.7
							c-0.1-0.1-0.1-0.2-0.2-0.2l-0.9-0.8c-2.7-2.2-4.9-2.7-9.1-2.7c-1.5-2.2-3.9-3.5-6.6-3.4v-3.6c1.8-0.2,1.6-0.6,2.8-1.4
							c0.4,1.3,1,2.4,1.8,3.4c2.7,2.7,7,1.5,8.8-1.5c1.1-1.8,1.5-4.8,1.5-7.2c0-4.8-3.9-6.2-7.4-7.9c-2.6-1.2-3.7-2.2-8.5-1.5
							C1825.6,454.7,1824.1,455.6,1823.6,455.6L1823.6,455.6z M1948.1,453.1v0.3l-0.4-0.3L1948.1,453.1z M1948.5,452.8l-0.3,0.3
							L1948.5,452.8z M1852.8,452.8l0.1,0.1C1852.8,452.8,1852.8,452.8,1852.8,452.8L1852.8,452.8z M1878.5,451.7l0.4,0.7
							L1878.5,451.7z M1864.2,452.1c1.1,0.3,3.8,3,3.8,3.8v1.4l-2.1,0.4C1865.2,456,1865,453.6,1864.2,452.1L1864.2,452.1z
							 M1964.4,451.4c1.1-0.1,2.3-0.3,3.4-0.7c0.2,1.1,0.4,2.3,0.7,3.4h-1c-0.2-1.6,0.4-0.6-0.7-1.4c-0.4,1.4-0.6,2.8-0.7,4.2h-0.3
							C1965.5,455.1,1965,453.2,1964.4,451.4L1964.4,451.4z M1948.5,452.8c0.5-0.7,1.2-1.2,2.1-1.4
							C1949.8,452.4,1949.8,452.4,1948.5,452.8L1948.5,452.8z M1878.5,451.7l-0.4-0.7L1878.5,451.7z M1971,448.6
							c0,2,0.5,2.5,0.7,4.2c-0.6,0.2-1.2,0.4-1.7,0.7C1970,451.1,1968.7,449.2,1971,448.6L1971,448.6z M1950.8,451l-0.3,0.3
							L1950.8,451z M1951.2,450.7l-0.3,0.3L1951.2,450.7z M1951.2,450.7v-0.3l0.4,0.3L1951.2,450.7z M1913.3,450.3h-0.3l0.3-0.4
							L1913.3,450.3z M1969.6,446.8c-0.1,0.5-0.3,1.1-0.5,1.5c-0.8,1.4-3.5,1.5-5,1.6c-0.2-0.7-0.3-1.4-0.3-2.1
							C1966.7,447.9,1967.6,446.9,1969.6,446.8L1969.6,446.8z M1969.6,446.8v-0.3l0.4,0.3L1969.6,446.8z M1938.7,453.8
							c0-2.6-0.5-2.5-1-4.5l7.4-2.1c1.3-0.4,2.6-0.7,3.8-1c1.1-0.4,2.7-0.8,3.8-1.1c-1.3,2.7,0.1,3.1-5.1,6.3
							c-1.1,0.8-4.2,0.9-6.8,2C1938.9,454.1,1940.5,454.2,1938.7,453.8L1938.7,453.8z M1947.8,444.1c-0.2,1.8,0.3,0.6-0.7,1
							L1947.8,444.1z M1948.8,444.4c0.5-1,1-6.2,1-8l0.7-0.2c0.4-0.1,0.7-0.1,1.1-0.2l1,7.6C1951.4,444.1,1950.1,444.3,1948.8,444.4
							L1948.8,444.4z M1969.6,445.8c-2.1,0.2-4.3,1.2-6.6,1.4c-0.1-1.9-0.9-2.5-1-4.5c2.1-0.7,4.4-1.3,6.6-1.7
							C1969.6,443.1,1968.7,443.9,1969.6,445.8L1969.6,445.8z M1929.3,442l0.1,0.1C1929.4,442.1,1929.3,442,1929.3,442L1929.3,442z
							 M1895.9,484.4c0.5,0.3,3.6,2.1,2.8,0.6c-0.4-0.7-1.6-1.4-2.1-1.7c-3.5-3.1-2.8-6.9-2.8-11.7c-0.2,0.1-1.1-0.3-1.4,2.5
							c-1-0.8-0.9-1.1-1.4-2.5c-1.5-3.7-1.5-6-2.5-9.7c0.9,0.6,0.9,0.9,2.1,0.3c-0.5-1.7-1.9-1.7-2.7-3.6c-0.8-1.8-0.8-2.9-0.8-5.5
							l1.4-0.7c-0.7-2.9-2-2-1-6.2c0.1,0.1,0.2,0.1,0.2,0.2c0.2,1.5,2.2,5,2.3,5.4c1-0.8,0.8,0.1,0.3-1.3c-0.8-2.7-2.6-7.9,0.8-10.4
							c1.2-0.9,2.1-1.5,4-1.5c-0.4,0.9-0.3,0.4-0.3,1.7c1.7-0.2,0.9-0.2,1.8-1.3c3.1-3.9,6.4,0.8,6.8,3.4c0.5,3.4-1.1,2.5,1.1,6.1
							c2,3,2.3,6.5,2,10.9c-0.1,1.1-2.8,5.4-0.1,3.8c0.3-0.2,0.5-0.4,0.8-0.7c0.3-0.5,0.2-0.4,0.4-1h0.7c0.1,1.3,0.5,1.8,1,2.8
							c-0.5,0.3,0.7,0.4-1,0c-0.4,1.6-1.5,4.3-2.8,5.2c-0.3-1.5-1.4-2.7-2.8-3.1c0.2,1.6,0.9,2.1,1.7,4.5c0.4,1.8,0.7,3.7,0.8,5.5h1
							l0.4-1.4c4.2,0.9,5.6,6.1,5.5,10.1c-0.1,2.6-0.5,2.4-1.4,3.8c0.6,2.6,3,3-2.5,6.6c0.2-1.4,0.3-1.9,0.3-3.8h-1
							c0,0.7-0.2,1.3-0.5,1.9c-2.3,4.8-7.3,0.5-8.1-0.8c-0.8-1.2-1.1-2.5-1.7-3.8c0.6,0.1,1.1,0.2,1.7,0.3
							C1898.8,486.9,1896.6,487.2,1895.9,484.4L1895.9,484.4z M1952.9,436.1c7.1-0.6,4.2-4.5,7.5,7.4c3.2,11.1,5.8,22.2,9.3,33.5
							c0.7,2.1,0.1,1.5,0.5,2.9c0.7,1.8,0.7,1.4,0.7,3.8c-2.2,0.5,0.1,0.7-4.5,0.7c-0.2-1.6-0.5-1.7-1-2.8c-0.2-0.3-0.3-0.7-0.4-1
							l-4.2-9.4c-0.6-1.2-0.1-1-1.4-1.4v1.7l-1.1-1c-0.1-0.1-0.1-0.2-0.2-0.2c-1.1-1.5,0.4-0.5-3.6-2.3c-1.6-0.8-3.8-1.3-6.1-2.7
							c-2.3-1.5-3.8-3.3-3.8-6.6c0-1.1,3.1-3.7,4.2-4.3c2-1.3,3.4-1.8,4.2-4.2c0.6-1.7,1.1-5.5,0.8-7L1952.9,436.1L1952.9,436.1z
							 M1770.3,434.3c-0.2-0.4-0.2,0-0.3-0.7c-0.1-0.3-0.1-0.7-0.1-1h0.3L1770.3,434.3L1770.3,434.3z M1769.6,430.9
							c0.2,0.3,0.2,0.1,0.5,0.6c0.3,0.7,0.1,0.2,0.2,0.8h-0.7V430.9z M1941.5,430.2v1c-1.1-0.1-0.7,0-1.4-0.3
							C1940.9,429.8,1939.9,430.3,1941.5,430.2L1941.5,430.2z M1877.8,430.5c0-0.8,0.5-0.2,0.2,0
							C1878,430.5,1877.8,431.5,1877.8,430.5L1877.8,430.5z M1770,430.2l0.1,0.1C1770.1,430.3,1769.9,430.2,1770,430.2L1770,430.2z
							 M1770.7,429.1v0.3l-0.4-0.3L1770.7,429.1z M1771,428.4l-0.3,0.7L1771,428.4z M1877.1,424.9c0.1,1.5,0.3,1.9,0.3,3.8
							c-1,0.3-0.5,0.2-1.4,0.7l-2.8-1.4L1877.1,424.9z M1933.8,426.3v0.3l-0.4-0.3L1933.8,426.3z M1913.3,450.3h3.1
							c-0.1-0.1-0.2-0.2-0.2-0.2l-3.9-3.1c-0.7-0.6-0.9-1.1-1.5-1.9c-1.9-2.1-2.1-5.5-0.5-8.3c1.4-2.2,1.7-2.3,4.4-2.9v-1.4h-1
							c1.6-2.2,6.5-0.6,9.1,2c2.8,2.8,3.7,4.8,5.5,8.1c-0.4,0.6-1.4,1.5-1.5,2c-0.6,2.4,2.2-0.7,3.9-1c1.6-0.4,1,0.5,2.5-0.2
							c-0.7-0.9-0.7-1.3-2.1-1.4c-0.2-1.8-0.7-2.7-0.7-4.9c0-3.3,0.4-6.4,3-8.1c1.1-0.7,2.8-1.5,4.3-1.6c-0.4-1.4-0.2-1-3.8-1
							c2.8-2.4,5.8-0.3,6.9,0c0,1.4-0.2,1.1,0.3,2.1c-2.1,0.5-2.3,2.6-4.3,3.7c-1.1,0.6-0.9,0.3-1.3,1.5c1.8-0.2,2.7-1.4,4.8-1.3
							c2,0.2,1-0.1,3.2,3.3c2,0,2.4,0.3,4.5,0.3c0,3.9-1.6,6.9-3.1,9.7h-3.4c-0.3,1.3-0.1,0.9-1.4,1c-0.1-1.7,0.3-3.4,0.9-5
							c0.9-2.1,1.8-2,2.2-4c-3,1.6-3.8,1.7-4.7,6.4c-0.4,2.1,0,1.5,0.2,3.3c-1.4,0.1-1.5,0.2-2.5,0.7c0.2,1.8,0.5,3.6,0.9,5.4
							l4.7,14.5c2-0.2,1.9-1,4.5-1c0.7,1,1.1,2.1,2.1,2.8c0-2,0-1.8-0.7-3.1l5.9,2.8c0,6.5-1.8,4.4-1,6.3c1.1-0.8,2.6-3.4,2.8-5.2
							c0.8,0.2,1.1,0.4,1.6,1.1c1.1,2.1,1.1,5.4,0.7,7.8c-1,5.5-3.6,3.6-8.2,3.6c0.4-1.6,1.1-1.3,0.3-2.8c-1.1,0.8-0.4,0.5-1.1,1.6
							c-0.8,1.1-0.9,0.4-1.3,1.9c2.2,0,2.1,0.3,3.8,0.7c-2.1,1.4-5.7,1.1-7.6-1.7c-0.9-1.3-1.6-1.5-3-2.6c-1.1-0.8-1.5-2.2-1.9-3.7
							c1.1-0.6,2.1-1,2.5-2.5c-1.1,0.3-2.2,0.8-3.3,1.3c-1.5,0.6-2.1,0.5-4,0.5v1c0.5,0.2,1.1,0.3,1.7,0.3c0,2.5-0.1,2.4-1,3.8
							c-1.1-0.8-0.8-1-2.5-1.4c0.1,2.5,3.3,5.1-0.4,9c-1.2,1.2-2.9,3.2-6.1,2c-1.5-0.5-1.4-1.1-1.5-1.6c-1.5,0.2-0.6-0.1-1.7,0.7
							c-0.8-1.1-4.4-3.6-4.9-8.7c-0.2-1.8,0.7-2.7,0.7-4.2h0.4c0.1,2,0.8,3.8,1.9,5.5c0.5,0.8,1.2,1.4,2.1,1.8
							c1.3,0.7,1.9,0.8,2.7-0.2c-0.8-0.2-0.5,0.1-1.2-0.5c-2.6-2-4-5.5-4-9.2c0.1,0.1,0.2,0.1,0.2,0.2c0.1,0.5,2.7,3.1,4.4,4
							c-0.1-0.8,0.1-0.6-0.8-1.6c-3.8-4.5-3.2-6-2.7-9.8c0.2-1.6,0.7-3,1-4.5c1.6,0.4,3.9,1.1,4.5-1c-3.1,0-4.3-1-6.3-2.5l-4.4-4.7
							C1914.8,452.5,1914.2,452,1913.3,450.3L1913.3,450.3z M1871.2,427.4c-0.8-0.4-1.6-0.7-2.5-0.7V426c1.5-0.4,2.5-1.4,3.8-2.1
							l4.2-1.7v2.1C1874.2,424.8,1873,426.1,1871.2,427.4L1871.2,427.4z M1872.9,421.1l0.1,0.1
							C1873,421.2,1872.9,421.1,1872.9,421.1L1872.9,421.1z M1964.3,425.2l-1.4-4.8l0.2-0.1c1,1.5,2.1,3.4,2.1,5.2
							c-0.2,3.1,1.7,3.1-5.2,6.6c-4,2-6.2,2.1-10.4,2.1c-8,1.8-6.8-3.7-7.5-9.2c0.9-1.8,1.8-2.1,4.4-3.3c1.6-0.8,3.4-1.5,5.2-1.7
							c1.9-0.3,4-0.9,5.9-1c2-0.2,4.6,0.1,5.6,1.4c-1,0.2-0.5-0.1-1,0.7c0.7,2.8,1,4.4,1,8C1965.2,429.4,1964.8,427.5,1964.3,425.2
							L1964.3,425.2z M1876.1,420.1l0.1,0.1C1876.2,420.2,1876,420.1,1876.1,420.1L1876.1,420.1z M1876.3,417.5l0.1,1.1h-1
							L1876.3,417.5z M1964.7,415.5c2.6,0,5.1,4.4,5.2,7.3c-1-0.7-0.5-0.7-1.7-1c0.2,2.5,1.7,4.5,1.7,7.6c0,2.8-0.3,4.4-0.3,7.3
							c0.7-0.1,0.2,0.2,0.8-0.2l0.5-0.5c1.4,5.8,1.7,2.6,1.7,11.1c-0.9-0.7-0.6-0.5-1-1.8c-0.2-0.8-0.3-1.3-0.6-2.2
							c-0.4-1.4-0.9-2.7-1.5-4l-8.4,2.1c-0.2-2.1-1.6-4.8-2.1-6.9c1.7-0.4,3.4-1.6,4.8-2.5c3.8-2.5,3.1-5.7,1.3-10.2
							c-0.7-1.7-1.7-3.4-3.7-3.6c0.2-0.3,0.4-0.5,0.5-0.8C1962.7,416.5,1963.8,415.5,1964.7,415.5L1964.7,415.5z M1956.4,416.6h4.2
							c-0.2,0.8-0.1,1-1,1h-1.4c-0.9,0-1-0.2-1.7-0.3L1956.4,416.6L1956.4,416.6z M1865.9,416.6c-0.8,1.1-0.3,1.1-1,0H1865.9z
							 M1865.9,416.6v-0.3l0.4,0.3L1865.9,416.6z M1865.9,420.1c0.1-1.3,2-4.2,3.4-4.5c-0.3,1.1-0.8,1.3-1.5,2.3
							C1867.3,418.7,1866.9,419.5,1865.9,420.1L1865.9,420.1z M1781.1,415.5v0.3l-0.4-0.3L1781.1,415.5z M1871.2,419.7l5.2-6.6v2.1
							c-0.9,0.7-1.8,1.5-2.5,2.4C1872.9,418.8,1873.1,419.3,1871.2,419.7L1871.2,419.7z M1872.9,414.8c-0.9,1.4-3.7,5.1-5.2,5.6
							c0.9-1.8,2.5-3.1,3.8-5.6H1872.9z M1872.9,414.8v-0.3l0.4,0.3L1872.9,414.8z M1892.4,482c-3.6-2.5-0.1-4.2-7.1-8.2
							c-1.5-0.8-3.1-6.2-8.9-6.8v-4.5c1.9-1,3.1-2.2,3.7-4.6c0.6-2.5,1.1-4.4,0.3-6.9c-0.4-0.9-1-1.8-1.6-2.6
							c-2.6-3.1-2.6,0.2-6.2-6.7c2.3,0.5,5.8,0.3,7.6-0.7c2.5-1.3,3.1-2.3,3.1-5.9c1.6-0.1,9.1-2.4,11.3-3l22.6-6.4
							c9.4-3,23.8-6.8,33.8-9.7c1.9-0.5,9.2-2.5,10.9-3.3c2.9-1.5,14.3-2.5,18.5-3.1c4.6-0.5,15.3,0.1,19.8,2.1l6.6,3.8
							c1.3,0.8,1.1,0.5,2,1.8c5.5,7.4,9.1,18.8,7.7,27.7l-2,5.4c-1.5,3.6-2.6,6.8-4.6,9.7c-3.5,5.8-12,13.1-13.6,13.5l-10.3,5.7
							c-1.5,0.7-4.8,1.6-6.4,1.6c0-3.1,1.1-2.8,1.4-4.2c-0.1-1.3-0.4-1.4-0.4-3.1c0-2.7,0.3-3.8-1-6c-0.4-0.8-0.7-1.5-1.1-2.3
							c-0.9-1.8-2.5-2.4-3.2-3.8c-1.4-2.5-0.5-7.2-0.5-8.5c0.1-1.8-0.2-1.6-0.5-3c-0.4-1.5,0.5-4.2,0.5-6.1
							c0.1-4.5-1.7-7.8-3.5-10.4c0.1-1.5,0.4-1.9,0.4-3.8c-0.1-1.3-0.5-2.6-0.5-3.4c0.2-2.8,1.1-3.4-0.2-7c-0.7-1.9-1.8-3.8-3.5-4.8
							c-1.2-0.8-3.4-1.1-4.9-0.2c-1.4,0.9-0.5,0.1-0.9,1.1c-2.6-0.2-2.8-1.5-5.9,0c-1.1,0.5-1.1,1-2.8,1.1c-3.9,0.1-2.8,1.5-4.9,2.8
							c-0.8,0.5-1.7,0.5-2.7,1.1c-1.4,0.9-3.5,2-3.9,3.7c-4.3-1-7-2.4-10.5,2c-1.5,1.9-2.4,6.2-2.4,8.7c0,1.3,0,2.6,0,3.8
							c-1.7-1.3-5.7-11.2-14-8.8c-3,0.8-3.3,2.7-5,4.4c-5.9,6.1,0.2,12.8,0.4,13.4c1.5,3.1,3.1,6.2,5.5,8.7c1.4,1.5,3.1,4,5.1,4.6
							c-0.7,2.8-1.6,6-2,8.7c-0.4,2.6-0.2,3.1-1.5,5.1c-0.2,0.2-0.3,0.5-0.5,0.9c-0.5,0.8-0.6,0.8-1,1.8c-1,3,0,7,1.3,9
							c1.6,2.6,2.8,3,3.4,4.6c0.2,0.7,0.5,1.3,1,1.8c4.3,0,3.2,0.8,5.6,0.9c5.5,0.4,5.7-1.9,7.5-5.8c0.9-1.9,1.3-3.5,0.8-5.8
							c1.9-1.3,1.5-1.8,2.1-4.2l0.7,1.4c0.2,0.4,0.5,0.8,0.9,1.1c1.1,1.1,0.8,1.3,2.8,1.3c0.1,2.6,2.8,4.8,5.2,5.2
							c2.1,0.3,4-1.5,4.9,1.7c-2.6,1.3-32.2,9.3-37.3,10.7c-1.5,0.4-1.5,0.5-1.8-1.1c-0.9-4.2,2.6-5,0.2-9.6
							c2.3-4.5,0.8-9.7-1.4-12.9c2.1-4.1,1-13.6-3.1-16.3c1-4.2,0.2-11-3.4-13.6c0.7-2.9,0.5-5.6-1.1-8c-3.2-4.5-5.7-2.2-7.3-1.9
							c-0.7,0.2-1.4,0.1-2.2,0.2c-1.3,0.2-2.5,0.6-3.5,1.4c-2.1,1.6-3.2,2.8-3.2,6.5c-1.4,0.4-1.7,1.6-2,2.9
							c-0.2,0.7-0.2,1.5,0.1,2.1c0.3,1.3,0.3,1.1,0.8,1.9c-4,6,1.4,7.2,1,11l0.1,3.9C1888.3,473.2,1892.4,475.2,1892.4,482
							L1892.4,482z M1781.1,415.5c2.9-4.4,8-6.2,12.4-8.8c1.5-0.9,3.8-0.5,6.8-0.5c3.2,0,7.3,2.6,9.4,4.8c0.6,0.5,1.2,1.1,1.9,1.5
							c0.7,0.5,1.3,1.3,1.9,1.9c1.3,1.3,2.3,2.6,3.8,3.6c0,3.5,2.6,11.7,5.1,15c3.7,4.9,6.1,5,10.3,7.4c1.4,0.8,0.6,0.5,1.3,1.9
							c0.7,1.6,1.6,2.2,2.5,3.4l-2.1,0.4l-2.3-1.6c-1.6-0.9-6.4-4.3-7.8-4.4c1.1,2.1,1.3,2.2,3.2,3.8c0.7,0.5,1.3,0.9,2.1,1.4
							c1.3,0.8,1.6,0.4,2,1.8c-2.1-0.1-3-0.9-4.9-1.4c0.2,1.4,0.2,1.4,1.4,1.7c-0.8,1.1,0.1,0.4-1.5,0.9c-0.6,0.2-1.3,0.4-1.9,0.5
							c-1.1,0.3-2.7,0.9-3.9,1c0-7.3-8.5-29.5-11.9-34c-1-1.4-1.6-2.7-3.8-2.8c-0.4,1.8-0.2,1.4,1.3,4.3c2.3,4.4,4.3,8.9,5.9,13.6
							l2.5,6.9c0.4,1.2,0.5,1.5,0.9,2.6c0.7,1.8,2.6,8.8,2.7,10.5c-1.7,0.1-8.6,2.1-10.5,2.7l-31.2,9.1c0-3-1-4.5-1.8-6.9
							c-0.3-0.9-0.7-2.4-0.9-3.2l-2.5-10.7c-0.4-2.7-1-4.6-1-7.6l0.2,0.5c0.3,1.4-0.1,0.9,0.5,2h1.4c0-5.8-1.8-4.2,0.6-7.4
							c0.6-0.8,0.9-1.3,1.5-2c0.8-1.3,2.4-2.9,2.8-4.5c-2.1,1-1.1-0.2-3.6,2.3c-1.1,1.2-1.5,2.4-2.7,3.2c0.5-2.1,2.7-3.8,4.1-5.3
							c3.3-3.3,7.5-5.3,11.7-7c2.9-1.1,4.3-1.9,5.7-4c-2.8,0-6.3,1.4-8.7,2.4C1782.8,414.9,1782.2,415.2,1781.1,415.5z
							 M1861.1,409.6c0,6.5,6.2,3.6,6.3-0.7c0.1,0.1,0.2,0.1,0.2,0.2l1.2,1.5c1.5,0,4.6,0.3,4.9-3.1c0.8,0.7,1.8,1.1,2.8,1.4v3.1
							l-10.2,2.3c-1.1,0.3-2.2,0.7-3.3,1.1c0.2,2.1,1.8,4.8,2.8,6.9c3.6,0,4.8-1,6.9-1l-5.4,3.3c-0.7,0.3-0.3,0.1-0.9,0.5
							c-0.4,0.3-0.5,0.4-1,0.8c-1.5-2.2-0.1-0.7-1.1-3.8l-2.5-7.9c-0.6-1.3-1-2.4-1.6-3.6c0.1-0.1,0.2-0.2,0.2-0.2L1861.1,409.6z
							 M1863.2,411.4c0-1.1-0.2-1.7,0.8-2.4c0.8-0.6,0-0.3,1.3-0.1C1865.2,410.5,1864.8,411.2,1863.2,411.4z M1861.5,408.9l-0.3,0.7
							L1861.5,408.9z M1869.5,408.6c0.1-1.1-0.2-1.3,0.7-1.8c0.4-0.2,1.4-0.5,1.4,0.4C1871.6,408.4,1870.7,408.6,1869.5,408.6
							L1869.5,408.6z M1876.1,405.1h0.3v1.4h-0.3V405.1z M1936.6,393.6v0.3l-0.4-0.3L1936.6,393.6z M1936.9,393.3l-0.3,0.3
							L1936.9,393.3z M1936.9,393.3l1-1.1C1937.7,393.3,1938,393,1936.9,393.3L1936.9,393.3z M1872.9,394.7
							c-0.5-2.2-0.7-2.1,0.7-4.2c3.8,0.3,3.1,2.5,1.9,3.6C1874.6,394.9,1874.5,394.7,1872.9,394.7L1872.9,394.7z M1862.9,391.9
							c3.2,0.8,6.3,1.9,3.4,6.6c-0.3,0.5-1.8,2.2-2.5,1.5C1863.5,399.7,1863.4,393.2,1862.9,391.9L1862.9,391.9z M1935.6,392.2
							c0.2-1.5,2.2-3.4,3.4-4.2c-0.2,2.2-1.3,1.6-3,3.6c-0.1,0.1-0.2,0.2-0.2,0.2L1935.6,392.2z M1861.5,408.9
							c0.3-1.3,0.9-2.1,1.4-3.2c0.5-1.1,0.8-2.2,1.1-3.4c2.3,0,2.9-0.8,4-2.2c0.5-0.6,0.8-1.3,1.2-1.9c0.3-0.9,0.5-1.9,0.7-2.8
							c0.2-2.7-2.2-6.4-7.3-5.2c-0.2-0.5-0.3-1.1-0.3-1.7c3.1-0.7,8.5-1.1,12.2-1.4c1.3-0.1,2.5-0.6,3.8-0.7l-0.4,2.8
							c-3-1.5-1.3-1-4.2-0.4c-1.5,0.3-0.9-0.2-1.9,0.8c-3.4,3.2-0.9,10.1,5.1,6.9l-0.3,6.6c-2.2,0.1-2.3,1-2.8,2.8l-0.5-0.5
							c-1.7-1.5-5.5-0.7-5.8,3.4l-1.4-1.7c-2.5,0-2.3-0.2-2.9,0.5L1861.5,408.9L1861.5,408.9z M1862.2,402c0,1-0.8,2.8-1.2,3.7
							c-0.5,1.1-1,2.6-1.9,3.3l-3.1-5.3c-1.4-1.6-4.8-1-6.7-1c-1.3,0-1.2,0.4-2.5,0.7v1l8.2,0.2l2.2,4.9l-0.3,0.4l-2.1-4.7l-3.9-0.4
							c-1.6,0-1.4-0.3-1.7,1c1.1,0.5,2.5,0.3,4.2,0.3c0.9,1.7,1.8,4.3,3.8,4.9c-0.3-1.3-0.4-1.1,0-1.7c0.3,1.1,4.2,10.6,5.6,16.3
							c-5.5-0.5-9.6-3.6-15.3-2.1c-1.4,0.4-1.4,0.2-1.7,1.4c1.7,0.8,0.2,0,2.1,0h4.5c1.6,0,1.1,0.3,2.5,0.3v0.3c-2.6,0-8,2.8-9.9,4
							c-1.5,0.9-7.5,4.5-7.5,6.8c0,1,0.5,1,1.4,1c0.9,0,1.5-0.9,2-1.5c3.6-3.7,12.8-8.2,19.2-8.2c6.9,0,11.3,2.3,16.5,5.5
							c1.8,1.1,3.3,1.6,4.4,3.3c-1,4.2-5.2,3.1-8.4,2.5c-4.2-0.8-2.1-1-7.6-5.9c-1-0.8-0.3-0.8-2-0.8c0.1,1.6,1.5,2.9,3.1,4.9
							l5.3,6.9c0.5,0.8,1.1,1.6,1.7,2.5c0.5,0.9,1,1.6,1.5,2.6c1.2,2.1,1.3,2.7,1.3,5c-5.4,3.6-5.1,0.8-10.2-4.5
							c-6.4-6.7-2.2-2.4-6.9-9.4c-0.5-0.9-1.4-1.5-2.4-1.8c-1.2,1.5,3,6.2,4.6,10.7c0.3,0.9,0.5,1.7,0.8,2.7c1,3.1,4.2,9.3,2.1,11.5
							c-2,2-3.7-2.4-4.4-3.7l-8.4-15.3h-2.1c-0.2,2-0.2,2.6,0.3,4.6l2.3,8.8c0.5,1.5,1.3,3.9,1.3,5.4c-0.5,0.4-1.1,0.8-1.7,1
							c-2.3-1.3-2.1-2.6-3-5.4c-1.4-4.3-2.5-8.4-4.2-12.5c-0.5-1.3-0.8-1.5-1.8-2.5c-1.3-1.2-1.1-1.4-2.8-0.9
							c0.1,0.6,0.2,1.1,0.3,1.7c-1.9-0.5-2.7-2.3-3.6-4.1c-0.5-0.8-0.9-1.8-1.1-2.8c-0.3-1.5,0.1-2.1-0.5-3.3
							c-1.1,0.4-1.4,0.8-1.4,2.8c-2.8-1.5-5.5-3.4-7.8-5.8c-3.8-3.8-4.7-9.4-5.9-14.3c-0.5-2.3-0.5-3-1.4-5.5
							c-1.3-3.6-1.8-7.5-2.7-11.3c-3.1,2-1,7.8-0.3,10.8c-1.1-0.3-0.8-0.3-1.6-1.1c-0.4-0.5-0.9-0.9-1.5-1.3c0-3.9-1-8.1,1.1-11.7
							l4.2-6.2c1.4-1.6,3.6-2.7,3.3-3.4c-0.6-1.7-9.2,5.3-10.9,12.6c-0.4,1.5-0.2,5.1-0.2,6.8l-6.6-3.1c0-4.6,1.6-10,3.5-13.9
							c2-3.8,4.3-7.4,6.9-10.8c2.2-3,6.8-8.1,9.9-9.9c1.1-0.7-0.1-0.2,1.5-0.6c3.6-1.1,11.5-1.5,11.9-1.6c1,1.3,5.8,3.7,7.6,4.5
							c2.5,1.3,8.5,6,10.7,8.1c2.7,2.6,5.4,9.4,5.7,13.1c-1.7-2-2.5-3.6-4.8-5.7c-1.2-1.1-5.2-3.6-7-3.8c0.1,2,0.2,1.4,1.6,2.2
							c3.3,1.9,6.2,4.5,8.4,7.6C1859.7,394.8,1862.2,400.1,1862.2,402L1862.2,402z M1910.5,374c1.5,0.1,0.8,0,1.7,0.3l11.7,4.3
							c1.8,0.9,3.3,2.9,4.5,4.5c2.5,3.1,1.8,3.1,2.8,6.2c0.8,2.1,1.7,4.5,2.3,6.7c0.7,2.3,1.6,4.3,2.3,6.8c0.2,0.6,0.2,1,0.5,1.6
							c0.2,0.7,0.4,1,0.7,1.8l3.9,10c-1.5,0.4-3.7,1.3-5.2,1.4c0.8-1.8,0.4-6.2,0-8h-0.7c0,2.5-0.4,4-0.8,6.2
							c-0.4,2.8-0.4,2.4-3.9,3.4l-33.9,9.5c-3.3-6.2-3.2-13.7-4.3-19.3c-0.2-1.1-0.5-1.6-0.5-2.9c-0.5,0.1-1.1-0.3-2.1,1.5l-0.4,2.7
							c-0.3,4.8,0.6,9.1,1.7,13.6c0.8,3.3,1.8,4.2,2.1,5.6l-9.7,2.8c-1.7,0.5-1.8,0.7-3.5,0.3c0.8-3.7,0.4-6-0.2-10.6l-0.3-11.3
							c-0.1-0.6,0-9.1,0.2-11.2l2.6-15.8c1-3.9,1-3.9,5.6-6.9c3.8-2.4,9.4-4.9,14.3-4c2.8,0.5,7.5,3.1,9.4,3.1
							C1911.3,374.4,1911.2,375.1,1910.5,374L1910.5,374z M1851.4,373.8l0.1,0.1C1851.5,373.9,1851.4,373.8,1851.4,373.8
							L1851.4,373.8z M1910.5,373.8h-0.3l0.3-0.4L1910.5,373.8z M1976.2,356.7v-0.3l0.4,0.3L1976.2,356.7z M1980.1,349.1l0.1,0.1
							C1980.2,349.2,1980,349.2,1980.1,349.1L1980.1,349.1z M1980.8,348.4v0.3l-0.4-0.3L1980.8,348.4z M1981.1,347.7l-0.3,0.7
							L1981.1,347.7z M1981.1,347.7v-0.3l0.4,0.3L1981.1,347.7z M1911.2,347.4v0.3l-0.4-0.3L1911.2,347.4z M1981.8,346.6v0.3
							l-0.4-0.3L1981.8,346.6z M1981.8,346.6v-0.3l0.4,0.3L1981.8,346.6z M1982.5,345.6v0.3l-0.4-0.3L1982.5,345.6z M1982.5,345.6
							v-0.3l0.4,0.3L1982.5,345.6z M1830.2,295.1c1.9,0.9,5.8-0.3,8-0.3l-8.8,7.9c-2.9,3.5-5.1,5.4-7.1,10.3l-2.5,5.8
							c-0.8,2.1-1.6,4.3-2.1,6.6c-1.1,4.4-2.8,14.4-1.8,19.7c0.3,1.6,0,2.9,0.3,4.5c1.5,7.4-0.5,1.7-0.5,8.2c0,0.9,0.2,0.9,0.3,1.7
							c-3.1,2.1-3.6,8.7-4,12.4c-0.4,3.2,1.6,3.1-2,7.4c-1.9,2.2-6,8.9-6.5,11.2h-0.7c0-1.1-4.8-32.8-6.1-34.6
							c-0.5-0.6-0.1-0.3-0.8-0.5c0,3.6,1.6,12.4,2.3,16.1c1.1,6.1,2,15.6,3.9,20.9c0.5,1.6,0.4,0.6-0.6,4.8l-3.4-17.8
							c-0.6-3.8-5.5-32.4-5.6-36.5c-0.1-1.5-0.3-3.1-0.5-4.7l-0.5-5.1c-0.3-5-1-7.9,1.1-13.5c3.8-10.1,8.6-14.4,17.4-20.2
							c8.4-5.5,7.8-3.7,15.8-5.4c4.7-0.9,15-1.8,18.9-2.7c-1.3,1.8-4.9,1.6-7,2C1834.6,293.8,1831.3,293.6,1830.2,295.1
							L1830.2,295.1z M2005.1,293.1l-2.8-1.4c1-1.5,3.4-3.7,5-5.1c1.6-1.6,2.6-5.2,4.1-6.4c2.1,3.9,2.1,4.4-1.8,9
							C2008.2,290.7,2006.9,292.1,2005.1,293.1L2005.1,293.1z M1999.9,290.7c-4.5-2.1-2.7-1.5,2-7.8c0.9-1.2,3.5-5.1,3.9-6.6
							c0.7,0,1.3,0.2,1.8,0.7c1.3,0.9,2.2,1.3-0.2,5.1C2005.5,285.2,2003,289,1999.9,290.7L1999.9,290.7z M1996.4,277.4l-0.3,0.3
							L1996.4,277.4z M1996.4,277.4v-0.3l0.4,0.3L1996.4,277.4z M1997.1,276.3v0.3l-0.4-0.3L1997.1,276.3z M1997.1,276.3V276
							l0.4,0.3L1997.1,276.3z M1998.2,274.9c2.5-3.8,5.9-1.4,5.9,0c0,0.8-1.1,2.3-1.5,3l-5.5,8.5c-3.4-0.8-1.9-2.2,0.2-5.7
							c1.5-2.5,2.8-4.6,1.6-5.5C1998,274.6,1998.6,276.3,1998.2,274.9L1998.2,274.9z M1996,277.8c-0.8,3.7-4.3,6-3.3,8.5
							c0.5,1.1,1.3,1.5,2.6,1.6c0,1.4-0.1,2.7,1.1,3.7c1.5,1.1,2.2,1.1,4,1.1c1,1.5,1.3,1.4,2.5,1.7c1.3,0.4,0.2,0.1,1,0.4
							c2.3,0.9,4.4-0.9,5.7-2.5l4.9-6.6c1.8-3.3-0.5-0.8,3.4-4.2c0.1-0.1,0.2-0.1,0.2-0.2l1-1c0.2-0.3,0.3-0.4,0.6-0.8
							c0.5-0.5,0.8-0.8,1.4-1.4l2.8-3.1l1.4,0.4c-0.1,1.7-1.8,4.2-2.8,5.5c-2.8,3.4-6.8,8.2-8.7,12.1c-1.5,2.9-2.6,5.2-5.3,7.2
							c-1.3,1-5.8,7.6-7,9.7c-2.1,3.7-1.1,2.1-2.2,6.4c-5.4,21.5-8.4,16.2-12.1,21.7c-3.7,5.6-1.3,2-3.8,3.8
							c-5.5,4.1-6.1,9.5-8.1,12.8c-0.8,1.3-1.6,2.2,0.7,1.7c-0.4,1.6-3.2,4.5-4.5,5.7c-4.1,4.1-8.4,2.5-14.4,5.8
							c-1,0.6-1.9,1.3-2.8,2c-0.4,0.4-0.8,0.8-1.2,1.1c-0.8,0.8-0.8,0.5-1.1,1.6c-4.2-1.1-11.3-16.9-12.7-21.4
							c-0.4-1.3-0.5-2.6-1.5-3.4c0,8.2,4.4,15.9,8.7,22.6c0.3,0.5,0.7,0.9,1.1,1.4l2.8,2.8c1,0.8,0.3,0.8,2,0.8
							c0.7-1.5,1.7-2.8,3.1-3.8l0.1,2.8c-0.2,1.5-0.4,2.1-0.4,3.4c-2.5,0.5-5.1,2.5-7.8,3.4c-2.8,0.9-6.4,1-8.9,2.2v1.4h1
							c-0.6,0.8-1.6,1.4-2.5,2c-1.1,0.8-1.3,1.8-2.7,2.1c-1.1-4.8-4.9-10.6-9.2-13.4c-2.4-1.5-5-2.6-7.7-3.4
							c-7.4-2.5-11.3-3.2-19.3-2.7c-2.4,0.2-7.3,1.6-8.7,2.7l-4.9,3.4c-1.5,1.1-3.4,2.3-4.4,4c-0.7,1.5-1.1,2.9-1.4,4.5
							c-3.4,0-14.6,1.1-17.4,2.5c-0.2-3.1-4.2-8.3-6.4-10.3l-2.8-2.5c-0.1-0.1-0.2-0.1-0.2-0.2c3.5,0.1,7.8,2,11.5,2.1
							c7.4,0.2,10.4,1.3,18-1.9c1.1-0.5,0.8-0.1,1.1-1.3c-1.5,0.2-3,0.4-4.5,0.8c-1.5,0.3-3.1,0.5-4.6,0.6c-1.5,0.1-2.8,0.5-4.9,0.4
							c-1.3-0.1-0.9-0.3-2.5-0.4l-7.3-0.7c-5-0.5-9.7-2.5-14.1-4.3c-0.8-0.3-1.2-0.5-1.9-0.9c-3.3-1.6-6.9-3.9-9.4-6.5l-8.9-9.6
							c-0.6-0.8-0.6-0.8-1.8-1c0.3,3.7,5,8,7.5,10.5c1,1.1,2.5,1.9,3.2,3.1c-2.9,0-6.6,0.7-9.1,0.8c-1.7,0.2-5,2.9-6.2,4.2l-3.9,3.4
							c0-5.1,1.4-7.4,2.5-11.8c2.1,0.5,3.2,2.8,5.6,1.7c-0.5-1.9-2.5-2.5-3.8-3.9c-1.6-1.8-0.6-4.2,0.3-5.8
							c-0.2-0.9-0.5-1.1-0.7-1.8c-0.5-2.5-0.4-9.5-0.4-12.5c-0.1-8.5,2.9-17.4,6-24.6l3.6-6.8c1.5-2.5,7.6-8.2,10.4-10.4
							c3-2.3,6.3-4.2,9.9-5.5c1.7-0.7,2.2-0.5,4.3-0.9c10.7-1.9,19.8-1.6,29.9,1.8c0.6,0.2,1.1,0.4,1.7,0.7c1.9,0.9,3.8,1.4,5.5,2.5
							c4,2.7,7.8,6.4,10.1,10.8c-1.1-0.2-1.3-0.5-2.1-1c-0.8-0.5-1.3-0.5-2.1-1c-1.4-0.7-2.9-1.5-4.4-1.9l-0.6,0.8
							c0.9,1.8,5.5,3.2,8.7,5.4c4.4,2.8,7.8,7.1,9.6,12c0.5,1.6,1.6,3.9,1.8,5.5c0.3,2.6,0.7,12.1,1.1,12.8c0.8-0.6,0.8-0.5,1-1.8
							c0.2-1,0.3-1.6,0.4-2.4c0.2-2.1-0.2-3.6-0.3-5.2c-0.5-5.8-2.5-12.1-5.9-16.7c-0.5-0.7-0.7-0.8-1.3-1.5l-2.8-2.8
							c-0.7-1.2-1.4-6.4-7.9-12l-6.8-4.8c-1.6-0.9-11.5-3.7-13.4-3.7v-0.3c5.1,0,6.2-0.9,10.8,0.7c8.8,3,12.1,6.3,19.2,11.4
							c5.1,3.7,5.1,6.2,6.7,11.7l1.3,4.6c0.4,1.9,0.6,3.4,0.9,5.4c0.3,1.6,0.5,3.3,0.9,5.1c1,5.8,1.1,10.3,2.6,16.2l-5.6,3.8
							l-0.3-2.8c0,1.4-3.4,10.1-4.8,12c-0.7,0.9-1,1.6-1.7,2.5l-1.9,2.3c-3.2,3.6-4.1,2.2-4.3,4.5c6.2-1.5,11.4-10.1,11.8-15.7
							c2.2-0.1,2.5-1.1,5.7-3.3l14.6-8.4c1.3-0.6,2.2-0.9,3.4-1.5c0.6,0.3,1.1,0.5,1.9,0.9c1.3,0.7,0.6,0.8,2,1.1
							c-0.5,0.7-1.7,1.7-1.7,2.5c-0.1,3,3.2-1.2,4.2-2.1l5.1-3.6c0.8-0.5,1.7-1.1,2.6-1.6c1.5-0.8,7.9-3.1,8.7-4.2
							c1.5-2.2,0.3-1.2,2.5-3.8c0.8-1,0.5-2.3,3.1-5.7c0.3-0.4,0.5-0.8,0.9-1.1c0.9-1,1.3-1.5,2.6-2l5.8-2.8c0-2,0.4-4,1-6l2.1-5.1
							c1.3-2.5,2.6-2.6,6.1-3.9c1.2-0.5,1.7-0.5,1.9-2h-1.7c0.5-2.1,0.3,0.3,2.9-4c2.8-4.6,4.4-2.3,1.5-9.8l-3.9-10.7
							c-1.2-2-1.9-2.4-3.7-3.6c0.1-1.3,0.4-1.6,0.7-2.8c0.8,0.4,1.6,0.5,2.5,1c3.1,1.8,5.2,7.1,6.2,8.4c0.3,0.4,0.4,0.5,0.8,1
							c1.5,2.1,3.4,2.8,6.6,2.8C1994.9,279,1995.2,278.3,1996,277.8L1996,277.8z M1975.5,268.7c0,3.1,4.5,3.4,5.5,8.7
							c0.6,3.1,1.6,5,2.7,7.8c2.2,5.6,1,1.7-2.8,8.7c-0.6,1.1-1.5,1.9-2.1,3.1c-1.1,1.9-0.8,1.3-2.8,2.3c-2.5,1.2-3.1,3.6-4.3,5.8
							c-0.8,1.6-1.1,1.6-1.7,3.5c-0.5,1.5-0.8,3.1-0.7,4.6c-4.8,2.5-6,2.1-9.6,7.1c-0.5,0.7-1,1.4-1.3,2.2l-3.7,6.4
							c-0.2,0.2-2.1,0.9-2.5,1c-1.6,0.7-3.2,1.4-4.8,2.2l-8.4,5.5c-5.7-3.8-5.5-2.9-13.1,0.8c-2.7,1.3-4.9,2.7-7.4,4.1
							c-0.2-5.2-4.4-29.1-5.8-33.8c-0.8-2.5-1.6-5.1-3.4-7c-3.1-2.9-6.3-5.6-9.7-8.1c-5.2-3.5-12.1-7.5-20-7.5l-7.3,0.3
							c-2.7,0-4.7,0.7-7.6,0.7c-7.7-0.1-21.7,2-30.2,3.2l-14.4,2.3c-3.1,0.5-3.7,0.3-6.8,1.6l-4.7,2.9c-4.8,4.2-8.8,4.8-13.7,12.1
							c-1.2,1.9-2.2,2.8-3.3,5.1c-0.5,0.9-0.9,1.9-1.3,2.8c-1.5,3.6-2.2,7.4-2.3,11.3c0,1.5,0.6,2.7,0.9,4.3c0.6,3.4,0.4,6.4,1,9.8
							c0.3,1.8,0.4,3.1,0.6,5c1.5,12.4,3.8,25.1,5.8,37.4l3.6,18.4c-1.9,0.2-4.8,0.2-6.4,0.9c-0.1,0.1-0.2,0.1-0.2,0.1
							c-7.8,3.4-11.8,6.6-13.7,8.6c-2.5,2.8-6.7,5.1-10.4,12.6c-0.5,0.8-0.8,1.7-1.1,2.7c-1.3,3.9-0.4,3.7-0.2,7.2
							c0.1,1.6,0.2,3.2,0.4,4.8l5.8,20.6c0.1,0.1,0.1,0.2,0.2,0.2l1.3,2.1c-2.6,0.2-11,3.2-14.5,3.9c-8,1.6-13.5,3.6-20.2,8
							c-4.5,3-8,8.8-9.1,14.2c-1,4.9-1,10,0,14.9l4.6,11.4c2.2,4.2,5.1,7.6,8.5,11c6.1,6,16.8,10.6,25.5,10.7
							c12.8,0.2,7.3-1.8,10.5,5.5c1.1,2.6,3.1,3.9,6.2,3.9c3.1,0,6-0.7,8.7-2.1c1.3-0.5,2.5-1.3,3.6-2l3.1-2.5
							c0.3,0.6,0.5,1.1,0.9,1.9c0.9,2.1,2.3,3.8,3.6,5.5c1.4,1.8,7.4,2.5,9.7,2.5c7.4,0,12.6-2.3,18-6l8.2-8.1
							c1.9-2.8,2.5-8.9,3.4-12.6c0.5-1.7,0.5-1.5,2.2-1.9c1.1-0.2,2.1-0.5,3.2-1c2.1,3.1,13.1,7.6,18.8,7.6
							c2.4,3.6,7.9,3.8,11.9,4.5c6.6,1,15.8,1.9,22.4,0.7c6.4-1.3,14.9-4.6,20.6-7.5c0.8-0.4,1.5-0.8,2.3-1.1
							c2.7-1.1,4.2-2.5,5.9-4.9c0.8-1.1,2.1-3.5,2.2-5.1c1.6,0,3.2-0.2,4.8-0.4l9.9-2.9c5.8-2.8,10.1-5.8,10.7-13
							c2.5,0.6,4.1,1,6.9,1c4.2,0,9.2-2.1,11.9-4.8l2.3-2.2c1.9-1.6,0.2-5.8-0.4-7.6c-0.6-2,0.8-1.2,2.8-1.8c2.6-0.7,5.1-2,7.5-3.3
							c4.2-2.2,7.5-5.1,11-8.1l0.4-0.3c0.1-0.1,0.2-0.1,0.2-0.2c0.3-0.3,0.4-0.4,0.7-0.7c4.2-4.2,3-2.8,7.2-8.7l2.1-3.4
							c6.4-12.7,6.8-21.5,1.6-34.7l-1.4-2.8c-0.5-0.8-1-1.5-1.6-2.2c-1.7-2.3-4-4.2-6.4-5.8c-1.1-0.8-1.1-0.9-2.3-1.5l-2.8-1.4
							c-0.4-0.2-0.8-0.4-1.1-0.5c-9.7-3.3-17.2-3.2-27.4-1.6l-8,1.4c-1.3,0.3-1.8,0.4-2.8,0.7c-4.6,1.3-8.5,3-14.4,4.5
							c-1.5,0.4-3.9,1-5.1,1.5c-0.3-1.5-0.4-2.8-0.8-4.4c-0.6-2-3.7-11.4-3.7-12.7c0-0.4,0.9-2.5,1.1-3.1c0.7-1.7,2.8-8.8,3-10.5
							c4.5,0,8.6-2.4,12-4.1c3.3-1.6,3.7-2.1,3.7-6.7c0.1-1.1-0.2-2.4-0.7-3.4c2.1-1.1,3.5-2.3,5.9-2.8c2.1-0.3,6.1-0.9,7.5-1.9
							c0.5-0.4,0.3-0.3,0.8-0.6c4-3.1,7-7.6,9.1-12.1c1.9-4.3,5-7.8,7.5-11.6c5.5-8.2,6.1-4.6,8-8.4l3.2-6.2
							c3.2-7.4,2.6-12.7,2.8-13.5c0.5-0.8,1-1.5,1.6-2.1c1-1,0.8-1.2,1.5-2.3c0.9-1.6,2.1-3.4,3.1-4.9c2.8-4.1,2.8-2.1,7-9.1
							c2.4-4.1,5.4-7.9,8.2-11.6c1.8-2.3,4.6-5.6,4.6-8.6c-0.5-0.2-1-0.4-1.5-0.7c-1.5-0.9-1.3-0.8-3.1-0.8l-2.1,2.4
							c-0.5,0.4-0.7,0.6-1.1,1c-0.7,0.5-0.7,0.4-1.4,1c-0.8,0.8-1.4,1.5-2.2,2.3l-2.5,2c-0.9-2-1-3.9-3.8-4.2
							c-0.2-2.1-2.3-3.7-4.5-3.8c-0.3-3.6-4.6-4.5-7-2.8c-1.6,1.1-3.2,3.1-4.4,4.7c-0.8,1-0.5,0.9-1.5,1.6c-1.6-0.8-2.9-1.9-4-3.3
							l-5.6-7.6c-1.2-1.2-2.8-1.9-4.6-2.3C1977.1,265.3,1975.5,266.3,1975.5,268.7L1975.5,268.7z M1870.5,370
							c-6.6,0-6.1-0.2-12.1-1.5c-0.9-0.2-2-0.7-2.9-0.9c-8.2-2.2-15.3-5.9-22.1-11c-7.6-5.7-5.5-6.2-5-9.6c0.2-1.4,0.5-2.7,0.9-4
							c1.1-3.8,1.5-4.9,3.2-8.3c0.4-0.8,0.4-0.8,0.8-1.6c3.4-6,8.1-11.1,13.8-15.1c2.8-2,3.9-2.1,6.7-3.8l7.6-3.6
							c0.7-0.3,1.1-0.3,1.8-0.6c3.9-1.4,12.7-3.1,15.4-2.7c5.2,0.8,18.7,6.7,21.5,11.9c1.4,2.7,2.1,3.1,4.2,7.6
							c4.6,9.6,1.7,21.5-4.2,29.5c-2.6,3.6-10.1,9.7-14.5,11.2c-2.3,0.8-4.8,1.3-7.2,1.5C1875.8,369.6,1873.6,370,1870.5,370
							L1870.5,370z M1826,348.7c0,4.8,3.8,7.3,6,9.3c3,2.7,2.7,2.3,5.8,4.3c3.4,2.3,7,4.2,10.9,5.5c3.2,1.1,6.1,2.2,9.4,3.1
							c8.1,1.9,22.1,1.9,29.1-1.6c6.4-3.2,10.4-5.8,15-11.4l1.7-2.5c5-8,7-19,3.2-28.3c-0.4-1-0.7-1.9-1.1-2.7
							c-0.5-0.9-0.9-1.5-1.4-2.5l-4.9-6.6c-0.1-0.1-0.2-0.2-0.2-0.2l-1.6-1.5c-3.4-2.9-14.4-8.1-18.7-8.1c-14.4,0-25,4.7-36.8,13.4
							l-3.4,2.8C1832.2,328.3,1826,339.4,1826,348.7L1826,348.7z M1747.7,510.9l0.2,0.2l-0.1-0.1
							C1747.8,510.9,1747.7,510.9,1747.7,510.9L1747.7,510.9z M1742.9,506l-0.4-0.7L1742.9,506z M1742.9,506l1.1,2
							c0.4,1.1,0.5,1.4,1,2.5c0.8,1.6,1.3,3.1,2,4.6c0.7,1.5,1.2,3.1,2,4.6c0.3,0.8,0.8,1.5,1.2,2.2c0.9,1,1.1,0.7,2.4,0.4
							c0-3.3-0.5-4.8-1.3-7.4l-2.9-10.3c-0.3-1.2-0.5-2.3-0.9-3.6c-0.7-2.4-1.3-4.9-1.7-7.3c-0.3-1.5-0.5-1.9-0.3-3.4
							c0.4-2.1-0.8-2.6-1.9-1.5c-1.4,1.4,2.4,15.6,3.1,18.3c0.3,1.1,0.8,2.2,1,3.6c-1.2-1.4-4.5-11.4-6.6-12.9
							c-0.3,0.2-0.7,0.3-1,0.3c0,4.8,1.1,7.6,2,11.6c0.4,1.7,0.3,2.3,1.8,2.7C1743.9,509.2,1743,508.4,1742.9,506L1742.9,506z
							 M2094.9,292.7c-0.8-0.2-6.6-3.7-6.6-1c0,1.6,0.8,2,1.8,2.7c0.9,0.7,1.9,1.2,3.1,1.5c-0.3,1.1-1.5,3.6-2.1,4.5
							c-4.6,7.9-0.3,6.1,0.7,4.5c0.9-1.4,3.4-5.9,3.8-7.3c2.6,0.2,0.6,1,4.9,1c-0.3-3.2-2.8-4.1-2.8-4.5c0-1.1,0.8-2.1,1.1-3.3
							c0.9-2.5,0.3-1.2,0.2-3.6h-0.7c-0.5,1.4,0.2-0.1-0.9,1.1C2096.3,289.5,2095.6,291.3,2094.9,292.7L2094.9,292.7z M2175.9,513.3
							c-2.8-1.5-3.7-1.9-5.9-0.7c0,3.1,0.9,2.4,3.1,3.4c-0.5,2.1-3.8,3.2-3.8,5.2c0,3.3,5,0.2,6.9-3.4c0.7,0.4,1.5,0.7,2.2,0.9
							c3.1,0.8,1.6,1.4,2.4,0.5c0.7-0.7,0.2-0.4-0.4-1.5c-1.2-2.6-0.8-1.1-1.8-2.7c1.4-2.1,2.8-2.9,3.4-5.9
							C2179.5,509.4,2177.5,512.3,2175.9,513.3L2175.9,513.3z M1601.3,309.3c0,2.1,0.3,2.5,0.3,4.5c-2.7,0.7-2.8,6.1,0.2,4.3
							c0.7-0.4,0.3-0.1,0.5-0.8h0.7c0.2,1.5,0.7,2.8,1.1,4.2c0.8,2.3,0.8,2,3.1,1.8c1-4.2-0.4-3.9-1.4-8.4c2.8-1.9,4.9-2.2,4.9-4.2
							c0-2.7-5.6,0.3-6.3,0.7c-1.1-2-1.5-3-3.1-3.1L1601.3,309.3L1601.3,309.3z M1826,331c0.8-0.3,1-0.8,1.8-1.6l8.4-9.3
							c0.1-0.1,0.2-0.1,0.2-0.2l3.4-2.9c0.7-0.6,1.1-0.9,1.9-1.5c3.8-3.2,11.3-7.4,15.9-8.4v-1c-5.3,0.4-10.7,3.2-15,6.3l-6,4.8
							c-1.3,1.3-3.4,2.5-5.5,5.2c-0.4,0.5-0.2,0.4-0.7,1l-2.6,3C1827,327.4,1825.5,329.7,1826,331L1826,331z M1641.2,485l-4.8-2.6
							c-0.9-0.5-1.9-0.5-2.8-0.2c-2.2,0.8-1.1,2-1.1,2.1c0.8,1.8-0.2-0.2,3.1,1.7c1.1,0.7,2.3,1.1,3.4,1.7c-2.1,3.1-2.8,1.6-2.8,4.2
							c3.6,2.4,6-2.5,6.3-3.4c1.2,0.1,2.8,1.1,2.8-0.7c0-1-0.4-0.9-1.4-1c0.6-2.6,2.8-4.3,2.1-7.3c-1.1,0.1-0.9-0.3-2.8,2.5
							L1641.2,485z M1690.7,308.2c-2.5-0.5-8.7-3.8-7.3,2.1c2.2,0.5,2.2-0.1,5.2,1.4c-1.6,3.1-3.1,3.7-3.1,7l1,0.7
							c0.4-0.1,0.8-0.2,1.1-0.3c1-0.5,1.5-1.5,2.1-2.5c0.8-1.3,1.3-2.6,2-3.9c1.1,0.1,1.1,0.4,2.3,0.2c0.8-0.2,1.7-0.2,2.6-0.2
							c-0.4-1.4-2.6-2.5-3.8-3.1l1-5.2L1690.7,308.2L1690.7,308.2z M1877.1,310.5c0.2,2.8,2.1,0.5,8,3.4c6.7,3.4,7.2,5.1,10.9,9
							c0.8,0.8,0.8,0.9,1.4,1.7c1,1.2,4,6.3,5.1,6.7c-0.9-4-2.8-8.4-5.5-11.3c-3.9-4.3-3.7-4.2-9.1-7.6
							C1886.1,311.2,1880,309.3,1877.1,310.5L1877.1,310.5z M1980.1,377.6c-1.3-0.7-2.8-1.6-4.5-1.7c-0.1,0.1-0.2,0.1-0.2,0.2
							c-0.2,1-3.2,1.3,2.6,4.4c-0.2,0.4-4.2,6.6-1.7,6.6c2.1,0,2.4-1.7,3.7-3.6c0.5-0.8,0.6-0.7,0.8-1.6c4,0.9,1.3,1.5,6.3,1
							c-0.2-2-2.2-2.8-4.2-3.8c1.3-2.3,2.4-3.6,2.5-6.3c-1.6,0.2-2,1.1-2.8,2C1981.5,375.6,1980.8,376.6,1980.1,377.6L1980.1,377.6z
							 M2062.8,386.7c-3.2,0-3.9-0.3-5.9,1c0,2.3,0.1,1.4,1,2.8h2.8c-0.7,2.8-1.7,1.5-0.3,4.2c2.9,0,2.4-0.2,4.2-3.4
							c0.8,0.2,5.2,1.8,5.2,0.3c0-1.6-2.6-3.2-3.8-3.8c0.1-1.9,1.5-6.3,0-6.3C2064.6,381.4,2063.2,385.3,2062.8,386.7z M1746,268
							c-1.4,0-5.9-1.1-5.9,0.7c0,1.6,0.5,1.9,1.9,2.3c1.2,0.4,2.5,0.7,3.7,0.8c0,3.3-0.3,2.8,1,4.9c3.4-2.3,0.5-4.6,3.4-4.9
							c1.9-0.2,1.1,0.2,2.5-0.7c-0.5-2-1.5-2-3.1-2.8c0.3-0.7,1.2-3.7,0.3-4.5c-1-0.5-1-0.3-2.5-0.3L1746,268z M1948.8,276
							c-1.9-0.5-1.2-0.7-3.8-0.7c-0.9,1.4-1,0.4-1,2.8c1.4,0.8,3.8,1.5,3.8,2.1c0,1.5-1.9,5.2,0.7,5.2c1.5,0,1.7-0.5,2.2-1.6
							c0.5-0.9,0.8-1.9,0.9-2.9c1.3-0.3,1-0.5,2.5-0.7c-0.5-1.7-0.8-1.8-1.7-2.1c0.1-1,1.3-6.3-1-6.3
							C1949.9,271.9,1949.1,274.8,1948.8,276z M1675,393.7c-0.1-0.1-4.9-3.8-4.9-0.3c0,1.1-0.2,1,0.5,1.5l2.2,1.9
							c-1.5,2.2-3.6,4.2-3.7,5c-0.2,2.4,5,1.3,6.1-2.8c1.7,0.2,1.7,0.7,3.8,0.7c0.1-0.3,0-0.7-0.1-0.9l-0.5-0.8
							c-2.7-3.9,0.7-2.1-0.4-6.9C1676.5,391,1676.2,391.8,1675,393.7z M1816.9,313.9c-1.1,0.8-5.7,9.4-6.4,11
							c-0.1,0.1-0.2,0.4-0.2,0.5l-8.1,15.6c-0.8,1.6-1.6,3.1-2.2,4.7c-0.6,1.5-1.7,3.4-1.8,5.1c1.5-0.2,1.3-0.5,1.9-1.6
							c0.4-0.9,0.7-1.4,1.1-2.3C1803.6,341.9,1816.6,317.5,1816.9,313.9L1816.9,313.9z M2083.2,486.9c-0.3,1.3-0.7,2,0,3.5
							c1.4,3.1-0.3,2.3,2.1,3.5c0.6,0.3,5.6,5.7,5.6,3.1c0-1.5,0.1,0.1-0.3-1c-0.2-0.6-0.2-0.5-0.4-1.3c-0.3-0.8-0.6-1.5-1-2.1
							c0.8-1.1,6.5-5.6,3.1-5.6c-1.5,0-4.1,1.8-5.2,2.5C2086.2,487.7,2086.1,485.8,2083.2,486.9L2083.2,486.9z M1949.1,462.9h0.3
							l-0.3,0.4L1949.1,462.9z M1954.4,461.8c0.2-1.6-0.4-0.6,0.7-1.4C1955.7,462,1955.4,461.3,1954.4,461.8L1954.4,461.8z
							 M1952.2,461.5v-1C1953.8,461.5,1952.4,461,1952.2,461.5L1952.2,461.5z M1953.3,463.2c0.8,0,0.4-0.2,1.4-0.3
							c-1.1,1.5-4.9,1.9-4.9-2.1c-0.1-0.7,0.2-1.3,0.6-1.8c0.2-0.2,0.5-0.5,0.7-0.7c0.1-0.1,0.2-0.1,0.2-0.2l0.5-0.5
							c1.5,0.3,2.1,0.1,2.8,1h-2.5c-0.5,0.8-1.4,1.4-1.1,2.6C1951.3,462.3,1952.2,463.1,1953.3,463.2L1953.3,463.2z M1949.1,462.9
							c-1.4-1-1-1.6-1-3.8c1-0.7,0.5-0.7,1.7-1C1948.5,460,1948.5,460.1,1949.1,462.9L1949.1,462.9z M1946.3,461.1
							c0,3.4,7.8,5.9,9.6,1.6l0.2-0.5c2-5-1.6-4.9-4.6-5.6c0.1-0.1,0.2-0.2,0.2-0.2l0.9-0.5c0.4-0.2,0.9-0.3,1.4-0.4l-1-1
							c-0.7,0.3-1.6,0.5-2.3,0.8C1949.5,456,1946.3,458.6,1946.3,461.1L1946.3,461.1z M1864.6,335.5c0,5.1-1.3,9.8-2.7,14.4
							c-0.5,1.5-1.4,2.8-1.5,4.4c1.5-0.2,2-0.8,2.6-2c1.5-2.7,3-8.4,3.3-11.3c0.5-5.2,0.1-5.4,0-8c0-2.1-0.3-6.4-2.1-7.7
							C1864.2,329.3,1864.6,331.9,1864.6,335.5L1864.6,335.5z M2191,331.3c-2.1-1.4-1.1-2.1-3.8-2.1c-0.6,1.3-1,2.3-1,3.4
							c0.9,0.5,1,0.7,2.5,0.7c-1,1.4-0.1,0.3-1.7,0.8c-2.9,0.9-0.6,2.8-0.4,3.1c4,0,3.4-1.1,4.5-1.4c1.6,0.1,1.4,0.3,3.1,0.3
							c-0.1-1.3-0.5-1.6-1-2.5c2.7-4.1,2.3-3.5,1.4-4.9C2192,330.2,2192.5,330.4,2191,331.3L2191,331.3z M2046.8,315.7
							c3.1,0,5.6-1.7,5.6-5.2c-2.5-1.6-1.5-0.4-2.5-2.5c-1.6-0.2-3.8-0.8-5.5,2.5c-0.6,1.1-1,2.1-0.4,3.3
							C2044.5,315,2045.6,315.7,2046.8,315.7z M1719.9,536.3c-1.7-0.5-1.6-1.7-3.1-1.7c-1.6,0-2.5,2.2,1,4.5c-2,3.8-3.4,2.6-1.7,5.2
							c2,0,2.5-1,3.8-3.1c1.8,0.4,1.5,1.1,3.4,0.7c-0.1-1.8-0.4-2-1.7-3.4c1.8-2.7,1.5-3.1,0.7-4.5
							C1721,534.2,1720.3,534.6,1719.9,536.3L1719.9,536.3z M1763,528.3c-0.1-2.1-1.3-4-2-5.7c-0.8-2-1.6-3.8-2.2-5.7
							c-1.2-3.4-3.4-8.7-4.2-11.9h-1c0,2.6,2.6,10.7,3.3,13.1l2.2,5.8c0.4,0.9,0.9,1.9,1.4,2.8
							C1761.3,527.9,1761.1,528.3,1763,528.3L1763,528.3z M1788.4,384.5c-1.2,0.8-1.3,1.7-2.8,1.7c-2.9,0-3.2-2.8-4.9,0.3
							c1,1.9,1.6,1.9,3.8,2.5c-0.1,0.1-0.2,0.1-0.2,0.2l-0.3,0.3c-0.9,1.3-0.4,1.4-0.2,2.6c1.1,0,2,0.1,2.7-0.5
							c0.2-0.2,1.4-1.7,1.5-2c2,0.9,1.6-0.3,3.1,0.3c-0.3-1.3-1.1-1.8-1.7-2.8c0.4-1.8,1-4.3-1.4-4.5
							C1788.1,383.5,1788.2,384,1788.4,384.5L1788.4,384.5z M1989.8,444.4c0-2.2-0.2-1.6-0.5-3.3c-0.3-1.2-0.1-2.6-0.3-3.9
							c-0.4-2.5-0.8-5.1-1.1-7.2c-0.3-1.4-0.3-1.9-0.5-3.3l-3.1-10.2c0,6.2,1.6,16.3,3.1,22c0.3,1.3,0.7,2,1,3.2
							C1988.7,443.5,1988.2,444,1989.8,444.4L1989.8,444.4z M1821.8,418.7c2.6,0.5,1-1.1,7-8.2c1.9-2.3,0.8-1.1,3.6-2.3
							c0.8-0.3,0.7-0.4,1.5-0.6c2.1-0.7,4.4-0.8,5.6-2.4c-2.1-1.1-6.2,0.5-8.1,1.3c-3.4,1.3-5.3,3.9-7.5,7.1
							C1823.1,414.6,1822,416.8,1821.8,418.7L1821.8,418.7z M1994.4,413.4c1,1.4,3.5,1,7,3.4l6.4,6.4c0.3,0.4,0.5,0.5,0.8,0.9
							c0.9,0.9,0.9,1.1,2.3,1.5c-1-2.1-0.2-1.6-2.4-4.6c-1-1.4-3.7-4.4-5.1-5.3c-0.9-0.5-1.4-0.8-2.2-1.3
							C1999.9,413.8,1995.2,412.4,1994.4,413.4L1994.4,413.4z M1885.1,385.6c0,2,2.8,2.5,1.9,7.8c-0.2,1.1-0.2,2.2-0.2,3.3
							c0,1,0.2,0.7,0.7,1c1.5-1.1,0.2-2,1.7-3.1c0.2,2,1,2,1.4,3.4h0.7c0.1-1.2,0.2-1.2,0.2-2c-0.1-1.9-0.9-4.1-1.5-5.7
							c-0.7-1.9-2.2-4.8-3.9-5.8C1885.8,384.8,1885.1,385.1,1885.1,385.6z M1903.9,507.4c0.6,2.2,4.5,3.5,6.4,4.3
							c8.6,3.4,8,2.1,13.1,2c-0.7-0.9-0.9-0.7-2.1-1c-1.1-0.2-1.5-0.3-2.6-0.5l-9.4-3.1C1907.6,508.5,1904.6,506.3,1903.9,507.4
							L1903.9,507.4z M1802.7,374.8c1.3,0,1.4-1.9,2.5-4.8l4.9-10.4c0.3-0.9,0.6-2,1-2.8c0.5-0.9,0.8-1.8,1-2.8
							c-1.3,0.3-1.6,1.9-3.1,4.5l-1,1.8c-0.3,0.5-0.1,0-0.4,0.7l-3.9,8.3C1803.5,369.9,1801.1,374.8,1802.7,374.8L1802.7,374.8z
							 M1826,283.3c-2.1-1-2.1-0.7-3.4,0c-0.1,2.8,0.2,0.8,0.7,2.8c-1.2,0.3-1.1,0.4-1.4,1.7c2.9,2,2.9-0.5,4.5-1
							c1.1,0,3.4,0.3,3.4-0.7c0-1.1-0.6-1.1-1.4-1.4c0.3-0.4,2-3.1,0.3-3.1C1828,281.6,1826.6,282.9,1826,283.3L1826,283.3z
							 M1807.5,447.5c2.8-0.1,2.8-2.6,2.8-7.3v-6.3c0-2.5-0.5-3.6-0.7-5.6h-0.7c0,1.7-0.4,2.4-0.4,4.5c0.1,4.8-0.3,5.6-0.3,10.1
							C1808.3,445.5,1807.5,445.5,1807.5,447.5L1807.5,447.5z M1988.1,470.5l-3.3-26.9c-0.5-1.9-0.4-2.5-1.1-3.3
							c-0.1,5.4,0.4,10.8,1.3,16.2l3.1,14C1988,470.4,1988.1,470.5,1988.1,470.5L1988.1,470.5z M1760.6,477.5v0.7
							c2.6,1.5,11.6-2.7,14.4-4.1c1.8-0.9,2.5-1.2,3.4-2.9c-2.2,0.1-2.5,1-4.2,1.7c-5.8,2.3-2.7,1.3-9,2.9
							C1764.4,476,1760.6,476.6,1760.6,477.5L1760.6,477.5z M2011.4,508.2v2.5c5.7,3.8,8.1-5,3.4-5.6
							C2013,505.6,2011.4,506,2011.4,508.2L2011.4,508.2z M1793,326.4c0,3.3-0.5,7,1.7,7c0.9-2,0.1-6.1,0.5-8.5
							c0.5-2.8,0.9-5,1.5-7.5c-0.8,0.3-0.3,0-0.8,0.5l-1.9,2.9C1793.3,322.7,1793,324.6,1793,326.4z M1696.8,465.4
							c0,3.7,6.6,4.9,6.6-0.3c0-2.1-3.9-3.1-5.5-1.7C1697.4,464,1697.1,464.7,1696.8,465.4z M1858.7,404.4c2.5-1.5-2.1-8.6-2.9-9.6
							l-1.8-2.1c-1.4-1.6-2.8-3.6-5.1-3.7c0.1,2.5,0.2,0.3,4.2,5.3c2.5,3.2,2.9,3.3,4.8,7.8C1858.2,403.2,1858.4,403.3,1858.7,404.4
							z M1955.4,357.1c-0.2-1.7-2-4.9-2.8-6.6c-0.5-1.1-0.9-2.5-1.1-3.7l-0.9-4c-1.8,0.5-1.8,1.9-1.5,3.5c0.3,1.5,0.7,2.9,1.2,4.4
							c0.5,1.3,1.1,2.5,1.9,3.7C1953.4,356,1954.1,357,1955.4,357.1L1955.4,357.1z M1876.4,333.8c0,1.5-0.4,7.6,0,8.4
							c1-0.3,0.9-0.1,1.3-1.1c0.2-0.7,0.3-1.3,0.4-2c0.7-6.3,0.5-6.9-1.1-12.4c-0.3-1-0.5-1.5-1.3-2.1c0,1.7,0.2,2.7,0.3,4.5
							c0.1,1.4,0.2,0.7,0.4,2.1C1876.5,331.8,1876.4,332.9,1876.4,333.8L1876.4,333.8z M1753.3,501.1l-3.5-18.4
							c-0.5-1.4-0.7-0.8-0.7-2.8h-0.3c0,7.1,0.6,10.8,2.1,17C1751.9,500.8,1751.6,500.9,1753.3,501.1L1753.3,501.1z M1587.2,277.5
							c0,2.1,2.7,2.1,2.8,2.1c1.1-0.6,3.4-2.2,3.4-3.8C1593.5,271.4,1587.2,273.7,1587.2,277.5L1587.2,277.5z M2048.3,433.3
							c-1.1,0-0.8-0.7-2,0.1c-0.7,0.5-1.1,1.1-1.1,2c0,5,6.9,1.8,6.9-1c0-0.8-0.5-1-1-1.7C2047.4,432.6,2049.4,433.3,2048.3,433.3
							L2048.3,433.3z M1938.7,360.9c0-2.5-0.3-2.5-0.8-4.5c-1.2-4.8-1.3-7.4-2.2-11.7c-0.3-1.5,0.2-1.2-1.2-1.6
							c0,4.9,0.2,7.4,1.5,12.1C1936.6,357.1,1936.6,360.4,1938.7,360.9L1938.7,360.9z M2196.3,475.5c0,1.2,0.3,1.8,1.3,2.2
							c2.6,1.3,3.1,0.9,4.6,0.5l0.3-2.5c0-1.5-2.3-2.8-4.9-2.8C2197.2,473.7,2196.3,474.5,2196.3,475.5L2196.3,475.5z M2114,342.1
							c0,2.8,5.9,3.4,5.9-1.4c0-2.5-3.3-3.2-4.8-1.3C2115.1,339.5,2114,342.1,2114,342.1z M2189.8,392.6c0,4.5,6.3,1.8,6.3-0.7
							c0-0.8-0.5-1-1-1.7h-2.1c-0.2-1,0.1-0.5-0.7-1C2192,389.2,2189.8,389.4,2189.8,392.6z M1897,356.4c0,2,2.3,1.1,4.3-3.7
							c1-2.5,2-5.2,2-8.5c-1.1,0.3-1.1,0.3-1.7,2.8L1897,356.4z M1830.5,387.3c-4,0-3.4-0.3-4.2,0.7c1.2,1.6,0.8-0.1,6.4,1.1
							l2.1,0.7c1.5,0.4,5.4-1.9,8.5-1.1c-2.6-3.9-6.7,0.1-9.1-0.6C1832.9,387.7,1832.3,387.4,1830.5,387.3L1830.5,387.3z
							 M1944.9,425.6c0.5,2.2,1.6,1.3,3.4,1.1c2.7-0.3,10.3-1.7,11.1-4.9c-0.5,0.2-1,0.3-1.5,0.5c-0.9,0.3-1,0.3-1.8,0.6
							C1952.1,424.4,1948.4,424.8,1944.9,425.6L1944.9,425.6z M1728.2,428.4c0,1.5,0.2,1.4,0.7,2.5h2.8l0.9-1.5
							c0.1-0.1,0.1-0.2,0.2-0.2c0.9-1,1.4-0.4,1.4-2.5C1734.1,423.6,1728.2,426.4,1728.2,428.4L1728.2,428.4z M1743.2,335.5
							c0.7,1.3,1,3.1,2.8,3.1c2.8,0,4.9-5.5,0.3-5.5C1744.5,333,1743.9,334.3,1743.2,335.5L1743.2,335.5z M1900.8,301.7
							c0,1.4,3.8,2.4,5.8,7.7c0.4,1.1,0.9,2.1,1.8,2.7c1.3-2.2-1-5.7-2.1-7.2c-0.8-1.1-3.2-3.9-4.8-3.9
							C1901.1,301.1,1900.8,301.4,1900.8,301.7L1900.8,301.7z M1969.3,482.7h1c-0.1-3.7-5.5-17-5.6-18.8h-0.7
							c0.3,3.5,2.7,10.5,3.8,14L1969.3,482.7z M1607.2,377.2c1.1,5,5.6,3.3,5.6,0.3c0-2.8-2.2-2.5-4.2-2.5
							C1608,375.8,1607.5,376.5,1607.2,377.2z M2156.8,282.8c0,3.4,4.9,4.7,4.9-2.1c-1.2-1-2.8-1.8-4-0.2
							C2157.1,281.2,2156.8,282,2156.8,282.8L2156.8,282.8z M1886.5,526.9c-0.2-1.6-0.3-1-1.5-2.1l-5.8-5.4
							c-0.7-0.7-1.9-2.3-2.8-2.3c-2.1,0,0.1,2,0.6,2.5C1884.1,526.7,1881.1,523.3,1886.5,526.9L1886.5,526.9z M1785.6,542.9
							c1.9,1.1,8.2-0.3,10.9-2.7c1-0.9,0.5,0,0.9-1.1c-2.1,0.2-6.1,1.6-9.2,2.2c-0.2,0.1-1.6,0.2-1.8,0.3
							C1785.4,542,1785.8,541.8,1785.6,542.9L1785.6,542.9z M1602.5,528.3c0.1,0.1,0.2,0.1,0.2,0.2c0.5,2.3,4.6-0.7,5.4-1.2v-2.5
							C1605.1,523.3,1602.8,525,1602.5,528.3L1602.5,528.3z M1780.8,507.4c0,4.5,6.5,6.3,8.4,3.8c-1.7-0.4-2.5-0.3-4.5-0.3
							c-2.5-3.8-2.6-0.9-1-7.6c-0.9,0.1-0.8-0.5-2,1.5C1781.1,505.6,1780.8,506.5,1780.8,507.4L1780.8,507.4z M2082.6,535.9v2.5
							c2.8,1.5,5.2,0.5,5.2-2.1c0-0.8-0.5-1-1-1.7C2083.4,534.5,2084.5,534.6,2082.6,535.9L2082.6,535.9z M1829.1,426.3v3.1
							c0,1.3-0.1,0.2,0.3,1c2.9-2-1.6-4.2,4.5-8.7c0.9-0.7,1.8-1.2,2.1-2.5c-1.5,0.2-3.7,1.5-4.6,2.3
							C1830.3,422.8,1829.1,424.1,1829.1,426.3z M1879.5,273.2v2.1c0.5,0.4,1.1,0.8,1.7,1c2.1-1.1,3.1-0.8,3.1-3.8
							c-1.1-0.8-2.5-1.4-3.8-1.4C1879.9,271.8,1879.5,272,1879.5,273.2L1879.5,273.2z M1581.6,449.4c0,0.9,0.2,0.4,0.3,1.7
							c3,0.7,4.5-0.7,4.5-2.5c0-1.9-0.9-1.8-2.1-2.5c-0.9,0.5-1.1,0.2-1.9,0.9C1582.1,447.9,1581.7,448.6,1581.6,449.4L1581.6,449.4
							z M1994,308.4c-0.7-2.7-8.1-5.6-11.5-5.6c0.2,2.2,1.5,1.4,5.4,3C1989.7,306.6,1991.8,308.3,1994,308.4L1994,308.4z
							 M1815.2,399.2v1h1c0.2-2.2,2.8-6.6,5-8.6c1.1-1.1,1.9-0.9,2.3-2.5C1819.1,389.5,1815.2,397,1815.2,399.2z M1830.2,347.4
							c0,1.8-0.2,0.5,0.3,1.4c1.5-1,1.3-3.1,2.1-6.6c0.5-2.3,1.5-4.5,2-6.7c-1.4,0.5-1.9,2.3-2.5,3.4c-0.2,0.5-0.5,0.9-0.7,1.4
							C1830.7,342.6,1830.3,344.9,1830.2,347.4z M1778.7,503.9c0.7-1.4-0.7-5.1-1.1-6.9l-1.3-5c-0.3-1.3,0.3-1-1.1-1.4
							C1775.2,494,1776.6,502.4,1778.7,503.9L1778.7,503.9z M1928.3,457.3c-0.7-1-3.7-3.1-4.9-4.2c-2.2-1.7-3.2-3.8-4.5-4.6
							c-0.2,1.1-0.3,0.5-0.1,1.4C1919.7,452.6,1924.3,457.2,1928.3,457.3L1928.3,457.3z M1815.5,476.1c0,3.1-0.3,3.4,1.4,3.8
							c0.7-1.5,0.1-3.6,0.6-5.3c0.8-2.3,2-2,2.5-3.8C1818.3,469.4,1815.5,473.2,1815.5,476.1z M1863.9,430.5l7.5,2.9
							c1.1,0.5,1.4,0.9,2.9,0.9c-1.8-2.7-6-4.9-10.4-4.9V430.5L1863.9,430.5z M1913.3,437.8c2-0.1,1.9-0.7,3.8-0.7
							c2.1,0,3.8,2.5,5.2,3.4c0.8-1.6-1.5-3.9-3-4.6C1917,434.8,1914,435.3,1913.3,437.8z M1878.1,480.5c0.8,1.1,0.5,0.7,1.7,1.5
							l1.3,1.1c0.1,0.1,0.5,0.5,0.5,0.5c2,2.8-1.2,3.7,0.7,3.7c2.3,0,2.1-6.6-3.4-7.9L1878.1,480.5z M1872.4,548
							c2,0,2.6-2.5,2.8-2.8c-0.3-0.6-0.7-1.1-1-1.7h-1.4C1869.8,543.4,1869.9,548,1872.4,548L1872.4,548z M1840.2,491.4
							c0,1.4,3.9,2.4,4.2,5.2c-0.5,2.1-0.8,0.1-0.3,2.1c1.1-0.3,1.3-0.7,1.5-2C1846.6,492.7,1840.2,489.1,1840.2,491.4L1840.2,491.4
							z M1909.5,362.6c0,3.8-0.3,3.7,1.4,3.8c0-5.8,2-12.2-0.3-10.1C1909.8,357.2,1909.5,361.5,1909.5,362.6L1909.5,362.6z
							 M1966.9,320.9c0,1.7,6,5.7,8.4,2.5c-1.1-0.5-2.8-0.6-4.2-1.1C1970.2,321.9,1966.9,318.8,1966.9,320.9L1966.9,320.9z
							 M1895.2,418.3c0,7.4,0.5,4,1.4,8h1.4c0.4-1.9-0.2-2.3-0.8-4.5c-0.7-2.8-0.4-3.7-1.7-4.6
							C1895.3,417.7,1895.2,417.6,1895.2,418.3L1895.2,418.3z M1868.8,451.7c-0.1-1.4-0.5-1.7-1.1-2.7l-3.6-4.5
							c-0.8-1-0.9-1.6-2.2-2c0.1,1.3,0.5,1.8,1.1,2.7C1863.9,446.8,1867.1,451.3,1868.8,451.7L1868.8,451.7z M1827.7,488.9
							c-0.1-1.3-0.1-1.1-1.1-1.6c-5.4-2.2-1.8-3.1-4.8-3.9c-0.6,2.7,1.3,4.8,3.3,5.5C1825.9,489.1,1826.8,489.2,1827.7,488.9
							L1827.7,488.9z M1829.1,370.6V370c-3.1,0-3.7-0.2-5.7,1.3c-0.9,0.6-3.9,2.5-3.4,3.6c0.4,1.1,1.1-0.3,3.9-2.1
							C1825,371.9,1827.4,370.8,1829.1,370.6L1829.1,370.6z M1865.6,478.2c-0.1-2.7-0.9-1.1-3-2.6c-0.8-0.5-1.9-2.3-2.2-3.4h-0.7
							C1859.4,476.1,1861.4,478.2,1865.6,478.2L1865.6,478.2z M1977.3,493.8c0.5-0.8,0.1-0.5,1-0.7l2.5-2.7
							c-1.8,0.1-2.2,0.9-4.5,2.1c-1.5,0.9-3.2,1.5-5,2v0.7C1974.6,496,1974.6,494.4,1977.3,493.8L1977.3,493.8z M1775.5,519.6
							c0,1.1,1,2.7,1.8,3.4c1.2,1.1,2.2,1.1,4.5,1.1c-0.8-1.1-2.1-1.5-3.2-2.3c-0.5-0.5-0.8-1-1.1-1.6c-0.8-1.3-0.1-1.2-1.5-1.6
							C1775.7,519,1775.5,518.9,1775.5,519.6L1775.5,519.6z M1902.9,459.1c1.5-0.4,1.4-1.4,1.4-3.8c0-2-0.7-4-2.8-4.2
							C1901.6,453.5,1902.9,452.6,1902.9,459.1z M1810.3,510.2c0,2,0.3,3.4,2.1,3.8c1-1.1-0.3-1-0.3-3.8c0-1.8,0.5-1.8,0.7-3.4
							C1810.9,506.8,1810.3,508.2,1810.3,510.2L1810.3,510.2z M1932.1,463.9c0,3.2-3.4,5.6-0.7,7.6c0.4-2.1-0.5-1.4,0.5-3.7
							c0,0,4-6-0.5-6.4C1931.5,463,1932.1,463,1932.1,463.9L1932.1,463.9z M1821.1,341.4c0,2.8-0.2,2.2,0.3,4.5h1
							c0-7.1,0.4-4.9,0.7-8.4C1821.7,338,1821.1,339.9,1821.1,341.4z M1902.9,485.8c0,2.1,1.8,4.5,5.2,4.5c-0.2-2-1.1-1.1-2.5-2.7
							c-1-1.1-1.1-2.1-2.3-2.9C1902.9,485.2,1902.9,485.1,1902.9,485.8z M1997.1,305.9c-0.1-2-0.7-2.3-1.1-4.2
							c-0.4-1.7-0.7-2.6-2-3.6c0,2.1,0,3,0.6,4.6c0.2,0.7,0.5,1.3,0.8,1.9C1996,305.6,1996,305.7,1997.1,305.9L1997.1,305.9z
							 M1872.9,383.1c1.4,1.1,5.9-1.9,7.6-5.2c-1.4,0.4-2.7,1.6-3.8,2.5c-0.6,0.5-1.3,0.8-2,1.1
							C1873.5,382.2,1873.3,381.9,1872.9,383.1z M1831.6,504.6c0,1.7,1.5,4.9,4.9,4.9c-0.5-1.9-1.7-1.4-3.1-4.2
							c-0.5-1.1-0.1-1-1.5-1.3L1831.6,504.6L1831.6,504.6z M1960.6,460c0,2.3-1.4,2.2-2.5,3.8c2.5,1.1,5.2-3.6,2.1-6.6
							c-1.3-1.2-1.1-1-2.1-1.1c0.4,1.3,0.5,0.9,1.3,1.8C1959.8,458.5,1960.6,459.5,1960.6,460z M1874.3,498.7c-0.2-2.3-0.2,0-2-2.8
							c-1.4-2.2-1.1-2.3-2.5-2.7c-0.6,1.3,0.2,2.5,1,3.6C1871.7,497.9,1872.4,498.7,1874.3,498.7L1874.3,498.7z M1847.9,438.1
							c1.9-0.2,1.1-0.5,2.7-2.2c1.1-1.1,2.1-1.1,2.5-2.7c-1.3-0.1-2.6,0.4-3.6,1.3c-0.4,0.4-0.8,0.8-1.1,1.4
							C1848,436.9,1847.9,436.9,1847.9,438.1L1847.9,438.1z M1893.8,461.8c0,2.6,0.7,5.5,2.8,6.9c0.4-0.8-1.4-4.8-2.1-8
							C1893.9,461.2,1893.8,460.8,1893.8,461.8L1893.8,461.8z M1865.9,474c1.1,1.7,0.8,0.2,3.2,3.8c0.5,0.8,0.3,0.8,1.3,1.1
							C1870.5,474,1866.7,473.1,1865.9,474L1865.9,474z M1832.6,462.5c2.1,0.5,3.3,2.4,3.8,4.5h0.7c0-1.9-0.3-2.8-1-3.8
							c-0.8-1-1.9-1.7-3.1-2.1C1832.7,461.5,1832.6,462,1832.6,462.5L1832.6,462.5z M1832.6,489.6c0-3.1-1.5-4.9-4.5-4.9
							c0.3,1.1,0.1,0.5,0.9,1.2C1831.7,488.1,1830.3,489,1832.6,489.6L1832.6,489.6z M1868.8,401.6c0,1.5,1.3,1.4,2.3,0.9
							c1.4-0.5,1.8-1,1.9-2.7C1871.6,399.9,1868.8,400.7,1868.8,401.6L1868.8,401.6z M1948.4,421.8c0.3,3.1,5,1,5.6-1L1948.4,421.8z
							 M1826.3,514.7c0.9,0,1-0.5,1.4-1l-4.5-2.1C1821.5,511.5,1823.8,514.7,1826.3,514.7z M1860.8,501.1c0,1,3.9,4.8,4.9,1.4
							C1862,501.7,1860.8,499.4,1860.8,501.1L1860.8,501.1z M1870.1,311.2c0,1,0.9,2.4,3.4,1
							C1873.6,308.6,1870.1,310.5,1870.1,311.2L1870.1,311.2z M1933.1,453.4c1.3,0.3,1.5,0.9,2.1,2c0.7,1.1,0.7,1.8,1.7,2.5
							c1.1-1.3-1.1-5.1-3.8-5.2V453.4L1933.1,453.4z M1816.9,463.9c1.7-0.5,0.8-0.7,1.8-1.6c1.1-1.1,1.5-0.1,2-1.8
							C1819.7,459.5,1817,460.9,1816.9,463.9L1816.9,463.9z M1892.8,443.7v1c1.5-0.2,0.8-0.3,2.1-0.3c1.5,0,2.3,1.3,2.9,0.8
							C1898.9,444,1895.4,442.7,1892.8,443.7L1892.8,443.7z M1789.4,499c-1.1,0-1.9,0-2.8,0.4c-0.5,0.2-1.9,1.1-1.1,1.8
							C1785.9,501.5,1789,500.8,1789.4,499z M1825.6,463.2c0.9,0,1-0.5,1.4-1c-1.1-0.5-1-0.1-2-0.4c-1.1-0.3-0.8-1.1-1.7-0.8
							C1821.9,461.5,1824.2,463.2,1825.6,463.2L1825.6,463.2z M1874,435c0.2,0.3,0.3,0.7,0.3,1c1.1-1.2,1.3-0.6,1.7-1.7
							C1875.3,434.5,1874.6,434.7,1874,435L1874,435z M1859.7,456.9h0.3v-1h-0.3V456.9z M1824.3,440.3v-0.3l-0.4,0.3L1824.3,440.3z
							 M1817.7,312.5h0.3l-0.3-0.4L1817.7,312.5z M1623.2,301.3l0.1-0.1C1623.3,301.3,1623.1,301.3,1623.2,301.3z M1816.9,313.9
							l0.3-0.7L1816.9,313.9z M1817.3,313.2l0.3-0.7L1817.3,313.2z M1990.7,465l14.7-25.7l11,6.3l-12.5,21.8
							c-1.1,1.1-2.2,2.1-3.4,3.2l-0.1-0.1L1990.7,465z M2001.3,462.5c0.1,0,0.2,0.1,0.3,0.1s0.2,0,0.3,0c0.2,0.1,0.2,0.1,0.4,0.1
							c0.2,0,0.3,0,0.4-0.1l0.4-0.1c0.2,0,0.2,0,0.4,0c0-0.1,0-0.1,0.1-0.1s0.1,0,0.1-0.1l0.1-0.1c0.1,0,0.1-0.1,0.1-0.1
							c0.1,0.1,0.1,0.2,0,0.2c-0.1,0.1-0.1,0.1-0.1,0.2s0,0.1,0,0.1c0,0.1,0,0.1,0,0.1c0,0.1-0.1,0.2-0.1,0.2
							c-0.1,0.1-0.1,0.2-0.1,0.2s0,0-0.1,0.1c-0.1,0.1,0,0.1,0,0c0,0.1,0,0.1,0,0.1c0,0,0,0.1,0,0.1c-0.1,0.1-0.1,0.1-0.1,0.1
							c-0.1,0-0.1,0.1-0.2,0.1s-0.2,0.1-0.2,0.1s-0.2,0.1-0.2,0.1c-0.1,0.1-0.1,0.1-0.2,0.2c-0.1,0.1-0.1,0.1-0.1,0.1
							c-0.1,0-0.1,0.1-0.1,0.1c-0.1,0-0.1,0-0.1,0.1c0,0.1-0.1,0.1-0.2,0.2c-0.1,0-0.1,0.1-0.1,0.2c-0.1,0-0.1-0.1-0.1,0
							c0,0.1,0,0,0,0.1c0,0,0,0,0,0.1c0,0,0,0-0.1-0.1c-0.1,0.1-0.1,0.1,0,0.1c0.1,0.1,0,0.1,0,0.1c-0.2,0.2-0.4,0.4-0.7,0.7
							c-0.2,0.2-0.4,0.5-0.5,0.8c0.1,0.1,0.2,0.2,0.3,0.2c0.1,0.1,0.2,0.1,0.2,0.2c0,0.1-0.1,0.2-0.1,0.3c0,0.1-0.1,0.2-0.1,0.3
							c-0.1,0.1-0.1,0.2-0.1,0.3c-0.1,0.1-0.1,0.2-0.1,0.3c-0.1,0.1-0.2,0.2-0.2,0.2c-0.1,0.1-0.2,0.1-0.3,0c-0.1,0-0.2-0.1-0.3-0.1
							c-0.1-0.1-0.2-0.1-0.3-0.2c-0.2,0.2-0.2,0.5-0.3,0.8c-0.1,0.2-0.2,0.5-0.4,0.8c-0.1,0-0.2,0-0.2,0s-0.2,0-0.2-0.1
							c-0.1-0.1-0.1-0.1,0-0.2c0-0.1,0.1-0.1,0.1-0.2c0.1-0.2,0.2-0.5,0.3-0.7s0.2-0.5,0.4-0.8c-0.2-0.2-0.3-0.3-0.4-0.4
							c-0.2-0.2-0.3-0.3-0.4-0.5c-0.4-0.4-0.8-0.9-1.1-1.3c-0.4-0.4-0.7-0.9-1-1.4c-0.1-0.1-0.1-0.1-0.1-0.2l-0.1-0.2
							c-0.1-0.1-0.1-0.1-0.1-0.2c0-0.1-0.1-0.1-0.1-0.1c0-0.2,0.1-0.2,0.2-0.3c0.1-0.1,0.2-0.2,0.2-0.3c-0.3-0.2-0.5-0.4-0.9-0.6
							s-0.6-0.4-0.9-0.6c0-0.1-0.1-0.1-0.1-0.2c-0.1-0.1-0.1-0.2-0.1-0.2c0.1-0.1,0.1-0.2,0.2-0.3c0.1-0.2,0.2-0.2,0.2-0.4
							c0.1-0.2,0.2-0.2,0.2-0.3c0.1-0.1,0.2-0.2,0.3-0.3c0.2,0.2,0.5,0.5,0.8,0.7c0.3,0.2,0.7,0.4,1,0.6c0.3,0.2,0.7,0.4,1.1,0.5
							c0.4,0.2,0.7,0.3,1.1,0.5c0.2,0.1,0.2,0.1,0.3,0.2c0.1,0.1,0.2,0.1,0.3,0.2c0.2,0.1,0.2,0.1,0.3,0.1c0.1,0.1,0.2,0.1,0.3,0.2
							C2001.1,462.5,2001.2,462.5,2001.3,462.5c0.1-0.1,0.2-0.1,0.2-0.1c0.1,0.1,0.1,0.1,0,0.1H2001.3L2001.3,462.5z M2000,465.3
							c0.1,0.1,0.2,0.2,0.2,0.2s0.2,0.1,0.2,0.2c0.2-0.3,0.4-0.7,0.7-1c0.2-0.3,0.5-0.5,0.7-0.8c-0.5,0.1-1,0.1-1.5-0.1
							c-0.5-0.1-1.1-0.3-1.7-0.5c0.2,0.2,0.2,0.3,0.3,0.5c0.1,0.2,0.2,0.3,0.3,0.5c0.1,0.2,0.2,0.3,0.4,0.5
							C1999.7,465,1999.9,465.2,2000,465.3z M2000.4,460.7c-0.1-0.1-0.2-0.1-0.3-0.1c-0.1,0-0.2,0-0.3,0l0.1-0.1h0.1
							c-0.1-0.1-0.1-0.1-0.1-0.1c-0.1,0-0.1,0-0.2,0s-0.1,0-0.2,0s-0.1-0.1-0.1-0.1c-0.1,0-0.1,0-0.2,0s-0.1-0.1-0.2-0.1
							s-0.1-0.1-0.2-0.1c-0.1-0.1-0.1-0.1-0.1-0.1c0,0,0.1,0,0-0.1c-0.1-0.1,0,0,0-0.1c-0.1-0.1-0.1-0.2-0.2-0.4
							c-0.1-0.2-0.1-0.3-0.2-0.4s-0.1-0.3-0.2-0.4s-0.1-0.2-0.1-0.3c0-0.1,0-0.1,0-0.1s-0.1,0-0.1-0.1c0-0.1,0-0.1,0.1-0.1
							c0,0,0.1-0.1,0-0.1c-0.1,0-0.1-0.1-0.2-0.1c-0.1-0.1-0.2-0.2-0.3-0.2c-0.1-0.1-0.2-0.2-0.2-0.2c0,0,0-0.1,0-0.1
							c0,0,0-0.1-0.1-0.1v-0.1c0-0.1,0.1-0.1,0.1-0.1c0-0.1,0-0.1,0-0.2s0-0.1,0.1-0.1V457c0,0,0-0.1-0.1-0.1
							c0.1-0.1,0.1-0.2,0.1-0.2s0.1-0.2,0.1-0.2c0-0.1,0.1-0.2,0.1-0.2c0.1-0.1,0.1-0.2,0.2-0.2c0.1,0,0.1,0,0.1,0h0.1
							c0.1-0.1,0.1-0.1,0.2-0.1c0.1,0,0.2,0.1,0.2,0.1l0.1,0.1h0.1v0.1c0.2,0.1,0.3,0.2,0.4,0.2c0.2,0.1,0.3,0.2,0.5,0.2
							c0.2,0.1,0.3,0.1,0.5,0.2c0.2,0.1,0.3,0.1,0.5,0.1c0.2,0,0.3,0,0.4,0c0.2,0,0.5-0.1,0.7-0.2c0.2-0.1,0.3-0.2,0.4-0.2h0.1h0.1
							h0.1c0,0,0-0.1,0.1-0.1c0,0,0.1,0.1,0.1,0c0-0.1,0.1,0,0.1,0.1s-0.1,0.1-0.1,0.1c0.1,0.1,0.1,0.1,0.1,0.1
							c0.1,0.1,0.1,0.1,0.1,0.2c-0.1,0.1-0.1,0.2,0,0.2c-0.1,0.1-0.1,0.1,0,0.2h-0.1h-0.1c0.1,0.1,0.1,0.1,0.1,0.2
							c0,0.1,0,0.1,0.1,0.1v0.1l-0.1,0.1c0.1,0.1,0.1,0.1,0.1,0.1c0,0.1,0,0.1,0,0.1s0,0.1-0.1,0c-0.1-0.1-0.1,0-0.1,0
							c0,0.1,0,0.2,0.1,0.2c-0.1,0.1-0.1,0.1-0.1,0.1c0,0.1,0,0.1,0,0.1s0,0.1-0.1,0.1s-0.1,0.1-0.1,0.1c-0.1,0-0.2,0.1-0.2,0.1
							s-0.2,0.1-0.2,0.1c-0.3,0.1-0.7,0.2-1,0.2c-0.3,0-0.6,0-0.9-0.1c0.1,0.1,0.1,0.1,0.1,0.2c0.1,0.1,0.1,0.2,0.1,0.2
							c0.1,0.1,0.1,0.1,0.1,0.2c0.1,0.1,0.1,0.1,0.2,0.1c0.3,0.1,0.5,0.1,0.8,0.1c0.3,0,0.5-0.1,0.8-0.2s0.7-0.2,0.9-0.4
							c0.3-0.2,0.8-0.4,1.2-0.8c0.1-0.1,0.1-0.2,0.2-0.2c0.1-0.1,0.2-0.1,0.2-0.2c0.1,0,0.1,0,0.1-0.1c0.1,0,0.2,0.1,0.3,0.1
							c0.1,0.1,0.2,0.2,0.2,0.2c0.1,0.1,0.1,0.2,0.2,0.2c0.1,0.1,0.2,0.2,0.2,0.3c0.1,0.1,0.2,0.2,0.2,0.2c0.1,0.1,0.1,0.1,0.1,0.2
							c0,0.1,0,0.1,0,0.1c0,0.1,0.1,0.1,0.1,0.1c0,0.1,0,0.1,0,0.2s0,0.1,0,0.2c-0.1,0-0.1,0.1-0.1,0.1c0,0.1,0,0.2,0,0.2
							c0,0.1,0,0.2,0,0.2c-0.1,0.1-0.1,0.2-0.1,0.3c-0.1,0.1-0.1,0.2-0.1,0.3c-0.1,0.1-0.1,0.1-0.1,0.1c-0.1,0.3-0.2,0.6-0.4,0.9
							c-0.2,0.2-0.4,0.5-0.7,0.7c-0.2,0.1-0.4,0.2-0.7,0.3c-0.2,0.1-0.5,0.2-0.7,0.2c-0.3,0-0.5,0-0.8-0.1s-0.5-0.2-0.8-0.3
							c-0.1,0-0.1-0.1-0.1-0.1l-0.1-0.1l-0.1-0.2c0.1,0.1,0.1,0.1,0.2,0.1c0.1,0,0.1,0.1,0.2,0.1c-0.1-0.1-0.1-0.2-0.2-0.2
							c-0.1-0.1-0.2-0.1-0.2-0.2v-0.1c0,0,0,0,0.1,0c-0.1-0.1-0.1-0.1-0.1-0.1c0-0.1,0-0.1,0-0.1c0-0.1,0-0.1-0.1-0.1
							s-0.1-0.1-0.1-0.1c0.1,0,0.1,0.1,0.1,0.1c0,0.1,0.1,0.1,0.1,0.1c0.1,0,0.1,0,0.1-0.1c0-0.1,0-0.1,0.1-0.1c0,0,0.1,0,0.1,0.1
							l0.1,0.1c0,0,0-0.1-0.1-0.1s-0.1,0,0-0.1c0.1,0.1,0.1,0.1,0.1,0.1s0,0,0.1-0.1c0.1,0,0.1,0.1,0.2,0.1c0.1,0.1,0.1,0.1,0.2,0.1
							c0-0.1,0-0.1-0.1-0.1l0,0c-0.1,0-0.1,0-0.1-0.1c0.1,0.1,0.2,0.1,0.3,0.1c0.1,0.1,0.2,0.1,0.3,0.1c0,0,0,0,0-0.1
							c0-0.1,0-0.1,0-0.1c0.1,0,0.1,0,0.2,0s0.1,0,0.2,0c0-0.1-0.1-0.1-0.1-0.1c-0.1,0-0.1-0.1-0.1-0.1c0.1,0,0.2-0.1,0.2,0
							c0.1,0.1,0.2,0,0.2,0s0,0,0-0.1c0-0.1,0,0,0-0.1c0.1-0.1,0.2-0.1,0.2-0.1c0.1,0,0.2,0,0.2-0.1c0,0,0,0-0.1,0s-0.1,0-0.1,0
							c0.1-0.1,0.1-0.1,0.2-0.1s0.1,0,0.2-0.1l0,0l0,0c0.1,0,0.1-0.1,0.1-0.1c0.1,0,0.1-0.1,0.1-0.1c0.2-0.1,0.3-0.1,0.4-0.2
							c0.1-0.1,0.2-0.1,0.3-0.2c0.1-0.1,0.2-0.2,0.3-0.2c0.2-0.2,0.2-0.2,0.3-0.4c-0.1-0.1-0.1-0.2-0.1-0.2
							c-0.1-0.1-0.1-0.2-0.2-0.2c-0.1-0.1-0.2-0.2-0.2-0.2c-0.1-0.1-0.1-0.1-0.2-0.2c-0.1,0.1-0.2,0.2-0.2,0.2
							c-0.1,0.1-0.2,0.2-0.3,0.2c-0.2,0.2-0.5,0.3-0.8,0.5c-0.2,0.2-0.5,0.2-0.8,0.3c-0.2,0.1-0.5,0.2-0.8,0.2
							c-0.3,0.1-0.5,0.1-0.9,0l-0.4-0.1c0.1,0,0.1-0.1,0.1-0.1C2000.4,460.3,2000.3,460.7,2000.4,460.7L2000.4,460.7z M2003,456.1
							c-0.1-0.1-0.2-0.1-0.3-0.1c-0.1,0-0.2,0-0.3,0l0.1-0.1h0.1c-0.1-0.1-0.1-0.1-0.1-0.1c-0.1,0-0.1,0-0.2,0s-0.1,0-0.2,0
							c-0.1,0-0.1-0.1-0.1-0.1c-0.1,0-0.1,0-0.2,0s-0.1-0.1-0.2-0.1c-0.1-0.1-0.1-0.1-0.2-0.1c-0.1-0.1-0.1-0.1-0.1-0.1
							c0,0,0.1,0,0-0.1c0,0,0,0,0-0.1c-0.1-0.1-0.1-0.2-0.2-0.4s-0.1-0.3-0.2-0.4s-0.1-0.3-0.2-0.4c-0.1-0.2-0.1-0.2-0.1-0.3
							c0-0.1,0-0.1,0-0.1c-0.1,0-0.1,0-0.1-0.1c0-0.1,0-0.1,0.1-0.1c0,0,0.1-0.1,0-0.1c-0.1,0-0.1-0.1-0.2-0.1
							c-0.1-0.1-0.2-0.2-0.3-0.2c-0.1-0.1-0.2-0.2-0.2-0.2c0,0,0-0.1,0-0.1c0,0,0-0.1-0.1-0.1v-0.1c0-0.1,0.1-0.1,0.1-0.1
							c0-0.1,0-0.1,0-0.2c0-0.1,0-0.1,0.1-0.1v-0.1c0,0,0-0.1-0.1-0.1c0.1-0.1,0.1-0.2,0.1-0.2s0.1-0.2,0.1-0.2
							c0-0.1,0.1-0.2,0.1-0.2c0.1-0.1,0.1-0.2,0.2-0.2c0.1,0,0.1,0,0.1,0h0.1c0.1-0.1,0.1-0.1,0.2-0.1c0.1,0,0.2,0.1,0.2,0.1
							l0.1,0.1c0.1,0,0.1,0,0.1,0v0.1c0.2,0.1,0.2,0.2,0.4,0.2c0.2,0.1,0.3,0.2,0.5,0.2c0.2,0.1,0.3,0.1,0.5,0.2
							c0.2,0.1,0.3,0.1,0.5,0.1c0.2,0,0.3,0,0.4,0c0.2,0,0.5-0.1,0.7-0.2c0.2-0.1,0.3-0.2,0.4-0.2h0.1h0.1h0.1c0,0,0-0.1,0.1-0.1
							c0,0,0.1,0.1,0.1,0c0-0.1,0.1,0,0.1,0.1c0,0.1-0.1,0.1-0.1,0.1c0.1,0.1,0.1,0.1,0.1,0.1c0.1,0.1,0.1,0.1,0.1,0.2
							c-0.1,0.1-0.1,0.2,0,0.2c-0.1,0.1-0.1,0.1,0,0.2h-0.1h-0.1c0.1,0.1,0.1,0.1,0.1,0.2c0,0.1,0,0.1,0.1,0.1v0.1l-0.1,0.1
							c0.1,0.1,0.1,0.1,0.1,0.1c0,0.1,0,0.1,0,0.1s0,0.1-0.1,0c-0.1-0.1-0.1,0-0.1,0c0,0.1,0,0.2,0.1,0.2c-0.1,0.1-0.1,0.1-0.1,0.1
							c0,0.1,0,0.1,0,0.1s0,0.1-0.1,0.1s-0.1,0.1-0.1,0.1c-0.1,0-0.2,0.1-0.2,0.1c-0.1,0.1-0.2,0.1-0.2,0.1c-0.3,0.1-0.7,0.2-1,0.2
							c-0.3,0-0.6,0-0.9-0.1c0.1,0.1,0.1,0.1,0.1,0.2c0.1,0.1,0.1,0.2,0.1,0.2c0.1,0.1,0.1,0.1,0.1,0.2c0.1,0.1,0.1,0.1,0.2,0.1
							c0.3,0.1,0.5,0.1,0.8,0.1c0.3,0,0.5-0.1,0.8-0.2s0.7-0.2,0.9-0.4c0.3-0.2,0.8-0.4,1.2-0.8c0.1-0.1,0.1-0.2,0.2-0.2
							c0.1-0.1,0.2-0.1,0.2-0.2c0.1,0,0.1,0,0.1-0.1c0.1,0,0.2,0.1,0.3,0.1c0.1,0.1,0.2,0.2,0.2,0.2c0.1,0.1,0.1,0.2,0.2,0.2
							c0.1,0.1,0.2,0.2,0.2,0.3s0.2,0.2,0.2,0.2c0.1,0.1,0.1,0.1,0.1,0.2c0,0.1,0,0.1,0,0.1c0,0.1,0.1,0.1,0.1,0.1s0,0.1,0,0.2
							c0,0.1,0,0.1,0,0.2c-0.1,0-0.1,0.1-0.1,0.1c0,0.1,0,0.2,0,0.2v0.2c-0.1,0.1-0.1,0.2-0.1,0.3c-0.1,0.1-0.1,0.1-0.1,0.2
							c0,0.1,0,0.2,0,0.2c-0.1,0.1-0.1,0.1-0.1,0.1c-0.1,0.3-0.2,0.6-0.4,0.9c-0.2,0.2-0.4,0.5-0.7,0.7c-0.2,0.1-0.4,0.2-0.7,0.3
							c-0.2,0.1-0.5,0.2-0.7,0.2c-0.3,0-0.5,0-0.8-0.1c-0.3-0.1-0.5-0.2-0.8-0.3c-0.1,0-0.1-0.1-0.1-0.1l-0.1-0.1l-0.1-0.2
							c0.1,0.1,0.1,0.1,0.2,0.1c0.1,0,0.1,0.1,0.2,0.1c-0.1-0.1-0.1-0.2-0.2-0.2c-0.1-0.1-0.2-0.1-0.2-0.2v-0.1c0,0,0,0,0.1,0
							c-0.1-0.1-0.1-0.1-0.1-0.1c0-0.1,0-0.1,0-0.1c0-0.1,0-0.1-0.1-0.1s-0.1-0.1-0.1-0.1c0.1,0,0.1,0.1,0.1,0.1
							c0,0.1,0.1,0.1,0.1,0.1c0.1,0,0.1,0,0.1-0.1s0-0.1,0.1-0.1c0,0,0.1,0,0.1,0.1l0.1,0.1c0,0,0-0.1-0.1-0.1c-0.1,0-0.1,0,0-0.1
							c0.1,0.1,0.1,0.1,0.1,0.1s0,0,0.1-0.1c0.1,0,0.1,0.1,0.2,0.1c0.1,0.1,0.1,0.1,0.2,0.1c0-0.1,0-0.1-0.1-0.1l0,0
							c-0.1,0-0.1,0-0.1-0.1c0.1,0.1,0.2,0.1,0.3,0.1c0.1,0.1,0.2,0.1,0.3,0.1c0,0,0,0,0-0.1c0-0.1,0-0.1,0-0.1c0.1,0,0.1,0,0.2,0
							s0.1,0,0.2,0c0-0.1-0.1-0.1-0.1-0.1c-0.1,0-0.1-0.1-0.1-0.1c0.1,0,0.2-0.1,0.2,0c0.1,0.1,0.2,0,0.2,0s0,0,0-0.1
							c0-0.1,0,0,0-0.1c0.1-0.1,0.2-0.1,0.2-0.1s0.2,0,0.2-0.1c0,0,0,0-0.1,0s-0.1,0-0.1,0c0.1-0.1,0.1-0.1,0.2-0.1
							c0.1,0,0.1,0,0.2-0.1l0,0l0,0c0.1,0,0.1-0.1,0.1-0.1c0.1,0,0.1-0.1,0.1-0.1c0.2-0.1,0.3-0.1,0.4-0.2c0.1-0.1,0.2-0.1,0.3-0.2
							c0.1-0.1,0.2-0.2,0.3-0.2c0.2-0.2,0.2-0.2,0.3-0.4c-0.1-0.1-0.1-0.2-0.1-0.2c-0.1-0.1-0.1-0.2-0.2-0.2
							c-0.1-0.1-0.2-0.2-0.2-0.2c-0.1-0.1-0.1-0.1-0.2-0.2c-0.1,0.1-0.2,0.2-0.2,0.2c-0.1,0.1-0.2,0.2-0.3,0.2
							c-0.2,0.2-0.5,0.3-0.8,0.5c-0.2,0.2-0.5,0.2-0.8,0.3c-0.2,0.1-0.5,0.2-0.8,0.2c-0.3,0.1-0.5,0.1-0.9,0l-0.4-0.1
							c0.1,0,0.1-0.1,0.1-0.1C2002.9,455.7,2002.9,456.1,2003,456.1L2003,456.1z M2009.5,452.8L2009.5,452.8c0.1,0,0.1,0,0.1,0.1
							c0,0.1,0,0.1-0.1,0.1c0,0.1,0,0.1,0,0.1c0,0.1,0,0.1,0.1,0.1l-0.1,0.1c0,0-0.1,0-0.1,0.1v0.1l-0.1,0.1v0.1c0,0,0,0.1,0.1,0.1
							h-0.1c0,0.1,0,0.1-0.1,0.2c-0.1,0-0.1,0-0.1,0c-0.1,0-0.1,0.1-0.1,0.1c0,0,0,0,0.1,0s0,0,0.1,0c-0.1,0-0.1,0-0.1,0
							s-0.1,0-0.1,0c-0.3-0.2-0.7-0.3-1.1-0.5s-0.8-0.4-1.1-0.6c-0.4-0.2-0.7-0.4-1-0.6c-0.3-0.2-0.7-0.4-0.9-0.6
							c-0.2-0.2-0.4-0.2-0.5-0.4c-0.2-0.2-0.3-0.2-0.5-0.4c0.1,0,0.1,0,0.2,0.1c0.1,0.1,0.1,0.1,0.1,0.1c-0.1-0.1-0.1-0.1-0.1-0.1
							s-0.1-0.1-0.1-0.1c0-0.1,0-0.1,0.1-0.1s0.1-0.1,0.1-0.1h0.1v-0.2l-0.1-0.1c0,0,0,0,0.1,0s0,0,0,0c-0.1-0.1-0.1-0.1-0.1-0.2
							c0-0.1,0.1-0.2,0.1-0.2v-0.1c0,0,0,0,0-0.1c0.1-0.1,0.1-0.1,0.1-0.2s0.1-0.1,0.1-0.2c0-0.1,0.1-0.2,0.1-0.2
							c0.1-0.1,0.1-0.2,0.2-0.2s0.1,0,0.1,0c0.1,0,0.1,0,0.1,0h0.1c0,0,0,0,0.1,0.1c0.1,0,0.1,0,0.2,0c0.1,0,0.1,0.1,0.1,0.1
							c0.1,0.1,0.1,0.1,0.1,0.2c0.1,0.1,0.1,0.1,0.1,0.1c0,0.1,0,0.1,0,0.1h0.1h0.1c0.1,0.1,0.2,0.2,0.2,0.2
							c0.1,0.1,0.2,0.2,0.4,0.2c0.2,0.1,0.2,0.2,0.4,0.2c0.2,0.1,0.2,0.2,0.3,0.2c0.4,0.2,0.8,0.5,1.2,0.7c0.4,0.2,0.8,0.5,1.2,0.7
							c0.1,0,0.1,0,0.1,0c0.1,0.1,0.1,0.1,0.2,0.1s0.2,0.1,0.2,0.1c0.1,0,0.1,0,0.1,0l0,0c0.1,0,0.2,0.1,0.2,0.1
							c0.1,0.1,0.1,0.1,0.2,0.2l-0.1,0.1h-0.1c0.1,0.1,0.1,0.1,0,0.1c-0.1,0.1-0.1,0.1-0.1,0.1c0,0.1,0,0.1,0,0.1
							c0,0.1,0,0.1-0.1,0.1c0,0-0.1,0.1-0.1,0s-0.1,0-0.1,0s0.1,0.1,0.1,0s0.1,0,0.1,0c-0.1,0-0.1,0.1-0.1,0.1
							C2009.5,452.8,2009.5,452.8,2009.5,452.8L2009.5,452.8z M2005.1,446.5c0.2,0.1,0.3,0.2,0.4,0.2c0.2,0.1,0.3,0.2,0.4,0.2
							c0.2,0.1,0.3,0.1,0.5,0.2c0.2,0.1,0.3,0.1,0.5,0.2c0.2,0.1,0.3,0.1,0.5,0.2c0.2,0.1,0.3,0.1,0.4,0.1c-0.1-0.2-0.1-0.5-0.2-0.7
							c-0.1-0.2-0.2-0.5-0.2-0.7c-0.1-0.1-0.1-0.2-0.1-0.3c0-0.2,0.1-0.2,0.1-0.4c0-0.1,0-0.2,0.1-0.3c0.1-0.1,0.1-0.2,0.1-0.3
							c0,0,0,0,0.1,0s0,0,0-0.1s0.1-0.1,0.1-0.2s0.1-0.2,0.1-0.2s0-0.1,0.1-0.1s0,0,0.1,0c0-0.1,0-0.1,0-0.1c0-0.1,0-0.1,0.1-0.2
							h0.1c0,0,0,0.1,0.1,0.1c0,0,0,0,0.1,0s0-0.1,0.1-0.1l0.1,0.1l0.1,0.1c0,0,0,0.1-0.1,0.1c0,0-0.1,0.1-0.1,0.1
							c0,0,0,0.1,0.1,0.1s0.1,0,0.1,0.1c0,0.3,0,0.5,0.1,0.8s0.2,0.5,0.2,0.8c0.1,0.3,0.2,0.5,0.3,0.8c0.2,0.3,0.2,0.5,0.4,0.8
							c0.5,0.1,1.1,0.1,1.8,0.1c0.5,0,1.1-0.1,1.7-0.1l0.1,0.1h0.1c0,0.1,0.1,0.2,0,0.2c-0.1,0.1,0,0.2,0.1,0.2
							c-0.1,0.1-0.1,0.2-0.1,0.2c0,0.1,0,0.2,0,0.2l-0.1,0.1c0.1,0.2,0,0.2-0.1,0.3v0.1h0.1c0,0.1,0,0.1-0.1,0.1
							c-0.1,0.1-0.1,0.1-0.1,0.1c-0.1,0-0.1,0.1-0.2,0.1s-0.1,0.1-0.2,0.1c-0.4,0-0.8,0.1-1.1,0.1s-0.8,0-1.1,0
							c0.1,0.1,0.1,0.2,0.2,0.2c0.1,0.1,0.1,0.2,0.2,0.2c0.1,0.1,0.1,0.2,0.2,0.2c0.1,0.1,0.2,0.2,0.2,0.2c0,0.1,0,0.1,0,0.1
							c0,0.1,0,0.1-0.1,0.1l0.1,0.1c0,0,0.1,0,0.1,0.1c0,0.1-0.1,0.2-0.1,0.2s0,0.1,0.1,0.2c-0.1,0.1-0.1,0.2-0.1,0.2
							c0.1,0.1,0.1,0.2,0,0.2c-0.1,0-0.1,0.1-0.1,0.1c0,0.1,0,0.1,0,0.1c0,0.1,0,0.1,0,0.1c0,0.1,0,0.1-0.1,0.1l0.1,0.1
							c0,0,0.1,0,0.1,0.1c-0.1,0.1-0.1,0.1-0.2,0.1c-0.1,0.1-0.1,0.1-0.2,0.1s-0.2,0-0.2,0c-0.1-0.1-0.2-0.1-0.2-0.2
							c-0.1-0.1-0.1-0.2-0.2-0.3c-0.1-0.2-0.2-0.3-0.3-0.5c-0.1-0.2-0.2-0.3-0.3-0.5v-0.1v-0.1c0,0,0-0.1-0.1-0.1c0,0,0,0-0.1,0
							c-0.1-0.1-0.1-0.1-0.1-0.1c0-0.1,0-0.1-0.1-0.1v-0.2v-0.1l0,0c0,0,0,0,0,0.1c-0.1,0-0.1-0.1-0.1-0.1c0-0.1,0-0.1,0-0.2h-0.1
							h-0.1c-0.1-0.1-0.1-0.2-0.2-0.3s-0.1-0.2-0.1-0.3c-0.2-0.1-0.3-0.1-0.4-0.1c-0.2,0-0.3-0.1-0.4-0.1c-0.1,0-0.1-0.1-0.2-0.1
							c-0.1-0.1-0.1-0.1-0.2,0c-0.2-0.1-0.3-0.1-0.5-0.1c-0.2-0.1-0.2-0.1-0.4-0.1c-0.1-0.1-0.2-0.1-0.3-0.1
							c-0.2-0.1-0.2-0.1-0.4-0.2c-0.2-0.1-0.3-0.1-0.4-0.2c-0.2-0.1-0.3-0.2-0.4-0.2c-0.2-0.1-0.2-0.2-0.3-0.3c0-0.1,0-0.1,0-0.1
							c0,0,0-0.1,0-0.1c-0.1-0.1-0.1-0.1-0.1-0.2s0-0.2-0.1-0.2c0.1-0.1,0.1-0.2,0.1-0.2c0.1-0.1,0.1-0.2,0.1-0.3s0-0.2,0.1-0.3
							c0-0.2,0.1-0.2,0.1-0.3c0.1,0,0.1,0,0.1,0C2004.9,446.5,2005,446.5,2005.1,446.5L2005.1,446.5z M2010.2,443.5
							C2010.3,443.5,2010.3,443.5,2010.2,443.5c0-0.1,0-0.1,0-0.1C2010.3,443.4,2010.3,443.4,2010.2,443.5h0.1c0,0,0.1,0,0.1,0.1
							c0,0.1,0,0,0,0.1c0,0-0.1,0-0.1-0.1L2010.2,443.5c0.1,0.1,0.1,0.1,0.1,0.1c0.1,0,0.1,0.1,0.1,0.1l0.2,0.1
							c0.1,0,0.1,0.1,0.1,0.1c0,0,0.1,0.1,0.1,0.1c0.3,0.2,0.5,0.4,0.8,0.6c0.3,0.2,0.5,0.3,0.7,0.4c0,0,0,0,0,0.1
							c0,0,0,0.1,0.1,0.1v0.1c0,0,0,0.1-0.1,0.1c0.1,0,0.1,0.1,0.1,0.1c0,0.1,0,0.1,0,0.1c0,0,0,0-0.1,0c0,0.1,0.1,0.1,0.1,0.2l0,0
							v0.1l0.1,0.1l-0.2-0.1c0,0,0,0.1,0.1,0.1c0,0,0,0,0,0.1c0,0,0,0.1,0,0.1c0,0.1-0.1,0.1-0.1,0.2s-0.1,0.2-0.1,0.2
							c0,0.1-0.1,0.1-0.1,0.1l0.1,0.1l0,0c0,0,0,0-0.1,0c0,0,0,0,0,0.1c-0.1,0-0.1,0-0.1,0.1l0.1,0.1c0,0,0,0.1-0.1,0.1v0.1
							l-0.2-0.1c-0.1,0.1-0.2,0-0.3-0.1c-0.2-0.1-0.4-0.2-0.6-0.4c-0.2-0.2-0.5-0.3-0.8-0.5c-0.3-0.2-0.5-0.4-0.8-0.5
							c-0.2-0.2-0.5-0.4-0.7-0.5c-0.2-0.2-0.3-0.2-0.4-0.3c-0.2-0.2-0.2-0.2-0.3-0.3c-0.1-0.1-0.2-0.2-0.2-0.2
							c-0.1-0.1-0.1-0.2-0.1-0.2l0.1-0.1c0,0,0.1-0.1,0.1-0.1c0,0,0-0.1,0-0.1c0-0.1,0.1-0.1,0.1-0.2c0-0.1,0.1-0.2,0.1-0.2
							c0.1,0,0.1-0.1,0.1-0.1c0.1-0.1,0.1-0.1,0.2-0.2c0.1-0.1,0.1-0.1,0.1-0.2c0,0,0.1-0.1,0.1,0c0,0.1,0.1,0,0.1,0v-0.1
							c0,0,0,0,0-0.1l0,0h0.1c0-0.1,0.1-0.2,0.2-0.2c0.1-0.1,0.2-0.1,0.2-0.1c0.1,0,0.1,0.1,0.1,0.1c0.1,0.1,0.2,0.2,0.4,0.4
							c0.2,0.2,0.3,0.3,0.5,0.5s0.3,0.3,0.5,0.5c0.2,0.1,0.2,0.2,0.4,0.3l0.1,0.1C2010.2,443.5,2010.2,443.5,2010.2,443.5
							L2010.2,443.5z M2012.4,446.7c0-0.1,0-0.1,0.1-0.1c0.1-0.1,0.1-0.1,0.1-0.1c0-0.1,0.1-0.1,0.1-0.1c0-0.1,0-0.1,0-0.2
							c0.1-0.1,0.1-0.1,0.1-0.2c0-0.1,0.1-0.2,0.1-0.2c0-0.1,0.1-0.1,0.1-0.2c0.1-0.1,0.1-0.1,0.1-0.2c-0.1-0.1-0.1-0.1,0-0.1
							c0.1,0,0.1-0.1,0.1-0.1c0.1,0,0.2,0.1,0.2,0.1l0.2,0.1c0.1,0.1,0.1,0.1,0.2,0.1s0.2,0.1,0.2,0.1c0.2,0,0.2,0,0.3,0
							c0.1,0,0.2,0.1,0.3,0.1c0.1,0,0.1,0.1,0.1,0.1c0,0.1,0.1,0.1,0.1,0v0.1h-0.1h-0.1c0,0-0.1,0-0.1,0.1c0,0.1-0.1,0.1-0.1,0.2
							c-0.1,0.1-0.1,0.1-0.1,0.2c0,0.1-0.1,0.2-0.1,0.3c-0.1,0.1-0.1,0.2-0.1,0.3c0,0.1,0,0.1-0.1,0.2c0,0.1-0.1,0.1-0.1,0.2
							c-0.2,0-0.2,0-0.4,0c-0.1,0-0.2-0.1-0.3-0.1c-0.1-0.1-0.2-0.1-0.3-0.2c-0.1-0.1-0.2-0.2-0.4-0.2L2012.4,446.7L2012.4,446.7z
							 M2138.7,430l-4.8-2.6c-0.9-0.5-1.9-0.5-2.8-0.2c-2.2,0.8-1.1,2-1.1,2.1c0.8,1.8-0.2-0.2,3.1,1.7c1.1,0.7,2.3,1.1,3.4,1.7
							c-2.1,3.1-2.8,1.6-2.8,4.2c3.6,2.4,6-2.5,6.3-3.4c1.2,0.1,2.8,1.1,2.8-0.7c0-1-0.4-0.9-1.4-1c0.6-2.6,2.8-4.3,2.1-7.3
							c-1.1,0.1-0.9-0.3-2.8,2.5L2138.7,430z M1966.3,540.5c-0.1-0.1-4.9-3.8-4.9-0.3c0,1.1-0.2,1,0.5,1.5l2.2,1.9
							c-1.5,2.2-3.6,4.2-3.7,5c-0.2,2.4,5,1.3,6.1-2.8c1.7,0.2,1.7,0.7,3.8,0.7c0.1-0.3,0-0.7-0.1-0.9l-0.5-0.8
							c-2.7-3.9,0.7-2.1-0.4-6.9C1967.7,537.9,1967.5,538.7,1966.3,540.5L1966.3,540.5z"/>
					</g>
					<g id="Estrellas" transform="translate(82.879 461.704) rotate(-107)">
						<path id="Trazado_12" class="st3" d="M-97.2,57.4l-4.6-2.5c-0.8-0.4-1.8-0.5-2.7-0.2c-2.1,0.8-1.1,2-1.1,2
							c0.8,1.7-0.1-0.2,3.1,1.7c1.1,0.6,2.2,1.1,3.4,1.7c-2,2.9-2.7,1.5-2.7,4c3.4,2.3,5.8-2.5,6.1-3.4c1.1,0.1,2.7,1,2.7-0.7
							c0-1-0.4-0.9-1.4-1c0.5-2.5,2.7-4.2,2-7.1c-1,0.1-0.9-0.3-2.7,2.3L-97.2,57.4L-97.2,57.4z"/>
						<path id="Trazado_13" class="st3" d="M-156.6-157.8c-2.3-0.5-8.4-3.7-7.1,2c2.1,0.5,5.1,1.4,5.1,1.4s-3.1,3.6-3.1,6.8l1,0.7
							c0.4-0.1,0.7-0.2,1.1-0.3c0.9-0.4,1.5-1.5,2-2.3c0.8-1.3,1.3-2.5,2-3.8c1,0.1,1.1,0.4,2.2,0.2c0.8-0.2,1.6-0.2,2.5-0.2
							c-0.4-1.4-2.5-2.4-3.7-3.1l1-5.1L-156.6-157.8L-156.6-157.8z"/>
						<path id="Trazado_14" class="st3" d="M-75.8-93.7c-0.1-0.1-4.7-3.6-4.7-0.3c0,1.1-0.2,0.9,0.5,1.5l2.2,1.9
							c-1.4,2.1-3.4,4-3.5,4.8c-0.2,2.3,4.8,1.3,5.9-2.8c1.7,0.2,1.6,0.7,3.7,0.7c0.1-0.3,0-0.6-0.1-0.9l-0.5-0.8
							c-2.6-3.8,0.7-2.1-0.4-6.7C-74.4-96.2-74.6-95.5-75.8-93.7L-75.8-93.7z"/>
						<path id="Trazado_15" class="st3" d="M-42.3,98.3c-1.6-0.4-1.5-1.7-3.1-1.7c-1.6,0-2.3,2.1,1,4.4c-2,3.7-3.4,2.5-1.7,5.1
							c1.9,0,2.3-1,3.7-3.1c1.8,0.4,1.5,1.1,3.4,0.7c-0.1-1.8-0.4-1.9-1.7-3.4c1.7-2.6,1.4-2.9,0.7-4.4
							C-41.2,96.2-41.9,96.6-42.3,98.3z"/>
						<path id="Trazado_16" class="st3" d="M-64.6,42.1c0,3.5,6.4,4.8,6.4-0.3c0-2-3.8-2.9-5.3-1.6C-64,40.8-64.3,41.4-64.6,42.1
							L-64.6,42.1z"/>
						<path id="Trazado_17" class="st3" d="M-171.8-195.5c0,2.1,2.6,2,2.7,2c1.1-0.6,3.4-2.1,3.4-3.7
							C-165.8-201.5-171.8-199.3-171.8-195.5z"/>
						<path id="Trazado_18" class="st3" d="M-125.8-101.9c1.1,4.8,5.4,3.2,5.4,0.3c0-2.7-2.1-2.3-4-2.3
							C-124.9-103.3-125.3-102.6-125.8-101.9z"/>
						<path id="Trazado_19" class="st3" d="M-120.7,90.6c0.1,0.1,0.2,0.1,0.2,0.2c0.5,2.2,4.5-0.7,5.2-1.2v-2.3
							C-118.1,85.7-120.4,87.4-120.7,90.6z"/>
						<path id="Trazado_20" class="st3" d="M-74.1-36.5c0,0.9,0.2,0.3,0.3,1.7c2.9,0.7,4.4-0.7,4.4-2.3c0-1.8-0.8-1.7-2-2.3
							c-0.9,0.4-1,0.2-1.8,0.9C-73.7-38.1-74-37.3-74.1-36.5L-74.1-36.5z"/>
						<path id="Trazado_21" class="st3" d="M-111-85.8l0.1-0.1C-110.9-85.9-111-85.8-111-85.8z"/>
					</g>
					<g id="Estrellas_1_" transform="translate(82.879 461.704) rotate(-107)">
						<path id="Trazado_12_1_" class="st3" d="M-102.4,337.1l-4.6-2.5c-0.8-0.5-1.8-0.5-2.7-0.2c-2.1,0.8-1.1,2-1.1,2
							c0.8,1.7-0.1-0.2,3.1,1.7c1.1,0.6,2.2,1.1,3.4,1.7c-2,2.9-2.7,1.5-2.7,4c3.4,2.3,5.8-2.5,6.1-3.4c1.1,0.1,2.7,1,2.7-0.7
							c0-1-0.4-0.9-1.4-1c0.5-2.5,2.7-4.2,2-7.1c-1,0.1-0.9-0.2-2.7,2.3L-102.4,337.1L-102.4,337.1z"/>
						<path id="Trazado_13_1_" class="st3" d="M-161.8,121.9c-2.3-0.5-8.4-3.7-7.1,2c2.1,0.5,5.1,1.4,5.1,1.4s-3.1,3.6-3.1,6.8
							l1,0.7c0.4-0.1,0.7-0.2,1.1-0.3c0.9-0.4,1.5-1.5,2-2.3c0.8-1.3,1.3-2.5,2-3.8c1,0.1,1.1,0.4,2.2,0.2c0.8-0.2,1.6-0.2,2.5-0.2
							c-0.4-1.4-2.5-2.4-3.7-3.1l1-5.1L-161.8,121.9L-161.8,121.9z"/>
						<path id="Trazado_14_1_" class="st3" d="M-80.9,186.1c-0.1-0.1-4.7-3.6-4.7-0.3c0,1.1-0.2,0.9,0.5,1.5l2.2,1.9
							c-1.4,2.1-3.4,4-3.5,4.8c-0.2,2.3,4.8,1.3,5.9-2.8c1.7,0.2,1.6,0.7,3.7,0.7c0.1-0.3,0-0.6-0.1-0.9l-0.5-0.8
							c-2.6-3.8,0.7-2.1-0.4-6.7C-79.5,183.4-79.7,184.2-80.9,186.1L-80.9,186.1z"/>
						<path id="Trazado_15_1_" class="st3" d="M-47.5,378c-1.6-0.5-1.5-1.7-3.1-1.7c-1.6,0-2.3,2.1,1,4.4c-2,3.7-3.4,2.5-1.7,5.1
							c1.9,0,2.3-1,3.7-3.1c1.8,0.4,1.5,1.1,3.4,0.7c-0.1-1.8-0.4-1.9-1.7-3.4c1.7-2.6,1.4-2.9,0.7-4.4
							C-46.4,375.9-47,376.4-47.5,378z"/>
						<path id="Trazado_16_1_" class="st3" d="M-69.8,321.8c0,3.5,6.4,4.8,6.4-0.3c0-2-3.8-2.9-5.3-1.6
							C-69.1,320.5-69.5,321.1-69.8,321.8L-69.8,321.8z"/>
						<path id="Trazado_17_1_" class="st3" d="M-177,84.2c0,2.1,2.6,2,2.7,2c1.1-0.6,3.4-2.1,3.4-3.7C-170.8,78.2-177,80.4-177,84.2
							z"/>
						<path id="Trazado_18_1_" class="st3" d="M-130.9,177.8c1.1,4.8,5.4,3.2,5.4,0.3c0-2.7-2.1-2.3-4-2.3
							C-130.1,176.5-130.5,177.1-130.9,177.8z"/>
						<path id="Trazado_19_1_" class="st3" d="M-125.8,370.2c0.1,0.1,0.2,0.1,0.2,0.2c0.5,2.2,4.5-0.7,5.2-1.1v-2.3
							C-123.3,365.4-125.6,367.1-125.8,370.2z"/>
						<path id="Trazado_20_1_" class="st3" d="M-79.2,243.1c0,0.9,0.2,0.3,0.3,1.7c2.9,0.7,4.4-0.7,4.4-2.3c0-1.8-0.8-1.7-2-2.3
							c-0.9,0.4-1,0.2-1.8,0.9C-78.8,241.7-79.1,242.4-79.2,243.1L-79.2,243.1z"/>
						<path id="Trazado_21_1_" class="st3" d="M-116.1,194l0.1-0.1C-116,193.9-116.2,193.9-116.1,194z"/>
					</g>
				</g>
			</g>
		</g>
	</g>
</g>
<path class="st2" d="M496.8,85.3C496.8,85.3,472,1,468-5s-497-6-497-6l18,132l55,7l308-43"/>
</svg>
